/* XPM */
static char * block_dev_xpm[] = {
"16 16 5 1",
" 	s None	c None",
".	c blue",
"X	c #808080",
"o	c lightgray",
"O	c black",
"                ",
"  ...........   ",
"  .XoooooXXX.   ",
"  .XoOOOOXXX.X  ",
"  .XoOXXoOXX.X  ",
"  .XoOXXoOXX.X  ",
"  .XoOoooOXX.X  ",
"  .XoOOOOXXX.X  ",
"  .XoOXXXOOX.X  ",
"  .XoOXXXoOX.X  ",
"  .XoOoooOOX.X  ",
"  .XoOOOOOXX.X  ",
"  .XXXXXXXXX.X  ",
"  ...........X  ",
"    XXXXXXXXXX  ",
"                "};
