/* XPM */
static char * closewin_xpm[] = {
"16 16 7 1",
" 	c none",
".	c #FFFF00000000",
"X	c #000000000000",
"o	c #00000000FFFF",
"O	c #595959595959",
"+	c #808080808080",
"@	c #FFFFFFFFFFFF",
"                ",
" ..XXXXXXXXXX.. ",
" ...oooooooo... ",
" X...oooooo...O+",
" XX...XXXX...XO+",
" X@@...@@...@XO+",
" X@++......+@XO+",
" X@@@+....@@@XO+",
" X@@@+....++@XO+",
" X@@@......@@XO+",
" X@@...@+...@XO+",
" X@...@@++...XO+",
" X...XXXXXX...O+",
" ...OOOOOOOO...+",
" ..++++++++++..+",
"                "};
