/* XPM */
static char * delete_xpm[] = {
"16 16 6 1",
" 	c none",
".	c #FFFF00000000",
"X	c #000000000000",
"o	c #FFFFFFFFFFFF",
"O	c #808080808080",
"+	c #595959595959",
"                ",
" ..XXXXXXX   .. ",
" ...ooooXOX ... ",
"  ...oooXoO...  ",
"  X...ooXo...   ",
"  Xo...oX...X+  ",
"  Xoo......OX+O ",
"  Xooo....ooX+O ",
"  Xooo....ooX+O ",
"  Xoo......oX+O ",
"  Xo...oo...X+O ",
"  X...oooo...+O ",
"  ...oooooo...O ",
" ...XXXXXXXX... ",
" ..++++++++++.. ",
"    OOOOOOOOOOO "};
