/* XPM */
static char *dir_pd_xpm[] = {
/* width height num_colors chars_per_pixel */
"    16    16        7           1",
/* colors */
". c none",
"# c #ffe79c",
"a c #c6864a",
"b c #ffc78c",
"c c #000000",
"d c #ff0000",
"e c #ffffff",
/* pixels */
"................",
"...###a ........",
"..b#bbba. ......",
".bbbbbbbbbbbbbb.",
"bb####ccc######c",
"b#bbbcdddcbbbbac",
"b#bbcdddddcbbbac",
"b#bcdddddddcbbac",
"b#bcdddddddcbbac",
"b#cddeeeeeddcbac",
"b#bcdddddddcbbac",
"b#bcdddddddcbbac",
"b#bbcdddddcbbbac",
"b#aaacdddcaaaaac",
".ccccccccccccccc",
"................"
};
