/* XPM */
static char *dir_ro_open_xpm[] = {
/* width height num_colors chars_per_pixel */
"    16    16        7            1",
/* colors */
". c none",
"# c #ffe79c",
"a c #c6864a",
"b c #ffc78c",
"c c #000000",
"d c #0000ff",
"e c #ffffff",
/* pixels */
"...###a. .......",
"..#bbbba. ......",
".#bbbbbb#######.",
"#bbbaaaaaaaaaaac",
"#bbaaaaaaaaaaaac",
"#baaaa##########",
"#baaaccccccbbbba",
"#baaceeeeeccbbbc",
"#baaceeeececbbbc",
"#baceeeeceeecbac",
"#ba#ceeceeecbaac",
"##bbceceeeecbacc",
"##bbbceeeecbaccc",
"#aaaaaccccaaacc.",
".ccccccccccccc .",
"               .",
};
