/* XPM */
static char *dir_open_xpm[] = {
/* width height num_colors chars_per_pixel */
"    16    16        6            1",
/* colors */
". c none",
"# c #ffe79c",
"a c #c6864a",
"b c #ffc78c",
"c c #000000",
"d c #0000ff",
/* pixels */
"...###a. .......",
"..#bbbba. ......",
".#bbbbbb#######.",
"#bbbaaaaaaaaaaac",
"#bbaaaaaaaaaaaac",
"#baaaa##########",
"#baaa#bbbbbbbbba",
"#baa#bbbbbbbbbbc",
"#baa#bbbbbbbbbbc",
"#ba#bbbbbbbbbbac",
"#ba#bbbbbbbbbaac",
"##bbbbbbbbbbaacc",
"##bbbbbbbbbbaccc",
"#aaaaaaaaaaaacc.",
".ccccccccccccc .",
"               .",
};
