/* XPM */
static char * empty_trash_xpm[] = {
"16 16 7 1",
" 	c none",
".	c #FFFFFFFFFFFF",
"X	c #A2A2A2A2A2A2",
"o	c #808080808080",
"O	c #595959595959",
"+	c #000000000000",
"@	c #FFFF00000000",
" ...XXXooOO++   ",
".@@.XXXooOO++@@ ",
" @@@++++++++@@@ ",
" .@@@XXooOO@@@oo",
" .+@@@X+oO@@@Oo ",
"+.+.@@@+o@@@++o ",
"+.+.+@@@@@@+++O ",
"+.+.+X@@@@++++Oo",
" .+.+X@@@@+++OOo",
" .+.+@@@@@@++Ooo",
" .+.@@@+o@@@+Oo ",
" .+@@@X+oO@@@Oo ",
" .@@@XX+oO+@@@o ",
" @@@XXXooOO+@@@ ",
" @@OOOOOOOOOO@@ ",
"   oooooooooooo "};
