/* XPM */
static char *warning_xpm[] = {
/* width height num_colors chars_per_pixel */
"    32    32        5            1",
/* colors */
". c none",
"# c #183c59",
"a c #bebebe",
"b c #ffffff",
"c c #ff0000",
/* pixels */
"................................",
"................................",
"................................",
"................................",
"................................",
".........##########.............",
"........##aaaaaaaaaa............",
".......##aaaaacaaaaaa...........",
"......##aaaaacccaaaaaa..........",
"......#aaaaacccccaaaaaa.........",
"......#aaaaacccccaaaaaa.........",
"......#aaaaacccccaaa#aa.........",
"......#aaaaacccccaa###aa........",
"......#aaaaacccccaaa#aaaa.......",
"......#aaaaaacccaaaaaaaaaa......",
"......#aaaaaacccaaaaaaa.........",
"......##aaaaacccaaaaaaa.........",
".......##aaaacccaaaaaaa.........",
"........##aaacccaaaaaa..........",
".........##aacccaaaaaa..........",
"..........#aaaaaaaaaaa..........",
"..........#aaaaaaaaab...........",
"..........#aacccaaaa............",
"..........#aacccaaaa............",
"..........#aacccaaaa............",
".........##aaaaaaaaa............",
".........#aaaaaaaaaaa...........",
"................................",
"................................",
"................................",
"................................",
"................................"
};
