/* XPM */
static char * exe_xpm[] = {
"16 16 13 1",
" 	c None",
".	c #000000",
"+	c #FFFFFF",
"@	c #7A7A7A",
"#	c #696450",
"$	c #A19870",
"%	c #8D8562",
"&	c #C6B988",
"*	c #D5CB96",
"=	c #D2CA96",
"-	c #928863",
";	c #FEFEFE",
">	c #F9F9F9",
"  #$%#          ",
" $%&&%$         ",
"#%****%#        ",
"%&*&$=&-        ",
"$&*$%*&$        ",
"#%****%#        ",
" $%&&%$         ",
"  #%$#          ",
"                ",
"                ",
"                ",
"                ",
"                ",
"                ",
"                ",
"                "};
