/* XPM */
static char * fifo_xpm[] = {
"16 16 5 1",
" 	s None	c None",
".	c black",
"X	c yellow",
"o	c blue",
"O	c lightgray",
"                ",
"XX   ...   XXXXX",
"XX  oo.oo  XXXXX",
"XX oOo.oOo XXXXX",
"XX oOOoOOo XXXXX",
"XX ooOOOoo XXXXX",
"XX ooooooo XXXXX",
"XX ooooooo XXXXX",
"XX ooooooo XXXXX",
"XX ooooooo XXXXX",
"XX ooooooo XXXXX",
"XX ooooooo XXXXX",
"XX  ooooo  XXXXX",
"XX   ooo   XXXXX",
"XX   ...   XXXXX",
"                "};
