/* XPM */
static char * go_to_xpm[] = {
"16 16 6 1",
" 	c none",
".	c #FFFFFFFFFFFF",
"X	c #000000000000",
"o	c #A2A2A2A2A2A2",
"O	c #595959595959",
"+	c #808080808080",
"                ",
"                ",
"                ",
"         .      ",
"         .X     ",
"         .oX    ",
" .........ooX   ",
" .oooooooooooX  ",
" .ooooooooooooXO",
" .oooooooooooXO+",
" .XXXXXXXXooXO+ ",
"  OOOOOOO.oXO+  ",
"   ++++++.XO+   ",
"         .O+    ",
"         O+     ",
"         +      "};
