/* XPM */
static char * go_up_xpm[] = {
"16 16 6 1",
" 	c none",
".	c #FFFFFFFFFFFF",
"X	c #A2A2A2A2A2A2",
"o	c #000000000000",
"O	c #595959595959",
"+	c #808080808080",
"       .        ",
"      .Xo       ",
"     .XXXo      ",
"    .XXXXXo     ",
"   .XXXXXXXo    ",
"  .oooXXXoooo   ",
"   OO.XXXoOOOO  ",
"    +.XXXoO++++ ",
"     .XXXoO+    ",
"     .XXXoO+    ",
"     .XXXoO+    ",
"     .XXXoO+    ",
"     .XXXoO+    ",
"     .ooooO+    ",
"      OOOOO+    ",
"       +++++    "};
