/* XPM */
static char * home_xpm[] = {
"16 16 5 1",
" 	c none",
".	c #FFFFFFFFFFFF",
"X	c #000000000000",
"o	c #A2A2A2A2A2A2",
"O	c #595959595959",
"       .X       ",
"      .ooX      ",
"     .ooooX     ",
"    .ooooooX    ",
"   .ooooooooX   ",
"  .ooooooooooX  ",
" .ooooooooooooX ",
" XXXooooooooXXX ",
"   .ooooooooXOOO",
"   .ooXXXXooXOoo",
"   .ooXooXooXOo ",
"   .ooXooXooXOo ",
"   .ooXooXooXOo ",
"   .XXXXXXXXXOo ",
"    OOOOOOOOOOo ",
"     oooooooooo "};
