/* XPM */
static char * info_xpm[] = {
"    32    32        2            1",
". c none",
"# c #000000",
"................................",
"................................",
"................................",
"................................",
"................................",
".........##########.............",
"........##.#.#.#.#.#............",
".......##.#.#.#.#.#.#...........",
"......##.#.#.#.#.#.#.#..........",
"......#.#.#.#.#.#.#.#.#.........",
"......##.#.#.#.#.#.#.#..........",
"......#.#.#.#.#.#.#.#.#.........",
"......##.#.#.#.#.#.###.#........",
"......#.#.#.#.#.#.#.#.#.#.......",
"......##.#.#.#.#.#.#.#.#.#......",
"......#.#.#.#.#.#.#.#.#.........",
"......##.#.#.#.#.#.#.#..........",
".......##.#.#.#.#.#.#.#.........",
"........##.#.#.#.#.#.#..........",
".........##.#.#.#.#.#...........",
"..........##.#.#.#.#.#..........",
"..........#.#.#.#.#.#...........",
"..........##.#.#.#..............",
"..........#.#.#.#.#.............",
"..........##.#.#.#..............",
".........##.#.#.#.#.............",
".........#.#.#.#.#.#............",
"................................",
"................................",
"................................",
"................................",
"................................"
};
