/* XPM */
static char * new_file_xpm[] = {
"16 16 6 1",
" 	c none",
".	c #FFFFFFFF0000",
"X	c #000000000000",
"o	c #FFFFFFFFFFFF",
"O	c #808080808080",
"+	c #595959595959",
"   .            ",
"  ...XXXXX      ",
" ..o..ooXOX     ",
"..ooo..oXoOX    ",
" ..o..ooXooOX   ",
"  ...oooXXXXX+  ",
"  X.ooooo+++X+O ",
"  XoooooooooX+O ",
"  XoooooooooX+O ",
"  XoooooooooX+O ",
"  XoooooooooX+O ",
"  XoooooooooX+O ",
"  XoooooooooX+O ",
"  XXXXXXXXXXX+O ",
"   +++++++++++O ",
"    OOOOOOOOOOO "};
