/* XPM */
static char * new_rox_xpm[] = {
"16 16 7 1",
" 	c none",
".	c #FFFFFFFF0000",
"X	c #000000000000",
"o	c #FFFFFFFFFFFF",
"O	c #00000000FFFF",
"+	c #595959595959",
"@	c #808080808080",
"   .            ",
" X...XXXXXXXXX  ",
" ..o..OOOOOOOX+ ",
"..ooo..OOOOOOX+@",
" ..o..XXXXXXXX+@",
" X...ooooooooX+@",
" Xo.++o++o++oX+@",
" Xoo++o++o++oX+@",
" XoooooooooooX+@",
" Xoo++o++o++oX+@",
" Xoo++o++o++oX+@",
" XoooooooooooX+@",
" XXXXXXXXXXXXX+@",
"  +++++++++++++@",
"   @@@@@@@@@@@@@",
"                "};
