/* XPM */
static char * package_green_xpm[] = {
"16 16 5 1",
" 	c None",
".	c #000000",
"+	c #143F0F",
"@	c #2C8722",
"#	c #3BB12D",
"                ",
"       .        ",
"     .+@+.      ",
"   ..@###@..    ",
" ..@#######@..  ",
".@###########@. ",
"...@#######@... ",
".@@..@###@..@@. ",
".###@.+@+.@###. ",
".#####@.@#####. ",
".######.######. ",
".@#####.#####@. ",
" ..@###.###@..  ",
"   ..@@.@@..    ",
"     .+.+.      ",
"       .        "};
