/* XPM */
static char * page_tar_xpm[] = {
"16 16 10 1",
" 	c None",
".	c #000000",
"+	c #FFBBBB",
"@	c #7A7A7A",
"#	c #7777BB",
"$	c #4747BB",
"%	c #0000BB",
"&	c #9898BB",
"*	c #FEFEFE",
"=	c #F9F9F9",
" .........      ",
" .+++++++..     ",
" .+++++++.@.    ",
" .+++++++.+@.   ",
" .+++++++.....  ",
" .+#++++++@@@.@ ",
" .+$#+++++#$+.@ ",
" .+%$#+++#$%+.@ ",
" .+%%$&+&$%%+.@ ",
" .+%%%$#$%%%+.@ ",
" .+%%$&+&$%%+.@ ",
" .+%$#+++#$%+.@ ",
" .+$#+++++#$+.@ ",
" .+#+++++++#+.@ ",
" .............@ ",
"  @@@@@@@@@@@@@ "};
