/* XPM */
static char * page_ps_xpm[] = {
"16 16 10 1",
" 	c None",
".	c #000000",
"+	c #CCFFCC",
"@	c #999999",
"#	c #3F3F3F",
"$	c #7A7A7A",
"%	c #BFBFBF",
"&	c #D8D8D8",
"*	c #FEFEFE",
"=	c #FCFCFC",
" .........      ",
" .+++++++..     ",
" .+++++@#.$.    ",
" .++++@.@.+$.   ",
" .+++@.@+.....  ",
" .++@.@+++$$$.$ ",
" .+@.@##+++++.$ ",
" .@.@%%%#++++.$ ",
" .#@%%%%%#+++.$ ",
" .+#%&&%%#+++.$ ",
" .+#%&%%%#+++.$ ",
" .++#%%%#++++.$ ",
" .+++###+++++.$ ",
" .+++++++++++.$ ",
" .............$ ",
"  $$$$$$$$$$$$$ "};
