/* XPM */
static char * page_po_xpm[] = {
"16 16 14 1",
" 	c None",
".	c #000000",
"+	c #FFFFFF",
"@	c #F4BACF",
"#	c #7A7A7A",
"$	c #E2164D",
"%	c #DD7596",
"&	c #F8CBD7",
"*	c #FFFEFE",
"=	c #B1DDB1",
"-	c #4ABA4E",
";	c #FDFEFD",
">	c #8DD68E",
",	c #FEFEFE",
" .........      ",
" .+++++++..     ",
" .@@@@@@+.#.    ",
" .@$$%%$$.+#.   ",
" .+%$++%$.....  ",
" .+%$++%$&###.# ",
" .+%$%%$@++++.# ",
" .+%$++*+++++.# ",
" .+%$++=--=++.# ",
" .@$$%=-;;-=+.# ",
" .++++>-++->+.# ",
" .++++=-,,-=+.# ",
" .+++++=--=++.# ",
" .+++++++++++.# ",
" .............# ",
"  ############# "};
