/* XPM */
static char * page_image_xpm[] = {
"16 16 9 1",
" 	c None",
".	c #000000",
"+	c #FFBBFF",
"@	c #7A7A7A",
"#	c #0000FF",
"$	c #FF0000",
"%	c #00FF00",
"&	c #FEFEFE",
"*	c #F9F9F9",
" .........      ",
" .+++++++..     ",
" .+++++++.@.    ",
" .+++++++.+@.   ",
" .+++++++.....  ",
" .++++++++@@@.@ ",
" .+++++++++++.@ ",
" .+#########+.@ ",
" .+#$%%%%%$#+.@ ",
" .+#%%$$$%%#+.@ ",
" .+#%%$$$%%#+.@ ",
" .+#$%%%%%$#+.@ ",
" .+#########+.@ ",
" .+++++++++++.@ ",
" .............@ ",
"  @@@@@@@@@@@@@ "};
