/* XPM */
static char * page_audio_xpm[] = {
"16 16 11 1",
" 	c None",
".	c #000000",
"+	c #EEEE88",
"@	c #7A7A7A",
"#	c #5B5B5B",
"$	c #939393",
"%	c #FEFEFE",
"&	c #C9C9C9",
"*	c #FCFCFC",
"=	c #FAFAFA",
"-	c #F9F9F9",
" .........      ",
" .+++++++..     ",
" .+++++++.@.    ",
" .+++++++.+@.   ",
" .+++++++.....  ",
" .++++++.+@@@.@ ",
" .+++++.#+.++.@ ",
" .+..+.#$++.+.@ ",
" .+.$.$&&.+.+.@ ",
" .+.#.#$&.+.+.@ ",
" .+..+.#$++.+.@ ",
" .+++++.#+.++.@ ",
" .++++++.++++.@ ",
" .+++++++++++.@ ",
" .............@ ",
"  @@@@@@@@@@@@@ "};
