/* XPM */
static char * page_adobe_xpm[] = {
"16 16 10 1",
" 	c None",
".	c #000000",
"+	c #DDFFFF",
"@	c #7A7A7A",
"#	c #FFC9C9",
"$	c #FFA5A5",
"%	c #FF0000",
"&	c #FF9393",
"*	c #FFFBFB",
"=	c #FEFEFE",
" .........      ",
" .+++++++..     ",
" .+++++++.@.    ",
" .+++++#+.+@.   ",
" .++++$%$.....  ",
" .+++#%+%#@@@.@ ",
" .++++$%$++++.@ ",
" .+++++&+++++.@ ",
" .+++++%+++++.@ ",
" .++#+%&%+#++.@ ",
" .+$%&+++&%$+.@ ",
" .#%+%#+#%+%#.@ ",
" .+$%$+++$%$+.@ ",
" .++#+++++#++.@ ",
" .............@ ",
"  @@@@@@@@@@@@@ "};
