/* XPM */
static char * page_movie_xpm[] = {
"16 16 12 1",
" 	c None",
".	c #000000",
"+	c #CCCCFF",
"@	c #7A7A7A",
"#	c #686868",
"$	c #F4F4F4",
"%	c #3F3F3F",
"&	c #FDFDFD",
"*	c #FEFEFE",
"=	c #8C8C8C",
"-	c #F7F7F7",
";	c #FCFCFC",
" .........      ",
" .+++++++..     ",
" .+++++++.@.    ",
" .+++++++.+@.   ",
" .+++++++.....  ",
" .+##++##+@@@.@ ",
" .#%%##%%#+++.@ ",
" .#%%##%%#+++.@ ",
" .+##++##++++.@ ",
" .++%%%%+++#+.@ ",
" .+#%%%%=+#%+.@ ",
" .+%%%%%%%%%+.@ ",
" .+=%%%%=+#%+.@ ",
" .+++++++++#+.@ ",
" .............@ ",
"  @@@@@@@@@@@@@ "};
