/* XPM */
static char * page_backup_xpm[] = {
"16 16 9 1",
" 	c None",
".	c #000000",
"+	c #DDDDDD",
"@	c #7A7A7A",
"#	c #FF8282",
"$	c #FFBABA",
"%	c #FF0000",
"&	c #FEFEFE",
"*	c #FCFCFC",
" .........      ",
" .+++++++..     ",
" .+++++++.@.    ",
" .+++++++.+@.   ",
" .+++++++.....  ",
" .++++++++@@@.@ ",
" .+++++++++++.@ ",
" .+++++++++++.@ ",
" .+#$+$#+++++.@ ",
" .+$%$%$+++++.@ ",
" .++$%$++++++.@ ",
" .+$%$%$+++++.@ ",
" .+#$+$#+++++.@ ",
" .+++++++++++.@ ",
" .............@ ",
"  @@@@@@@@@@@@@ "};
