/* XPM */
static char * page_spreadsheet_xpm[] = {
"16 16 13 1",
" 	c None",
".	c #000000",
"+	c #FFFFFF",
"@	c #414138",
"#	c #7A7A7A",
"$	c #1F1D17",
"%	c #C2B99C",
"&	c #B3A783",
"*	c #756D56",
"=	c #222322",
"-	c #4C4737",
";	c #8C8266",
">	c #A89C7B",
" .........      ",
" .+++++@+..     ",
" .+++++@+.#.    ",
" .++$@+@+.+#.   ",
" .@.%$@@@.....  ",
" .+$&@+@++###.# ",
" .+$%@$$+++++.# ",
" .@$&@*@$@$@=.# ",
" @-$&-;;$;$*-.# ",
" @*$%%%%>&&;-.# ",
" @*$%%&%&&&;-.# ",
" @;&%%%%%&&;$.# ",
" .$*%&%%&&&*$.# ",
" .+$;%%&%&;*$.# ",
" ..$-&&%&&*-$.# ",
"  ##$-%&%&-$### "};
