/* XPM */
static char * page_html_xpm[] = {
"16 16 10 1",
" 	c None",
".	c #000000",
"+	c #FFFFFF",
"@	c #7A7A7A",
"#	c #A8AAF7",
"$	c #848FD8",
"%	c #FF074D",
"&	c #E595C5",
"*	c #7481C9",
"=	c #A7A9F6",
" .........      ",
" .+++++++..     ",
" .+++++++.@.    ",
" .+++++++.+@.   ",
" .++++###.....  ",
" .+++##$%%@@@#@ ",
" %++##$%%&&*$#= ",
" %%+#$%%&&***$= ",
" &%%#%%&&****$# ",
" &&%%%&&*****$# ",
" .&&%&&******$# ",
" .+&&&*******$# ",
" .++&#$*****$## ",
" .+++##$$$$$##@ ",
" .....#######.@ ",
"  @@@@@@@@@@@@@ "};
