/* XPM */
static char *pd_xpm[] = {
/* width height num_colors chars_per_pixel */
"    16    16        7           1",
/* colors */
". c none",
"# c #ffe79c",
"a c #c6864a",
"b c #ffc78c",
"c c #000000",
"d c #ff0000",
"e c #ffffff",
/* pixels */
"................",
"....... ........",
"......... ......",
"................",
"......ccc.......",
".....cdddc......",
"....cdddddc.....",
"...cdddddddc....",
"...cdddddddc....",
"..cddeeeeeddc...",
"...cdddddddc....",
"...cdddddddc....",
"....cdddddc.....",
".....cdddc......",
"......ccc.......",
"................"
};
