/* XPM */
static char * reload_xpm[] = {
"16 16 6 1",
" 	c None",
".	c #FFFFFF",
"X	c #000000",
"o	c #A2A2A2",
"O	c #595959",
"+	c #808080",
"     ooooXO     ",
"     .ooooXO    ",
"      .ooooXO   ",
"        .oooXO  ",
"         .oooXO ",
"     .    .oooXO",
"    .Xo   .oooXO",
"   .Xoo   .oooXO",
"  .Xooo ..ooooXO",
" .XooooooooooXO+",
"OXooooooooooXO+ ",
"+OXooooooooXO+  ",
" +OXoooXXXXO+   ",
"  +OXooOOOO+    ",
"   +OXo         ",
"                "};
