/* XPM */
static char * tb_macro_xpm[] = {
/* width height ncolors cpp [x_hot y_hot] */
"18 18 4 1",
/* colors */
" 	c none",
".	c #000000",
"X	c #5D6069",
"o	c #FFFFFF",
/* pixels */
"       ..X        ",
"      .oo.X       ",
"     .oooo.X      ",
"     .oooo.X      ",
"      .oo.XX      ",
"       ..XX       ",
"   .....o.X       ",
"  .ooooooo.X      ",
"  .oooooooo.X     ",
"   .....ooo.X     ",
"      ..ooo.X     ",
"     .ooooo.X     ",
"    .ooooooo.X    ",
"   .ooo...ooo.X   ",
"  .ooo.XX..ooo.X  ",
"  .oo.XX  X.oo.X  ",
"   ...X    X...X  ",
"    XX       XXX  "};
