/* XPM */
static char * trash_xpm[] = {
"16 16 6 1",
" 	c none",
".	c #FFFFFFFFFFFF",
"X	c #A2A2A2A2A2A2",
"o	c #808080808080",
"O	c #595959595959",
"+	c #000000000000",
" ...XXXooOO++   ",
"....XXXooOO+++  ",
" ++++++++++++OO ",
" ...XXXooOO++Ooo",
" .+.+XX+oO+++Oo ",
"+.+.+XX+oO++++o ",
"+.+.+XX+oO++++O ",
"+.+.+XX+oO++++Oo",
" .+.+XX+oO+++OOo",
" .+.+XX+oO+++Ooo",
" .+.+XX+oO+++Oo ",
" .+.+XX+oO+++Oo ",
" .+.+XX+oO+++Oo ",
" ...XXXooOO++Oo ",
"  OOOOOOOOOOOOo ",
"   oooooooooooo "};
