/* XPM */
static char *magick[] = {
/* columns rows colors chars-per-pixel */
"48 48 33 1",
"  c #080608",
". c #181224",
"X c #091964",
"o c #5f1712",
"O c #4f4b29",
"+ c #43404a",
"@ c #554e56",
"# c #051a90",
"$ c #0b1cb5",
"% c #042595",
"& c #0529af",
"* c #0530cc",
"= c #0536e9",
"- c #5b47a7",
"; c #73b9b7",
": c #9f160d",
"> c #b05121",
", c #dd290d",
"< c #db364f",
"1 c #dc5c13",
"2 c #f5550b",
"3 c #f86d09",
"4 c #f2634a",
"5 c #f59e22",
"6 c #f3a358",
"7 c #dcc531",
"8 c #f7cc6c",
"9 c #a2b9c5",
"0 c #f6ad9e",
"q c #f8dfa9",
"w c #f1e5dc",
"e c #f6f6f8",
"r c None",
/* pixels */
"@@@@@@@@@@@@@@@@@@@@@@@@@@+@@@@@+@@@@@@@@@@O@O@O",
"@      .                                      .e",
"@ 004:.**********=**========**********========*e",
"@ 6w0<.&$$&*******=*=========******=*==========e",
"@ 20w<>X*&&&%&*********=*====&&*&**&********===e",
"@ <4q0<o#$&&&&&&&*&*&********&&&&$&&&&&*$*=****e",
"@ ,4404r.$%%%&&&*&&&&*******&&&&&$&&&*&****$*&*e",
"@ ,44w0<o%%&###&%%%&%&%&%&**&&%%&&&&&$&&$&&$&&*e",
"@ ,,46w4>.$%###$X$%%&%&%&%&&&%&&%&%&$&&&&&&$&&*e",
"@ ::<400<oX###XX###%#%%%&%&%%%X%X%%#%%%&%&&$&&*e",
"@ ::,,604:.XXXXXX##X#####%%X#####X##%#%%%%&$&%*e",
"@ o:,<400<o.XXX.X#X#XXXX#X%#######%%#&%&&&&%&&*e",
"@ oo:,<6w4ooX.XXXXXXXX#XXX###%&%$&&&&$*&*$*&&&*e",
"+  o:,<40w<oX.XXXXXXXXXXXXXXX%$XX$%%&%&$**%#&$&e",
"@   o::<004o....X.....X.XXXXX##%X#%%%%%%%%X#%X#e",
"+ o  or,<00@ .. .. XX ..XX.XXX#X###$#%#%#%##%##e",
"@  o..:,<6@@+. ...X.X..331. XXXXX#X#X#X##X#XX#Xe",
"@   o.o:>@we9 . ... X.>ee3: XXXXXX#XXX#XX#XX#X#e",
"@      .;99@+X.. ... .5eq51o..XXXXXXXXX###    .w",
"@    . ;;@X9ew     .. 50w33o... .     .....  ..w",
"@    ..+.99w9e@     . 15q21o..  . .. .  . ...X.e",
"@    .. X;;9ee9.     ..3e3o.  .   .. ..>o...X .e",
"@     .o+@;;eee+    .  :e1o    ..... .ee>.. ...e",
"@     ..o+;;;ew9   ..  o81        . .1ew3  .. .e",
"@       .+@;9wew@    .  71           >q52   .. e",
"@      o.OO;;9ee9 ooooooq5ooooooo  . >0>o     .e",
"@ .o:o::o..@;;wewO,1,,,,061::,,:,,,,,04:,:oooooe",
"@ ,,,,21>o.O@9;ew9:13w1q8451o:132322301>1221,,,e",
"@ 32233231O+o9;9we.2,22855456q6qwq36q6:12222323e",
"@ 32323223.O.-99ew;o123354655877weqe85e:,323332e",
"@ 2312,1744 O+;9we9o>33225655556666888qw6:,2132e",
"@ 2>q2>6w1oo .X;;9@  @12646556686888q78we4r16<1e",
"@ 216q0w,:rooo++@ o.O.O333365606668q8q8ewq0qw8>e",
"@ 31>qqw,:o:o    o.+oO.>560576ee8888q6qwwqwq6:1e",
"@ 1265e3oo:::oooO O >o@o35455qw>.8088q8qe6:::12e",
"@ 3268q>oooo: 4 Oo.. OOO>4665eq> 0888wqqw>:,,23e",
"@ 2355w>oo:,o  O.O o :1O.5658>ro26880qww5o:1>>3w",
"@ 24345032o::  @ O+  o>o.>6655.O8q88qqq31:,,,,1w",
"@ 35,166wq6oo:o333@.o. Oo+536686q00q8w51:,,,123e",
"@ 124386668oo336ee:O o.oO+>76e1,80eq52,,:<,2233e",
"@ 324331,26qq080823OX O -oO6e2:r:,::::::,,23332e",
"@ 233232323558w72330w6e66ww51::::::,,,,,>323335e",
"@ 22232351112,6421,35q432,,2,::::,1,,1232233333e",
"@ 2,122222223>12322,,,,,:,,:r,12123332332333555e",
"@ 11,2,23332122225222:2>>,1212,3222233232535555e",
"@ ,,2,22232323233322222232222232333334466655566w",
"@ 1222,3,22323,32233223323323333352443655585586q",
"weeeeeeeeeeeeeeeeeeeweeeweeeeeeeeeeeeeeeeeeeeeee"
};
