/* XPM */
static char *magick[] = {
/* columns rows colors chars-per-pixel */
"48 48 18 1",
"  c #020102",
". c #201808",
"X c #201c20",
"o c #2f2c0b",
"O c #232320",
"+ c #423a09",
"@ c #4e4907",
"# c #645913",
"$ c #716816",
"% c #8b790f",
"& c #9a8810",
"* c #ab9a0c",
"= c #baa708",
"- c #d0b608",
"; c #dfc504",
": c #f1d700",
"> c #ffe300",
", c None",
/* pixels */
",,,,,,,,,,,,,,,,,,,,,,,,,,,,,,,,,,,,,,,,,,,,,,,,",
",,,,,,,,,,,,,,,,,,,,,,,,,,,,,,,,,,,,,,,,,,,,,,,,",
",,,,,,,,,,,,,,,,,,,,,,,,,,,,,,,,,,,,,,,,,,,,,,,,",
",,,,,,,,,,,,,,,,,,,,,,,,,,,,,,,,,,,,,,,,,,,,,,,,",
",,,,,,,,,,,,,,,,,,,,,,,,,,,,,,,,,,,,,,,,,,,,,,,,",
",,,,,,,,,,,,,,,,,,,,,,,,,,,,,,,,,,,,,,,,,,,,,,,,",
",,,,,,,,,,,,,,@@@@@@@@@@@@@@@@@@@@@@@@@@@@o,,,,,",
",,,,,,,,,,,,,,>>>>>>>>>>>>>>>>>>>>>>>>>>>>* ,,,,",
",,,,,,,,,,,,,,@$$:::>::>>>>:>>:>::>>:>:>::*X,,,,",
",,,,,,,,,,,,,,,  *-::>::::************::>:*.,,,,",
",,,,,,,,,,,,,,,,,,#:::::::XX.XX.X.XXXX::::*X,,,,",
",,,,,,,,,,,,,,,,,,@:::::::X,,,,,,,,,,,@&::*X,,,,",
",,,,,,,,,,,,,,,,,,@;::;;::X,,,,,,,,,,,,@;;*X,,,,",
",,,,,,,,,,,,,,,,,,@;;;;:;;X,,,,,,,,,,,,@;:*X,,,,",
",,,,,,,,,,,,,,,,,,@;;;;;;;X,,,,,,,,,,,,.@;&.,,,,",
",,,,,,,,,,,,,,,,,,@;;;;;;;X,,,,,,,,,,,,, ;&X,,,,",
",,,,,,,,,,,,,,,,,,+----;;-O,,,,,,,,,,,,,,-&X,,,,",
",,,,              +-------X   ,,,o%,,,,,,@@X,,,,",
",,,               @-------O    ,,+-.,,,,,,  ,,,,",
",,,   X .X.XXXX...@-------OX.   ,o-X,,,,,,,,,,,,",
",,,    . XXXXXXXX @-------OXX   %&-O,,,,,,,,,,,,",
",,,,     XXXOXOXX +=======OXX .+===O,,,,,,,,,,,,",
",,,,,,    XXXOXX  +=======O  .@====X,,,,,,,,,,,,",
",,,,,,,,   .XXXXX +=======%$$$&====X,,,,,,,,,,,,",
",,,,,,,,   XXXOXXX+=======%$$$&====X,,,,,,,,,,,,",
",,,,,,,,,  XXXXOXX+*******XXX.@****X,,,,,,,,,,,,",
",,,,,,,,,   .XXXXX+*******X    +***X,,,,,,,,,,,,",
",,,,,,,,,    XXXXXo***&***X   , $%*X,,,,,,,,,,,,",
",,,,,,,,,,   XXXXX@&******O   ,,,+*X,,,,,,,,,,,,",
",,,,,,,,,,    XXXX@&&&&&&&XX   ,,o&X,,,,,,,,,,,,",
",,,,,,,,,,,   XXOO+&&&&&&&OX.   ,o#X,,,,,,,,,,,,",
",,,,,,,,,,,   XXOO+&&&&&&&O .   ,, X,,,,,,,,,,,,",
",,,,,,,,,,,,  .XXX+&&&&%&&X     ,,,,,,,,,,,,,,,,",
",,,,,,,,,,,,    XX+&%%%%%%X      ,,,,,,,,,,,,,,,",
",,,,,,,,,,,,,  XXX+%%%%%%%X     ,,,,,,,,,,,,,,,,",
",,,,,,,,,,,,,   XO+%%%%%%%O,,  ,,,,,,,,,,,,,,,,,",
",,,,,,,,,,,,,,   Xo$$$$%$%O,,,,,,,,,,,,,,,,,,,,,",
",,,,,,,,,,,,,,   XO%$%$$$$O   ,,,,,,,,,,,,,,,,,,",
",,,,,,,,,,,,,   X#$$$$$$$$#O    ,,,,,,,,,,,,,,,,",
",,,,,,,,,,,,  ooO$$$$$$$$$$#OO.  ,,,,,,,,,,,,,,,",
",,,,,,,,,,,,  ##$$$$$$$$$$$$$$@  ,,,,,,,,,,,,,,,",
",,,,,,,,,,,,  ooOoOo+OoOOOoOO@OX ,,,,,,,,,,,,,,,",
",,,,,,,,,,,,,  . X. XXX X. .XX  ,,,,,,,,,,,,,,,,",
",,,,,,,,,,,,,,,                ,,,,,,,,,,,,,,,,,",
",,,,,,,,,,,,,,,,,,,,,,,,,,,,,,,,,,,,,,,,,,,,,,,,",
",,,,,,,,,,,,,,,,,,,,,,,,,,,,,,,,,,,,,,,,,,,,,,,,",
",,,,,,,,,,,,,,,,,,,,,,,,,,,,,,,,,,,,,,,,,,,,,,,,",
",,,,,,,,,,,,,,,,,,,,,,,,,,,,,,,,,,,,,,,,,,,,,,,,"
};
