/* XPM */
static char *magick[] = {
/* columns rows colors chars-per-pixel */
"48 48 32 1",
"  c Gray0",
". c #000010",
"X c #3f3f3f",
"o c Gray33",
"O c Gray50",
"+ c #fe0010",
"@ c #fe3f4b",
"# c #fe7f87",
"$ c #ccccda",
"% c #c9c8d4",
"& c #d0cfc7",
"* c #d0cfdc",
"= c #d4d4cc",
"- c #d4d3de",
"; c #dcdbd4",
": c #cbcac6",
"> c #d7d6e1",
", c #dcdbe4",
"< c #d8d7e2",
"1 c #e0dfd9",
"2 c #e0dfe7",
"3 c #e3e2dd",
"4 c #ecebeb",
"5 c #e7e6e7",
"6 c #ededf1",
"7 c #f0efec",
"8 c #f3f2ed",
"9 c #f6f5f3",
"0 c #f8f7f4",
"q c #f8f8f5",
"w c #fdfdfd",
"e c #f6f6f8",
/* pixels */
"ooooooooooooooooooooo%wwwwwww::ooooooooooooooooo",
"o                  www6,2,2,46ww:o             w",
"o wwwwwwwwwwwwwwwwww2522,,,,,<,wwwwwwwwwwwwwwwww",
"o wwwwwwwwwwwwwwwww52222,22,,,,,<<wwwwwwwwwwwwww",
"o wwwwwwwwwwwwwww5522522,,#,,,<,<<>>>wwwwwwwwwww",
"o wwwwwwwwwwwwww65556222,,,+#,<<<>>>>--wwwwwwwww",
"o wwwwwwwwwwww6565552222,#+++###>>>>-----wwwwwww",
"o wwwwwwwwwww66555522222@++@,,>>>>>---------wwww",
"o wwwwwwwww96666655255#+++,,,<<>>>@#----------ww",
"o wwwwwwwwe9e66655555@++@#++@##++++++#---*-----w",
"o wwwwwwwee666665###+++,,,++#>>>------#-*-****-w",
"o wwwwwwwwe96656555#+@,,,,#++>>-------*********w",
"o.wwwwwwewe6966552252##,,,,++>>-----*$**$$****$w",
"o wweewweee66665622####,,,<++#----****$$$**$$**w",
"o weeeewee69#++++++++++#,##+++----**$*$$$$$$$$$w",
"o 9eeeee99666++++++++++,<<>>@+----$*$*$$$$$*$**w",
"o 66eee6e6664#+++++++++,,<>>--#--$$$$$$$$$%$$$$w",
"o 66666666565#+++++++++#<>>------***$$$%$%$%$$$w",
"o 66666665655#++++++++++<>>-----$**$$$%$%$%$%$$w",
"o 56666665555#++++######>>-----**$$*%$%$%%$$$$-w",
"o 56562525522,,22,,,,<<>>-----***$$$%%$%%$$%$$$w",
"o 5555252222,,,,,,,,,,>>------**-$*$%$$%%$%%$$$w",
"o ,25222,,,2,,,wwwwwwwwwwwwwwwwwwwwwwwwwewwwwwww",
"o.,,,,,,,,,,,wwwweee9999988888447555333;--;;=;;w",
"o ,,,,,<,,-<ww999999999998988844733733;;;;====;w",
"o ,<,----->ww9990q099999999888847333333;=======w",
"o >>------ww999900e999999998884XO75333;====&===w",
"o >>------w9900qqqqqq0e0999898  O7333;====&&&=&w",
"o ----**$ww0qqqqqqqqqqqq9900XO  O33331;==&&&&&&w",
"o **$$*%ww0qqqqqqqqqqqqq099O74  O77333;==&::&&=w",
"o **$$%%w000qqqqqwqeqqqqqOO899X O7533;===&&:&&=w",
"o %%%%%ww00qqqqqwqeeeqeqXX54qqO O755331====&&==w",
"o %%%%ww99qqqqqwwqwwqeOXeOOOOOX X445333;===&===w",
"o %%%%w900qqqeeqeqewwXwweqqq00O  775733;;=====;w",
"o %%%ww99qqqqweweeOO Xeeweeqq0X  847333331;;;;;w",
"o %%:w800qqqeeqwwwwwwwweqOewOOOOOO7777733333;33w",
"o %%w980qqqqwwqwwwwwwwO    Oeq00988844533333333w",
"o %ww899qqqeewwwwwwO        Xqqq006884447773555w",
"o %w88q9qqqwewqwwX           Xqq009988447733755w",
"o ww88990qqeeqwO              Oq000999887774744w",
"o w789800qwewwO               Oqq00999998888848w",
"o 7788800qqeqw                weeqq0e9909998689w",
"o 7788800qqqew      X O      eweeqeq90qq0999999w",
"o 4888890qqqqwwOOOwwX wwOOOwweweeeqqqqqq09009eew",
"o 44878800qqewqwwwww   wwwwwwwewweqeqqqqqqeqqqqw",
"o 77888800qqqwwwwwwwwOwwwwwwwweeewwwweeeeeweeeqw",
"o 73488880qqqeeewwwwwwwwwwwwwwweeweeewqwwqwqweew",
"wwwwwwwwwwwwwwwwwwwwwwwwwwwwwwwwwwwwwwwwwwwwwwww"
};
