/* XPM */
static char *magick[] = {
/* columns rows colors chars-per-pixel */
"48 48 30 1",
"  c #010101",
". c #320c09",
"X c #322b2d",
"o c #4d1414",
"O c #493030",
"+ c #671918",
"@ c #712018",
"# c #722423",
"$ c #4e524e",
"% c #615d59",
"& c #746464",
"* c #912624",
"= c #ba312f",
"- c #be4138",
"; c #964141",
": c #91726e",
"> c #b64c46",
", c #cb4e48",
"< c #c77d79",
"1 c #ef5151",
"2 c #ef7161",
"3 c #ef8271",
"4 c #959093",
"5 c #a68e8e",
"6 c #b2b0b2",
"7 c #ef9a96",
"8 c #efbab6",
"9 c #d3d1d3",
"0 c #f3f1f3",
"q c None",
/* pixels */
"qqqqqqqqqqqq909qqqqqqqqqqqqqqqqq6994qqqqqqqqqqqq",
"qqqq&4qqqqq04$O$&4qqqqqqqqqqqq:&6:q$qqqqq66:qqqq",
"qqq9$Xqqqqq4$%$X  X4444q4445:X  X%$Oqqqqq0$ qqqq",
"qqq60 &qqqqqqqqqq& X X   X  X 4qqqqqqqqq9q 4qqqq",
"qqqq94 4qqqqqqq4$.X&5444444&X X%4qqqqqq99.$qqqqq",
"qqqqq0O.qqqqqq4O4886444 X::XO:4 X4qqqqq0O 4qqqqq",
"qqqqq99 qqqqq&O464%XX$%.X$%   X  .:qqq66 4qqqqqq",
"qqqqqq0 qqqq4$&XX                  qqq96 qqqqqqq",
"qqqqqq0 qqqq$X                     &qq9q qqqqqqq",
"qqqqqq0X4qqqX X.X ..X              Xqq94Xqqqqqqq",
"qqqqqq0O:qq<:=;:>3::&%$XXXO..++++++*5q0%Xqqqqqqq",
"qqqqqq0O$:5============@-=-=========-44XXqqqqqqq",
"qqqqqq66  o+*==========*===========o+.  4qqqqqqq",
"qqqqqqqq  +++-,,>=====o.;+========* .o Oqqqqqqqq",
"qqqqqqqq4>#+*1111-===   ;..========  +:4qqqqqqqq",
"qqqqqqqq5*++=1111,==*   #  *===-===.  =6qqqqqqqq",
"qqqqqqqq-o+@,33211,=*   $  +===-==*+  @,qqqqqqqq",
"qqqqqqqq* +*2773,1,==   %X .=======+o o>qqqqqqqq",
"qqqqqqq4# o=7887211==   &..*=======*#++=qqqqqqqq",
"qqqqqqq3+ o,8883,1,==*  :..*======***++=6qqqqqqq",
"qqqqqqq,. +,887311,===*.:#========***@+*<qqqqqqq",
"qqqqqqq= .-,7833,,=====*<-========***++*:qqqqqqq",
"qqqqqqq* *;>383%OO.*===*<1========**@@+*=qqqqqqq",
"qqqqqq5@.#>,23:OOO. +==*7,====*#===**@+.+qqqqqqq",
"qqqqqq4*@*=>25&OXXXX +=@7,==@   *==***+ #qqqqqqq",
"qqqqqq6*+*->22OOXX . .=*7,==.    @==*@. ;qqqqqqq",
"qqqqqq5*+*;>,3:XXX   .=*7,=*      ***+. *qqqqqqq",
"qqqqqqq*##>>,2>XX    .=@7-=+      ***+..-qqqqqqq",
"qqqqqqqO.*;--,,.     *=*2,=*     .=*@+.+:qqqqqqq",
"qqqqqqq$ .*-=,1=...**==*3-==.    ***+++*<qqqqqqq",
"qqqqqqq$ .***==========*<-===*+*===*++*=6qqqqqqq",
"qqqqqqq4  @#***===-====*<-=======***++*>qqqqqqqq",
"qqqqqqqq. @+@***======**<-=======**@+#=>qqqqqqqq",
"qqqqqqqq& =+#**======**+<-=====***@++*=3qqqqqqqq",
"qqqqqqq9q-=#@#oo=====**+3====*****@+#=,qqqqqqqqq",
"qqqqqq60$#==+    ***=**+,;**=***@@++*>X&qqqqqqqq",
"qqqqqq60$ ==.     o***#o:;**#@**@++*=* 49qqqqqqq",
"qqqqq90OO&:*      .***#o:*#*+ .o+++==:&.Xqqqqqqq",
"qqqqq06 qq6=       **@@o;#@.    .o*=,qq4.qqqqqqq",
"qqqq694&q69X.      +#@+.*#o       .:X4qq&qqqqqqq",
"qqqqqqqqq9: XX    .+@++.#+o       X  :qqqqqqqqqq",
"qqqqqqqqq9& $q3**==*@++o#++    .X:q% &qqqqqqqqqq",
"qqqqqqqqq0$ :qq6:***=*#o+** .o#:qq69 %qqqqqqqqqq",
"qqqqqqqqq0$ qqqqqq5&*#+o#+**&4qqqqq0.:qqqqqqqqqq",
"qqqqqqq606.%qqqqqqqqqqqqqqqqqqqqqqq94O4qqqqqqqqq",
"qqqqqq60: &qqqqqqqqqqqqqqqqqqqqqqqqq90$&qqqqqqqq",
"qqqqq90$ &qqqqqqqqqqqqqqqqqqqqqqqqqqqq$ &qqqqqqq",
"qqqqq66&4qqqqqqqqqqqqqqqqqqqqqqqqqqqqqq4&qqqqqqq"
};
