/* XPM */
static char *magick[] = {
/* columns rows colors chars-per-pixel */
"48 48 33 1",
"  c Gray0",
". c #1f706f",
"X c #3f4f7f",
"o c #40473f",
"O c #50504f",
"+ c #6f5f4f",
"@ c #6f77bf",
"# c #4058df",
"$ c #4f804f",
"% c #1fc2ac",
"& c #801f1f",
"* c #80701f",
"= c #c06760",
"- c #f04740",
"; c #af1fff",
": c #90709f",
"> c #80801f",
", c #908050",
"< c #8fb070",
"1 c #ffff1f",
"2 c #efc060",
"3 c #ffe05f",
"4 c #8b998b",
"5 c #a09f8f",
"6 c #80b7e0",
"7 c #bddaa2",
"8 c #e0b7b0",
"9 c #e0e880",
"0 c #fefebf",
"q c #cfd0cf",
"w c #e0e7cf",
"e c #fffff9",
"r c None",
/* pixels */
"rrrrrrrrr922222222eeeeeeeew--weeee2222,rrrrrrrrr",
"rrrrrrrr9222222222e##########---#e22222,rrrrrrrr",
"rrrrrrr9222eeeeeeeeeeeeee#######--222222,rrrrrrr",
"rrrrrr92222e::::::::::::e########w--22225,rrrrrr",
"rrrrrr92222e::::3w0:::::e##wwwwwwwww-wwwwwrrrrrr",
"rrrrr922222e::>O0300q:::e##weeeeeeew-eeeewOrrrrr",
"rrrrr955555e:>>53,*348::eXXweeeeeew-eeeeewwOrrrr",
"rrrrr099,,,e:45053,,w<q:eXXweeeeew-eeeeeeww5Orrr",
"rrrrr0932992:*O55OO$O3+:eXXweeeew-eeeeeeewew5Orr",
"rrrrr0923239399255555+3:eXXweeee-@@@@@eeeweew5Or",
"rrrrr0922223333929999999225weeee-eeeeeeeewOOOOOO",
"rrrrr0922222333332323239225weeeew-eeeeeeeeeeeewO",
"rrrrr0932222233333332329225wee@@@@--@@@@@@@@eewO",
"rrrrr0923232322333323239225weeeeeeew-eeeeeeeeewO",
"rrrrr0932222222223232329225wee@@@@@@@--@@@@@eewO",
"rrrrr0922232223222222229225weeeeeeeeeeeeeeeeeewO",
"rrrrr0932223222222222223225wee@@@@@@@@@@@@@@eewO",
"rrrrr0923e22222222322223225weeeeeeeeeeeeeeeeeewO",
"rrrrr033eew322222e2222--&44wee@@@@@@@@@@@@@@eewO",
"rrrrr03ee.ee3222eee22--=-&5weeeeeeeeeeeeeeeeeewO",
"rrrrr0ee...ee22ee-ee2-=2=&5wee@@@@@@@@@@@@@@eewO",
"rrrrree.....eewe---ee--=-&5wwweeeewwweeeeeeeeewO",
"rrrree...ooooee-----ee---255OO5ww5OOO5@@@@@@eewO",
"rrree..OO++>ee2oO*O+-ee3223555OOOO555OO5eeeeew5O",
"rree..oOo,oee22>2++++-ee232225555555555O5www5OOO",
"ree...Ooo>ee221*25Ooo--ee232222222223255OOOOOrrr",
"ee....oooee-*2<2><o+5o--ee22222222232325555rrrrr",
"ree...o,ee--*oee7<+65oo--ee222222232323232,rrrrr",
"rree..,,Oee-*oeee<59w5O---ee22222323232322,rrrrr",
"rrree.oo5Oee*ee;ee8O55O###.ee2223232323232,rrrrr",
"rrrree.,oooeee;;;ee7:5o%##ee22232323232322,rrrrr",
"rrrrree.,ooee;;;;;eew<o..ee222323232323232,rrrrr",
"rrrrr0ee..ee;;;ooOoeeOO#ee2222232323232322,rrrrr",
"rrrrr03eeee;;oO++,Ooee<ee22223223232323232,rrrrr",
"rrrrrw33ee;;OOO,o4qOoeee322222222223232322,rrrrr",
"rrrrrw9ee;;;Ooo,O545+oee322222222222323232,rrrrr",
"rrrrr0ee;;;;oooo74OOq+oee22222222222232322,rrrrr",
"rrrrr03ee;;;o,474:w7<oo;ee2222222222323232,rrrrr",
"rrrrr093ee;;,,O+8ee:O8o;;ew222222222222322,rrrrr",
"rrrrr0923ee;oO4O4ee7OO$$ee2222222222232232,rrrrr",
"rrrrr09322ee;*oOowe88<$ee22222222222223222,rrrrr",
"rrrrrw92322ee;,oO+54%$ee322222222222222222,rrrrr",
"rrrrr0932322ee;;;O$<%we2922222222222222222,rrrrr",
"rrrrr09222222ee;;;o$ee22222222222222222222,rrrrr",
"rrrrr992232233ee;;;ee222333333333333333222,rrrrr",
"rrrrr9222222222ee;ee3333333333333333333322,rrrrr",
"rrrrr32222222222eee22222222222222222222222,rrrrr",
"rrrrr,,,,,,,,,,>,e,,,,,,,,,,,,,,,,,,,,,,,,,rrrrr"
};
