/* XPM */
static char *magick[] = {
/* columns rows colors chars-per-pixel */
"48 48 33 1",
"  c #010001",
". c #300204",
"X c #29261c",
"o c #312d27",
"O c #500305",
"+ c #54332c",
"@ c #6e0204",
"# c #484834",
"$ c #625638",
"% c #6e604c",
"& c #8f0204",
"* c #b20204",
"= c #827e2c",
"- c #d20204",
"; c #e80204",
": c #94922d",
"> c #b2b137",
", c #9e8e7c",
"< c #bca57c",
"1 c #c2ba44",
"2 c #d0c752",
"3 c #d1c978",
"4 c #e6da74",
"5 c #cebe8c",
"6 c #d9d38d",
"7 c #dcd8a8",
"8 c #e3de90",
"9 c #e5dca8",
"0 c #f8f792",
"q c #fbf9ad",
"w c #fcfacf",
"e c #fdfde9",
"r c None",
/* pixels */
"rrrrrrrrrrrrrrrrrrrrrrrrrrrrrrrrrrrrrrrrrrrrrrrr",
"rrrrrrrrrrrrrrrrrrrrrrrrrrrrrrrrrrrrrrrrrrrrrrrr",
"rrrrrrrrrrrrrrrrrrr  rrrrrrrrrrrrrrrrrrrrrrrrrrr",
"rrrrrrrrrrrrrrrrrrr 9  rrrrrrrrrrrrrrrrrrrrrrrrr",
"rrrrrrrrrrrrrrrrrr 39q3  rrrrrrrrrrrrrrrrrrrrrrr",
"rrrrrrrrrrrrrrrrrr wwwww6   rrrrrrrrrrrrrrrrrrrr",
"rrrrrrrrrrrrrrrrrr weeweww93    rrrrrrrrrrrrrrrr",
"rrrrrrrrrrrrrrrrr 6eewewewwww86<    rrrrrrrrrrrr",
"rrrrrrrr           ++++++++#wwwwq86<    rrrrrrrr",
"rrrrrrrr ;;-    -***OOOOO@@Owewwwwwqq865    rrrr",
"rrrrrrrr -; rrr ;--*oeee%OOOwwwwwqwqwqqqq83<  rr",
"rrrrrrrr * rrrr ---&oeeee,..ewwwwwwwqqqqqq07> rr",
"rrrrrrrr * rrrr *-*&oeeeee+.wwwwwwqqqwqqqqq8: rr",
"rrrrrrrr .rrrrr ***&oeeeee,.ewwwwwwqwqqqqqq4: rr",
"rrrrrrrr  rrrr .&**&oeeewww$wwqqq9qqqqq00002: rr",
"rrrrrrrrrrrrrr  &**&oee9777w996666688886340: rrr",
"rrrrrrrrrrrrr 7X&*&&oew7579w76553369q083348: rrr",
"rrrrrrrrrrrrr wX&*&&oe777eww7633368qqq84488: rrr",
"rrrrrrrrrrrr 9wo&&&&o77weew7633<38qwwq88804: rrr",
"rrrrrrrrrrr 5weX@&&&X9weee9733336wqqqqq8002: rrr",
"rrrrrrrrrrr qweo@&@@oeweww7333369wqwqqq0qq: rrrr",
"rrrrrrrrrr 5wewo@@@@oeeew7533367qqwqqqqqq9: rrrr",
"rrrrrrrrrr qwwwo@@@@oeww76333669qwqqqqqqq4: rrrr",
"rrrrrrrrr 9wwwwoO@@Oowww7633369qwqwwwqqq02: rrrr",
"rrrrrrrr 3wqwwwoO@OOXwq7333338qwwwqwqqqqq: rrrrr",
"rrrrrrrr qwwwwwX.OO.ow9633367qwwqqqqqqqq9: rrrrr",
"rrrrrrr 9qqwwwwo.OO.X9633<389qqqqwqqqqqq4: rrrrr",
"rrrrrr 5wqwwqwwo.O..X8333337qwwqwqqqqqqq2: rrrrr",
"rrrrrr 9qqwwqqwo....o433337qwqwqqqqqqqq0: rrrrrr",
"rrrrr <qqqq%o## .... %###69qwqwqqqqqqq09: rrrrrr",
"rrrr <6qqqq$. .. .       80qqqqqqqqqq0q4:   rrrr",
"rrrr 6qqqqq%oooooooooo#oo688qqqqqqqqq0q2:     rr",
"rrr <0qqqqqqq8833333333333380qqqqq0qq00:      rr",
"rr :24qqq0qqq084488884884800qqqqqq000q4:      rr",
"rrr  224q0qqq0q00qq00qq000qqq00qqqqq002%     rrr",
"rrrrr  114q0qqqqqqqqqqqqqqqqqqqq000000:     rrrr",
"rrrrrrr  224qq0qqqqqqqqqqqqqqq00qq0004:     rrrr",
"rrrrrrrrr  >>34qqq0qq0qq0q0000qq04q0q2:    rrrrr",
"rrrrrrrrrrr  :>134000qq00q00q00q00044:    rrrrrr",
"rrrrrrrrrrrrr   :>>3400qqq0q00004q002:    rrrrrr",
"rrrrrrrrrrrrrrrr   :>>34000q400q0404:    rrrrrrr",
"rrrrrrrrrrrrrrrrrrr   :>>4400q40q002:   rrrrrrrr",
"rrrrrrrrrrrrrrrrrrrrrr   :>:44994q4:   rrrrrrrrr",
"rrrrrrrrrrrrrrrrrrrrrrrrr   :::=442:  rrrrrrrrrr",
"rrrrrrrrrrrrrrrrrrrrrrrrrrrr    ::=  rrrrrrrrrrr",
"rrrrrrrrrrrrrrrrrrrrrrrrrrrrrrrr    rrrrrrrrrrrr",
"rrrrrrrrrrrrrrrrrrrrrrrrrrrrrrrrrrrrrrrrrrrrrrrr",
"rrrrrrrrrrrrrrrrrrrrrrrrrrrrrrrrrrrrrrrrrrrrrrrr"
};
