/* XPM */
static char *magick[] = {
/* columns rows colors chars-per-pixel */
"48 48 31 1",
"  c #010000",
". c #2c1005",
"X c #2f2c29",
"o c #4a1a08",
"O c #513420",
"+ c #692b0d",
"@ c #794528",
"# c #4e4e51",
"$ c #696f6f",
"% c #8c3610",
"& c #a63818",
"* c #964d28",
"= c #ae4518",
"- c #b64d20",
"; c #8e7161",
": c #c75920",
"> c #cf6f33",
", c #c77941",
"< c #a68a79",
"1 c #dc8b4a",
"2 c #efaf6d",
"3 c #959195",
"4 c #9e9bab",
"5 c #aeaaae",
"6 c #dfb68e",
"7 c #ffdb96",
"8 c #d3cdcf",
"9 c #dfdfe7",
"0 c #efe3df",
"q c #fcf8f9",
"w c None",
/* pixels */
"wwwwwwwwwwwwwwwwwwwwww44wwwwwwwwwwwwwwwwwwwwwwww",
"wwwwwwwwwwwwwwwwwwwww58ww4;;5wwwwwwwwwww44wwwwww",
"wwwwwwwwwwwwwwwwwwww45qqw*:*%;<wwwwwwww4854wwwww",
"wwwwwwwwwwwwwwwwww548qqqq11001*@;3wwwww50<9w3344",
"wwwwwwwwwwwwwwww448qqqqqq889q221,*@;3w38w<6qqq84",
"wwwwwwwwwwwwwwww39q8*8;8qq<w8122221;%@##;<8qq##8",
"wwwwwwwwwwwwwwww$Xq66*0qq85#8*12221221*+OX#4O3ww",
"wwwwwwwwwwwwwww<@@Xq85qq889#5..@12222222,@+.<www",
"wwwwwwwwwwwww3**,1,#q08<883#$X3X;2222222266O<www",
"wwwwwwwwwwww;*>1608X38<85;#..#8qq8q82222771.3www",
"wwwwwwwwww<@>>1w4qq4X3w4$X X$w48$4q7222761>.3www",
"wwwwwwww3**>1111@.#8#.#$O.O38$9Xw0222272>>>.3www",
"wwwwwww;*>>1>1>@ooX#8X XXO#8qq38;oO26711>>1o3www",
"wwwww<**>>,>>>>:>* X$3      #0q9@;1771>>>>@.3443",
"wwww;o+>1>>,>11111<. .   ..oo#q21276,>>>:oX#8994",
"wwww#.oo*>,>>,>11>7+  X.+11@.+21272>>>>*oX$86594",
"wwww#.%+oo*>1>>>1116; O,1111*12671>>>>%o..#OO.#w",
"wwww# %%%+o+*>>>>11,1>>111111176>::>:+%>%+%.wwww",
"wwww#.%%%%%o.+>>>>,1>1>>1111172>>:>-o+::>=*.wwww",
"wwww#. o%%%%+oo*>>>1111>111271::::%.o%:>>>*.wwww",
"wwwww..  +%%%%+oo@>11>11>1671::::+. X09>>>*.wwww",
"wwwww...  o%%%%%+oo*>1>1176::::-+. X;q8>>>*.wwww",
"www33  ##X  +%%%%%Ooo*>272---:*o  X390:::>*.wwww",
"ww43;3q9##O.  +%%%%%Ooo2>----%.  $6@q1>:::%.wwww",
"ww445qqq83###  o%%%%%%o*---=O. oO#$;X*>::+.$wwww",
"wwww5#5q$w8#.... o%%%%o&=-&++%%+%%%%::::o.$44www",
"wwwww#.wq38 ..+%o..+%%o&==%*---=%%::::-o.$33wwww",
"wwwww#..<95.o%%+++o .+o%++------=-:::-o.$34wwwww",
"wwwww#.+o+;O@+@++++O. .o%===------*;<.X$34wwwwww",
"wwwww#.+++o++@+++++++o.O=====----*Xw03<334wwwwww",
"wwww5$.++++O++++++++Oo.%======--%Xw9qq8434444www",
"www53# o++++O+++OOOOO+.%======%XO59q9qqqq985534w",
"ww443$   o+o#+OOO+oo+o.%&&==%O#388#3#85qqqqqq45w",
"ww43;#O   .X33O++o++++o+&&==@X58q#$#5#9qXqqq933w",
"www43$##X  383$O++++o+o+&==&....8538#0q#8qqq335w",
"www533;##XXq883$O+oooooo&&=&o. X ;q#qq#4qqq534ww",
"ww44433$OX895984$+oooo.o&&&%..##XXX8q335qq0334ww",
"443XX.X#3qq0#89883oooo.+&&%.X$$##OX ;q34qq433www",
"33;9qqqqqq339#59qX.ooo.o&%.X$333$##XXX8qq4<35www",
"3$#3qq38q588#5$qw.  oo.++.#;335333$#OX.43$34wwww",
"3##X3qq$49##44q8#XX   ...X334www543$####$33wwwww",
"3$#O#wqq4$949qq3###O.   #334wwwww4333$$;335wwwww",
"33$#X#3qq83qq9433<$###O$335wwwwwwww533343wwwwwww",
"433$#OX#8q8q5$;33333$$;334wwwwwwwwwww44wwwwwwwww",
"w543$##X#w83$;33w5443444wwwwwwwwwwwwwwwwwwwwwwww",
"ww433;####$$335wwwwwwwwwwwwwwwwwwwwwwwwwwwwwwwww",
"wwww433$##$344wwwwwwwwwwwwwwwwwwwwwwwwwwwwwwwwww",
"wwwww4333333wwwwwwwwwwwwwwwwwwwwwwwwwwwwwwwwwwww"
};
