/* XPM */
static char *magick[] = {
/* columns rows colors chars-per-pixel */
"48 48 17 1",
"  c Gray0",
". c #071071",
"X c #515151",
"o c #100686",
"O c #0010be",
"+ c #24219a",
"@ c #4741b5",
"# c #7171df",
"$ c #7171ef",
"% c #7182df",
"& c #8671ef",
"* c #9ea29e",
"= c #8682df",
"- c #aebbdf",
"; c #bcaeef",
": c #efefef",
"> c None",
/* pixels */
">>>>>>>>>>>>>>>>>>>>>>>>>>>>>>>>>>>>>>>>>>>>>>>>",
">>>>>>>>>>>>>>>>>>>>***>>>>>>>>>>>>>>>>>>>>>>>>>",
">>>>>>>>>>>>>>>>>>**:::*>>>>>>>>>>>>>>>>>>>>>>>>",
">>>>>>>>>>>>>>>>**::::::*>>>>>>>>>>>>>>>>>>>>>>>",
">>>>>>>>>>>>>>**:::::::::*>>>>>>>>>>>>>>>>>>>>>>",
">>>>>>>>>>>>**:::::   ::::*>>>>>>>>>>>>>>>>>>>>>",
">>>>>>>>>>**:::::  *** ::::*>>>>>>>>>>>>>>>>>>>>",
">>>>>>>>**:::::  ****** ::::*>>>>>>>>>>>>>>>>>>>",
">>>>>>**:::::  ********* ::::*>>>>>>>>>>>>>>>>>>",
">>>>**:::::  ************ ::::*>>>>>>>>>>>>>>>>>",
">>**:::::  ******-*-*+***X ::::*>>>>>>>>>>>>>>>>",
"**:::::  *******-;-;---;XXX ::::*>>>>>>>>>>>>>>>",
"*::::: ********.;-o**-***-XX ::::*>>>>>>>>>>>>>>",
"*:::::: *******;-*++++***;-*+ ::::*>>>>>>>>>>>>>",
"XX:::::: ******-;.o.o.o+;+**++ ::::*>>>>>>>>>>>>",
"XXX:::::: *****;*o*o.o++++++*++ ::::*>>>>>>>>>>>",
"XXXX:::::: ***;-;.o.X.o+**++*+++ ::::*>>>>>>>>>>",
"XXXXX:::::: **-;-o.o.o.++++++++++ ::::*>>>>>>>>>",
"XXXXXX:::::: *;-;-;-;.:.++++++++++ ::::*>>>>>>>>",
"XXXXXXX:::::: -;@;-*.:.o.++++++++++ ::::*>>>>>>>",
"XXXXXXXX:::::: -@-;-o.o*o.o++++.+ ++ ::::*>>>>>>",
" XXXXXXXX:::::: @;OX%X.X#&#$.o.o.@@  :::::*>>>>>",
"X XXXXXXXX::::::  *=oXoX&#&#&@@@@   :::::::*>>>>",
"XX XXXXXXXX::::::  *Xo.o#$@$#@@   ::::::::::*>>>",
">XX XXXXXXXX::::::  X.X.&#&@@   :::::::::::::*>>",
">>XX XXXXXXXX:::::: XX $#&    ::::::::::::::::*>",
">>>XX XXXXXXXX:::::: X&#&   :::::  ::::::::::::*",
">>>>XX XXXXXXXX:::::: #   :::::  ::::  :::::::::",
">>>>>XX XXXXXXXX::::::  :::::  ::::  :::::::::XX",
">>>>>>XX XXXXXXXX::::::::::  ::::  :::::::::XXXX",
">>>>>>>XX XXXXXXXX:::::::: ::::  :::::::::XXXXXX",
">>>>>>>>XX XXXXXXXX::::::::::  :::::::::XXXXXX**",
">>>>>>>>>XX XXXXXXXX:::::::: :::::::::XXXXXX**XX",
">>>>>>>>>>XX XXXXXXXX:::::::::::::::XXXXXX**XX**",
">>>>>>>>>>>XX XXXXXXXX::::::::::::XXXXXX**XX**XX",
">>>>>>>>>>>>XX XXXXXXXX:::::::::XXXXXX**XX**XX  ",
">>>>>>>>>>>>>XX XXXXXXXX::::::XXXXXX**XX**XX  XX",
">>>>>>>>>>>>>>XX XXXXXXXX:::XXXXXX**XX**XX  XXX>",
">>>>>>>>>>>>>>>XX XXXXXXXXXXXXXX**XX**XX  XXX>>>",
">>>>>>>>>>>>>>>>XX XXXXXXXXXXX**XX**XX  XXX>>>>>",
">>>>>>>>>>>>>>>>>XX XXXXXXXX**XX**XX  XXX>>>>>>>",
">>>>>>>>>>>>>>>>>>XX XXXXXX*XX**XX  XXX>>>>>>>>>",
">>>>>>>>>>>>>>>>>>>XX XXXXXX**XX  XXX>>>>>>>>>>>",
">>>>>>>>>>>>>>>>>>>>XX XXXX*XX  XXX>>>>>>>>>>>>>",
">>>>>>>>>>>>>>>>>>>>>XX XXXX  XXX>>>>>>>>>>>>>>>",
">>>>>>>>>>>>>>>>>>>>>>XX    XXX>>>>>>>>>>>>>>>>>",
">>>>>>>>>>>>>>>>>>>>>>>XXXXXX>>>>>>>>>>>>>>>>>>>",
">>>>>>>>>>>>>>>>>>>>>>>>XXX>>>>>>>>>>>>>>>>>>>>>"
};
