/* XPM */
static char *magick[] = {
/* columns rows colors chars-per-pixel */
"48 48 13 1",
"  c #010101",
". c #2a2a2a",
"X c #4b4b4b",
"o c #6c6c6c",
"O c #798286",
"+ c #867986",
"@ c #928e93",
"# c #a6a29e",
"$ c #b2aeb2",
"% c #bec3c7",
"& c #d4cfd3",
"* c #f5f0f4",
"= c None",
/* pixels */
"================================================",
"================&*==============================",
"================*&X#============================",
"================**X @==============$*=@=========",
"===============&**@X @============&*& @=========",
"===============&*&&@. X==========***@.==========",
"===============**&=$@. .XX@=#==@&***#X==========",
"===============*&@@oo+ooX....=****&&+X==========",
"===============*%XXX....    .o@$=@#&X.==========",
"==============#*o ...         .X@@@=X.==========",
"==============&$X.              XXo# X==========",
"========#@===&$.                 .Xo.o==========",
"========*#XX@$.                    ...@=====&&#=",
"=======**&@@o                       X#*******&@=",
"==**&&&*%=#o                        X#&*****#X==",
"==&*****$#o                         .o&**&**.X==",
"==&*&*&&#@.                          X&**&&@ @==",
"===*&&$#@.                           .&*&&&..===",
"===**$@oX.                           .&**$@ o===",
"===&*@@o.                             o**&o.====",
"====*$#o.                             .**&.X====",
"====%*#o.                             .&&@ =====",
"=====*%OX                              &*..=====",
"=====&*oX                              $@ @=====",
"=====$*$o                             .+ o======",
"=====**#X                              .X=======",
"====&*&@..                            .XX=======",
"===$**%o..                            .. =======",
"===&*&@oX.                            XO o======",
"===**&#oX.                            =& X======",
"===**%OX...                          o&&o.======",
"==&*$.   .X                         .#*%..======",
"==*%. X@==o@                        o**#..======",
"==*X.@$===@*$                      X***#.X======",
"==&.#======&*o.                   X&**&$X.======",
"==o+=======&*#o.               .X#&***&&o.o=====",
"===========&**@X.            .O$*&**&&&&$..=====",
"===========$**$+X...       .o$***&**&&&&&o @====",
"============**&@ooXoooXo@o@=$&*******&&&$o o====",
"===========#**&@@+O+#@@##oX.X$**=@@%**&=@X.X====",
"===========#&*&$@@@+X.   ..  o&%  .====##X .====",
"============$**%=##o .X@====oX&  o==============",
"=============**&$$@.X========#o o===============",
"=============#**&&o @==========@================",
"==============$**&o.============================",
"===============#&*# ============================",
"================@oo @===========================",
"==================#o@==========================="
};
