/* XPM */
static char *magick[] = {
/* columns rows colors chars-per-pixel */
"48 48 33 1",
"  c #040303",
". c #251b1a",
"X c #271e25",
"o c #24221c",
"O c #332a26",
"+ c #3c423c",
"@ c #483930",
"# c #6c3624",
"$ c #483e44",
"% c #514637",
"& c #664d30",
"* c #554d48",
"= c #6a574c",
"- c #716753",
"; c #686660",
": c #79895e",
"> c #9f6b31",
", c #b4542c",
"< c #847157",
"1 c #8c786d",
"2 c #958f75",
"3 c #a39a76",
"4 c #cfb641",
"5 c #dcc237",
"6 c #a9968c",
"7 c #a4a098",
"8 c #b2ae93",
"9 c #b8c4a2",
"0 c #c4b6aa",
"q c #ccd5b1",
"w c #eae9d6",
"e c #f1f6d6",
"r c None",
/* pixels */
"rrrrrrrrrrrrrrrrrrrrrrrrr o rrrrrrrrrrrrrrrrrrrr",
"rrrrrrrrrrrrrrrrrrrrrrr.O=;.rrrrrrrrrrrrrrrrrrrr",
"rrrrrrrrrrrrrrrrrrrr XX*%X.X rrrrrrrrrrrrrrrrrrr",
"rrrrrrrrrrrrrrrrr XoXX..XOoO.rrrrrrrrrrrrrrrrrrr",
"rrrrrrrrrrrrrr .oX...XOOXOXOo rrrrrrrrrrrrrrrrrr",
"rrrrrrrrrrrr.oXo...OOOOXO&;@X.rrrrrrrrrrrrrrrrrr",
"rrrrrrrrr.O*O...O@%1$O&%*...o.rrrrrrrrrrrrrrrrrr",
"rrrrrrrOO;=O..@*&-=-1<X. . .X..rrrrrrrrrrrrrrrrr",
"rrrrrrO$XXXO%-&=-2-o   o...*=..rrrrrrrrrrrrrrrrr",
"rrrrr O.O@*=;&@@*o .ooooXXoo .  rrrrrrrrrrrrrrrr",
"rrrrrrO.O=%@ooo .. .oooo. O* ...rrrrrrrrrrrrrrrr",
"rrrrrr*..O.. .... oOoooo=9e8.  . rrrrrrrrrrrrrrr",
"rrrrrrOX.oX . ...O..oo-9q788* .. rrrrrrrrrrrrrrr",
"rrrrrrrO..o..ooo. O39q8:::8ew.. . rrrrrrrrrrrrrr",
"rrrrrrrO. OXo. o:qeeq8q:9998*.X...rrrrrrrrrrrrrr",
"rrrrrrr O....O:qeeee97qq9;o.oo o..rrrrrrrrrrrrrr",
"rrrrrrrr+ .  +7eeeeeqq2O...... oO. rrrrrrrrrrrrr",
"rrrrrrrroo.o. 8weee8+.X.....o.O3& .rrrrrrrrrrrrr",
"rrrrrrrrr+o  o:w9*XoX...oX.*q6 ..X .rrrrrrrrrrrr",
"rrrrrrrrrO .. .OXoooX...*8=oO .%97. rrrrrrrrrrrr",
"rrrrrrrrr.o. oooo.oo =4OXO..*8;.O. .rrrrrrrrrrrr",
"rrrrrrrrrr+ .ooo..#,o&@..*8*O*. %21..rrrrrrrrrrr",
"rrrrrrrrrrooooo+* ,,o.@2X;;X.O2*O*... rrrrrrrrrr",
"rrrrrrrrrrrO o 7;.oO< 8;X O2X*;XXo@O. rrrrrrrrrr",
"rrrrrrrrrrrXo. ..*.q1. .:.9;X..X.166X.rrrrrrrrrr",
"rrrrrrrrrrr o. Ow6...* w7X..X@<6.--@.X rrrrrrrrr",
"rrrrrrrrrrrr+...X OXq0.. X%;.=76X..O%X.rrrrrrrrr",
"rrrrrrrrrrrroo .@q7.X.XOX*78O.X.Oo=66X.rrrrrrrrr",
"rrrrrrrrrrrrr+. .@...O18@O=O.X@<6@@1*Xo.rrrrrrrr",
"rrrrrrrrrrrrrXoo. >4>O81O..O=X@66@X.O&o.rrrrrrrr",
"rrrrrrrrrrrrr O.o%555..XOO@30-.O.XO$66*O rrrrrrr",
"rrrrrrrrrrrrrrO.O.4&.XO<8=X;@.OO=6@@2=OX.rrrrrrr",
"rrrrrrrrrrrrrr.ooOOO==.26*..@&@O28=O.X@OX.rrrrrr",
"rrrrrrrrrrrrrrrO.Oo286XXXOOO202.@O.@@181O.rrrrrr",
"rrrrrrrrrrrrrrrooOO@@..X-61.==OOO=1-.21@O.rrrrrr",
"rrrrrrrrrrrrrrr O.OOO-<.-61.X@@*X181O..O@O.rrrrr",
"rrrrrrrrrrrrrrrrOXXo;88@OoOOO186O@O.@=266Oorrrrr",
"rrrrrrrrrrrrrrrr.OOO@*O.O*28O*;@OO%16062*OO.rrrr",
"rrrrrrrrrrrrrrrrrOX@OO=-O*62@@O%<O-63=@oO@@.rrrr",
"rrrrrrrrrrrrrrrrrXXOO*68*oOOO.=80@O@.O@%%X. rrrr",
"rrrrrrrrrrrrrrrrrrOoOO=@.O@<8@O1%OOO@%Oo .rrrrrr",
"rrrrrrrrrrrrrrrrrrOo%OO@=@@68%OO%%=%o..o rrrrrrr",
"rrrrrrrrrrrrrrrrrr OO@@301O@O@%&%O..o.rrrrrrrrrr",
"rrrrrrrrrrrrrrrrrrr%.@o1&O@%=*Oo.o. rrrrrrrrrrrr",
"rrrrrrrrrrrrrrrrrrroXOOO%=-=O .o.rrrrrrrrrrrrrrr",
"rrrrrrrrrrrrrrrrrrrrO.&%*@. ...rrrrrrrrrrrrrrrrr",
"rrrrrrrrrrrrrrrrrrrrOOOo....rrrrrrrrrrrrrrrrrrrr",
"rrrrrrrrrrrrrrrrrrrrr*XX rrrrrrrrrrrrrrrrrrrrrrr"
};
