/* XPM */
static char *magick[] = {
/* columns rows colors chars-per-pixel */
"48 48 33 1",
"  c #020202",
". c Gray20",
"X c #004545",
"o c #137171",
"O c Gray34",
"+ c #4a7354",
"@ c #6a625c",
"# c #6c6c6c",
"$ c #767294",
"% c #00c000",
"& c #00ec06",
"* c #3faaaa",
"= c #629090",
"- c #7fd4d4",
"; c #927274",
": c Red",
"> c #ffa858",
", c #919295",
"< c #b6b6b7",
"1 c #bed2bc",
"2 c #beefbc",
"3 c #bed5d7",
"4 c #becffc",
"5 c #befecb",
"6 c #bef5f4",
"7 c #cfbebc",
"8 c #f1bebd",
"9 c #cabeca",
"0 c #e4bee3",
"q c #c8c8c9",
"w c #e7d9fc",
"e c #efefef",
"r c None",
/* pixels */
"rrrrrrrrrrrrrrrrrrrrrrrrrrrrrrrrrrrrrrrrrrrrrrrr",
"rrrrrrrrrrrrrrrrrrrrrrrrrrrrrrrrrrrrrrrrrrrrrrrr",
"rrr                                          rrr",
"rr eq<q<7q<q<q<qq<q<q<7q<q<qq<q<7q<1<q<qq<q<, rr",
"rr <OOOOOOOOOOOOOOOOOOOOOOOOOOOOOOOOOOOOOOOO. rr",
"rr qO                           OOO,eq<#OOOO. rr",
"rr <O XXXXXXXXXXXXXXXXXXXXXXXXXqOO,e#O@,@OOO. rr",
"rr 7O XooXoXXoXooXX:::::XXoXoXX9OOe#OOOOOOOO. rr",
"rr <O XXXXXXXXXXXXXXXXXXXXXXXXX<OOqOOOOO.OOO. rr",
"rr qO XoXooXXXXXXXX>>>>>XooXXoX<OO<@OOOO.OOO. rr",
"rr <O XXXXXXXXXXXXXXXXXXXXXXXXX<OO@<OOO .OOO. rr",
"rr qO XXXoXXX>>>>>X>>>>>XXXoXoX7OOOOO...OOOO. rr",
"rr qO XXXXXXXXXXXXXXXXXXXXXXXXX<OOOOOOOOOOOO. rr",
"rr <O X&&&&&X%&&%&X&&&&%X&&&&&X7OOO,eq<#OOOO. rr",
"rr qO XXXXXXXXXXXXXXXXXXXXXXXXX<OO,e#O#,@OOO. rr",
"rr <O X&&&&&X&&&&&X&&%&&X&&&&&X9OOe#OOOOOOOO. rr",
"rr <O XXXXXXXXXXXXXXXXXXXXXXXXX<OOqOOOOO.OOO. rr",
"rr qO XXXXXXXXXXXXXXXXXXXXXXXXX<OO<@OOOO.OOO. rr",
"rr 7O qq<<<7<79<7<<<q<qq<<7<<<77OO#<OOO .OOO. rr",
"rr qOOOOOOOOOOOOOOOOOOOOOOOOOOOOOOO@O...OOOO. rr",
"rr <@@OOOOOOOOOOOO@@OOOOOO@@OOOO@OOOOOO@OO@O. rr",
"rr ,........     ...........................  rr",
"rrr     .   00197     .  .           .       rrr",
"rr e9qq9  w0097qqqq  q7<<qqqq7qqqqqq<9<1q<qq, rr",
"rr <OOO 6eww00<9qqqqq OOOOOOOOOOOOOOOOOOOOOO. rr",
"rr 1OO 666ww0097qqqeee OOOOOOOOOOOOOOOOOOOOO. rr",
"rr 9O 5566www099qeeqeee q<q<<qq<<qqqq<q<<OOO. rr",
"rr < 225566ww099eqqeeeee OOOOOOOOOOOOOOO.OOO. rr",
"rr < 122556ww07qqqeeeeee OOOOOOOOOOOOOOO OOO. rr",
"rr  11122566,,.@,eeeeeeee OOOOOOOOOOOOOO OOO. rr",
"rr  <q11122O@    @eeeeeqq OOOOOOOOOOOOOO OOO. rr",
"rr qq<7971@@,<q,O ,eqeqeqq OOOOOOOOOOO@@ OOO. rr",
"rr qqqqqqq# <...< @qeqqqqq @OOOOO@OOOOO@ @OO. rr",
"rr qqqqqqq. q   q .qqqqqqq              .OOO. rr",
"rr qeqqqeq@ <OOO, #qqqqqqq @OOOOOO@OOOOOOOOO. rr",
"rr qqqeqeq, O,q<,@=31q7qqq e7q,OOeqq,O+%+OOO. rr",
"rr  qeqeeeq@    @$66631qq OqOO OOqOO.O%&%OOO. rr",
"rr  eqeeeeee,@.#;44466663 O,   OO,   O+%+OOO. rr",
"rr O eeeeeeeeqq780444666 OOOOOOOOOOOOOOOOOOO. rr",
"rr . eeeeeeqqqq780044466 OOOOOOOOOOOOOOOOOOO. rr",
"rr  < eeeeeqqqqq8804444 ....................  rr",
"rrr    eeeeqqqqq880044                       rrr",
"rrrrrrr eqqeqq9988800 rrrrrrrrr Xo#==+oX rrrrrrr",
"rrrrrrr   qqqq91988  rrrrrrrrrr o==<-==o rrrrrrr",
"rrrrrrr o*  qqqq7  rrrrrrrrrrrr o*-66-*o rrrrrrr",
"rrrrrrr          rrrrrrrrrrrrrr          rrrrrrr",
"rrrrrrrrrrrrrrrrrrrrrrrrrrrrrrrrrrrrrrrrrrrrrrrr",
"rrrrrrrrrrrrrrrrrrrrrrrrrrrrrrrrrrrrrrrrrrrrrrrr"
};
