/* XPM */
static char *magick[] = {
/* columns rows colors chars-per-pixel */
"48 48 33 1",
"  c Gray0",
". c #241722",
"X c #333153",
"o c #51251c",
"O c #44334b",
"+ c #484949",
"@ c #544e67",
"# c #60605e",
"$ c #746c76",
"% c #676f88",
"& c #118811",
"* c #778877",
"= c #778891",
"- c #880011",
"; c #bb2233",
": c #bf593b",
"> c #887688",
", c #8877aa",
"< c #d29f6c",
"1 c #8f8d95",
"2 c #9497af",
"3 c #a2a1a5",
"4 c #acaeb0",
"5 c #bbbbcc",
"6 c #bbccbb",
"7 c #d9bbb7",
"8 c #d2bbcf",
"9 c #d5d7d7",
"0 c #ddeedd",
"q c #ddeeee",
"w c #eedded",
"e c #f8f8f9",
"r c None",
/* pixels */
"rrrrrrrrrrrrrrrrrrrrrrrrrrrrrrrrrrrrrrrrrrrrrrrr",
"rr0eeeeeeeeeeeeeeeeeeeeeeeeeeeeeeeeeeee8<;.994rr",
"r0eqqqeewqqeeqewqqeewqeqeqewe0w09999ee<;;o >52@r",
"reqwqeqwqeqwqeqqqeqwqeqwqeqqqqqq0w0ee<;;o #11%Xr",
"reqqeqeqewqqewwqweeqqweqeqeqw09090we7;;- o*$1#.r",
"reqeqwqeqqqeqeqeqqqeqqqeqwqqqq0000e9;;- o$#=3$.r",
"reqewq                          Oww;;;. .+$34%.r",
"reqwqe $$$%$$$%>%>1>=>=>=>1%%$%$4e;;;o oO1144$.r",
"reeqqe $$$$$>%>>>,1,1,>3>>>%>%>1e<;;- oOX4444$.r",
"reqeqw $%$%>,>12212233,,11=>=>%w0;;; .+O+9454%.r",
"reeqeq $$%>111,,234223,,1111>18e;;;..oO+$q545$.r",
"reqwqe $%>12223343333222222112e4;;o .O+@$e444%.r",
"reqqew >>11112245444343222111ww;;- oO+##$e644$.r",
"reqeqq %=22223445wew333322219e:;- .O++#%%e444% r",
"reeweq %>1,23459ew<;O2334214e7;; .+++@$$$e443$.r",
"reqeqe >=222345e9;;;->24223q0;;- ++++$$$$e442%.r",
"reeqwe %>>,333w7;;;;;o>1238e:;; oO+@%@$$$e444$.r",
"reqeqe >122323w>;;;;;-+,22e7;;..+++%$$$$%e342% r",
"rewqe0 >>1,1233#<;;;;-.$19w;;- o++#$$$$$$e433@.r",
"reqqqe %%22,22359;;;;;o+3e:;; .++@$$$$%$$e343% r",
"reeqwe %>1>1,2138<;;;;-oww;;o O+##$$$$$$$e333@.r",
"reqeqw $>>%221224w;;;;;;e:;- o++#$%$=$$$%e323%.r",
"reeqeq $$%>1,111,9:;;;;;;;;. +O#%$$$$$$$$e432@ r",
"reqwqe $>%=>=>11,37;;;;;;;- o++#$$%$$$%$$e321@.r",
"reqqeq $$$$%>>>1>18:;;;;;; .O+@$$$$$$$$$$e313@.r",
"reqeqw $%$%$%>%>1>37;;;;;- O++#$=$$$%$$$=e=31@ r",
"reewe0 $$$$$$%>1>%>9;;;;; o+O+$$$$$$$$$$$e3=1@.r",
"reqeqq $*$%$$$%%%>%13;;;o +O+%$$$$%$$$=$$e131@ r",
"rew0w0 $$$$$$$$$$$$$$   .oOO@$$$$$$$$$$*$e111@ r",
"reqqq0 $%$$$%$$$%$$$$#@+OO+@$$$$%$$$%$$$%e111@ r",
"rew0w0 $$$$*$$$$$$$>$$%@++@#$$$$$*$$$$$$$e111+ r",
"re0909 $$$%$$$%$$$%$$$$##%$$$$%$$$%$$$%$$e*1=@ r",
"re00094eeeeeeeeeeeeeeeeeeeeeeeeeeeeeeeeeee11>+ r",
"re9w9999994969656556544444443332331311@@@1=1*@ r",
"re999999996696846444444444443332313111@&&4>*>+ r",
"re90999999696565545444643434323213=3111445=>*@ r",
"re4%$>$%$$$$$$$$$$%$%$%@%@%@%@%@@@@#@+@+@+@+X+ r",
"r%                                             r",
"rrrrrrrrrrre$+++#X5431>$@+O.....XOOXOrrrrrrrrrrr",
"rrrrrrrrrre4#$#$#@X$=>=$@+XX...X###*$.rrrrrrrrrr",
"rrrrrrrrre9*>11*>1>##+OXOXOXO#@*>1111$.rrrrrrrrr",
"rrrrrrrree3333323333343434343434343444$.rrrrrrrr",
"rrrrrrreeeeeeeeeeeeeeeeeeeeeeeeeeeeeeee$.rrrrrrr",
"rrrrrrre44444443444444444444443444444444 rrrrrrr",
"rrrrrrre44444443444444444444444444344444 rrrrrrr",
"rrrrrrr%                                .rrrrrrr",
"rrrrrrrrrrrrrrrrrrrrrrrrrrrrrrrrrrrrrrrrrrrrrrrr",
"rrrrrrrrrrrrrrrrrrrrrrrrrrrrrrrrrrrrrrrrrrrrrrrr"
};
