/* XPM */
static char *magick[] = {
/* columns rows colors chars-per-pixel */
"48 48 32 1",
"  c #020202",
". c #29130e",
"X c #2a240e",
"o c #303020",
"O c #413010",
"+ c #482b21",
"@ c #613024",
"# c #4d4123",
"$ c #64462b",
"% c #716138",
"& c #515141",
"* c #655242",
"= c #8e5130",
"- c #8e6130",
"; c #965141",
": c #966b43",
"> c #8e6d61",
", c #af7649",
"< c #a67d61",
"1 c #968a79",
"2 c #ae8a51",
"3 c #b88d61",
"4 c #b6a279",
"5 c #cf8a51",
"6 c #c79279",
"7 c #c7a679",
"8 c #9ea29e",
"9 c #ae9aae",
"0 c #c7aa96",
"q c #c7baae",
"w c #e7e3df",
"e c None",
/* pixels */
"eeeeeeeeeeeeeeeeeeeeeeeeeeeeeeeeeeeeeeeeeeeeeeee",
"eeeeeeeeeeeeeeeeeeeeeeeeeeeeeeeeeeeeeeeeeeeeeeee",
"eeeeeeeeeeeeeeeeeeeeeeeewweeeeeeeeeeeeeeeeeeeeee",
"eeeeeeeeeeeeeeeeeeeeww04-31weeeeeeeeeeeeeeeeeeee",
"eeeeeeeeeeeeeeeeewq0,22,,,,:3weeeeeeeeeeeeeeeeee",
"eeeeeeeeeeeeewwq33><3,:,:,:>:-4weeeeeeeeeeeeeeee",
"eeeeeeeeeewq03+*32,2,2,,2-:::-:-6weeeeeeeeeeeeee",
"eeeeeeew0074410>.<22>,,2-2:-::::-:4weeeeeeeeeeee",
"eeewqq07666463336*$2,,,,,:,,-:;,33&%4eeeeeeeeeee",
"ee00000677444445<0<+:,,,:,:::4<&X+$;%>0eeeeeeeee",
"ee+30077736333533,33@#,,223>*$+*;-;*=**:qweeeeee",
"ee.@>00077714336232<5>&>>*&+$:-:%;%;%***$>qeeeee",
"eeX#@%676463633,32,233>*X*:::::-;-;%-***$*$>weee",
"ee.+##$676444333337>+%-,<*@:::-%::%=%***%@$$&*we",
"ee.#+#@$34633467:*@:2,,,<23.:-:-;-;***&*$$$$$#$e",
"ee.####$#:777>#*>3222,,2-::3#o;:-;%;%*$*$$$:*o.e",
"eeX$@#$#@$**$26,32,>,,,2:--,,:+#;-;%=***;*$X   e",
"eeX##$#$&$X*>333332,2,-2:,,:::>>#&%*%::*o.    .e",
"ee.#$#*$$$X**:3,32,2<,,,,::::-;:<>@:@#o .      e",
"ee.$#$&$$*X***:3232,>2:2,::::::::: ...X . X. . e",
"eeX+$$$$$$o$***%,25,,,2-;:::-:,%+...X .X .    .e",
"ee.$$$$$$*X%****%,>,2,:,:,:3,+oXXX XXXX . X .. e",
"eeX$$$$$$*o%**=*;%:2,,,,5:@O+X+XoX oX..  .     e",
"eeX$$$%*$*X***%;%;%:5,:;#+O+o+oXoo o ...X X. ..e",
"eeo$$$$***+*=*;%;-;-,:@+@++O+O+Xo. XX+XX.. X ..e",
"eeX$$*$***X*%=%;&::::*#+#+O+o+X+o+ X.X.X.Xo  . e",
"ee.$$*$=**+*;%;-;-;-,*@++O+o+O+o+X.Xo..Xo  X...e",
"ee1X%*****o;%;%;-%:::*$##+#+X++Oo+ XXoXo.o XX  e",
"eee1X***=*+%;-*-;-:-,*@#+#++@oOOoO o+.XXoXXX.. e",
"eeee1+**%;X;:::;:::;>*###@#+#+O+++ +ooX..X o. Xe",
"eeeee1+*;%o-*-;%:-;:2%@#+#@@+o+++O o+Xo.oX X...e",
"eeeeee1+%=o::;:::-::>*$$###+#+#+O+ +X.oX.o.oX.Xe",
"eeeeeee1+-+-:-:--:,:,%$#@#+#+@+O++ O+O+X+.XX..oe",
"eeeeeeee1Xo;%:-:,:::2:#$#$#@#+#+#O Oo+o+XXX..X&e",
"eeeeeeeee1.::-:;::,,2%@$$+@#@$++++.o+ooX+X..*89e",
"eeeeeeeeee1+:::,::-22:$$#$$##@#@#+ @OoXo. &q89ee",
"eeeeeeeeeee1@:::::,-,:$$$$$#@#+#+@ O@O..*898eeee",
"eeeeeeeeeeee1+:,,>,,>>$$$$#@###@#@ +.X&98qeeeeee",
"eeeeeeeeeeeee1@-2-,,3:$$*$$$$@@#@o.X*898eeeeeeee",
"eeeeeeeeeeeeee1+:2:,2:$$$$$$#$#+X &q89eeeeeeeeee",
"eeeeeeeeeeeeeee>+,,,,-$$$$$#$#..*898eeeeeeeeeeee",
"eeeeeeeeeeeeeeee1#,,2>$$$$$$.X&98qeeeeeeeeeeeeee",
"eeeeeeeeeeeeeeeee1+,3:$%$#..&898eeeeeeeeeeeeeeee",
"eeeeeeeeeeeeeeeeee8+2;$+..&q89eeeeeeeeeeeeeeeeee",
"eeeeeeeeeeeeeeeeeee1:*..*89eeeeeeeeeeeeeeeeeeeee",
"eeeeeeeeeeeeeeeeeeee8>&98eeeeeeeeeeeeeeeeeeeeeee",
"eeeeeeeeeeeeeeeeeeeeeeeeeeeeeeeeeeeeeeeeeeeeeeee",
"eeeeeeeeeeeeeeeeeeeeeeeeeeeeeeeeeeeeeeeeeeeeeeee"
};
