/* XPM */
static char *magick[] = {
/* columns rows colors chars-per-pixel */
"48 48 33 1",
"  c Gray0",
". c #19261f",
"X c #351e52",
"o c #2a5513",
"O c #1e6254",
"+ c #711b54",
"@ c #716810",
"# c #62595d",
"$ c #444ba8",
"% c #735e9e",
"& c #3bc754",
"* c #71951b",
"= c #4e9651",
"- c #71cf54",
"; c #3895a1",
": c #5aab9f",
"> c #7195ff",
", c #71daa1",
"< c #b8651f",
"1 c #b05e55",
"2 c #b23ece",
"3 c #b254a1",
"4 c #ff66a1",
"5 c #b09558",
"6 c #b3c755",
"7 c #e79542",
"8 c #aaa6a6",
"9 c #b6b0de",
"0 c #b5e6a4",
"q c #ff95a1",
"w c #dbcedb",
"e c Gray100",
"r c None",
/* pixels */
"rrrrrrrrrrrrrrrrrr88888888888rrrrrrrrrrrrrrrrrrr",
"rrrrrrrrrrrrrrrr8w0w00505050008888rrrrrrrrrrrrrr",
"rrrrrrrrrrrrrr8we06@*@<@@@****88888rrrrrrrrrrrrr",
"rrrrrrrrrrr88e05@<@<@@@@o@@*=**=*5888rrrrrrrrrrr",
"rrrrrrrrrr80e5575<5@1@<@<@**5*=*6*6=88rrrrrrrrrr",
"rrrrrrrr8we815@1@5@1@5@@@*o**=*5*6*-=8#8rrrrrrrr",
"rrrrrrr8w0q55<755@5<5@<@@@****5*6*6-6-818rrrrrrr",
"rrrrrr8w851511<1@1@1@@@@o@o****-*=*6---:#8rrrrrr",
"rrrrrrw0q5q575557<5*5@<@<@**5*5*6-6-6-8-888rrrrr",
"rrrrr90q1q155711<5@1@<@@@*o****-*6---6-,-==8rrrr",
"rrrr8wq5q1q5q1755<5<5@<@@@-*=*5=6*6-8-8-0-#8rrrr",
"rrr8wq5q171q1515<1<1@@@@o@o**5*6*--6---0-,-#8rrr",
"rrr8eqq7q7q5q5q5755<5<<@<@**6*6-6-8-0-0-0-0&3rrr",
"rr8e5q5q5q1q1q1515@1@5@@@*@=*6*--6-,-0-,-0-,o8rr",
"rrw0q7qqq7q7q1q5q17<8=858=8=8*6-0-0-0-0,0-0,:#rr",
"r90q141q5q5q5q5q15585888888858-6---0-,-0-,-0&#8r",
"r8e3q4qqqqqqq7q5q68888888888880-0-0-0,0,0,0,0o8r",
"rw841q141q1q5q5q1q8888####O88880,0-0,0-,-,-,-=#r",
"80434143q1qqq7qqq8888. #####3:888,0,0-0,,-,,:&#r",
"8w5313141414141q5888 #8rrrrr8#:880,0-,-,&,&,&,.8",
"8w414341434344q8888.#rrrrrrrr888880,0::-0,:-,-o8",
"801314131453141888O.8rrrrrrrrr1888=,-,&,&,&,&,O#",
"984141414143414888X#rrrrrrrrrr88888:,&,&,&,&,&O#",
"8813+313+313133888.#rrrrrrrrrr8988:,&,&,=,=:=,o#",
"q8314+314131413888 #rrrrrrrrrr98888&,&:&,&,&,&O#",
"88+313+213+3+3#888o#rrrrrrrrrr8w888:&:&;&:O,=,o#",
"88313+3+   +2+   8X  #r rr r   #8 .=;   ;   ;&O#",
"83+3+3+ eee ++ 888 #8 r    r 80 8  ;. &;O; ;O;.8",
"803+313 eee 2X %88 88 r ## r   o8   O ;O;O &:&.8",
"8813+2+ eee ++.  8.  X: rr w e88 0O O   &; ;O;.r",
"r83+3+3 eee 2+$+38888898w0ew98888O;O;O;&;O;O;o#r",
"r832+++ eee X$X%X388888888888888O;O;OOO;OOO;O.%r",
"r1      eee 3    .88+         #;;.        OO$.8r",
"r#eeeeeeeee + eee %Xoeeeeeeeee $.Oeeeeeeee.X.#rr",
" eeeeeeeeee % eee 2 eeeeeeeeee $ eeeeeeeeee .8rr",
" eeeo  Xeee X eee % eeeX      O$ eee.  Oeee #rrr",
" eee 1% eee 2 eee 2 eee 9>>:>;>; eee $; eee 8rrr",
" eee :X eee + eee % eee >9:>3>$% eee ;O eee rrrr",
" eee 8% eee % eee 2 eee$     O%; eee $;.   #rrrr",
" eee 8% eee % eee % eeeeeeeeeOO> eee ;;$.#8rrrrr",
" eee r8 eee 2 eee 2$Xeeeeeeeee ; eee $;.X8rrrrrr",
" eee rr eee % eee %%.     Oeee > eee ;.X   #rrrr",
" eee rr eee 2 eee 2>2%9>9> eee ; eee .# eee rrrr",
" eee rr eee X eee %9%>%9>> eee > eee %8 eee rrrr",
" eee#  #eee % eee 2$      Xeee ; eee1  #eee rrrr",
" eeeeeeeeee r eee % eeeeeeeeee X eeeeeeeeee rrrr",
"##eeeeeeeee r eee # eeeeeeeee.o%8#eeeeeeee##rrrr",
"r#         #rr   rr#         #rrr#        #rrrrr"
};
