/* XPM */
static char *magick[] = {
/* columns rows colors chars-per-pixel */
"48 48 33 1",
"  c Gray0",
". c #293134",
"X c #213a51",
"o c #2b4966",
"O c #515337",
"+ c #515250",
"@ c #64685a",
"# c #6d706d",
"$ c #346495",
"% c #386694",
"& c #3c7ec4",
"* c #4d7399",
"= c #487baf",
"- c #778a67",
"; c #5186b7",
": c #7090a1",
"> c #847e58",
", c #fc0204",
"< c #96986d",
"1 c #c4b26c",
"2 c #979897",
"3 c #92ac95",
"4 c #b2b48d",
"5 c #b1b1b0",
"6 c #bbc5a4",
"7 c #bccac4",
"8 c #cbbb8d",
"9 c #ddd1a0",
"0 c #f7f1b1",
"q c #cbcbcb",
"w c #fbfad3",
"e c #f8f9ea",
"r c None",
/* pixels */
"rrrrrrrrrrrrrrrrrrrrrrrrrrrrrrrrrrrrrrrrrrrrrrrr",
"rrrrrrrrrrrrrrrrrrrrrrrrrrrrrrrrrrrrrrrrrrrrrrrr",
"rrrrrrrrrrrrrrrrrrrrrrrrrrrrrrrrrrrrrrrrrrrrrrrr",
"rrrrrrrrrrrrrrrrrrrrrrrrrrrrrrrrrrrrrrrrrrrrrrrr",
"rrrrrrrrrrrrrrrrrrrrrrrrrrrrrrrrrrrrrrrrrrrrrrrr",
"rrrrrrrrrrrrrrrrrrrrrrrrrrrrrrrrrrrrrrrrrrrrrrrr",
"rrrrrrrrrrrrrrrrrrrrrrrrrrrrrrrrrrrrrrrrrrrrrrrr",
"rrrrrrrrrrrrrrrrrr.o#$:-#@O.rrrrrrrrrrrrrrrrrrrr",
"rrrrrrrrrrrrrrr.o&=:<<<:-<---. rrrrrrrrrrrrrrrrr",
"rrrrrrrrrrrrrrX&;53::<3<<<<<---.rrrrrrrrrrrrrrrr",
"rrrrrrrrrrrr $;;595:::2342#-<41<O rrrrrrrrrrrrrr",
"rrrrrrrrrrr.==;qwwww7:;2:982<1<81<.rrrrrrrrrrrrr",
"rrrrrrrrrr.=;7wweeeew635::48994481< rrrrrrrrrrrr",
"rrrrrrrrrr$;qwweewewwweeq629008211<>rrrrrrrrrrrr",
"rrrrrrrrrX=:eeeeewwwwwwwew9000988<<<Orrrrrrrrrrr",
"rrrrrrrr ;;qweeewwwew0weew68009481<>< rrrrrrrrrr",
"rrrrrrrro;;790wwwweeewweew9:800<<<<>>Orrrrrrrrrr",
"rrrrrrrr=&;5460wwewewwewe00:10091@#<>#rrrrrrrrrr",
"rrrrrrr.&&;56666600w00000004<0009@.@@@.rrrrrrrrr",
"rrrrrrro=;;;:::3344348999088<991#oXXO@.rrrrrrrrr",
"rrrrrrr$=;;;;;;;:333-33488884##ooXXXO@.rrrrrrrrr",
"rrrrrrr$==;&;;;;364333448888898oooXX+@Xrrrrrrrrr",
"rrrrrrr$=&;;;;;=3644848488q7575:@XXX++Xrrrrrrrrr",
"rrrrrrr$$=;=;;;=:668988177q7755552#oX+Xrrrrrrrrr",
"rrrrrrr$$======**99888qq7qq7555552522#orrrrrrrrr",
"rrrrrrro$*====**:9998q7qq55555552522222#+rrrrrrr",
"rrrrrrrX$$$$****5999qqqq5555555252222<22.rrrrrrr",
"rrrrrrr.$$$$%%%%9qqqqq5q55555552222222:..rrrrrrr",
"rrrrrrrr$$$$*%*%5qqqqq555555522222222++OOrrrrrrr",
"rrrrrrrrX$$$%%%%qqqq577555552252222>X.+.rrrrrrrr",
"rrrrrrrr $$o$2qqqqq575555552222222#+++.rrrrrrrrr",
"rrrrrrrrr.o$$qqqq5q5555255255222*o+++ rrrrrrrrrr",
"rrrrrrrrrrX$oq777q7575552522222#X@++rrrrrrrrrrrr",
"rrrrrrrrrr ooeeqq5555555522222@+@++ rrrrrrrrrrrr",
"rrrrrrrrrrr oqe,qeq555252222*@++@+ rrrrrrrrrrrrr",
"rrrrrrrrrrrr eq,q,eqq522222*#++++ rrrrrrrrrrrrrr",
"rrrrrrrrrrrrrrqeq,q,qqq522#@++@+rrrrrrrrrrrrrrrr",
"rrrrrrrrrrrrrrr@qqq,q,q7q##++++rrrrrrrrrrrrrrrrr",
"rrrrrrrrrrrrrrrrr+5qq,q,5@+#@+rrrrrrrrrrrrrrrrrr",
"rrrrrrrrrrrrrrrrrrrrqqq,7@#+.rrrrrrrrrrrrrrrrrrr",
"rrrrrrrrrrrrrrrrrrrrrrqq7@@rrrrrrrrrrrrrrrrrrrrr",
"rrrrrrrrrrrrrrrrrrrrrrrr5@rrrrrrrrrrrrrrrrrrrrrr",
"rrrrrrrrrrrrrrrrrrrrrrrrrrrrrrrrrrrrrrrrrrrrrrrr",
"rrrrrrrrrrrrrrrrrrrrrrrrrrrrrrrrrrrrrrrrrrrrrrrr",
"rrrrrrrrrrrrrrrrrrrrrrrrrrrrrrrrrrrrrrrrrrrrrrrr",
"rrrrrrrrrrrrrrrrrrrrrrrrrrrrrrrrrrrrrrrrrrrrrrrr",
"rrrrrrrrrrrrrrrrrrrrrrrrrrrrrrrrrrrrrrrrrrrrrrrr",
"rrrrrrrrrrrrrrrrrrrrrrrrrrrrrrrrrrrrrrrrrrrrrrrr"
};
