/* XPM */
static char *magick[] = {
/* columns rows colors chars-per-pixel */
"48 48 33 1",
"  c #010100",
". c #20180e",
"X c #322a17",
"o c #383020",
"O c #493820",
"+ c #792818",
"@ c #4f4325",
"# c #674e2d",
"$ c #716941",
"% c #914f30",
"& c #936638",
"* c #966e42",
"= c #8e7961",
"- c #ae7949",
"; c #b3864f",
": c #b19466",
"> c #beb269",
", c #d1a466",
"< c #dfaa64",
"1 c #cfc371",
"2 c #ffd379",
"3 c #ae9a86",
"4 c #bea296",
"5 c #d1b192",
"6 c #cfbaac",
"7 c #dfd386",
"8 c #d2c3b9",
"9 c #e7cbb2",
"0 c #f5e48b",
"q c #f7e3a6",
"w c #e7dbd7",
"e c #efebe7",
"r c None",
/* pixels */
"rrrrrrrrrrrrrrrrrrrrrrrrrrrrrrrrrrrrrrrrrrrrrrrr",
"rrrrrrrrrrrrrrrrrrrrrrrrrrrrrrrrrrrrrrrrrrrrrrrr",
"rrrrrrrrrrrrrrrrrrr@.Xrrrrrrrrrrrrrrrrrrrrrrrrrr",
"rrrrrrrrrrrrrrrrrr@.XXX--#rrrrrrrrrrrrrrrrrrrrrr",
"rrrrrrrrrrrrrrr@,@.oooXO;<#rrrrrrrrrrrrrrrrrrrrr",
"rrrrrrrrrrrrrrr;<&ooXXXOo#Or##rrrrrrrrrrrrrrrrrr",
"rrrrrrrrrrrrrrr@@oooOXOXoX.&<;#rrrrrrrrrrrrrrrrr",
"rrrrrrrrrrrr@;@oooooXXXXoXoX#&r##rrrrrrrrrrrrrrr",
"rrrrrrrrrrrr;<;oooooooXXoXXXXX.&;#rrrrrrrrrrrrrr",
"rrrrrrrrrrrrO%+oooooX@ooXXOXXXX#;-r&&rrrrrrrrrrr",
"rrrrrrrrr@*XX+oooooXO3:oOooXXXXXX.&#&#rrrrrrrrrr",
"rrrrrrrrr:2,+oooooo+8:8:=+oXXXXXXX.-<&rrrrrrrrrr",
"rrrrrrrrr@,#+oooooo&w:636=@ooXXXXXXX#.r##rrrrrrr",
"rrrrrr@#XX@+oooooX586334366#+XXXXXXXX..;;@rrrrrr",
"rrrrrr$2<++ooooo.$:e:;&:;8:48@ooXXXXXXX@;Xrrrrrr",
"rrrrrr*<*++oooo.&e,9:**&&4=e:;3+XXXXXXXXXX.&&rrr",
"rrrrrrX@+++oooX=:5e;&+&&&&:4;e6&#ooXXXXXXXX-,%rr",
"rrr@7*.+++++oo#5e5:-%+%%**&&33:w8$+oXXXXXXXX#.rr",
"rrr>0:++++++o@9,,9;--&+++**&&&6:-68#ooXXX.XXX..r",
"rrrX-++++++oO,9w5;;;--&%*+%**&*$55==:@XXXXXXXo.r",
"@=XX++++++oX6995;;;;;---*%++&*&&**864@XXXXXXX..r",
">0>+++++++X;<55,;;;;-;---*&%****#666#XXXXXXo..rr",
"*7#++++++.:w,;;;;;;;------*--*&#,::$XXXXXXX..Xrr",
"O@@++++++%e9993#;;,;;;;;;---&&#w888XXXXXXXX.,,Xr",
"#O@+++++++=q9,96#-;;;;;;-;---#55:*+XXXXXXX.X#<,.",
"o@@@+++++++@5e9<93#;;,;%+%;-#3:9e@XXXXXXX..r.#X.",
".X@@@++++++++*5eq29#-;;%+%-#=w6,#XXXXXXX.X@.rX.O",
"rX#+@@++++++++#:<e55:%;;;;#=w:93XXXXXXX.X;<;.rOr",
"r#q:++++++++++++35<e26#-;#:59w-ooXXXXXX.rO<2-.rr",
"@qq: X+++++++++oo#6q5w5-#=5w:8OoooXXX.XO.rO;..rr",
"#7>rr.:o+++++++ooo@-qqq549599@ooXoXX..;2;.rXXrrr",
".&@r.1q>X++++++ooooo=5w5w595*oooXoX...O<<-.rrrrr",
"rrrr:qq#X.o+++++ooooo+459<e-oXXXOXX..rrO;..rrrrr",
"rrrrO7$rro:+++++ooooooo$w5,+OXOXXX.X1@rrXXrrrrrr",
"rrrr.&@r.7q1Xo+++ooooooo@;+oXXXXX..>22:Orrrrrrrr",
"rrrrrrrr:q0XX.X++ooooooooooXOXXX...@,2,Orrrrrrrr",
"rrrrrrrr@1@rr@1@o+ooooooooXooXXX..rrO&Orrrrrrrrr",
"rrrrrrrr.&@rX70>.oo+ooooooXoXXX.O1@rr@Orrrrrrrrr",
"rrrrrrrrrrrr>00.X.XooooooXXoOX..>22;Orrrrrrrrrrr",
"rrrrrrrrrrrr@>@rr@7#ooooooooX...O,2>Orrrrrrrrrrr",
"rrrrrrrrrrrr.&OrX701.XXooXXX...rrO*Orrrrrrrrrrrr",
"rrrrrrrrrrrrrrrr:07.X.XooooX.O1OrrOOrrrrrrrrrrrr",
"rrrrrrrrrrrrrrrrX:@rrX7$XoX..>22:Orrrrrrrrrrrrrr",
"rrrrrrrrrrrrrrrr.&@rX707oX...O,2,Orrrrrrrrrrrrrr",
"rrrrrrrrrrrrrrrrrrrr$07@r.X.rrO*Orrrrrrrrrrrrrrr",
"rrrrrrrrrrrrrrrrrrrr.;*rrrrrrrrOOrrrrrrrrrrrrrrr",
"rrrrrrrrrrrrrrrrrrrr.&@rrrrrrrrrrrrrrrrrrrrrrrrr",
"rrrrrrrrrrrrrrrrrrrrrrrrrrrrrrrrrrrrrrrrrrrrrrrr"
};
