/* XPM */
static char *magick[] = {
/* columns rows colors chars-per-pixel */
"48 48 33 1",
"  c #010002",
". c #100027",
"X c #072c04",
"o c #220031",
"O c #292928",
"+ c #1c0b4a",
"@ c #27004c",
"# c #310167",
"$ c #064b01",
"% c #1c5d16",
"& c #245003",
"* c #287002",
"= c #443322",
"- c #440d64",
"; c #466b12",
": c Gray33",
"> c #657554",
", c Gray50",
"< c #249e04",
"1 c #27e101",
"2 c #51a206",
"3 c #6e9262",
"4 c #58e602",
"5 c #6dd900",
"6 c #90b60e",
"7 c #92a571",
"8 c #96dc09",
"9 c #b2ee00",
"0 c #a4cc54",
"q c #cff40a",
"w c #a1a987",
"e c #aaabaa",
"r c None",
/* pixels */
"rrrrrrrrrrrrrrrrrrrrrrrrrr:rrrrrrrrrrrrrrrrrrr,,",
"rrrrrrrrrrrrr,,rrrrrrrrrr, ,rrrrrrrrrrrrrrrrr: :",
"rrrrrrrrrrrrr:Orrrrrrrrrr: :rrrrrrrrrrrrrrr,O Or",
"rrrrrrrrrrrrr: :rrrrrrrrr   rrrrrrrrrrrrrr:   ,r",
"rrrrrrrrrrrrr:  rrrrrr,r: . :rrrrrrrrrrr,    :rr",
"rrrrrrrrreerr:  :rrrre:eO.  OrrrrrrrrrrO     ,rr",
"rrrrrrrrr,,rr:.  ,rrr,::. .. ,rrrrrrr3      Orrr",
"rrrrrrrrr,:,r: . Orrr::O ... :rrrrrrO.      rrrr",
"rrrrrrrrr,::r:. . ,r7:: o.o.o rrrr7   . .  :rrrr",
"rrrrrrrrr3::7: ... r::O.oo.+..:rrO . . .   rrrrr",
"rrrrrrrrr,::::. ...:::O.o.o.o.O, .. .   . :rrrrr",
"rrrrrw7rr,:::: ..o. :: +<111<@  .o.... . Orrrrrr",
"rrrwq9q9ew:::O..ooo.OOoo69q96o+.o.o....  wrrreer",
"rreqqq990,:>qqqq96=@  #-qq9q6@+@O==o..;68wr7qq0r",
"re48906457:>9999q44%@o#%59998+@89545O.*456r7996r",
"r7144OX447:>99999412@#@146698#6994144.*446r7999r",
"r041<  456:;99; &841@@-452286=9842414%&158r3998e",
"r841*  11* O892 &941##<11X266;88< *1% %114w>9987",
"O241X     .X85;<451<##2<2 ;22;544<    >154888553",
"r<22$     .O5544412 ##<<<*222=44515& :><11485513",
"r<2<$ . <42X221<<1& -%;2<2<*;%*11151<r,2<<2252<3",
"e&<*2  .<2;O<2*&2<*.#;$%$&***% &22<14w,2<2X *<<3",
"7X$$%0OX$*&X<<& **<@-2$$  X$$$   &<<<73<*<X $**<",
",O&&*<11$$XX**& &**#:$$X  &X&&O<2 X**3e$$$>O$&*<",
",O X$$$$$$ X%&X X&&;*$X    X$*1<< &&*%r$$X3e%*$$",
"e,   =%%X OX$$$+X&&%.   #-   .X$$5<$&Or$$$3r:$$$",
"rrO       :X$$$+XXX$@  .-#.  ..XX$$$XOr$$$3r:X X",
"reeO     OO   X@    .  ###@.    X$X  :rO  :r,   ",
"rerr,OOO:e     @.  .@###-#-##@.       rO  3re   ",
"rrrrrreee:..   +.   @#@#####@#+       ,O  :rr::,",
"rerrrreee: .. .o@  +@##@#@..@@#.   .o.:rrrrrrrrr",
"rrrrrreee  ....+.::.@#@#@@ :O .+@+.o.. rrrrrrrrr",
"rrrrrree, ....o.O,:.@@@@@.O:::O o.o.o. :rrrrrrrr",
"rrrrreee:  . . Oe,, +o@+@ ::::::O .... Orrrrrrrr",
"rrrrreeeO   . .,ee,Ooo@o@ ::::::::O ... rrrrrrrr",
"rrrrreee . .  ,eee,: o.@.O:::::::::,O   :rrrrrrr",
"rrrreee,  . .:eeee,,..oo.:,::::::::,r,O  rrrrrrr",
"rrrreee:    Orreee,, ..o rre,::::::,rrr,Orrrrrrr",
"rrrreee   . rrreeee,: . Orrrre,:::::rrrrrrrrrrrr",
"rrrreee    ,rrreee,,:.  :rrrrrre,:::,rrrrrrrrrrr",
"rrreee:   :rrrreeee,, . rrrrrrrrre,::rrrrrrrrrrr",
"rrreee:  Orrrrrree,,,  Orrrrrrrrrrre,rrrrrrrrrrr",
"rrreee  Orrrrrrree,,e: :rrrrrrrrrrrrrrrrrrrrrrrr",
"rrree,  ,rrrrrrree,,e, rrrrrrrrrrrrrrrrrrrrrrrrr",
"rreee: ,rrrrrrrrre,,rrOrrrrrrrrrrrrrrrrrrrrrrrrr",
"rreeeOOrrrrrrrrrr,,errrrrrrrrrrrrrrrrrrrrrrrrrrr",
"rreee:rrrrrrrrrrre,errrrrrrrrrrrrrrrrrrrrrrrrrrr",
"reeeerrrrrrrrrrrre,rrrrrrrrrrrrrrrrrrrrrrrrrrrrr"
};
