/* XPM */
static char *magick[] = {
/* columns rows colors chars-per-pixel */
"48 48 33 1",
"  c Gray0",
". c #25211e",
"X c #0e1954",
"o c #2f421c",
"O c #275455",
"+ c #3b4254",
"@ c #710a13",
"# c #675653",
"$ c #6f6f6f",
"% c #181fa1",
"& c #1342a1",
"* c #3b42a1",
"= c #3b68a1",
"- c #3b4fff",
"; c #5e609d",
": c #7168a1",
"> c #7142ff",
", c #7168ff",
"< c #77896f",
"1 c #798593",
"2 c #7195a1",
"3 c #7194fd",
"4 c #71c7a1",
"5 c #b21b38",
"6 c #8f7ba0",
"7 c #b295a1",
"8 c #a4a4aa",
"9 c #b295ff",
"0 c #b2c8a1",
"q c #b2ceff",
"w c #ebcdeb",
"e c Gray100",
"r c None",
/* pixels */
"rrrrrr81;;;+;;;+*:888rrrrrrrrrrrrrr8$<#$$+#1rrrr",
"rrrr8;+***&**=*,=,=6:88rrrrrrrrrr8O:2w0eew#++rrr",
"rr8;;&****>*-*,=,=,:3::8rrrrrrrr7#70eew07297++rr",
"r8+*O*&*&*&=*:=,*:=,=,:8<rrrrrr8O20e0727272O  rr",
"8;*&****,*>*,=,=,:32929288rrrrr<$ee0q772q+  $rrr",
"8*X***&**=*,=,=,:3=,:92328rrrr8+7ewq272O  Orrrrr",
"1&****>*-*,=,=,:3:3292929:rrrr1#eee772# +rrrrrrr",
"**&*&*&=*:=,*:=,=,:923292:rrrr#7e7e727 Orrrrrrrr",
",***,*>*,=,=,:3292929292q*rrrr$0e7e0q7 +rrrrrrrr",
"=*&**=*,=,=,:3=,:9232929:%rrrrOw074e27..8rrrrrrr",
",=>*-*,=,=,:3:3292929291*Xrrrr#e7+ ew2: <rrrrrrr",
"=:=,*:=,*:=,=,:9232929=%XXrrr7OeO +Oe7O+.8rrrrrr",
",:929:,=,:3292929292,*%X%Xrrr$7e# eee07O 7qrrr7.",
"=3:32q2,:3=,:9:,::O%XXX%X%rrr$0w2Oe++e2:..rr07O ",
",:9292923:,*-**%%X%X%X%X%Xrr##e772 eeew7$ w772+ ",
"=::92929=:==&*&*XXXXXXX%XXrr+00727+eO+e7O..72+ O",
",:92q9929;,*,*&%%X%X%X%X%Xr<#e72q772q7e0q7 ++ #r",
"=3:32q23:,=-**O&X%XXXXX%X%1+e72727O++OO+..   #rr",
",:9292923:,*-**%%X%X%X%X%##e7+w77+      ..++rrrr",
"=::92929=:==&*&*$#$$$#$$.Oe7O707O  Oo+o O+ rrrrr",
",:92q9929:,*,**%$0w0e0w<#e7+qq7+  72#277  .$rrrr",
"=3:32q23:,=-**O&$w0w0w#Oe7X707O  7<7o88727 1rrrr",
",:9292923:,*-**%$0w0w$#e7+9q7+  7<77#208q8.$rrrr",
"=::92929=:==&*&*#w0w##e7O707O  7<727+70q00 1rrrr",
",:92q9929:,*,**%$0w<#e7+qq7+  @@5@@@5@5@5@.6rrrr",
"83:32q23:,=-**O&$w#Oe7O707O  8O07qww2eqeee <rrrr",
"8=9292923:,*-**%$##e7+9q7+  88:000we8eeeeeo1rrrr",
"r8=92929=:==&*&*oOe7O707O  +++o#O#O#+$#$$$ $rrrr",
"rr82q9929:,*,**X#e7+qq7+  88w07wweee8eeeee.1rrrr",
"rr88$923:,=-**XOe7O707X  8807q<weeqe8eeeee <rrrr",
"rrrr88623:,*-X#e7+9q7+  @##+#o##:$$$#$$$#$.6rrrr",
"rrrrrr888;;:XOe7O707O  7@7700w2eqeee8eeeee <rrrr",
"rrrrrrrrrrr<#e7+qq7+  7250w0we7eeeee8eeeee.<rrrr",
"rrrrrrrrrr<Oe7O707X  +o+@#+#O$$#$##$$#$#$$ <rrrr",
"rrrrrrrrr7#e7+9q7+  7<78@0weee9eeeee8eeeee.1rrrr",
"rrrrrrrr<Oe7O707O  7<727@w0eqe8eeeee8eeeee $rrrr",
"rrrrrrr<#e7+qq7+  +#$+#+5$:$$#$#$##$#$$$$$.$rrrr",
"rrrrrr7Oe7O707X  7<77770@eqeee8eeeee8eeeee 7rrrr",
"rrrrr<#e7+9q7+  +<7778w05eeeee8eeeee8eeeee@<rrrr",
"rrrr1#e72+07O  r++o#+#O#@$#$$#$$$$#$$#$O#$ 1rrrr",
"rrr<$e72q77+  rr#778w0w05eeeee8eeeee8eeeee.6rrrr",
"rr<+eO +27O  rrro7700w0w@eeeee8eeeee8eeeee <rrrr",
"rr6+7   7+  rrrr#o$O:$$$5$$$$#$$#$$$$#$$$$.1rrrr",
"rr< OeeOO  rrrrr+0000q0w@eeeee8eeeee8eeeee <rrrr",
"rr6  +#+  rrrrrr$0w0e0w05eeeee8eeeee8eeeee@<rrrr",
"rrr+     rrrrrrrO... ..................... 6rrrr",
"rrrr++#+rrrrrrrrr<1<1<<7:<:<<11<1<:<<11$<71<rrrr",
"rrrrrrrrrrrrrrrrrrrrrrrrrrrrrrrrrrrrrrrrrrrrrrrr"
};
