/* XPM */
static char *magick[] = {
/* columns rows colors chars-per-pixel */
"48 48 33 1",
"  c Gray0",
". c #3f281f",
"X c #342d24",
"o c #324343",
"O c #3a575a",
"+ c #3b5a6a",
"@ c #54331f",
"# c #593a22",
"$ c #6c3e20",
"% c #4c5a39",
"& c #56693e",
"* c #73421f",
"= c #7a4826",
"- c #575d4a",
"; c #5e6a64",
": c #636f49",
"> c #506f85",
", c #758a5e",
"< c #6b8a9d",
"1 c #60a5df",
"2 c #7fc0eb",
"3 c #934f1f",
"4 c #ab5e21",
"5 c #b0601f",
"6 c #c47028",
"7 c #8f916f",
"8 c #96a19e",
"9 c #90b5d2",
"0 c #a5d0ef",
"q c #c3c2b3",
"w c #ceddec",
"e c #f5fcff",
"r c None",
/* pixels */
"rrrrrrrrrrrrrrrrrrrrrrr*.rrrrrrrrrrrrrrrrrrrrrrr",
"rrrrrrrrrrrrrrrrrrrrrrr*.rrrrrrrrrrrrrrrrrrrrrrr",
"rrrrrrrrrrrrrrrrrrrrrr$4=.rrrrrrrrrrrrrrrrrrrrrr",
"rrrrrrrrrrrrrrrrrrrr<-;;%o@<rrrrrrrrrrrrrrrrrrrr",
"rrrrrrrrrrrrrrrrrrrqqq00w097<7rrrrrrrrrrrrrrrrrr",
"rrrrrrrrrrrrrrrrrqeeew2080qq9887rrrrrrrrrrrrrrrr",
"rrrrrrrrrrrrrrrqeeew0220qwq9998<7rrrrrrrrrrrrrrr",
"rrrrrrrrrrrrrrqeeww02229q09988888;rrrrrrrrrrrrrr",
"rrrrrrrrrrrrrqee8w022290099q889<,8-rrrrrrrrrrrrr",
"rrrrrrrrrrrrqeewew029229q8888888<;:&rrrrrrrrrrrr",
"rrrrrrrrrrr8eeeee022222987:,788<,-&&%rrrrrrrrrrr",
"rrrrrrrrrrrqeeeee022000q7:;:::;-&&&&&-rrrrrrrrrr",
"rrrrrrrrrr8eeeq8ww220w87,,,&-;%:%%%%%&rrrrrrrrrr",
"rrrrrrrrr100ee0we000w0,&,,,&%-&%o%%%%%%rrrrrrrrr",
"rrrrrrrrr100000ww00w8,,,<,&%&%%%%%&%%%%rrrrrrrrr",
"rrrrrrrr120000ww0qqq8&,,,8,&&%%%%%%%&&&%rrrrrrrr",
"rrrrrrrr120000w008qwq8,,87&&&%%%%%%::&&%rrrrrrrr",
"rrrrrrr-202222098,8wq,;,8;%&%%%%%:%%%&::@rrrrrrr",
"rrrrr==;220221288,:77&:&::&&%%&%:&&%%::%X#@rrrrr",
"rrr3366o22221111q8,::&&&&&&:%%&%%::::::=X=###rrr",
"rr@3653O212211111,,,&&::&&-%&&%%::::-&-:X=***@rr",
"rr*6533%1221111><,,:::---%--&+;+--;-::::o=***$rr",
"rr*5543=<<1111<>::,><<+;;-+-O+;;----%-%X===*$@rr",
"rr*354433=1<1<>>>-;;;;;+;+oO---%*-;-=%.====3*Xrr",
"rrr$335544346>>;++O;-+-O+++&-;--%-33====3**#@Xrr",
"rrrr#$3444554456566655555555555533333=3=$$#.Xrrr",
"rrrrrr@$=333334343333433333333333==3===$$#.Xrrrr",
"rrrrrrrr-=$=3$3$==*****$***$*$*$=3=$=$$$XXrrrrrr",
"rrrrrrrrr+;==$*##***$$$$$$$$$$$$##$+O+o.rrrrrrrr",
"rrrrrrrrrr+>+;--%X%o@@X%oX##X%%%-++++orrrrrrrrrr",
"rrrrrrrrrrr+>++&:%&&::&:&&:::%-&;+++orrrrrrrrrrr",
"rrrrrrrrrrrr+++++-O-%%&::;&-%X-O+>++rrrrrrrrrrrr",
"rrrrrrrrrrrrrO+++++>+;;-:-:---OO+++rrrrrrrrrrrrr",
"rrrrrrrrrrrrrrO>++++>;--&---%+OO+orrrrrrrrrrrrrr",
"rrrrrrrrrrrrrrrO+++++>;::--;++O+Orrrrrrrrrrrrrrr",
"rrrrrrrrrrrrrrrrrO+O+++--+-Ooooorrrrrrrrrrrrrrrr",
"rrrrrrrrrrrrrrrrrr**343$$$$*.XXrrrrrrrrrrrrrrrrr",
"rrrrrrrrrrrrrrrr5553353$$$$*.@XX@rrrrrrrrrrrrrrr",
"rrrrrrrrrrrrrrr45653353$$@$$.XXXX@rrrrrrrrrrrrrr",
"rrrrrrrrrrrrrr456553$53*@$$#.XXXXX#rrrrrrrrrrrrr",
"rrrrrrrrrrrrr*5655553.*$$@@..XXXX..#rrrrrrrrrrrr",
"rrrrrrrrrrrrr*56555433.@@@@....X...#rrrrrrrrrrrr",
"rrrrrrrrrrrrr$3555554*$$@@@@......@#rrrrrrrrrrrr",
"rrrrrrrrrrrrr$*3455554=*#@@.......@#rrrrrrrrrrrr",
"rrrrrrrrrrrrrr#*3455553*$$$@@@@@@##rrrrrrrrrrrrr",
"rrrrrrrrrrrrrrr#$33555553*##@@@@##rrrrrrrrrrrrrr",
"rrrrrrrrrrrrrrrrr#@$3*3*3**$####rrrrrrrrrrrrrrrr",
"rrrrrrrrrrrrrrrrrrr$@$#@$##@$#rrrrrrrrrrrrrrrrrr"
};
