/* XPM */
static char *magick[] = {
/* columns rows colors chars-per-pixel */
"48 48 14 1",
"  c #010101",
". c #2e2e2d",
"X c #384141",
"o c #413838",
"O c #413841",
"+ c #494949",
"@ c #596161",
"# c #6c6c6c",
"$ c #867979",
"% c #8e8a8e",
"& c #b8b4b8",
"* c #d7d2d6",
"= c #fcf8fc",
"- c None",
/* pixels */
"------------------------------------------------",
"------------------------------------%%@+.%------",
"------------------------------%@+.. ..@+-.%-----",
"-----------------------%%++.  .+X%&==*%#$@.#----",
"----------------%%@+.. ..$%&=-%%$#%#@..    +----",
"----------%#+O.  +##$%%%#&%%@#+...%-*+   . .----",
"----%++.  +++@##%%&%%@.+.$=*=.   .==*    *+.----",
"---%  #-%-&$@+@+.@**&    *==$    %==#   %=+ ----",
"---%. @#-&*&.    %==.   #===    +===   .==% %---",
"---*&.@====+    +==%    ===@    &==%   %&&@ %---",
"---*@ +===-     *=*    %==*    +&-%     ..+#----",
"---&%  ===.    %==.   .%*%X     ..@+%%----------",
"-----. ==$    .&&@     ..++#%%------------------",
"----&  %%  .   ..++%%%--------------------------",
"----%..      +@#%%------------------------------",
"----*.    .@++.....X.++$%-----------------------",
"---%*...$....+@@@###%##@@O.+.+@%%---------------",
"---%*..%=#    #&%+..++##%%%-&&%#X  .++#%%-------",
"----+ .&==    +==&    #&%#.+@#%%&&&&%##+. .+----",
"----++.*==%    ===+   .===.   .-%%#@@%%&&*&.#---",
"----+  .X#%    %==*    -==%    *===.   &&$% .---",
"----+  . .      %%&.   +===    @===%   %===+ ---",
"----+#.+++O.....        %*=%    *===    === .---",
"----.#.+++@+++Oo@+....          %===%   %=* .---",
"---%@+.++@@@+@++#@+++o...... .    .+@   .=- +---",
"---%@o+++@+##%++#+o.++++++O+.......      .. #---",
"---+$ ++++++#++@#++@%#@O+XX.+..o.......... +%---",
"---+#.++#$#@++O#@++#++##+@#+%@+.+.O....... -----",
"---+# ++++@##%%%#@++++O.+++.+%+@##.........-----",
"---.@.+++++O++.%+@#%%##@@..X..o.+........ +-----",
"--%.+.++++++.+o%+++o++@@##$#@++.o....X... @-----",
"--%@..+++@@%@++%X+.+o..o.+X.+##$###@+.... %-----",
"--++.++++@@%+o@#+++%@O@#.o.o.....X+@@#@.. ------",
"--+@.+o++o.+++#@++%##$%@#++......O........------",
"--.@..o#%%##@+#+o....+@o@##.%#........ . +------",
"--.+.X+X.+++@#%@$#@@...++..++@#+........ #------",
"-%.+.++XOXOO++#+++@#$$$#@+o...+......... %------",
"-%...++.+++X+.#oOX...X.+@@#$$#@+........ -------",
"-#..+o++%@%+o+@.O.X.X........++@#$$#@....-------",
"-#  o+XO++@o.@+..X.X...............XO.. +-------",
"-- .+O++O...X+Xo.X.....O....... ....... %-------",
"--+ ...oo...o.X.+............... ... .. %-------",
"--%+..    ....o.................... ....--------",
"--------%%@+..     ....... ..........  +--------",
"----------------%$++..     ....... ... @--------",
"-----------------------%%#++..       . %--------",
"-------------------------------%%#@X.  ---------",
"------------------------------------------------"
};
