/* XPM */
static char *magick[] = {
/* columns rows colors chars-per-pixel */
"48 48 30 1",
"  c Gray0",
". c #300010",
"X c #3f3830",
"o c #50092d",
"O c #403830",
"+ c #620738",
"@ c #730d42",
"# c #71284b",
"$ c #595953",
"% c #704840",
"& c #7f7e6e",
"* c #80305f",
"= c #90404f",
"- c #8f4b63",
"; c #946f6f",
": c #af5f50",
"> c #bb7b50",
", c #a0707f",
"< c #838671",
"1 c #cf9559",
"2 c #8f8f80",
"3 c #b08a8f",
"4 c #bfb89f",
"5 c #cbb2af",
"6 c #cdccad",
"7 c #e0d8bf",
"8 c #efd8df",
"9 c #f4f7da",
"0 c #ffffe2",
"q c None",
/* pixels */
"qqqqqqqqqqqqqqqqqqqqqqqqqqqqqqqqqqqqqqqqqqqqqqqq",
"qqqqqqqqqqqqqqqqqqqqqqqqqqqqqqqqqqqqqqqqqqqqqqqq",
"qqqqqqqqqqqqqqqqqqqqqqqqqqqqqqqqqqqqqqqqqqqqqqqq",
"qqqqqqqqqqqqqqqqqqqqqqqqqqqqqqqqqqqqqqqqqqqqqqqq",
"qqqqqqqqqqqqqqqqqqqqqqqqqqqqqqqqqqqqqqqqqqqqqqqq",
"qqqqqqqqqqqqqqqqqqqqqqqqqqqqqqqqqqqqqqqqqqqqqqqq",
"qqqqqqqqqqqqqqqqqqqqqqqqqqqqqqqqqqqqqqqqqqqqqqqq",
"qqqqqqqqqqqqqqqqqqqqqqqqqqqqqqqqqqqqqqqqqqqqqqqq",
"qqqqqqqqqqqq$O<2222qqqqqqqqqqqqqqqqqqqqqqqqqqqqq",
"qqqqqqqqqqqO&&667662222qqqqqqqqqqqqqqqqqqqqqqqqq",
"qqqqqqqqqqO&<<60000008Xqqqqqqqqqqqqqqqqqqqqqqqqq",
"qqqqqqqqqqO&<<69000000Xqqqqqqqqq522222qqqqqqqqqq",
"qqqqqqqqqO&&&<470000000Xqqqqqqqq2666762<222qqqqq",
"qqqqqqqqO&&&&<460000000Xqqqqqqqq2999906667%.qqqq",
"qqqqqqqqO&&&&<4490000000Xqqqqqq2999999997o..qqqq",
"qqqqqqqO&&&&&&44700000009Xqqqq2699999999;...qqqq",
"qqqqqqqX&&&&&&446000090000$$$29999999997....qqqq",
"qqqqqqX&&&&&&<4460000000000909999999999;....qqqq",
"qqqqqO&&&&&&&&4449000000090999999999997.....qqqq",
"qqqqqO&&&&&&&&444700000000999999999999;.....qqqq",
"qqqqX&&&&&&&&&444600000099999999999997......qqqq",
"qqqo&&&&&&&&&&44449000099999999999999;......qqqq",
"qqq.;<&&&&&&&&44449009999999999999997o......qqqq",
"qqqo@#-;<&&&&&4444699999999999999999<.......qqqq",
"qqqo@@@#@##-;&4444699999999999909997o.......qqqq",
"qqqo@@>11:*@@@@-23599999999999999991........qqqq",
"qqqo@>1111>@@@@@@@#*,57899999999999o........qqqq",
"qqq.#111111=@@@@@@@@++@#$358999999<.........qqqq",
"qqq.*111111>@@@@@@@+@+++++*=,35797o.........qqqq",
"qqq.@>111111@+@@@@@@+@++**--=----=..........qqqq",
"qqq.+:111111*@@@@+@++@#-=----==--#..........qqqq",
"qqq.@@111111@@+@@++@#------------#..........qqqq",
"qqq.+@*>111>++*+@@#------------*-#..........qqqq",
"qqq.@@+*>>>#++++#---,------------#..........qqqq",
"qqq.@@@@o+++@@#-;---------------=#..........qqqq",
"qqq.@@@@++++#----------------=--=o..........qqqq",
"qqq.+@++@@*----,--------------==-o..........qqqq",
"qqq.++@@#------------------*-###+o..........qqqq",
"qqq.+**--,------------####++++o++o..........qqqq",
"qqq.#-----------###@+++++++++++++o..........qqqq",
"qqq..#$-%*###++++++++++++++++o+++o..........qqqq",
"qqqqq.o..+++@+++++++++++o+oo+++o+o.........qqqqq",
"qqqqqqqqq.....o+@@+++++o+++++oo++o........qqqqqq",
"qqqqqqqqqqqqqq....o+++++++o++++++o.......qqqqqqq",
"qqqqqqqqqqqqqqqqqq....++o++++++o+o......qqqqqqqq",
"qqqqqqqqqqqqqqqqqqqqqq.....o++++oo....qqqqqqqqqq",
"qqqqqqqqqqqqqqqqqqqqqqqqqqq....o+o...qqqqqqqqqqq",
"qqqqqqqqqqqqqqqqqqqqqqqqqqqqqqq.....qqqqqqqqqqqq"
};
