/* XPM */
static char *magick[] = {
/* columns rows colors chars-per-pixel */
"48 48 33 1",
"  c Gray0",
". c #300010",
"X c #3f3830",
"o c #4e0b2a",
"O c #630738",
"+ c #720c42",
"@ c #702a4b",
"# c #5f5d5e",
"$ c #6d6b6a",
"% c #07fc07",
"& c #2ae92a",
"* c #6fbf6f",
"= c #62e362",
"- c #a23d59",
"; c #8f4b63",
": c #a86658",
"> c #fb0d08",
", c #e9312c",
"< c #ba7caf",
"1 c #fd06fd",
"2 c #e02fe0",
"3 c #eb62eb",
"4 c #8f8075",
"5 c #cf9457",
"6 c #918f8e",
"7 c #b0919f",
"8 c #a9aca9",
"9 c #9add9a",
"0 c #e9a3a4",
"q c #de99de",
"w c #dad5d3",
"e c #fefefe",
"r c None",
/* pixels */
"rrrrrrrrrrrrr##oo###rrrrrrrrrrrrrrrrrrrrrrrrrrrr",
"rrrrrrrrrrrrr6ww>,,,,:@@Xo###rrrrrrrrrrrrrrrrrrr",
"rrrrrrrrrrrrr6ww>>>>>>>>>>,,,,-@@X####rrrrrrrrrr",
"rrrrrrrrrrrrr6#6eww005,,,>>>>>>>>>,>,,86#Xrrrrrr",
"rrrrrrrrrrrrr48weeeeeeeeeww005,,,>>>>,w88Xrrrrrr",
"rrrrrrrrrrr##8w8eeeeeeeeeeeeeeeeeww00088wXrrrrrr",
"rrrrrrrrr#88qq3<qq<qwweeeeeeeeeeeeeeew6X8Xrrrrrr",
"rrrrrrrrr$w81111222113<8<qqqweeeeeeeew868Xrrrrrr",
"rrrrrrrrr#86q311111111112211<<83q<qwww888Xrrrrrr",
"rrrrrrrrr#6$weeeeq3331111111111221<<8#888Xrrrrrr",
"rrrrrrrrr$w8eeeeeeeeeeewq331111111788#866Xrrrrrr",
"rrrrr#$$8889weeeeeeeeeeeeeeeeeqq33788#$$$Xrrrrrr",
"rrrrr#889=&%=89=98weeeeeeeeeeeeeee888$$$$XXrrrrr",
"rrrrr#88%%%%%&%%%&=8**9wweeeeeeeee868#$4$4#.rrrr",
"rrrrr#$#9=&%%%%%%%&&&%%&*8**99wwee888#$6#...rrrr",
"rrrrr#66eeeew99=%%%%%%%&&&&%%&*8888$8#:$#...rrrr",
"rrrrr#88eeeeeeeeeew9=&%%%%%%%&*86#8$6#6#o...rrrr",
"rrrrr#88eeeeeeeeeeeeeeee99=&%%=68#466#$#....rrrr",
"rrrrr#88weeeeeeeeeeeeeeeeeeeee866#$$$#$.....rrrr",
"rrrr##68weeeeeeeeeeeeeeeeeeeee866#$$$##.....rrrr",
"rrrr#688weeeeeeeeeeeeeeeeeeeee866#$#$#o.....rrrr",
"rrro#668weeeeeeeeeeeeeeeeeeeee866#####......rrrr",
"rrro:688weeeeeeeeeeeeeeeeeeeee666####.......rrrr",
"rrro+@#:8eeeeeeeeeeeeeeeeeeeee866##$@.......rrrr",
"rrro+++@+@-<7weeeeeeeeeeeeeeee766###........rrrr",
"rrro++555:++++@;7weeeeeeeeeeee666###........rrrr",
"rrro+:55555O++++OO@-<8weeeeeee866##o........rrrr",
"rrr.+555555-+++++OOOOO+@;7weee866##.........rrrr",
"rrr.@5555555+++++++O+OOOO+@;:76:6#o.........rrrr",
"rrr.+5555555++O++O++OOOO@@;;;;;;;@..........rrrr",
"rrr.O:555555-+++O++O+O@;;;;;;;;;;@..........rrrr",
"rrr.O+555555@OO+++O+@;;;;;;;;;;;;@..........rrrr",
"rrr.++@5555:O++OOO@;<@;;;;;;;;-@;@..........rrrr",
"rrr.++O;5::+OOO+@;;;;;;;;;;;;;;;;+..........rrrr",
"rrr.++++oOOO++@;;;;;;;;;;;;;;;-;;@..........rrrr",
"rrr.++++OOOO@;;;<;;;;;;;;;;;;;;;;o..........rrrr",
"rrr.O+OOO+;;;<;;;;;;;;;;;;;;;;;;;o..........rrrr",
"rrr.O+++@;;;;;;;;;;;;;;;;;;;-@@@Oo..........rrrr",
"rrr.+@;;;;;;;;;;;;;;;;@@@@OOoOoOOo..........rrrr",
"rrr.@;;;;;;;;;;;@@@+OOOOOOoOOOOOOo..........rrrr",
"rrr..@$;;@@@@OOOOOOOOOOOOOOOOooOOo..........rrrr",
"rrrrr....OOO+OOOOOOOOOOOoOoOOOOOOo.........rrrrr",
"rrrrrrrrr.....oO+OOOOOOOOOOoOooOOo........rrrrrr",
"rrrrrrrrrrrrrr....oOOOoOOOOoOOOOOo.......rrrrrrr",
"rrrrrrrrrrrrrrrrrr....OOOOOoOOOOOo......rrrrrrrr",
"rrrrrrrrrrrrrrrrrrrrrr.....oOOOooo....rrrrrrrrrr",
"rrrrrrrrrrrrrrrrrrrrrrrrrrr....oOo...rrrrrrrrrrr",
"rrrrrrrrrrrrrrrrrrrrrrrrrrrrrrr.....rrrrrrrrrrrr"
};
