/* XPM */
static char *magick[] = {
/* columns rows colors chars-per-pixel */
"48 48 29 1",
"  c #010202",
". c #182018",
"X c #281817",
"o c #262222",
"O c #411810",
"+ c #4c2b25",
"@ c #622825",
"# c #594138",
"$ c #744329",
"% c #72534e",
"& c #796161",
"* c #8e3028",
"= c #8d4b28",
"- c #a64d30",
"; c #b36e31",
": c #8e7372",
"> c #a65b48",
", c #b1744e",
"< c #b37965",
"1 c #c77938",
"2 c #be9065",
"3 c #cf8a41",
"4 c #c79261",
"5 c #e7ae69",
"6 c #be9a8e",
"7 c #dfb69e",
"8 c #d7c3c7",
"9 c #efdfd7",
"0 c None",
/* pixels */
"000000000000000000000<57970000000000000000000000",
"00000000000000000000:97,797000000000000000000000",
"0000000000000000000&8988899700000000000000000000",
"000000000000000000%88889989970000000000000000000",
"00000000000000000%888888999997000000000000000000",
"0000000000000000%8886666677999800000000000000000",
"000000000000000%88:&#@#=155577880000000000000000",
"00000000000000&6<+o+@$=;35553;><7000000000000000",
"0000000000000$2%XO$=--;11311;==$$6,0000000000000",
"000000000000#:+o@$====;111;;===-$$<<000000000000",
"00000000000#&#O@$$*===;;;;1-;=====$,<00000000000",
"0000000000$&oO+$@$$===-;;;;===-====$<<0000000000",
"000000000#&oO+@+$@$=*==;;--===-=====$<<000000000",
"00000000#%+.++++O+$$$==;==-==========$&:00000000",
"0000000#&#.oo+++@@$@$==-=-====*====$==$%<0000000",
"000000+&+.oo++++@++$$==-========$=====$+%<000000",
"00000+:&o.oo+o++++@@$$==-=-======$=$===$X$,00000",
"0000+&:o.oooooO+O@+@$$==--==========$===X.%<0000",
"000+%:&o..oooo++O+@$$$=,4<--====$======*$..%2000",
"00+%::#.oooooooO+++@$=,<,4<,$==$$$$=$=$=$+. #400",
"0+%:::oo..o.ooo++++@=44;;,22;$=$=$=$====$@X..#<0",
"+$<::&oo.o.oooOoO++$;4424<,>;==$=$$$$$$==+.oo.#4",
";52::%..ooo.ooooO++$6,25722;=%$==$$@=$=$=+ooooX@",
"596::%oo..o.oooo++@;6446262;==$$*$$$$=$==$.ooXXX",
"=3,::&ooo oo..oo+++;24446624;=%$$$$*$$$==+oX+==O",
"+%:::%o.o.o..ooo+o+=26742224;=$$$$$$$$=$=$oX$54$",
"0%::::o..o..o..oo+@><44422<;>$$$$$$$$*$==+X+>>1<",
"00%:::#.oo.o..o.oO+$,4,4546,>=$$$$$$$$$==+Xo;;,<",
"000&::&o.ooo..oXo++@-4799753==@$$$$$$$@=$oX$>33,",
"0000&:&o oo..oooo++@$;59993==$$$$$$$$$$=$oo>3113",
"00000::#.o.o....oO++@=;553;==$$$$$$$=@==+o$,,313",
"000000:&..o.ooooooX++@=;1-==$$$$$$$$===$+X%,1311",
"0000000:%..oo.o.o.o++@@@-===$$$$$$======$$=,3;31",
"00000000&o.oo...oXoo+@%=-$>$$$$==>;;;;111,4,,11;",
"000000000%ooo..oo.oXO+@%$$>=;>$===131131=4,<,,1;",
"0000000000&o.o.o.oooo++++++##$$$$$;3141>$2,,<,,1",
"00000000000&o..oo ooo+++++@++++@+$+$=13=@$=:%-=,",
"000000000000&oo..oooooO++++@@+@+@@@+o+$=@@@+oX#>",
"0000000000000&o..o..ooo+++@+O+@@++o.oXoo+$+oXo#>",
"00000000000000&oX.ooooo++@+++@$+ooooo.o.o++++#>>",
"000000000000000+o....oooO++o+@+......o.o+o.X+>,>",
"0000000000000000##o..oooooo..oo...oooooo.o..o=>>",
"00000000000000000#oo..o.ooo.o..oo.ooo.o.oooo.X><",
"000000000000000000##o..o.oo..o..oo....oXO++oo.+%",
"0000000000000000000#+o..oo.ooo..+ooooo+@@@@@oo.+",
"00000000000000000000#%....o...oo+.oX$*@@+@@o+Xoo",
"000000000000000000000#%oooo..o.++oo@;*@@++@@@+oX",
"0000000000000000000000#%o o.oooOoo@*=$@$+X++o+o+"
};
