/* XPM */
static char *magick[] = {
/* columns rows colors chars-per-pixel */
"48 48 33 1",
"  c #010102",
". c #111128",
"X c #112211",
"o c #112222",
"O c #221111",
"+ c #22112d",
"@ c #23232f",
"# c #302b4b",
"$ c #333366",
"% c #324433",
"& c #334455",
"* c #334466",
"= c #443333",
"- c #442454",
"; c #453368",
": c #555555",
"> c #4d4d6e",
", c #446655",
"< c #556666",
"1 c #6a516f",
"2 c #69696a",
"3 c #666688",
"4 c #8877bb",
"5 c #9195ae",
"6 c #93aab5",
"7 c #aa99bb",
"8 c #aaaaac",
"9 c #b7b0ce",
"0 c #bbccd2",
"q c #ccbbdd",
"w c #d3d6db",
"e c Gray100",
"r c None",
/* pixels */
"rrrrrrrrrrrrrrrrrrrrrrrrrrrrrrrrrrrrrrrrrrrrrrrr",
"rrrwwww4q9q9eeeeeeeeeeeeeeeeeeeee:8wwwwww#rrrrrr",
"rrw>$>; >:>1ewq996555:  :eee76787@5@#@#@#@ rrrrr",
"rrw>>;> >>>>ew09655555698  :eee98+6######@# rrrr",
"rrw>;>; >1>>e996455,1>7899   :8eeO5####@#@#@ :rr",
"rrw;;;* >>>>e965545><1<12q :: :8ee5#:#@###+# ::r",
"rrw$;>; >1>>e65455557>12-@O::: ::8::8ee@@@#@ ::r",
"rrw>*;* >>>>e5555569790qw3X#::e :::8eee:@#@@ ::r",
"rrw>;;; >>>1e455757898qwww %=@e0 :8eee8:@@@@ ::r",
"rrw;*;* :>>>e55569899qqq0w :%-rw:8ee88e:@#@# ::r",
"rrw;;-; >1>>e5577979qwqwq0 :::ew8ee8::8e:@+@ ::r",
"rrw;&;& >>>>e769790qwq0w0q :::e8ee8:  :8e:@@ ::r",
"rrw:;-; >:>1e57899qwqwq0qw:eee8ee8:    :8e:::::r",
"rrw;*;# >>>>e9899qwq0w0q0w0q08ee8: 8@#@ ::8ee8:r",
"rrw-;$- >>>:8@+o+O+o+o+@+o+O:8e8: 8@+.+ ::8eee8:",
"rrw;#;#: 76555655565556555::8888 8@.o.o ::888ee ",
"rrw#:#;#-&-#-#######@####::e8:: 8@OXO.+: ::888 r",
"rrw>$;#*$##$#$#########@::888: :@+X.X+o+  ::8 :r",
"rrw#-#-##############@#::88:: :@+.O.+..X+  : ::r",
"rrw;#$$#$##$#######@#@::88::  @.o.X.X.o.X+   ::r",
"rrw#-$##-            ::88::   OXOOOXOXOXOO+o ::r",
"rrw$#$$# 1>>>>>>>>>>::88::  :-%#%-%#%-%.X+X. ::r",
"rrw$### >1>>>1>>>1>::88::  <-%-%->>>-@#@+XO  ::r",
"rrw##$# >>>>>>>>>>::88::  >-@-%->>>>>#%:X.X. ::r",
"rrw&#@# >:1>>>>>>::88::  >-%-%->>>>>>>-,O.+X ::r",
"rrw$#$# >>>>>>>;::88::  >-%-%->>>>>>>>>5X... ::r",
"rrw@### >>>>>>>::88::  >#%-%->>>>>>>>>>5O OO ::r",
"rrw$### >>>>>>::88::  >-%-%->>>>>>>>>>>5.... ::r",
"rrw###@ >:1>>:e88::  >#%-%#>>>>>>>>>>>>5+X.O ::r",
"rrw#### >>>8:::e8:  >-%-%->>>>>>>>>>>>>5.. . ::r",
"rrw#### >>8:8:::   >-%-%->>>>>>>>>>>>>>5.  O ::r",
"rrw##@# >8:e88:   >-%-%->>>>>>>>>>>>>>>5 .XO ::r",
"rrw#### 8:::e8:  >-%-%#>>>>>>>>>>>>>>>>5 X.O ::r",
"rrw##@@8:8:::  :>-%-%->>>>>>>>>>>>>>>>>5O.   ::r",
"rrw##@8:e88:   >-%-%->>>>>>>>>>>>>>>>>>5 O O ::r",
"rrw##8:::e8:  >-%-%->>>>>>>>>>>>>>>>>>>5 . . ::r",
"rrw@8:8:::  :,-%-%->>>>>>>>>>>>>>>>>>>>5 OO  ::r",
"rrw8:e88:   >-%-%#>>>>>>>>>>>>>>>>>>>>>5 .   ::r",
"rr8:::e8:  >-%-%->>>>>>>>>>>>>>>>>>>>>>5. .  ::r",
"r8:8:::  :>-%-%->>>>>>>>>>>>>>>>>>>>>>>5     ::r",
"r::88:   :-%-%->>>>>>>>>>>>>>>>>>>>>>>>5. O  ::r",
"2:88::  >-%-%->>>>>>>>>>>>>>>>>>>>>>>>>5     ::r",
"5:8:: : -%-%->>>>>>>>>>>>>>>>>>>>>>>>>>5.    ::r",
"2 :   @. #%->>>>>>>>>>>>>>>>>>>>>>>>>>>      ::r",
"r:  : OXO                                   :::r",
"rrrr:222<2:::::::::::::::::::::::::::::::::::::r",
"rrrrr:2:2::::::::::::::::::::::::::::::::::::::r",
"rrrrr2<2rrrrrrrrrrrrrrrrrrrrrrrrrrrrrrrrrrrrrrrr"
};
