/* XPM */
static char *magick[] = {
/* columns rows colors chars-per-pixel */
"48 48 33 1",
"  c #030304",
". c #102028",
"X c #201b18",
"o c #201828",
"O c #222130",
"+ c #2c2946",
"@ c #303061",
"# c #384161",
"$ c #411018",
"% c #463264",
"& c #792c79",
"* c #585356",
"= c #595d61",
"- c #696b95",
"; c #38968e",
": c #419a9e",
"> c #5996b6",
", c #619696",
"< c #718ec7",
"1 c #9e4530",
"2 c #9e636d",
"3 c #a16d8f",
"4 c #9e8679",
"5 c #9099a5",
"6 c #9ea29e",
"7 c #b6969e",
"8 c #aaaab6",
"9 c #92a9cc",
"0 c #c78296",
"q c #cec6ca",
"w c #dfe3df",
"e c #efebef",
"r c None",
/* pixels */
"rre66666666#eeeeeeeeeeeeeeeeee5676666666666 rrrr",
"rre%#%*%#%#%eeeeeeeeeeeeeqqq8e +++++++++++O+ rrr",
"rre#%#%#@#%%6eeeeeeeeeeqqqq88e ++++++O+O+o+o  rr",
"rre%#%#%#%#%+6666eeeeewqqq885e @+++++++++O++  rr",
"ree#%#%#%@%@%@@@+*eeewqqq8665e ++++++++o+o+o  rr",
"re#%#%#%#%+%@%@3qeeewqqq8865,e ++++O++O+++o+O rr",
"re%#%#%%%+%@%39e8-ewqqq8865-3e $o++O+o+o+O+o+  r",
"re#%@%#@+%@=we<<--eqqq8869,3-e &%OO++O++oOo+.  r",
"re@#%+%+%+=ew<<->-eqq8865,3=-e *&&$Xoo+oOOOOo  r",
"re#%#%#%#4ew>-----eq8865,33==e &&&&%XOo+OOOOO  r",
"re%+%+%+=eq<<<---<e88764,-==%e &&&&&&XOO+OoOo  r",
"re#%#%+-ew><<<<<<-e889,5-==*=e &&&&32&oO.+OO.  r",
"re%+%@=wq<<<999<<<w<543-==*=-e %&22&3&*XoOOXo  r",
"re@%+%7w<<>999<9<<e953-==%=--e &&223332*XO.oO  r",
"re%+%*e8>><<99<9<<e35--===-=3e &&23&3333XooOo  r",
"re+%+7w>,>><<<9<99e--3=%==-3,e 323303&332 OO.  r",
"re#+#e8,>>><599589e--=%=3--,6e 2333332033 oXo  r",
"re+@,e>>,>,><<9<95e-=%==-5,56e 35233003002Xo.  r",
"re#+8w,,,:>>9<5988e*===-33558e 33000000003 Xo  r",
"re@#w9:,>,>>><<<59e%==-3,5568e 76777000000XO.  r",
"re@+e>,:>:>,,>5995e==-3-56788e 50767770000$oX  r",
"re@+e::,:>>>>>>559e=-3,56788qe 577787000022Xo  r",
"re$+e:::,:,,>,>,99e-5-567889qe 270047004021 X  r",
"re+@e::::>:,,>,>59e33567888qqe 24040400402$Xo  r",
"re++e::;;;:;,,,,98w2556888qqwe 24544242422* X  r",
"re@+e;;:;;;:;,,,,5e567889qqwwe 24242434222*    r",
"re++e;;;;,;;;,;;,,w57688qqqwee 22222224221* X  r",
"re+@**************************************  X  r",
"re++qeeeeeeeeeeeeeeeeeeeeeeweeeeeeeeeeeewe=XX  r",
"re++5eeeeeeeeeeeeeeeeeeeeeeeeeeeeeeeeeeeee*$   r",
"re++=weeeeeeeeeeeeeeeeeeeeeeeeeeeeeeeeeeee XX  r",
"reO+Oqeeeeeeeeeeeeeeeeeeeeeeeeeeeeeeeeeee- o   r",
"reO++=eeeeeeeeeeeeeeeeeeeeeeeeeeeeeeeeeeeO     r",
"re++++eeeeeeeeeeeeeeeeeeeeeeeeeeeeeeeeee-  XX  r",
"re+++O=weeeeeeeeeeeeeeeeeeeeeeeeeeeeeeee OX    r",
"reO++O+5eeeeeeeeeeeeeeeeeeeeeeeeeeeeeee  X X   r",
"re+o+o+o=eeeeeeeeeeeeeeeeeeeeeeeeeeeeeX O  X   r",
"reO+++o+O8eeeeeeeeeeeeeeeeeeeeeeeeeee* OXX X   r",
"reOO+O+o+O-eeeeeeeeeeeeeeeeeeeeeeeee$ $        r",
"re++oOO+O+O-eeeeeeeeeeeeeeeeeeeeeee# O X       r",
"re+O+OOOoOOXX4eeeeeeeeeeeeeeweeee=  $   o   o  r",
"reo+OOOOOOOOOO.=eeeeeeeeeeeeeee-  OO X o       r",
"r* O+.oOoOoOoXoX o=eeeeeeeeee=  OO o    o      r",
"rr Oo+OO.OOO.o.o.OO          XOX o   o X       r",
"re6OoOOXoXoXoXo.XXXXX.XXX .X X   X            rr",
"reOOOO.oOO.o.o.o.o. . X  XX X  . X             r",
"r*                                             r",
"rr**                                           r"
};
