/* XPM */
static char *magick[] = {
/* columns rows colors chars-per-pixel */
"48 48 25 1",
"  c #010101",
". c #101020",
"X c #102026",
"o c #21102d",
"O c #20202d",
"+ c #2c2847",
"@ c #384151",
"# c #304161",
"$ c #412051",
"% c #423163",
"& c #515151",
"* c #4e4968",
"= c #8e71a6",
"- c #8e8a71",
"; c #8e8a8e",
": c #9797b2",
"> c #96aab6",
", c #ae9abe",
"< c #aeacbc",
"1 c #bbafd2",
"2 c #becbd5",
"3 c #cfbadf",
"4 c #d5d4dd",
"5 c #efebef",
"6 c None",
/* pixels */
"666666666666666666666666666666666666666666666666",
"6664444=3131666666666666666666666&<444444+666666",
"664*%#% ****64311>::::::,1,<,>,<,O,++++++O 66666",
"664%*%* ****6421,:::::>,11    &1<o>OO+O++O+ 6666",
"664*%#% ****6111::::::,111 &&&6<1O:+++Oo+O+o  66",
"664%*%# ****61>::=::>11113 &&&622o:OO+++O+O+   6",
"664%+*% ****6>=:::::,,1132 &&&643X:++o+O+O+O   6",
"664*#%# ****6:::::>1,12323 &&&642o>O++++O+O+   6",
"664*%%% ****6:::::,<1<3434 &&&623X:O+O+oOOOO   6",
"664%#%# ****6:::><<3134324 &&&632o:O++O+O+O+   6",
"664%%#% ****6:::,,,1343432 &&&643X:O+OoOOOoO   6",
"664%@%@ ****6:>1,323432423 &&&642o>+OOO+O+OO   6",
"664@%+% ****6,,<1134343234&666623O:OOOOOoOoO   6",
"664%#%+ ****61<313432423244324232o:+O+OOOOXo   6",
"664+%+% ***&<XoXoOoXoOoO..oXoXoOoX:OOOoOoOoO   6",
"664%+%+% :>:::>:;:>:;:>:::>:::>:::+OOOOOXoXO   6",
"665+%+%+%+%+$++++++++++++O+o+O+OOOOOoOoOoOoO   6",
"664%+%+%+#++++++O+++O+O+O+O++oo+O+OOOOXoOoXo   6",
"664+#+%+++%++++++++O+O+O+O+O+OoOOOoOoOoXoXo.   6",
"664%+#+++++++++++++$++O+O+O+O+OOOOOOOoX+XoXo   6",
"664+%+++%                             oX.o.X   6",
"664++++# ********************%********<oXoXo   6",
"664+%++ ****%**************************:o...   6",
"664#+++ ***3555555555555555555555551***:X.X.   6",
"665++++ **355555555555555555555555551**:..o    6",
"664++++ **555555555555555555555555555**:X...   6",
"664++++ **555555555555555555555555555**:o o.   6",
"664++++ **555555555555555555555555555**:....   6",
"664++++ **555555555555555555555555555&*:o..    6",
"664++++ **555555555555555555555555555*&:...X   6",
"664++++ **555555555555555555555555555**:.. .   6",
"664++O+ **555555555555555555555555555*&< ...   6",
"664++++ **555555555555555555555555555**: . .   6",
"664+O+O **555555555555555555555555555**:...    6",
"664++O+ **555555555555555555555555555**: . .   6",
"664+++O **555555555555555555555555555*#:. .    6",
"664O+O+ **555555555555555555555555555**: .     6",
"664+O+O **555555555555555555555555555**:. ..   6",
"664O+O+ **555555555555555555555555555**:       6",
"664+O+O **555555555555555555555555555**:. .    6",
"664OOOO **555555555555555555555555555**:. .    6",
"664+O+O **555555555555555555555555555*#:.      6",
"664OOOo **555555555555555555555555555**:       6",
"664+O+O **555555555555555555555555555**:       6",
"66:O     &;-=;;-=;;-=;;-=;;-=;;-=;;-=**&       6",
"6666                                           6",
"66666                                          6",
"666666666666666666666666666666666666666666666666"
};
