/* XPM */
static char *magick[] = {
/* columns rows colors chars-per-pixel */
"48 48 33 1",
"  c None",
". c #182018",
"X c #182028",
"o c #0b2b69",
"O c #283051",
"+ c #4a4b4e",
"@ c #4d4161",
"# c #6d6461",
"$ c #063090",
"% c #0020a6",
"& c #15418e",
"* c #28619e",
"= c #6c0894",
"- c #7108a6",
"; c #7120a6",
": c #536892",
"> c #4565b5",
", c #7171c7",
"< c #00b5ef",
"1 c #628793",
"2 c #5182cf",
"3 c #94745a",
"4 c #8608b6",
"5 c #8620b6",
"6 c #9608cf",
"7 c #9620d7",
"8 c #a608df",
"9 c #c78661",
"0 c #868791",
"q c #998f97",
"w c #868ed7",
"e c #fffbff",
"r c None",
/* pixels */
"rrrrrrrrrrrrrrrrrrrrrrrrrrrrrrrrrrrrrrrrrrrrrrrr",
"rrrrrrrrrrrrrrrrrrrrrrrrrrrrrrrrrrrrrrrrrrrrrrrr",
"rr+++++++++++++++++++++++++++++++++++++++++rrrrr",
"rr+eeeeeeeeeeeeeeeeeeeeeeeeeeeeeeeeeeeeeee Xrrrr",
"rr+eeeeeeeeeeeeeeeeeeeeeeeeeeeeeeeeeeeeeee X+rrr",
"rr+eeeeeeeeeeeeeeeeeeeeeeeeeeeeeeeeeeeeeee .#rrr",
"rr+eeeeeeeeeeeeeeeeeeeeeeeeeeeeeeeeeeeeeee X+rrr",
"rr+eee$%<%<%$%e%<%$%<%$$<$%$<<%$%eeeeeeeee X#rrr",
"rr+eeeeeeeeeeeeeeeeeeeeeeeeeeeeeeeeeeeeeee X+rrr",
"rr+eeeeeeeeeeeeeeeeeeeeeeeeeeeeeeeeeeeeeee .@rrr",
"rr+eeeeee7878787878e87887878e8787e787eeeee X+rrr",
"rr+eeeeeeeeeeeeeeeeeeeeeeeeeeeeeeeeeeeeeee .@rrr",
"rr+eeeeee7676767676767e67676e6767e767eeeee X+rrr",
"rr+eeeeeeeeeeeeeeeeeeeeeeeeeeeeeeeeeeeeeee .@rrr",
"rr+eeeeee565e565656e6566e656ee5656e65eeeee .+rrr",
"rr+eeeeeeeeeeeeeeeeeeeeeeeeeeeeeeeeeeeeeee .@rrr",
"rr+eeeeee;4-4e4-4e4-ee44;4-4;4-4e4-4;eeeee .+rrr",
"rr+eeeeeeeeeeeeeeeeeeeeeeeeeeeeeeeeeeeeeee .@rrr",
"rr+eeeeee=-=-=e=-=-=e=--=-=-=-=e=-=-=eeeee .+rrr",
"rr+eeeeeeeeeeeeeeeeeeeeeeeeeeeeeeeeeeeeeee .+rrr",
"rr+eeeeee=========e=====e=====e===e==eeeee .+rrr",
"rr+eeeeeeeeeeeeeeeeeeeeeeeeeeeeeeeeeeeeeee .+rrr",
"rr+eeeeeeeeeeeeeeeeeeeeeeeeeeeeeeeeeeeeeee .+rrr",
"rr+eeeeeeeeeeeeeeeeeeeeeeeeeeeeeeeeeeeeeee .Orrr",
"rr+eeeeeeeeeeeeeeeeeeeeeeeeeeeeeeeeeeeeeee .+rrr",
"rr+eeeeeeeeeeeeeeeeeeeeeeeeeeeeeeeeeeeeeee .+rrr",
"rr+eeeeee&,$$$oooooooooeeeeeeeeeeeeeeeeeee .+rrr",
"rr+eeeeee&&>&&&&&&$$oooeeeeeeeeeeeeeeeeeee .+rrr",
"rr+eeeeee2ww>*>>>w:*w*&eeeeeeeeeeeeeeeeeee .+rrr",
"rr+eeeeee2,,O@2,>>>>>*>eeeeeeeeeeeeeeeeeee .+rrr",
"rr+eeeeee::::11>1111111eeeeeeeeeeeeeeeeeee .+rrr",
"rr+eeeeee0w000q111#::#:eeeeeeeeeeeeeeeeeee .+rrr",
"rr+eeeeee1:qq000000#:#0eeeeeeeeeeeeeeeeeee .+rrr",
"rr+eeeeee#####3333qqqqqeeeeeeeeeeeeeeeeeee .+rrr",
"rr+eeeeee##3#333999939qeeeeeeeeeeeeeeeeeee .+rrr",
"rr+eeeeeeeeeeeeeeeeeeeeeeeeeeeeeeeeeeeeeee .+rrr",
"rr+eeeeeeeeeeeeeeeeeeeeeeeeeeeeeeeeeeeeeee .+rrr",
"rr+eeeeee     e            e      e  eeeee .Orrr",
"rr+eeeeeeeeeeeeeeeeeeeeeeeeeeeeeeeeeeeeeee .+rrr",
"rr+eeeeeeeeeeeeeeeeeeeeeeeeeeeeeeeeeeeeeee .+rrr",
"rr+eeeeeeeeeeeeeeeeeeeeeeeeeeeeeeeeeeeeeee .+rrr",
"rr+eeeeeeeeeeeeeeeeeeeeeeeeeeeeeeeeeeeeeee .+rrr",
"rr+                                        .+rrr",
"rrrXX.X.X.X.X.X...X.........................+rrr",
"rrrr+@+@+++++++++++++++++++O+++++++O+++++++++rrr",
"rrrrrrrrrrrrrrrrrrrrrrrrrrrrrrrrrrrrrrrrrrrrrrrr",
"rrrrrrrrrrrrrrrrrrrrrrrrrrrrrrrrrrrrrrrrrrrrrrrr",
"rrrrrrrrrrrrrrrrrrrrrrrrrrrrrrrrrrrrrrrrrrrrrrrr"
};
