/* XPM */
static char *magick[] = {
/* columns rows colors chars-per-pixel */
"48 48 33 1",
"  c #010100",
". c #000820",
"X c #201c00",
"o c #2e2b0e",
"O c #252825",
"+ c #000049",
"@ c #000079",
"# c #202851",
"$ c #493810",
"% c #515435",
"& c #634f05",
"* c #515d41",
"= c #6c6c4a",
"- c #182896",
"; c #0000d7",
": c #0004f7",
"> c #2834ef",
", c #616def",
"< c #6992ff",
"1 c #9a6d08",
"2 c #be8200",
"3 c #9e8649",
"4 c #958f6b",
"5 c #a9a170",
"6 c #df9e08",
"7 c #e7ae38",
"8 c #e7ba59",
"9 c #b9b48f",
"0 c #aeaaef",
"q c #ead490",
"w c #f4ebaf",
"e c #fffbff",
"r c None",
/* pixels */
"rrrrrrrrrrrrrrrrrrrrrrrrrrrrrrrrrrrrrrrrrrrrrrrr",
"rrrrrrrrrrrrrrrrrrrrrrrrrrrrrrrrrrrrrrrrrrrrrrre",
"rreeeeeeeeeeeeeeeeeeeeeeeeeeeeeeeeeeeeeeeeeeeeee",
"rreeeeeeeeeeeeeeeeeeeeeeeeeeeeeeeeeeeeeeeeeeeeee",
"rreeeeeeeeeeeeeeeeeeeeeeeeeeeeeeeeeeeeeeeeeeeeee",
"rreeeeeeeeeeeeeeeeeeeeeeeeeeeeeeeeeeeeeeeeeeeeee",
"rreeeeeeeeeeeeeeeeeeee   eeeeeeeeeee eeeeeeeeeee",
"rree9999999999999eeeee eeee   e  ee eeeeeeeeeeee",
"rree4   OoOoOoo  oeeee eeeee ee eeeeeeeeeeeeeeee",
"rreee%  =eeeeee9X eeee eeeee   eeeeeeeeeeeeeeeee",
"rreeeeo  5eeeeee9 eeee eeee ee eeeeeeeeeeeeeeeee",
"rr<<<<,   ,<<<<<<.><<< <<<< << <<<<<<<<<<<<<<<<e",
"rreeeeee  Xeeeeeeeeeee eee  e   ee eeeeeeeeeeeee",
"rreeeeee4  oeeeeeeeeee eeeeeeeeeee    eeeeeeeeee",
"rreeeeeee=  *eeeeeeeee eeeeeeeeee   e eeeeeeeeee",
"rreeeeeeeeo  5eeeeeeee eeeeeeeeee  e eeeeee   %e",
"rreeeeeeeee. =eeeeeeee ee              e5 eeeeee",
"rreeeeeeeee %eeeeeeeee eeeeeeeeeeeeeeee=&Xeeeeee",
"rreeeeeeee $eeeeeeeeee eeeee     eeww=$16oeeeeee",
"rreeeeeee oeeeeeeeeeee eeeeee eeeew%O57o*oe9eeee",
"rreeeeeeooeeeeeeee eee eeeeee  e5O$0w81.6X555eee",
"rreeeeeX eeeeeeee= eee eeeee e 5$6wwq7 31X==59ee",
"rreeeeo 49999993% *eee eeeee eeO18ww8&$61X==39ee",
"rreeeO            4eee eeee    X6qwq3 71&X%=39ee",
"rreeo             eeee eeeeeee4&7ww8X311&X$=39ee",
"rr<<<<<<<<<<<<<<<<<<<<   <<<<<#1qwq&o21&$XO#->,e",
"rreeeeeeeeeeeeeeeeeeeeeeeeeeeeo6ww& 31&&oXo*49ee",
"rreeee eeeee eeeeeeeeeeeeeeeew$8wq1$1&&o  $==5ee",
"rreeeeeeeee eeeeeeeeeeeeeeeee51ww7621&$X o%*=5ee",
"rreee  e         eeeeeeeeeeeeO7wq661&$  o%%=49ee",
"rreeee eee ee ee eeeeeeeeeeewoqw761&$X o%%*=59ee",
"rreee  e      e eeeeeeeeeeee9&w862&$X o%%%=45eee",
"rreee ee  eee e  eeeeeeeeeee=5w76&$X o%%*=44eeee",
"rreeeeeeeeeeeeeeeeeeeeeeee5oX5861&X o%%%=455eeee",
"rreeeeeeeeeeeeeeeeeeeeeee%$$8=&1&o o%%%=449eeeee",
"rreeeeeeeeeeeeeeeeeeeeeeO@$5%=1o  X%%%*449eeeeee",
"rreeeeeeeeeeeeeeeeeeeee=-:>#=1ooX O%*==59eeeeeee",
"rreeeeeeeeeeeeeeeeeeeee#::0,>.&X  O*==59eeeeeeee",
"rreeeeeeeeeeeeeeeeeeee#;:,0>:-  XXO*=39eeeeeeeee",
"rr<<<<<<<<<<<<<<<<<<<>@:>0,>;+.O. ##--,,<<<<<<<e",
"rreeeeeeeeeeeeeeeeeeeO;:00>:@..+@ %==5eeeeeeeeee",
"rreeeeeeeeeeeeeeeeee5-:>0,:-+.O+@o%*35eeeeeeeeee",
"rreeeeeeeeeeeeeeeeee#::0,>;@..+-.O*=39eeeeeeeeee",
"rreeeeeeeeeeeeeeeee=;:,0,:-O.O@+O%%=5eeeeeeeeeee",
"rreeeeeeeeeeeeeeeee#::0,>;@..+-X%%==5eeeeeeeeeee",
"rreeeeeeeeeeeeeeeeO;:,0>:-..+@+$%%=39eeeeeeeeeee",
"rreeeeeeeeeeeeeee9@:>0,:;+.O+-X%%==5eeeeeeeeeeee",
"eeeeeeeeeeeeeeeeeeeeeeeeeeeeeeeeeeeeeeeeeeeeeeee"
};
