/* XPM */
static char *magick[] = {
/* columns rows colors chars-per-pixel */
"48 48 33 1",
"  c #010101",
". c #151d16",
"X c #201020",
"o c #252525",
"O c #303041",
"+ c #304130",
"@ c #304141",
"# c #413030",
"$ c #413041",
"% c #414130",
"& c #494949",
"* c #575d56",
"= c #615161",
"- c #686969",
"; c #717186",
": c #718271",
"> c #718286",
", c #867171",
"< c #867186",
"1 c #868271",
"2 c #938e94",
"3 c #9ba39a",
"4 c #a4a6a8",
"5 c #b6b6b6",
"6 c #bebecf",
"7 c #becfbe",
"8 c #becfcf",
"9 c #cfbebe",
"0 c #cfbecf",
"q c #cfcfbe",
"w c #d5d5d5",
"e c #e5e7e6",
"r c None",
/* pixels */
"rrrrrrrrrrrrrrrrroo+$&&*=--:22233455590wwweweeee",
"rrrrrrrrrrrrrrrrooo$%*&**--<22323555708wwweeeee2",
"rrrrrrrrrrrrrrrooo%%o&=*--,12223445657wwwwweee22",
"rrrrrrrrrrrrrro.oowwwwwwwwwewewewwwwwwwwwweee222",
"rrrrrrrrrrrrr.ooo3wwwwwwwwwwwwwwwwwwwwwwweew2222",
"rrrrrrrrrrrr.ooo228wwwwwwwwwwwwwwwww9wwwwew22222",
"rrrrrrrrrrr.X.o:22<22rrrrrrrrrrrrrrrrrwwwe<22222",
"rrrrrrrrrr.o.o:<26222rrrrrrrrrrrrrrrrwwww22<7222",
"rrrrrrrrr X.X-,175222rrrrrrrrrrrrrrr0www<2299232",
"rrrrrrrr...X-;-655223rrrrrrrrrrrrrrwwww<>1555222",
"rrrrrrr. .X*--r445222rrrrrrrrrrrrr99ww-:<r545222",
"rrrrrr ..X---rr544223rrrrrrrrrrrr67ww-:<rr544224",
"rrrrr . X*=-rrr343222rrrrrrrrrrr55ww--,rrr434222",
"rrrr . .*=*rrrr333223rrrrrrrrrr5708---rrrr334222",
"rrr   X&=*rrrrr223222rrrrrrrrr5697---rrrrr223222",
"rr   .....oooo+322223-:2223335557---rrrrrr322232",
"r   X . X.oooo$<22222-<222334469=*-rrrrrrr222223",
"     . ..oooo$@222223<>22234555=*-rrrrrrrr2<2234",
"wwwwwwwwwwwweww<:;222wwwwwwwww*&=rrrrrrrrr-:<323",
"wwwwwwwwwwwwwew---223wwwwwwwww&=*rrrrrrrrr---234",
"ww0qwqww0wwwwww---223wwwwqww0w&&*rrrrrrrrr---223",
"7w7O@&rrrrrrrrr*--223rrrrrr07w&**rrrrrrrrr*--333",
"w50o$+rrrrrrrrr=*=222rrrrrr506&&&rrrrrrrrr=*=323",
"767oo&rrrrrrrrr&&*234rrrrrr755&*&rrrrrrrrr&&&344",
"549o#%rrrrrrrrr&&&232rrrrrr554&&*rrrrrrrrr&&&334",
"545O+&rrrrrrrrr&&&234rrrrrr554&&&rrrrrrrrr&&&344",
"444oo+rrrrrrrrr%&+222rrrrrr555&&&rrrrrrrrr$%$324",
"444O+&rrrrrrrrr$+O24o&&&**-434&**445567www+O+234",
"332+$$rrrrrrrrrooo3+$$&*=--333&&*445950wwwo+o343",
"333$&&rrrrrrrrrooooO@&&=---233*=*455508wweooo232",
"222%$@rrrrrrrrrooooooooooX.222=&=.oooooooweee323",
"222&@&rrrrrrrrooo-ooXoo..o.222*=*o.o..oowwee223r",
"<21%&&rrrrrrr.o.--X.X.X.X.X2<2**=.X.X.Xwwww222rr",
"-<:&&&rrrrrr.oo---rrrrrrrrr,:,*=*rrrrrwwwe2<2rrr",
"--,o&orrrrr.X.<--rrrrrrrrrr---=*=rrrrwwww,22rrrr",
"---&&&rrrr.X.2:-rrrrrrrrrrr---***rrr7www:22rrrrr",
"---%&&rrr...21<rrrrrrrrrrrr*=-=*=rr70ww:<2rrrrrr",
"*=*%&&r...X<12rrrrrrrrrrrrr=*=*=-r50ww:<>rrrrrrr",
"&**&@& . X222rrrrrrrrrrrrrr&&*=**59qw-,:rrrrrrrr",
"&&&%&*. X22<rrrrrrrrrrrrrrr&&&*--68w--:rrrrrrrrr",
"&&&o&& .222rrrrrrrrrrrrrrrr&&&=*-5w---rrrrrrrrrr",
"@&@&&&X232rrrrrrrrrrrrrrrrr&o@*==0---rrrrrrrrrrr",
"$oo&&X ..ooooo+%&&&*--,1224+$+=--*--rrrrrrrrrrrr",
"ooO&  . ..ooooo&&&*---:2224ooo*----rrrrrrrrrrrrr",
"oo$X...X.Xooo&@&&&=*--<>223ooo-*--rrrrrrrrrrrrrr",
"oooooooooooooo.o..oooooooooooo*-*rrrrrrrrrrrrrrr",
".ooo..oo.oXoX.XoX.Xooooo.oXooo==rrrrrrrrrrrrrrrr",
".ooo.o...o...X.X...o.X.o.o.o.o*rrrrrrrrrrrrrrrrr"
};
