/* XPM */
static char *magick[] = {
/* columns rows colors chars-per-pixel */
"48 48 33 1",
"  c Gray0",
". c #181919",
"X c Gray17",
"o c #303041",
"O c #304130",
"+ c #304141",
"@ c #413030",
"# c #413041",
"$ c #414130",
"% c #484948",
"& c #555d57",
"* c #615161",
"= c #696869",
"- c #717186",
"; c #718271",
": c #718286",
"> c #867171",
", c #867186",
"< c #868271",
"1 c #908b91",
"2 c #9ba39b",
"3 c #a3a9a9",
"4 c #b5b4b5",
"5 c #bebecf",
"6 c #becfbe",
"7 c #becfcf",
"8 c #cfbebe",
"9 c #cfbecf",
"0 c #cfcfbe",
"q c #d9d7d8",
"w c #dfefdf",
"e c #ece7eb",
"r c None",
/* pixels */
"rrrrrrrrrrrrrrrrrrrrr...X.Xrrrrrrrrrrrrrrrrrrrrr",
"rrrrrrrrrrrrrrrrrrrrr..XX@Xrrrrrrrrrrrrrrrrrrrrr",
"rrrrrrrrrrrrrrrrrrrr..XXXX..rrrrrrrrrrrrrrrrrrrr",
"rrrrrrrrrrrrrrrrrrrr.XXXXo..rrrrrrrrrrrrrrrrrrrr",
"rrrrrrrrrrrrrrrrrrr.XXXXX....rrrrrrrrrrrrrrrrrrr",
"rrrrrrrrrrrrrrrrrrrXXXXo+X.X.rrrrrrrrrrrrrrrrrrr",
"rrrrrrrrrrrrrrrrrrXXXX@XXX....rrrrrrrrrrrrrrrrrr",
"rrrrrrrrrrrrrrrrrrXXXX+%XXXX..rrrrrrrrrrrrrrrrrr",
"rrrrrrrrrrrrrrrrrXXX@$%XXXXXXX.rrrrrrrrrrrrrrrrr",
"rrrrrrrrrrrrrrrrrXO#+$%#+XXXXX.rrrrrrrrrrrrrrrrr",
"rrrrrrrrrrrrrrrrXX#$%+%+#X@XXXXXrrrrrrrrrrrrrrrr",
"rrrrrrrrrrrrrrrrO#%%%#%%+%OXXXXXrrrrrrrrrrrrrrrr",
"rrrrrrrrrrrrrrrO#$%%%%%%#%OXXXXXXrrrrrrrrrrrrrrr",
"rrrrrrrrrrrrrrr#+%%&&*&*%%7q+oOXXrrrrrrrrrrrrrrr",
"rrrrrrrrrrrrrr#O%%%&=&*%&%96#O@XXXrrrrrrrrrrrrrr",
"rrrrrrrrrrrrrr%%$&&*===&&q69q%+#XXrrrrrrrrrrrrrr",
"rrrrrrrrrrrrr%%%&&*;>===*8868%%X#XXrrrrrrrrrrrrr",
"rrrrrrrrrrrrr%%%&&&1;===664884%%+#Xrrrrrrrrrrrrr",
"rrrrrrrrrrrr%%%&*=1,,=>=r48444%%%X#Xrrrrrrrrrrrr",
"rrrrrrrrrrrr%*&&&=1111:rr444444%%%%#rrrrrrrrrrrr",
"rrrrrrrrrrr%&&*==111111rrr44434%%#%$#rrrrrrrrrrr",
"rrrrrrrrrrr&&&===22111rrrr443433%&%%%rrrrrrrrrrr",
"rrrrrrrrrr*&====332221rrrrr23232*%%%%$rrrrrrrrrr",
"rrrrrrrrrr&&===-33322rrrrrr322322*&&%#rrrrrrrrrr",
"rrrrrrrrr&====>444322rrrrrrr22221&*&&%%rrrrrrrrr",
"rrrrrrrrr=&==,:44433rrrrrrrr222122&*&%%rrrrrrrrr",
"rrrrrrrr====,<844444rrrrrrrrr11112=**&*%rrrrrrrr",
"rrrrrrrr===,:16q444rrrrrrrrrr211111=&*&%rrrrrrrr",
"rrrrrrr===,1>q54q44rrrrrrrrrrr111,1==**&&rrrrrrr",
"rrrrrrr=;,:1:qqq69rrrrrrrrrrrr1111:1==&=&rrrrrrr",
"rrrrrr==-1<1qqqq96rrrrrrrrrrrrr>,;,<>===*&rrrrrr",
"rrrrrr;,1111qqqqqrrrrrrrrrrrrrr-;-;-;-====rrrrrr",
"rrrrr;,,111qqqqqqrrrrrrrrrrrrrrr====>;>====rrrrr",
"rrrrr,11112eqwqqrrrrrrrrrrrrrrrr======;-===rrrrr",
"rrrr111112eqqqqqrrrrrrrrrrrrrrrrr=====1<====rrrr",
"rrrr112123weqeerrrrrrrrrrrrrrrrrr=&=&&&1;-==rrrr",
"rrr111122eeweqerrrrrrrrrrrrrrrrrrr*&*&*:1<,==rrr",
"rrr122223ewewerrrrrrrrrrrrrrrrrrrr&&&&&*11:,;rrr",
"rr1122323444448850qqqqqeqqeqeweeeee%%&&&111>,=rr",
"rr2223243444556qqqqqqqqqweweweeeeee&%%%%%11111rr",
"r2122334444580q0qqqqqqqweeeweeeeeeee%%%%%11111,r",
"r233344448657qqqqqqqqeqeweweeeeeeeee#%%%%%22111r",
"2234445846909qqqqqqeweeeeweeeeeeeeeee%#%#$21111,",
"X%O%O#O%O#O%XXXXOoXXXXXXXXO#O+$#O%O%O#O%O%X22221",
"rO#O#X#O@X@OXXXXXXXXXXXX@XXX@XXX$X$O$X#O#X#3222r",
"rrOoOXO+OXXoXXXXXXXXXXXXXXXXXXXXXXX#OXO#OXOo22rr",
"rrrXXXXXXXXXXXXXXXX.X.X.XXXXXXXXXXXXOXXXXXXX4rrr",
"rrrrXXOXXXXXXXX#XXXX.XX..XXXXXXXXXXXXXXXXXXXrrrr"
};
