/* XPM */
static char *magick[] = {
/* columns rows colors chars-per-pixel */
"48 46 33 1",
"  c #010101",
". c #181828",
"X c #102020",
"o c #201020",
"O c #252431",
"+ c #2f304c",
"@ c #383861",
"# c #384538",
"$ c #304151",
"% c #4c4c51",
"& c #4a4a6a",
"* c #516151",
"= c #616769",
"- c #516186",
"; c #615188",
": c #606695",
"> c #676795",
", c #69828e",
"< c #867986",
"1 c #8e8e9e",
"2 c #9691b7",
"3 c #96a296",
"4 c #96a2be",
"5 c #b2aeaf",
"6 c #9eaac7",
"7 c #aeb2d7",
"8 c #becccc",
"9 c #c7b6cf",
"0 c #d5d6df",
"q c #dfdfef",
"w c #efe3df",
"e c #efebef",
"r c None",
/* pixels */
"rrrrrrrrrrrrrrrrr3eqeqeqe,rrrr2qeqeqeq43rrrrrrrr",
"rrrrrrrrrrrrrrrrr3w089897Xrrrr3q22321<Orrrrrrrrr",
"rrrrrrrrrrrrrrrrr3e088987 rrrr2q441><,O1rrrrrrrr",
"rrrrrrrrrrrrrrrrr9w889776 rrrr36311<,>O=rrrrrrrr",
"rrrrrrrrrrrrrrrrr88897766X1525161>1,,,@=rrrrrrrr",
"rrrrrrrrrrrrrrrrr08977676>47676=,1,>,>%%rrrrrrrr",
"rrrrrrrrrrrrrrrrr00776666=14424=,,,,:==Orrrrrrrr",
"rrrrrrrrrrrrrrrrrq7766666>,21<4>,>>>=:&.rrrrrrrr",
"rrrrrrrrrrrrrrr  q7766766,111>6=>>>::::.  rrrrrr",
"rrrrrrrrrrrrrr 0qqqqqq0q89907662222222222<#rrrrr",
"rrrrrrr523233370>,,,>,>>>>>>:::-:-;-;&;&&&  rrrr",
"rrrrr1164242610,,<>>>>>>>>:::;:;&;-;&&&&&&.=rrrr",
"rrrr262:&&&$+,7,,,>>>>>,>::-:---;--&;&&%&&@Xrrrr",
"rrr16>-=%&#O+7,>>><>>>>>::>;;;=;&-&&&&&&@&%  rrr",
"rr342:;&&++O:6,,>22:>>>>:-:->-;&-&&&&&&&&@@O%rrr",
"rr32>;&&%+++6>>1,<><><>>>>>>>>>>:>::;;-;-@%@Xrrr",
"r37,:--&&+@&7,>&+OOOOOOOOOOOO+O++++++$@+--@+X rr",
"r16>>;&%@@+2,>>.                        X>+@+Orr",
"r62>:&&&%O&6,>;  &-&&&&&&&&&&$@$@++++O+X &&$+  r",
"362>;=&&#O,6>>+ @>:::>@;&;&>O&&&&&&+%@$@ O:+O.%r",
"26,>;&&++$6,>> O:::;:>+-;-;:O@&&&&:+@@@$+ >@++or",
"32>;&&@@+>2>>@ >:::;>,@;&-&:O&&&@&;O$@$@+.O;O+X ",
"2>>-;&&$@1>>> &::-:->:&-;&;:O&&&@@-$+$+$++X>++.#",
"<>>;&&%@+1,>&o:::;;;,@&;&&&:O&&@%@@&O@+++O+@&O+X",
"1-+O+O+OO2>>O=:::---2+-&-&&-O&@@@@&-O$+O+++O>O@ ",
"<&OO..XoX2>>&:;;;;-;:-&&-@&&+&@@%@+@++++O++++++ ",
"3%oXX3  X4>::-:---;--&;&&&&&@@&@@$@++O++++++++@ ",
"3<   3   &&&&&@&%%@@@@@@#@+@#@+@#@++#@+@#@++#@+ ",
"rrrrr% rr ++O+OOOOOOOOOOOOOOOOO.OOO.OO.X.XOX.X. ",
"rrrrr  rr OO..OOOOOOOO..OO........X...XoX.XoXoX ",
"rrrrr% r% .OO.OOOXO.OXOXOX.XOX.XoXXXoXXXXXXX XX ",
"rrrrr %r  ...o                              X XO",
"rrrr  r% #XX.X                              X . ",
"rrrr% r  r# X  OOOOOOOOOOOOOOOOOOOOOOOOOOO   . r",
"rrrr  r% rr#  X%%      %      %  *    =*%#  . rr",
"rrr % r   rr#o0<=<=<=<=<=<=<=<=<=<=<=<=<=<X% rrr",
"rrr  %rr%  rr58<<    %     <     3 %<   <<+ rrrr",
"rr%% rrr  %rr55535535355553555353555355535==rrrr",
"rr   rrr % rr8553   5   %  %    5       555#rrrr",
"r % rrrrr  rr095595955555559555959595955555Orrrr",
"r  %rrrrr% rr098 %%  5  %    %          999% rrr",
"r% rrrrrr  r5089808909890989098989898989098<=rrr",
"r  %rrrr % r8008  %0 % 0      3   3 0    005#rrr",
"r%%  %  %  r0w000w000w0w0w0w0w0w0w0w0w0w0w0w#rrr",
"rr        rreqeqqqeqeqeqeqeqeqeqeqeqeqeqeqeq=rrr",
"rrrrrrrrrrrre                                rrr"
};
