/* XPM */
static char *magick[] = {
/* columns rows colors chars-per-pixel */
"48 48 33 1",
"  c #010100",
". c #102010",
"X c #230f10",
"o c #201020",
"O c #292310",
"+ c #2e2725",
"@ c #433010",
"# c #462b21",
"$ c #613027",
"% c #4c4110",
"& c #4e4325",
"* c #684a2d",
"= c #716130",
"- c #52504f",
"; c #715141",
": c #865130",
"> c #866130",
", c #875141",
"< c #956a46",
"1 c #9e7161",
"2 c #ae7151",
"3 c #9d824b",
"4 c #9e8e61",
"5 c #b38550",
"6 c #b58c66",
"7 c #b6a270",
"8 c #cf926b",
"9 c #9ea29e",
"0 c #be9286",
"q c #bea886",
"w c #d2ab89",
"e c #efefef",
"r c None",
/* pixels */
"rrrrrrrrrrrrrrrrrrrrrrrrrrrrrrrrrrrrrrrrrrrrrrrr",
"rrrrrrrrrrrrrrrrrrrrrrrrrrrrrrrrrrrrrrrrrrrrrrrr",
"rrrrrrrrrrrrrrrrrrrrrr  rrrrrrrrrrrrrrrrrrrrrrrr",
"rrrrrrrrrrrrrrrrrr   O#.rrrrrrrrrrrrrrrrrrrrrrrr",
"rrrrrrrrrrrrr + .+#,<>>+rrrrrr.X rrrrrrrrrrrrrrr",
"rrrrrrrrr o X+*><<<><><&+rrrr qw*  rrrrrrrrrrrrr",
"rrrrr+  X#*<<<,<,<,><eeeeeee+-www0&  rrrrrrrrrrr",
"r  .#$,<<><<>>,>,>,>eeeeeeeeewwwwww6$  rrrrrrrrr",
"rrO<,<><,<><><,<=,=ee9    -eewwwwwqw71#  rrrrrrr",
"rr.><><>,>,=,>,=:*ee9 -ee- -eewww8w78771$  rrrrr",
"rro*<,=,=,=,=,=;=;ee -eeee  eewwww7q787641+  rrr",
"rrrO,=,*,=:*,*:*=*ee   eee  eew8w78786766661#  r",
"rrr =;=;=;==*;*=*=ee   eee  eeww7w76766646413<++",
"rrr+$**=*=*=******ee9 9ee9 9eew787877464636313< ",
"rrrr.**;*******$*==eeeeee  eee6747776646463131O ",
"  -r **********+OOOXXeee9 eee#=666666451431<<& r",
" o. ++***$*OXOOOOOOOXeee  eee&#%66674444113<= rr",
" X*O  *%OOO#O#@OOXXXOee9 ee*&**&&6665363<31<Xrrr",
"r .<=+XX@##+#++O+O+OXee ee*&****=@#6463131<++rrr",
"rr X2<<+O#####OOO+OXOee ee$********$%3<11<$ rrrr",
"rrr .<32=++##+#O+O+XOeeeee*****;;*;=&@<<<, rrrrr",
"rrrr X132>O#@+@#O#XOee9 9ee******==:>,%#>.-rrrrr",
"rrrrr .232>+###@#++Oee   ee*=*;;;=,=>>*-O+ rrrrr",
"rrrrrr O2<22##@#@#O#ee9 9ee***=*=,>,#O*>23# rrrr",
"rrrrrr.#O11<3*+@#+#OOeeeee#*;=;;,#O&<555323# rrr",
"rrrrrrX$$O<32>,O@#@+@Xeee*X$*:=O$>555525232<# rr",
"rrrrrr.#&*.$<<3,O+@OX+%$$*$.+*>6565455323132<# r",
"rrrrrrX&*$**#O*<<OX%*****.#=5555255523232>2<<<# ",
"rrrrrr.$&****,&++=#*$*O#=8585655555532333332<<< ",
"rrrrrrX&$***:*,><&+O+*55856555555525232>2>1<*O r",
"rrrrrr &$**;=,=><<>,#8588558565655323132><=X+rrr",
"rrrrrrX&**$===,><<>2<=855555525523232<2<$. rrrrr",
"rrrrrr #&**=*,<,>1<27X>856555255323<3,+  Xrrrrrr",
"rrrrrr- #&**:*,><<<27OX255555523232*X X.X rrrrrr",
"rrrrrrr- $*;=,=<><>27+O+56565522>#.X.X.X.Xrrrrrr",
"rrrrrrrr- $=*=,><<<<6O#O*55523,@XOX.XOXXX rrrrrr",
"rrrrrrrrr- *=,,,<<<<7#O#O,55*.X+O+OOOXOX..rrrrrr",
"rrrrrrrrrr- **,><><26@#@+O#OOO+OOOOOXOOX +rrrrrr",
"rrrrrrrrrrr- *=<<<<27+####+#+#O+O+O+OX +rrrrrrrr",
"rrrrrrrrrrrr- *><<><7##+#O###@#@#O#OX+rrrrrrrrrr",
"rrrrrrrrrrrrr- =><<27#&#&#&####++O +rrrrrrrrrrrr",
"rrrrrrrrrrrrrr- =<<<7&$&#######O +rrrrrrrrrrrrrr",
"rrrrrrrrrrrrrrr- ,>27*#$&$&#&+ +rrrrrrrrrrrrrrrr",
"rrrrrrrrrrrrrrrr-.,<7&$&$&$O.+rrrrrrrrrrrrrrrrrr",
"rrrrrrrrrrrrrrrrr- ,7*&*&+.+rrrrrrrrrrrrrrrrrrrr",
"rrrrrrrrrrrrrrrrrr-.1**@ +rrrrrrrrrrrrrrrrrrrrrr",
"rrrrrrrrrrrrrrrrrrr-.+ +rrrrrrrrrrrrrrrrrrrrrrrr",
"rrrrrrrrrrrrrrrrrrrrrrrrrrrrrrrrrrrrrrrrrrrrrrrr"
};
