/* XPM */
static char *magick[] = {
/* columns rows colors chars-per-pixel */
"48 48 33 1",
"  c Gray0",
". c #002000",
"X c #200000",
"o c #202000",
"O c #11304a",
"+ c #491800",
"@ c #5e5200",
"# c #4b4951",
"$ c #696951",
"% c #3252b4",
"& c #458c00",
"* c #a65900",
"= c #a84b39",
"- c #ef0800",
"; c #f05f00",
": c #a49800",
"> c #a09a51",
", c #9edb69",
"< c #dfb200",
"1 c #f09200",
"2 c #ffb200",
"3 c #f8ab51",
"4 c #cde300",
"5 c #ffdb00",
"6 c #fffb00",
"7 c #fcea51",
"8 c #b0adac",
"9 c #e3a4d2",
"0 c #dfdbae",
"q c #fdecae",
"w c #efd8ff",
"e c #f7f3f7",
"r c None",
/* pixels */
"rrrrrrrrrrrrrrrrrrrrrrrrrrrrrrrrrrrrrrrrrrrrrrrr",
"roo  oo   oo  ooo  ###  #Xo  @ X  # #  # #  # or",
"r$$ $8$$ $$$# $$$o $12# >22@ 2;1X 8$8  8$8 o8$8r",
"ree ##e8 $#e8 $#e$ $52: 2;5X 1;2o $$e  $$e  $$er",
"ree $$ee $$e8 $8e8 $881 255* 12$# 8ee  8ee o$eer",
"r$o o $  o $  o $  oo$    +  Xo#  oo$  oo$  oo$r",
"r                                        .  #  r",
"r@@*@:&%eeeeeeeeeeeeeeeeeeeeeeeeeew    8%%>  wor",
"r&@&:&@.ee0eee>$qeeeeeeee0eeeeeeee+ O. 7655;  8r",
"r.8 >X& eeqeee08eeeeeeeeeeeeeeeeeeo %%Oq337#   r",
"r3-,7O .eeeeeee90eeeeeeee   eqeeqeo ee9e937+   r",
"r;-*-3 oeeeeeeeeeeeeeeee    eqqq0eoXeeeeew7#   r",
"r---+- .eeeqeeeqeeeeeee     eq80qeo#eeeee973   r",
"r-+;+-.Xeeeeeee@ew4qqe      eee80eoOeeeeeq7+ +#r",
"r X+ X>oeeeeeee             07e0eeo eeeeeq5X88 r",
"r  @  ,oeeeee@:     >oo   8o  ee0eo 8OOq3wqXX>Or",
"r4 &>o8.ee@ >X     X++    w   #q9eo O %q3178O#%r",
"r0@@>@@Xee@+eee      3e9ee7ee ee0e$    7;;;   8r",
"r> 7 o@ eqeee0e    +XX8X=>ewe ee0e>    3;;1O   r",
"r& 6 o&Xeqeqeee+8q798>>9>54@e8eeee@    3;;1e   r",
"r& 4O:o e3qqeee@+oooooX+ X* eeeeee>    1;*;    r",
"rX  8:o q0q9qqeeeeeeeeee2   >weeee,    ;;*;    r",
"r o :   e$93qqqeeeeeeeeeeX e$9>89>$    ;;*;    r",
"r   @  %e8>wee0eeeeeeeeee; e800eee,    *;11@   r",
"r   X   eq0ee0qeeeeeeeeeee#e00weee>    ##      r",
"r    Xo eeeee3eeeeeeeeee0$e089qeee0            r",
"r  o  @ 0eeee0eeeeeeeeww9o90w0eeee8            r",
"r                                              r",
"r$$ #$$$ $$$# $$$# $$$o 222  :=$  $$$  $$$  $$$r",
"r$8 ##$$ $#$# $#$o $$3: 526o <5$# 8#8  $#8  $#8r",
"ree ##ee $#e8 $#e8 $751 525X <15# $8e  $8e  $eer",
"re8 #$e8 $$e$ $8e$ $83# 877@ 352  $8e  $ee  $eer",
"r                                              r",
"r$$$##$$$##$$$##$$$##$$$:***+++@o  +#$$##$$###$r",
"r$$$$$$$$$$$$$$$$$$$$$$755>55555551225>8$8$$$$$r",
"rrrrrrrrrrrrrrrrrrrrrrr77$r811<1<221:*55788eeeer",
"rrrrrrrrrrrrrrrrrrrrrrrr#rr71222122221***@*@*@*r",
"rrrrrrrrrrrrrrrrrrrrrrrrrr8665$6<2<2<222<1:::::r",
"rrrrrrrrrrrrrrrrrrrrrrrrrr76>$r71<1<2<2<2222252r",
"rrrrrrrrrrrrrrrrrrrrrrrrrrr8orr66766<2<2<2<2<2<r",
"rrrrrrrrrrrrrrrrrrrrrrrrrrrrrr75788715262<2<2<2r",
"rrrrrrrrrrrrrrrrrrrrrrrrrrrrrr77orr767$6<666526r",
"rrrrrrrrrrrrrrrrrrrrrrrrrrrrrrr8#rr668r817$>767r",
"rrrrrrrrrrrrrrrrrrrrrrrrrrrrrrrrrr8778r8578r76$r",
"rrrrrrrrrrrrrrrrrrrrrrrrrrrrrrrrrrrrorr768rr76or",
"rrrrrrrrrrrrrrrrrrrrrrrrrrrrrrrrrrrrrrrr&orr77or",
"rrrrrrrrrrrrrrrrrrrrrrrrrrrrrrrrrrrrrrrrrrrrr8$r",
"rrrrrrrrrrrrrrrrrrrrrrrrrrrrrrrrrrrrrrrrrrrrrrrr"
};
