/* XPM */
static char *magick[] = {
/* columns rows colors chars-per-pixel */
"48 48 33 1",
"  c Gray0",
". c #182010",
"X c #201010",
"o c #2e1020",
"O c #2f2120",
"+ c #411020",
"@ c #482a29",
"# c #613030",
"$ c #513041",
"% c #613041",
"& c #504230",
"* c #614430",
"= c #4e4641",
"- c #684943",
"; c #706247",
": c #716c61",
"> c #865150",
", c #8f684f",
"< c #986d63",
"1 c #967186",
"2 c #998251",
"3 c #998469",
"4 c #ae8b6f",
"5 c #998888",
"6 c #9ea28e",
"7 c #b08f88",
"8 c #b9ac98",
"9 c #bebaae",
"0 c #cfb79e",
"q c #cfbcae",
"w c #ddd9bd",
"e c #dfcfcf",
"r c None",
/* pixels */
"rrrrrrrrrrrrrrrrrrrrrrrrrrr:ww860 Xrrrrrrrrrrrrr",
"rrrrrrrr9w9q9q9qrrrrrrrrr<we808333<>X 3rrrrrrrrr",
"rrrrrrq0<3<3<3<3w0rrrrr;ww0803<3<34473>&- <rrrrr",
"rrrrrq3rrrrrrrrrrq8wr<ww9833<3333334889qwe33rrrr",
"rrrrr0w<rwq0w0w0q0,0qw0684744334760800w3OO3rrrrr",
"rrrrrrrq93<3<3<>33<q9w976733334780we3%O   4rrrrr",
"rrrrrrrrrrrrrwww088<<3##4373460qw<%O    O4Orrrrr",
"rrrrrrrrrr:ww908886867&%9w3803&O      O;,<Orrrrr",
"rrrrrrr:ww00080808067783q@w0#O      @;;;,;+rrrrr",
"rrrrrewwwq809q88887888<=3%@w*     O;;;;;;4Orrrrr",
"rrrwwr<3ewq008q0080<*O OO0  q*  @*-;-;-333@rrrrr",
"rrrwr  O&4wwwqw3#o   O&% $9  wO---;;;33333Orrrrr",
"rrwr     O#w<&@    O#&    3-O-5--*;3<<<4<2@rrrrr",
"rrw$       O&    O&$      Oq-O35*<<<2<2<3<Orrrrr",
"rrw#     O@    O%&      @O-3-O=0,<<2<,<,<2@rrrrr",
"rrw%   OO    O&%      O#&OO53;,w*<,<,<3<3<Orrrrr",
"rre&# #    O#&      O@@&#*O*q,,3w*,,<,<<42@rrrrr",
"rre<&%    &$      O@&@&=&-;-9-,>9*,<<<3<2<Orrrrr",
"rrr3%&# %&      @@#@#&##>,>#,0-3w*,,<,32<2@rrrrr",
"rrr8&$& O     O@OO&@@#;>;>;-;39q3-,<<<3<3<Orrrrr",
"rrrw#&#1o&  O*%@#O@O-;;;>->&>;,,-,<,4,2,<2@rrrrr",
"rrre&%.1O% -&-&@O#-----;;>;>&,;<,*,<,<<<2<Orrrrr",
"rrrw%&X3o@X@#&%#-*---*--;-;>-,,><&,,<,<,<2@rrrrr",
"rrrw&$.3.$X:O$&------;-;;;;,&%,<,*,<,<,<<<Orrrrr",
"rrrw#&X3o=X:@@$*-*-*>*-;>;>,>#,,,*,,,<,,,,+rrrrr",
"rrre&%.1O$.<@%&----%*;--;>;>>,&%**,<,<,42<Orrrrr",
"rrrw<&X3@&X<#&%##*--%-->>;>;>;>,,,,<,,<,<<@rrrrr",
"rrrw:$.3=$.<&$&-&----;-;--;;;>;,,,,,,<,<,<Orrrrr",
"rrrw5&X:=&o3@#%#-*-*------;*>,,;,<,,,,<,<2@ rrrr",
"rrrr6%X:;%O5&$&-%----;-;-;;>;>>,,,,<<<,<4<O   rr",
"rrrr8&o;;&o4#&%*-*-%*---;*>,>,,,,,,,,,<<<;     r",
"rrrrw$O-:$O5&%&=#*----->-;;>;,>,,,,<2<<;       r",
"rrrre&O=<&O6#*-*-*-*-*-->,>,>,,,,,,,,-        rr",
"rrrrw<O=3%O8@-&-&-@----;;>*>;>>,,<,%          rr",
"rrrre3O&5&o6@&%*%&-*-->*>;>,>,,,,#           rrr",
"rrrrw6@$5$O8@@@-**->-;;;;-;,,>,#           rrrrr",
"rrrrr8@O5&o8#&#&-*-*>--;>*>;>O           rrrrrrr",
"rrrrreOO6#.9--*----**;-;,*;O           rrrrrrrrr",
"rrrrrw#O8&X9%#-#-**-%*-*>O           rrrrrrrrrrr",
"rrrrre&o8$.q*-*--------O           rrrrrrrrrrrrr",
"rrrrrw# 0@Xw=**#-*-**O           rrrrrrrrrrrrrrr",
"rrrrre&.w%.e--&--%-O           rrrrrrrrrrrrrrrrr",
"rrrrrw# e& w=*-#-O           rrrrrrrrrrrrrrrrrrr",
"rrrrre&Xw$ w---O           rrrrrrrrrrrrrrrrrrrrr",
"rrrrrw  e  w-O           rrrrrrrrrrrrrrrrrrrrrrr",
"rrrrrrrr #@            rrrrrrrrrrrrrrrrrrrrrrrrr",
"rrrrrrrrr            rrrrrrrrrrrrrrrrrrrrrrrrrrr",
"rrrrrrrrrrr        rrrrrrrrrrrrrrrrrrrrrrrrrrrrr"
};
