/* XPM */
static char *magick[] = {
/* columns rows colors chars-per-pixel */
"48 48 33 1",
"  c Gray0",
". c #231615",
"X c #2e2425",
"o c #303041",
"O c #30413d",
"+ c #482929",
"@ c #613030",
"# c #503041",
"$ c #613041",
"% c #504130",
"& c #614630",
"* c #49464c",
"= c #694943",
"- c #706148",
"; c #606268",
": c #6e6e86",
"> c #865150",
", c #8d6750",
"< c #976e63",
"1 c #86718e",
"2 c #9f855a",
"3 c #9b8569",
"4 c #908b94",
"5 c #a39c95",
"6 c #b6aa96",
"7 c #b6b2b0",
"8 c #becfae",
"9 c #cfbe9e",
"0 c #d3bdb6",
"q c #dad5bc",
"w c #ded5d1",
"e c #ede5ed",
"r c None",
/* pixels */
"rrrrrrrrrrrrrrrrrrrrrrrrrrr9<qq665rrrrrrrrrrrrrr",
"rrrrrrrrrrrrrrrrrrrrrrrr6q6w6566333rrrrrrrrrrrrr",
"rrrrrrrrrrrrrrrrrrrr0699q66653<,#%33rrrrrrrrrrrr",
"rrrrrrrrrreeeeeeeeeeeeeeeeeeeeeeeeq8r#rrrrrrrrrr",
"rrrrrrrrrrreeeeeeeeeewewwwwwwwwqwww80%@ rrrrrrrr",
"rrrrrrrrrrreeeeeeewwwwwwwwwwq07777574$     3rrrr",
"rrrrrrrrq643eewwwqqqww0wq70776554414*   +26Xrrrr",
"rrrrrq653665qwqqqqqqq08777775441;:*XX X<353Xrrrr",
"rrrq56665332=qwqq7w77777554::;;;*XX X23332<Xrrrr",
"rwqw8633<32>*w777777775444:;;*OoO X33333333Xrrrr",
"q3@@wqr3>-$%#777757544::;;*OXXX +23<<3<3332Xrrrr",
"3   %w-X%@XX.*744441::;;**oOX X32<323<33332Xrrrr",
"<  . q- ...  *444::;;**OXXo X33,<,<,<2<2<2<+rrrr",
"3....w*....   :4;;***oXoo X<5<,<<<<<<<2<3<<+rrrr",
"<++X+q%   +X@%***OoXXX  X33,,-,,,,<,<,<,<2<+rrrr",
"q#%+%w  XX@@  **oooO  X33=-,-,,>,,,<<<2<2<2Xrrrr",
"w=@%$q %@%  X%oXXX  +<3=>->>,,>,,,,,,,<<<2<+rrrr",
"q=%#3w%    #% Xo  X33-=--,-,,--,,,,<<<<<222+rrrr",
"<<<r4q@@ %@     X<3=====>->,,>,>,,,,<,<2<2<+rrrr",
"rrrrq#%$ X    X33====-=-->-,-,,,,<,<,<2<2<2Xrrrr",
"rrrrq%@%<X@  33%$&#&====>->->,>,,,<,2,2,<2<Xrrrr",
"rrrrq$%.3X+.3#%=*======-=-->;,-,,<,<<<,<<<2Xrrrr",
"rrrrw%@.4.@ 3@@&=%=@=====&>=>,,>,,<,<,<,,2<Xrrrr",
"rrrrq+@.3X%.3+%=@====&=----,--,,,>,<,<,<,<,Xrrrr",
"rrrrq%@.<X@ 3@+%$&=@====>=>->>,,>,,,,,,2,,,Xrrrr",
"rrrrq$%.3+%X3+%=*@======->->-,->,,,<,,,<,<<Xrrrr",
"rrrrw-@.<X@.5@@%$&=====--=>->->,,>,,,,,,<<<Xrrrr",
"rrrrq<@.3*@.3#%=@==$=-===>---=-,,,,,<<<2,<2Xrrrr",
"rrrrq3@.<*@.5+@%$&$&&-====-&>->,,,,,,,<,<<<+ rrr",
"rrrrr6%.-*%X6#%$*&=====---=--,,>,,,,<<,<2<2+  rr",
"rrrrr6@.--@X5@#&=%=@=&====>&>->,,,,,22<<<<&    r",
"rrrrrw%X=-%X5@@=%=&*===&=>&,-,>,,,,,2,2<&      r",
"rrrrrq@X=<@X6@@&*&=&&@===&>,>,,,,,,,,,=        r",
"rrrrrw;+*<%X6+%=&=@*===-->->,>>,,,,,=          r",
"rrrrrq<+*3@X6+@%=%=&==&=>&>,>->,,,@           rr",
"rrrrrw5+%4%X6@%%@=&===-=->->-,>,%           rrrr",
"rrrrrr6++4@.6%@%@&=&>&=->&>,>,+           rrrrrr",
"rrrrrrq+X5%.7=@=====&-=&>>=>X           rrrrrrrr",
"rrrrrrq@X6@.0&=%&&===&=>&&+           rrrrrrrrrr",
"rrrrrrq$.6%.8=+=&=====&=+           rrrrrrrrrrrr",
"rrrrrrq%.6@ q&$&=&$&==+           rrrrrrrrrrrrrr",
"rrrrrrq#.q%.q=@===%=X           rrrrrrrrrrrrrrrr",
"rrrrrrq@ q@ q@=%@&+           rrrrrrrrrrrrrrrrrr",
"rrrrrrq$ w%.q===X           rrrrrrrrrrrrrrrrrrrr",
"rrrrrrq  q  q&+           rrrrrrrrrrrrrrrrrrrrrr",
"rrrrrrrrr X@            rrrrrrrrrrrrrrrrrrrrrrrr",
"rrrrrrrrrr            rrrrrrrrrrrrrrrrrrrrrrrrrr",
"rrrrrrrrrrrr        rrrrrrrrrrrrrrrrrrrrrrrrrrrr"
};
