/* XPM */
static char *magick[] = {
/* columns rows colors chars-per-pixel */
"40 47 28 1",
"  c Gray0",
". c #101020",
"X c #211010",
"o c #302310",
"O c #2c2222",
"+ c #4b2c2a",
"@ c #4f4530",
"# c #614530",
"$ c #4c4941",
"% c #714541",
"& c #716551",
"* c #626562",
"= c #8e4541",
"- c #976c51",
"; c #8f6562",
": c #ae8a66",
"> c #908a8e",
", c #bd9a8f",
"< c #bdaa8f",
"1 c #bdafae",
"2 c #d0baaf",
"3 c #cfcfbe",
"4 c #efdf9e",
"5 c #ffcfae",
"6 c #dfdfcf",
"7 c #efdfdf",
"8 c #efefcf",
"9 c None",
/* pixels */
"9999999999999999999999999999999145,19999",
"999999999999999999999999999991641<:&,999",
"999999999999999999999999999145<,::,;%999",
"99999999999999999999999991541<::::<:+999",
"99999999999999999999999245<1::::::<<O999",
"9999999999999999999992641<::;:::,<2<O999",
"999999999999999986<&@;<,::-;:,:,,,<<O999",
"9999999999999998;>581O$:;&;:,:,<,<,,O999",
"999999999999999345,18-#--:::,:,,,::,O999",
"99999999999991641<::;<o&--::,::::::<O999",
"99999999999145<,::---1+-::::::::::::+*99",
"9999999991541<::;&;--2o:::::::::::::$*99",
"9999999145<1::--;--;:2o:-:-:-::::::,-$99",
"999991642<::;&;&-&-;-3o----:-:::::<<,O>9",
"9991452,::--%%%-=;-;-3o----:-:::::,,<%&9",
"91542<::;&&$&$-&-&---3o--:--:::::,<<<:$;",
"1686<::-&%%%%-&-&&---5O---::-::::<<<<:-$",
"7< O7;&$&$&$&&&&&&-&-6O-;-:::::::<<,-%$$",
"6$  @3$%$%&%%&%%%-&--6O----:::::::-@+**9",
"8@  o8$$&$%$%$&%&&&&-8O:---:::::-$OO*999",
"8# $O6#$#%#%$%%%%-&-+6 6-:-:::-#++#O9999",
"7@X&.8$@@$$$%$&%&&--O -4--::-=+O+&-.9999",
"8@X-X6#$#$#%$%%-&;--@6O;-:-%O+##--:+9999",
"8@X&X8$@$#$$%$&&=&---6O--@+O@$--:::O9999",
"8#X;X6++###$#%%;&;---5O$oO#%&=-::::o9999",
"7@.;X8+@+@$@$$%%=&-&&3OO+@#&--:-:-:o9999",
"8$O;X6+++$@##$#%%%%$O2O#%%----:--::+9999",
"8@.>X2%@+@+#$#$$&OOOO3O$--;::---:::O9999",
"8#o>O,-+$++#@#@+oo+##2O=-------:::#O$*99",
"7#O>O::@+@+$+OOOO@$#-2O-------::-$ O$**9",
"8$O,O;:+++O+o.+++$&--1+------:-#  .$$*>>",
"8#O1+O,$+OOO+@$$-&-&-,O------@  .$$$**>9",
"8#+,o+-$XO++@#%=#=%;-,O---%$  O$$$***>>9",
"7@O1+O..+O+#%%%%&&-&-<O--O  .$$$***>>999",
"8$o1++++++#%%%%%%;&--:O#  O$$$***>>99999",
"8@O3$@++$$$$%$%%&&-&&:  O$$$***>>9999999",
"8#O2#$#$#%#%#%%%%%#+o= $$$***>>999999999",
"7@.3$@$#$$$$%%%$$O  O O$***>>99999999999",
"8$X3##@$#%#%%%#+  .$$$***>>9999999999999",
"8@X6+@$#$$%#$O  .$$$***>>999999999999999",
"8#X6@##%#$#O  O$$$***>>99999999999999999",
"7@ 8$$$@%O  O$$$***>>9999999999999999999",
",$ 6#%@O  O$$$***>>999999999999999999999",
"+O <+O  O$$$***>>99999999999999999999999",
"9++   O$$$***>>9999999999999999999999999",
"9*$$$*$****>>999999999999999999999999999",
"999***>*>>>99999999999999999999999999999"
};
