/* XPM */
static char *magick[] = {
/* columns rows colors chars-per-pixel */
"48 48 31 1",
"  c Gray0",
". c #312321",
"X c #482c2a",
"o c #613030",
"O c #513041",
"+ c #4f4430",
"@ c #614930",
"# c #515050",
"$ c #6a4c43",
"% c #716144",
"& c #797979",
"* c #798279",
"= c #8e514d",
"- c #95674f",
"; c #9b6e63",
": c #ae6551",
"> c #b07161",
", c #9e8a51",
"< c #9c8964",
"1 c #ae8a51",
"2 c #b78a65",
"3 c #df9a71",
"4 c #d2aa71",
"5 c #afaaae",
"6 c #df9a8e",
"7 c #dfb2a6",
"8 c #f0b295",
"9 c #dddcd1",
"0 c #e7cfd7",
"q c #fffbff",
"w c None",
/* pixels */
"wwwwwwwwwwwwwwwwwwwwwwwwwwwwwww5 wwwwwwwwwwwwwww",
"wwwwwwwwwwwwwwwwwwwwwwwwwww55222 wwwwwwwwwwwwwww",
"wwwwwwwwwwwww wwwwwwwww552222223 wwwwwwwwwwwwwww",
"wwwwwwwww5522 wwwww553<222<3228qq><#ww wwwwwwwww",
"wwwwww2322233 55232222222228qqq46wwww5 wwwwwwwww",
"wwwwww<22212<2<3<2<32326qqqq4qqqq55222 wwwwwwwww",
"wwwww5>222>222>qqqq qqqq6qqqq552222322 wwwwwwwww",
"ww5>2>222>2wwww552< 4qqqq55223<222<28qq>,#ww www",
"w->->->->->w2422223 55222222322228qqq36wwww5 www",
"w;:;;;-;>8ww221222122222<32217qqqq4qqqq55223 www",
"w-----:wwww5>2>222>22qqqq qqqq6qqqq552222222 www",
"w-----ww5>2>222>2wwww5521 4qqqq553<212<3<38qq><#",
"w-=%=-w->->->->->w2222232 552>2222222228qqq463=#",
"w#%$%$w;;;-;->;8ww132222222213222228qqqq462-%-%w",
"w$$@$#w-----:wwww5><21>122>222>8qqqq61>>-====%#w",
"w#$$+3w-----ww5>2><32>2>2>27qqqq462;---=--%-%$ww",
"w$$@$2w%=-=%w:>->->->->-8qqq63>--------====%=$ww",
"w#+O+6w#%$%%w;-;-;-;-8qqq64>->-;;;-;;---%-%$%%ww",
"w+Xo$ww%$$$$w-----:qqq63>->>>-:-------===%=$$+ww",
"wX+.Xww#$$+2w-----q6-;-;<><>-;,:-----=%-%%%$$oww",
"w.XXXww$Oo$2w-=%=-q->2>1>>2-:-:----==-=%=@$$$.ww",
"w...Xww#+#o6w#%$%$q;2>2>,>-;>;----=-%=%%%%$$$ ww",
"w+X..wwoX+$ww$$$$$q<>1>->-:-----=-=-=%=@$%@$@ ww",
"wO..$wwX+X.ww#$$o2q><><>-<;-------%-%$%$$$$$+ ww",
"w+..$ww.oXXww$$@@2q1>>>>:>------=-=%=$$%$$$@X ww",
"w# .2ww...Xww#+O@6q>,>-;-;------%=%$%$$@$$@$. ww",
"w# .2ww+..Xww+oX$w6->-:-:----====%=@$@=$$@$o #ww",
"w$ .2wwo..@wwX+..w42-;;-------%-%%%%$%$$$$@$ #ww",
"wo  6ww+X.@ww.oXow6;:---=--=%==%=@%$@$$@Oo@+ &ww",
"w$  q2wO .2ww....w2;-;------%=%$%$$$$$$$$$+. *ww",
"w@ #q2w# .2ww+X..w:;-----==-=%=$$$$$$@$o$+o. &ww",
"w> #q>w$ .<ww#..@w-----=%-%-%%%$@$$$@$@$X#XX &ww",
"w1 #q-w@  6wwX..$w-----==-=%=@%$@@$@$@OXo+o  &ww",
"w> 5q-9o  q>w# .2w------%=%$%$$$$$$$+$+#++. ##ww",
"w; 5q%0@ #q2w# .2w--=====%=$$$@$$@$oo+o+X  ##*ww",
"w; 5q%9> #q2w$ .2w--%-%-%%%@$$$$@$+$+#.  ####&ww",
"w< q$$71 #q%wo  6w-==-=%=$%@$@$@@@$XX  ####&&&ww",
"w< q$%5> 5q=9$  q2--%=%%%$$$$$$$+O+  ####&&&wwww",
"ww q%  ; 5q$0@ #q2=-=%=@%$$$$@$@$  ####&&&wwwwww",
"ww   ##; 5q$9> #q>%=%$%$$@$$@$+  ####&&&&wwwwwww",
"ww&&#&&< q$%71 #q-=%=@@%$@$@$  ####&&&&wwwwwwwww",
"www5555; q$$7> 5q-%$%%$$$$$  ####&&&&wwwwwwwwwww",
"wwwwwww5 q$  ; 5q%=$@$$$$  ##&&&&&&wwwwwwwwwwwww",
"wwwwwwww   ##; 5q=%$$$$  ###&&&&&wwwwwwwwwwwwwww",
"wwwwwwww&&&&*< q%@%$$  ####&&&&wwwwwwwwwwwwwwwww",
"wwwwwwwww5555< q$$$  ####&&&&wwwwwwwwwwwwwwwwwww",
"wwwwwwwwwwwww5 q$  ##&&&&&wwwwwwwwwwwwwwwwwwwwww",
"wwwwwwwwwwwwww   #&wwwwwwwwwwwwwwwwwwwwwwwwwwwww"
};
