/* XPM */
static char *magick[] = {
/* columns rows colors chars-per-pixel */
"48 48 33 1",
"  c #010102",
". c #1d231e",
"X c #15222f",
"o c #221d2e",
"O c #1f284e",
"+ c #272d57",
"@ c #333c50",
"# c #2f402f",
"$ c #5c1c15",
"% c #60060a",
"& c #40402f",
"* c #4c494a",
"= c #674a4e",
"- c #63525f",
"; c #6a6f67",
": c #48498f",
"> c #6b7285",
", c #708770",
"< c #827770",
"1 c #867780",
"2 c #808770",
"3 c #898f82",
"4 c #9ea693",
"5 c #a39288",
"6 c #aab0a6",
"7 c #d0b4a5",
"8 c #c6bdc5",
"9 c #dbc8b0",
"0 c #dad0d7",
"q c #efd4dc",
"w c #efdeec",
"e c #f7f3f5",
"r c None",
/* pixels */
"rrrrrrrrrrrrrrrrrrrrrrrrrrrrrrrrrrrrrrrrrrrrrrrr",
"rrrrrrrrrrrrrrrrrrrrrrrrrrrrrrrrrrrrrrrrrrrrrrrr",
"rrrrrrrrrrrrrrrrrrrrrrrrrrrrrrrrrrrrrrrrrrrrrrrr",
"rrrrrrrrrrrrrrrrrrrrrrrrrrrrrrrrrrrrrrrrrrrrrrrr",
"rrrrrrrrrrrrrrrrrrrrrrrrrrrrrrrrrrrrrrrrrrrrrrrr",
"rrr3*rrrrrrrrrrrrrrrrrrrrrrrrrrrrrrrrrrrrr*;rrrr",
"rrr2&*-rrrrrrrrrrrrrrrrrrrrrrrrrrrrrrrr,==&;rrrr",
"rrr2*2;;;2rrrrrrrrrrrrrrrrrrrrrrrrr>;;;3603;rrrr",
"rrr2=2444244,2331;;;3rrrrrr;,;33333468eeee3;rrrr",
"rrr;=44799qqeeeee0632;rrr-;360weeeeeeeeeee3*>3rr",
"rr3;=34799qeewweeee773;;*;50eweeeeeeeeeeee1**;rr",
">*3;=22590qqeweeeee973;*#27qweeeeeeeeee86e3<*=-*",
":+9;*32,227eeeeweee0722&.;6qeeeeeeee06,40e2;**oO",
":+0--3477452222346w973<*o;7we88333,468qeew2<*-XO",
":+w;=2,,09qeeeew4,3e432&#;e63,4eeeeeeee44e3;**XO",
":+0;=342;24qweeeeeee23<*.<weeeeeeeee0322ee3<** O",
":+0;-2247444625840%e73<&#;e;000017546wew0e>;*-XO",
":@0;=53<46qq5%5q7=%e232*#<w-=080=<wewq846e3,**XO",
":+q;-2442591%%29$%%e232@*1w;==70==<q8467ee3;*-XO",
":+q;;2227q<%%<5$%%$eq09460e7667w7<=<0ew86w5;** O",
":@w;=242q-%%=5$%%%%=-=*---=-=-=-57==3e43qw3<*=XO",
":+0;=44q-%%=7=%%%%%$%%$%%%%%%%%%<5=<-;0wee3;** O",
":+0;=2q-%%=q%%%%%%%%%%%%%%%%%%%%<7====<e4w3;*=XO",
":+0;=24e$%%=9%%%$%%%$%%%$%%$%%%$<5<===e3ew1;*-XO",
":+0;-247e$%%;5%%%%%==$=$$==$$=$=<6==<wweww3<*=XO",
":+0-*5<<6q=%%<2=%%%eqeq00qeqwwqeq5=-qw036e1;**XO",
":@0;=442330=%%55$$%e252*&2e===5q==;08456ew1<*=XO",
":+w;-555767q-%5e5$%e452&&<e;=4q0=;w00we00w1<** O",
":+0;-53;267eq-3ee6%e232*&;w;7e80<0eew8630w2;**oO",
":+0;-544435645q0607e432*&,e0e9qe6446667qee2<*=XO",
":+0;=567q9000we0334e452*&2w8536ee0weeeeeew3;**.O",
":@0;-579q0qwweeweww3222*&;33wqeweeeeeeeeww3<**XO",
":+w;-367q0qeewewwww0722*&36wweweeeeeeeeeew2,**.O",
":+0;;577qqqweeeewqe9732*&27eeeeeeeeeeew63;*2-=XO",
":+046;13277666600008732&#<6wq008068633,;*;46** O",
":+w4ew63;=*#....&*-<232*#<26<;*&#...#*>46777**XO",
":+06e064>-*##.....o.#*;&#;*#.......o#*-;2247*-XO",
":+0;<**o..............*&.&......#..o....#&*=#*XO",
":O;oo....oX.#X....##.ooo .o#.o.oX.#oo.o.o....o O",
":OXXooXXXXXXXX..X X..oXoo.#.o. XX.XXXXXXXoXXoXXO",
":OoXXXXoXoXoXXXXXXoXoXoXXoXoXoXXXoXXoXoXoXXXXoOO",
"XXXoXXoXOO+@@rrrrrr-+OOOOoOrrrrrr:@@@+OoXXXXXXXO",
"rrrrrrrrrrrrrrrrrrrrrrrrrrrrrrrrrrrrrrrrrrrrrrrr",
"rrrrrrrrrrrrrrrrrrrrrrrrrrrrrrrrrrrrrrrrrrrrrrrr",
"rrrrrrrrrrrrrrrrrrrrrrrrrrrrrrrrrrrrrrrrrrrrrrrr",
"rrrrrrrrrrrrrrrrrrrrrrrrrrrrrrrrrrrrrrrrrrrrrrrr",
"rrrrrrrrrrrrrrrrrrrrrrrrrrrrrrrrrrrrrrrrrrrrrrrr",
"rrrrrrrrrrrrrrrrrrrrrrrrrrrrrrrrrrrrrrrrrrrrrrrr"
};
