/* XPM */
static char *magick[] = {
/* columns rows colors chars-per-pixel */
"45 45 12 1",
"  c #010000",
". c #382430",
"X c #491828",
"o c #422530",
"O c #682328",
"+ c #796979",
"@ c #8e2418",
"# c #a61410",
"$ c #a62420",
"% c #b6b2b6",
"& c #dfe7ef",
"* c None",
/* pixels */
"*********************************************",
"*********************************************",
"*******************O$************************",
"*****************@.************O*************",
"****************O.O************O@************",
"***************$O.$*$OOO********@O***********",
"**************O$OoOO@O@o..O*****O@o**********",
"**************@@OOO@@@O.o.oo***$O@o**********",
"**************#O$&&$@O$OOOOO.$O$@.O.*********",
"**************@@$&$$&&@@O@OOO$$@OOO**********",
"**************O&&&@&&&&@@OOOOO@.XO***********",
"**************O&&@$&&&&@@@@O.OoOXX***********",
"*************OO.OO$$&&&@@@O.OXX.O************",
"*************OOOoO$.&&&$@OO.OXO.*************",
"************O@@.OO..&&$$@@O.OOo**************",
"*******$$***##O#@O.O&&$$@OO.O.o**************",
"********o$**#@@#@OO$$.@@OOX.OO.**************",
"******$**$.*@@OOOXO#####@OOOX.***************",
"******@.**.*O@O@@@@##$#@OO.OOO***************",
"***O$***..o****OX@@@OOOOOoOOO****************",
"****.@***.o*$O@*OOOOOOOO.OO$*****************",
"*****ooO..oo##@**OO@O...OoO******************",
"***********OOO.**$O@@@@@O..******************",
"***********O@OO.OX@$#@@#@.O******************",
"***********OO.OOo@##@OOOO..******************",
"************OOO.o@##@@o.OOO******************",
"************@Oo..@##$@O.OOX$*****************",
"***************OO@@OOOOX..O@*****************",
"***************$.OXOOoOXOOO******************",
"***************@#O.OXoO...O******************",
"***************O#@O.OoooooO******************",
"***************$@##OOOOOooo$*****************",
"****************O@@@OOOXOooX*****************",
"*****************OOO.OooooOoO****************",
"*****************@@oOOO.O...O.***************",
"*************** OO%&+ .Oo.. O..**************",
"***+%&&&&&%++O.OO %O .OO++ **OOOOOo$*********",
"***&+&&&&%% &&&...%.. OO.o.*****...o..$******",
"***O+&&&%o&&&&&%%+OOOOO.....*********$OOO.***",
"*****. ...&+o+%++o.o.....+++************$@O**",
"**********%&%%%++.+.+++++.+ *************@Oo*",
"****************.  . ***************@@*****O.",
"*********************************@@$@@@O..   ",
"************************************@O . .. *",
"************************************@********"
};
