/* XPM */
static char *magick[] = {
/* columns rows colors chars-per-pixel */
"48 48 25 1",
"  c #010101",
". c #3c3b24",
"X c #413f26",
"o c #4f4e2c",
"O c #615f25",
"+ c #757226",
"@ c #827e24",
"# c #918d25",
"$ c #a29e2e",
"% c #b0aa27",
"& c #999150",
"* c #a69f50",
"= c #b5af50",
"- c #c0b824",
"; c #c2bc50",
": c #d5cf2f",
"> c #d2cc50",
", c #e3db56",
"< c #ede756",
"1 c #f0ea68",
"2 c #fcf68d",
"3 c #fffcb0",
"4 c #ffffd0",
"5 c #ffffee",
"6 c None",
/* pixels */
"666666666666666666666666666666666666666666666666",
"666666666666666666666666666666666666666666666666",
"666666666666666666666666666666666666666666666666",
"666666666666666666666666666666666666666666666666",
"66666666666666666666         6666666666666666666",
"66666666666666666  .,11111,1,   6666666666666666",
"666666666666666  111<<<<<<,,,,,>  66666666666666",
"6666666666666  1<<<<<<<<,<,,,,,,>>  666666666666",
"666666666666 ,1<<<1<<<<1<<<,,,>,>,>; 66666666666",
"66666666666 <<<<1121111,,,<,,,,,,>>;= 6666666666",
"6666666666 1<11223332111<,,,,,>>>>>>>= 666666666",
"666666666 ,<<1244433221,<,,,,>,,,>>>>>; 66666666",
"666666666 11134555432211<,,,,,,>>>>>>>; 66666666",
"66666666 <11245555oo:11,<,,,..,>>>>>>>;= 6666666",
"6666666 ,<<145555oo.O:1,,,,O..O>>>>>;;;== 666666",
"6666666 <<134555*ooX.#,<,,#....#>>>>>>;;= 666666",
"666666 1<<134555=oX..#,,>,#....+>>>>>;;;== 66666",
"666666 <<1234443*o.. #,,,>#.. .@>>>>>;;;;; 66666",
"666666 1<1233343&. . #,,,,#. . +>>>>>;;;== 66666",
"666666 <<1223322$.   @,,,>#..  +>;>>;;;;== 66666",
"66666 1<<<112221,+ .+>,,,,>+  +>>>>>>>;==== 6666",
"66666 <<<111111,1,OO,,,>>,>,oo>>>>;;;;;;=== 6666",
"66666 <<<<111<<<,,,,>>,>>>>>>>>>>>>;>;;==== 6666",
"66666 <<<<1<<<,<,,,>,>,,>,>>>>>>>;>>;;;;=== 6666",
"66666 1<<,<<,<,,,,,,,>>>>>>>>>>>>>;>;;;==== 6666",
"66666 ,<<<,,,,#:,,>,,,,>>>>,>>>>>;@%;;;==*= 6666",
"66666 ,,<,<,,,.-:,>>>>>,>>>>>>>>>>.%;;=;=== 6666",
"66666 ,,,,,,,,.-,,,,>>>>>>>>>>;>;;.$====*== 6666",
"666666 <,,,,,,o#>>>>>>>>>>>>;>;>>$.%====== 66666",
"666666 ,,,:,,,%.#,>,>>>>>>>>>>;;% $=;===== 66666",
"666666 >,,,,>>, O#>>>>>>>>>;>>;%@.;;====== 66666",
"666666 ;>>>>,>,- O->>>>>>;>>;;%+ %;=====** 66666",
"6666666 >>>>>>>>#Xo>>>>>>>;>>;o.o=====*=* 666666",
"6666666 ;>>>>>>>>%..%>;>>;;;>X.+========= 666666",
"66666666 >>>>>>>>>%+ .oooOo  @$%====*=*= 6666666",
"666666666 >>>>>>>>>>#+ .. .@+;========= 66666666",
"666666666 =>>>>>>>>;>;>;;=;;;========*= 66666666",
"6666666666 ==;;;;>;;;;;;;==;;=====*=== 666666666",
"66666666666 *=;;>;;;;;=;=;=======*=== 6666666666",
"666666666666 &=====;===============* 66666666666",
"6666666666666  *=============*====  666666666666",
"666666666666666  *======*==*===*  66666666666666",
"66666666666666666   *========   6666666666666666",
"66666666666666666666         6666666666666666666",
"666666666666666666666666666666666666666666666666",
"666666666666666666666666666666666666666666666666",
"666666666666666666666666666666666666666666666666",
"666666666666666666666666666666666666666666666666"
};
