/* XPM */
static char *magick[] = {
/* columns rows colors chars-per-pixel */
"50 58 32 1",
"  c #2e2d36",
". c #1a1b24",
"X c #3e3e55",
"o c #343448",
"O c #514639",
"+ c #654e37",
"@ c #4e4b55",
"# c #59566e",
"$ c #51516d",
"% c #66594a",
"& c #625f65",
"* c #73675a",
"= c #67647d",
"- c #7b7367",
"; c #76728a",
": c #847b73",
"> c #83715e",
", c #807a8c",
"< c #938576",
"1 c #938f89",
"2 c #a89c8f",
"3 c #b0a69d",
"4 c #b2ada4",
"5 c #bbb7b2",
"6 c #8584a5",
"7 c #c5bbac",
"8 c #cbc4ba",
"9 c #dfd8cc",
"0 c #d8d5d0",
"q c #d1ccc3",
"w c #e1e0de",
"e c #eaeaea",
/* pixels */
"eeeeeeeeeeeeew9eeeeeeeeeeeewweeeeeee9eeeeee0eeeeee",
"eeq8qqq875858788qq8q8q8qqq77q8qq990090q854444458ee",
"08@oo  @$####$@X@X@@X@XX@$@$@XXXo      @#=;==;;$8e",
"eqoX&##=========;#=====#======&##&##%##======;6#*e",
"e0o&%@OOOO@XOOO@ OOOO@@O@O@O@OOOOOO@OO@@@@O@@O=#*w",
"e9X&-0wq08qq09ww00w00q0q343000q0000we090989008=#*w",
"eqo=-eeeeeeeweeeeeeeeeee<$*0eeeeweeeeeeeeeeew8=#*w",
"eqX#:wweeeeeeweq14eeeeee<X*2eeeeew0eeeeeeeeee8#$*w",
"e4==-eeeeeeeeew: %9ee0ee1@&4eeeee8*8eeeeewwee7=#*w",
"w3#@-eeeeeeeeee4XX2eeeew4-%8ewee4@o<eeeeeeeweq=$*w",
"e3X$<eeeeewweeee<#=weee9w1@0ewe4$X#Oqeeeeeeew8#@*w",
"e4o@-eee0eeeeeee0-%381===,;:19e4#%O;weeeeeeee8$X*w",
"e4o$:eeewweeeeeee0&@@====;###;792O-weeeeeeeee0X$-9",
"e3@@<eeeeweeeeweew*#$@%@%*-*@#X>q5eeeeeeeeeee0@$-w",
"e3$@;eeeeeeeeeeee<$@%O@-14311<O ,0eeeeweeeewe0#@-w",
"e4@@-eeeeeq0eeee8@#+@4eeeeeeew4#=<eweeeeweeeww;#*w",
"e3X#:eeeew-X-3qe1X;O9eeeeeeeeee<;@qw7q740eeeee&#*w",
"e3X@<eeee0X oX-q%X#1eeeq7eee0ee8=$24X$X=0eeeew=#*9",
"e3X$<eeeee2%%=*2@$%qeww1-0eeeeee*;-2@$o;1eeeew&#*w",
"e4X@<weweee51:%2o@&0eee2&2eeeee0-=%02%@O1eeee0;#*w",
"e4X$<eeeeeeeewwq &-eeee4$1eeeeee;#*80ew00eeeew&#-e",
"e3X@<eeeeeeeeee9X@:eeee4;<25eeew;#%qeeeee0eee9#$*w",
"e4@$1eeeeeeeeee9##-eeee4#*@*eee7=#%5eeeeeeeee9#=*e",
"w4X@<eeeeeeeeeee==+0wee2$%*@4ee1=%O$@:qeeeeee9&#*w",
"e4##:eeeeeeee97e3#@3eee<@*2&:e0=#O<=@$#5eeeee0&#*e",
"e4#@:eeee0eq2;@49#$*wew&*$@-:w1#*O97*@@-weeeeq==*w",
"e3$#:eewee0%X&-%w4$$2ewO*2OO5q#=@1ee93-&weeee0&=*w",
"e4##<weeee0-;O ;ee<X*80@*8q0q&=%&0eeeewqeeeeeq#=*w",
"e4#@:weeeee0-,qeee0@o<9@*0e0;#%@50weeeeeewewe0#=*w",
"e4#@-eeeeeee0eeeeww1 @5<%0e3o-O1%<weeeeeee0eeq=#*w",
"e3=$-eeeeeeeeeew3*90X@<6#00-X%18&@<eeeeeeeeweq&#>w",
"e3##-eeeeeeeee0-@>2e&X><*00@#%qe<X@5eeeeeeeee9&@*w",
"e4##-eeeweeee4@@- :e:X*--q8o#&ee0#O*weeeeeewe0#$*9",
"e3$@<eeeeweee2$> 1ew;@%1;84o;*0ee8%#eeeeeeewew@@>w",
"e4$#:eeeeeeee0: 1eew#X%:>71o*:eeee80eweeeeeww9@X-w",
"e4#@-eeeeeeeeew7wew9X  oX&#o-1eeeeeeeeweeeeee0@X*w",
"e4=#;eeeeeeeeeeeeeeq%OOoo$@$*2eeeeeweeeeeeeee9@@=w",
"e7=@-eeeeeeeeeeewee0X+%**<:-%4eeeeeeeeeeeeeeew$X-w",
"e7=#-eeeeeeeewwe0ee7  .. X##:eeeeeeew0eeeeeeewO@*0",
"e7=@<eeeeeeeeeeeeee7*%%%%@OX%qeeeeweeeeeeeeeee#$>w",
"eq;@:weeeeeeeeeeeee7X @**O+*%eeeeeeeeeeeeeeeew&#-w",
"eq=$:eweeeeeeeeeeee3%@ X  X#5eeeeeeeeeeeeeeeew@@*e",
"e0#@<eeeeeeeeeeeeeee2%*=:+@%*eeeeeeeeeeeeweeew$@-e",
"09@#:eeeeeeeeeeeeeeeew<=-:115eeeeeeeeeeeeeeeee@$*e",
"e0@#:eeeeeeeeeeeee0ewee:@1eeeeeeeeeeeweeeweee9@$*e",
"e0$#:w2222428eeeeeeeeee04342q724429e41732225ew##*w",
"e0$#:9$#=$&&*9eee99ewe0;@ .X<=o-oo<2 $1X@X O7e&#*w",
"eq$$:2@#@@@6=-4e<#@:0e2XX&=&*$o1   X @>$@OoX10=#&w",
"eq#$:w5X$+*,;6#*$o.$4e2o&>Xo@@ 2 o o @:$o*o#%q=#*w",
"eq#$:we@#*,;=;##;*X#*w8o :X.@&o2 $@#o@1X o$-@0&#*w",
"eq$#:e9##*>,:;$*;$o**w0&.. .@&o3.#%<o@:Xo;* 20##*w",
"e0$#>e9$@*-$*#@*;XX-1ee2%oX@&&#:X=*5X#:@#%$3ww&$*w",
"e0$#:ew2@@8*@:O@8*@ 3eee5-+OO-%O:O%92O 2+O0eew#@*w",
"eqX@:00722841423884300q9907447447449q478459qqq#$*0",
"e0XX@@@#$@#=&##==&$@@$@@@@#@@@@@@@@@@@%@$@@@@& $-0",
"e8X$$@$@$##&#&=##@$@XXX@oX$@@XXX@@X@@XX@XX@XXXX#-e",
"e9<O@O@OOOOOOOOOOOO@%+%%%%@%%%%@@O%O%@OO%%%@O@OO@0",
"eee85575555554545555555q5555555q55555555555585558e"
};
