/* XPM */
static char *magick[] = {
/* columns rows colors chars-per-pixel */
"48 60 32 1",
"  c #2e2f31",
". c #080708",
"X c #3f4041",
"o c #535149",
"O c #5e6a7a",
"+ c #61625f",
"@ c #716b5c",
"# c #7d7666",
"$ c #535d70",
"% c #5c7299",
"& c #6b798f",
"* c #6f85a4",
"= c #728297",
"- c #8e8977",
"; c #9f9781",
": c #8493ab",
"> c #91a2b8",
", c #adaeac",
"< c #afa58a",
"1 c #a1b4cb",
"2 c #b2c2d7",
"3 c #b2c8e4",
"4 c #c0b9a7",
"5 c #cfcbbd",
"6 c #c2cfdf",
"7 c #ccdbec",
"8 c #dee6ef",
"9 c #d5e7f9",
"0 c #e0d9c5",
"q c #ebf1f7",
"w c #fdfefc",
"e c #f1f7fc",
/* pixels */
"wwwwwwwwwwwwwwwwwwwwwwwwwwwwwwwwwwwwwwwwwwwwwwww",
"wwwwwwwwwwwwwwwwwwwwwwwwwwwwwwwwwwwwwwwwwwwwwwww",
"wwwwwwwwwwwwwwwwwwwwwwwwwwwwwwwwwwwwwwwwwwwqwwww",
"wwwwwwwwwwwwwwwwwwwwwwwwwwwwwwwwwwwwwwwwwww5wwww",
"wwwwwwwwwwwwwwwwwwwwwwwwwwwwwwwwwwwwwwwwww04wwww",
"wwwwwwwww8wwwwwwwwwwwwwwwwwwweeeeewwwwwwwq-,ewww",
"wwwwwwwwwq0wwwwwwwwweeeeeeeeeeqqqqeeewwww5-<qwww",
"wwwwwwwwwe00wwwwweeeeqqqqqqq889999qqewww5--,ewww",
"wwwwwwwwww050qeeqqqqqq9999999999998qeew0---,qwww",
"wwwwwwwwweq5447999999977799999988888885;--#,qwww",
"wwwwwwweeeq04<<2777666677999799777777,--###4qwww",
"wwwwwweeeeq84<;-13333677377366633332,---###2qeww",
"wwwwweeeeq995,<--;137666333333221,,;---##@-67qww",
"wwwwweeeqq9754<;-;-,,23333212111,-----##@@-,77qw",
"wwwweeqq89762,<<;----;,4,1,,;---#---####@#:>,7qw",
"wwweqq899737854<<;;,44,;-----######@@@@@#&*:17qw",
"wwweq897767ewww,;<qwwww8----###@@@@@@@@@#%*:17qw",
"wwe7366777ewwwww<wwwewww8---#@@@++ooo+@@O&*:17ew",
"we,@ooO160wwe,,wqwwwwwwww4--#@@+ooooo++$O&*:,8qw",
"w0#;;+ X-0ww-+.,wwww0-o0w5#-#@++oooo+@o$O&*>28ew",
"w=,wq;X X-ww...-wwww,e. w4##@@+ooXooo o$%=:>38ew",
"qo-q0-X X+4w, #<0wwqXo. e<##@+ooXoXoX o$&*:16qww",
"8X@,-oooo+-<<<<<;qww#..-5###@+oooooo  $O=:>27eww",
"8Xo@+Xoo+##-;;;;;;0ew5,5-##@@@o+ooo  o$%*>168eww",
"wo oooo@#-#---;;;-;--<;-##+o+oooooo  X$&:127qwww",
"w:Xoo+@#-;###---------###@Xoooooooo  oO&>268ewww",
"w7@o+@#--;@@@#-------####XX+oooooo  X$&:,37qeeww",
"we1=#--;,-++@@#-#######+ o@-ooooo   oO:1377qqeww",
"ww87>-;,;+oo++@@@@@#@oo  +-;ooooX   $=166678ewww",
"wwee85;-#@+++@@##@oo    +-,-ooo   XoO>66668qewww",
"wwweq86-o X   .....  o+@---ooo   oo$=166678ewwww",
"wwweqq87,-+ .....  oo@---#o      o$=>233788ewwww",
"wwwqq887761>=$XXXo+@#--@o     Xo$%*>112388qewwww",
"wwwq8777762,,:&@ooX         Xo+%&:>1113778qwwwww",
"wwwq77776621,>*&O$ooooXXXXoo$O=:>>11137778wwwwww",
"wwwe877763,1>>:==&OOO+$$$OO&=*:>>>1113778ewwwwww",
"wwwwq88763211>>:*&&&&&&&===*:::>>>123678ewwwwwww",
"wwwwwweq8763211>>::::::::::::>>11236789qewwwwwww",
"wwwwwwwweq876633221111111>>1112366778qqqewwwwwww",
"wwwwwwwwweq89976663333333223367798888qqqeewwwwww",
"wwwwwwweqq88q887666777766777788qqqqqqqqqeewwwwww",
"wwwwwweqqqqqqqqq889888898qqqqqqqqqqqqeeewwwwwwww",
"wwwwwweeeeeewwwwq6eeeeqqqeeeqqqqeeeewwwwwwwwwwww",
"wwwwwwwq3>>>28ww*%6weqqqqeeeqeeeewwwwwwwwwwwwwww",
"wwwwww2%*262%1ww**qwweeeewwwwwwwwwwwwwwwwwwwwwww",
"wwwww>%>wwww%3wwwwwwwwwwwwwwwwwwwwwwwwwwwwwwwwww",
"wwww2%*wwwww>8w612ww82>w8>1wq2>6ww612q1>8wwwwwww",
"wwww*%2wwwwwww2*%2w8>%:>>%%1::%%w2:%*::%*wwwwwww",
"www8%%qwwwwwwww>%6ww8%*qw>%>ww%%ww2%2ww:%6wwwwww",
"www6%%www2>>>>w>%www6%1ww>%qwq%:ww>%6ww>%6wwwwww",
"www6%%wwww1%>ww%*www>%6ww%%ww6%1ww:%www>%8wwwwww",
"wwwq%%8www>%6wq%>www>%qww%:ww1%6ww%%www%*wwwwwww",
"wwww1%*qww*%qw6%>www%%ww6%>ww>%6w8%>ww2%8wwwwwww",
"wwwww1%%>>%:ww6%*>8q%:ww2%2ww*%:>6%*61*6wwwwwwww",
"wwwwwwq666wwwww66wwq68ww86qwwq68w1%266wwwwwwwwww",
"wwwwwwwwwwwwwwwwwwwwwwwwwwwwwwwww>%8wwwwwwwwwwww",
"wwwwwwwwwwwwwwwwwwwwwwwwwwwwwwwwq*%8wwwwwwwwwwww",
"wwwwwwwwwwwwwwwwwwwwwwwwwwwwwwww>>>>8wwwwwwwwwww",
"wwwwwwwwwwwwwwwwwwwwwwwwwwwwwwwwwwwwwwwwwwwwwwww",
"wwwwwwwwwwwwwwwwwwwwwwwwwwwwwwwwwwwwwwwwwwwwwwww"
};
