/* XPM */
static char *magick[] = {
/* columns rows colors chars-per-pixel */
"48 48 20 1",
"  c #090808",
". c #201c18",
"X c #332d27",
"o c #443c35",
"O c #514740",
"+ c #65594f",
"@ c #726459",
"# c #796b60",
"$ c #85766a",
"% c #958579",
"& c #a39487",
"* c #b2a396",
"= c #bcb0a5",
"- c #d8b394",
"; c #c8b7a8",
": c #ddc0a7",
"> c #e3cab5",
", c #d5cdc6",
"< c #e8d7c7",
"1 c #eae7e4",
/* pixels */
"------------:-------------&--------::::>:;:>:::>",
"-----------------------*--------:-:-:-;>>>>>:-:-",
"---------------------------------->-::::>>>;----",
"------------------------&--&&---:::::::>>>:-----",
"---------------->---;1,&$--------:::::>>--------",
"------------:--::>:,,1,%O$-:----::::::::::---&-&",
"------------>:=*;:>>11,$OX%-::--:-::>:::------&-",
"----------::<1;%$=:,,,=$o.O-:::::::>:::----:----",
"--------:::-,1,&+$*=,,&$o X-::>::::>::----------",
";------::::;===#O+&*;&%#o X%->>:>::--->--------:",
"----::::::>;*&%+..O%$$#+. .%::::>::::------&----",
"--:-:>>>>>>;&#+X  o#OoX.  X%:::>-:::::---&------",
":-:::::>>>,:&+.   O&@X.   o->>::-------------:>-",
":-::-:::,1:*=%X  X&-=$+XXO*:>>>>::--&-------:>>>",
"--:-:::-11=#%==&%*-;-;-&%---::::---------:::>><>",
"-----::->=$OX&:>>>>:>11<;&%%%---------::>::>>>><",
"--:::::;*%+. +;>>,<11,1,=*&#+*-----:::::>>>><>>>",
"--::::>-%#o  O*;;111,,==**&+XX-----::>>>:>><><,<",
"::::::>:*#X  O*,<11>**%%%@#o .*-->>->>>>>><<<>><",
">>>:>::::*$++%;<1,,*&%&&&@XX .&:>>>>>::><<<<<<<<",
"::>:>:>1<;%*--,11,*&#&&%%%O  .*:>>:<<<<><<<<<>>>",
":>:>:;,1,%+#=;,11;&&&&&&%@X  o-:<>><><><<>>>>>>:",
":>::>;&&&#Xo&;,1;*&&%&%&#X  .$-<><<<<<><<>>><>>>",
">:>>>;%+o. .#;,,=&&$%%#+X   o*<<<<>><<<>><>>>>:>",
">>><>,;#X  .+*,==*%$$+X    X&>>><<>><><>::>:>::>",
">>,>>>>;&+.O%=,,**&%+X   .O&>><<<><<>>::>::>:>>:",
">>><<>>>>::;;==,=&&%O   +&;<><>:;;=;:>-:::::::::",
",>>>><>><><>:=;,=&%#X .+=><>,,111,*$$;:::::>:::>",
"><><<>><><><,====*%+X X*><><<11<>;*+o$::>::>::::",
">>>>>><><><>,=*==&%@. O;<<>===;=*-$O o->:>::::::",
"<>>>>>><><<,<=*==*%+X.O,<<-*$%*&%%+X X-:::>:::::",
">>>>>>>>>><,1;*==*%#O.o;-,>,*$**%$+. X-::>:::---",
":>:::>>>>:>>>:*&&&%$@OO$-:>>>*=,*%O  o->:::>::::",
"---:>:-:::>>>,&#%&&&%$#$&**;,11,&$X  $->::::::::",
"----:--;--:::>=%#%%%%%%%*::,111=*+  .&:::::::--:",
"-------;-:-::>:&$$&%%%&**==,,,=*$X  o-:::::-:::-",
"-------:-:;:::>*$+$%%%%%&%&*=*&&+.  $-:::::-:->-",
"-::---:::-:;-:::&++@$%&&*%&&%&&@X  o*-::>:-::--:",
"::>::::>::::::::;$OO+$%&&&&&&&#O   %-::-:::-:--:",
":::>>-:::::::::::*$oXO+##$#%%@X   +----:-:::::--",
"-::::>:>:>>:>>>:>-;$X.XXOOOOo.   o-::-:-:-::----",
"--:>>>::>>>:>>>>:::-&O.         X%-:::::---:----",
":::::>:>>>>>:>:::---;*%O.     .o%-:::::::-:-----",
"::::>:>>>::>>>::::>-::--*%@++@%-:>:::-:---------",
":::::>>:>>>>>:::--:::>::-:--;-::>:>:::---:------",
":::::;:>>:->::::::::>:>>->>:>:>>::::-:::--->----",
":::::>:>>-:>::-:;::::>>>:::::::>:--------:--:::-",
"::-;::>>::::>::-::>>>>:::::::---:---------------"
};
