/* XPM */
static char *magick[] = {
/* columns rows colors chars-per-pixel */
"48 60 20 1",
"  c #040406",
". c #373331",
"X c #7d746d",
"o c #a89c92",
"O c #beb7af",
"+ c #cac6c1",
"@ c #d7d3ce",
"# c #e2e0dd",
"$ c #47403c",
"% c #eae7e5",
"& c #22201e",
"* c #766b62",
"= c #8b7f75",
"- c #f1f0ec",
"; c #514b45",
": c #9a8e85",
"> c #191816",
", c #fefefb",
"< c #5b5753",
"1 c #aca7a3",
/* pixels */
",,,,,,,,,,,,,,,,,,,,,,,-@-,,,,,,,,,,,,,,,,,,,,,,",
",,,,,,,,,,,,,,,,,,,,,,,,@:O,,,,,,,,,,,,,,,,,,,,,",
",,,,,,,,,,,,,,,,,,,,,,,-O<$+,,,,,,,,,,,,,,,,,,,,",
",,,,,,,,,,,,,,,,,,,,-%--1*.;-,,,,,,,,,,,,,,,,,,,",
",,,,,,,,,,,,,,%+1#,,-@%#:<. 1,,,,,,,,,,,,,,,,,,,",
",,,,,,,,,,,,---1**#,###1:X. <-,,,,,,,,,,,,,,,,,,",
",,,,,,,,,,,,#+#O*$*1#+O::<& &#,,,,,,,,,,,,,,,,,,",
",,,,,,,,,,,,@Oo1<..*11:::*> >+,,,,,,,,,,,,,,,,,,",
",,,,,,,,,,,,Oo=*.  ;X***<.  >O,,,,,,,,,,,,,,,,,,",
",,,,,,,,,,,,#=<.   $X$..&   &+,,,,,,,,,,,,,,,,,,",
",,,,,,,,,,,,-o.    <oo$.    ;+,,,,,,,,,,,,,,,,,,",
",,,,,,,,,,--,-=& >.:@,@X$&&<:#,,,,,,,,,,,,,,,,,,",
",,,,,,,,--O=@,,+1:1@,,,-:XX:@,,,,,,,,,,,,,,,,,,,",
",,,,,,,,%+1<;%,,,,-,,-,,-%+1@-,,,,,,,,,,,,,,,,,,",
",,,,,,,,+1<. :,,,,,,-#@-%+Oooo+,,,,,,,,,,,,,,,,,",
",,,,,,,,1:*> .%,,,,,--#@#+1OoX;1,,,,,,,,,,,,,,,,",
",,,,,,,,+X.  >+,,,-%+#+o+O:1:<>.%,,,,,,,,,,,,,,,",
",,,,,,,,,1.  .O,,--%@o1:==X<=;  1,,,,,,,,,,,,,,,",
",,,,,,,,,#=**=@,,%#@oo::1o:*$&  =,,,,,,,,,,,,,,,",
",,,,,,,,-+o###----@1=::oo:=:<   =-,,,,,,,,,,,,,,",
",,,,,,-,#:<+,,,--%Oo:o:ooooX$  >:-,,,,,,,,,,,,,,",
",,,,,@+O+X.;%,-%#+1:o::oo1X;>  .1-,,,,,,,,,,,,,,",
",,,,,#=**;>>:%%-%1:o::1o:*;>  >*+,,,,,,,,,,,,,,,",
",,,,,,O;&   ;:O@@o==*X:=;&    ;:%,,,,,,,,,,,,,,,",
",,,,,,,O$   ;=%#1O1:Xo<.     $:@,,,,,,,,,,,,,,,,",
",,,,,,,,%o;<:1@%+O11o<$   >.<:+-,,,,,,,,,,,,,,,,",
",,,,,,,,,,-%##O@@1oo:*>  .*:O#,,,,,--,,,,,,,,,,,",
",,,,,,,,,,,,,%O+@1oo:;  &X1#,,,,,%%%%-%#,,,,,,,,",
",,,,,,,,,,,,,%++@Oo=X.  <o%,,,,--%###O:<O,,,,,,,",
",,,,,,,,,,,,,,++O1o:X. >=@,,,,%+@#@OO1*&.-,,,,,,",
",,,,,,,,,,,,,,@O+Ooo*. &:-,,,,OooOoooX;  1,,,,,,",
",,,,,,,,,,,,,,#++O1:X$ &O,,,,,@:oo:::*.  *,,,,,,",
",,,,,,,,,,,,,,-OOO1=X<&>O,,,,,,@oOOo=*&  =,,,,,,",
",,,,,,,,,,,,,,-Oo1o:==<$X-,,,,,,1#O1=<  >1-,,,,,",
",,,,,,,,,,,,,,,O=:1:o:=**O%,,,,,,-O:=$  .1-,,,,,",
",,,,,,,,,,,,,,,%X*oo:::=::O@+#-,,#+1*>  ;+,,,,,,",
",,,,,,,,,,,,,,,-1=:::o::1Oo++@--#+1=$  >=@,,,,,,",
",,,,,,,,,,,,,,,,@*X:1::::o1:1O@OO1:*&  $1-,,,,,,",
",,,,,,,,,,,,,,,,-o<X::=o:::=ooo1o:X$  >*+,,,,,,,",
",,,,,,,,,,,,,,,,,#*<<X:ooOO::o::1:<>  $1-,,,,,,,",
",,,,,,,,,,,,,,,,,,+<;<*X:oo:oooo:*&  &X@,,,,,,,,",
",,,,,,,,,,,,,,,,,,,O;.;<*X===::X<&   <1-,,,,,,,,",
",,,,,,,,,,,,,,,,,,,,O;&&.;<<<<<;>   .:@,,,,,,,,,",
",,,,,,,,,,,,,,,,,,,,,@*& >>>>>     &XO,,,,,,,,,,",
",,,,,,,,,,,,,,,,,,,,,,-1;>        .*1-,,,,,,,,,,",
",,,,,,,,,,,,,,,,,,,,,,,,-O*.&>>&.<:O%,,,,,,,,,,,",
",,,,,,,,,,,,,,,,,,,,,,,,,,,#1::o1+#,,,,,,,,,,,,,",
",,,,,,,,,,,,,,,,,,,,,,,,,,,,,,---,,,,,,,,,,,,,,,",
",,,,,,,,,,,,,,,,,,,,,,,,,,,,,,,,,,,,,,,,,,,,,,,,",
",,,,,,,,,,,,,,,,,,,,,,,,,,,,,,,,,,,,,,,,,,,,,,,,",
",,,,X&   :,<  +,,< 1,#X&  .:,,<  1,,.  1,     <,",
",,,& &:1::,<  &,,< 1,& .1:& X,<  <,#   1,  111+,",
",,: &#,,,,,< & X,< 1: .,,,#  #<  &,1 & 1,  ,,,,,",
",,< 1,,<<<,< 1& #< 1< 1,,,,< 1< . +<&< 1,  <<<,,",
",,< :,,<  ,< 11 .< 1< :,,,,. 1< : X X< 1,  <<<,,",
",,1 &#,,  ,< 1,<   1+ &#,,1 &,< 1&  +< 1,  ,,,,,",
",,,< &<<  ,< 1,#   1,<  <<  1,< 1X  ,< 1,  <<<:,",
",,,,+X<<<1,:<+,,1<<+,,+X<<:#,,:<++<:,:<+,<<<<<:,",
",,,,,,,,,,,,,,,,,,,,,,,,,,,,,,,,,,,,,,,,,,,,,,,,",
",,,,,,,,,,,,,,,,,,,,,,,,,,,,,,,,,,,,,,,,,,,,,,,,"
};
