/* XPM */
static char *magick[] = {
/* columns rows colors chars-per-pixel */
"48 48 19 1",
"  c #060506",
". c #201c19",
"X c #36302a",
"o c #504946",
"O c #525a79",
"+ c #625d67",
"@ c #73675d",
"# c #666e93",
"$ c #7279a2",
"% c #7883ad",
"& c #83776d",
"* c #93857b",
"= c #9b8f86",
"- c #a5988e",
"; c #aba097",
": c #b9b1ab",
"> c #c6c0ba",
", c #d4cfca",
"< c #e8e6e4",
/* pixels */
"$=%$#OO##O###$#####$#######$%$$%$$$#$###OO###$##",
"$$$##OO+####$##############$$#$$$#$$$###OOO#$$##",
"##@$+OO#########O####O#####$$$#$$$$#####OO##$###",
"##$$+O+#######################$$#$$#OOOOO##%%###",
"#$##OO+###+O#O###O#O#<,=X#O#######$#OOOO##%%=###",
"$@##O+###OO#########<<,*X.###########XO###$%$###",
"#$#o+####+##O#:####:<<>&o ##########OOO#########",
"#+OO##+o#O##:<,*oO#:<,:&X. #########OOOO########",
"O++#+##O#O##><,&oX#:,>-&o  #########OOO#########",
"OOO+#####O#O:::*ooO->-*@X  ##########OO#########",
"OOO###$##OO#===+X Xo&&@o.  #O########OOO########",
"++###@###O#O+@o.   .XXX.   ############O########",
"###@######O#OX.    #...    ############O######$#",
"#####@##:,>O##    ####..  ###################$#$",
"OO##O###><:+#O###################$$$$##$#$####$#",
"+##O####::*o #######,<<,,-@+$$####$$###$#####$$%",
"#OO####$&=+.  ####,<<,<,::=@X$$###$####$####$$$$",
"########o@X.  ###,<<,,>:;-=+. #####$#$#$#######$",
"###O###$$X.   ##<<<>:;**=@@o  $####$####$####$##",
"######$%%$#  #$<<,>;=*=-*@oX  #######$###$######",
"#####$$<<;o###:<<,;**===**o   ##########$$######",
"######,<,=oX#$,<<>-=-*=-*@X   ##$####$##$$####OO",
"#####$&==@XX$#,<,-=====*@X   ########$####$##OOO",
"###$$$#oo. ..$,,:=*&**&oX    #######$##$#####OOO",
"###$#$$%    .@>,:-*&&oX     #$###############Ooo",
"###$$$%$$   $&,,:;-*oX     #$#######$#$######OoX",
"###$$$#######@>,:--*o.   #######::#######$##OOOX",
"$$%$#OOOO####@:,:=*@X   #####,<<,,;&X###$$#OOOOO",
"$####OOO#OO###;>>;*+X  #####<<<<,>;+.###$%##OO##",
"###OOOO###O###;>;-*+.  #$###:;::;-*o  ##$$OOO###",
"##OoOOO#OOOO##=::-*@.  ##$$$o*-=**+.  #####O####",
"##OoOO#OO##O##&::;*@o. $#$$$$o;:-=o.  ##########",
"##OOoO##OO####o=--*&@oXX#$$###:,;*o   ####$##O##",
"###OO########$$+*===&&@&**$#,<<,-&X  #########OO",
"##O#########$##o@*==****;:>><<<:-@   #######O#OO",
"#O##############@&==**-;;:>,<,>;&X   ######$##O#",
"O+#######$##$###X@@*=***=*--:;-*o.  #######$####",
"OO######$#$##$$##oo@&*=;-==-*==@X   ###O####$###",
"O#######$$$$#$#$$#Xo+&==-*=--=&o   ###O#########",
"OO#####$$$$#$######XXoo@&&&*&@o    #############",
"O##$$$$$%%%$##$#$##$...Xooooo.    %#######O#####",
"####$#$#$%%%###$#$$##            $%$#$$######@##",
"###$#$$#$$$$$#$#######$         $%%#$$$##+###$$$",
"##$#$#%$##$$$$#$$#$$#######  #$$$%$$$$$#O##O##@#",
"####$#$$$$$#$#$#$#$##$$###$##$$$$%%%%$$####@####",
"##$#$$$$%%#$#$###$#$$#####$####$%%%%%$$##++++O+O",
"#$$$$#$#$#%##$#$###########$###%%%;%%%##OOO++OoO",
"$$#$$#$$#$#$#####$#$######$#$#%%%%$%$$#OOOO#+OOO"
};
