/* XPM */
static char *magick[] = {
/* columns rows colors chars-per-pixel */
"48 48 30 1",
"  c Gray0",
". c #332716",
"X c #4c3c1f",
"o c #503f20",
"O c #404010",
"+ c #534420",
"@ c #604f1f",
"# c #6f542f",
"$ c #7a632f",
"% c #947231",
"& c #987840",
"* c #908835",
"= c #a8863e",
"- c #9f9f4f",
"; c #af8e42",
": c #bfa941",
"> c #c0973f",
", c #c09f46",
"< c #d7ab46",
"1 c #cfaf60",
"2 c #e8b64f",
"3 c #d4c752",
"4 c #dad075",
"5 c #f4ca51",
"6 c #f1d866",
"7 c #fae55f",
"8 c #fff86a",
"9 c #dfc880",
"0 c #f9f186",
"q c None",
/* pixels */
"qqqqqqqqqqqqqoX...qqqqqqqqqqqqqqqqqqqqqqqqqqqqqq",
"qqqqqqqqqqqqXX%X@#.oqqqqqqqqqqqqqqqqqqqqqqqqqqqq",
"qqqqqqqqqqqqX%@o@#$ooqqqqqqqqqqqqqqqqqqqqqqqqqqq",
"qqqqqqqqqqqqX>@@##%%@oqqqqqqqqqqqqqqqqqqqqqqqqqq",
"qqqqqqqqqqqqX:%##%%%=@+qqqqqqqqqqqqqqqqqqqqqqqqq",
"qqqqqqqqqqqo%::#$%%%==$+qqqqqqqqqqqqqqqqqqqqqqqq",
"qqqqqqqqqqqo%&:$%%%&%=>+qqqqqqqqqqqqqqqqqqqqqqqq",
"qqqqqqqqqqqo%%2%%%&===>,oqqqqqqqqqqqqqqqqqqqqqqq",
"qqqqqqqqqqqo%%<:%**=>>><,oqqqqqqqqqqqqqqqqqqqqqq",
"qqqqqqqqqqqo%%;<=33<<<<<<=+qqqqqqqqqqqqqqqqqqqqq",
"qqqqqqqqqqq#%%%3=377777777:**+@@+@@@@@@@@qqqqqqq",
"qqqqqqqqqqq#%%%1<$%=<:22377778888343:8083.qqqqqq",
"qqqqqqqqqqq##%%=4=$=><<<<22<..O@@-6880042Xqqqqqq",
"qqqqqqqqqqq#@%%%4,%#><<<2225=qqqq.38676<%+qqqqqq",
"qqqqqqqqqqq#X$%%,9=%#><<22525+qqq%72<<:%.+qqqqqq",
"qqqqqqqqqqqoX#%%;9,>%%<<222553++%2:%;&#.+qqqqqqq",
"qqqqqqqqqqqoX#%%&10;:%%>222555::##%##.#+qqqqqqqq",
"qqqqqqqqqqqqXX%%&;9,>>%%<25575>X%$ ..<*+qqqqqqqq",
"qqqqqqqqqqqqXX$%%&16><2%%276>>55Oqqq@8.qqqqqqqqq",
"qqqqqqqqqqqqoX#%%%&9<<<<3,%>52<3Oqqq#:+qqqqqqqqq",
"qqqqqqqqqqqq.+@%%%&&5<6>>>%%5>573@qO7+qqqqqqqqqq",
"qqqqqqqqqqqqq++$%%%%,,><<2<=$>577$q#3+qqqqqqqqqq",
"qqqqqqqqqqqqqoo##X$#%<<2222<%%%=33#7$qqqqqqqqqqq",
"qqqqqqqqqqqqqoo#.%$%%&<<22222>%%%=#6Xqqqqqqqqqqq",
"qqqqqqqqqqqqq.#..%%$$#:<<222552<==7=qqqqqqqqqqqq",
"qqqqqqqqqqqq@%o..%%$$#%<<25252557:5$qqqqqqqqqqqq",
"qqqqqqqqqqo%>;o.@%%$%##*<22252555:5$qqqqqqqqqqqq",
"qqqqqqqqqo2&1,%$#%%$$###=2222555:5#%@qqqqqqqqqqq",
"qqqqqqqq#;,&&%%#&>>%$$##%>222525:3#%@qqqqqqqqqqq",
"qqqqqqq$1;1&$XXX&>>&$####%==&==%5#=3%qqqqqqqqqqq",
"qqqqqqq%;1;&&X.#&=>>=%####%%%==:5$7<%@qqqqqqqqqq",
"qqqqqqq$1,,#%#%&&o&>==%####=22:5$5:%;@qqqqqqqqqq",
"qqqqqqq%;=;$$$$&&+.%:=;#####;<:5#:%%7@qqqqqqqqqq",
"qqqqqqq$;&&;&$&&%%..%>>;$##@#;52%$=25@qqqqqqqqqq",
"qqqqqqq%,:;;&$#@@@ooo%>>;%##@$;%%<2557@qqqqqqqqq",
"qqqqqqq$&;;;&##+ooooooo%=:%#@@$;<25555@qqqqqqqqq",
"qqqqqqq$%&&&&+@+ooooXX...%;;%###<22255@qqqqqqqqq",
"qqqqqqq$$&;;&#@+ooooX..qq...&%o+#=2255@qqqqqqqqq",
"qqqqqqq%$%;&%$@oooXXX....qqq....o@%222@qqqqqqqqq",
"qqqqqqq$#&;;%%@+ooXXX.oo...qqqqq...o%>+qqqqqqqqq",
"qqqqqqq%#&===%@+oooXoo@@ooo..qqqqqq...qqqqqqqqqq",
"qqqqqqq$#%&%%%@+oooX###@@ooo+..qqqqqqqqqqqqqqqqq",
"qqqqqqq$#%%%%%#ooooX#####@@oo+oX.qqqqqqqqqqqqqqq",
"qqqqqqq$#%%%%%$ooooX#######@@ooo++.qqqqqqqqqqqqq",
"qqqqqqq%#%%%%%%%@XoX#########o@o+X+Xqqqqqqqqqqqq",
"qqqqqqqq@%%%%%%%$XoX###########+@XoXqqqqqqqqqqqq",
"qqqqqqqq@%%%%%%%%#X..+@##########+@.qqqqqqqqqqqq",
"qqqqqqqqq...o@oo.. qqqq  ...X@@####.qqqqqqqqqqqq"
};
