/* XPM */
static char *magick[] = {
/* columns rows colors chars-per-pixel */
"48 48 27 1",
"  c Gray0",
". c #291810",
"X c #352018",
"o c #382420",
"O c #512f24",
"+ c #64342d",
"@ c #594138",
"# c #6f4830",
"$ c #615951",
"% c #8a5635",
"& c #966541",
"* c #867161",
"= c #ae734c",
"- c #968879",
"; c #cb8855",
": c #c7906d",
"> c #dfae79",
", c #f2b26f",
"< c #ffd379",
"1 c #9e9a96",
"2 c #be9e8e",
"3 c #a9a4a6",
"4 c #cfb29e",
"5 c #fdd492",
"6 c #ffeb96",
"7 c #ffecac",
"8 c None",
/* pixels */
"888888888888888888888888888888888888888888888888",
"888888888888888888888888888888888888888888888888",
"888888888888888888888888888888888888888888888888",
"888888888888888888888888888888888888888888888888",
"888888888888888888888888888888888888888888888888",
"888888888888888888888888888888888888888888888888",
"888888888888888888888888888888888888888888888888",
"888888888888888888888888888888888888888888888888",
"-44::4::-21=22===*$$$$$*--8888888888888888888888",
"==,>,,,5,,,::::,,,>:=;==&=-188888888888888888888",
"3#%&=;=;;==;;;:,,>;;=&%#%;,,23888888888888888888",
"83*#+###%&&&&=;;&O.####%=;;;5:-38888888888888888",
"8888888----*##O..X##%###%&=,,,:=-888888888888888",
"88888888888881.XO+&;=#+#%%=,5,,,:=18888888888888",
"8888888888888$o+%=;%#O%+%%=;<5,,,,,2388888888888",
"8888888888888$+#&&@..+%+#%&;,,,,,,,>248888888888",
"8888888888888#O%+O.O#%&#O##=,,,<,,,,,,4288888888",
"8888888888888$Oo.o##&:#O#+#&,<5<55555555>3888888",
"88888888888883o.O##&;O.O+#%=;,,5556775555,388888",
"888888888888881+%+%&XXO###&==;:57777676655448888",
"888888888888843=O+O..O#+%&=&#%=,5557777766553888",
"88888888888883=#XX..O++#%;%#++%;:,,5777666662888",
"8888888888881%#+XX.O#OO&;2XoooO+%=,,565565655288",
"888888888883%#+OX.X+OOO=:*....XOO#=,,5,,55567288",
"88888888888*++OO..X@OO#>4X ..X..OO+;;5,,,,,<6518",
"88888888888#+O.O+#-4:##24+.XXXX.XOo#=,,,=;,,57-8",
"88888888888#X.#-388844%O%O.ooooXoOOO%,,;+%,,57:8",
"88888888888-@-888888833#O.. ....XOOOO=:+O=:,57:1",
"888888888888888888888881%O.o$$$$$@X....OO%=,<7,*",
"8888888888888888888888888-$-888888-..XO+O+=,<75*",
"88888888888888888888888888888888888@XOOO++=,<75*",
"88888888888888888888888888888888888*XOO+O+=,<76*",
"888888888888888888888888888888888881XO+++%;>577*",
"888888888888888888888888888888888888o++OO%=,575*",
"888888888888888888888888888888888888OO@@O%;,57:1",
"888888888888888888888888888888888888$oO++%=,57*8",
"8888888888888888888888888888888888883Oo++%=,,=18",
"88888888888888888888888888888888888883*Oo+%=-388",
"88888888888888888888888888888888888888881-388888",
"888888888888888888888888888888888888888888888888",
"888888888888888888888888888888888888888888888888",
"888888888888888888888888888888888888888888888888",
"888888888888888888888888888888888888888888888888",
"888888888888888888888888888888888888888888888888",
"888888888888888888888888888888888888888888888888",
"888888888888888888888888888888888888888888888888",
"888888888888888888888888888888888888888888888888",
"888888888888888888888888888888888888888888888888"
};
