/* XPM */
static char *magick[] = {
/* columns rows colors chars-per-pixel */
"48 48 30 1",
"  c Gray0",
". c #2b1910",
"X c #382018",
"o c #382420",
"O c #503125",
"+ c #693b28",
"@ c #6f4531",
"# c #594d41",
"$ c #695d51",
"% c #8a5134",
"& c #a66138",
"* c #966549",
"= c #86766a",
"- c #b2744e",
"; c #9e856f",
": c #be8251",
"> c #be9271",
", c #cf8a51",
"< c #d79a69",
"1 c #e79e61",
"2 c #f4b16f",
"3 c #f7c379",
"4 c #a6968e",
"5 c #a6a29e",
"6 c #d7be96",
"7 c #fed58e",
"8 c #ffdfa6",
"9 c #ffeb96",
"0 c #fff0af",
"q c None",
/* pixels */
"qqqqqqqqqqqqqqqqqqqqqqqqqqqqqqqqqqqqqqqqqqqqqqqq",
"qqqqqqqqqqqqqqqqqqqqqqqqqqqqqqqqqqqqqqqqqqqqqqqq",
"qqqqqqqqqqqqqqqqqqqqqqqqqqqqqqqqqqqqqqqqqqqqqqqq",
"qqqqqqqqqqqqqqqqqqqqqqqqqqqqqqqqqqqqqqqqqqqqqqqq",
"qqqqqqqqqqqqqqqqqqqqqqqqqqqqqqqqqqqqqqqqqqqqqqqq",
"qqqqqqqqqqqqqqqqqqqqqqqqqqqqqqqqqqqqqqqqqqqqqqqq",
"qqqqqqqqqqqqqqqqqqqqqqqqqqqqqqqqqqqqqqqqqqqqqqqq",
"qqqqqqqqqqqqqqqqqqqqqqqqqqqqqqqqqqqqqqqqqqqqqqqq",
"><6>4<4<>>>;4>;;==$$##$===qqqqqqqqqqqqqqqqqqqqqq",
";-112222222<1<12222<><--*;;4qqqqqqqqqqqqqqqqqqqq",
"5@%--,::>:::,<1<2<,:-*%@%,<745qqqqqqqqqqqqqqqqqq",
"q4=$@@@@%***&->>-O.++%@%*,,27>;5qqqqqqqqqqqqqqqq",
"qqqqqqq;44==$@O..X@@%@+%%&:122<;;qqqqqqqqqqqqqqq",
"qqqqqqqqqqqqq=.oO+&:-@O@@%-13222,;4qqqqqqqqqqqqq",
"qqqqqqqqqqqqq$o+%-:%@O@#@&-<332222<>5qqqqqqqqqqq",
"qqqqqqqqqqqqq#O@-*OX.@%@@%&,22722222<6qqqqqqqqqq",
"qqqqqqqqqqqqq@O@@O.o@%*%O+@&122322332265qqqqqqqq",
"qqqqqqqqqqqqq$OO.O@+->%O@+@&13777667733765qqqqqq",
"qqqqqqqqqqqqq5O.O@+&-OXO@+%-,23777898977765qqqqq",
"qqqqqqqqqqqqqq;O@O%*X.O@+%---,17880000997766qqqq",
"qqqqqqqqqqqqq65-O+O..O@@%*-*@%-37770000099764qqq",
"qqqqqqqqqqqqq5;%XX .O++@%:%%O+%>123700009998>qqq",
"qqqqqqqqqqqq4*@Oo..O+O+&:<XOOOO+%-<27778979775qq",
"qqqqqqqqqqq5*@OOo.X@OOO->= ...oXO@-2333277790>qq",
"qqqqqqqqqqq=+OOO..o@OO@26X. .X..OOO:,7222127064q",
"qqqqqqqqqqq@OO.O+@;>;@@<6O XXX..oOO+&321-,1370=q",
"qqqqqqqqqqq#X.@45qqq66%+*O.XooO.oOOO%<<>+%1270>q",
"qqqqqqqqqqq;#=qqqqqqqq4@o........OoO+->+O&,270>;",
"qqqqqqqqqqqqqqqqqqqqqqq5=O.o$$$$$#... .OO%:1787=",
"qqqqqqqqqqqqqqqqqqqqqqqqq4$=qqqqqq=..oOOO@-2707$",
"qqqqqqqqqqqqqqqqqqqqqqqqqqqqqqqqqqq#OOOO+@-1788;",
"qqqqqqqqqqqqqqqqqqqqqqqqqqqqqqqqqqq;oOO+O+-2307;",
"qqqqqqqqqqqqqqqqqqqqqqqqqqqqqqqqqqq5oO++O%,2708;",
"qqqqqqqqqqqqqqqqqqqqqqqqqqqqqqqqqqqqOOOOO%:2708;",
"qqqqqqqqqqqqqqqqqqqqqqqqqqqqqqqqqqq;O+#+O%,2708=",
"qqqqqqqqqqqqqqqqqqqqqqqqqqqqqqqqqqq=O@O@+%-2708;",
"qqqqqqqqqqqqqqqqqqqqqqqqqqqqqqqqqqq$O@+@+&:2980;",
"qqqqqqqqqqqqqqqqqqqqqqqqqqqqqqqqqqq$O@+O+%:2088;",
"qqqqqqqqqqqqqqqqqqqqqqqqqqqqqqqqqqq$#@@O+%:2006;",
"qqqqqqqqqqqqqqqqqqqqqqqqqqqqqqqqqqq$@@#+O%:2086;",
"qqqqqqqqqqqqqqqqqqqqqqqqqqqqqqqqqqq#+@@@+%,7007;",
"qqqqqqqqqqqqqqqqqqqqqqqqqqqqqqqqqqq#@@@O@&,3007;",
"qqqqqqqqqqqqqqqqqqqqqqqqqqqqqqqqqqqO@@@+%&17007;",
"qqqqqqqqqqqqqqqqqqqqqqqqqqqqqqqqqqqO@@@+%&19003;",
"qqqqqqqqqqqqqqqqqqqqqqqqqqqqqqqqqqqo@@@+%-29007;",
"qqqqqqqqqqqqqqqqqqqqqqqqqqqqqqqqqqqX@@+@%-29007-",
"qqqqqqqqqqqqqqqqqqqqqqqqqqqqqqqqqq5o@@+@&,70007-",
"qqqqqqqqqqqqqqqqqqqqqqqqqqqqqqqqqq4O@+@%&,20088;"
};
