/* XPM */
static char *magick[] = {
/* columns rows colors chars-per-pixel */
"48 48 26 1",
"  c Gray0",
". c #2d1910",
"X c #382420",
"o c #412418",
"O c #4f3020",
"+ c #613927",
"@ c #494538",
"# c #6d4931",
"$ c #615949",
"% c #716151",
"& c #716d69",
"* c #8b5438",
"= c #965941",
"- c #9b6646",
"; c #927969",
": c #b16f4b",
"> c #c77d51",
", c #be8259",
"< c #be9671",
"1 c #cc8759",
"2 c #d19265",
"3 c #d2a671",
"4 c #e7aa79",
"5 c #968d8c",
"6 c #a69e9e",
"7 c None",
/* pixels */
"777777777777777777777777777777777777777777777777",
"77777777777777777777;:16777777777777777777777777",
"77777777777777777776O*>;777777777777777777777777",
"77777777777777777775o*:;77777775;<<6777777777777",
"7777777777777777777;.+:-7777777--136777777777777",
"7777777777&-;677777;.O-:6777776O*1:-777777777777",
"7777777777@:>367777;.o-:577777<O#::#777777777777",
"7777777777.=::;77775.X*-;77777%X#,:%777777777777",
"7777777777XO:<$67775.X=:-77777#X#,-&777777777777",
"7777777777O.=:-;7775.+=:-77777OO#,-,777777777777",
"7777777777@.#>:;7777.O*:-77776X+-:*6777777777777",
"7777777777$.+:>#7777.O*::57775o#,,*6777776567777",
"7777777777&.O11;5777.o*::;777;O*>:*777777=2<7777",
"77777777775 +,32%777OO#-;%777$+*1,;77777$#>:5777",
"77777777777 O-21<777@X#::#777O+=1:;77775o#-*;777",
"77777777777XX*24<677$o=23%775X+-:-57777@o+*#6777",
"77777777777@.+>3:*57$X#22-57%X+*--6777;.o#@&7777",
"77777777777& o:423&75X+>3357@O*--*7775OOo#@67777",
"777777777777..=332%75X+-2357.+*::-777%O#+O&77777",
"777777777777@.#243<67.+=13;6o#=::-77%OO##O677777",
"7777777777775 O:32367@#*:35&O+-:-;7%++++O$777777",
"7777777777777Xo*>>225O#->2<#O+*-*55O*#+OX6777777",
"7777777777777&.+->131,>>:>>:++*:*&O#**+.@7777777",
"77777777777777.+=>23312>>:>:**>23#+==*#X57777777",
"77757777777777$O*>12221>>1::**:12>--*#O&77777777",
"75#***-67777776O*:11221:>>>-**:>1>:-*#@777777777",
"7&#=>>-*5777777#*:>1211::>:-:==>1>>1*O5777777777",
"75.+:2>::577777&#=::121>:>::==*:11221-7777777777",
"77$.+:22>=577775+=:>:>>>>::=-==::1221-7777777777",
"776#.O:22>=6777$#*=-:-:>>>-**==*::222-7777777777",
"7777;.O*>11<776O+:>1,,::::::*+##*->2,*7777777777",
"77777& #:322-%+++->23<2::::>*#+++#=1:%7777777777",
"777777&.#>212#OO*->13332,,-:=*****=:-%7777777777",
"7777777& +,1312->12222331,1::*#**=:>>;7777777777",
"77777777@ :2<22>>1232<33112>>***=-::,-7777777777",
"777777777Xo:1<2>32<22<33322>>=*==-:1:*7777777777",
"7777777775.#>322443333333,1::--*=::1:*7777777777",
"7777777777.X=,23444443333<11::-=--:1:;7777777777",
"7777777777&.O*>2344444343321:--*-=>1-%7777777777",
"77777777777XX+*:>22444333322>::-=:>>:#7777777777",
"777777777775 .#*:,123433332>>::=-=::*$7777777777",
"777777777777& .+*-,2>234421>::=::::-*;7777777777",
"7777777777777& .O+#*:>1111>>=::==*--#&7777777777",
"77777777777777& .oO+#-::>>>::**-=***#67777777777",
"7777777777777775  ..O+##**-:*####+++%77777777777",
"7777777777777777&. ..OO+++#*+OoO+O+@677777777777",
"777777777777777777&@   .....      @6777777777777",
"77777777777777777777765@O.   X@@&577777777777777"
};
