/* XPM */
static char *magick[] = {
/* columns rows colors chars-per-pixel */
"48 48 25 1",
"  c #010000",
". c #2c180c",
"X c #382018",
"o c #412418",
"O c #502f25",
"+ c #693c28",
"@ c #734735",
"# c #695549",
"$ c #8e5938",
"% c #955a41",
"& c #966b4d",
"* c #b17551",
"= c #be8659",
"- c #a68a79",
"; c #c78659",
": c #d39266",
"> c #e79e69",
", c #f1ae77",
"< c #9e928e",
"1 c #c7aa8e",
"2 c #f2b98c",
"3 c #fdd196",
"4 c #f7d5aa",
"5 c #ffefb6",
"6 c None",
/* pixels */
"66666666666666<-1::6666:221666666666666666666666",
"6666666666666&:,332:66$>,23466666666666666666666",
"666666666666&:>,4521-6@>235536666666666666666666",
"666666666666@;>,55,1&o@:,35526666666666666666666",
"666666666666+*:,342:@.+;3345,6666666666666666666",
"666666666666+%>4342@X.O;,35336666666666666666666",
"666666666666o%1453,+X.X=,34336666666666666666666",
"666666666666@&>,33,OO.O*>33336666666616666666666",
"6666666666666$;>>2:OX.X$*:,>2366616-=:2366666666",
"6666--&666666+%*::$o...O@%%;,5-666:*%*,333666666",
"66<*>2*+O#666XOO++O..OO.X.o*,51661*@$*2355666666",
"6<*;>,1$OO@666#XXo..o*3&*%&*,53-6*$++*2555166666",
"6-=*:,3*O+O%<666...o$2533,>>,35:*$o.O:,553166666",
"6-**:,2;OO*2&666...+=,355332334=@O..o*>353166666",
"66$*>421O@,3:OOOO.o*:>33332,,2*@+o...@*:3,-66666",
"66%=>,22@%>2:OO+++%;:>,,32,,,=$Oo...XO#%=:666666",
"66<%*:,,@*::#OOO+%::::>>>,,>:@+O...O;12=66666666",
"666<&%&O+&=%OOOO$*::*;::>>:*@OOoX.O;,24:66666666",
"66666-O.O+++OoO+&:>;&****;*#+OOOO+*>,43166666666",
"6666666O.OOo..O%;2>:=*%%$$++OOOO+$=>,332-6666666",
"66666666+....O@*:2>2;**%++OOOOoO+$&*:>>2:6666666",
"666666666@...+%;>>>>:=*&OOXXOoOOO++@%;2326666666",
"66666666666.X$*;:::;;:*#OOoOOoOOOO@&;,3246666666",
"66666666666%o+&**;;;=*%OoOOOOOOoO+$*:>2,2#666666",
"666666666666%+$%*=:-1*@OOoOOOOOOOOO@*;,23$X66666",
"666666666666-@*&=:,,2*+XoOO@@@+OOOO+$*:23- 66666",
"6666666666666&*%>>231%OXO+%&*%##@+++%*:>31  6666",
"6666666666666*&*>>2,;+OO@*:::*%%@#@#@%;>,2.  OO6",
"6666666666666*%::,2:&OO+;44521:&%#+@%%*;>2.  666",
"666666666666-&;:>23:%O+&3555442:*&@@$$&=:1&  #66",
"666666666666%;::233:%+%>45555442::*$&&&*::-. . #",
"666:6666666&;2>:2231**>455555542>:::&*&$*=*@ . 6",
"6&:>2,:611*:233,,3222234555555333:::=*&%$*:@.  6",
"&*:,222,>2243432224334555545443341;;=*&&@*>=+  6",
"-$;,22,>>,333433223335544343333,42>====%@;>>@ X6",
"<+%;,>>>>>233544332222324422222222>*&$$$&;:>OXX6",
"6@O+%*::>:33335342222,>,2,2>,>2:>>*@OOO#&*;*OOO6",
"66#OoO$*;:222,3,42,,>;:::;:::**&&&OXXO@@$**@o. 6",
"6666X.O$&;,:,>>>,>::=**==;***%+++O...+@+@$%oX#66",
"66666O.O+$#@@$$$@#+$$$$$#@@OOo......oO++@@O..@66",
"6666666@+@OXOOOX.XX.......  .XX.....XoOOO..XX666",
"66666666666666666666<<<#. ..  .O.....XX.X..O.666",
"666666666666666666666666O.   . .   . X...X666666",
"666666666666666666666666666.    .  .  .. 6666666",
"6666666666666666666666666666666666#  666O6666666",
"666666666666666666666666666666666666666666666666",
"666666666666666666666666666666666666666666666666",
"666666666666666666666666666666666666666666666666"
};
