/* XPM */
static char *magick[] = {
/* columns rows colors chars-per-pixel */
"48 48 32 1",
"  c #010100",
". c #27150e",
"X c #302016",
"o c #382e26",
"O c #533020",
"+ c #613828",
"@ c #594538",
"# c #794d34",
"$ c #595d59",
"% c #716d61",
"& c #865938",
"* c #965d41",
"= c #9a694a",
"- c #9e7d69",
"; c #b0724d",
": c #867d86",
"> c #be8661",
", c #c78259",
"< c #d99764",
"1 c #dfa271",
"2 c #f3ac70",
"3 c #969094",
"4 c #a6a29e",
"5 c #b6b2ae",
"6 c #d7aa86",
"7 c #f7be8e",
"8 c #dfc7a6",
"9 c #ffc88e",
"0 c #ffd9a6",
"q c #ffebb6",
"w c #ffebc7",
"e c None",
/* pixels */
"eeeeeeeeeeeeeeeeeeeeeeeeeeeeeeeeeeeeeeeeeeeeeeee",
"eeeeeeeeeeeeeeeeeeeeeeeeeeeeeeeeeeeeeeeeeeeeeeee",
"eeeeeeeeeeeeeeeeeeeeeeeeeeeeeeeeeeeeeeeeeeeeeeee",
"eeeeeeeeeeeeeee66664eeeeeeeeeeeeeeeeeeeeeeeeeeee",
"eeeeee4-----3-+<22215eee5eeeeeeeeeeeeeeeeeeeeeee",
"eeeee3;<221<<,,<22<82,>9975eeeeeeeeeeeeeeeeeeeee",
"eeee4-<<2222<,<<222922279225eeeeeeeeeeeeeeeeeeee",
"eeee%;,<2292;;<222209222299766884eeeeeeeeeeeeeee",
"eeee#;><27q1;,<<<2297222299999986eeeeeeeeeeeeeee",
"eee:*,<<28q1;,<<222922222999999975eeeeeeeeeeeeee",
"eee#,,<<2qw<;,<<<2q0<<2222799998064eeeeeeeeeeeee",
"ee3#;,<22q01;<<222qq<<<229999998096eee4eeeeeeeee",
"ee%=;,<22q82;<<799q0<<2220w2299998764eeeeeeeeeee",
"ee+**;<27001;<<229w0<<2220w92999999064e55eeeeeee",
"eeo*&;<2290,;,<220w0<<299qw92999q98qw6e$3e3@55ee",
"eeO#+;<<,<2=*;<220w0<<229wq92998w08qq1e3ee3o:eee",
"ee@o+=>;=*;#+=><1909<1278ww92990w990864eeeeeeeee",
"ee%XO#***#=+#*;>><2<,<278q02298wq891964eeee:58ee",
"ee3Xo+O@#&;<1<;=&&=;=<227972290wq076266eeee@e$ee",
"eee@XO.O;,;180<#+O&&#;2<227228qwqq2666>eeee3$eee",
"eee%O-=<1,;<200=OOXOO&=;;,<<900w881<11>eeee8eeee",
"ee%;<12<<>-;,<0<XX...XXOOO&;228911>61>=4ee533eee",
"e4#,271<>,==**>=.....XXXX+O#,<<2>>>111=3e5$$eeee",
"e-#=181<;,=###&o... .....o.O###*>>>>1>=%4%%eeeee",
"e-##;87<>>=##@X...  ...........X#=>><>*o5XXeeeee",
"e4##;67<>=#@@X .    . ...  ....O#=>>>>*OX  %e55e",
"ee%O#;;=##+O+X... ..   .....oO+***;,<>=*   .353e",
"ee4OOO++OO#->+XX..  ... ...#-*#&&*;<>;;==.   o@e",
"eee%XXXX.#6>>#+O....  ...XO*;;======;;,;*#   3:e",
"eeee3X ..@>>>=*%#XX...XXXX@=====&#&&>;;=;=#  $%3",
"eeeee3X.XO+&=====#+X....Xo&&#&&##@#*-;;==;;O   $",
"eeeeee3%..XO@##==&%XX...X+#@O+OOOO##>;,=;=*#X  :",
"ee4eeeee3%X.OOOOO#+XXXXXoOOXXXXOXO+&=;;;;;;*X. 3",
"eeeeeeeeee4%oXX..X..X...X.. . .XXo+#*;--;;=;+  e",
"eeee3@eeeeeee3:%@oXoX...........XXO@#==-;-;=@.Xe",
"eeeeo@3eeeeeeeeeeeeeX   ........XXo+#**=-;;*OXXe",
"eeeeeeeeeeeeeeeeeeee$     X.....XXoO+#&====&OOoe",
"eeeeeeeeeeeeeee:eeee.     .X....XooOO@#*=*&OXX $",
"eeeeeeeeeeeeeee:e%o@       ......XXXoO@##&#Oo%5e",
"eeeeeeeeeeeeeeeee3$$@X     .X.....OXOO+###OOoo5e",
"eeeeeeeeeee%3eee$e$3$ee$   .......XoooO++ooXX$ee",
"eeeeeeeeeeeoo3eeee:e3ee$    .......XXoXXXXXo.3ee",
"eeeeeeeeeee:::5e%eeeeee$oX   .   . . ...Xo%3%%ee",
"eeeeeeeeeeeeeX:e3eeeeeeeee3   ..    ...X %4e53@3",
"eeeeeeeeeeeee33eeee3ee:e:e:o$3: 35$  :::o$eeee5e",
"eeeeeeeeeeeeeeeeeee33ee3ee:e5:w5e355@eee53$3eeee",
"eeeeeeeeeeeeeeeeeeeeeeeo3ee53353eee85eeee535eeee",
"eeeeeeeeeeeeeeeeeeeeeeeeeeeeeeeeeeeeeeeeeeeeeeee"
};
