/* XPM */
static char *magick[] = {
/* columns rows colors chars-per-pixel */
"48 48 19 1",
"  c Gray0",
". c #11172a",
"X c #182038",
"o c #182041",
"O c #252c51",
"+ c #2d356b",
"@ c #304179",
"# c #50546b",
"$ c #697579",
"% c #38458e",
"& c #455092",
"* c #59619e",
"= c #697196",
"- c #797da6",
"; c #868696",
": c #908fa9",
"> c #d3d1d6",
", c #f1edf1",
"< c None",
/* pixels */
"<<<<<<<<<<<<<<<<<<<<<<<<<<<<<<<<<<<<<<<<<<<<<<<<",
"<<<<<<<<<<<<<<<<<<<<<<<<<<<<<<<<<<<<<<<<<<<<<<<<",
"<<<<<<<<<<<<<<<<<<<<<<<<<<<<<<<<<<<<<<<<<<<<<<<<",
"<<<<<<<<<<<<<<<<<<<<<<<<<<<<<<<<<<<<<<<<<<<<<<<<",
"<<<<<<<<<<<<<<<<<<<<<<<<<<<<<<<<<<<<<<<<<<<<<<<<",
"<<<<<<<<<<<<<<<<<<<=#######==<<<<<<<<<<<<<<<<<<<",
"<<<<<<<<<<<<<<<<<X..XXoOOOOooo##<<<<<<<<<<<<<<<<",
"<<<<<<<<<<<<<<<.XOO+%%%%%%%%%%@%+#<<<<<<<<<<<<<<",
"<<<<<<<<<<<<<O..XOO+%%%+%%%%%%%%O##<<<<<<<<<<<<<",
"<<<<<<<<<<<OO.OO@%%%*&>,>>*%%%%%&+%#<<<<<<<<<<<<",
"<<<<<<<<<<o..+%%%%%%>>,>>>;@@&&&&&&%$=<<<<<<<<<<",
"<<<<<<<<<<o..+%%%%%%>>>>>>:+@&%&%&&&##<<<<<<<<<<",
"<<<<<<<<OO.++%%%%%%%,,>:>>>.X&&&%&&&&%-<<<<<<<<<",
"<<<<<<<#..O%%%%%%%%%>>>>>>;..%&%&&&%&&&<<<<<<<<<",
"<<<<<<<#..+%%%%%%%%%>>>>>>;..%&%&%&&%&&<<<<<<<<<",
"<<<<<<<.oo%%%%%%%%%%&&;>==XXX%#&&&%%&&&==<<<<<<<",
"<<<<<<#.++%%%%%%%%%%%%@X..X@@&&&&&%%%%&&&<<<<<<<",
"<<<<<<#.++%%%%%%%%%%%%@X..X@@&&&&&&%&&&&&<<<<<<<",
"<<<<<OOo%%%%%%%%*,,,,,,,,,,&&&%&&&&&&&&&&:<<<<<<",
"<<<<<..+%%%%%%%%*%%.>>>>>>>..&%&&&%&*&&*&*<<<<<<",
"<<<<<..+%%%%%%%%*%%.>>>>>>>..&&&&&&&&*&&&*<<<<<<",
"<<<<<..+%%%%%%%%%%+%,,>>>>,..@%&&&&&&&&&&&<<<<<<",
"<<<<<..%%%%%%%%%%&%&,,>>>,>..&&&&*&&&&*&&&<<<<<<",
"<<<<<oo%%%%%%%%%&%&%,,>>>>>..&%&&&&&&*&&*&<<<<<<",
"<<<<<oo%%%%%%%%%&&&&,,>>,>>..#%&&&&&&&&&&&<<<<<<",
"<<<<<oo%%%%%%%&&&&&&,,>,,>,..&&&&&&**&&&&&<<<<<<",
"<<<<<X.%%%#%%&&&%&&&,,>>,,,..&&&&&&&&&***&<<<<<<",
"<<<<<X.%%%%&%&&%&%&&,,>>,>>..&*&*&&&&&&&*&<<<<<<",
"<<<<<oo%%&%%%&%%%%&%,,,,,,,..&&&*&&*&&*&&-<<<<<<",
"<<<<<##@%%&%&%&#&%&&,,,,>>,..&&&&&&&*&&&&<<<<<<<",
"<<<<<##@%%&&%%%%%&%&,,,>,,,..&*&&&&&&*&**<<<<<<<",
"<<<<<<<O%&%%&&&%&&&&,,,,,>,..&&&&&&&*&&*&<<<<<<<",
"<<<<<<<#%&&&%%&%&%&%,,,,,,,..&&&&*&**&&<<<<<<<<<",
"<<<<<<<#&%%&%&&%&&&&,,,,,,,.X&&&*&&&&&*<<<<<<<<<",
"<<<<<<<<++&&&%&#&&&&,,,,,,,.X&&&*&&****<<<<<<<<<",
"<<<<<<<<;;&&%&&&&,,,,,,,,,,,,,&&&&*&**<<<<<<<<<<",
"<<<<<<<<<;&&&&&%&,,,,,,,,,,,,,***&&***<<<<<<<<<<",
"<<<<<<<<<<=&&&&&&&&X........XX..&&**<<<<<<<<<<<<",
"<<<<<<<<<<<<<*#%&&&&&&&*&&&***&&*==<<<<<<<<<<<<<",
"<<<<<<<<<<<<<<&%&&&*&&&&&&*&&&*&&==<<<<<<<<<<<<<",
"<<<<<<<<<<<<<<<<*&&&&&&&&&*&&&**<<<<<<<<<<<<<<<<",
"<<<<<<<<<<<<<<<<<<<<---&--:<<<<<<<<<<<<<<<<<<<<<",
"<<<<<<<<<<<<<<<<<<<<<<<<<<<<<<<<<<<<<<<<<<<<<<<<",
"<<<<<<<<<<<<<<<<<<<<<<<<<<<<<<<<<<<<<<<<<<<<<<<<",
"<<<<<<<<<<<<<<<<<<<<<<<<<<<<<<<<<<<<<<<<<<<<<<<<",
"<<<<<<<<<<<<<<<<<<<<<<<<<<<<<<<<<<<<<<<<<<<<<<<<",
"<<<<<<<<<<<<<<<<<<<<<<<<<<<<<<<<<<<<<<<<<<<<<<<<",
"<<<<<<<<<<<<<<<<<<<<<<<<<<<<<<<<<<<<<<<<<<<<<<<<"
};
