/* XPM */
static char *magick[] = {
/* columns rows colors chars-per-pixel */
"48 48 33 1",
"  c #150e03",
". c #182001",
"X c #2f120e",
"o c #2f2109",
"O c #3b555d",
"+ c #551114",
"@ c #492b0c",
"# c #652b10",
"$ c #50400e",
"% c #644011",
"& c #82261e",
"* c #964910",
"= c #ab6a12",
"- c #a24f4c",
"; c #cf5000",
": c #d37215",
"> c #dd5c64",
", c #ff7780",
"< c #b09450",
"1 c #db911a",
"2 c #dfab1f",
"3 c #ef971f",
"4 c #efae1f",
"5 c #f1b12f",
"6 c #f79270",
"7 c #f3ca2a",
"8 c #fae059",
"9 c #95b8eb",
"0 c #ffa099",
"q c #ffb8cf",
"w c #fcf099",
"e c #f9f2e4",
"r c None",
/* pixels */
"eeewewwwwww888888878878777777787777777777777777 ",
"eeeeeewwwwww88w8888888888888887878877875777777  ",
"ee==:=:1:1:1111331311131111111111::=:=:===;=*#  ",
"ee=:=:11111121111121232122311111111:=---#====#. ",
"ee:=:::1:1111111323131313111111111:1-0,-#+===#  ",
"ee=:1:1=*#@+%%112121232121311111111-0q,--&#-=#  ",
"ww=::1=#****#@@1113232313131311111-006+*,++ =#  ",
"ee1:1:%*=:;;*@$<112321232222111:1-0q6X->-++ =#. ",
"ew11:**:383:#*6$*132323231313111-0q6+*>-X## =#  ",
"we1:1#*:7e5*=e%@o32323232321232-0q6o->-X+& .=$. ",
"ww:1:#*:38*:e=*@o2323232323132-006X->- +& o=-o  ",
"ww111@*::*:e:*%o.323242424232-0q6X->- +&  ==o@. ",
"ew1:1#&*#=e:;%#@@23234414432-0q6X->-X## X==@@@X.",
"ww1:1#@@*6=**#oo%4242425242-0q6o->- +&  =-@oo@. ",
"ew1111o@6%*##o@o:242424442-006@*,-X+&  ::@@@o@X ",
"ww1111=<$@o@@oo1252425252-0q6X-,- +&  11o@$oOo. ",
"ww111111*@o.@%1244444447>0q6+*,*X+& X1:#$@$@@@ .",
"ww311111242544254525454-6q6X->- +&  1<@@@@@@@@. ",
"ww13313232444444544454O%--&-,- +# X:1@#$$@+@X@  ",
"ww2121242525274545754O--# +&-++&  31@@$@o@$@@@.X",
"w83131323444447474575Oe6-# ++#&  11$#@#$$@@@@@ .",
"ww2123252525477575757O6e>-+ ++ X23$#$$@@@$@Xo@.X",
"w831323444545457577574o---+#   11$#@@@#@@@+O@@Xo",
"ww2321242545757775757 . ++++  23%O$%$#$@@$@@@$oo",
"88323244247477575752Ow  X++  23%#%%$#@#@@@@@=#@o",
"w822242547457575777O9O  5   232#$#$@$$#O@@@==@oo",
"w85232345454577757qwr  75444323%#$#@@$@@@@===@Xo",
"8855242525757577799O  5525242221$%$#$@$@@====@oo",
"88323444247777579e9ro5542352323##%#$#@@@:====@oo",
"8823232547457579e9OX7575552523%#$%$$$@#:=====#.X",
"883232435272579e9rX5545454323%#%#@3@@@:=:====@X.",
"88242424257279e9Oo8545452525%%$%$:*%@#@&=====@.o",
"8852344434549e9ro5547454443$#%#%:#****#@@:===@X.",
"882523254579e9OX7775454524%%%%%:%*;::;*@@<===@. ",
"88323253429e9rX7547454443%#%%%1**;383;#*6@*==@X.",
"882524222ee9OO7575452524%%%%%13#*;8e7*=e%@o==@.o",
"88323222qO9rX2555754555%#%#%311#*:35*:e=&@o=;@ .",
"8822252eeeOX2525452525%%%%%1311@*;:*:e:*%@.*=@.X",
"w85232ee9O 4252554455#%%#%32111#**#=e:;*#@@=*@  ",
"88522ee9O O425222524%%%%%311111%@@*8=*##@o%*=#. ",
"88359e9O  322432424%#%#%3111:111o$6**##@oo:=*@ .",
"8w2Oe9O O225242524#%%%%33311111:=<$@@@@oo:=*=@. ",
"w831Or 2323232323%#%#%31111:11::1:*@o.+#:=***o  ",
"ww212 2424242423%%%%%2211111111:=:=======*=**@. ",
"w82232424243323##%#%#131313111:::=:=:=====***@  ",
"ww************%#%#%#%*%#%%%#%###%#@#@##@@@o@@@. ",
"w###########+.X.X.X+@@+oX@@@@o+oooo.X.XX      . ",
"#*#######+@#@#.o.@o+@@@@ooo@oooo.X.o.X. . . . . "
};
