/* XPM */
static char *magick[] = {
/* columns rows colors chars-per-pixel */
"48 48 24 1",
"  c Gray0",
". c #5f5850",
"X c #6f675f",
"o c #6f6f6f",
"O c #609760",
"+ c #9f302f",
"@ c #80705f",
"# c #d0787f",
"$ c #9e882f",
"% c #af976f",
"& c #ffd77f",
"* c #fff770",
"= c #9fa09f",
"- c #af87af",
"; c #bfb09f",
": c #a0c78f",
"> c #ff9790",
", c #cfe8af",
"< c #ffff90",
"1 c #c0ffc0",
"2 c #ffc8c0",
"3 c #ffffc8",
"4 c #faf7ec",
"5 c None",
/* pixels */
"555555555555555555555=====5555555555555555555555",
"5555555555555555555==XXXXX==55555555555555555555",
"555555555555555555=XX55555XX=5555555555555555555",
"55555555555555555=X555555555oX555555555555555555",
"5555555555555555o=X5555555555=X55555555555555555",
"5555555555555555=X55555555555oX55555555555555555",
"5555555555555555=.55555555555.=X5555555555555555",
"5555555555555555=.555555555555=X5555555555555555",
"5555555555555555=.555555555555=X5555555555555555",
"5555555555555555=.555555555555=X5555555555555555",
"5555555555555555o=55555555555o=X5555555555555555",
"55555555555555555=o5555555ooo=oX5555555555555555",
"55555555555555555o=o55XXoo%X.o..X.55555555555555",
"555555555555555555oo4==o.=@.o..X.X.5555555555555",
"5555555555555XoooX=4=O;X;%XX..@X..X.555555555555",
"55555555555ooo-$%X42X;@%3:X...@XX.X.555555555555",
"5555555555X@@@;<2=2X;3@333%@XX%X..@X.55555555555",
"555555555X%@@%32X;%=4;;42;<2;%%XX@@X.55555555555",
"555555555;@%X%2-O-X;4<#4;..@%%%$%@@@X.5555555555",
"555555555;@%.%=o-@.%3;@,3@..@&;;%@@@X.5555555555",
"555555555;;X.X-@OoX.;3X@33@<32=#%%O%X.5555555555",
"5555555555;X.X@O-X.X@4%.,3333&&;;%%@@X5555555555",
"55555555555@X.@-Xo...;2X.332*4*2%;%;%X5555555555",
"55555555555XX.o=o@...o:@.%33433%:#&*oX5555555555",
"5555555555XX.X.@;@=X..@XX.=3433<%:;2o55555555555",
"555555555X;X..X.X=;-.......@:<34#;#;o55555555555",
"555555555;%X.X.@X@-O=%o.X.X...o2:%&%%55555555555",
"555555555;o.X.@%@%=;2442.X@X....X#O<;;5555555555",
"555555555%oXX$X%$o;;;4424;2@@XX.%1#:#;%555555555",
"5555555555;%@XX%@@o-=-%;555;@#.X%;,#<%:555555555",
"5555555555%@%.@%%%.o-@=;555;4-X.%5;<;;>%55555555",
"555555555%#Oo.%%%@.oO@=%5555;%XXX55=#<;&55555555",
"555555555;@@oX%%%X.@@-%$5555;4%..55;:#<;%5555555",
"55555555%-$o.$@%@Xo-@=;55555o;%o.X55,;;>;5555555",
"55555555;%@o$o;@%@;=-=%555555;4o@@55;;>,%%;55555",
"5555555;#@Oo.@%%;@=-O;$555555o;@.oX55;:%&#&;5555",
"555555.4%=o@%%%%@5=o-%55555555;%XX=555;%;<;;5555",
"55555.4%%Oo@;;@#5X=o=%55555555o%X.@555;<%3>;5555",
"555554@-$o@X;$#@5;=@=$555555555;@XXX555;;;<;5555",
"5555;#%%-X;55@@55=-o;5555555555o%@X%.555;%1;5555",
"5555;4%=X$X555555==X;55555555555;%.oX5555;;55555",
"5555;%;@@X5555555=%O%55555555555o%oXX%5555555555",
"5555;#O@%X555555X%-o$555555555555;XX.o5555555555",
"55555;o+X5555555;=o=$555555555555o@@.o5555555555",
"55555XXX55555555;%-=55555555555555=oo55555555555",
"5555555555555555;=o%5555555555555555555555555555",
"5555555555555555;=-%5555555555555555555555555555",
"55555555555555555oo55555555555555555555555555555"
};
