/* XPM */
static char *magick[] = {
/* columns rows colors chars-per-pixel */
"48 48 29 1",
"  c #0a0905",
". c #1c2313",
"X c #271c0e",
"o c #2c2819",
"O c #373326",
"+ c #3c4230",
"@ c #463b2e",
"# c #4e4638",
"$ c #565148",
"% c #665950",
"& c #736759",
"* c #796f67",
"= c #88776e",
"- c #9a877b",
"; c #a4897d",
": c #988c88",
"> c #ad968d",
", c #b7a49b",
"< c #ada9a6",
"1 c #c49e9c",
"2 c #c4a89c",
"3 c #d2b7b1",
"4 c #e4bcb5",
"5 c #d8c2bd",
"6 c #e7c5b7",
"7 c #dcc7c3",
"8 c #ecd0cb",
"9 c #f9e2dd",
"0 c #fcfbf9",
/* pixels */
"$$##$$+$$%%$$$$#$$#$$$%%$$$+#%$$$$%%%$+$+++$#$$$",
":*<<<<<=%=*$<<<<<<<<%&**%<::::::>%**%=<<<<<<<*O0",
"*%*09709  @#0o*80970, .o&00090000% o#509909900 0",
"&$$07708 X>o0 o,97<0, $&$07575530= *$=03555550 0",
"*%>07700@=3X0$9077305 =;O07777750> 8+=05557570 0",
"=<087790X%> 009877507 *> 07777750> 9#&07757750 0",
"*:777799X:2X087777503 <> 08777730> 8##07777750.0",
"*:787790O*2X097778508 =,.097777502 8$$07577730+0",
"*<000003@%,O300000003 *>o00000000> 8%@00000000O0",
"$$..XX@@&#,%#@ XXXX##.=-$OXXX-OO#= 6&&#X.X.X.#O0",
"%%**=**==%>&=&###$$$-O$-&*$%#O##$, >=-#OO##OO#*0",
"%%*%%%%%&o&&====&=$#;#o=**==%%&&$3.*-&+$$%%%%#>0",
"&%$**$$$$@&#**&$&@XX#X %#=&&$O   @ o%#@$$#o.o =0",
"*&*08000000==-=%00000000&=:%>00000000@$%#&4,1>20",
"+$*9O076430& O&#07777750# o#-08889880..$O&4>>>>0",
"$**0X:77730: O-o08757550# =$=05777750  %#$6=23>0",
"%&$0,:87750> &,X08577770= 8#=05777750$ *$$2 %&X0",
"%=O09987550: %>X08577750= 8#%07777750$ &#+4$===0",
"%*o03333330, ;-X98355330- 8#$05577730& &#@4>>>>0",
"$:@00000000,X:;@00000000: 2%%00975890> &$@822,>0",
"%*O:;,>>,,,#o$:#:>>>>>,3#.2*#,-9000>3@ %$@-**&60",
"%:%$@OOOoo#=$O:&$@OOOOo#%O2=%@Xo@o@X#%.&$$OOOO$0",
"$**========-#@-=========-@-=*==*&&**=>.%%%%Oo+#0",
"+$OO#&&=*%@#  #OO#&*=&%@#  #OO#&**&&%* XOo+O..+0",
"*:577$&*%=972,5232#&=%=95225263#&&**;;&====%%%%0",
"=3000%=:$>09000000==-%=09000000#->&%824433433330",
"*:770X.o#=03335530O O%&03353530 X+OO3>=>>>>>>>;0",
"*:770@ =%=05777750$ ;%%05555530@ #$$4*%;>=;>=>>0",
"*:580- 2&&05775730- 8%#05575730* &%o1=%%=#%%@;>0",
"*:780= >&%03755750= 4$#05555530> $%.34%=1=>1>>>0",
"*:770= >&%07777750- 6$#087757305 #&o11;11==>;;;0",
"=<000=#2=$00000000& 6&@90000000, $&@144414443330",
"$+OO@=o:-#ooooXoO@# &-%@Oooooo@%X@&#OO...---:==0",
"%*=*=>O$-=======&=;X#;*=**&==*=;XO&$$$$$#Oooooo0",
"%&%%%= .=#%%%%&=**> O=&&&&&&&&&;. %$$$%$%%%%%%%0",
"%%%%%=Oo=%%$$%%#*&-O&;*&&=&&&&&=%%##%$$$$$$#$$$0",
"=<0000000000009#*===611>,1,,1>,,28;O%$$$$$#$$$%0",
"*:5777577777660%;2%#3>>;;-;-;;;;;>>O=***=******0",
"*:7777777577550X  .$1%*=>;;;-;-;->4            0",
"*:7777777775550o ###2&%&>-;-;;;-;-8  80999099990",
"*:7777777777750@ %%O5>>>:;-;--;;:-8. 80909900000",
"*:7737775555450O #%O83>;--;;;;--=>9# 30377465570",
"=<0000000000000% #*O-%-8663333589>=O 30578787870",
"%&===========*9% #*#Oo.OooooooooOoO$ :0387877780",
"$%%$%%%%%%%%%$== O&$$%$$$#$$$$$$$$%= %0578788870",
"&*====-========3 @*$$%$$$%$%$$$$%$$= *0357775570",
"%*===*=========2 .&###$#####+#$####& o0899999990",
"000000000000000000000000000000000000000000000000"
};
