/* XPM */
static char *magick[] = {
/* columns rows colors chars-per-pixel */
"48 48 28 1",
"  c Gray0",
". c #32302c",
"X c #503930",
"o c #6c3e2f",
"O c #7f402f",
"+ c #894d33",
"@ c #8f772f",
"# c #9e5940",
"$ c #9f6040",
"% c #b26e52",
"& c #90807f",
"* c #c68c6d",
"= c #efb75a",
"- c #efc448",
"; c #ffd070",
": c #a5948f",
"> c #bfb0af",
", c #dfa78f",
"< c #c0b0af",
"1 c #efb191",
"2 c #f0bfa0",
"3 c #f8ccb0",
"4 c #fff7b0",
"5 c #dfc8c0",
"6 c #e0d0cf",
"7 c #f1e0d0",
"8 c #fdfafb",
"9 c None",
/* pixels */
"999999999999999999999999999999999999999999999999",
"999999999999999999999999999999999999999999999999",
"999999999999999999999999999999999999999999999999",
"999999999999999999999999999999999999999999999999",
"999999999999999999999999999999999999999999999999",
"999999999999999999999999999999999999999999999999",
"999999999999999999999799999997999999999999999999",
"999999999999999999997779999977799999999999999999",
"999999999999999999967776999784779999999999999999",
"99999999999999999978875>797748477799999999999999",
"999999999998889997688>>:<775<784887%+%%999999999",
"99999999998888877>>8>>:88<5885<74885@*%999999999",
"99999999978888888<%:>:885:88885<748855*999999999",
"9999999978888888<6:&8885%:8888883848<855%+%%9999",
"9999999888888886:>87>65::85855<<<4++%%++%@*%9999",
"99999+%67888886<:7487>::855%%+#%%+++#+%%=@;*9999",
"99999O:7888886:&7484++++++%@@@+1*$+%++++%*%+9999",
"9999XO:78768666+++OO+XO%#+%7--+*1%++o++#+++*9999",
"999...:778+%%%@*,*+++X+O%X%@@%+*1%oOO+++%%%,*999",
"99*O.. :::O**-@=%+OOO+.+O%.....+1*O+%%%***1*,999",
"99%O......X+$%%++X......++%..X.%1%%%%=*137722999",
"99%$.X.................XX$+*****%%$%**11371*1999",
"99#++XX. .....X.XXXXXXXO+O++%%%%%%%*11*******999",
"99#OOOXX..X.XXXXXXoOooOOOOoo++%%**1**********999",
"99++OOoX..oXOOOOoooOooO+oo++%%%*******%%*%%%*999",
"99+OOOoXXXOOOOOOooOOO++++##%*%******%%#$%+%%%999",
"99+OOOXXXX+++$++++++++%%**%%%%%%%%*%$+*%++$%%999",
"99OOOXXXX.o+%%*%%%%*%**%*%%%####+%%%++%%++%%%999",
"99OOOXXXX.O+%%%%%%**%*%%$+o+++++++++++%%++#%%999",
"99OOXXX.X.o++%%%%%%%%$+++++O++++++++++%%+++$+999",
"99OXoXX...Xo++++++%%++ooOOO++O++OO+O++%%+++$+999",
"99OOXXXXX..XoO++Oo%%oOXoooo+O++OOOOOOO%%++#++999",
"99OOXoX...XXXXXOOX$#XOOOXOOOOOOO+OOOO%O%$O++@999",
"99XOOXXX.XXXXXXXXX$+OXOXXoXXOOOOOO+OO%*$%O++#999",
"99XXOXXXX.X.XXXXXX++XXOXOXXoXXXXXXOOo%%+++O+#999",
"99XXOXXXX.XXXXXXXX$+XoXXXXXXXXXXXOXOoO%*OOO@#999",
"99X.XXXX..oXXXXXo+o++XXXXXXXXXXXXOooOX%%Ooo+o999",
"99X..X....X..XXX+++++XXXXXXXXXXXXXXOOX+$Oo999999",
"999O...X.XOo.XXXOo+ooXXXXXXXXXXXXXX...$$99999999",
"9999X.X..OOOOXXXoO*%XXX.XXXXXXXXXXX9999999999999",
"99999O...OOOXXXXX.*%....XX....999999999999999999",
"999999..X+OOoXXXX.%#.....99999999999999999999999",
"9999999..OOOXXXX..++9999999999999999999999999999",
"99999999.OOOXXO999999999999999999999999999999999",
"999999999OOO999999999999999999999999999999999999",
"999999999999999999999999999999999999999999999999",
"999999999999999999999999999999999999999999999999",
"999999999999999999999999999999999999999999999999"
};
