/* XPM */
static char *magick[] = {
/* columns rows colors chars-per-pixel */
"48 48 32 1",
"  c #09090a",
". c #0c0c1f",
"X c #1f0f1b",
"o c #1f201f",
"O c #112219",
"+ c #1f202f",
"@ c #1b2c2f",
"# c #2e262b",
"$ c #2f2e42",
"% c #1f2d40",
"& c #2d402d",
"* c #2f4046",
"= c #2d4960",
"- c #422f43",
"; c #45402f",
": c #49464b",
"> c #4b4e61",
", c #636e6c",
"< c #5a5e5f",
"1 c #422e29",
"2 c #6f7680",
"3 c #507780",
"4 c #70876b",
"5 c #6f8881",
"6 c #807667",
"7 c #807780",
"8 c #868b6c",
"9 c #838e89",
"0 c #93a498",
"q c #cfc8af",
"w c Gray100",
"e c #c7bc94",
/* pixels */
"wwwwwwwwwwwwwwwwwwwwwwwwwwwwwwwwwwwwwwwwwwwwwww ",
"wwqwqqqqqqqqqqqqqqqqqqqqqqqqqqqqqqqqqqqqqqqqqq5 ",
"ww00000000000090900950505509999999969975925985< ",
"ww00000009009900009905059959999597998598997657, ",
"ww00000000009000999050900077279979998989699565< ",
"wq00000000090909999505595799997997799795895595< ",
"wq0900>>::::::::::::>:::>>->->>>:-:::::::w7759, ",
"wq0000>.  . .  ...... ..X+$$+X++++$...+..w259,> ",
"wq0090>.   X  X X X  O@o-<77***$:*;*@o#o+w5575> ",
"wq0900:..   XO X  X&@+##,<8>::*<59<#+#XX@w7756> ",
"wq0000<+#  X  ..oXo@1:::->$%o###55<>##-$ow5522> ",
"wq9000:&&O   @+%&+;$:5,::#$+oo&1+#&$#*::+w5525> ",
"wq0990:.X   X+O%#-;66;#o##*$ooo-#o#<<<--#w6727< ",
"wq0009:  X.. ooo:=8,<#+&:*;o#+;:##o:$**+@w5222> ",
"wq9090:%@O@oooo:,:4<:1*<:&o#&#@+Xooo%%+OOw5522> ",
"wq0999<%-XO+&oo*;:<;&<4<=;;##ooooo #oXXXow72,,< ",
"wq0059:++ o$*##:=:$:;-<,;;::;&;:# X...o ow5,22> ",
"wq0505>+-O+::2:*:$=:<<,,86<,<4**#+O@O OOow2222: ",
"wq5050:+*6##$:>,&;:::6888884;<-*:#oo#X XXw22,2> ",
"wq0505>+*$#o@$>,:$;,888888886&::<:@o##X.Xw22,,: ",
"wq5905>+%+OO&@,,;;;<88eeee888,:>,8$$o1+O w,32,: ",
"wq0550>+$+X+X+;>:;,808eee0088;88>::;oXXX w25,2: ",
"wq5995>@$@o+ o::*::,88qee88464<,<:##+o + w,,5,= ",
"wq5095:.%o+%o#<>$&<<98ee0888<:<,>&o&Oo. @w,,2,: ",
"wq9929>%*#o#$$>5>1:,48e88<<;;;88<<%o+o X.w25,,: ",
"wq9999>+*oX+$>>::;:::,,:;:<:;<8,*>&+Oo XXw2,,,$ ",
"wq9999>X> .o$++&*>$11;;+;;;;,58<**@X@OXX w,,2,: ",
"wq9579:+:o OXo#,,*:+1##1<;1;<2,*&#X&X+o# w,,,,$ ",
"wq9997>+<oX  X#*$++@o+#o1+1:,,*#@oX      w,,,,$ ",
"wq9959>.-,XX  .O+.OOo1o#o#$4,;@O-oOXoX+O w,,,,= ",
"wq9798>.$1#+o. #o+o@o:&,$:959#oooXX;X  . w,,,,$ ",
"wq9699>+:%*==*+###$*#%$:::48<&oX    XO  .w,,,,; ",
"wq9699:.X>%$=>,,:o$%-#:,95=>=-o . XXOO.+ w,,,3$ ",
"wq5928:. .O#$:,,<-$1*:405>$;$oXX    Xo   w,,<>$ ",
"wq9999:.X.++#;=,,<@$452>:$&61<..  X X+X  w,,<,: ",
"wq9,95:.. O+@&<<>,05533=##$=.oO XO XO  O w,<,<$ ",
"wq6799:. o++##$**45,<=>*$oOo#-XXOoo# X   w>,<>* ",
"wq9995:. #XXo&$+X$*$=:>>+ooo=>#$. X    X.w2,<,$ ",
"wq9569:.X+ @OO%@@$525=*$OOXo@XOO X     O w<<,<* ",
"wq8295:.XXX.+oo*,,q8,$+.Xo.XXO..O   X    w><<>; ",
"wq8955:....o.+:>=><*$+$.XX.       .+   . w,<<>* ",
"wq9577wwwwwwwwwwwwwwwwwwwwwwwwwwwwwwwwwwww<<>,* ",
"wq575572,72272,22,24,2,,,,,,,,,,,,,<<,,<<<<<<<% ",
"wq575272222222,25,2,,2,,2,,,,,,,,,,<<<,><<>>>>$ ",
"wq952252222,252,,2,,2,,2,,,,,,,,,,,,<<,<<<<<><* ",
"wq56,,72272,2,,2,,2,,,,,,,,,,<,,<><<>><<><>>>>$ ",
"wq<,<<,><<>><:<<::>:>>::$$$>$:$$:$$:-;*&*$%$$%+ ",
"w                                               "
};
