/* XPM */
static char *magick[] = {
/* columns rows colors chars-per-pixel */
"48 48 31 1",
"  c Gray0",
". c #222222",
"X c #282828",
"o c Gray20",
"O c Gray22",
"+ c #444444",
"@ c #484048",
"# c #4c4c4c",
"$ c #555555",
"% c #525a5a",
"& c #595759",
"* c #5f5f5f",
"= c #616561",
"- c #67636f",
"; c #666671",
": c #767676",
"> c Gray49",
", c #707080",
"< c #ce7352",
"1 c #847b84",
"2 c #868686",
"3 c #8e8e8e",
"4 c Gray60",
"5 c Gray64",
"6 c Gray68",
"7 c #bdbabd",
"8 c #c3c3c3",
"9 c #cecece",
"0 c #d3d3d3",
"q c #ececec",
"w c Gray100",
/* pixels */
"&&&&&&&&&&&&&&&&&&&&&&&&&&&&&&&&&&&&&&&&&&&&&&&&",
"&                                              w",
"& 222222222222222222222222222222222222222222220w",
"& 2:2222222222222232333533333523553555555565660w",
"& 222>22222323335335353335363555555555565666660w",
"& 22>2>2232323322533333533535555355555555666660w",
"& 222222223233567778886655335355555555566666660w",
"& 2>222232336663:*$$$*>565555555555565656666660w",
"& 222222323683=@Ooooooo#:3653555555556566666660w",
"& 22223233663@Xo+$;:-=+oX$365555555566666666660w",
"& 2232323663X.#=>244653:+.O36555555666666666670w",
"& 222323574X.-:3798767776=.o5555556566666666760w",
"& 22323565+.,*7qqq083333562 O565666666666667670w",
"& 2223356:.+;40qqq832222234$.$46556666666676760w",
"& 2233264#.;18qq082:::::::23.o>5666666666676770w",
"& 2233362o+;590q95:;;;;;;;24o.-3666666666677670w",
"& 223337:X$:500082;:::::::>4$.#3666666667676770w",
"& 223337=.$,100q72::22222225:.@2666666667767770w",
"& 225337;.$::8q095>2555555562.O2566667676677670w",
"& 233337;.#;:800q73666677677:.+:566676767768780w",
"& 235336:X+=;70qq08678888987+X+2666767676777870w",
"& 233536>+.=;30qqqq999998907.X%>467676777777780w",
"& 2333353=.@:28qqq099999907,.o$2666767676877780w",
"& 2353334>X.:16000999999005o.+;3466767777778780w",
"& 23353333=.O3699999999096# +$,3667677777777780w",
"& 233535233#.=47999909075$ .$$25567777777878880w",
"& 2353333223+.+26678866:o. o,;>4667767778778870w",
"& 23555533125+..o*:3:#o.X++.53;2667687787787880w",
"& 233334433:13-$o.   oo#$%&+ 6;#177777778878880w",
"& 2365555522>2>::=$%@#$;;;:; *@54<7778788788880w",
"& 25355555523>:2>>>>2>>::>:;&.o<66:777878888880w",
"& 25555555553222>>2221,>>22::#.@<65<88788888890w",
"& 23535555555522222>>12>3222::+X@<64>7888888890w",
"& 2555555556655533332235355522:+X@<7<4778888990w",
"& 2355555556556664555555666652>1#.o<0<478888990w",
"& 25555556656666666666666766652>:#.@<0<27899890w",
"& 25555555666666666676767777766311& o<<o=889990w",
"& 25555666666666666767676777766542:* O..=889990w",
"& 255565566666666676767777777776542>*. O2889990w",
"& 2565666666666667676777777778776542>#*:5889900w",
"& 25656666666666767677777777888877643>236799900w",
"& 256566666666767676777777788788877642346899900w",
"& 256666666666776777777777887888888775567990900w",
"& 266666666677676677777778878888888877789999000w",
"& 266666666767677777877788788888888989899990000w",
"& 666666667676767777778887888888898999999000000w",
"& 000000000000000000000000000000000000000000000w",
"&wwwwwwwwwwwwwwwwwwwwwwwwwwwwwwwwwwwwwwwwwwwwwww"
};
