/* XPM */
static char *magick[] = {
/* columns rows colors chars-per-pixel */
"48 48 32 1",
"  c Gray0",
". c #030b11",
"X c #0d0e2b",
"o c #1c2231",
"O c #11234d",
"+ c #242652",
"@ c #292c6a",
"# c #1a114a",
"$ c #30446a",
"% c #453359",
"& c #5b565a",
"* c #52442b",
"= c #334c88",
"- c #454c8d",
"; c #545ead",
": c #5c62bd",
"> c #778871",
", c #748be4",
"< c #89726a",
"1 c #886633",
"2 c #927788",
"3 c #aaa238",
"4 c #b39b47",
"5 c #b4ac4b",
"6 c #9b9362",
"7 c #c6b154",
"8 c #ceb863",
"9 c #cdc664",
"0 c #d1c660",
"q c #a99b95",
"w c #e9eae9",
"e c #bfb9c6",
/* pixels */
"                                                ",
" 8989888787978777757575557475554545454333434343w",
" 8888587978785778575857555454445434343434343433w",
" 8989898587878775757555555743555345434543434343w",
" 0808787858787857875757575544543434343434343336w",
" 8989890997978787757578555755554535434345434344w",
" 0808988879797857777757574755546634443434343434w",
" 89098989895985859595755575556qww>5634533334333w",
" 080898956***&334775777775751ewwww6545434343434w",
" 998998*o+&&&*X*&&&134775751ewwwwwwq54545434545w",
".98087*o&---;$-oX+@oo+&&<6&eweqwwwee<5434343434w",
".9099**------;--+.++ ..Xo&weqq>eweeq74545454345w",
" 0981o-----------+.$o ..>weqqqwwwe6645434343434w",
".988X&--------=-$-X+$.oqeeqewewe&$$&*3545454545w",
" 001+--------$-$@$@.$o.&qee6ee&X.@--$O354344434w",
" 98o$-=-=-=-$=$$$@@Xo$...$>>>+.X.@@@@++45354545w",
" 04o---@-@-=-$@@@@@OX&....X...X.++#++#+14743444w",
" 0o+=-=-=-@=$@@@@@@@.$$oooXXX...++O+O+++5534555w",
" 0.@-----@-@@@@@@+@+X$+XXX.X#O#X#XoXoo#+4545454w",
" 8.-=-=-=-$=@@@@O@O@X+$X.XXXXXX#O@O+O@@+6537555w",
" 8X------@@@@@@#++@##o@.X.X.Xo+oOO#O@O#o*455474w",
" 6X--;;;--@=@@O@OOO+X#@X.X..XXXXoOO@oXoO*555455w",
" 6X;;;:;;--@@+@++O#+#X$#XXXXXXXXXXXX#XXo%575754w",
" 6o;:::::;=-@@++O+O@oX$@$@$@@@@@@@@@O@@+o555557w",
" 6X;::,,,;-@@+@##++OXX$$@@@$@@@@@@@+@+@O#475757w",
" 6o;:,,,,:==@@O@O@O+oX-@$@@@@@@@@@+@@@@@O775775w",
" 6X;::,,:;--@+++@O#+#X=@=@@@@@@@@+@@++@O+575757w",
" 6o;::,,:;=@@+++O+O+oX$@@@@@@@$@@@@@+@@OO757759w",
" 6X-;;;-$$@@@+@+#++OoX@@@$@@@$@+@+@+@O@O#775857w",
" &X-;--wweq2<<&&+@O+oX@@@@@@@@@+@@+@@@+@O857575w",
" 6X--=-wweqqq<<&#@#@#X$@@$@@@+@+@+@+@O++#777858w",
" 4X=@=&wwweqq2&&+@O#Oo@@+@+@&$$$$&$&&%&&o877575w",
" 6o$@$&wweqqq<&*++++#X@$wwwee8e8q2q<<<<*#797757w",
" 6X@$@$eeqqq<<&%+@O@OX@-wwwwweqqq2<<&<&%O878787w",
" 6X@$@@qqq66<&&&#++@#X@$wwwweeqqqqq<&&&*#787977w",
" 6X@@@$qqqq<&&&*#@O+oX$$wwwwweqq6qq<&&*+o897789w",
" 5X+@++qq6<&&*%*#+++#X=&wwwe8qqqqq2<&&&*o797859w",
" 6X@@@%q6<&&&***O+O+O#@$eeeeqqqqq26<&&*+o898988w",
" 5X+@O++@%%%%*o.#+++#X@$qqqqqqqq2<<&&**oX987878w",
" 6X@O@+@+@+##+#+O+O+o#$%qqqq8qq26<&&&&&+o898999w",
" 6##++++++@++@+#+++##X=$qqqqqqq6<&&**%**X980878w",
" 6X@#@O+O+O+O#O+O+O+o#@@qqqq6q6&&&&&%*%+o898989w",
" 6X+++#@+O#++##++O#O#X@@2qq<2<<&&&&*oo+oX989898w",
" 1X+#@O+O+O+O+O+O+O+o#@@qq<q>&&%%*o#o#o#X899909w",
" 5X+#++O#++O##+O#O#OoX@@<6&&%+oo#X#oXXoX#080808w",
" 6.+O@O+O+O+O@O+O+O#o#@@++OOOOO#oXX#ooXXo999989w",
" 6X+@O#+##@O+O#O+O#O#X@@+O#O#o#oXoXX#Xo#o000008w",
" wwwwwwwwwwwwwwwwwwwwwwwwwwwwwwwwwwwwwwwwwwwwwww"
};
