/* XPM */
static char *magick[] = {
/* columns rows colors chars-per-pixel */
"48 48 31 1",
"  c Gray0",
". c #103020",
"X c #201020",
"o c Gray14",
"O c #303441",
"+ c #413849",
"@ c #514d4d",
"# c #595961",
"$ c #714159",
"% c #6a6867",
"& c #718a96",
"* c #9e5961",
"= c #cf5d59",
"- c #ff9a71",
"; c #8e8a9e",
": c #9e9aae",
"> c #9ea2b6",
", c #ae9aae",
"< c #aeaa9e",
"1 c #b9b8ae",
"2 c #c79aae",
"3 c #dfbacf",
"4 c #efe3be",
"5 c #d8d5d8",
"6 c #dfebdf",
"7 c #dfebef",
"8 c #ead3cf",
"9 c #efdbef",
"0 c #ffedcf",
"q c #f4f4f8",
"w c None",
/* pixels */
"wwwwwwwwwwwwwwwwwwwwwwwwwwwwwwwwwwwwwwwwwwwwwwww",
"wwwwwwwwwwwwwwwwwwwwwwww0#wwwwwwwwwwwwwwwwwwwwww",
"wwwwwwwwwwwwwwwwwwwwwww400$wwwwwwwwwwwwwwwwwwwww",
"wwwwwwwwwwwwwwwwwwwwww00000%wwwwwwwwwwwwwwwwwwww",
"wwwwwwwwwwwwwwwwwwwww4000400$wwwwwwwwwwwwwwwwwww",
"wwwwwwwwwwwwwwwwwwww000000000#wwwwwwwwwwwwwwwwww",
"wwwwwwwwwwwwwwwwwww4000 000400$wwwwq#wwwwwwwwwww",
"wwwwwwwwwwwwwwwwww0000@00 04444#;qww#wwwwwwwwwww",
"wwwwwwwwwwwwwwwww4000100144 11#qqqqqw#wwwwwwwwww",
"wwwwwwwwwwwwwwww0000 00 51#1@qqqqqqqq%wwwwwwwwww",
"wwwwwwwwwwwwwww4000 001511 qqqqqqqqqqq$wwwwwwwww",
"wwwwwwwwwwwwww0000@05 11@qqqqqqqqqqqqq#wwwwwwwww",
"wwwwwwwwwwwww4000@81 11qqqqqqqqq#2qqqqq#wwwwwwww",
"wwwwwwwwwwww0004151 1qqqqqqqqq=#qqqqqqq$wwwwwwww",
"wwwwwwwwwww4002 111qqqqqqqqq 1qqqqqq#qqq$wwwwwww",
"wwwwwwwwww0002@11qqqqqqqqq1=qqqqqq#=qqqq@wwwwwww",
"wwwwwwwww4022 1q68686868= 686858=#5858685@wwwwww",
"wwwwwwww0212@q62121212 =121212@@121212#21%&wwwww",
"wwwwwww0*%%122%****% $$$$$$$ #$$$$$$  $$$$$wwwww",
"wwwqqqqqqqqqqqqqqqqqqqqqqqqqqqqqqqqqqqqqqqqqwwww",
"wwwqq9qqqq9q9999769696955595655958585555958q@www",
"wwwq$$3$1$$q7q77696969656965695555553555585q @ww",
"wwwq0qq99q769696969685969569656858555o===o8q O@w",
"wwwq$$$q$9$$7969696767596855955555555-8@*=5q o+w",
"www79qq7q6999696969595956965985855555-.$=o8q o@w",
"www9$$$9$9$$$$69696669666555555555555=oo@=5q oOw",
"wwwq0qq696969696069586655568585853555oo...5q o@w",
"wwwqq9q9q9797969696965595959555555551555555q o+w",
"wwwq7q9q99999695959566595555585855555585555q oOw",
"wwwq79977q771269,615>9655955555555515515515q o+w",
"www9q9q69696 *%58%O% 5%o%958585555555555855q o+w",
"wwwq6q797q666766696669695555555555551515555q o+w",
"www776969696%%96o1,o66O8,858O55555851585555q oOw",
"www97q796969%5%O> 5Oo% 6%, 5o:5555155551115q o+w",
"www6999696959695959599959598655585858515555q o+w",
"wwwq77696969%5 ,5O515%>55%6%5%o5%5o51555555q o+w",
"www696969695%%8%1%%o%5 #5%o%5oo%##o551<5555q oOw",
"wwwq696969666966555955595553551555555555156q o+w",
"www9999605959555565858385855858545555551155q o+w",
"www97969696965679565555555555555515151<5155q oOw",
"www7969596955659555595585555558555555555555q oOw",
"wwwq696969666565566555665556555555565555556q oOw",
"wwwqqqqqqqqqqqqqqqqqqqqqqqqqqqqq7qqqqqqqqqqq oOw",
"www                                          oOw",
"wwww@ooooooooooooooooXooooooooooooooooooooXoX+Ow",
"wwwwww@+@+@@@@@++@@+O@O@O@O@O@++O++O++O+o+O+O+#w",
"wwwwwwwwwwwwwwwwwwwwwwwwwwwwwwwwwwwwwwwwwwwwwwww",
"wwwwwwwwwwwwwwwwwwwwwwwwwwwwwwwwwwwwwwwwwwwwwwww"
};
