/* XPM */
static char *magick[] = {
/* columns rows colors chars-per-pixel */
"48 48 33 1",
"  c Gray0",
". c #01012e",
"X c #112233",
"o c #111146",
"O c #0f274c",
"+ c #221144",
"@ c #292c4f",
"# c #2b3268",
"$ c #334455",
"% c #314e6f",
"& c #286670",
"* c #443366",
"= c #4d506f",
"- c #556677",
"; c #665577",
": c #656577",
"> c #4b5288",
", c #52668b",
"< c #665588",
"1 c #69698b",
"2 c #758799",
"3 c #7788bb",
"4 c #887799",
"5 c #8f91b1",
"6 c #9fa4b6",
"7 c #99aacc",
"8 c #b5b9d2",
"9 c #bacbdb",
"0 c #cabae0",
"q c #d7d7ec",
"w c #d8d8f8",
"e c #fcfeff",
"r c None",
/* pixels */
"rrrrrrrrrrrrrrrrrrrrrrrrrrrrrrrrrrrrrrrrrrrrrrrr",
"rrrrrrrrrrrrrrrrrrrrr99rew6#2rrrrrrrrrrrrrrrrrrr",
"rrrrrrrrrrrrrrrrrrrr8eq586;@.@rrrrrrrrrrrrrrrrrr",
"rrrrrrrrrrrrrrrrrrr0ew55...1O#:rrrrrrrrrrrrrrrrr",
"rrrrrrrrrrrrrrrrrrr88:88<8=@+:@rrrrrrrrrrrrrrrrr",
"rrrr               1ee-1...1...            errrr",
"rrrr &%&&&&&&&%&&&%e1-8818<..:.&&&%&&&%&&&%errrr",
"rrrr &&&&&&&&&&&&&&1ee-1...1...&&&&&&&&,&&&errrr",
"rrrr &&&%&&&>&&&%&&e<:88<8:..:.&>&&&&&&&%&&errrr",
"rrrr &&&&,&&&&&&&&&1ee-1...1...&&&&&&&&&&&&errrr",
"rrrr &%&&&%&&&%&&&%e1-8818<..-.&&&%&&&%&&&%errrr",
"rrrr &&&&&&&&&&&&&&1ee-1...1...&&&&&&&&&&&&errrr",
"rrrr &&&&&,&%&&&%&&e<:88<8:..:.&%&&&>&&&%&&errrr",
"rrrr &&&&&&&&&&&&&&1ee-1...1...&&&&&&&&&&&&errrr",
"rrrr &%&&&%&&&%e.&%e1-8818<..-.&1.%&&&%&&&%errrr",
"rrrr &&&&&&&&&&e.&&1ee-:...1...&-.&&&&&&&&&errrr",
"rrrr &&&>&&&%&&e...e<:88<81.......&&%&&&&&&errrr",
"rrrr &&&&&&&&&&e.&&eee-1..@o...&,.&&&&&&&&&errrr",
"rrrr &%&%&&&%&%e.&%eeq711$+....&1.%&%&%&%&%errrr",
"rrrr &&&&%&&&%&e.%&eew85-=@o...&-.&&&&&&&&&errrr",
"rrrr &%&%&%&%&%e.&%eee05<=@X...&<.%&%&%&%&%errrr",
"rrrr %&%&&&%&&&e.%&eew95,;@o...%,.&&&&&%&%&errrr",
"rrrr &%%&&%&%&%e.&%eew051=@X...%1.%%%&&%&&%errrr",
"rrrr &&%&%&%&%&e.%&eew96-=$X...%1.&&&%&%&%&errrr",
"rrrr %%%%%%%%%%e.%%ewe85<=@X...%4.%%%%%%%%%errrr",
"rrrr %%&&&&%&&%e.%&eww95-;@o..O%5.%%&&&%&%&errrr",
"rrrr %%%%%&%%%%e.%%5qw81=$@X..@%5.%%%%%%%%%errrr",
"rrrr %%&%%&%&%&e.#&>2821%@O..O%%8.&&&%&%&&%errrr",
"rrrr %%%%%%%%%%9OO%%>:=$@.o..#%%8.%%%%%%%%%errrr",
"rrrr &%&%%&%%%&35o&%%%Oo..O#%%&,-o&%%%&%%%%errrr",
"rrrr %%%#%%%%%%,q.#%%%%%%%%%%%%7@O%%%%%%%%%errrr",
"rrrr %%%&%%%%%%%81.%%%%%%%&%%%8*O#%%%%&%%%%errrr",
"rrrr %%%%%%%%%%%18<.%%%%%%%%58=o#%%%%%@....errrr",
"rrrr %%%%%%%%%%%%181=#%%%%188@.#%%%%OOO%%%%errrr",
"rrrr %#%%%%#%%#%%%1##-46871=.O#%%%%%o%%#%%%errrr",
"rrrr =%%%%%%%%%%%%%%%#Oo...oO#%#%%%#.#%>%%%errrr",
"rrrr %%##%%%%%#%%%##%#%86O%%#%%%%%#%@O%#%%%errrr",
"rrrr %=#%=###%#%#%=%%%%q5@#%#%#%%#%%#.%#%#%errrr",
"rrrr %#%%##%%##%%*#%#%>95@##%%#=%%##%O#%%##errrr",
"rrrr %#%%%=#%%#=%#%#>8ee2#.#%*%##%#o.%#=%%%errrr",
"rrrr %#%*###*##=*%#>0ew61@.X.....o@#*##%*#%errrr",
"rrrr %#%#=%%%%#%$%7eew85-@...o#%%%#%%%%%#=%errrr",
"rrrreeeeeeeeeeeee6eew872-@@X...eeeeeeeeeeeeerrrr",
"rrrrrrrrrrrrrrrr58qw9851==@@..@.rrrrrrrrrrrrrrrr",
"rrrrrrrrrrrrrrrrrr8wq61-==@@X.=4rrrrrrrrrrrrrrrr",
"rrrrrrrrrrrrrrrrrrr5251=@oX#-46rrrrrrrrrrrrrrrrr",
"rrrrrrrrrrrrrrrrrrrrrrrrrrrrrrrrrrrrrrrrrrrrrrrr",
"rrrrrrrrrrrrrrrrrrrrrrrrrrrrrrrrrrrrrrrrrrrrrrrr"
};
