/* XPM */
static char *magick[] = {
/* columns rows colors chars-per-pixel */
"48 48 26 1",
"  c Gray0",
". c #281808",
"X c #38240c",
"o c #492c10",
"O c #553414",
"+ c #593818",
"@ c #65411c",
"# c #794d24",
"$ c #7d5124",
"% c #5a5a5a",
"& c #86592c",
"* c #966534",
"= c #9a6938",
"- c #aa7545",
"; c #ae7949",
": c #b68251",
"> c #be8a59",
", c #c79665",
"< c #cf9e6d",
"1 c #d3a275",
"2 c #d7aa7d",
"3 c #dfb28a",
"4 c #e3ba92",
"5 c #ebc7a6",
"6 c #ebcbae",
"7 c Gray100",
/* pixels */
"%%%%%%%%%%%%%%%%%%%%%%%%%%%%%%%%%%%%%%%%%%%%%%%%",
"%                                              7",
"% >,,<::>>:>:>>::>>:,,,>><,>>>:>,,,<,,>>::,>>,>7",
"% >->>:,:>>:,>>>>>,:,>--**--:,:<>>,>>>,::::,>>,7",
"% ->>>>>,:>>:,>,,>,-&@ooooOO+#->,,,,><,>>>>,><<7",
"% >>>,<,,<,>>,>,,,&oo+OXoXoo++O+->,,<>>-,:,,,,<7",
"% ,,>1,,,,,<,,<>>#oO+#XoooooXOO+O=,,<<,>>,><1117",
"% 1,<<<>>,,>,111#oOO#+oOooXXoXoOOo*,,<<,,>,><117",
"% ,<,,<2<,,,<11=oo+&-=&#OoXooXoo+OO-,<,<>,,,<<<7",
"% ><<<,,<,<<13,O#:12311:;&@ooooOOOO+:,<1<<<><<<7",
"% <,<,<,<,<231*+:14666421:&#OoXoOO+O$1121<1<<,17",
"% ><<,<<,<133>X*1566666611-$+ooXXO+Oo>1<1111<117",
"% <<<11312363@+:365565664<;*#OoooXOoo&1<,<111127",
"% <111111135>@+:365665643,;=&+OoXXXoXo,:>,,,,117",
"% 21,111,12,&+$>4665565321,:=*@ooXXXXo*=::;:,,17",
"% 112112222>++&1455556563311>=#OOooXoX#*===;,:,7",
"% 236161615=++&,44555532211,:=@+OooXXX@&&*=--;:7",
"% -:121615,*++@,,><432---;;=*&@O++oooo@@$&=-=:;7",
"% =**12161;@++@@==*,2-@&-&@+o$#OOOooooO@##$*===7",
"% &**16111>@+++o-X@;3&&;;X$@=-$oOOoXoXO@@@#***$7",
"% $**,,=->:++X=>>:-13&-11:=>1:&OOOooXXO#@##@&$@7",
"% @$@=&&+*=+oX=331213;>223331;$++++OoOo+@@$=@#$7",
"% +@@X@$@@@$XX&144342<;64641,-$+@++O+OO#####$@@7",
"% +++++@+++X++$144343:126431-=@O+@+@+OO$**==;;=7",
"% +X@@+X+X++XX+123143>;4232>=@@++++O+OO++@$&$*=7",
"% @#++++XoX+++X-12>3,&=343,;=&+O++@++O+++++#$@#7",
"% @O++++oXoo+oX&:12:@X&12,:=&#+O+@OO+OOO+++++@+7",
"% ++++oo++oooX+@;-21=;;;;>;=*#++@+@#+OO+@@@@@@@7",
"% ++O+X+ooXo++X$-:-:;&&&>>:-@@+o@+OO++++@@@@@@@7",
"% O+oo+o+OoO+o+X=>11;;=;>,:&&@+O++++O++++@@#@#@7",
"% O++Oo+++OXo++X+=1<;-;;:-=@$+oOOOO++OOO+@+@#@#7",
"% +#@@@@$$O@X+o++X-253>:=*@@++O+OO++O+OO+##@###7",
"% +O+++@@#+X+++oX+X><>;=@@@@+oooOo+++OoOO@@@#@#7",
"% O+++#&-=@oO+o+XXXX&@@@@+@+o++oOO++OOooO@@+@#@7",
"% @$###$==$++o+oXXXXX+@X@++o@o++OOOOoOooO@++@#+7",
"% $=$;--==&+Xo+ooXXXX@+@X+o++@@+OoXooooXo+@@+@#7",
"% &;---$-&&@++ooo.oXX=*@@++@$$$@Oo+oooooo@+@&@@7",
"% $-*$--$*$@o+ooXXX+X@;-=&$$$&&$+ooooXooo+@##$#7",
"% +$-##&&&#+OO+oXX.Xo#;-;==*==-=$+o+oo+XXooOOOO7",
"% $oX+@+OoOoXXoXXXo+@&;::;--;:;=&++o+++oooXo++O7",
"% #ooXoooXoooOooooo&:1,,>>:,,,,>*@+@@++OooXoOoO7",
"% +oX.XoOoXoOoOo+$=:13131111111>-&@@&+OOOOo+O#$7",
"% @oXo.XOooOooOO&:2133322336221,=@&#&@OooOoooO@7",
"% +XXOoo+Ooooo+o>1,633663362621,;&#@#+oo+ooooO+7",
"% +OOOoO++Oo++@&13466626262616,1-@&#@+O++OOoXO+7",
"% @+O+O++ooO++#;126664632663621,*&&@@OOoO@++OoO7",
"% @+@$OOoooo@$&>662666364363361,*@&##oO+$#+@Ooo7",
"%77777777777777777777777777777777777777777777777"
};
