/* XPM */
static char *magick[] = {
/* columns rows colors chars-per-pixel */
"48 48 33 1",
"  c #010101",
". c #1e2834",
"X c #2c2d2b",
"o c #223551",
"O c #324b34",
"+ c #264a74",
"@ c #595333",
"# c #5c5c59",
"$ c #696d4f",
"% c #3060a7",
"& c #3e76c4",
"* c #4f729a",
"= c #437ace",
"- c #668568",
"; c #5487ae",
": c #5c98d7",
"> c #867a37",
", c #8f794e",
"< c #948d36",
"1 c #aeae34",
"2 c #a59549",
"3 c #a09957",
"4 c #b3b16a",
"5 c #bcc474",
"6 c #cfb36b",
"7 c #d8cd6e",
"8 c #a9ad96",
"9 c #dfd595",
"0 c #c3c1a8",
"q c #f9f8a9",
"w c #f3e3d1",
"e c #fefaf6",
"r c None",
/* pixels */
"rrrrrrrrrrrrrrrrrrrrrrrrrrrrrrrrrrrrrrrrrrrrrrrr",
"rrrrrrrrrrrrrrrrrrrrrrrrrrrrrrrrrrrrrrrrrrrrrrrr",
"rrrrrrrrrrrrrrrrrrr  rrrrrrrrrrrrrrrrrrrrrrrrrrr",
"rrrrrrrrrrrrrrrrrrr 9  rrrrrrrrrrrrrrrrrrrrrrrrr",
"rrrrrrrrrrrrrrrrrr 6qw0  rrrrrrrrrrrrrrrrrrrrrrr",
"rrrrrrrrrrrrrrrrr #$@@@OX   rrrrrrrrrrrrrrrrrrrr",
"rrrrrrrrrrrrrr@XX0;,-;*$@X X    rrrrrrrrrrrrrrrr",
"rrrrrrrrrrrrOX76166465=*%@o.X304    rrrrrrrrrrrr",
"rrrrrrrrrrrO26676786;:=;%%#+oO$8q954    rrrrrrrr",
"rrrrrrrrrr.&6777975;::34;%%%ooo$099q9904    rrrr",
"rrrrrrrrr.&699w99999::=45*%%+ooo$0999997qw76  rr",
"rrrrrrrr.;:09wwqq9797;4643*%%++X.4999q9q9q701 rr",
"rrrrrrrr.&8wwwwww99799343%%%%+ooXX5099999979< rr",
"rrrrrrr.%:8wweew999966433*&%%++ooX3449799777< rr",
"rrrrrrr.&:0weeeew9996432#&&%%+++oXO245599777< rr",
"rrrrrrr.=:weweew9997664*=&%%%%++XXX<44455571 rrr",
"rrrrrr.*::0eweew769762*:===%%%++XXX>3454777< rrr",
"rrrrrr.%::0eewwq99666*:=:==%%%%+XXX@3224667< rrr",
"rrrrrr.=:::www998886=::====&%%++XXX#2222444< rrr",
"rrrrrr.&::::9w98:::6=::::==%%%++.XX@$<2213<< rrr",
"rrrrrr.&::::0q7*::::::::==%%%%++ooXO$$<223< rrrr",
"rrrrrr.&;::::098;7:::::;==%%%++ooo.O,<3<22$ rrrr",
"rrrrrr.%::::::996;:::;:===%%%%+oo..@>>,<<<> rrrr",
"rrrrrr.%:::::::;96*::*+*=%%%%%oo.XX@>>><<<< rrrr",
"rrrrrrr.&;:::::::&4**33-%+%%+oooo.X$>><22< rrrrr",
"rrrrrrr.%&:::::::::43233#@%+oooo..@$>><<<< rrrrr",
"rrrrrrr %%;::::::;,33333##@oooo...@>><<<2< rrrrr",
"rrrrrr 4O%%;;&&::=233,,$##@Xo..XX@$><<><<< rrrrr",
"rrrrrr 9q++;%&&&&%,323,,@@@@o...X@>><<23< rrrrrr",
"rrrrr 8q94O+***%*%$33$$@OX@X...XO<><<223< rrrrrr",
"rrrr 89qqq4++%*%%%+$$##@X#XXX.X@>><<2344<   rrrr",
"rrrr 9qqqqq5++o++++o@OXX@XXX.X#,<2213774<     rr",
"rrr 8qqq                             99<      rr",
"rr <77qq ############################ 7<      rr",
"rrr  779 ###e###e##e###e##e###e####### <     rrr",
"rrrrr  1 ###e###e##e###e##e###e########     rrrr",
"rrrrrrr .#*#e#e#e##e#e#e##e#e#e#########    rrrr",
"rrrrrrrr ###e#e#e##e#e#e##e#e#e#########   rrrrr",
"rrrrrrrr ####e#e####e#e####e#e#########   rrrrrr",
"rrrrrrrr ####e#e####e#e####e#e########    rrrrrr",
"rrrrrrrrX############################    rrrrrrr",
"rrrrrrrr                        .       rrrrrrrr",
"rrrrrrrrr.                             rrrrrrrrr",
"rrrrrrrrrrrrrrrrrrrrrrrrr   <<<>795>  rrrrrrrrrr",
"rrrrrrrrrrrrrrrrrrrrrrrrrrrr    ,>>  rrrrrrrrrrr",
"rrrrrrrrrrrrrrrrrrrrrrrrrrrrrrrr    rrrrrrrrrrrr",
"rrrrrrrrrrrrrrrrrrrrrrrrrrrrrrrrrrrrrrrrrrrrrrrr",
"rrrrrrrrrrrrrrrrrrrrrrrrrrrrrrrrrrrrrrrrrrrrrrrr"
};
