/* XPM */
static char *Mouse[] = {
/* width height num_colors chars_per_pixel */
"    48    48       33            1",
/* colors */
". c #494949",
"# c #ffffff",
"a c #f9f9ff",
"b c #f4f4ff",
"c c #efefff",
"d c #eaeaff",
"e c #e5e5ff",
"f c #a4a4a4",
"g c #e0e0ff",
"h c #dbdbff",
"i c #6f6f6f",
"j c #d6d6ff",
"k c #d1d1ff",
"l c #c6c6ff",
"m c #ccccff",
"n c #b7b7ff",
"o c #bcbcff",
"p c #c1c1ff",
"q c #b2b2ff",
"r c #adadff",
"s c #a8a8ff",
"t c #a3a3ff",
"u c #9e9eff",
"v c #9999ff",
"w c #9393ff",
"x c #8e8eff",
"y c #8989ff",
"z c #8484ff",
"A c #7f7fff",
"B c #7070ff",
"C c #7575ff",
"D c #7a7afe",
"E c #e3e3e3",
/* pixels */
"................................................",
"...............................................#",
"..##############################################",
"..################aabbcccccbbaa#################",
"..#############abbcddeeeeeeeddcbbaf#f#fffff#####",
"..###########abcddegghhhhhfffii............#####",
"..##########acdeghhjkfii.......iifffffff########",
"..#########bcdghjfi.....iifflmmkjhgdcb##########",
"..#######abdegfi....ffnnnnnnopplmkjgedba########",
"..######abdef...ifnqqrrrrrrrqqnoplmjhedba#######",
"..######bdg...fonqrssttuuuttssrqnolmkhgdb#######",
"..#####bdfi.ipoqrstuvvwwwwwvvutsrqopmkhedb######",
"..####aceiifpnqrtuvwxxyyyyyxxwvutrqnpmkheca#####",
"..###acdg..pnqstvwxyzAAAAAAAzyxwvtsqnpmjgdca####",
"..###bdgji.oqstvwfiiiiiifBCCDAzywvtsqolmjgdb####",
"..##acehkfi.fffi..fEEEEf..ifBCDAyxvtrqolkheca###",
"..##bdgjmpf...ifEfiiEfiifEEiifBDAywvtrnpmjgdb###",
"..##bdhklfi.i.fEEEEi.ifEEEEEEiiBDAywusqolkhdb###",
"..#acehm.iEEEEiifEiifEEEEEEEEEfiBDzxvtrnpmheca##",
"..#adgjf..fEEEEf.ifEEEEEEEEEEEEE.CAywusqpmjgda##",
"..#bdgkl.i.fEfiifEEEEEEEEEEEEEEEEifzxvsqolkgdb##",
"..#behkliEi..ifEEEEEEEEEEEEEEEEEEEiAxvtrnlkheb##",
"..#cehkfiEEfiifEEEEEEEEEEEEEEEEEEEfiywtrnpkhec##",
"..#cehmffEEEEEfiEEEEEEEEEEEEEEEEEEEffwurnpmhec##",
"..#cehmpiEEEEEEfifEEEEEEEEEEEEEEEEEE.wurnpmhec##",
"..#cehmpiEEEEEEEEifEEEEEEEEEEEEEEEEEffurnpmhec##",
"..#cehkpfiEEEEEEEEiEEEEEEEEEEEEEEEEEE.trnpkhec##",
"..#behklnifEEEEEEEfiEEEEEEEEEEEEEEEEEffrnlkheb##",
"..#bdgkloq.EEEEEEEEiEEEEEEEEEEEEEEEEEfiqolkgdb##",
"..#adgjmpqfiEEEEEEEffEEEEEEEEEEEEEEEEEiqpmjgda##",
"..#acehmpnrffEEEEEEE.EEEEEEEEEEEEEEEEEifpmheca##",
"..##bdhkloqs.EEEEEEEiEEEEEEEEEEEEEEEEEfflkhdb###",
"..##bdgjmpnrfiEEEEEEffEEEEEEEEEEEEEEEEEimjgdb###",
"..##acehkloqrifEEEEEfiEEEEEEEEEEEEEEEEEikheca###",
"..###bdgjmloqsifEEEEEiEEEEEEEEEEEEEEEEEijgdb####",
"..###acdgjmpnqsiEEEEEiEEEEEEEEEEEEEEEEEigdca####",
"..####acehkmpnqfiEEEEiEEEEEEEEEEEEEEEEE.eca#####",
"..#####bdehkmpoqifEEEiEEEEEEEEEEEEEEEEffdb######",
"..######bdghkmlon.EEEiEEEEEEEEEEEEEEEEidb#######",
"..######abdehjmlpfiEEifEEEEEEEEEEEEEEfiba#######",
"..#######abdegjkmlifEEiEEEEEEEEEEEEEfiba########",
"..#########bcdghjkmiifffEEEEEEEEEEEfib##########",
"..##########acdeghhjkiiiiEEEEEEEEf.fa###########",
"..###########abcddegghfi..ifffii.fba############",
"..#############abbcddeeeeffffffbba##############",
"..################aabbcccccbbaa#################",
"..##############################################",
".###############################################"
};
