/* XPM */
static char *magick[] = {
/* columns rows colors chars-per-pixel */
"47 46 32 1",
"  c None",
". c #000818",
"X c #082028",
"o c #001841",
"O c #09484e",
"+ c #185961",
"@ c #076c70",
"# c #204149",
"$ c #305151",
"% c #206169",
"& c #5a5a5a",
"* c #496169",
"= c #2a7786",
"- c #187986",
"; c #497986",
": c #14858e",
"> c #048286",
", c #268996",
"< c #18b2b6",
"1 c #758a92",
"2 c #4f97a3",
"3 c #59bac7",
"4 c #61d3df",
"5 c #91a8ae",
"6 c #afabaf",
"7 c #aebac7",
"8 c #b2e3e7",
"9 c #a7cbd4",
"0 c #dcd4d8",
"q c #fffeff",
"w c #efebef",
"e c #d7f3f7",
/* pixels */
"&&&&&&&&&&&&&&&&&&&&&&&&&&&&&&&&&&&&&&&&&&&&&&w",
"&                                             w",
"& o+oo+oOOOOXO+OXXOOXo#OOOO++++Oo#O#O#OX#+#X.#w",
"& +o++oOOOo@@+OO++OX#OO+O#++O#O#+++++OO@+O#O#Oq",
"& XO+X+OOOO+XO+OOO#+O#O#++##++++O###O#+o#+##O#w",
"& o++oO+oOo++++++XO+O+++++O#++@++++++O#++O#+++q",
"& +o+++O#++O#OO+++++++++++++++O#++##+++O#+++O#q",
"& XOoOO#++OO+++O++OO++++#O++++++++++@+++O###+Oq",
"& O+O+++@+++++++++O++++@+++@++++++++@@@@+++O++q",
"& +++@@++@+++@@+++OO+@@@@@@@@@@+@@#O@@@@@@-@@+q",
"& @@@+@@@@@+@@@@@++@@@+@@@@@@@@@@@@@@@@@@@@@@@q",
"& @@@@@@@@@@@@@@@@@@@=,251,:@@@@@@@@@@@@@@@@@@q",
"& @@@@@@@@@@@@@@@@@@=5504852%+@@@@@@@@@@@@@@@@q",
"& +@@@@@O@@@@@@@@@@+,544<<95*@@@@@@@@@@@@@@@@@q",
"& @@@@@@@@>@@-@>@@@@1882-,86XX@@>@@>@@>@@@@@@@q",
"& @@@@@-@>>>>>>>>>-@2802@@<3X X@>>>>>>>>>>-@@@q",
"& @>>>>>@>>@>@>>>@>@1002+@25X.X@>>>>@>>>>>>>>>q",
"& >>>>@>>>>>>>>>->>@2892+@95X oO@>>>>>>@>@>@>@q",
"& >:>>>:>@>:>>>:>@>,2882+:95X.X@>@>:>@>:>>>:>>q",
"& >>@:>:>:>>>:>>>:>>,702O271XXX@>::>>::>>::>>:q",
"& @:>:>:>:>:>:>:>>>:,505+50*XXO@>>>::>>::>>::>q",
"& >:>:>:>:>:>:>:>:>>:2e3+57X X+>>::>>::>>::>-:q",
"& ,,>:>:>:>:>:>:>>:::189%67X XO:>:>:>:>::>>:>>q",
"& ,,>:>:>:>:>:>:>:>:>509%50*.X@:>:>:>:>:>::>>:q",
"& ,@,:,>,:,>,:,>,:>:,9w3+<9;oO%:,,,:::,:::,:::q",
"& 5%%,:,:,:,:>:,:,,<47w3O285**=,,,:,:,:,:::,:2q",
"& w1O%,:,:,:>,,,2598eww3,500076122,,,:,:,:>>,3q",
"& q6XX+,:>>,,298ww05;;;++*2;11908712,:>,:>:<30q",
"& 001XX=,,2980092;;$#O#oOO+++%;2270712,,,,,28wq",
"& *005**;57w09;+#+O###O###+++@%@%=2707122219w9q",
"& +*0061*607;%#oOO#O#O#O#OO%,=%@@+=22971119w9*w",
"& 1%;400075;#OoO########OO+==,==@%=,,2796784*+w",
"& 02O<9w91%######O###OO+%=%=+%%=--===-,298<@+2q",
"& 692=192OoOO#O#O##O+++==@%@=%+==,,==-@:23,%27w",
"& *6952%OoO######O#+@=;2==;;,=@-,2=%%-::,--295q",
"& X1w0;OXX##O#O#+%2;15562297512:,,,,=,,-@-,291q",
"& *505OXO#O###O@*15516072486111512,,2,=,:%@,51q",
"& 575%OO####O+2555$X*503,491$X*5652,,====@@,56q",
"& 09=OX#O#O+@297&X  #5w3=486# .#1792-@,==,@@27q",
"& 01OO#O%O@%=8q05X. *692=<97*..$10q9,-,,,,%@-2q",
"& 5%O##+=@,;29887*XX*74<=<96#X$60885222,,==--,q",
"& =O#OO+%-2952<4881#*543==95$*50e4<,232,-=,--=q",
"& O#OO@+=17002O-<49*#103,<81#10w4<2<9072,,,,==q",
"& OO##@-%56103==2<86*103,49116w71,,495622<<,,=q",
"& O#O@+@25*#175%%1896103=90*10e2,=295*;75<<,,,q",
"qqqqqqqqqqqqqqqqqqqqqqqqqqqqqqqqqqqqqqqqqqqqqqq"
};
