/* XPM */
static char *magick[] = {
/* columns rows colors chars-per-pixel */
"48 48 22 1",
"  c #000607",
". c #001f27",
"X c #012f37",
"o c #373b37",
"O c #003e49",
"+ c #034d57",
"@ c #005c6a",
"# c #006b7b",
"$ c #374d53",
"% c #276b77",
"& c #677f7f",
"* c #7f837f",
"= c #278397",
"- c #4f878f",
"; c #6797a7",
": c #879fa7",
"> c #8fb3bf",
", c #b0cbd0",
"< c Gray78",
"1 c #d7e3e7",
"2 c #f6f7f7",
"3 c None",
/* pixels */
"                                                ",
"     .  . .. .. . ... . ... .  .... ... .  . .  ",
"   .. .. .  . ... . .. .........   .  .. ..   . ",
".... . ....... ..... .. . .   ..... ... .. .. . ",
".   ....  ............... ....... .... .....  . ",
" ..... ....... .. ........................ .... ",
".. ...................................... ....  ",
"........... ......................... ......... ",
"........1222222...X.XXX..X.X*222222222......... ",
"..........+22221.X.X.X.XX.X.X.X;222:X...........",
".....X.X.X..2222:X..XXXXXXX....X;22...X.X.X.....",
".X..X.X.X.XX32222;XXXXXXXXXXXXXX.2,XXX.X.X.X.X..",
"X..X.XXXXXXX+222223XXXXXXXXXXXXXX2>XXXXXXXX.X.X.",
"XXXXXXXXXXXXX232222%XOOXOXOXOXXOX2>XXXXXXXXXXX..",
"XXXXXXXOXOXOO2+-2222+XXOXOXOXOOXX2>OOXOXXXXXXXXX",
"XXXXOXOXOXOXO2$X;2222+OXOXOXOXXOX2>XOXXOXXOXXXX.",
"+X+XOXXXOXXOO2$OX>2222++OOOOX+XOX2>XOXXXXOXOXOXX",
"XXXXXOXXOOOOO2+O+X,2222OOOOO+XX+X2>OO++XOXXXOXOX",
"XXXX++OOOOOO+2+OOXO12222OOOOOO+XO2>OOOOO+X++XXXX",
"+++X+XOXOOOO+2++++++22222O++++++O2>OOOOOXOOOOO+X",
"OOOOXOO++++O+2+++++++22221X+++++O2>+O++++OOOX+OX",
"OOO++++++++++2$+++++++22221++++++2>+++++++X++OOO",
"X++++++++++++2++++++++@2222,+++++2,+++++++++++OX",
"++++++++++++@2%++++@++@%2222>++++2,++++++++++++O",
"+++++++@+@++@2%@@@@@@@@@=2222:+@@2,+@+++++++++++",
"++++@+@@@@@@@2%@@@@@@@@@@;2222;@+2,@@@@@@+@+++++",
"+++@@@@@@@@@@2%@@@@@@@@@@@>2222=@2,@@@@@@@@@@@@+",
"@@@@@@@@@@@@#2%@+$$#######@,2222%2,@@@@@@@@+@@@+",
"@@@@@@@@$+###2%#############122222,@##$@@@@@@@@+",
"@@@@+######=>2:-;$oX.    .o X*<1121=###@###+@@@@",
"+#####=-;o. o2$                      X3--=####+@",
"##=;$.      >21                           X&-=#@",
"$.         o222:                              o;",
"         222222222>                             ",
"                                                ",
"                                                ",
"                                                ",
"                                                ",
"                                                ",
"                                                ",
"                                                ",
"                                                ",
"                                                ",
"                                                ",
"                                                ",
"                                                ",
"                                                ",
"                                                "
};
