/* XPM */
static char *magick[] = {
/* columns rows colors chars-per-pixel */
"48 48 32 1",
"  c #4f2f24",
". c #584136",
"X c #585858",
"o c #736156",
"O c #6e5b53",
"+ c #341d14",
"@ c #8a7468",
"# c #8d6654",
"$ c #88461e",
"% c #948276",
"& c #a48674",
"* c #c09878",
"= c #aa9388",
"- c #b4a196",
"; c #a69c98",
": c #c5a793",
"> c #cbb4ab",
", c #c09880",
"< c #d7c2b6",
"1 c #c6c0b6",
"2 c #e0c8b6",
"3 c #d3ceca",
"4 c #e0c8c0",
"5 c #e4d4c5",
"6 c #f0d8d0",
"7 c #e5d8d3",
"8 c #f1e0d5",
"9 c #e6e0d4",
"0 c #f9f9f9",
"q c #f3f1f0",
"w c #ede8e4",
"e c #e0d8e0",
/* pixels */
"XXXXXXXXXXXXXXXXXXXXXXXXXXXXXXXXXXXXXXXXXXXXXXXX",
"X0000000000000000000q880000000000000000000000000",
"X0000000000000000008668q000000000000000000000000",
"X000000000000000qq866568000000000000000000000000",
"X000000000000008665565788622w0000000000000000000",
"X000000000000q88665556582&#&28q00000000000000000",
"X0000000000088666685556982#@488q0000000000000000",
"X00000000q888888868655255868668w0000000000000000",
"X0000000q868886868865554555586880000000000000000",
"X00000q8866688669968554555558668q000000000000000",
"X000w<566666667513757555625559668000000000000000",
"X000<=>76675631737686625555555658000000000000000",
"X0003%-<3311556866688662524555556q00000000000000",
"X0007%@>156656->86686@>6335552555800000000000000",
"X000q;@>4566865=>-86:.$@<51;42565900000000000000",
"X00003o%%>84>=>=->56&+ >=-1<455555q0000000000000",
"X0000woX=:>@>&>&<=56&.+.5:22252465w0000000000000",
"X00000=.@@>=>=>>9733@>- &6=<45545580000000000000",
"X000001Xoo>-55311>>>*88> >>-7<555550000000000000",
"X00000eo@->34>>534*$.$#O. ::><55575w000000000000",
"X00000q=o%;14555555,&=4<- O#<<475559000000000000",
"X0000003o@;<55<<><26>:,><:. #:>44456000000000000",
"X000000q=@=-><252>4-<&<2:@&O##<<2423w00000000000",
"X00000001@@->4>4-=<>6>&>>-&@+#&<4<52700000000000",
"X0000000w%o;;;=<><4<>>&&&&&O#.<@2625200000000000",
"X00000000;O@-><52><>->>522>#=.@2:222<q0000000000",
"X000000003o@-<>--:><5442<5>@@=.>2>52250000000000",
"X00000000w=o@:=->54<<>>><4:&>:# <,5651q000000000",
"X000000000>oo-<2>>>>22>>>2:,22,O.>>655q000000000",
"X0000000003oo=:>>>>>>><<>>>>:::>+o=685w000000000",
"X000000000q;o@->>>>>><><562:2#:2=+O8668000000000",
"X00000000001o@=->><2<5654>2:,#&:@+.w888000000000",
"X0000000qqwe%o=;>>><<<<<>>24&+#&# o8866q00000000",
"X00000qwweee;X@=:145<>>442>5-#:-@o>8866800000000",
"X0000qwee3331o@==><5<>2<<<<5<>255545666<w0000000",
"X0000qee33333oo%->><<><><4555<44<5>4786430000000",
"X00000we33333;X%=->><><>><547<<<5<<<766870000000",
"X00000qee3333;.o@=->><>><4<565<5<><<<76680000000",
"X000000qee3331XO%=->><><44245525<<3<556640000000",
"X0000000qwe333;.@%%:><><<5<4465<5<<<545430000000",
"X0000000qqwe331.o@==>><><<<42571<<3>;-3000000000",
"X00000000qqee33%.%==-><<<232456<<<;%>3q000000000",
"X0000000000qwe31.@%%=>><<343<<33=-;33ewq00000000",
"X0000000q000qe33oO@%=-<<><<>>-%=-3333eeq00000000",
"X00000000000qqe3;.@=%;>3>>:%o;3333333eewq0000000",
"X00000000000q0qe3.o%====@o@;33eeeeeewwwq00000000",
"X00000000000000qw%.oXO=-7eeewewwwq00qq0000000000",
"X00000000000000000000000000000000000000000000000"
};
