/* XPM */
static char *magick[] = {
/* columns rows colors chars-per-pixel */
"48 48 33 1",
"  c Gray0",
". c #051233",
"X c #232b34",
"o c #01184d",
"O c #0f275f",
"+ c #173367",
"@ c #243552",
"# c #2d3e6f",
"$ c #2f477d",
"% c #400000",
"& c #741414",
"* c #535756",
"= c #5f677f",
"- c #676d67",
"; c #3f5285",
": c #485b90",
"> c #53699c",
", c #5f70a1",
"< c #6f778e",
"1 c #637fb0",
"2 c #7587b4",
"3 c #748fc2",
"4 c #c16762",
"5 c #919692",
"6 c #989ea7",
"7 c #b3b5b4",
"8 c #879bd0",
"9 c #97ace7",
"0 c #b8cbf0",
"q c #d08f8a",
"w c #cfd5d0",
"e c #e1e8e1",
"r c None",
/* pixels */
"rrrrrrrrrrrrrrrrrrrrrrrrrrrrrrr7wwww-rrrrrrrrrrr",
"rrrrrrrrrrrrrrrrrrrrrr939990wr7weeew6-rrrrrrrrrr",
"rrrrrrrrrrrrrrrrrrrr:91,33939077weeew7-rrrrrrrrr",
"rrrrrrrrrrrrrrrrrrr:8;,1,3,:;>-57wee-XXrrrrrrrrr",
"rrrrrrrrrrrrrrrrrr:9$;,21.oo77**-555 *Xrrrrrrrrr",
"rrrrrrrrrrrrrrrrr:333:;,o.O*ww7**@*-X@X313rrrrrr",
"rrrrrrrrrrrrrrrr:,23331oO..-www77-*-XX.611rrrrrr",
"rrrrrrrrrrrrrrr::$13331$O-w-5wwww7--@X3>,>rrrrrr",
"rrrrrrrrrrrrrr::11$$1222+-57--5w77- X>3;;>rrrrrr",
"rrrrrrrrrrrrr::2133:#:1 ..*57w-*<-..:21$131rrrrr",
"rrrrrrrrrrrrr:,1331,:$$O.X..*7w5-..$>,,,1131rrrr",
"rrrrrrrrrrrr:,13311,,:1,:Oo.X*5..oO$$:,,:$,11rrr",
"rrrrrrrrrrrr:23111,,,1,,::$....@+O++O$;+o;1111rr",
"rrrrrrrrrrr::31,,,83,>>:>:=$@o>:;:;;+$+,:211111r",
"rrrrrrrrrrr:81,,332:<::::::$#oO:>::::#5w031>,,1r",
"rrrrrrrrrr::31133;::::>:::>$$ooo;>,,OO7w761,,,,r",
"rrrrrrrrrr::>2,;;>::::::::;;;$+ooO>$$$7w55<>>,1r",
"rrrrrrrrr:;:::;;;;::>:::::;;;;#;+oO$::=7<5,::,1r",
"rrrrrrrrr;;>:;:;;:$$:::;:;;;:;;+$$$::>:<75:::,1r",
"rrrrrrrr>:11;;;:;;::#::::;;;;;;;#$::::,:;:::>>,r",
"rrrrrrrr:1,;$OO#;;;::oo;;;;;;:;:$,3,:,:::$:>,,3r",
"rrrrrrr:,,:676$@o#$$:; o;;;$;:::$13::,::::>,,1:r",
"rrrrrr:1,$67447<$+O$$;:;;;$;;:;;:1,;::::::,,11$r",
"rrrrr$,>:7w4&%7ww<$@$:;;$$;;;;:::1;:::;:::,2,:rr",
"rrrr$>:$6w4&%6wewww<$@$$$$+;;+;;1:$::::>::,,:$rr",
"rrr:::@574&%7we5*wwww<$o$$;;;;;>1;::;::;::,:$rrr",
"rr:::#7w4&%7we5*e5*eeww<+O;;;;;;>$:;$:;::,:$rrrr",
"r:oOO:6w&%7we--e5-e5-eew0>$o+;O,::::::;:>:$rrrrr",
"r$ooO#:677we--e5-e5-e5-eww$o#O$>$::::::::$rrrrrr",
"r+.oooO:6ww7-e5-e5-e5-e5-7#OOo;;::$::::>$rrrrrrr",
"r#o..ooo$57ww--e5-e5-e5-7<#++;;;::$::$:$rrrrrrrr",
"rO....oooO;6ww5--e5-q--7<$;#;1;;:$:::>$rrrrrrrrr",
"rooo.....oo$,ww7---q&%7<$;$;6>#;$:;;:$rrrrrrrrrr",
"rO.....o.ooo#:6ww5q&%7<;$;:33$::$:::$rrrrrrrrrrr",
"rOo.oo......OO$,7w4%6<:;::38$$$$#;:;rrrrrrrrrrrr",
"r#.o.ooo.....oO+;187<:#::88;$$$$;,$rrrrrrrrrrrrr",
"rro.oooooo.....oO;;:;#;:38:$$$#:,;rrrrrrrrrrrrrr",
"rrrooooooooo..oooO+++;;39>$##+$:$rrrrrrrrrrrrrrr",
"rrrrooooooooooooo o+;;18,;##+#$$rrrrrrrrrrrrrrrr",
"rrrrro.ooooooooooooo;31,;#$#$$$rrrrrrrrrrrrrrrrr",
"rrrrrroooooooooooooo+;;#$+$$$$rrrrrrrrrrrrrrrrrr",
"rrrrrrrrooooooooooooo+###+$:;rrrrrrrrrrrrrrrrrrr",
"rrrrrrrrrooooOooooooO++#$$#$rrrrrrrrrrrrrrrrrrrr",
"rrrrrrrrrrroooooooooO#;#@$$rrrrrrrrrrrrrrrrrrrrr",
"rrrrrrrrrrrrroOoOoooO###$$rrrrrrrrrrrrrrrrrrrrrr",
"rrrrrrrrrrrrrrooooooO$$#$rrrrrrrrrrrrrrrrrrrrrrr",
"rrrrrrrrrrrrrrrroooo+::$rrrrrrrrrrrrrrrrrrrrrrrr",
"rrrrrrrrrrrrrrrrrroo#:$rrrrrrrrrrrrrrrrrrrrrrrrr"
};
