/* XPM */
static char *magick[] = {
/* columns rows colors chars-per-pixel */
"48 48 15 1",
"  c Gray0",
". c #201010",
"X c #20212c",
"o c #000e40",
"O c #686d6c",
"+ c #0050c0",
"@ c #0060c0",
"# c #a06000",
"$ c #807080",
"% c #808070",
"& c #d0c020",
"* c #b2c0dc",
"= c #c0d0c0",
"- c Gray94",
"; c None",
/* pixels */
";;;;;;;;;;;;;;;;;;;;;;;;;;;;;;;;;;;;;;;;;;;;;;;;",
";;;;;;;;;;;;;;;;;;;;;;;;;;;;;;;;;;;;;;;;;;;;;;;;",
";;;;;;;;;;;;;;;;;;;;;;;;;;;;;;;;;;;;;;;;$O@@O@$;",
";;;;;;;;;;;;;;;;;;;;;;;;;;;;;;;;;;;;;;;*Oo+Xo+@;",
";;;;;;;;;;;;;;;;;;;;;;;;;;;;;;;;;;;;;;*oo+o++XO*",
";;;;;;;;;;;;;;;;;;;;;;;;;;;;;;;;;;;;;$O++o+o+O$;",
";;;;;;;;;;;;;;;;;;;;;;;;;;;;;;;;;;;;*Oo+oo++XO+;",
";;;;;;;;;;;;;;;;;;;;;;;;;;;;;;;;;;;$X++o++oO+OO*",
";;;;;;;;;;;;;;;;;;;;;;;;;;;;;;;;;;$O+oo+oo+OOO$;",
";;;;;;;;;;;;;;;;;;;;;;;;;;;;;;;;*++X++o++X$$X*;;",
";;;;;;;;;;;;;;;;;;;;;;;;;;;;;;*@+O+oo+ooO$O$*;;;",
";;;;;;;;;;;;;;;;;;;;;;;;;;;;;*++oo+ooo+O+$$$;;;;",
";;;;;;;;;;;;;;;;;;;;;;;;;;;;;++o@+XX.oX+$X;;;;;;",
";;;;;;;;;;;;;;;;;;;;;;;;;;;*++o+oOO$OO$O$*;;;;;;",
";;;;;;;;;;;;;;;;;;;;;;;;;;;++Xo+XO**$$$O$;;;;;;;",
";;;;;;;;;;;;;;;;;;;;;;;;;;@+oXXX$*$**OO*;;;;;;;;",
";;;;;;;;;;;;;;;;;;;;;;;;;;$OoO$$**$$O$*;;;;;;;;;",
";;;;;;;;;;;;;;;;;;;;;;;;;;$OXO--$$=$X*;;;;;;;;;;",
";;;;;;;;;;;;;;;;;;;;;;;;;%===-=**$OO;;;;;;;;;;;;",
";;;;;;;;;;;;;;;;;;;;;;;;%$*=-*=$$$O;;;;;;;;;;;;;",
";;;;;;;;;;;;;;;;;;;;;;;O==XO-=$*$X;;;;;;;;;;;;;;",
";;;;;;;;;;;;;;;;;;;;;;%=%O$=$=$O$;;;;;;;;;;;;;;;",
";;;;;;;;;;;;;;;;;;;;;*$-$O==$$$O;;;;;;;;;;;;;;;;",
";;;;;;;;;;;;;;;;;;;;$=---=$$*OO;;;;;;;;;;;;;;;;;",
";;;;;;;;;;;;;;;;;;;*$$$-==*$$$;;;;;;;;;;;;;;;;;;",
";;;;;;;;;;;;;;;;;;$$-OO==$$$O;;;;;;;;;;;;;;;;;;;",
";;;;;;;;;;;;;;;;;$==X$=$*$$O;;;;;;;;;;;;;;;;;;;;",
";;;;;;;;;;;;;;;;*$=$O==$$$$;;;;;;;;;;;;;;;;;;;;;",
";;;;;;;;;;;;;;;$==XO-$$*$X;;;;;;;;;;;;;;;;;;;;;;",
";;;;;;;;;;;;;;*==-=$==$$$;;;;;;;;;;;;;;;;;;;;;;;",
";;;;;;;;;;;;;$$---*=$$$O;;;;;;;;;;;;;;;;;;;;;;;;",
";;;;;;;;;;;;$=----$=*OO;;;;;;;;;;;;;;;;;;;;;;;;;",
";;;;;;;;;;;**=--==*$OO;;;;;;;;;;;;;;;;;;;;;;;;;;",
";;;;;;;;;;%%----=$$$X;;;;;;;;;;;;;;;;;;;;;;;;;;;",
";;;;;;;;;@$$--*$=$OO;;;;;;;;;;;;;;;;;;;;;;;;;;;;",
";;;;;;;;O+O$-==*$$O;;;;;;;;;;;;;;;;;;;;;;;;;;;;;",
";;;;;;;$Xo+@-=$*OX;;;;;;;;;;;;;;;;;;;;;;;;;;;;;;",
";;;;;;$Oo+XO*$$O$*;;;;;;;;;;;;;;;;;;;;;;;;;;;;;;",
";;;;;$OXO+o+$*$O$;;;;;;;;;;;;;;;;;;;;;;;;;;;;;;;",
";;;;%##&#OO+=OO*;;;;;;;;;;;;;;;;;;;;;;;;;;;;;;;;",
";;;;O%#&#XO$O$$;;;;;;;;;;;;;;;;;;;;;;;;;;;;;;;;;",
";;;;O&&#XX$$O*;;;;;;;;;;;;;;;;;;;;;;;;;;;;;;;;;;",
";;;;O#O=OXOO*;;;;;;;;;;;;;;;;;;;;;;;;;;;;;;;;;;;",
";;;;XO#OOOO$;;;;;;;;;;;;;;;;;;;;;;;;;;;;;;;;;;;;",
";;;$X.XX$;;;;;;;;;;;;;;;;;;;;;;;;;;;;;;;;;;;;;;;",
";;;;.XXX;;;;;;;;;;;;;;;;;;;;;;;;;;;;;;;;;;;;;;;;",
";;;;O$;;;;;;;;;;;;;;;;;;;;;;;;;;;;;;;;;;;;;;;;;;",
";;;=;;;;;;;;;;;;;;;;;;;;;;;;;;;;;;;;;;;;;;;;;;;;"
};
