/* XPM */
static char *magick[] = {
/* columns rows colors chars-per-pixel */
"48 48 33 1",
"  c Gray0",
". c #271214",
"X c #2f2211",
"o c #2c282b",
"O c #333344",
"+ c #334444",
"@ c #521216",
"# c #452324",
"$ c #68302c",
"% c #503344",
"& c #5f442e",
"* c #49494e",
"= c #6b555d",
"- c #696d8b",
"; c LightSlateGray",
": c #962925",
"> c #975431",
", c #96662c",
"< c #945554",
"1 c #b8686f",
"2 c #d25360",
"3 c #887799",
"4 c #dd7788",
"5 c #df8875",
"6 c #ff8951",
"7 c #8c8f9f",
"8 c #9999cc",
"9 c #ec948f",
"0 c #ffb9aa",
"q c #ccbbcc",
"w c #f7cc91",
"e c Gray100",
"r c None",
/* pixels */
"rrrrrrrrrrrrrrrrrrrr,666,,>,>>@X#rrrrrrrrrrrrrrr",
"rrrrrrrrrrrrrrrrrrr>666,>>,>>@XXXrrrrrrrrrrrrrrr",
"rrrrrrrrrrrrrrrrrr>666>>>>>>#X@X#rrrrrrrr$$rrrrr",
"rrrrrrrrrrrrrrrrr>666>>>>>>@X#X@.rrrrrrr$29:rrrr",
"rrrrrrrrrrrrrrrr>666,,>,>>#X#X#X>rrrrrr$<92:@rrr",
"rrrrrrrrrrrrrrr,666>>>>>>@X#X@.>rrrrr3o252:@@:rr",
"rrrrrrrrrrrrrr,666,>>>>,#X#XX.$rrrrr*+e32::@@rrr",
"rrrrrrrrrrrrr>666>,>>>>@X#X#.>rrrrr3O*7q7@@@rrrr",
"rrrrrrrrrrrr>666>>>,>>#X#X#.$rrrrr*+e;-;7+@rrrrr",
"rrrrrrrrrrr>666,>>>>>@X#X@.>rrrrr3o-7q7****rrrrr",
"rrrrrrrrrr>666>>>>>>#X#X#.>rrrrrroe7=77+o+rrrrrr",
"rrrrrrrrr1006>>>,>>@X#X#.>rrrrrr>>7q7O*O*rr&52@r",
"rrrrrrrr1000>>>,>>@X#X#.>rrrrrr>66*77+o+rrr$5:@r",
"rrrrrrrr1000999>>@XXX..>rrrrrr>66>>%+o*rrr.o3$@r",
"rrrrrrr10009991<#X@X#.>rrrrrr>66>>>##+rrrrOr7+or",
"rrrrrrr1009991$$X#X@.>rrrrrr>66>>>##>rrrrrO7+o.r",
"rrrrrr1009991=#o###X>rrrrrr>66<>>##,rrrrr.e7+orr",
"rrrrrr109991$#oo#$.>rrrrrr>66>>>##>rrrrrrO*%+orr",
"rrrrr100941&#o#$$=<rrrrrr>66>>>##,rrrrrr.>6>o.rr",
"rrrrr1w491&#o%#<<9rrrrrr>66>>>##>rrrrrrr&66>#rrr",
"rrrr1941<$oo$=<5rrrrrrr>66>>>##>rrrrrrrr>6>>.rrr",
"rrr8141<$##<=4rrrrrrrr>66>>>##>rrrrrrrrX>6>#.rrr",
"rrrr1=$oo&<5rrrrrrrrr>66>>>##>rrrrrrrrr$66>#rrrr",
"rr=rr#o$<4rrrrrrrrrr>66>>>#o>rrrrrrrrrr>6>>orrrr",
"rrrr.r%<rrrrrrrrrrr>66>>>##,rrrrrrrrrr.>6># rrrr",
"r*rrr=qrrrrrrrrrrr>66>>>##>rrrrrrrrrrr&66>#rrrrr",
"rrr=rrrrrrrrrrrrr>66>>>##>rrrrrrrrrrrr>6>>.rrrrr",
"=r*rrrrrrrrrrrrr>66>>>#o>rrrrrrrrrrrrX>6>#.rrrrr",
"rrrrrrrrrrrrrrr>66>>>##>rrrrrrrrrrrrr$66>#rrrrrr",
"rrrrrrrrrrrrrr>66<>>##>rrrrrrrrrrrrrr>6>>orrrrrr",
"rrrrrrrrrrrrr>66>>>##,rrrrrrrrrrrrrr.>6>#.rrrrrr",
"rrrrrrrrrrrr<66>>>##>rrrrrrrrrrrrrrr&66>#rrrrrrr",
"rrrrrrrrrrr>66<>>##>rrrrrrrrrrrrrrrr>6>>.rrrrrrr",
"rrrrrrrrrr>66>>>##>rrrrrrrrrrrrrrrr.<6>#.rrrrrrr",
"rrrrrrrrr>66>>>##,rrrrrrrrrrrrrrrrr$66>#rrrrrrrr",
"rrrrrrrr>66>>>##>rrrrrrrrrrrrrrrrrr>6>>.rrrrrrrr",
"rrrrrrr>66>>>##>rrrrrrrrrrrrrrrrrrr101#.rrrrrrrr",
"rrrrrr>66>>>##>rrrrrrrrrrrrrrrrrrrr09#%rrrrrrrrr",
"rrrrr106>>>#o>rrrrrrrrrrrrrrrrrrrrr0<#rrrrrrrrrr",
"rrrrr0094>##>rrrrrrrrrrrrrrrrrrrrrrr#rrrrrrrrrrr",
"rrrr4094##o,rrrrrrrrrrrrrrrrrrrrrrrrrrrrrrrrrrrr",
"rrrr091##%>rrrrrrrrrrrrrrrrrrrrrrrrrrrrrrrrrrrrr",
"rrr14=o$<rrrrrrrrrrrrrrrrrrrrrrrrrrrrrrrrrrrrrrr",
"rrr4$#<rrrrrrrrrrrrrrrrrrrrrrrrrrrrrrrrrrrrrrrrr",
"rrr.%rrrrro*=500w5wwwwwwwwwwwwwwwwwwww-8;-8222<r",
"rrrrrrrr=+o.XX#$>>>&>=>>>>>>>>>>>>>>>>=-=*3@:@$r",
"rrrrrrrrrr.#&&&##.X  . .  X.X.   .    oO ro.. @r",
"rrrrrrrrrrrrrrrrrrrrrrrrrrrrrrrrrrrrrrrrrrrrrrrr"
};
