/* XPM */
static char *magick[] = {
/* columns rows colors chars-per-pixel */
"48 48 25 1",
"  c #050305",
". c #3d1814",
"X c #302d2e",
"o c #4a2818",
"O c #50372a",
"+ c #745215",
"@ c #4a4546",
"# c #5a5668",
"$ c #716672",
"% c #717681",
"& c #9a6e19",
"* c #b07c0b",
"= c #8a768d",
"- c #af8931",
"; c #cf9511",
": c #d6ac1d",
"> c #f0ba12",
", c #f0c717",
"< c #868e9c",
"1 c #9d95a9",
"2 c #a6aeae",
"3 c #c1b7b5",
"4 c #d6d6d4",
"5 c #f2f5f3",
"6 c None",
/* pixels */
"66666666666666666666666        66666666666666666",
"6555555555555555555555       @# 55555555555555 6",
"655555555555555545555         #X 554555555555$X6",
"65545555455555455555              55555455555# 6",
"65554545545454555555              55545545552$ 6",
"65455555555555554555   X           5555555522$ 6",
"655445                2%   $24@          #222# 6",
"655555 $%$%$%$%=%%<= 5555 X5552    <%<=<$5<22$X6",
"655555 %$%$%$==<=<=< 4 X5XX5 <5X   X@ .$$5232$ 6",
"655554 $%$%=<=<<1<11 4 X$ X5 =4@   @ .@X$5242$X6",
"655455 %$%=<=<=11111 X#->,,, $5      XO@$5222$X6",
"655555 $%=<<11112121  *>,,,,,::     X@@#$5432$ 6",
"655554 %=<=<<1123232 *;,,,,,,::    oO@#$$5322$X6",
"654555 =<<<111<11<11 O:,,,,,&::    @@@#$%5322$ 6",
"655555 %=<1112=11<11X$&-,,&::-3X  $ @#%$$5222$ 6",
"655554 %%<1122112112X<3&:;*12454    X$%$%5222# 6",
"655555 %=<<111111<11 %431-233555     $$%$5222# 6",
"655445 =<<111111111X 553433455555     %%%5222#X6",
"655555 %=<<111<11<X 2555445555555     $%$5211# 6",
"655545 %<<<1<11<1<  55555555555552     $%5222#X6",
"655555 %=<=<<1<13  <55555555555555      $5121# 6",
"655545 $%=<<<<11   145555555543425X     X5212# 6",
"655455 %$%===<1<  X4555555555555435 X    5111# 6",
"655555 $%%<=<=<   25555555555555554       211#X6",
"655555 %$%$%=== X 555555555555555555      111# 6",
"655445 $%$%$%=%  =555555555555555555      <2<# 6",
"655555 %$%$%$% X 5555555555555555555X      <<# 6",
"655555 $%$%$%$  #5555554555555555555#      1<# 6",
"655545 %$%$%$   35555554555555555555<      2<# 6",
"655554 #%$%$% X 555555555555555555552       <@ 6",
"654544 %$%$%  X 555555555555555555553       <# 6",
"655454 $=$%$  X 555555555555555555555       <@ 6",
"654544255555 :$X55555554555555555555%X      =X 6",
"654444544444:,>&@555555455555555554,-      <<@ 6",
"65444444444::>,>& 5555555555555555:,:     ::=@ 6",
"65544344442;>>>>,  555555555555555:,;    +,,<@ 6",
"652$%%$$-;;:>,>>>:  45555555555553::;*OO&:>>XX 6",
"6%     >:>>>>>>,>,O  @555555555554;::;;;;>>>,  6",
"6666666>,>>>>,>>>,:   555555555553&::>::>>,>>,66",
"6666666:>,>>>,>>>>>;  555555555553&:>>>>>>,>,>:6",
"6666666;>>>,>,,>>>>,2555555555552 &:>>>>>>>,>>,,",
"6666666;>>,>>,,,>,>>;5555555555X  &:>,>,,,>>>,>6",
"6666666:>>>>>>,>>>,>:+5555555=    *;>>>>>>>,>>66",
"6666666;::>>>>,,>>>>;&           .;:,>,>>>>:6666",
"6666666&;;;;;::>>>>:;&           .&;>>>>:;&66666",
"66666666   &&**;:;;;&+           .+;;;;;&6666666",
"66666666666666+&&*&&+O666666666666+&***&66666666",
"66666666666666666O+O+66666666666666o++O666666666"
};
