/* XPM */
static char *magick[] = {
/* columns rows colors chars-per-pixel */
"48 48 20 1",
"  c Gray0",
". c #182020",
"X c #29302f",
"o c #354445",
"O c #445052",
"+ c #495961",
"@ c #52686b",
"# c #68706e",
"$ c #617986",
"% c #648489",
"& c #79a2a6",
"* c #8c8c92",
"= c #88abb3",
"- c #a69aa6",
"; c #a6a2a6",
": c #96bac7",
"> c #96c3cf",
", c #a6d2de",
"< c #aedbe7",
"1 c None",
/* pixels */
"111111111111111111111111111111111111111111111111",
"111111111111111111111111111111111111111111111111",
"111111111111111111111111111111111111111111111111",
"1111111111111111111111111111111111111111111111*1",
"111111111111111111111111111111111111111111111*X#",
"11111111111111111111111111111111111111111111;oX-",
"1111111111111111111111111;#######*1111111111+.-1",
"1111111111111111111111111++@#@@@&+1111111*1#.*11",
"111111111111111111111111O@=<<$@=:+%111111#O.*111",
"11111111111111111111111O@=>o+X=:$@+11111%X.#1111",
"111111111111111111111;+@=>ooX&,%%%o*111*X.+11111",
"11111111111111111111;+@==ooX%,%%%%@#11-oXO111111",
"11111111111111111111#+@@+oo%<%%%%%@O1;OXX1111111",
"1111111111111111111O+%oooo%,%$%%%%%o*OXX-1111111",
"111111111111111111##>:>=::>*%$%%#%%O+X.*11111111",
"111111111111111111 XO+ooo@,%%%$%%%%+..#111111111",
"111111111111111111..%.%+X %%%%%$%%$@.@1111111111",
"11111111111111111$..Xo.oX.%&%%%%%%$oX11111111111",
"11111111111111111#.Xoo.XX.=&%%%%%$O&X11111111111",
"11111111111111111XXXXXXXXo&%%$%%#O=%.;1111111111",
"1111111111111111O.$@+%o&X%>%%#%%O=%$.*1111111111",
"111111111111111#.X%X$o++$>%%%%%o*%%O.#1111111111",
"11111111111111#.#@+%o&o%>%%%%%o%&$O+.*1111111111",
"1111111111111* o%X#o++$>%%%%%+%&%+O.*11111111111",
"111111111111*.#@+%o&o%>$%$%%+$&%@O.#111111111111",
"11111111111;.X%X#o+@+,%%$$%+@&%@OX#1111111111111",
"1111111111;.@@+%o&o+,%%%%%@@=%@ooO11111111111111",
"111111111;XX%X#o++@,%%%%%@+&%@OoX111111111111111",
"11111111;O.XXoXoX+,%%%%%#O=%%OOX-111111111111111",
"11111111OO=o>o=#+,%%%%$@o=%#o+.-1111111111111111",
"11111**#.ooooXo+,%%%%%%O=%%O+.*11111111111111111",
"1111%OO++@%.XXo<$%%%%$o=%%O+.*111111111111111111",
"111%o%>%%>=o.X,#%$%$%o=%%++.#1111111111111111111",
"11*+&=X$,=%%$>%%%%%$o*%%@OX#11111111111111111111",
"1#O#%X@>=%%%%%%%%%%o=%%@OoO111111111111111111111",
"%o$%%%=,$%%%%%%%%%+%&$@ooX1111111111111111111111",
"%:,<:,<<%%%%%$$$%@#&%@O+X-1111111111111111111111",
"O$%%%%%%,%$%$%%%@#&%#o+.-11111111111111111111111",
"#+%%$%$%%<%%%%$@@*%$O+.*111111111111111111111111",
"1+@%$%%%%%,%%%@+&%$o@.*1111111111111111111111111",
"11#+%%%%%%*,%@@&%%O+.#11111111111111111111111111",
"111O+#@@@@@&&O=%%o+X#111111111111111111111111111",
"111;oo++++++@&%%+OXO1111111111111111111111111111",
"1111*o@%%%%%@:=++oX11111111111111111111111111111",
"11111%XXX...Xo>#+X-11111111111111111111111111111",
"111111*XXXooooXoX-111111111111111111111111111111",
"1111111*********11111111111111111111111111111111",
"111111111111111111111111111111111111111111111111"
};
