/* XPM */
static char *magick[] = {
/* columns rows colors chars-per-pixel */
"47 40 21 1",
"  c #010101",
". c #181c20",
"X c #182828",
"o c #2a2f2e",
"O c #2b3943",
"+ c #344747",
"@ c #475150",
"# c #515d61",
"$ c #556f73",
"% c #667172",
"& c #597d86",
"* c #708c92",
"= c #868679",
"- c #8b9194",
"; c #9e9ea6",
": c #8eaab4",
"> c #a8b1b3",
", c #b6c3c7",
"< c #cdd6d6",
"1 c #eeebf1",
"2 c None",
/* pixels */
"22222222222222222222222222222222222222222222222",
"22222222222222222222222222222222222222222222222",
"2222222222222222<;<+%&;-&#oX... .XXO++$X +o 222",
"22222222222222@;;=%$%+X..        .X+@*+  .@ %22",
"222222222222;-=*$#+XX      .ooO++@#$*&    o+ 22",
"2222222221<$:*#+Oo.  .ooOoX.      O*>+    .+o 2",
"222222222@=&@#@+X.XoOo    @ooo@+o@   o    .O# 2",
"22222222#%   .#O .o   @222222222222.+OooooOO++ ",
"22222222>X    .OXo  2222222222222222X   .      ",
"2222222%*@     Xo  22222222222222222o          ",
"222222- <@      O 222222222222222222@          ",
"2222   o<@.     oO22>2222222222222222        .@",
"2222. 22>#o    Xo%22   222222222   22222-===%22",
"222o2@22:$+@OOX.  22   @+++@@o@@   222222222222",
"22O .2%2::$+O     o2               222222222222",
"222> .=22%.       o                222222222222",
"2% 2#222o       % <                 22222222222",
"2   2-22      -22.                   %222222222",
"2@2. 2222  o2222o .....                22222222",
"2 @2 2222222222+<:::--;::---%%**@@++OO  2222222",
"%2.  2222222222-;%*$$$>;:->:*->:@+++@+o 2222222",
"2@2% 222222222><*&$$$#>#%%-*@$-*+@++O+o 2222222",
".. 2 222222222o<&*$&$#>&%#*%@%=%+O@O+oo o222222",
"222. 222222222%<%%$$$*>%*#-&@&%$O++@+o+  222222",
"2 222222222222*>$*&$$&#+++$@++##+++O+oO. 222222",
"2    222222222<;$$$$$=:&+%-*#$:#++Oo+oO. 222222",
"2222o22222222o<-$$$%#*%$o$+o+@%O+++oooOo -22222",
"2 .oo22222222-<**%$$$*;-@*:*#@:*%++O+oOo  22222",
"2 @2%222222222<$*$$$$$$%O%$++#$+#+OoOooo  22222",
"2.2o  %22222#>,$$$$$$#+Oo+X.o+oXo+o+Oooo. 22222",
"22- 22o.  o- <,#$$$$$#+;>;-;;;>@oo+ooooo  22222",
"22222 2> 2@ >11;$&###@@<11<1111%XoooX..@# 22222",
"222% @22 -% ;11>---:::->>>>>>;>;%--=%%=-:+ 2222",
"22222.o@ @@ ,1<$oooooooooo.....ooooooo##:$ 2222",
"2222222@2   ,1,#                      X@-*.2222",
"22222222222>;1:O                      X@:  .222",
"22222222222>>1*+                      X+*,+%222",
"22222222222%=<*o                      oO$*o2222",
"22222222222<o++X                      .o+o 2222",
"222222222222<<.                           <2222"
};
