/* XPM */
static char *playball[] = {
/* width height num_colors chars_per_pixel */
"    48    48      256            2",
/* colors */
"`` c #9dbbba",
"`. c #bfd4a1",
"`# c #48689b",
"`a c #617e5a",
"`b c #6c8d78",
"`c c #b0cf5c",
"`d c #c7d964",
"`e c #3e5ed7",
"`f c #bccd3d",
"`g c #618693",
"`h c #4a4c78",
"`i c #5f82b6",
"`j c #981a56",
"`k c #06ff01",
"`l c #5d0f40",
"`m c #3d3fe2",
"`n c #7ca081",
"`o c #51dd04",
"`p c #6188e8",
"`q c #1f3fc7",
"`r c #b3d425",
"`s c #d01c41",
"`t c #b3ba28",
"`u c #97b41b",
"`v c #88ac7a",
"`w c #ea2330",
"`x c #96a783",
"`y c #f42120",
"`z c #49234e",
"`A c #274097",
"`B c #314c93",
"`C c #b51124",
"`D c #7b101c",
"`E c #43182e",
"`F c #c21f4d",
"`G c #5e247e",
"`H c #9ef103",
"`I c #aa2a74",
"`J c #772579",
"`K c #be5304",
"`L c #271782",
"`M c #bd3e01",
"`N c #94680d",
"`O c #2a3616",
"`P c #211796",
"`Q c #617134",
"`R c #593ecb",
"`S c #10192f",
"`T c #4a5b17",
"`U c #1b283f",
"`V c #82b302",
"`W c #551961",
"`X c #3d3e3d",
"`Y c #5d3f38",
"`Z c #644a34",
"`0 c #8f230b",
"`1 c #901c19",
"`2 c #26323b",
"`3 c #1e2f5c",
"`4 c #3b3a5a",
"`5 c #d13307",
"`6 c #8d7214",
"`7 c #914b04",
"`8 c #8a580b",
".` c #5c0b24",
".. c #23154e",
".# c #87d704",
".a c #612932",
".b c #8c7301",
".c c #141e99",
".d c #251fbc",
".e c #779496",
".f c #768ca1",
".g c None",
".h c #650b19",
".i c #711d87",
".j c #7f2287",
".k c #46289f",
".l c #341776",
".m c #150d5d",
".n c #414f34",
".o c #2a1272",
".p c #161bbb",
".q c #ffffff",
".r c #b0194c",
".s c #6d2064",
".t c #3b1c21",
".u c #847a06",
".v c #341d53",
".w c #641107",
".x c #74140d",
".y c #0f1284",
".z c #3c7c00",
".A c #4f0814",
".B c #5f080f",
".C c #748623",
".D c #5f1b91",
".E c #1f2acf",
".F c #99c601",
".G c #60c900",
".H c #2828c9",
".I c #322bd5",
".J c #402dd6",
".K c #67165d",
".L c #a76801",
".M c #5daa04",
".N c #188d00",
".O c #4e146b",
".P c #852800",
".Q c #4a131a",
".R c #b62500",
".S c #42176c",
".T c #797e27",
".U c #af1f6b",
".V c #b92369",
".W c #552cca",
".X c #842f08",
".Y c #101f17",
".Z c #0b153c",
".0 c #728316",
".1 c #2c382c",
".2 c #394521",
".3 c #16ae01",
".4 c #78bf01",
".5 c #d52207",
".6 c #773d1e",
".7 c #cc2025",
".8 c #af5a01",
"#` c #ac6106",
"#. c #6aa203",
"## c #784a07",
"#a c #75340c",
"#b c #814415",
"#c c #333e0d",
"#d c #445111",
"#e c #384432",
"#f c #4e7400",
"#g c #354c66",
"#h c #119700",
"#i c #be1a0f",
"#j c #6e91be",
"#k c #4cf502",
"#l c #3d2a2a",
"#m c #de2d01",
"#n c #949d10",
"#o c #7195c5",
"#p c #461e1c",
"#q c #e82b03",
"#r c #1e41f5",
"#s c #370c42",
"#t c #4a6a00",
"#u c #202c32",
"#v c #0b1073",
"#w c #a22600",
"#x c #834800",
"#y c #75ab01",
"#z c #542430",
"#A c #a5d104",
"#B c #38c301",
"#C c #2c395f",
"#D c #2b3769",
"#E c #5431bb",
"#F c #5528be",
"#G c #234fea",
"#H c #69ff01",
"#I c #e8ed25",
"#J c #ff1201",
"#K c #ffff03",
"#L c #274ae6",
"#M c #e0e701",
"#N c #834a0b",
"#O c #12230d",
"#P c #171323",
"#Q c #014600",
"#R c #1e4800",
"#S c #170d33",
"#T c #2a6000",
"#U c #3f3700",
"#V c #1e6c00",
"#W c #236500",
"#X c #3a5300",
"#Y c #1c5200",
"#Z c #3d4d55",
"#0 c #3c4a0b",
"#1 c #330d4a",
"#2 c #3a4d5e",
"#3 c #20a501",
"#4 c #7da102",
"#5 c #561f20",
"#6 c #346b01",
"#7 c #3db101",
"#8 c #6a1b54",
"a` c #701d58",
"a. c #1d3178",
"a# c #8e2d8a",
"aa c #a64706",
"ab c #90328f",
"ac c #0d29e0",
"ad c #e8ee4c",
"ae c #edf24f",
"af c #1020c7",
"ag c #cd4702",
"ah c #27a405",
"ai c #ac4601",
"aj c #239b04",
"ak c #31174a",
"al c #749f01",
"am c #d24101",
"an c #60250b",
"ao c #3f2005",
"ap c #151b11",
"aq c #364017",
"ar c #324406",
"as c #46553b",
"at c #485742",
"au c #1a0b4c",
"av c #0c26b2",
"aw c #0f1f70",
"ax c #43a500",
"ay c #b80f0f",
"az c #3d401b",
"aA c #2f4167",
"aB c #101565",
"aC c #314562",
"aD c #ae1509",
"aE c #b7160c",
"aF c #cb190c",
"aG c #0fe703",
"aH c #d11b0f",
"aI c #e8f827",
"aJ c #29cc01",
"aK c #7ec801",
"aL c #87c700",
"aM c #4cb302",
"aN c #ebf32a",
"aO c #888803",
"aP c #848c08",
"aQ c #1a33fb",
"aR c #449f04",
"aS c #d9131c",
"aT c #76ff01",
"aU c #261a0c",
"aV c #80381a",
"aW c #41230e",
"aX c #083b00",
"aY c #392e00",
"aZ c #371e00",
"a0 c #577b00",
"a1 c #970b08",
"a2 c #69792d",
"a3 c #542713",
"a4 c #25b501",
"a5 c #622423",
"a6 c #a41208",
"a7 c #0f29f6",
"a8 c #d0f41e",
/* pixels */
".g.g.g.g.g.g.g.g.g.g.g.g.g.g.g.g.g.g.g.g.g.g.g.g.g.g.g.g.g.g.g.g.g.g.g.g.g.g.g.g.g.g.g.g.g.g.g.g",
".g.g.g.g.g.g.g.g.g.g.g.g.g.g.g.g.g.g.g.g.g.g.g.g.g.g.g.g.g.g.g.g.g.g.g.g.g.g.g.g.g.g.g.g.g.g.g.g",
".g.g.g.g.g.g.g.g.g.g.g.g.g.g.g.g.g.g.g.u.M#BaJaGa4a0`7.X.x.g.g.g.g.g.g.g.g.g.g.g.g.g.g.g.g.g.g.g",
".g.g.g.g.g.g.g.g.g.g.g.g.g.g.g.g`h`t#M#M#M#M`H`k`k`k`kaJ.L#qaH`D.g.g.g.g.g.g.g.g.g.g.g.g.g.g.g.g",
".g.g.g.g.g.g.g.g.g.g.g.g.g.gacaca7#r`f#K#K#K#K#K#H`k`k`k`kaJam#J#J.K.g.g.g.g.g.g.g.g.g.g.g.g.g.g",
".g.g.g.g.g.g.g.g.g.g.g.g#JaSa7a7a7a7#L#I#K#K#K#K#KaT`k`k`k`kaGaO#J#J.7.l.g.g.g.g.g.g.g.g.g.g.g.g",
".g.g.g.g.g.g.g.g.g.g###q#J#Ja7a7a7aQaQ.f#K#K#K#K#K#KaT`k`k`k`k`kal#J#JaS.Dak.g.g.g.g.g.g.g.g.g.g",
".g.g.g.g.g.g.g.g.gajai#J#J#Ja7aQaQaQaQ#r`x#K#K#K#K#K#K#H`k`k`k`k`k.b#J#JaS.D.o.g.g.g.g.g.g.g.g.g",
".g.g.g.g.g.g.g.gah#7#q#J#J#J.WaQaQaQaQaQ`e#I#K#K#K#K#K#M#k`k`k`k`k`kag#J#J.7.k.o.g.g.g.g.g.g.g.g",
".g.g.g.g.g.g.gaRaG#.#J#J#J#J.VaQaQaQaQaQaQ.e#K#K#K#K#K#K`H`k`k`k`k`kaJ#q#J#J.r.d.o.g.g.g.g.g.g.g",
".g.g.g.g.g.gaPaJaG.u#J#J#J#J#JaQaQaQaQaQaQ#L#I#K#K#K#K#K#K#H`k`k`k`k`kaO#q#J#J`jaf.v.g.g.g.g.g.g",
".g.g.g.g.g.g#BaGaGaO#J#J#J#J#J.JaQaQaQaQaQaQ`i#K#K#K#K#K#K`H`k`k`k`k`kaG`K#J#JaS.kaf.g.g.g.g.g.g",
".g.g.g.g.g.FaJaGaGal#J#J#J#J#J.Ua7aQaQaQaQaQ#GaN#K#K#K#K#K#KaT`k`k`k`k`k#.#q#J#q.rac.c.g.g.g.g.g",
".g.g.g.g.g.FaJaGaGaM#J#J#J#J#J#J.IaQaQaQ#r#r#r#o#K#K#K#K#K#K`H`k`k`k`k`kaG#`#J`yaH.kaf.g.g.g.g.g",
".g.g.g.g.FaLaGaGaGaG#q#J#J#J#J#J#FaQaQ#r#r#G#G#GaN#K#K#K#K#K#KaT`k`k`k`k`kaO#J`y#q.7acav.g.g.g.g",
".g.g.g.g.FaKaGaGaGaG.8#J#J#J#J#J`saQ#r#r#G`e`e`e``aN#K#K#K#K#K`H`k`k`k`k`kaG`5#q#q.7.Haf.g.g.g.g",
".g.g.g.T.F.GaGaGaGaGal#J#J#J#J#J#J#E#r#G`e`e`p`p`paeaN#K#K#K#K#M#k`k`k`k`kaG.u#qaH.5`Jac#D.g.g.g",
".g.g.g#n.FaKaGaGaGaG.M#J#J#J#J#J#J`I#r#G`e`p`p`p`p`.aN#K#K#K#K#M`H`k`k`k`kaG#..5aH.5.7acav.g.g.g",
".g.g.g.F.FaKaGaGaGaGaJ#m#J#J#J#J#J`y`R#G`e`p`p`p`p`pad#K#K#K#M#Ma8`k`k`k`kaGaJ.5aHaH.7acaf.g.g.g",
".g.g`4.F.F.FaJaGaGaGaG.b#J#J#J#J#J#Jab#r#G`e`e`e`e`e`d#K#K#K#M#Ma8#k`k`kaGaGaGaaaHaH.7.Eaf`X.g.g",
".g.g#D.F.F.FaJaGaGaGaGax#J#J#J#J#J#J`w`m#G#G#G#G#G#G#jaIaIaI#Ma8a8`HaGaGaGaGaGa0aHaHaF.kaf#C.g.g",
".g.g#D.F.F.FaJaGaGaGaGaJ`M#J#J#J#J#J#Ja##r#r#r#r#r#r#r`caIa8a8a8a8#MaGaGaGaGaGa0aFaF#i`Gafa..g.g",
".g.ga.#n.F.F#BaJaGaGaGaGaR#J#J#J#J#J#J`FaQaQaQaQaQaQaQ`va8a8a8a8a8#MaGaGaGaGaG#faFaF#i.safa..g.g",
".g.ga.#n.F.F.4.3aJaGaGaGa4.5#J#J#J#J#J#J.ja7aQaQaQaQa7#La8a8a8a8#M#M`oaGaGaGaJaRaEaEaEa`ava..g.g",
".g.ga.aP#n.F.Fa4.3aJaJaGaGa0#m#J#J#J#J#J.ra7a7a7a7a7a7a7`na8a8a8#M#A.#aGaGaJ.3.zaDaDaD#8ava..g.g",
".g.g.y`Q#n.F.F#7.3.3aJaJaGaJaF.5#m#J#J#J.5.ia7a7a7a7a7a7`ga8a8a8`r#A#AaJaJ.3.3aj#waDa6`Wavaw.g.g",
".g.g#vaC#n#n.F`Va4.3.3.3aJaJa0aH.5.5#m#m#m.ra7a7a7a7a7a7#r`r`r`r#A#A#AaJ.3.3.3aj#wa6a1.S.c`3.g.g",
".g.gaBa.#n#n#n`V#7.3.3.3.3aJ.3.RaH.5.5.5.5aH.Da7a7a7a7a7a7`b`r#A#A#A.Fa4.3.3.3.N`0a1a1`L.c#e.g.g",
".g.g..awa2#n#n#n#y.3.3.3.3.3.3.z.RaFaFaH.5.5`Ca7a7a7a7a7a7`##A#A#A.F.Fa4.3.3.3.za1a1a1.c.y.2.g.g",
".g.g.g#vaA#n#n#4#4aM.3.3.3.3.3.3#xayaFaFaFaFay.Da7a7a7a7a7`q`u#A.F.F.F#7.3#h#h#6a1a1.x.c.y.g.g.g",
".g.g.gaB.y.C#n#n#4#4#3.3.3.3.3.3aj#wayayayayayayacacacacacac`a.F.F`V`Vax#h#h#h#Ta1a1.h.yaB.g.g.g",
".g.g.gau#v#2aPaPaP#4.M#h#h.3.3.3.3#taDayayayayay.Dacacacacac`B`V`V#4#4aR#h#h.N#X.x.x#1#v.1.g.g.g",
".g.g.g.gaBawa2aPaPaP#4aR#h#h#h#h.3.3#taDaDaDaDaDaD.pafafafaf`A#4#4#4#4aR.N.N.N#U.x.B#v#v.g.g.g.g",
".g.g.g.gauawa.a2aPaPaPalaj#h#h#h#h#h#h.Pa6a6a6a6a6.Oafafafafav.C#4#4aP.z.N.N#Van.w.A#v`U.g.g.g.g",
".g.g.g.g.gaBaw#Z.0.0aPaO#..N#h#h#h#h#h#6a1a1a1a1a1a1`P.p.p.p.p#gaPal.0.z#V#V#Y.B.BauaB.g.g.g.g.g",
".g.g.g.g.g#SaBawat.0.0.0.0a0.N.N.N.N.N#h#Xa1a1a1a1a1`lavavavava..0a0a0#6#V#Q#U.B.A.m#u.g.g.g.g.g",
".g.g.g.g.g.gauaBa.as.0a0a0a0a0.N.N.N.N.N.N#Xa1a1a1a1a1.oav.c.c.ya0a0#t#W#Q#QaZ.Aau.Z.g.g.g.g.g.g",
".g.g.g.g.g.g.AauaB`3.na0a0a0a0#f#V#V#V.N.N#V#U.x.x.x.x.`.y.c.y.y`T#t#t#Y#QaXao#P.Z`O.g.g.g.g.g.g",
".g.g.g.g.g.g.g.tauaBaB#e#t#t#t#t#t#V#V#V#V#V#V#U.w.w.w.w#s.y.y.y.1#t#X#Q#QaUaU.Z#u.g.g.g.g.g.g.g",
".g.g.g.g.g.g.g.g.tauaBaB`2#d#t#t#t#t#T#W#Q#Q#Q#QaY.B.B.B.B.m#v#v`U#XaraX#OaU#S#u.g.g.g.g.g.g.g.g",
".g.g.g.g.g.g.g.g.g.A#S.ZaB.Zaq#d#X#X#X#X#Y#Q#Q#Q#QaY.A.A.A.t.m.m.Zar#RaXaU#S#P.g.g.g.g.g.g.g.g.g",
".g.g.g.g.g.g.g.g.g.g.A#S.Z.Zau#u#c#0#X#X#X#R#Q#Q#Q#QaXaZaZaZ#PauauaYaXaU#P.Y.g.g.g.g.g.g.g.g.g.g",
".g.g.g.g.g.g.g.g.g.g.g.g.A.Zauau.Z#u#c#c#c#caraXaXaXaXaXaUaZaU#S.ZaY#O#P.g.g.g.g.g.g.g.g.g.g.g.g",
".g.g.g.g.g.g.g.g.g.g.g.g.g.g.A.Zauauau.Z`O#U#U#UaYaYaXaXaXaXaUaU#S#O.g.g.g.g.g.g.g.g.g.g.g.g.g.g",
".g.g.g.g.g.g.g.g.g.g.g.g.g.g.g.gao#P#Sau.Z.Z.Z`S.Y`OaU#O#O#O#OaU.g.g.g.g.g.g.g.g.g.g.g.g.g.g.g.g",
".g.g.g.g.g.g.g.g.g.g.g.g.g.g.g.g.g.g.gaU.AaU#P#P#P#P#P#PaU.g.g.g.g.g.g.g.g.g.g.g.g.g.g.g.g.g.g.g",
".g.g.g.g.g.g.g.g.g.g.g.g.g.g.g.g.g.g.g.g.g.g.g.g.g.g.g.g.g.g.g.g.g.g.g.g.g.g.g.g.g.g.g.g.g.g.g.g",
".g.g.g.g.g.g.g.g.g.g.g.g.g.g.g.g.g.g.g.g.g.g.g.g.g.g.g.g.g.g.g.g.g.g.g.g.g.g.g.g.g.g.g.g.g.g.g.g"
};
