/* XPM */
static char *magick[] = {
/* columns rows colors chars-per-pixel */
"48 48 33 1",
"  c None",
". c #040479",
"X c #78741c",
"o c #060585",
"O c #3a3a8c",
"+ c #56529a",
"@ c #706e90",
"# c #7272a9",
"$ c #847e1c",
"% c #8f8d1c",
"& c #afad2a",
"* c #b69a6c",
"= c #b2a274",
"- c #cabe3c",
"; c #cdc54a",
": c #d7c464",
"> c #e7d86b",
", c #fefe7c",
"< c #9a9994",
"1 c #8e8eb8",
"2 c #b2b090",
"3 c #aca9b0",
"4 c #8e8ec4",
"5 c #caba84",
"6 c #d7d38b",
"7 c #cdcdb4",
"8 c #e5dc93",
"9 c #f8f696",
"0 c #f8f6ae",
"q c #c6c6d4",
"w c #fdfdd1",
"e c #fdfde9",
"r c None",
/* pixels */
"rrrrrrrrrrrrrrrrrrrrrrrrrrrrrrrrrrrrrrrrrrrrrrrr",
"rrrrrrrrrrrrrrrrrrrrrrrrrrrrrrrrrrrrrrrrrrrrrrrr",
"rrrrrrrrrrrrrrrrrrr  rrrrrrrrrrrrrrrrrrrrrrrrrrr",
"rrrrrrrrrrrrrrrrrrr 8  rrrrrrrrrrrrrrrrrrrrrrrrr",
"rrrrrrrrrrrrrrrrrr 59w6  rrrrrrrrrrrrrrrrrrrrrrr",
"rrrrrrrrrrrrrrrrrr 0www06   rrrrrrrrrrrrrrrrrrrr",
"rrrrrrrrrrrrrrrrrr wwwwwww86    rrrrrrrrrrrrrrrr",
"rrrrrrrrrrrrrrrrr 5wweewwwwww86*    rrrrrrrrrrrr",
"rrrrrrrrrrrrrrrrr wweweewwwwwwww086=    rrrrrrrr",
"rrrrrrrrrrrrrrrr 5eeeeeewewwwww00000086*    rrrr",
"rrrrrrrrrrrrrrrr 0eeeeeeewwewwwwww0w0000086*  rr",
"rrrrrrrrrrrrrrrr eeeeeeeeeewwwww0ww000009998& rr",
"rrrrrrrrrrrrrrr 5eeeeq4O.o.o.+7www0000000998% rr",
"rrrrrrrrrrrrrrr 0eee3.ooo.o.o..+w0000000999>% rr",
"rrrrrrrrrrrrrr 5eee4ooo.qeq+o...@w000098999;% rr",
"rrrrrrrrrrrrrr 0eeeoo.o#eeeeoo.oo0000888889% rrr",
"rrrrrrrrrrrrr 6eeeeooooqeeew1....<008888688% rrr",
"rrrrrrrrrrrrr 0eeee+oo4eeeew3.o..<080886866$ rrr",
"rrrrrrrrrrrr 8weeeeeq3eeeeee3....<70088866;% rrr",
"rrrrrrrrrrr 5weeeeeeeeeweeew+....007788668&X rrr",
"rrrrrrrrrrr 9wwweeeeeeeeeewqo.o.O000088>69% rrrr",
"rrrrrrrrrr 5wwweeeeeeeeewwe+o...3008888886% rrrr",
"rrrrrrrrrr 9wwwweweeweweww+o.o.3000888889;% rrrr",
"rrrrrrrrr 8wwwwwwewwwweww+...o<0007988899-X rrrr",
"rrrrrrrr 50wwwwwwwwwwwq#oo.oo300088808099% rrrrr",
"rrrrrrrr 9wwwwwwwwwwww.o..o10008088090998% rrrrr",
"rrrrrrr 800w0w00ww0ww3.o#300000890000909>% rrrrr",
"rrrrrr 50w000wwwwwwww#..w000770000990099;$ rrrrr",
"rrrrrr 8000w0ww00wwww+.O0w00000000900999% rrrrrr",
"rrrrr =00000000w00w0w..+0008000000090998% rrrrrr",
"rrrr =60000000w00w00w000700090000009999>%   rrrr",
"rrrr 5900000000000000000889000090099999;$     rr",
"rrr =990000000000000+..=>99009090999999%      rr",
"rr %->9999009000000.....:8899009999999>%      rr",
"rrr  -->99909090903.....<8990999999999;X     rrr",
"rrrrr  &->999909092.....68099999999999%     rrrr",
"rrrrrrr  -->9990999....<999999999999,>$     rrrr",
"rrrrrrrrr  &&:>99996@@2999999999999,,;X    rrrrr",
"rrrrrrrrrrr  %&&;>999,9999999999999,>%    rrrrrr",
"rrrrrrrrrrrrr   %&&:>9999999,99,9,9,;X    rrrrrr",
"rrrrrrrrrrrrrrrr   %&&:>,999,,,9,,9>%    rrrrrrr",
"rrrrrrrrrrrrrrrrrrr   %&&:>9,9,99,,;%   rrrrrrrr",
"rrrrrrrrrrrrrrrrrrrrrr   %&%:>89,8>%   rrrrrrrrr",
"rrrrrrrrrrrrrrrrrrrrrrrrr   $%$X>>;X  rrrrrrrrrr",
"rrrrrrrrrrrrrrrrrrrrrrrrrrrr    XXX  rrrrrrrrrrr",
"rrrrrrrrrrrrrrrrrrrrrrrrrrrrrrrr    rrrrrrrrrrrr",
"rrrrrrrrrrrrrrrrrrrrrrrrrrrrrrrrrrrrrrrrrrrrrrrr",
"rrrrrrrrrrrrrrrrrrrrrrrrrrrrrrrrrrrrrrrrrrrrrrrr"
};
