/* XPM */
static char *magick[] = {
/* columns rows colors chars-per-pixel */
"48 48 33 1",
"  c None",
". c #0e0e33",
"X c #2d2a17",
"o c #181853",
"O c #1c1c65",
"+ c #22225c",
"@ c #252575",
"# c #656130",
"$ c #66664a",
"% c #2f2f94",
"& c #3939ad",
"* c #4444bc",
"= c #6e6eb4",
"- c #4d4dce",
"; c #5858e6",
": c #827e2c",
"> c #95922d",
", c #aea736",
"< c #a9a350",
"1 c #baac72",
"2 c #c3bb53",
"3 c #c4bd61",
"4 c #d0c753",
"5 c #d3cc6f",
"6 c #e7dc76",
"7 c #cebe8c",
"8 c #dbd39a",
"9 c #e5dd95",
"0 c #f8f593",
"q c #fcfaac",
"w c #fdfccf",
"e c #fdfdfc",
"r c None",
/* pixels */
"rrrrrrrrrrrrrrrrrrrrrrrrrrrrrrrrrrrrrrrrrrrrrrrr",
"rrrrrrrrrrrrrrrrrrrrrrrrrrrrrrrrrrrrrrrrrrrrrrrr",
"rrrrrrrrrrrrrrrrrrr  rrrrrrrrrrrrrrrrrrrrrrrrrrr",
"rrrrrrrrrrrrrrrrrrr 9  rrrrrrrrrrrrrrrrrrrrrrrrr",
"rrrrrrrrrrrrrrrrrr 5qw5  rrrrrrrrrrrrrrrrrrrrrrr",
"rrrrrrrrrrrrrrrrrr wwwww8   rrrrrrrrrrrrrrrrrrrr",
"rrrrrrrrrrrrrrrrrr wwwwwww95    rrrrrrrrrrrrrrrr",
"rrrrrrrrrrrrrrrrr 7wewwewewww951    rrrrrrrrrrrr",
"rrrrrrrrrrrrrrrrr X     Xwwwwwwww951    rrrrrrrr",
"rrrrrrrrrrrrrrrr..*&&&&&&o $wwwwwwqwq957    rrrr",
"rrrrrrrrrrrrrr o-&**&&&&&%%@ 8wwwwwwwqqqq953  rr",
"rrrrrrrrrrrrr.*----***&&&&%%%.1wwqwqqwqqqqq8, rr",
"rrrrrrrrrrrr.----*-&*&*&&&&%%%.1wwwwqwqqqqq9> rr",
"rrrrrrrrrrr.*-----=eeee=&&&%%%@ 8qwqqqqqqq06> rr",
"rrrrrrrrrr -------eeeeee&&%%%%@O 99099990904, rr",
"rrrrrrrrrro-------eeeeee&&&&%%@@+#885956569> rrr",
"rrrrrrrrr -----;;;=eeee=&&&%%%%O+ 555435455> rrr",
"rrrrrrrrro--;;;;-;---*-&&&&&%&@@O.<11153132> rrr",
"rrrrrrrr O---;;;;;;----*-&&&%%@@O.#1333243,> rrr",
"rrrrrrrr ----;;;;=======&&&&&%%@O.X5413334,> rrr",
"rrrrrrrr -----;;;eeeeeee&&&%%%@@+. 3333332, rrrr",
"rrrrrrrr -----;----eeeee&&&&%%%@o. 5331432> rrrr",
"rrrrrrrr -&--------eeeee&&%&%%@Oo. 133323,> rrrr",
"rrrrrrrr &*--------eeeee&&&%%%@Oo.X333332,> rrrr",
"rrrrrrrr ***---*---eeeee&&%%%%@oo #333412> rrrrr",
"rrrrrrrr .&-**--***eeeee&&%%%@Oo.o<123232> rrrrr",
"rrrrrrr 8 **&**--&&eeeee&&%%@@Oo  3133233> rrrrr",
"rrrrrr 7w$O&&&&*&&&eeeee%%%%@@o.+#332333,> rrrrr",
"rrrrrr 9qq &&&&&eeeeeeeeeee@@+o. 4522234,Xrrrrrr",
"rrrrr 1qqw1.&&&&&&&&&&%%%%@@+o. >3214353>Xrrrrrr",
"rrrr 18qqqq$.%&&&&%&%%%%@@@++..#13345565>   rrrr",
"rrrr 7qqqqwq$.&%%%%%%%%@@O+o..#414555694>     rr",
"rrr 1qqqqqqqq1 +%%%%%%@O@oo+ >445556000>      rr",
"rr >460qq0qqq09$ .@@@@OOoo #33555599006>      rr",
"rrr  446q0qqqq098<#X   X#<3555669000004#     rrr",
"rrrrr  2260qqqq09555555555566990000000,     rrrr",
"rrrrrrr  2460q0q0099966696900000000006>     rrrr",
"rrrrrrrrr  2,560q000090009000000000004>    rrrrr",
"rrrrrrrrrrr  >2,5600000000qq000000006>    rrrrrr",
"rrrrrrrrrrrrr   >,,56q0q0000000000004>    rrrrrr",
"rrrrrrrrrrrrrrrr   >,,56000000000006>    rrrrrrr",
"rrrrrrrrrrrrrrrrrrr   >2,56000000004>   rrrrrrrr",
"rrrrrrrrrrrrrrrrrrrrrr   >,>569q606>   rrrrrrrrr",
"rrrrrrrrrrrrrrrrrrrrrrrrr   >,>:664>  rrrrrrrrrr",
"rrrrrrrrrrrrrrrrrrrrrrrrrrrr    >>:  rrrrrrrrrrr",
"rrrrrrrrrrrrrrrrrrrrrrrrrrrrrrrr    rrrrrrrrrrrr",
"rrrrrrrrrrrrrrrrrrrrrrrrrrrrrrrrrrrrrrrrrrrrrrrr",
"rrrrrrrrrrrrrrrrrrrrrrrrrrrrrrrrrrrrrrrrrrrrrrrr"
};
