/* XPM */
static char *magick[] = {
/* columns rows colors chars-per-pixel */
"48 48 20 1",
"  c #010102",
". c #181820",
"X c #2b2e32",
"o c #383845",
"O c #484850",
"+ c #545564",
"@ c #596159",
"# c #696c72",
"$ c #717186",
"% c #798286",
"& c #867d8e",
"* c #908e99",
"= c #9e9aa8",
"- c #a69ea6",
"; c #b2aeb7",
": c #bebec7",
"> c #cfd0d5",
", c #dfdbe7",
"< c #f0eff3",
"1 c None",
/* pixels */
"111111111111111111111111111111111111111111111111",
"111111111111111111111111111111111111111111111111",
"111111111111111111:,<,>;111111111111111111111111",
"11111111111111111:<<<<<<<:;111111111111111111111",
"1111111111111111:<>#%,<<<<<<>>111111111111111111",
"111111111111111;<,#  XO%>><<<<<,>111111111111111",
"11111111111111>,,#. .    X#;:,<<<<<>;11111111111",
"1111111111111><<# X.#..O   .X#-><<<<<,>:11111111",
"111111111111,<;O..X.**@#X oX   .X#;<<<<<<<:;1111",
"11111111111<;O..XX. O##-*#-*..o  .X<;#;<<<<<>-O.",
"111111111<:+X.O#&**%@XXO@#=;##=%..;;  .X@;<<>+..",
"111111<<*@@#-,<<<,<<,;-*#OX@+%;*@;>    %*..>+XX.",
"111<<>#@&><<<<<<<<<<<,<>:;#O#oXo:<=*X.   .<OX.X.",
"1<<:=*#@O*>,<<<<<<,<<<,,,<>>;+o=<<<<<;;Xo<%..OX ",
"1<<<<<>=#@O@*;<<<<<,,<<;=#O..#,<<<<<<<<<<%.XXXX.",
"1<<<<<<<>;=*#o+*><<<,;*+X.X#;<,,<<<<<<<<%.XXX.. ",
"1<,,,,<<<<<;-*&@oO&#X...X@:<,>>>;:>>><>#.Xo.Xoo ",
"1<>,><,,<<<<<,>>;*#X...#:<,:>>>;;;:,:*OXoX.oXoO ",
"1<>;;>>><,<><<<<<<>%##*><,;;;:;;;>:;+XXX.X.OOOO ",
"1<,;:;;;>>,,<,>><<<<:-:>-*;:-;;:;-*XXX..XOOOoOX ",
"1<<;<<>:;-;>>,>>,>><<<<<,::;=;;-$+XXXXXXo+OoXoX ",
"1<,;<<<<>;;;;;>,>>>:><<<<<:>;;#OXX.X.XOOooooXoo ",
"1<,;,>>,,<<<:==;:>>>>;><<<<<;#o..XX.XOOoOOXoXOo ",
"1<<-<<<,>>,<<<>;=-;:;:;;;;-,+..XX..OooOooooooOO.",
"1<,-<,>,><>,>><<<>**;-::;;:;XXX..XoOOXXoooXoOXX ",
"1<<*,><<>>>,>>>:><<<>%*-;;=;...XO@OoXXXoooXXoOo.",
"1<<#*#;,,,>>>>>>>>:;,;>;*=;-...oOoXoXXoOXoXOOoo.",
"1<<#:=*#*;,,>>>:;;;;;*,<<;*=XoOooXXXoXoXXoo+OX..",
"1<<#<<:***#-;>>>;::;;=,;:>><+OXoXXXoooooooOO....",
"1><+<<<<<:###=;;>::;;#:;;;;;XXXXXoOXXXoXOoo.. .X",
"1oO#,,,>,<<,=%#$;;;;;%,;;==*.oXXXXXXXXoOoX...XOO",
"111.##;,>>><,<;@@#=;;%>-==;;XXOoOOOoooOOX. .XO#1",
"11111.X#->::;>><<=@##%,;;*;*ooXXXooooOo. .Xoo111",
"11111111X@*>:::;,,<=*#>-;=;*ooooXooOX....XO11111",
"1111111111.X#;>;;-:<>#>***=*ooooooOo. ..X+111111",
"111111111111.X@*;;;;;+>-=**=oXXXooo...XO11111111",
"11111111111111..O#-*-O>*==**XoXoXX...X1111111111",
"11111111<<<<<<>*OXX#*#>*=***ooOX....o11111111111",
"1111111<<<<<,,,,>&+ XO**=***XoX...X1111111111111",
"111111<<<<<<<<,,<>:++ooX+#**XX...111111111111111",
"11111<<<<,,<>,,>,>-+;;%OXX.. ..X1111111111111111",
"1111<<<<<,<,>,>>>-##>1111X....111111111111111111",
"111<<<,<<<,,>>:>>%@=,111111111111111111111111111",
"11,<<<<<<>>>,>>>;@#:,111111111111111111111111111",
"11,<,<,,>,,>>>>:=#;,>111111111111111111111111111",
"1++oOO+OOOOOOoO@O@;,:111111111111111111111111111",
"1111*;,<<<><>,>>;;<;=111111111111111111111111111",
"1111#@+oO@OOOOO++X+++111111111111111111111111111"
};
