/* XPM */
static char *magick[] = {
/* columns rows colors chars-per-pixel */
"48 48 17 1",
"  c #070707",
". c #313131",
"X c #3f403f",
"o c #403f40",
"O c #505151",
"+ c #605f5f",
"@ c #6f6f6e",
"# c #807e7f",
"$ c #908f8f",
"% c #9fa0a2",
"& c #b0b1b0",
"* c #bfbfc0",
"= c #bfc0c0",
"- c #c0bfbe",
"; c #cdcdcd",
": c #f1f1f1",
"> c None",
/* pixels */
">>>>>>>>>>>>>>>>>>>>>>>>>>>>>>>>>>>>>>>>>>>>>>>>",
">>>>>>>>>>>>>>>>>>$O.$>%+.o..O$>>>>>>>>>>>>>>>>>",
">>>>>>>>>>>>>>>>@O  ..@. . .    O%>>>>>>>>>>>>>>",
">>>>>>>>>>>>>>@. .   .       .   O>>>>>>>>>>>>>>",
">>>>>>>>>>>&$. .  .O   .    . .. @>>>>>>>>>>>>>>",
">>>>>>>>>;::$    .$:;@    . .    @>>>>>>>>>>>>>>",
">>>>>>>&::::;..   :::::$+ .. .   $>>>>>>>>>>>>>>",
">>>>>>:::::::@  .O::;;:::@  .  .  @>>>>>>>>>>>>>",
">>>>>>;&:::;:$   @:;;;;;;@.   . . .@>@..$>>>>>>>",
">>>>>>%+:;:;;:$#$&:;;;&;;.  . .    .O.  O$>>>>>>",
">>>>>>@.$;;;;;;;;;;;--;&&   .      . . . @>>>>>>",
">>>>$X  %::;;;;;;;;*;&;;%. .  . ..       .$>>>>>",
">>&;$. @::;;;;;;;;&--&&&&$.  .@+  . .  . ..>>>>>",
">>:::;@:;;;;;;;;;---&&&&&&$O.;:%.  .  .    @>>>>",
">>::;:::;;;;;;=;-;&&&&&&&%%%&:&%O .   .   .+>>>>",
">&:;:;:;;;;;;;=&&*&&&&&&&%%%%%%%$.  .    .+>>>>>",
">;:;;;;;;;;;;;-&&&&&&&&%%%%%$%$$$@      .$>>>>>>",
">::;;;;;-;&;&&&&&&&&&&%%%%%%%$$$$$O. ... #>>>>>>",
">&%;;;;;-&;&&&&&&&&&%%%%%$%$$$$$$#$O..   O>>>>>>",
">@ O&;*;;*&;&&&&%@OO#%%%$%$$$$$$$$#O   .  $>>>>>",
">>@. ;&;&&&&&&&$.....O%%$$$$$$$@$@..   .  @>>>>>",
">>>>O;*&&&-&&&&O.  . .@$$$$$$$#$=.   .   ..  @>>",
">>>>O&&&&&&&&%$X.     @%$$$$$$@-@.. . .   .  +>>",
">>>>$;&&&&&&&%$.. . . O&$#$@$&;@@O  .   .   .+>>",
">>&::;&&&&%&%%@.. &$ . $&#$#@##@@O   . ..   .+>>",
">&::&&&%&%%%%%$..O$..  O:#;@@@@@@@ .      ..OO>>",
">&:&&&&%%%%%%%$.. &..  .:$@$#@@@@@+...   ..OOO>>",
">&:;%&%%%%%$$$$O+ +%.   ;&@@@@@@@+++++...OOOO+>>",
">>:;&%%%%%$%$$$@+. .  ..$%@@@@@+++++++..OOOO.$>>",
">>:;%%%$%$$$$$$$%@   .  &&@@@@@+++++O+.oOOO.@>>>",
">>-:%%%$$$$$$$$#%;.    O:$@@@++++++OOO.OO. @>>>>",
">>>:%%%$$$$$#$#$$%:@ .+;;@@++++++OOOOO.O..$>>>>>",
">>>&.   O$$##$$@#@&::::;@++++++OOOOOOO.. o>>>>>>",
">>>%$@$@.@$$#&#@@@@@%%@@@++++OOOOOOoO..   O>>>>>",
">>>>>>>>@O@$=#@@@@@@@@++++++OOOOOO.....    >>>>>",
">>>>>>>>>O@&@#@@@@@@@++++O+OOOOOOo.. .  . @>>>>>",
">>>>>>>>;:@@@@@@@@+@+++++OOOOOOOX..   .  @>>>>>>",
">>>>>>>>:=@@@@@@+@++++OOOOOOOOoOX.. .   @>>>>>>>",
">>>>>>>>:@@@@@@@+++++OOOOOOOOOOO...    @>>>>>>>>",
">>>>>>>>&o+@@@@++++++OOOOOOO........ .@>>>>>>>>>",
">>>>>>>>>$..++O.OO+OOOOOOOOOOoO..... $>>>>>>>>>>",
">>>>>>>>>>$O.O....XOOOOOOO.o.o......$>>>>>>>>>>>",
">>>>>>>>>>>%@. @>$.OOOOO...   O... $>>>>>>>>>>>>",
">>>>>>>>>>>>>>>>>>+.OO..oo .   ..O%>>>>>>>>>>>>>",
">>>>>>>>>>>>>>>>>>+.OOO..o     .@>>>>>>>>>>>>>>>",
">>>>>>>>>>>>>>>>>>+......O.. .$>>>>>>>>>>>>>>>>>",
">>>>>>>>>>>>>>>>>>>o.... .+>>>>>>>>>>>>>>>>>>>>>",
">>>>>>>>>>>>>>>>>>>>>>>>>>>>>>>>>>>>>>>>>>>>>>>>"
};
