/* XPM */
static char *magick[] = {
/* columns rows colors chars-per-pixel */
"48 48 26 1",
"  c #000100",
". c #003400",
"X c #183820",
"o c #281c10",
"O c #085d08",
"+ c #247333",
"@ c #516179",
"# c #15ad25",
"$ c #289628",
"% c #30ae28",
"& c #10fb18",
"* c #28c330",
"= c #20fb30",
"- c #30c741",
"; c #518651",
": c #59af61",
"> c #49cb51",
", c #59d361",
"< c #61e379",
"1 c #79e7a6",
"2 c #8e8e96",
"3 c #8bb891",
"4 c #8ed3ae",
"5 c #9de4ae",
"6 c #aafdb2",
"7 c None",
/* pixels */
"7777777777777777777777777OOOOO.o .77777777777777",
"777777777777777755555555-*$  XXXOOo.777777777777",
"7777777777777715555565<<#% XXXOOOOO+.77777777777",
"7777777777777<555651<,,:% XOXOOOOO+++.7777777777",
"7777777777777555154<3,-* XXXOOOO++++$.7777777777",
"7777777777775651<3,:--*$ XXOOO+O+++++$o777O.O777",
"77777777777+55<<3,:*:*##+.OOOO++++++$#.7Oo..O777",
"777777777774<,,:>::%%$$+7.XOO++++$+$+$+.o$OO7777",
"77777777777<3,:*-*##;#$ 77.O++++$+$###$###.77777",
"777777777O,3-:*%%;#$#$O 77oOO++++$+$$#%#+.777777",
"777777777O:>-*##$##### $777.O+$+$##%###%OO777777",
"77777777O%::*%#$#$$$$O 7777.O++$$$$#%--$o7777777",
"777777777O.+%#$###### @77777.+$##%#*--*o77777777",
"77777777777O.+$$$+$+O 77777..$$#$#%*--OO77777777",
"7777777777777Oo+#$##.+77Oo.+$##%#%--*+.777777777",
"777777777777777O.+$$.777o...o...o...o.777OO.7777",
"77777777777777777O..@777777777777777777OO+$o7777",
".:555555551,< +7777O77777777777777777OO++$$+.777",
"7. *555555<<<=.77777777777777777777OO+##$###.777",
"77+o 51114<<,,OO7777777%$+++77777OO++$+$+$$$+.77",
"7772+5<1<<<,,>-.777777%>=%+O+777O+$###$##$#$#.77",
"7777<<<,<,>,>-*;.77777#66#+O.777O$+$+$+$$#$%$%o7",
"777+<<3,,>>>-*##OO7777%=&#+O.7777O##$##%##*#*%..",
"777,3=&--***##%#%+.777+++OOoO77777O#%$##%-*-->*.",
"7773>>::*#%$#$#o#$OO77+OOOo.+77777O+#%#*-:>:>%%.",
"777>>-**##%*%#oO..+.777+..O+7777777O##*-->>-*;#.",
"777+:%*##$%%#OO777..7777777777.7777O+::-::-*;%+.",
"777O#*##%#%#% +777777777777777.77777O#*---*##+.7",
"7777$#%##$#$O 7777777777777776 77777O+%#%%$#++o7",
"7777O###%#%% +7777777777777775 777777O#;####+.77",
"77777+%%#$%+ 777777777777777<6 777777O++++O.o.77",
"777777%#%#%  ....o.OOOOO777766..oO.OOOOOo..Oo777",
"777777+$#$O XXO+++++$+$o777166555<,>$#$++OOO.777",
"7777777#%# .XOO++++##$#.77+665551<>:##$++OO.7777",
"7777777:#O XOOO+++++$$%.7O16551<3>*%$$+++OO.7777",
"7777777O% oXOO+++++$##*.771555<3,:*###++OO.77777",
"7777777O+ XXOO++++$$#%*oO15551,,::%#$$+OOXo77777",
"77777777O XOO+++$$###--.71551<=,>-##$++OXo777777",
"77777777O XOOX++++$$*>>.77554<,*%%$$+++OX.777777",
"777777777oXOO+++$#%%-=, 771<<3>:%$#++++X.7777777",
"7777777777.OO+++$+%:>,1 77O34,:%$$+$O+X.77777777",
"77777777777..++###%=,1<.77O,3:###+++Oo.777777777",
"7777777777777o...o...o..7777,%      o77777777777",
"777777777777777777777777777O3% 77777777777777777",
"77777777777777777777777777777# 77777777777777777",
"77777777777777777777777777777: 77777777777777777",
"777777777777777777777777777777.77777777777777777",
"777777777777777777777777777777.77777777777777777"
};
