/* XPM */
static char *magick[] = {
/* columns rows colors chars-per-pixel */
"48 48 33 1",
"  c #010100",
". c #183408",
"X c #2c0504",
"o c #2c2a24",
"O c #184d00",
"+ c #324f29",
"@ c #500101",
"# c #552210",
"$ c #513028",
"% c #690200",
"& c #712705",
"* c #692020",
"= c #595048",
"- c #73635d",
"; c #717986",
": c #639753",
"> c #921406",
", c #862420",
"< c #be7518",
"1 c #9e7171",
"2 c #b65044",
"3 c #d71810",
"4 c #cf4928",
"5 c #d76949",
"6 c #e26465",
"7 c #8e9251",
"8 c #f7a649",
"9 c #8f9386",
"0 c #bebebe",
"q c #d39792",
"w c #d4cfd4",
"e c #e8f1dc",
"r c None",
/* pixels */
"rrrrrrrrrrrrrrrrrrrrrrrrrrrrrrrrrrrrrrrrrrrrrrrr",
"rrrrrrrrrrrrrrrrrrrrrrrrrrrrrrrrrrrrrrrrrrrrrrrr",
"rrrrrrrrrrrrrr                   rrrrrrrrrrrrrrr",
"rrrrrrrrrrrrrr@55555462422565422%rrrrrrrrrrrrrrr",
"rrrrrrrrrrrrrr%21115>%%%@%>54222%rrrrrrrrrrrrrrr",
"rrrrrrrrrrrrrr%qqq2@%>>>>%  5165%rrrrrrrrrrrrrrr",
"rrrr   XXXXX@@%q22X&333>>>XXX563%%@%@@X@XX rrrrr",
"rrrr o$$####@*%q22%333>3>>@@XX23>%%%**##** rrrrr",
"rrrrro==$$*$&*@6&%>3333>>%%@X >2%%,,*,$$*,rrrrrr",
"rrrrrr o7==*,*%6%%>333>3%>@@  >4%%>>,>&2#rrrrrrr",
"rrrrrrro*=,222%5&@>>333>>%&@  ,4%%22222&rrrrrrrr",
"rrrrrrrrX=2152%6*@>>>>>%%&XX  >4%%4222*rrrrrrrrr",
"rrrrrrrrrX*115%1*X%>>%>%%%XX  ,5>%242,rrrrrrrrrr",
"rrrrrrrrrrX*12%6>>  @*@%XX XXX,5%%52,rrrrrrrrrrr",
"rrrrrrrrrrr>>1@566  @@@@XXXXX126%%2>rrrrrrrrrrrr",
"rrrrrrrrrrrr@@%q665@XX    XX2565%%%rrrrrrrrrrrrr",
"rrrrrrrrrrrrr@%6qq65#X    &24666%%rrrrrrrrrrrrrr",
"rrrrrrrrrrrrrX%q6666855455266666%%rrrrrrrrrrrrrr",
"rrrrrrrrrrrrrX@qq6664>,>>,4646q6%%rrrrrrrrrrrrrr",
"rrrrrrrrrrrrr@X0qq5>>4444>%%6q66@@rrrrrrrrrrrrrr",
"rrrr   oXX XX@Xqqq,2555444,>>515%@XXXX@X.  rrrrr",
"rrrr oooo$oo@#Xq*%&8585855,,%,*6XX@@#$$#oo rrrrr",
"rrrrr ==$=$#**@q@,<8888<5>2,,%,6XX#**$$$==orrrrr",
"rrrrrr o-===== 0&&<8<8<8<5&*@@*qXX--,=--o rrrrrr",
"rrrrrrr +;=-;1Xq#&<<8<8<<>2*#@@qXX17=1-$.rrrrrrr",
"rrrrrrrr =99qq qo$<<<<<<&<&&XX#qXXq199+.rrrrrrrr",
"rrrrrrrrr =9qq 0o &85&<&<&&XXX@qXXqq9- rrrrrrrrr",
"rrrrrrrrrr =;9 w7q #&7#7#& #X#10  99+ rrrrrrrrrr",
"rrrrrrrrrrr  9 e8q #&&###X#XX11w  9+orrrrrrrrrrr",
"rrrrrrrrrrrr   wee$  * o  X +ee0    rrrrrrrrrrrr",
"rrrrrrrrrrrrr  weeww7     7eeeew   rrrrrrrrrrrrr",
"rrrrrrrrrrrrrr eeeee0++:++0eeeew  rrrrrrrrrrrrrr",
"rrrrrrrrrrrrrr wee0w9...O.700eww  rrrrrrrrrrrrrr",
"rrrrrrrrrrrrrr w0w..O-:::O  oq0w  rrrrrrrrrrrrrr",
"rrrrrrrrrrrrrr wwwO7eee:::O+ 000  rrrrrrrrrrrrrr",
"rrrr  .        wOOOeee:e7:OO .oq        o  rrrrr",
"rrrr ooooooooo 0.+7qqee7:O:O+ o0  o.oooooo rrrrr",
"rrrrro=+=+o+.o 0O+9e:q:e::O.   q  o++++== rrrrrr",
"rrrrrr o-==-== 0OO77e:e:7O:O. .0  ===-=-orrrrrrr",
"rrrrrrrr=;:--9 wOO:77777+7OO  o0  9-;-;+rrrrrrrr",
"rrrrrrrrr+9999 w. O:7O:+7OO   ow  9999+rrrrrrrrr",
"rrrrrrrrrr=999 wq: +O:O:OO . .-w  909=rrrrrrrrrr",
"rrrrrrrrrrr=99 wee +O+OOO .  eee  99=rrrrrrrrrrr",
"rrrrrrrrrrrr+9 wew9  O +    ;eew  9=rrrrrrrrrrrr",
"rrrrrrrrrrrrr  9wwww9     9wweew   rrrrrrrrrrrrr",
"rrrrrrrrrrrrrr                    rrrrrrrrrrrrrr",
"rrrrrrrrrrrrrrrrrrrrrrrrrrrrrrrrrrrrrrrrrrrrrrrr",
"rrrrrrrrrrrrrrrrrrrrrrrrrrrrrrrrrrrrrrrrrrrrrrrr"
};
