/* XPM */
static char *magick[] = {
/* columns rows colors chars-per-pixel */
"48 48 29 1",
"  c Gray0",
". c #2d3030",
"X c #303041",
"o c #612025",
"O c #505151",
"+ c #515166",
"@ c #516266",
"# c #61516e",
"$ c #616270",
"% c #66698d",
"& c #6b829b",
"* c #7182ae",
"= c #8682ae",
"- c #9ea29e",
"; c #9eaeae",
": c #b6b6bc",
"> c #bebdcf",
", c #becfbe",
"< c #becfcf",
"1 c #cfbecf",
"2 c #d6d6d9",
"3 c #dfdfef",
"4 c #dfefdf",
"5 c #dfefef",
"6 c #efdfdf",
"7 c #efdfef",
"8 c #efefdf",
"9 c #efefef",
"0 c None",
/* pixels */
"00000000000000000000000000000000000000000-   000",
"0000000000000000000000000000000000000000- OOO 00",
"000000000000000000000000000000000000000- O000 O0",
"0000000000--------0000000-------000000- O0000- 0",
"000000000-OOOOOOOOOO------OOOOOO--00OO O00000- 0",
"0000000-OO-000000---OOOOOO--0000OO--OO 00000- O0",
"000000-OO0     000000000000000000-9-O O--0--O 00",
"000000-O0 00000  000000000000000-9-O O0OOOO O000",
"000000- 0 00000000 0 0 00 00000-9-O O00000000000",
"000000- 0 00000000000000000000-9-O O000000000000",
"09999999999999999999999999999-9-O O99 0000000000",
"09O+O+@+@+@+@+@$@#@$@#@+@+@+@9-O OOO. 0000000000",
"09OO+O+@#@#@#@#@#$#@#@#@#@#@9-O OO+O.  000000000",
"09OO...O.O.X.$@$@$@$@$@#@$@9-O O@+O+.   00000000",
"09+++@#@#@#$$@$$$@$$$...#@9-O O.X.+OX   00000000",
"09@+@+@$@$@%@%@%@%@%@X.X@8-O O@X..@+.   00000000",
"09#@#$$@$$%$%$%$%$%$%$%$9-O O@#@#@+O.   00000000",
"09@X.X.X.X.X.X.X.X.X.X$9-O ..X.X...+.   00000000",
"09#.99797474726632232-9-O O222121<7+.   00000000",
"09@X9959574743424322-9-O O2222<2<19+.   00000000",
"09$.997874746242222-9-O O<>2>11<1<9@.   00000000",
"09@X99575743434332-9-O O222222<1<29+.   00000000",
"09$.7474726233222-9-O O222>21<1>1:7@X   00000000",
"09$X474743432236-9-O O22<<,2<1<1,>9$.   00000000",
"09%.74726246262-9-O O222121<1<1:1:9@.   00000000",
"09%X4743322332-9-O O,212<1<1<1>-<>9#.   00000000",
"09%.746446222-o-O O222121<1>:--:<:7@X   00000000",
"09%X43422323-o-O O<2>2<2<>;--:,<:>9$.   00000000",
"09%.6246262-o-O O222121;---:1:>:::9@.   00000000",
"09%X262222-9-O O22<2<:---2:<:>:1>>9$.   00000000",
"09%.43232-9-O O2221----;1:1:<:::::7$X   00000000",
"09%X2224-9-O O<2:---->2>,>,>:>:,::9$.   00000000",
"09%.222-7-O O21----:1:1:2:>::1:>::7+.   00000000",
"09%X2222-O O2----><><2:<:1:2:::;:;7#.   00000000",
"09%.2222O O----:1,2:>:1:1::::::::;7+X   00000000",
"09&X222O O---2<1<><>,>:1:>::>;>::>9$.   00000000",
"09%.72 O---2121,1:2:1:>>::>;:>:;:;9@.   00000000",
"09%X4O---2<1<1<><>:1:>:>:>:;:;::::9#.   00000000",
"09%.2222121<1,1:>:>:1::::::>>;:-:;7+X   00000000",
"09%X2222<2<1<><>:2:<:>::::::;;;>-:7#.   00000000",
"09%.2222121<1:2:::1::::::;:;:;:;-:9@.   00000000",
"09@X1222<1<><>:>:2,>:::>::::;:;>;;9+.   00000000",
"09#.6879497999799979997979797779997OX   00000000",
"09@$@%%%%%&*&=&&*%*%&%&%%%%%@%@$@#@+.   00000000",
"09X...X...X...X...X...X...X...X...X..   00000000",
"0                                       00000000",
"00                                      00000000",
"000                                     00000000"
};
