/* XPM */
static char *magick[] = {
/* columns rows colors chars-per-pixel */
"48 48 24 1",
"  c #010102",
". c #1d1a29",
"X c #36344b",
"o c #443b59",
"O c #4a525c",
"+ c #555073",
"@ c #52625c",
"# c #625264",
"$ c #636274",
"% c #5d5484",
"& c #625a89",
"* c #68698d",
"= c #02fa24",
"- c #6d8a87",
"; c #8c8c8f",
": c #958cab",
"> c #96aa9c",
", c #a29cac",
"< c #b1aeb0",
"1 c #cdd0d3",
"2 c #d6e2dc",
"3 c #eedaec",
"4 c #f6f7f8",
"5 c None",
/* pixels */
"5<<<<<<<<<<<<<<<<<<<<<<<<<<<<<<<<<<<<<<<<<<<<<55",
"<444444444444444444444444444444444444444444421<5",
"<34442444244444444444444424442322311111111113,:5",
"<44443444244422442442444434442342221133211111&@5",
"<442444444444442444444424444322223112111111<<*.5",
"<444444244424444444244434422242222131111<1111*.5",
"<44442                                   <<<<*.5",
"<42444 XXXXXXXXoXXooXoOooOoXOoooXoXXXXXXX4<1<*.5",
"<44444 +++++++%%%%&%&&&%&&&&&&&&&&%++++O+41<<&.5",
"<44444 +++++++%%%&%&&&&&&&&&&&&&%&%+%++++4<1<&.5",
"<44242 +++++++++%%%%&%&&&&&&&&&&&&&%%++++4<<<$.5",
"<44442 ++++++++%%%&%%&&%&&&&&&&&%%%%+%+O+4<1<*.5",
"<44244 ++++++++%+%%&&&&&&&&&&&&&&%+&+++++41<<$.5",
"<43444 ++O++%++%%%%&&&&&+&&%&&&&%%%++++O+4<<<&.5",
"<44442 %++++++%+%&&&&&&&&*&&&&&&&%%%+++++4<<<$.5",
"<44442 $+++++%+%%%%%&&&&&+&&&&&&&&%$+&+++4<<,+.5",
"<44244 ++++++++%+%&%&&&%&&&&&&&&%&++$%+++4<<<$.5",
"<44444 %+++++%+%%%%&&&&&&&&&&&&&&%%+++++O4,<,# 5",
"<44442 %+++++&%+%%%&&&&&&*&&&&&&%%&++$%++4<,,+.5",
"<44424 $+++++++%+%%%&*&&&*&&&&%&&&%$&+++O4,<>& 5",
"<44444 &+O++%+%%%%%&&&&&&*&&&&&&&%%++++++4,>,+.5",
"<42344 &++++++++%%%&%&+&&&&&&&%&%&%+%%++O4,,># 5",
"<44442 %+++++%+%++&%&&&&&%&&&&&&&&&+&++++4,,,O 5",
"<44423 %++++++%%%&%&%&&&&&&&&&&&&&&%++%+O4>,:+ 5",
"<44344 &++++%+%+%%&&&&&&&*&&&&&&%&&+$++++4,;,O 5",
"<44444 &%%++++%%%%%&&&&&&&&*&&&&&&%+$+$+O4>,;+.5",
"<44442 &%+++++%+%%%&&&&&&&&&%&&&%&&++++++4,;:O 5",
"<44424 %%+o+++++%%%%%&%&&%&&%&%&%&%$%++++4>,;+ 5",
"<44232 ++++%%++%%%%%&&&&&&&&&&&&&&%++++++4:;;+ 5",
"<42242 +++o+++%+%%%%&&&&&&&%&&$&&%&#+++++4;:;O 5",
"<43221 +o%++++%%%%%%*&&*&&&%&%&%&++++++++4:;;O 5",
"<42222 ;::;;::::::::::::::::>::::::::;::;4;;-+ 5",
"<42212<44444444444444444444444444444444444;;;o 5",
"<4121111111111<<1<<1<<<<<<<<,<,,>,>,;,O+O;-;*# 5",
"<41321321111<1<11<<<<<<<<<<<,>,,:,:>:;+==<;-;o 5",
"<41111111111<<1<<1<<1><<,<,<>,>,>,;,;;;<<1-;-o 5",
"<4<******&*&*$*$$$%$#$++++++++O++O+OOX+oOX+Xoo 5",
"<*                                             5",
"5555555555<4$ooooX1<,>;$+oXX....X.XXX55555555555",
"555555555<4<@$@$@+X$-**$+XXX .XXO$@*$.5555555555",
"55555555<42-;;;;;;;@#oXXXXXXXOO;;;;;;$.555555555",
"5555555<44>:>:>,,,>:,<,<,,,<,<,<,<,<<<$.55555555",
"555555<44444444444444444444444444444444$.5555555",
"555555<4<<<<<<<<<<<<<<<<<<<<<<<<<<<<<<<< 5555555",
"555555<4<<<<<<<<<<<<<<<<<<<<<<<<,<<<<<<< 5555555",
"5555555#                                55555555",
"555555555555555555555555555555555555555555555555",
"555555555555555555555555555555555555555555555555"
};
