/* XPM */
static char *magick[] = {
/* columns rows colors chars-per-pixel */
"48 48 33 1",
"  c None",
". c #393c07",
"X c #027e04",
"o c #375004",
"O c #267104",
"+ c #024244",
"@ c #6e3209",
"# c #554a3c",
"$ c #5a5a5c",
"% c #7a7a54",
"& c #202091",
"* c #6767b4",
"= c #169004",
"- c #05b604",
"; c #6aa155",
": c #5fce60",
"> c #984b11",
", c #a9735e",
"< c #f47604",
"1 c #ce7244",
"2 c #b6826c",
"3 c #fc830a",
"4 c #eea262",
"5 c #828284",
"6 c #9c95a9",
"7 c #bdbdbc",
"8 c #9a9ae4",
"9 c #fcba84",
"0 c #fbd4ab",
"q c #cbcbcc",
"w c #e3d3da",
"e c #fcfcfa",
"r c None",
/* pixels */
"rrrrrrrrrrrrrrrrrrrrrrrrrrrrrrrrrrrrrrrrrrrrrrrr",
"rrrrrrrrrrrrrrrrrrrrrrrrrrrrrrrrrrrrrrrrrrrrrrrr",
"rrrrrrrrrrrrrrrrrrrrrrrrrrrrrr   rrrrrrrrrrrrrrr",
"rrrrrrrrrrrrrrrrrrrrrrrrrrr   :: rrrrrrrrrrrrrrr",
"rrrrrrrrrrrrrrrrrrrrrrrr   :::- rrrrrrrrrrrrrrrr",
"rrrrrrrrrrrrrrrrrrrrr   :::---- rrrrrrrrrrrrrrrr",
"rrrrrrrrrrrrrrrrrr   :::------ rrrrrrrrrrrrrrrrr",
"rrrrrrrrrrrrrrr   :::--------- rrrrrrrrrrrrrrrrr",
"rrrrrrrrrrrrr  :::=---------- rrrrrrrrrrrrrrrrrr",
"rrrrrrrrrrrr ::===-----------Xrrrrrrrrrr   rrrrr",
"rrrrrrrrrrrr ;====---------- rrrrrrrrrr 404 rrrr",
"rrrrrrrrrrr ;O======-------- rrrrrrrrr 444w0 rrr",
"rrrrrrrrrrr ;======-------- rrrrrrrrr 490<4w4 rr",
"rrrrrrrrrr ;OO=======-=---- rrrrrrrr 490<<<12 rr",
"rrrrrrrrrr ;O=======-=---- rrrrrrrr 490<<<>@ rrr",
"rrrrrrrrr ;OOOOO======---- rrrrrrr 490<<<>@ rrrr",
"rrrrrrrrr ;OOOOO=======-- rrrrrrr 490333>@ rrrrr",
"rrrrrrrr ;oOOOOOO=O====== rrrrrr 490333>@ rrrrrr",
"rrrrrrrr ;oOOOOOO=O===== rrrrrr 490<33>> rrrrrrr",
"rrrrrrr ;ooooOOOOOOO==== rrrrr 490333>@ rrrrrrrr",
"rrrrrrr %oooOOOOOOO==== rrrrr 490333>@ rrrrrrrrr",
"rrrrrr %.ooooOoOOOOOOO= rrrr 490<<<>> rrrrrrrrrr",
"rrrrrr ,.ooooooOOOOOO+ rrrr 4903<<>@ rrrrrrrrrrr",
"rrrrr %...oooooooO+  $7  r 449<<<>@ rrrrrrrrrrrr",
"rrrrr %o...oooo+  $77qee7@004<<<>@ rrrrrrrrrrrrr",
"rrrr %......+  $7777qeeee,w01<<>@ rrrrrrrrrrrrrr",
"rrrr %..o+  $7777&&*weww@e006<>@.rrrrrrrrrrrrrrr",
"rrr %.+  $777777&*8&qq88,w04,>@@$rrrrrrrrrrrrrrr",
"rrr   $77777777&&*6&q8&#w02,>#@e7  rrrrrrrrrrrrr",
"rrr 777q7qq7776&*66&8&q,621,@@eeee7  rrrrrrrrrrr",
"rr $q777777776*&7q88&we,#>@@eeeeeeee7  rrrrrrrrr",
"rr 5$$qq77777*&*7weeeee #@eeeeeeeeeeee7  rrrrrrr",
"rr $,5$$77777&*7wweeeew7qeeeeeeeeeeeeeeeq  rrrrr",
"rr 5$$55$$777*77weeeeewqqweeeeeeeeeeeeeeee7 rrrr",
"rr =X5#$55$$7q7qweeeewq77weeeeeeeeeeeeeq$$ rrrrr",
"rrr XXX;$$55$$qweeeeew777qweeeeeeeee7$$$777 rrrr",
"rrrr  =XX5#$55$$7eeewq7777eeeeeeeq$$$777$$ rrrrr",
"rrrrrr +XXX5#$67$$7ew77777qweew$$$777$$$77X rrrr",
"rrrrrrrr  =XX5$$7q$$q777777w$$$777$$$77XXXX rrrr",
"rrrrrrrrrr  XX=7$$77$$777$$$777$$$77XXXX   rrrrr",
"rrrrrrrrrrrr  ==X7$$77$$$77q$$$77XXXX   rrrrrrrr",
"rrrrrrrrrrrrrr  X=X7$$777$$$77XXXX   rrrrrrrrrrr",
"rrrrrrrrrrrrrrrr  X=Xq$$$77XXXX   rrrrrrrrrrrrrr",
"rrrrrrrrrrrrrrrrrr  XXX7XXXX   rrrrrrrrrrrrrrrrr",
"rrrrrrrrrrrrrrrrrrrr  ==X   rrrrrrrrrrrrrrrrrrrr",
"rrrrrrrrrrrrrrrrrrrrrr   rrrrrrrrrrrrrrrrrrrrrrr",
"rrrrrrrrrrrrrrrrrrrrrrrrrrrrrrrrrrrrrrrrrrrrrrrr",
"rrrrrrrrrrrrrrrrrrrrrrrrrrrrrrrrrrrrrrrrrrrrrrrr"
};
