/* XPM */
static char *magick[] = {
/* columns rows colors chars-per-pixel */
"48 48 33 1",
"  c Gray0",
". c #1d1b1d",
"X c #272726",
"o c #333344",
"O c #334433",
"+ c #334444",
"@ c #443333",
"# c #443344",
"$ c #444433",
"% c #4b4a4b",
"& c #5b5b60",
"* c #556655",
"= c #665566",
"- c #6f7070",
"; c #777788",
": c #778877",
"> c #778888",
", c #887777",
"< c #887788",
"1 c #888877",
"2 c #909191",
"3 c #a2a1a0",
"4 c Gray70",
"5 c #bbbbcc",
"6 c #bbccbb",
"7 c #ccbbbb",
"8 c #ccbbcc",
"9 c #c4ccc4",
"0 c #d2d6d4",
"q c #ddeedd",
"w c #e9e2e9",
"e c #fefefe",
"r c None",
/* pixels */
"rrrrrrrrrrrrrrrrrrrrrrrrrrrrrrrrrrrrrrrrrrrrrrrr",
"rrrrrrrrrrrrrrrrrrrrrrrrrrrrrrrrrrrrrrrrrrrrrrrr",
"rrrrrrrrrrrrrrrrrrrrrrrrrrrrrrrrrrrrrrrrrrrrrrrr",
"rrrrrrrrrrrrrrrrrr23323232323rrrrrrrrrrrrrrrrrrr",
"rrrrrrrrrrrrrrr33eeeeeeeeeeee323rrrrrrrrrrrrrrrr",
"rrrrrrrrrrrrr23eeeew4weeeeeeeeee23rrrrrrrrrrrrrr",
"rrrrrrrrrrrr3eeeeeee2&,00eeww30ee23rrrrrrrrrrrrr",
"rrrrrrrrrrr3eeeeeeeee0:=4wee65-2qee3rrrrrrrrrrrr",
"rrrrrrrrrr3eeeeeeeeeeeeqweeeeew44eee2rrrrrrrrrrr",
"rrrrrrrrr3eeq00weeeeeeeeeeeeeeeeeeeee3rrrrrrrrrr",
"rrrrrrrrrq83-X@-4qeeeeeeeeeeeeeeeeeeee2rrrrrrrrr",
"rrrrrrrr043-X..X*40weeeeeeew40eeeeee0we3rrrrrrrr",
"rrrrrrr4322*X.X.#-39weeeeeee3%,0weeee*203rrrrrrr",
"rrrrrr,22222.XXXO-236eeeeeeee0:&4weee02-02rrrrrr",
"rrrrrr211239XXXX%*-<24weeeeeeee00eeweeeqwe3rrrrr",
"rrrrr--<:<28>XXX%=---;6weeeeeeeeeeeeeeeeeee2rrrr",
"rrrrr*<1,-=-43,---&&%X%3eeeeeeeeeeeeeeeeeee3rrrr",
"rrrr%-21-+XX-32;-;&%XXXX5eeeeeeeeeeeeeeeeeee3rrr",
"rrrr=-22%X.XX-,-<:<$X..X&weeeeeeeeeeeeeeeeee2rrr",
"rrr$*<22O.XXX&-->23&..X.O0eeeeeeeeeeeeeeeeee3rrr",
"rrr%--23#X..X&---28-.XX.@4eeeeeeeeeeeee632303rrr",
"rrr--<23*X.XX=:<2204X..X%3eeeeeeeeeee8-%%%*22rrr",
"rr&&=-<22X.X%&<1;-3w-X.X=3eeeeeeeeew2%#X#O%=<rrr",
"rr&-*--244:<:<:<*##2w4&-24eeeeeeee0-Oo+#+%+=>rrr",
"rr&-&%XX-673222-XX.X-64224weeeeee0=X$X###X.-<rrr",
"rr--*XXXX-222;:&X.X.X->224weeeee0&XX%%#+XXX3rrrr",
"rr--<X.XX%,1;-2&X..XX%--24eeeee0%XX%%%%%XX*rrrrr",
"rr&32XXX.#-<:222.XX.X%-<24qeeeq-X%%$%%%$X%3rrrrr",
"rrr3<$X.XX-:<:22XX.XX%=:24eeew<%$%%%%%%&&:rrrrrr",
"rrr%&2.XX&&----2O.X.X%-<25eee3%%%%%&%&=-&4rrrrrr",
"rrrr-1,%--<--*&--OX%==-226ee0*#+&*-&---:2rrrrrrr",
"rrrr%%12222,*#O%-332:;;238q0:%%&&-&-&---rrrrrrrr",
"rrrr%&%-,12-@XXX#--:,1<2364-%&=---------rrrrrrrr",
"rrrrr%%&-;--XXX.X%-----2322-&&--------3rrrrrrrrr",
"rrrrr%%$%-<3@X.XXO=&&&-22--=-----,,--22rrrrrrrrr",
"rrrrrr+&+=:0&.X..o*&----*---&%*----222rrrrrrrrrr",
"rrrrrrr%&+-42XX.XX&&=-&$#--%X.%*---22rrrrrrrrrrr",
"rrrrrrrr%-O;0%XXX%*&&%O#%-%XXo;--222rrrrrrrrrrrr",
"rrrrrrrrr-<%-4<%%%%%#X@$=*XXX*--222rrrrrrrrrrrrr",
"rrrrrrrrrr-%%%*%$XXXXoO%*o..&-2226rrrrrrrrrrrrrr",
"rrrrrrrrrrrr-%&XXXXXXX#%=XX*--224rrrrrrrrrrrrrrr",
"rrrrrrrrrrrrrr-%-oXoX+%---:<>22rrrrrrrrrrrrrrrrr",
"rrrrrrrrrrrrrrrr-%=XXX--<-<:23rrrrrrrrrrrrrrrrrr",
"rrrrrrrrrrrrrrrrrrrr1--,:rrrrrrrrrrrrrrrrrrrrrrr",
"rrrrrrrrrrrrrrrrrrrrrrrrrrrrrrrrrrrrrrrrrrrrrrrr",
"rrrrrrrrrrrrrrrrrrrrrrrrrrrrrrrrrrrrrrrrrrrrrrrr",
"rrrrrrrrrrrrrrrrrrrrrrrrrrrrrrrrrrrrrrrrrrrrrrrr",
"rrrrrrrrrrrrrrrrrrrrrrrrrrrrrrrrrrrrrrrrrrrrrrrr"
};
