/* XPM */
static char *magick[] = {
/* columns rows colors chars-per-pixel */
"48 48 11 1",
"  c Gray0",
". c #2a2a2a",
"X c #545354",
"o c #727274",
"O c #707080",
"+ c #ce7352",
"@ c #847b84",
"# c Gray54",
"$ c #afaeaf",
"% c #cbcbcb",
"& c Gray99",
/* pixels */
"&&&&&&&&&&&&&&&&&&&&&&&&&&&&&&&&&&&&&&&&&&&&&&&&",
"&%%%%%%%%%%%%%%%%%%%%%%%%%%%%%%%%%%%%%%%%%%%%%%X",
"&%#################################@###@###### X",
"&%#o#####o#############$#####$###$#$$$$$$$$$$$ X",
"&%#@oo##########$##$#$###$#$#$$#$#$$$$$$$$$$$$ X",
"&%#@##@@#########$#####$##$#$$$$#$$#$#$##$$$$$ X",
"&%#o@@########$$$%$%%%$$$$##$##$#$$$#$$$$$$$$$ X",
"&%#@#@######$$$#oXXXXXo$$#$#$$#$$$##$$$$$$$$$$ X",
"&%#########$$#XX.......Xo#$$#$#$#$$$#$#$$$$$$$ X",
"&%########$$#X..XXooooX..X#$$$#$$$#$$$$$$$$$$$ X",
"&%#######$$#..XXO##$$$#oX..#$#$$#$#$$$$$$$$$$% X",
"&%######$%#..oo#%%%$$$$%$X..$$$#$$$$$$$$$$$$%$ X",
"&%#####$$$X.oX$&&%%%####$$#%.$$$$$$$$$$$$$$$$$ X",
"&%#####$$o..o#%&&&%##O#####X.X#$#$$$$$$$$$$$%$ X",
"&%#####$#X.oO%&%%$#ooooooo##..o$$$$$$$$$$$$$%$ X",
"&%#####$#.XX$%%&%$oooXoooo##..o#$$$$$$$$$$$$$% X",
"&%#####%o.Xo$%%%%#ooooooooo#X.X#$$$$$$$$%$$$$$ X",
"&%#####%X.Xo#%%&$#oo@@#####$o.X#$$$$$$$$$$$%%$ X",
"&%##$##$o.Xoo%&%%$o#$#$$$$$$o..#$$$$$$$$$$$%$% X",
"&%#####$X.Xoo%%%&%#$$$$%$$$$o.Xo$$$$$$$$$$$%%% X",
"&%##$##$o.XXo$%&%%$$$%%%%%%%X..#$$$$$%$%$%$$%% X",
"&%###$#$OX.Xo#%&&&&%%%%%%%%$..Xo#$%$$$$$%$%$$% X",
"&%#####$#X.Xo@%&&&%%%%%%%%$o..X#$$$%$$$$$%$%$$ X",
"&%##$####o..o@$%%%%%%%%%%%$..Xo##$$$$%%$$%$%%% X",
"&%###$####X..#$%%%%%%%%%%$X%.XO#$$$$$$$%$$$%%% X",
"&%###$#$###X.o#$%%%%%%%$$X%.XX#$$$$%$%$%%%%$$% X",
"&%##$#######X.Xo$$%%%$$o..%.Ooo#$$%$$$%$%$%%%$ X",
"&%##$$$$##@@$....X@#oX...XX.$#o#$$$$%%$%%$%$%% X",
"&%@########o@#oX..%%%..XXX&X%$oX@$%%%$$$%%$%%$ X",
"&%##$#$$$$##o@oo#oXXXXXooooo%XX$#+$$$%%%%$%%%% X",
"&%@$##$$#$$###o#@o@@#o@ooooo& .+$$o%%$%$$%%%%% X",
"&%#$$$$#$$#$####@@@##@#oOOOooX.X+$$+$%$%%%%$%% X",
"&%##$#$$#$#$$$@##@#o@@o####oooX..+$#o%%$%%$%%% X",
"&%#$$##$#$$$$##$#######$#$$$#ooX.X+$+$$%%%%%%% X",
"&%##$$$#$$#$$$$$$##$$$$#$$$$$@@@X..+%+$$$%%%%% X",
"&%#$#$$$$$$$$$$$$$$$$$$$$$$$$$#ooX.X+%+#$%%%%% X",
"&%#$#$#$$#$$$$$$$$$$$$%$$$%$%$$#@@&%.++.o%%%%% X",
"&%#$#$$$$$$$$$$$$$$$$$$$$%$$$$$$#ooX%X..X%%%%% X",
"&%#$$#$$$$$$$$$$$$$$%$$%$%$%%%$$$##oX.%.#%%%%% X",
"&%#$$$$$$$$#$$$$$%$%$$%$$%%$$%$%$$###XXo$%%%%% X",
"&%#$$$$$$$$$$$#$%$$$%$$%%$%$%%$%$%$##@##$$%%%% o",
"&%@$$$$$$$$$$$$$$$$$%$%$$%$%%$%$%$%$####$%%%%% X",
"&%@#$$$$$$$$$$$$$%%$$$$%%$$%$%%%%%%$$$$$$%%%%% X",
"&%@$$$$$$$$$%$$%$$$$%%%$$%%$%%%$$%%%$%%%%%%%&% X",
"&%#$$$$$$$$%$$$$$%$%%%%$%%%%%%%%%%%%%%%%%%%%%% o",
"&%$$$$$$$$%$$$%$%%%$$$%%%$%%%%%%%%%%%%%%%%%%%% X",
"&%                                             X",
"&XXXXXXXXXXXXXXXXXXXXXXXXXXXXXXXXXXXXXoXXoXoXXXX"
};
