/* XPM */
static char *magick[] = {
/* columns rows colors chars-per-pixel */
"48 48 33 1",
"  c #010101",
". c #2f2f2f",
"X c #505050",
"o c #6f6f6f",
"O c #021cb4",
"+ c #0a32b5",
"@ c #114dbb",
"# c #185fbb",
"$ c #0e64dd",
"% c #0970f4",
"& c #2c70c7",
"* c #3875eb",
"= c #5c6bb6",
"- c #427ed4",
"; c #06aeb4",
": c #058ff4",
"> c #279ee4",
", c #0cf0f0",
"< c #738cba",
"1 c #5494d7",
"2 c #609fd6",
"3 c #78b2e3",
"4 c #7bc2e4",
"5 c Gray56",
"6 c #8e94b0",
"7 c Gray70",
"8 c #9ab6db",
"9 c #a9cfe7",
"0 c Gray82",
"q c #c6d7ec",
"w c #cfe9f4",
"e c Gray97",
"r c None",
/* pixels */
"rrrrrrrrrrrrrrrrrrrrrrrrrrrrrrrrrrrrrrrrrrrrrrrr",
"rrrrrrrrrrrrrrrrrrrrrrrrrrrrrrrrrrrrrrrrrrrrrrrr",
"rrrrroXXoXXoXoXXXXXX..........    rrrrrrrrrrrrrr",
"rrrrXeX0eeeeeeeeeeeeeeeeeeeeee:ee rrrrrrrrrrrrrr",
"rrroeeo7eeeeeeeeeeeeeeeeeeeeeeee: rrrrrrrrrrrrrr",
"rroeeeo7eeeeeeeeeeeeeeeeeeew>:>qe rrrrrrrrrrrrrr",
"rroXoXX7eeeeeeeeeeeeeeeeeee>:%:>e     rrrrrrrrrr",
"rrX77707eeeeeeeeeeeeeeeeeee::%%%e 55e rrrrrrrrrr",
"rrXeeeeeeeeeeeeeeeeeeeeeeee>%%%*e 55e rrrrrrrrrr",
"rroeeeeeeeeeeeeee7oXXXX.Xo7w>%*qe 55e rrrrrrrrrr",
"rrXeeeeeeeeeeee7oXXXX.X..X.X5ee0e 55e rrrrrrrrrr",
"rrXeeeeeeeeeeeoXXo00weeee0X..Xqew 55w rrrrrrrrrr",
"rrXeeeeeeeeeeXXX00eeeeeeeee0...0e 55e rrrrrrrrrr",
"rrXeeeeeeeeeXX5weeew99qweeeeeo..0.5oe rrrrrrrrrr",
"rrXeeeeeeeeoX50eeeew9430000eeeo...5o0 rrrrrrrrrr",
"rrXeeeeeee7XX0eeeeee982008128e0..X5ow rrrrrrrrrr",
"rrXeeeeeeeoXweeeeeeeq8800>>&10e7..ooe rrrrrrrrrr",
"rrXeeeeee7Xoeeeeeeeeeew00>$#&00e. Xo0 rrrrrrrrrr",
"rrXeeeeeeoX0eeeeeeeeq9q076#@=0005.Xo0 rrrrrrrrrr",
"rr.eeeeeeXX0eeeeeeew9828077770000 .o0 rrrrrrrrrr",
"rr.eeeeeeXXweeeeeeww931&77777700e. o0 rrrrrrrrrr",
"rr.eeeeeeX.eeewwwww982-$172##<700  o0 rrrrrrrrrr",
"rrXeeeeeeXXeee99q99821&@@7#@@+77w. o7 rrrrrrrrrr",
"rr.eeeeee..eew9483321&@++7#@++770  X7 rrrrrrrrrr",
"rr.eeeweeX.eee42211&&&@++7=++=770 .X7 rrrrrrrrrr",
"rr.eeeeeeo.eee81>>&&#@++=7757777o .o7 rrrrrrrrrr",
"rr.eee0ee5.oee0>&##@++OO67777770o Xo7 rrrrrrrrrr",
"rr.e0eeee0X.0e08&#@@++O=6777777o  XX7 rrrrrrrrrr",
"rr.eeeeeew5..ee09<#++=677777775   XX7 rrrrrrrrrr",
"rr ee0q>:>qX.owe00077777777777. ..oo7 rrrrrrrrrr",
"rr eee>:::1e..o0e000777777775.  5,oo0 rrrrrrrrrr",
"rr.ewe:::%%00...7w000077077o  .o,5 o0.rrrrrrrrrr",
"rr.ee0>%%%*000X...5000007o   .X;oo5 0.rrrrrrrrrr",
"rr we0q1%*qee005X..  .     X5 ;.XXo5 .rrrrrrrrrr",
"rr w0e0eq0e0e00075oX.  ..o7577 ..XXo5 rrrrrrrrrr",
"rr eee000w0000000075577777577700 .XXo5 rrrrrrrrr",
"rr 0e00ee0e0>00000077565677070000 .XXo5 rrrrrrrr",
"rr ee0e00000001000070000707007777X .XXo5 rrrrrrr",
"rr w00000q>:>90000000000070077707.o .XXo5 rrrrrr",
"rr 00e0e0>:%%>0*00000770707770070.oo .XXo5 rrrrr",
"rr 00e000::%%%0000000700700070777 Xo0 .XXo5 rrrr",
"rr                                XX0. .XXX5 rrr",
"rrrrrr o5ooooooooooooooXXXXXXXXXXXXX0.r .XXX5 rr",
"rrrrrr 55o5oooooooooooXXXoXXXXXXXXXX7.rr .XXX rr",
"rrrrrr 0e000w000000000000007007777707 rrr .XX rr",
"rrrrrr                                rrrr   rrr",
"rrrrrrrrrrrrrrrrrrrrrrrrrrrrrrrrrrrrrrrrrrrrrrrr",
"rrrrrrrrrrrrrrrrrrrrrrrrrrrrrrrrrrrrrrrrrrrrrrrr"
};
