/* XPM */
static char *magick[] = {
/* columns rows colors chars-per-pixel */
"51 48 33 1",
"  c None",
". c #4a4a4c",
"X c #767674",
"o c #0e0eae",
"O c #0e0ed1",
"+ c #1010ec",
"@ c #2f2ff4",
"# c #4f4ff4",
"$ c #7171f4",
"% c #827e2c",
"& c #96932d",
"* c #b2b137",
"= c #bab250",
"- c #bca57c",
"; c #c3ba47",
": c #c2ba64",
"> c #d0c755",
", c #cfc76c",
"< c #e8dd74",
"1 c #9b9b99",
"2 c #afafaf",
"3 c #9090fc",
"4 c #b2b2fc",
"5 c #cfbe8c",
"6 c #d7d28c",
"7 c #e3de8d",
"8 c #f8f795",
"9 c #fcfba9",
"0 c #d0d0d0",
"q c #d6d6fc",
"w c #fefdd2",
"e c #f7f7f5",
"r c None",
/* pixels */
"rrrrrrrrrrrrrrrrrrrrrrrrrrrrrrrrrrrrrrrrrrrrrrrrrrr",
"rrrrrrrrrrrrrrrrrrrrrrrrrrrrrrrrrrrrrrrrrrrrrrrrrrr",
"rrrrrrrrrrrrrrrrrrr  rrrrrrrrrrrrrrrrrrrrrrrrrrrrrr",
"rrrrrrrrrrrrrrrrrrr 7  rrrrrrrrrrrrrrrrrrrrrrrrrrrr",
"rrrrrrrrrrrrrrrrrr 59w6  rrrrrrrrrrrrrrrrrrrrrrrrrr",
"rrrrrrrrrrrrrrrrrr wwwww6   rrrrrrrrrrrrrrrrrrrrrrr",
"rrrrrrrrrrrrrrrrrr wwwewww76    rrrrrrrrrrrrrrrrrrr",
"rrrrrrrrrrrrrrrrr 5wwwwwewwww76-    rrrrrrrrrrrrrrr",
"rrrrrrrrrrrrrrrrr weweewwwwwwwww9765    rrrrrrrrrrr",
"rrrrrrr                          ww9w765    rrrrrrr",
"rrrrrrr eeeeeeeeeeeeeeeeeeeeeeeX www9999976-  rrrrr",
"rrrrrrr eeeeeeeweeqw0q000000020X w99w9999997* rrrrr",
"rrrrrrr eeeqweeqq0e000000000002X www9w999997& rrrrr",
"rrrrrrr eee.................X22X w999999999<& rrrrr",
"rrrrrrr eee.#$333$$##@++OOOoe02X 9999788877>* rrrrr",
"rrrrrrr eee.$33433$$#@++OOOoe22X 6666666,<<& rrrrrr",
"rrrrrrr ewe.3444443$#@@++OOoe22X 6,,,6,,,,,& rrrrrr",
"rrrrrrr eeq.344q443$##@++OOoe22X ,,,,-:,>,=& rrrrrr",
"rrrrrrr eee.3344433$#@+++OOoe22X ,:,,-,,,,;& rrrrrr",
"rrrrrrr eee.$33443$##@++OOOoe22X ,,:,,:>,,*& rrrrrr",
"rrrrrrr eq0.$$333$$##@++OOooe22X ,,,,,:,:>& rrrrrrr",
"rrrrrrr eee.#$$$$$##@+++OOOoe21X ,:,,>:,,=& rrrrrrr",
"rrrrrrr ee0.#######@@++OOOooe22X ,,,,::>,;& rrrrrrr",
"rrrrrrr ee0.@@@@@@@++++OOoooe11X ,::,,,,,;& rrrrrrr",
"rrrrrrr ee0.@+@@@+++++OOoooow11X ,,,:,,,<& rrrrrrrr",
"rrrrrrr e00.++++++++OOOoooooe11X ,:,,,,,,& rrrrrrrr",
"rrrrrrr eq0.+++++O+OOOOoooooe11& ,:::,,<,& rrrrrrrr",
"rrrrrr  e001eeeeeeeeeeeeeeeee11X ,>,>,<7>& rrrrrrrr",
"rrrrrr  e0000000002222222111211X ,,,,,78& rrrrrrrrr",
"rrrrr - e0000020222222222212111X ,:>,<77& rrrrrrrrr",
"rrrr 56 eXXXXXXXXX1XXXXXXXXXXXXX ,,,778<&   rrrrrrr",
"rrrr 69                          >,<788>&     rrrrr",
"rrr -9998877,,,,,,,6,6,,,<,6,,,,,<<<888&      rrrrr",
"rr &><98887777777777777777777777777888<&      rrrrr",
"rrr  >><888888888888888778888888888888>%     rrrrrr",
"rrrrr  ;;<9999998999999999999988888888&     rrrrrrr",
"rrrrrrr  ;;<9999998999999999988989888<&     rrrrrrr",
"rrrrrrrrr  ;*,<999999999999988898888<>&    rrrrrrrr",
"rrrrrrrrrrr  &;*,<999998889898888888<&    rrrrrrrrr",
"rrrrrrrrrrrrr   &**,<899988988888888>&    rrrrrrrrr",
"rrrrrrrrrrrrrrrr   &**,<88888888888<&    rrrrrrrrrr",
"rrrrrrrrrrrrrrrrrrr   &**<<888888<8>&   rrrrrrrrrrr",
"rrrrrrrrrrrrrrrrrrrrrr   &*&,<79<9<&   rrrrrrrrrrrr",
"rrrrrrrrrrrrrrrrrrrrrrrrr   &&&%<<,&  rrrrrrrrrrrrr",
"rrrrrrrrrrrrrrrrrrrrrrrrrrrr    &&%  rrrrrrrrrrrrrr",
"rrrrrrrrrrrrrrrrrrrrrrrrrrrrrrrr    rrrrrrrrrrrrrrr",
"rrrrrrrrrrrrrrrrrrrrrrrrrrrrrrrrrrrrrrrrrrrrrrrrrrr",
"rrrrrrrrrrrrrrrrrrrrrrrrrrrrrrrrrrrrrrrrrrrrrrrrrrr"
};
