/* XPM */
static char * xfsamba_xpm[] = {
"48 48 693 2",
"  	c None",
". 	c #FFFFFF",
"+ 	c #DEDCDD",
"@ 	c #C1BFC1",
"# 	c #C4C1C3",
"$ 	c #C5C1C3",
"% 	c #BEBDBE",
"& 	c #CAC9CA",
"* 	c #F8F8F8",
"= 	c #F0F4F4",
"- 	c #FDF9FB",
"; 	c #F7F7F8",
"> 	c #FAF8FA",
", 	c #FEFAFC",
"' 	c #F4F6F6",
") 	c #F2F5F5",
"! 	c #FCF9FB",
"~ 	c #F4F6F7",
"{ 	c #F9F8F9",
"] 	c #F3F4F3",
"^ 	c #F1E9F0",
"/ 	c #E7ECE9",
"( 	c #E7E6E9",
"_ 	c #E7E3E9",
": 	c #E3E2E6",
"< 	c #E4E2E6",
"[ 	c #DEE0E0",
"} 	c #DDE0E0",
"| 	c #D6D9DD",
"1 	c #ACA4B2",
"2 	c #E5E0E5",
"3 	c #F1F4F5",
"4 	c #F5F6F7",
"5 	c #E9F1F0",
"6 	c #EAF1F1",
"7 	c #E8F1EF",
"8 	c #EDF3F2",
"9 	c #E8F0EF",
"0 	c #EFF4F4",
"a 	c #ECF2F2",
"b 	c #E8F1F0",
"c 	c #F4F5F6",
"d 	c #E3EBEB",
"e 	c #E1EAE9",
"f 	c #DCE7E4",
"g 	c #D9DFDE",
"h 	c #D6DBDC",
"i 	c #D5D3DB",
"j 	c #D4D2DA",
"k 	c #D3D5D9",
"l 	c #CBD3D1",
"m 	c #C6CECC",
"n 	c #C5CDCB",
"o 	c #BDBFC4",
"p 	c #68617A",
"q 	c #CDCFD0",
"r 	c #E6F0EF",
"s 	c #E7F0EF",
"t 	c #EFF4F3",
"u 	c #EAF1F0",
"v 	c #EBF2F1",
"w 	c #E1E9E8",
"x 	c #E3E5E8",
"y 	c #D7E3DE",
"z 	c #D6DFDC",
"A 	c #DED7E1",
"B 	c #D5D2DB",
"C 	c #D2D5D8",
"D 	c #C9D1CF",
"E 	c #C2C5C3",
"F 	c #B4B3B6",
"G 	c #4F4762",
"H 	c #BDBDC1",
"I 	c #666A6B",
"J 	c #3C3F41",
"K 	c #414144",
"L 	c #3D3F41",
"M 	c #3E4042",
"N 	c #3D3F42",
"O 	c #3F4043",
"P 	c #404143",
"Q 	c #3A3D3E",
"R 	c #3A3D3F",
"S 	c #3A3C3D",
"T 	c #3A3A3D",
"U 	c #39383D",
"V 	c #37383A",
"W 	c #393B3D",
"X 	c #353739",
"Y 	c #B4B4B4",
"Z 	c #BFC0BE",
"` 	c #B3B3B7",
" .	c #484666",
"..	c #F3F5F6",
"+.	c #3F3C57",
"@.	c #413C58",
"#.	c #423C5A",
"$.	c #44405E",
"%.	c #43405C",
"&.	c #484163",
"*.	c #474163",
"=.	c #4E4367",
"-.	c #4D466B",
";.	c #4E4669",
">.	c #4D4468",
",.	c #4D486C",
"'.	c #494466",
").	c #4E466A",
"!.	c #4C4769",
"~.	c #4B4669",
"{.	c #4C4366",
"].	c #464161",
"^.	c #42405B",
"/.	c #413E59",
"(.	c #413B57",
"_.	c #E6E3E5",
":.	c #BEBEBC",
"<.	c #B4B2B6",
"[.	c #4B3F61",
"}.	c #C9C5CA",
"|.	c #F1F5F5",
"1.	c #444346",
"2.	c #524F70",
"3.	c #514C6F",
"4.	c #574E75",
"5.	c #565174",
"6.	c #585377",
"7.	c #5D5484",
"8.	c #605586",
"9.	c #605788",
"0.	c #625B8C",
"a.	c #625B8B",
"b.	c #61598B",
"c.	c #625B8D",
"d.	c #625A8C",
"e.	c #625989",
"f.	c #615A86",
"g.	c #625987",
"h.	c #625886",
"i.	c #5C5581",
"j.	c #595679",
"k.	c #555273",
"l.	c #535170",
"m.	c #534E70",
"n.	c #E7E4E6",
"o.	c #B0ACB6",
"p.	c #C6C2C4",
"q.	c #EEF3F3",
"r.	c #3E4143",
"s.	c #545171",
"t.	c #544D72",
"u.	c #554F72",
"v.	c #565173",
"w.	c #595478",
"x.	c #5B5480",
"y.	c #5E5484",
"z.	c #5E5585",
"A.	c #605889",
"B.	c #605888",
"C.	c #615987",
"D.	c #625A88",
"E.	c #625A8A",
"F.	c #615984",
"G.	c #605984",
"H.	c #605685",
"I.	c #5D5482",
"J.	c #575377",
"K.	c #535270",
"L.	c #564F75",
"M.	c #E7E3E6",
"N.	c #BAB8BC",
"O.	c #ABA7B2",
"P.	c #464359",
"Q.	c #F6F7F7",
"R.	c #414244",
"S.	c #514D6E",
"T.	c #524D6F",
"U.	c #564E73",
"V.	c #565075",
"W.	c #5A547C",
"X.	c #5C5281",
"Y.	c #605687",
"Z.	c #5F5785",
"`.	c #615A88",
" +	c #605887",
".+	c #625B8A",
"++	c #615885",
"@+	c #5E5485",
"#+	c #5C5480",
"$+	c #5C547E",
"%+	c #5B517D",
"&+	c #535070",
"*+	c #534F70",
"=+	c #E6E2E6",
"-+	c #A9A6AF",
";+	c #45425C",
">+	c #E6F0EE",
",+	c #F2F4F5",
"'+	c #504D6D",
")+	c #544D71",
"!+	c #575078",
"~+	c #565374",
"{+	c #59567B",
"]+	c #5D5382",
"^+	c #605686",
"/+	c #625B89",
"(+	c #5C5B80",
"_+	c #5F5787",
":+	c #605885",
"<+	c #5C5481",
"[+	c #595378",
"}+	c #595277",
"|+	c #52526C",
"1+	c #52516C",
"2+	c #E4E0E3",
"3+	c #B1ADB0",
"4+	c #A6A2AA",
"5+	c #45445F",
"6+	c #F8F7F8",
"7+	c #FBF9FA",
"8+	c #E8EFED",
"9+	c #3C3E40",
"0+	c #594F78",
"a+	c #554D72",
"b+	c #574F75",
"c+	c #585378",
"d+	c #5A547D",
"e+	c #615686",
"f+	c #615889",
"g+	c #615A87",
"h+	c #615C8A",
"i+	c #605D89",
"j+	c #5F5884",
"k+	c #5D5483",
"l+	c #5C547C",
"m+	c #565273",
"n+	c #51506E",
"o+	c #E5E1E6",
"p+	c #B3AFB7",
"q+	c #A19DA6",
"r+	c #433F56",
"s+	c #424246",
"t+	c #565175",
"u+	c #575378",
"v+	c #59537C",
"w+	c #615687",
"x+	c #605884",
"y+	c #615B8B",
"z+	c #605B8A",
"A+	c #615A84",
"B+	c #615985",
"C+	c #625786",
"D+	c #5B547C",
"E+	c #595376",
"F+	c #4E4D6B",
"G+	c #E3DFE3",
"H+	c #B1ADB1",
"I+	c #3F3D56",
"J+	c #EFF3F2",
"K+	c #424245",
"L+	c #5A537D",
"M+	c #544E71",
"N+	c #554D73",
"O+	c #575075",
"P+	c #5B547E",
"Q+	c #59537A",
"R+	c #615986",
"S+	c #625C8D",
"T+	c #625889",
"U+	c #5F5684",
"V+	c #5A5478",
"W+	c #5B5379",
"X+	c #584E76",
"Y+	c #4E4F66",
"Z+	c #E0DCE1",
"`+	c #ACA7B2",
" @	c #9C96A5",
".@	c #3D3645",
"+@	c #BAB9BB",
"@@	c #FAF8F9",
"#@	c #E6EEED",
"$@	c #595579",
"%@	c #554E73",
"&@	c #595879",
"*@	c #5A537C",
"=@	c #5C517F",
"-@	c #5F5685",
";@	c #625D8D",
">@	c #625E8D",
",@	c #625C8A",
"'@	c #625C89",
")@	c #605785",
"!@	c #5A547A",
"~@	c #5B537A",
"{@	c #584F76",
"]@	c #4E4F67",
"^@	c #E1DDE2",
"/@	c #A8A3AC",
"(@	c #959A9F",
"_@	c #3B384F",
":@	c #BBBABC",
"<@	c #9C9AA9",
"[@	c #696290",
"}@	c #615B86",
"|@	c #625A8B",
"1@	c #5B547A",
"2@	c #595178",
"3@	c #53516F",
"4@	c #E0DCE2",
"5@	c #9EA3A6",
"6@	c #95979F",
"7@	c #3C374F",
"8@	c #BCBBBF",
"9@	c #756B94",
"0@	c #605986",
"a@	c #5D5581",
"b@	c #5A527A",
"c@	c #5A4F7A",
"d@	c #565073",
"e@	c #505069",
"f@	c #E0DBE2",
"g@	c #A29CAC",
"h@	c #94989D",
"i@	c #383341",
"j@	c #B8B8B8",
"k@	c #5E5B7F",
"l@	c #5D5681",
"m@	c #5A5479",
"n@	c #5B527B",
"o@	c #59507B",
"p@	c #4F4F67",
"q@	c #DDDEDF",
"r@	c #9EA1A7",
"s@	c #8E929C",
"t@	c #343346",
"u@	c #4E4970",
"v@	c #5F5882",
"w@	c #5A5678",
"x@	c #565274",
"y@	c #534E6F",
"z@	c #DEDBE1",
"A@	c #989BA4",
"B@	c #91929E",
"C@	c #31333E",
"D@	c #4E4A6F",
"E@	c #615A85",
"F@	c #5E5583",
"G@	c #595477",
"H@	c #575475",
"I@	c #555472",
"J@	c #51526B",
"K@	c #DEDBE0",
"L@	c #95989F",
"M@	c #8D8698",
"N@	c #323340",
"O@	c #4E486F",
"P@	c #5F5784",
"Q@	c #615786",
"R@	c #5A5378",
"S@	c #DCDADF",
"T@	c #9798A1",
"U@	c #85898E",
"V@	c #343145",
"W@	c #4D476D",
"X@	c #615D80",
"Y@	c #5E5781",
"Z@	c #585576",
"`@	c #585076",
" #	c #4F4D6C",
".#	c #DCD7DD",
"+#	c #8F8C99",
"@#	c #80898A",
"##	c #303042",
"$#	c #4D476C",
"%#	c #635D88",
"&#	c #625887",
"*#	c #605781",
"=#	c #5E547D",
"-#	c #5C5579",
";#	c #5A5079",
">#	c #554F71",
",#	c #DDD6DE",
"'#	c #938697",
")#	c #847F87",
"!#	c #8A899A",
"~#	c #B5B8C3",
"{#	c #B8B4CA",
"]#	c #B6B0C4",
"^#	c #B4ACB6",
"/#	c #B4ACB7",
"(#	c #DEDBDD",
"_#	c #8C888B",
":#	c #767F84",
"<#	c #2D2B3D",
"[#	c #B6B6B7",
"}#	c #99959B",
"|#	c #C8C3CA",
"1#	c #C6C1CA",
"2#	c #C2C2C7",
"3#	c #C2C3C6",
"4#	c #BCBEC3",
"5#	c #BEBFC5",
"6#	c #BDBBC4",
"7#	c #8E909B",
"8#	c #A7A4A8",
"9#	c #858589",
"0#	c #777E84",
"a#	c #2D2A3C",
"b#	c #85828B",
"c#	c #9DA3A5",
"d#	c #9D9AAC",
"e#	c #919A9E",
"f#	c #9691A0",
"g#	c #898A8F",
"h#	c #498D61",
"i#	c #2EDE49",
"j#	c #A7AEA8",
"k#	c #7D8788",
"l#	c #7A7C83",
"m#	c #2C2739",
"n#	c #636071",
"o#	c #7A7A8C",
"p#	c #747986",
"q#	c #76768A",
"r#	c #737583",
"s#	c #707483",
"t#	c #6F737F",
"u#	c #656271",
"v#	c #727480",
"w#	c #817E90",
"x#	c #747582",
"y#	c #606271",
"z#	c #575B6B",
"A#	c #272233",
"B#	c #B7B7B7",
"C#	c #15141D",
"D#	c #16141F",
"E#	c #14141D",
"F#	c #15151E",
"G#	c #14151B",
"H#	c #16161E",
"I#	c #15161D",
"J#	c #202027",
"K#	c #26252D",
"L#	c #242329",
"M#	c #24242A",
"N#	c #242229",
"O#	c #1D1C22",
"P#	c #BCBCBC",
"Q#	c #252332",
"R#	c #191723",
"S#	c #222030",
"T#	c #2B2B3A",
"U#	c #383847",
"V#	c #434453",
"W#	c #454658",
"X#	c #9B9BA2",
"Y#	c #444347",
"Z#	c #5C577D",
"`#	c #514F6E",
" $	c #544E72",
".$	c #585278",
"+$	c #575777",
"@$	c #5C5382",
"#$	c #615B89",
"$$	c #615B8A",
"%$	c #625C8C",
"&$	c #282738",
"*$	c #313341",
"=$	c #424358",
"-$	c #716B75",
";$	c #7C7680",
">$	c #7C7B7F",
",$	c #7D8588",
"'$	c #575865",
")$	c #A1A0A6",
"!$	c #EEF2F1",
"~$	c #5B547F",
"{$	c #534F71",
"]$	c #574E76",
"^$	c #575077",
"/$	c #565575",
"($	c #59537B",
"_$	c #615586",
":$	c #605786",
"<$	c #5F5B87",
"[$	c #605B86",
"}$	c #5E5886",
"|$	c #605B89",
"1$	c #878489",
"2$	c #B9B4BC",
"3$	c #B8B3BD",
"4$	c #BEB9BF",
"5$	c #BDB9BF",
"6$	c #BBB5BF",
"7$	c #C0BDBF",
"8$	c #BBB7BA",
"9$	c #6C6775",
"0$	c #97959D",
"a$	c #FCFCFC",
"b$	c #F8F8F9",
"c$	c #E5EEEC",
"d$	c #3D4042",
"e$	c #5B5280",
"f$	c #555072",
"g$	c #5B5481",
"h$	c #5F5483",
"i$	c #999698",
"j$	c #D3CFD1",
"k$	c #B8B5B9",
"l$	c #38363F",
"m$	c #F5F5F5",
"n$	c #454447",
"o$	c #5E5780",
"p$	c #524D70",
"q$	c #574F78",
"r$	c #5B537F",
"s$	c #5A527E",
"t$	c #615B87",
"u$	c #6F6D6F",
"v$	c #989597",
"w$	c #494749",
"x$	c #F6F6F6",
"y$	c #EDF1F0",
"z$	c #5B527D",
"A$	c #564D74",
"B$	c #554E74",
"C$	c #5B5581",
"D$	c #5B537E",
"E$	c #5C5180",
"F$	c #625D8C",
"G$	c #4F4F50",
"H$	c #6B6B6C",
"I$	c #CDCDCE",
"J$	c #F5F5F6",
"K$	c #5C527F",
"L$	c #5A4E7A",
"M$	c #504C6D",
"N$	c #584D76",
"O$	c #585477",
"P$	c #5F5484",
"Q$	c #5F5686",
"R$	c #5E5A84",
"S$	c #605B88",
"T$	c #5D5883",
"U$	c #5E5B86",
"V$	c #DEE8E6",
"W$	c #E0E3E5",
"X$	c #555073",
"Y$	c #4F4C6D",
"Z$	c #574D76",
"`$	c #594D79",
" %	c #59527C",
".%	c #605989",
"+%	c #F2EAF2",
"@%	c #DBE4E1",
"#%	c #D8DEDE",
"$%	c #3B3B3F",
"%%	c #555271",
"&%	c #564F73",
"*%	c #5B4F79",
"=%	c #5C507C",
"-%	c #635C8A",
";%	c #635B87",
">%	c #645D8F",
",%	c #615988",
"'%	c #E7E9E9",
")%	c #D6E0DC",
"!%	c #D6DDDC",
"~%	c #676769",
"{%	c #B4ABB2",
"]%	c #B5ADBA",
"^%	c #B7B1C6",
"/%	c #B7B2C7",
"(%	c #B7B3C9",
"_%	c #B8B5CB",
":%	c #B7B6C8",
"<%	c #D6D2DC",
"[%	c #CCC8CF",
"}%	c #DEDFE1",
"|%	c #DFDFE2",
"1%	c #DBDEDE",
"2%	c #DBDEDD",
"3%	c #D6D4D4",
"4%	c #D5D3D4",
"5%	c #D4D1D4",
"6%	c #D2CED4",
"7%	c #CFCBD0",
"8%	c #D0CCD1",
"9%	c #CCC8CA",
"0%	c #CBC7CA",
"a%	c #D6D5DC",
"b%	c #CFD6D5",
"c%	c #D0D1D6",
"d%	c #CED8D4",
"e%	c #C2C7C5",
"f%	c #BFBFBD",
"g%	c #BDBCBC",
"h%	c #BCBBBC",
"i%	c #B6B3BC",
"j%	c #B5B2BB",
"k%	c #AFAEB3",
"l%	c #AFABAE",
"m%	c #ACA8AC",
"n%	c #ADA8AC",
"o%	c #AFACB3",
"p%	c #DDD9E0",
"q%	c #A8A4B7",
"r%	c #A09BB0",
"s%	c #9C97AC",
"t%	c #9C9CAC",
"u%	c #9C94AC",
"v%	c #9A94AB",
"w%	c #9690A6",
"x%	c #928F9B",
"y%	c #958D9F",
"z%	c #908C98",
"A%	c #8E8C9A",
"B%	c #8B879C",
"C%	c #8A8490",
"D%	c #818590",
"E%	c #837F92",
"F%	c #7F7A91",
"G%	c #7F7891",
"H%	c #7F7D8E",
"I%	c #ADABB1",
"J%	c #64636C",
"K%	c #302F36",
"L%	c #2E2B35",
"M%	c #2E2D35",
"N%	c #2E2935",
"O%	c #292531",
"P%	c #26232F",
"Q%	c #1D1B24",
"R%	c #1D1925",
"S%	c #1D1B22",
"T%	c #1D1C24",
"U%	c #25242C",
"V%	c #232127",
"W%	c #212128",
"X%	c #1D1C25",
"Y%	c #1B1924",
"Z%	c #191622",
"`%	c #171620",
" &	c #ECEBEB",
".&	c #D1CED0",
"+&	c #9E9FA4",
"@&	c #514E63",
"#&	c #47485A",
"$&	c #4C495D",
"%&	c #4F4F61",
"&&	c #92909B",
"*&	c #8F949E",
"=&	c #848B94",
"-&	c #6B6C7A",
";&	c #4E4868",
">&	c #3A344D",
",&	c #2C2B3C",
"'&	c #EDECEC",
")&	c #D9D6D8",
"!&	c #CFD0D5",
"~&	c #7E8687",
"{&	c #7E7880",
"]&	c #7C787E",
"^&	c #7C787D",
"/&	c #776F7D",
"(&	c #63666D",
"_&	c #61626E",
":&	c #52516A",
"<&	c #434657",
"[&	c #3D3953",
"}&	c #343147",
"|&	c #2F2F41",
"1&	c #F0EFF1",
"2&	c #D7D3D5",
"3&	c #B8C0BF",
"4&	c #AFB4BB",
"5&	c #AFB0BE",
"6&	c #B3B9B8",
"7&	c #B8B2BF",
"8&	c #B6B5BC",
"9&	c #AEB2BB",
"0&	c #B6B0BE",
"a&	c #BAB5BC",
"b&	c #BAB6BC",
"c&	c #B7B2BC",
"d&	c #B8B3BC",
"e&	c #C8C5C9",
"f&	c #F0ECEE",
"g&	c #CCC9CB",
"h&	c #CFCACE",
"i&	c #FBFBFB",
"j&	c #918A92",
"                                                                                                ",
"                            + @ # $ $ $ $ $ $ $ $ $ $ $ $ $ $ $ $ $ $ $ $ $ $ $ $ $ $ $ $ % & * ",
"                            @ = - ; > , ' - , ) , , ) , ! ~ , { ; , ] ^ / ( _ _ _ : < [ } | 1 2 ",
"                            # 3 4 5 6 ' 7 8 ) 9 = 0 9 ) a b 4 5 5 c d e f g h i j k l m n o p q ",
"                            $ ; r ; ' s { t u > v a > 5 = { r 4 ; w x y z A B C D m m m E F G H ",
"                            $ { ; = I J K L J K J J K L M K N O P Q N R S T U U V W X Y Z `  .H ",
"                            $ ..) v O +.@.#.$.%.&.&.*.=.-.;.>.,.,.'.).!.~.{.].%.^./.(._.:.<.[.H ",
"                            }.' |.4 1.2.3.4.5.6.7.7.8.9.0.a.b.c.c.d.e.f.g.h.i.j.k.l.m.n.:.o.[.H ",
"                            p.{ q.q.r.s.m.t.u.v.w.x.y.z.A.B.C.c.c.c.D.E.F.G.H.I.J.K.L.M.N.O.P.H ",
"                            $ Q.= = R.S.T.t.U.V.W.X.y.Y.Z.`. +c..+0.g.`.++@+#+$+%+&+*+=+N.-+;+H ",
"                            $ ) >+,+1.*+'+)+!+~+{+]+7.^+f./+.+(+0._+/+f.:+y.<+[+}+|+1+2+3+4+5+H ",
"                            $ 6+7+8+9+0+a+t.b+c+d+I.8.e+f+g+.+h+i+0..+`.`.j+k+l+c+m+n+o+p+q+r+H ",
"                            $ { q.4 s+}+a+S.a+t+u+v+y.w+x+f.B.y+z+0.A+f.B+C+D+E+<+m+F+G+H+q+I+H ",
"                            $ ) 5 J+K+L+M+N+O+P+Q+k+7.^+R+A.`.S+S+T+f.f.h.U+<+V+W+X+Y+Z+`+ @.@+@",
"                            $ 4 @@#@J $@%@4.m+&@*@=@y.-@y+;@c.;@>@0.,@'@B+)@I.!@~@{@]@^@/@(@_@:@",
"+ @ # $ $ $ $ $ $ $ $ $ $ $ $ $ $ $ $ $ $ $ $ $ $ $ $ $ $ $ $ % <@[@a.}@|@_+I.1@W+2@3@4@5@6@7@8@",
"@ = - ; > , ' - , ) , , ) , ! ~ , { ; , ] ^ / ( _ _ _ : < [ } | 1 9@e.`.0@)@a@b@c@d@e@f@g@h@i@j@",
"# 3 4 5 6 ' 7 8 ) 9 = 0 9 ) a b 4 5 5 c d e f g h i j k l m n o p k@c.c.`.f.l@m@n@o@p@q@r@s@t@j@",
"$ ; r ; ' s { t u > v a > 5 = { r 4 ; w x y z A B C D m m m E F G u@c.f.R+e.v@w@V+x@y@z@A@B@C@j@",
"$ { ; = I J K L J K J J K L M K N O P Q N R S T U U V W X Y Z `  .D@`.E@R+)@F@G@H@I@J@K@L@M@N@j@",
"$ ..) v O +.@.#.$.%.&.&.*.=.-.;.>.,.,.'.).!.~.{.].%.^./.(._.:.<.[.O@A+P@A+Q@I.R@m@5.S.S@T@U@V@j@",
"}.' |.4 1.2.3.4.5.6.7.7.8.9.0.a.b.c.c.d.e.f.g.h.i.j.k.l.m.n.:.o.[.W@`.X@B+)@Y@Z@D+`@ #.#+#@###j@",
"p.{ q.q.r.s.m.t.u.v.w.x.y.z.A.B.C.c.c.c.D.E.F.G.H.I.J.K.L.M.N.O.P.$#a.%#&#*#=#w@-#;#>#,#'#)###j@",
"$ Q.= = R.S.T.t.U.V.W.X.y.Y.Z.`. +c..+0.g.`.++@+#+$+%+&+*+=+N.-+;+!#~#{#]#]#]#]#^#]#/#(#_#:#<#[#",
"$ ) >+,+1.*+'+)+!+~+{+]+7.^+f./+.+(+0._+/+f.:+y.<+[+}+|+1+2+3+4+5+}#|#1#2#3#4#5#6#7#7#8#9#0#a#[#",
"$ 6+7+8+9+0+a+t.b+c+d+I.8.e+f+g+.+h+i+0..+`.`.j+k+l+c+m+n+o+p+q+r+b#c#r@d#d#e#f#g#h#i#j#k#l#m#j@",
"$ { q.4 s+}+a+S.a+t+u+v+y.w+x+f.B.y+z+0.A+f.B+C+D+E+<+m+F+G+H+q+I+n#o#p#q#r#s#t#u#v#w#x#y#z#A#B#",
"$ ) 5 J+K+L+M+N+O+P+Q+k+7.^+R+A.`.S+S+T+f.f.h.U+<+V+W+X+Y+Z+`+ @.@C#D#E#F#G#H#I#J#K#K#L#M#N#O#P#",
"$ 4 @@#@J $@%@4.m+&@*@=@y.-@y+;@c.;@>@0.,@'@B+)@I.!@~@{@]@^@/@(@_@Q#R#S#T#U#V#W#X#              ",
"$ { v ; Y#Z#`# $.$+$x.@$y.e+C.#$$$%$>@c.a.}@|@_+I.1@W+2@3@4@5@6@7@&$*$=$-$;$>$,$'$)$            ",
"$ ~ q.!$K ~${$N+]$^$/$($X._$:$<$[$}$|$0.e.`.0@)@a@b@c@d@e@f@g@h@i@1$2$3$4$5$6$7$8$9$0$a$        ",
"$ ) b$c$d$e$t.)+f$o@g$x.h$8.-@/+a.y+$$c.c.c.`.f.l@m@n@o@p@q@r@s@t@i$j$j$j$j$j$j$j$k$l$m$        ",
"$ { 9 @@n$o$t+p$q$t+r$s$y.++t$,@a.;@>@S+c.f.R+e.v@w@V+x@y@z@A@B@C@u$v$v$v$v$v$v$v$v$w$x$        ",
"$ ; ) y$O 8.z$T.A$B$C$D$E$-@a.,@c.;@>@F$`.E@R+)@F@G@H@I@J@K@L@M@N@G$H$H$H$H$H$H$H$H$I$          ",
"$ 7+J$d d$K$L$M$N$V.O$~$P$@+Q$R$S$T$U$0.A+P@A+Q@I.R@m@5.S.S@T@U@V@j@                            ",
"$ q.V$W$R X$]$Y$Z$`$ %=@E$e+Q@f+c.c.c..%`.X@B+)@Y@Z@D+`@ #.#+#@###j@                            ",
"$ +%@%#%$%%%O+&%*%=%-@F@Q$:$-%;%%#>%>%,%a.%#&#*#=#w@-#;#>#,#'#)###j@                            ",
"$ '%)%!%~%/#]#{%]%]#]#]#^%/%(%/%_%_%_%:%~#{#]#]#]#]#^#]#/#(#_#:#<#[#                            ",
"$ _ !%<%[%}%|%1%1%2%3%3%4%5%6%7%8%9%9%0%|#1#2#3#4#5#6#7#7#8#9#0#a#[#                            ",
"$ _ a%b%c%d%m m e%f%:.g%h%i%j%k%l%m%n%o%c#r@d#d#e#f#g#h#i#j#k#l#m#j@                            ",
"$ p%q%r%s%t%u%v%w%x%y%z%A%B%C%D%E%F%G%H%o#p#q#r#s#t#u#v#w#x#y#z#A#B#                            ",
"I%J%K%L%L%M%N%O%P%Q%R%S%T%U%V%W%X%Y%Z%`%D#E#F#G#H#I#J#K#K#L#M#N#O#P#                            ",
"           . &.&+&@&#&$&%&&&*&=&-&;&>&,&R#S#T#U#V#W#X#                                          ",
"         .'&)&!&~&{&]&^&/&(&_&:&<&[&}&|&*$=$-$;$>$,$'$)$                                        ",
"     ...1&2&- 3&4&5&6&7&8&9&0&a&b&c&d&b&2$3$4$5$6$7$8$9$0$a$                                    ",
"     ...e&f&j$j$j$j$j$j$j$j$j$j$j$j$j$j$j$j$j$j$j$j$j$k$l$m$                                    ",
"     ...g&h&v$v$v$v$v$v$v$v$v$v$v$v$v$v$v$v$v$v$v$v$v$v$w$x$                                    ",
"       .i&j&H$H$H$H$H$H$H$H$H$H$H$H$H$H$H$H$H$H$H$H$H$H$I$                                      "};
