/* XPM */
static char * xfskin_xpm[] = {
"48 48 328 2",
"  	c None",
". 	c #7E7F82",
"+ 	c #F97F05",
"@ 	c #F8810F",
"# 	c #F97E02",
"$ 	c #F59838",
"% 	c #F97F02",
"& 	c #F98807",
"* 	c #F98606",
"= 	c #F49F47",
"- 	c #F59530",
"; 	c #F97D01",
"> 	c #6F7073",
", 	c #F97E01",
"' 	c #F98706",
") 	c #F98103",
"! 	c #F87900",
"~ 	c #F98504",
"{ 	c #F98605",
"] 	c #F87C01",
"^ 	c #7F7F7F",
"/ 	c #F78F22",
"( 	c #F69631",
"_ 	c #F98304",
": 	c #F98505",
"< 	c #F97B00",
"[ 	c #646464",
"} 	c #6E6E6E",
"| 	c #F78B1D",
"1 	c #F97A01",
"2 	c #F79023",
"3 	c #F49F46",
"4 	c #393A3A",
"5 	c #363636",
"6 	c #F59939",
"7 	c #F98204",
"8 	c #5A5B5C",
"9 	c #3B332F",
"0 	c #E68F2B",
"a 	c #F98404",
"b 	c #F3A656",
"c 	c #636364",
"d 	c #2D2D2E",
"e 	c #2D2D2D",
"f 	c #5B5955",
"g 	c #D97A15",
"h 	c #F98C0F",
"i 	c #FA8806",
"j 	c #F88814",
"k 	c #4A4A4A",
"l 	c #303132",
"m 	c #000000",
"n 	c #745A38",
"o 	c #FA8908",
"p 	c #F98806",
"q 	c #F98405",
"r 	c #F2A350",
"s 	c #484541",
"t 	c #263039",
"u 	c #72644C",
"v 	c #DA8C2D",
"w 	c #F98A0A",
"x 	c #F97B02",
"y 	c #3A3A3A",
"z 	c #010101",
"A 	c #424343",
"B 	c #272729",
"C 	c #000001",
"D 	c #313D48",
"E 	c #F18A14",
"F 	c #E79433",
"G 	c #F28D19",
"H 	c #F97900",
"I 	c #F97B05",
"J 	c #FB8C0A",
"K 	c #C78D42",
"L 	c #584C37",
"M 	c #1F2831",
"N 	c #887150",
"O 	c #F08E19",
"P 	c #F1AE67",
"Q 	c #151515",
"R 	c #232425",
"S 	c #3A3C3D",
"T 	c #26313B",
"U 	c #EF8911",
"V 	c #FA8705",
"W 	c #AF9577",
"X 	c #E3871F",
"Y 	c #C98739",
"Z 	c #F88717",
"` 	c #F97800",
" .	c #F89219",
"..	c #AB8857",
"+.	c #22292C",
"@.	c #40372B",
"#.	c #D59039",
"$.	c #FB8906",
"%.	c #F98002",
"&.	c #333332",
"*.	c #1A1A1B",
"=.	c #555758",
"-.	c #353B40",
";.	c #D89947",
">.	c #F28B07",
",.	c #F88A0B",
"'.	c #FA8805",
").	c #FB8805",
"!.	c #959189",
"~.	c #AC8658",
"{.	c #B89161",
"].	c #F8860E",
"^.	c #F87A00",
"/.	c #FB8804",
"(.	c #EA9122",
"_.	c #5A4320",
":.	c #0C1317",
"<.	c #B4884F",
"[.	c #FC8903",
"}.	c #F49A39",
"|.	c #49494A",
"1.	c #0C1723",
"2.	c #50585C",
"3.	c #996E34",
"4.	c #EF9620",
"5.	c #7A6C56",
"6.	c #6C7D8B",
"7.	c #F38910",
"8.	c #F98306",
"9.	c #F78A1C",
"0.	c #FD8C04",
"a.	c #816F54",
"b.	c #06070A",
"c.	c #9E7C4F",
"d.	c #FD8903",
"e.	c #F79724",
"f.	c #C9995E",
"g.	c #C4935A",
"h.	c #FC971F",
"i.	c #FC8804",
"j.	c #F97A00",
"k.	c #060606",
"l.	c #131313",
"m.	c #020202",
"n.	c #010000",
"o.	c #0F151C",
"p.	c #808A8E",
"q.	c #D09345",
"r.	c #FB8100",
"s.	c #EFBE86",
"t.	c #F88915",
"u.	c #FA8A09",
"v.	c #857B6E",
"w.	c #101215",
"x.	c #816E4F",
"y.	c #262D33",
"z.	c #060809",
"A.	c #060709",
"B.	c #191B1C",
"C.	c #756243",
"D.	c #A8752D",
"E.	c #CB8E51",
"F.	c #CCB3A1",
"G.	c #7F8185",
"H.	c #050605",
"I.	c #565657",
"J.	c #A8A8A8",
"K.	c #040404",
"L.	c #363F42",
"M.	c #EB983E",
"N.	c #F88A14",
"O.	c #F68F16",
"P.	c #4B4434",
"Q.	c #030304",
"R.	c #000101",
"S.	c #050709",
"T.	c #0C0E10",
"U.	c #101112",
"V.	c #0D0D0D",
"W.	c #050606",
"X.	c #838383",
"Y.	c #6A6A6A",
"Z.	c #101010",
"`.	c #4D4741",
" +	c #F87D0A",
".+	c #E79631",
"++	c #212220",
"@+	c #292929",
"#+	c #F87B01",
"$+	c #926E3B",
"%+	c #171717",
"&+	c #616262",
"*+	c #6A6969",
"=+	c #0C0C0C",
"-+	c #404141",
";+	c #F78714",
">+	c #414545",
",+	c #464646",
"'+	c #303031",
")+	c #737374",
"!+	c #141414",
"~+	c #121212",
"{+	c #4F4F4F",
"]+	c #F7880D",
"^+	c #131D27",
"/+	c #030303",
"(+	c #5B5C5B",
"_+	c #2E2E2E",
":+	c #393939",
"<+	c #0F1317",
"[+	c #050505",
"}+	c #535555",
"|+	c #959799",
"1+	c #2A2A2B",
"2+	c #0F1011",
"3+	c #505050",
"4+	c #151516",
"5+	c #323232",
"6+	c #373737",
"7+	c #000002",
"8+	c #181A1B",
"9+	c #73797E",
"0+	c #2B333A",
"a+	c #555554",
"b+	c #5F5F5F",
"c+	c #3A424A",
"d+	c #2B3743",
"e+	c #020304",
"f+	c #010106",
"g+	c #0C151E",
"h+	c #756553",
"i+	c #FC9F45",
"j+	c #9B9EA1",
"k+	c #383838",
"l+	c #565451",
"m+	c #F09427",
"n+	c #F58B09",
"o+	c #E89D3A",
"p+	c #BF996E",
"q+	c #A27F51",
"r+	c #947342",
"s+	c #7D5C2A",
"t+	c #9B7849",
"u+	c #C5A177",
"v+	c #F18C07",
"w+	c #ED8D0F",
"x+	c #876C45",
"y+	c #344049",
"z+	c #010306",
"A+	c #AF824E",
"B+	c #EFBB7F",
"C+	c #41464B",
"D+	c #4F4A42",
"E+	c #E99534",
"F+	c #FA8906",
"G+	c #F18B11",
"H+	c #D58F35",
"I+	c #64543D",
"J+	c #A86A1D",
"K+	c #F9860B",
"L+	c #EFB673",
"M+	c #F1B46E",
"N+	c #E4810C",
"O+	c #F18A10",
"P+	c #F88C10",
"Q+	c #FA8B0B",
"R+	c #F8850D",
"S+	c #F9870D",
"T+	c #F98808",
"U+	c #F98707",
"V+	c #F88E15",
"W+	c #F38B11",
"X+	c #F88808",
"Y+	c #F98809",
"Z+	c #BF6805",
"`+	c #C26A05",
" @	c #A65A04",
".@	c #A25804",
"+@	c #C16905",
"@@	c #A55A04",
"#@	c #DD7906",
"$@	c #9E5604",
"%@	c #160C00",
"&@	c #1C0F00",
"*@	c #6B3B05",
"=@	c #F98B0D",
"-@	c #6F3C03",
";@	c #532D02",
">@	c #C86D05",
",@	c #522C02",
"'@	c #371E01",
")@	c #DD7806",
"!@	c #8A4B03",
"~@	c #F9890A",
"{@	c #512C02",
"]@	c #0E0700",
"^@	c #854903",
"/@	c #150B00",
"(@	c #180D00",
"_@	c #361E02",
":@	c #894B03",
"<@	c #120A00",
"[@	c #6A3A03",
"}@	c #D87606",
"|@	c #0D0700",
"1@	c #623602",
"2@	c #A35904",
"3@	c #4A2802",
"4@	c #0A0500",
"5@	c #9F5704",
"6@	c #291601",
"7@	c #CD7D21",
"8@	c #A65804",
"9@	c #DD7805",
"0@	c #FA8706",
"a@	c #F88B0D",
"b@	c #FA7900",
"c@	c #FA8605",
"d@	c #F6982C",
"e@	c #F9880D",
"f@	c #F9890F",
"g@	c #F88914",
"h@	c #F49F44",
"i@	c #F98705",
"j@	c #F4953B",
"k@	c #F97F03",
"l@	c #F87C04",
"m@	c #F87F0C",
"                                                                                                ",
".                           + @                                       # $                       ",
"                          % & * =                                   - & * ;                     ",
"  >                     , ' & & )                                 ! ~ & & { ]                   ",
"    ^                 / ' & & & ' (                               _ & & & & : <                 ",
"    [ }             | { & & & & & : 1                           2 & & & & & & ~ 3               ",
"      4 5         6 { & & & & & & & 7                       8 9 0 & & & & & & & a b             ",
"        c d e f g h i & & & & & & & ' j                 k   l m n o & & & & p p & q r           ",
"              s t u v w p & & & & & & ' x             y z A B C D E & & & & F G i & ~ H         ",
"            I J K L M N O i & & & & & & * P           Q m R S m T U & & & V W X Y & ' Z         ",
"            ` { p  ...+.@.#.$.& & & & & & %.          &.m *.=.m -.;.>.,.'.).!.~.{.p ].          ",
"              ^.' & /.(._.:.<.[.& & & & & ' }.        |.m m m m m m 1.2.3.4.5.6.7.8.            ",
"                9.' & & 0.a.b.c.d.e.f.g.h.i.~ j.      k.m m m m l.k m.n.m o.p.q.r.s.            ",
"                  t.' & & u.v.w.x.y.z.A.B.C.D.E.F.  G.m.m m m H.I.J.K.m m m m.L.M.              ",
"                    N.& & & O.P.Q.m m m m R.S.T.U.V.W.m m m m z X.Y.Z.C m m m n.`.              ",
"                     +: & & .+++m m C m m m m m m m m m m m m m l.@+z z m m m m                 ",
"                      #+{ i $+m m m C m m m m m m m m n.m m m m m %+&+*+=+m K.-+                ",
"                        ;+'.>+m m m m m m m m m m m m m m m m C =+,+'+)+!+~+{+                  ",
"                          ]+^+m m m m m m m m m m m m m m m m C m /+(+_+:+                      ",
"                            <+m m m m m m m m m m m m m m m m m n.[+}+|+                        ",
"                            1+m m m m m m m m m m m m m m m m m m 2+                            ",
"                            3+m m m m m m m m m m m m m m m m m m 4+                            ",
"                            z m m m m m m m m m m m m m m m m m C m 5+                          ",
"                          6+m m m 7+C m m m m m m m m m m m m 8+9+0+z a+                        ",
"                          ,+b+m m c+d+e+C m m m m m m f+g+m m m h+i+j+                          ",
"                            k+m l+m+n+o+p+q+r+s+t+q+u+v+w+x+y+z+Q.A+B+                          ",
"                            C+D+E+i & p i i F+F+F+i i & & o G+H+I+J+K+L+                        ",
"                          M+N+O+'.& & & & & & & & & & & & & & i P+Q+p R+                        ",
"                          S+' & & p T+* ' ' * ' & & & & & & & U+& & & ' V+                      ",
"                        T+& & & & U+W+X+& & & & & & & & & & & & & & & & & &                     ",
"                      & & & & & & Y+& & & & & & & & & & & & & & & & & & & & &                   ",
"                      Z+& & `+ @ @.@& & +@@@ @#@& `+ @ @ @ @ @#@& `+ @#@& & & $@                ",
"            m m m m %@m  @& &@m m m `+& &@m m *@=@&@m m m m m -@& &@m ;@& & `+m m m m           ",
"            m     >@,@m  @& & ;@;@& & `+&@'@)@&   & &  @m & & & & & ;@m ;@& & & ;@'@            ",
"          m m     & & &@`+& ' ;@;@& !@m !@& &     ~@&  @m & & & & & ;@m m  @& & ;@{@            ",
"            m ]@^@ @& & & & & ;@'@'@m !@& &         & @@m & & & & & ;@;@;@m  @& ;@;@&           ",
"            /@(@m m m -@& & & ;@m _@&@m @@            :@m & & & & & ;@;@& '@&@#@;@;@&           ",
"            & & #@ @-@m !@& & ;@'@& & ;@<@              m & & & & & ;@;@& #@&@&@'@;@&           ",
"          m [@& & & & ;@;@& & ;@;@& & }@m m             m & & & & & ;@;@& & #@m m ;@&           ",
"          m |@!@& & !@m !@& `+'@'@ @&   m m           m m 1@2@#@& #@'@'@ @& &  @m 3@            ",
"          m 4@m m m m ;@& & &@m m m 5@    m m m   m m m m m m -@& -@m m m `+& & !@6@            ",
"              7@8@ @9@0@& & & & & a@                          & & & & & ' * & & &               ",
"                b@: & c@& & & U+d@                              ~@& & & & & & e@                ",
"                  ] { & & & ' #                                 f@' & & & & *                   ",
"                    ; ' & & g@                                    h@i@& & _                     ",
"                      , ' : j@                                      k@' _                       ",
"                        ; l@                                          m@                        ",
"                                                                                                "};
