/* XPM */
static char *magick[] = {
/* columns rows colors chars-per-pixel */
"48 48 13 1",
"  c #040404",
". c Gray13",
"X c Gray26",
"o c Gray39",
"O c #00008b",
"+ c Green",
"@ c #00868b",
"# c #8b008b",
"$ c Gray51",
"% c Gray64",
"& c Gray76",
"* c #f1f1f1",
"= c None",
/* pixels */
"=%%%%%%%%%%%%%%%%%%%%%%%%%%%%%%%%%%%%%%%%%%%%%==",
"%********************************************%%=",
"%**&*&****&******&**&********&**&****&*&&&&&*%$=",
"%*******&*****&*******&***&*******&****%&&&&&#o=",
"%***&*&**&******&**&***&&***&*&***&%*&&&&&&&&$.=",
"%*&***&****&*&*******&****&***&******&&&&&&&&# =",
"%**&**        .            .          . .%&&&@.=",
"%**&** oOoOoooOoOoOoOoOoOoOoOoOoOoOoOoOoO*&&&#.=",
"%***&* ooOoOoOoOoOoOoOoOoOoOoOoOoOoOoOoOo*&&&o =",
"%***** oO******oO**oO*****OoOoOoOoOoOoOoo*&&&# =",
"%**&*& OoOoOoOoOoOoOoOoOoOoOoOoOoOoOoOoOo*&&&o.=",
"%*****.oO***O**o*****oO******o***oOoOoOoX*&&%# =",
"%***&* ooOoOoOoOoOoOoOoOoOoOoOoOoOoOoOoOX*&%&o.=",
"%*&*** oO****o*******o****OoOoOoOoOoOoOoX*%%%# =",
"%***&& OoOoOoOoOoOoOoOoOoOoOoOoOoOoOoOoOX*&%%o =",
"%***** oO**o****O*****O*****OoOoOoOoOoOoX*%%%O =",
"%*&*** OoOoOoOoOoOoOoOoOoOoOoOoOoOoOoOoOX*%%%o.=",
"%***&* oO*****OoOoOoOoOoOoOoOoOoOoOoOoOoX*%%%o =",
"%*&*** OoOoOoOoOoOoOoOoOoOoOoOoOoOoOoOoOX*%%%o =",
"%***&* oO**oOoOoOoOoOoOoOoOoOoOoOoOoOoOoX*%%%o =",
"%***** #oOoOoOoOoOoOoOoOoOoOoOoOoOoOoOoOX*%%%o.=",
"%****& oO****o**O***OoOoOoOoOoOoOoOoOoOoX*%%%o =",
"%**&**.OoOoOoOoOoOoOoOoOoOoOoOoOoOoOoOoOX*%%%o.=",
"%***** oO***O****oO****oOoOoOoOoOoOoOoOoX*%%%o =",
"%***&* OoOoOoOoOoOoOoOoOoOoOoOoOoOoOoOoOX*%%%o =",
"%*&*** oO**oOoOoOoOoOoOoOoOoOoOoOoOoOoOoX*%%%o =",
"%***** OoOoOoOoOoOoOoOoOoOoOoOoOoOoOoOoOX*%%$o =",
"%***&* oOoOoOoOoOoOoOoOoOoOoOoOoOoOoOoOoX*%%$o =",
"%*&*** OoOoOoOoOoOoOoOoOoOoOoOoOoOoOoOoOX*$$$o =",
"%****& oOoOoOoOoOoOoOoOoOoOoOoOoOoOoOoOoX*$$$X =",
"%**&** ooOoOoOoOoOoOoOoOoOoOoOoOoOoOoOoOo*$$$X =",
"%***&* oooooOoOoOoOoOo##OoO#OoOoOoooooOoO*$$$X =",
"%*****%***********************************$$$X.=",
"%*****&&*&&&&&&&&&&&&&%%%%%%%%%%%%%%%%XXX$$$$X =",
"%**&*%*&&&&&&&&&&&&&&%%%%%%%%%%%%%%%$$X++&$$$X =",
"%****&%&&&&&&&&&&&&&%%%%%%%%%%%%%%%%$$$&&&$$$X =",
"%*%$#$#$###o#o#oooooooooooooooooXoXXXXXXXXXXXX =",
"%@         ..   .      . .   .   .   .         =",
"==========%*oXXXX.&&%%$ooXX.. . ..XXX===========",
"=========%*%ooooooXo$@$ooXXX...XXoooo.==========",
"========%**$$$$$$$$ooXXXXXXXXXo$$$$$$o.=========",
"=======%**%%%%%%%%%%%%%%%%%%%%%%%%%%%%o.========",
"======%********************************o.=======",
"======%*%%%%%%%%%%%%%%%%%%%%%%%%%%%%%%%% =======",
"======%*%%%%%%%%%%%%%%%%%%%%%%%%%%%%%%%% =======",
"=======o    .           .       .       ========",
"================================================",
"================================================"
};
