/* XPM */
static char *magick[] = {
/* columns rows colors chars-per-pixel */
"48 48 32 1",
"  c Gray0",
". c #28287c",
"X c #2a0f5f",
"o c #591e71",
"O c #4e1465",
"+ c #65287d",
"@ c #430a59",
"# c #333389",
"$ c #3b3b93",
"% c #2d2d83",
"& c #703289",
"* c #7b3c95",
"= c #42429b",
"- c #4747a1",
"; c #4b4ba6",
": c #5050ac",
"> c #5555b2",
", c #5c5cba",
"< c #6060bf",
"1 c #6969c9",
"2 c #7373d6",
"3 c #7d7de1",
"4 c Red",
"5 c #9552af",
"6 c #b46ed0",
"7 c #b16bcd",
"8 c #ffd000",
"9 c #ffd519",
"0 c #8b8bf2",
"q c #d187ee",
"w c gainsboro",
"e c Gray100",
/* pixels */
"                                                ",
"                                               e",
"  3362222222116161271111,1<<52515,5,,,>>,>>>5::e",
"  22222222212212211111111,<11<1,<,,>,><>>>:>;>5e",
"  22222262161212,1111,1511<5,>,1,>><,>5,>:>;>;:e",
"  22226222612111111,,251<151>,,,,,,,5>,>5>5:>;:e",
"  22222625221<1,2111,52,511,1,,,,,,><5>::::::;:e",
"  222122221121115111111,1<<<><>13502>:5>>::::::e",
"  2262121211227106w61,<,,<27w55w999w>:>7w61&,5;e",
"  26122121111527w9991<<<27w98ww999992,0989*>5;=e",
"  2221111111112w899w1<,0w999ww99999w,5999w*:;>5e",
"  211212621,21299999217w899w1w99998w&w99993;;;=e",
"  21216,1716<21w899w5w9899w,:5w99992w99990&;;;-e",
"  1221161,2,2>*q998ww9999w11>w8998w2w998w52;---e",
"  211,2172,1<1294949q84902,,5w8499216849www5;-=e",
"  2162111<2111569485948q2,>;w849862o69948699,,*e",
"  26<2<111,<1229494448551>>5w494q7&>w7494840$:;e",
"  ,16<1111<1<&5q44444661>,-w4444wo2-w4494q3=,&;e",
"  2<2111,,111,09444966+,<,w4444wO:;594w7wO:---:e",
"  ,21<2525,122w54444w&1*&764444w;;-w4461.><===;e",
"  211151<1551w44444q&2&>w944446o;:w64q&o,+1$=-$e",
"  ,1<<115112w44444492&,w644444w,-5544w+;>:o=-$=e",
"  21<,,1<<2w44444446&1w644444591<w445=,;=--=$-,e",
"  ,17,1<<,w444444449ww7445444921w447w;-====;o;>e",
"  <711,1106444q9444*w44469444&ww4445.==--==>>O=e",
"  ,1,,,>1w4449w644444445wq44449444w1=-=-====O,oe",
"  <<<,,16444652q44444466ow44444446&;;:+:==-==$-e",
"  <<<15>w44971>044444w5o&5744444w5;;+;=o;>o$$$$e",
"  1<<<<<07457>>+w544q5+,:2w444465:=:,o;=>+;$$$$e",
"  ,<<<2**q*9*>,;;66w*>&2,O+q54w*-===;:+;=$-$$$#e",
"  ,<<,,11o5,1,11*o:-::->;-;o52+&==o--$-$=$$=;O,e",
"  155<>,,,,,,1+,:&2&;>-;;;-o,+;;,+1===$$=$-O;=$e",
"  ,,5:,,:<>>>&11,,+2;;>;;-;-,<+;>o,=$=$$==#;o=$e",
"  ,:9&1;,>,;>:>>:9*;:;;;-----O>,-=##9$9$$#$$$;Oe",
"  ,191155&>&8:&&=99-o&*&<999:+oo+$;+8+8$+;&@o##e",
"  <;9998582&9+98+8O9999&o=99O89O8o8999o9998o9=#e",
"  ,58-9*8>+w89$999$99.8;>9o89O.98O9.99o8%o99..#e",
"  :*98;+9:;@9$99#9o98>9-$999@9O99#98@9@99.9+%#$e",
"  ,,;>;91=18>$1,;:=>;%$=====$=$$##$=#%$##.o9$%:e",
"  2*2;,-=>#>=,>$:$<,;=-=;$=$-$=$#,$$%#$%%#O=.$#e",
"  1<&>;>;1=,1<-=;;>$,=;,o=$,#==#$$$$$;==##=.$>Oe",
"  ,;>>>1>$>1&;-;;-$-$=<>;-=$-=$$$$$#-O=$.=>.###e",
"  >>;;>;11+;;;;==;;==#;o<;$$-$$$$$$$#$-o=#%#%#%e",
"  ;>><2:$>1&:-;;-$-$=<>;-=$-=$$$$$#-O=$.=>@##%%e",
"  >;>;>11+;;:;==;;==#;o<;$$-$$$$$#$#$-o=#%$%#%%e",
"  ;,>>;>:;;;;;>11==-=-$=-$$$$;;+$#$$##$#%%###=Oe",
"  ,+2-->;;;;;+>=o::<=$=$$=$$o;$-==o######%#@$%#e",
" eeeeeeeeeeeeeeeeeeeeeeeeeeeeeeeeeeeeeeeeeeeeeee"
};
