/* XPM */
static char *magick[] = {
/* columns rows colors chars-per-pixel */
"56 46 32 1",
"  c #010001",
". c #000013",
"X c #292b2a",
"o c #182020",
"O c Gray38",
"+ c #50534a",
"@ c #453434",
"# c #202496",
"$ c #001c8e",
"% c #376ba5",
"& c #5155ff",
"* c #51718e",
"= c #6d88ba",
"- c #59a2d7",
"; c #ef2851",
": c #b65445",
"> c #9b798b",
", c #ae9e59",
"< c #aaa272",
"1 c #d7ad55",
"2 c #a4a2a6",
"3 c #aeb2cf",
"4 c #bec3cf",
"5 c #dfba8e",
"6 c #f7b2ae",
"7 c #c7bac7",
"8 c #d7dfe7",
"9 c Gray100",
"0 c #fff3ff",
"q c #e9ebf1",
"w c #d6d1d2",
"e c #e1d4a3",
/* pixels */
"999999999999999999999999999999999999999999999999999999w ",
"99wwwwwwwwwwwwwwwwwwwww7wwwwwwwwwwwwwwwwwwwwwwww7wwwwq  ",
"992333ww7wwwww7ww7wwwqqqqwwww7ww7wqqqqqqqqqq8qqqqqqq8w  ",
"99238448888888qw8888q99q9q88w8888q999q9q9q9q999q99q997  ",
"9023344w84wq3w97qw488q9q884848q9999999999999999999999w  ",
"9028334w4w88q999988q8qq8q848qq999999999999999999999997  ",
"992333483w88q99999qq9q887w889999999999999999999999999w  ",
"9023-3444wq89999999999qq888999999999999999999999999997  ",
"9923&333444q99999999999qq9999999999999999999999999999w  ",
"99>&3334488999999999999999999999999999999999999999999w  ",
"9923&8888q99999999999999999999999999999999999999999qqw  ",
"992099qq99999999999999999999999999999eewe999999qqw4447  ",
"99299999999999q955589999999990q555qq5511,q9999q5544w44  ",
"99299999999999,:,5:29999q9q0,1,:X:e,5515,q999q,21,233w  ",
"9q2999q99q9qq91551:2q99q9e5,15:X+:55,551:q99q:15,19987  ",
"9q29q9q99q9qq0,552,:9q9q55,15OoX+O:55551,89q55155599qw  ",
"99299999q99eqq1555:=9qq5,515@@O7o+,5552:99q,,1555843&7  ",
"992999999qq9qq:555,>9e5125,Xo2qeO:512555e9O5555253-3-7  ",
"992999999999qq5525:=85,55:Xo290qq55551,w92o15555434333  ",
"992&&-3333w78e,555:,5515O@ow09e0q:5255e09++55125555<qw  ",
"992&&&&&&&&&&3:55555555+o+q9qqqq,55155wq9 @@555555,237  ",
"992&&&&&&&&&&&,1525555:+O&-&&&&515555-3&&XX:55255:1&&3  ",
"99233=&&&&&&&&5555525:oO&&&&&&w,555:2&&&&&@55555,2q447  ",
"90>&&&&&&&&&&&,55515OX=&=oX#&&155<1333700X55,XX:e9999w  ",
"99>&&#&&&%&#&155525:X;;;;;;%2155555899999:52,:20q844w7  ",
"90&#&&&&&&&>255555,+O:::;:o:55551,e99q99e555q0qq0qqq8w  ",
"992&&&&#&#&5,55255:+:;@@Xo,5555555q9999+:5:5q9q0q4&&+2. ",
"902w9q883255551555,%446:@512551255ww3375512-&&&&&&&&#2  ",
"902&33=34:555525<5:=w74555555255<7&&&&,,15&&&&#&&&#&&7  ",
"902&&&&>55255+5555,5&&25555@515554&3:,,1,eqq72&&&&&&&7  ",
"9923&&5:555,oX555555,1e52@O55555:5&2,5,5=4&-&$#&&&&#&7  ",
"90>&&,:555:X@=512555555:OO3252555:,511>-#32;>@:%&&$37w  ",
"99<&*5552:XX%&555555555O%&&&,55555155,7X:9;;;;;;;+ %>3  ",
"992w2,55OXXq98,55125:,X=w334,55<551,5w9:;;;;;:;;;;o*37  ",
"00>&&>15Oo&&&&&5:5,:++&&&&&&o:555552&&&&%>: ;;;;:o %&7  ",
"9q2&&&&,:o%&&&&&22<==&&&&&&&&+@5,5-34q33&&%&X X&&X %&3  ",
"99>&&&&&4-&&#&#&&&&&&&&-&&3>33323*-&&&&&&&&&&&&&&&3&&7  ",
"992. oXo#XX###X######Xoooo...o.o@XXX###$#####ooooX$##2  ",
"99> oo#X####X#XXXXXX@XXX  o.o.XXX@X##X##X##X#X###X#XX2  ",
"992  .X#######@XXX@XXXXXXo.XXo.XXXX###########X#oX . 2  ",
"992.oXXXoXXo#@#X#####@@X#o##.X#Xo##@X####o######X#@XX4  ",
"982o##o@X#o#XXX#@.. . . o X..o...oX.X. oXX###o##X@.o.2  ",
"99:.oXXXX.oo.X@#X#XX##X##X#oX#X##X##Xo#X@X@..   #####3  ",
"992#%OO+OO%O&+*%%+%%O+XXX@+@@XXX@XXXXO*%%%O%%%%O+XX+O4  ",
"qO+++++++++++++++++++O+OO++OO+O+OOOOO++++++++++O+O+O+O  ",
"X                        .      .                   .   "
};
