/* XPM */
static char * xfsound_icon_xpm[] = {
"50 50 13 1",
" 	c None",
".	c #DFDFDF",
"+	c #B6B6B6",
"@	c #616161",
"#	c #000000",
"$	c #FFFFFF",
"%	c #A2A2A2",
"&	c #BEBEBE",
"*	c #797979",
"=	c #FF0000",
"-	c #595959",
";	c #FFFF00",
">	c #0000FF",
"..................................................",
".++++++++++++++++++++++++++++++++++++++++++++++++@",
".++++++++++++++++++++++++++++++++++++++++++++++++@",
".++++++++#####+++++++++++++++++++++++++++++++++++@",
".+++++++#$%$&$#++++++++++++++++++++++++++++++++++@",
".++++++#$%$%$*$#++++++++++++++++##+++++++++++++++@",
".+++++#$%$%$*$#&#++++++++++++++#$$#++++++++=+++++@",
".++++#$%$%$*$#&#&#++++++++++++#$#-#$+++++===*++++@",
".+++#$%$%$*$#$#%#-$++++++++++#$&#-#$+++=====*++++@",
".+++#&$%$*$#$#&#*-$++++++++++#$#---#$=======*++++@",
".+++#$%$*$#$#&#%#-$+++++++++#$&#---=========*++++@",
".+++#&$*$#$#&#%#*-$++++++++#$&&#-======**===*++++@",
".+++#$*$#$#&#%#*#-$+++++++#$&&&======**++===*++++@",
".+++#&$#&#&#%#*#*-$+++++++#$&&=====#%++++===*++++@",
".++++$#&#&#%#*#*-$+++++++#$&&&===###$++++===*++++@",
".+++++$#&#%#*#*-$+++++++#$&&&&===#--$++++===*++++@",
".++++++$#*#*#*-$+++++++#$&&&&&===#--$+++====*++++@",
".+++++++#-----$+++++++#$&&&&&&===#--#$+=====*++++@",
".+++++++#$&%*-$+++++++#$&&&&&%===#--#$+=====&++++@",
".+++++++#$&=*-$#######$&&&&%%====#--#$+=====&++++@",
".+++++++#$&=*-$&&$$$$$&&&&%%=====#--#$++===*;++++@",
".+++++++#$&>*-$%%&&&&&&&&%%%=====#--#$++;**+;;+++@",
".+++++++#$&>*-$%%&&&&&&%%%%%=====#--#$++;;+++;+++@",
".+++++++#$&%*-$**%%%%%%%%%%%%===###-#$+++;+++;+++@",
".+++++++#$&%*-$**%%%%%%%%%%%%%##-##-#$+++;+++;+++@",
".+++++++#$&%*-$--*****%%%%%%%%#--##-#$+++;+++;+++@",
".+++++++#$&%*-$--*******%%%%%%#--#--#$++;;+++;+++@",
".+++++++#$&%*-$-------****%%%%#-----#$++;+++;;+++@",
".+++++++#$&%*-$#######-*****%%#-----#$++;+++;++++@",
".++++++++&$%-*$$$$$$$$#-******#-----#$++++++;++++@",
".++++++++%$%-%++++++++$#-*****#-----#$+++++;;++++@",
".++++++++*$%-&+++++++++$#-****#-----#$++++;;+++++@",
".++++++++-$%-$+++++++++$#--***#-----#$+++;;++++++@",
".++++++++#$%-$++++++++++$#--**#-----#$+++;+++++++@",
".++++++++#$%-$+++++++++++$#--**#---#$++++++++++++@",
".++++++++#$%-$++++++++++++$#--*#---#$++++++++++++@",
".++++++++#$%-$+++++++++++++#---#---#$++++++++++++@",
".++++++++#$%-$+++++++++++++$#--#---#$++++++++++++@",
".++++++++#$%-$++++++++++++++$#-#---#$++++++++++++@",
".++++++++#$%-$+++++++++++++++$##---#$++++++++++++@",
".++++++++#$%-$+++++++++++++++$#-#-##$++++++++++++@",
".++++++++#---$++++++++++++++++$##-#$+++++++++++++@",
".++++++++$$#$$+++++++++++++++++$###$+++++++++++++@",
".++++++++++#++++++++++++++++++++$$$++++++++++++++@",
".+++++++++++##+++++++++++++++++++++++++++++++++++@",
".+++++++++++++##+++++++++++++++++++++++++++++++++@",
".+++++++++++++++####+++++++++++++++++++++++++++++@",
".+++++++++++++++++++#######++++++++++++++++++++++@",
".++++++++++++++++++++++++++++++++++++++++++++++++@",
"@@@@@@@@@@@@@@@@@@@@@@@@@@@@@@@@@@@@@@@@@@@@@@@@@@"};
