/* XPM */
static char * Metal_blue_xpm[] = {
"64 64 16 1",
" 	c None",
".	c #697F8E",
"+	c #697B8B",
"@	c #6C7F8E",
"#	c #6F8291",
"$	c #6F8594",
"%	c #728594",
"&	c #6C8291",
"*	c #6C828E",
"=	c #6F8294",
"-	c #6F8591",
";	c #697B8E",
">	c #657B8B",
",	c #697F8B",
"'	c #6C7F91",
")	c #657888",
"....++++++++++++....@@@@@@@@@@@@@+++................+++..++++...",
"####$$$$$$$$$$$%####&&&&&&&&&&&@.@*@@@@@@@@@@@@@@@@@#=$##$$#-###",
"@@@@@@+@@;@++@+@@@@;@@@@@@@@@@.+.;.++++++;@@+++++++>,++;++.;+;@@",
"'##*@@#@@#@##@&@@@@#'@*'*'@&@@##@@@@'#####@@#@#####&@####&@@@#@@",
"@@'&&@##*##&&@#''@@####'#&@#&@&#@@@#@@@@@@@@#@@@@@@&'&######@#&&",
"####@#'*'*&#@#*#*###*@@#*@#@@@@@&&*@@**@@#&@@@@*@'*@*@@*@@@@#&##",
"))))+,;@@++@;@,;+++;**@@#@@@@@@@@@.@;;.,++.+..@@@;@;++>+;>+>))))",
"$-#$###&#$-#%##%$--###&#@&&&&#&@@'@&&#@''&@&&@'*.#@@#-####-##-##",
";@@..@@.@@@@@'@@''*@;@@@@@@@&#%%%%###$#######&'#@*@';..,.++;@@.@",
"#@@'#*#####&=-####==%%=$%%%%%%$$##$##@#*@'@@&@*@@@#*##*##&##'@@@",
".@@@+>++;,;,@..@@@.@,@@..@@@@@'#&@#@#@'##**@@;.@@+;,;@.+@++..@.@",
"++,++@;.,.@..@@..@@.@@@@@@.@@##&##@@@*@@@@@@@@@.;@@.@@@@.@@@+,++",
"$=%%=%#%=%##=####-%=#-###-=$#&#*#&##'#'''#&&#####-#-&#-#-##%=%$%",
"@*@@@@@@@.@@#&&#&'@#*'*@&@*@&#&#&#&*#*#*#'@@@.@*.@'@'@'@'&@@@@@.",
"@..@@*@@@@@.@#@@#*@@*'&*#@*@@@@@@@@.@.@@.@@.@''#'###&####*&#@@@@",
"@@@@@@&*@@*@#@*#@'@';@;;+@;@*#&#&&&#&##@#&@#'@@@*@,@@@.,;@+...@@",
"'&**.++@,;++.;,.+,,+@#@@.@,@))))))))))>)++)+,,.+,;@+@@'*@#@@@@&&",
"#@'''&#@'*#@@#'@&'@#++@.+.;+&'*@'@@@'*#&@*&#@@@'@#@#@#@@&@###&@@",
";+++++,@++.@++,++++,@@@@@@@@#@&@#*@*@;+@@@,@@.@@...@+@@;@+;;;@@+",
"%-###&&@@*@@@@'@#*@@,++@+,.++;++>+.+@@@@.@@.;@..@@@@&@@#@&#*###$",
"+,@+;+.@;+,.@@@.@@@@*#@'@@@@*@&@'@#@@&.@@@@*@*@@@@.@@@@@@,@@++++",
"''@&@'@@@*'@&@#@'&&&'@&*#*&&'#####@&@@@'@@@@@@@@@@*@.@@@@@@@*''&",
"#&@*#@&#'@@@@@@@@@@*'@'@'@@#*@&**&#*##@&'#'*@###&'@#&*&@'**'*#@&",
".@@@.@..@@@@#@##&@@@*@*'@&@@;@+;;@+;+++++>+>+++++@+>+++@,;;,+,@@",
"@@@@@@@@,@@+.+++@.@+,++++++,++++>++>>+>++++,++,++,++..+;,,;@;@+@",
"@*'@@@@*'@@&@&&#@@@#''*&@'@'*&##@**@'&#&#*##&&####'##########@#@",
"'##&@@'#**@#@@.*@@@@#@@#&&#&#**#####@@@.@@@@@'&*@#*@@&*'&@@@@@&&",
"@,@@@@,,;;@+@@@@@..@@@@@@,@;@@@@..@@*@**&''&'*@''@@'&@@*@*'***@+",
"'@@@,;;,,++++++;++,>@,>+)+@++;+;+++);+;+,+++;@@@,@,+@@@@@@..@@#&",
"@@'&=-####$-&*'#&#@####@##&######'*#*'@@@*'**'@*&@'@+.;+;,;;;@;@",
"'@@@++++++));@,++;++;+..,+,;+++;+++++++>++)++>+)++++++.+;@@,.@@&",
"+#'*####&#==#&&#&#&###'''###&&####''@@@@@@#@@@@#@@'&@@.@@+,@+@++",
"@+++@.;;;@@+++,;,@;@+@@@++,++,+,.,@,+;+;++;++++++,+;@@@@*'@#@&@@",
",@'@.@*#@@@###'##@**#####=##-#$=####$-$#$=####=$%=$-*@**'@'@*@@@",
"@+++;++,,,+,++++++++>+,@,;,+;+@@@.@@@;..@@.@.,+@@;;;#'@@**@'@@..",
"**&@@'*@@'*@@@*@&@'*@&'&##''@@@*###*@##@**&@@&#@@@@*@@&#''*@@&##",
"@@@##@&'@''@#@@@#@@####&&####&'@@''*@@#&'###@@&*##''*'@#*'##@@@@",
"''*@@'@**@@&@@@*@'&@@@@@@@@@&##=#-#=&&@@##&####'@@###*&*'**@&@@&",
"@@.@@@;;@@++@.@.@+..+++++>+))+))))))+@.++..;++@@@+@+@@@@''*@@@@@",
"*'@'@@#@@@#*'&'@@*@;#&####-=#&--#-###&#####%$$###%#######*'@&#@&",
"%%--##%####-#&#&'##&@....+@+@.;.;@@@@+@@@@@@@*@...&*@@@,@@&@&%#%",
"###=##@&&@'@@@@*@@@@&#####@#@@*@#@*@##&&#-&##=$-###==#%=%%#%%#%$",
"&&*@@&@@'*'@@.;@..@@,,,+,@+@@@@+,;@,+,;+++++..@@@@@@@,@.@#@@&@@#",
"##@*@@@@@@..@@@@@@,,'@@@@@@.+++.;@+;.+@..@.@@;;@@@@@@@*@...@@&#@",
"*#'#*&#&'##&###&#==###-&&###$$#%#$%#%-%#$%$-%%#-#--$==###-$$#&-#",
"#&#&'@'@#**@.@.@@@@@'@''*&@'@@&.@@@@@@.@@@@@@@&'&'&@@@'&@@@@##'#",
"@@@@@@@@@@@@*'@@&#&&&##'###@@@@**@*.'@*@.@@@***@@@@@&#@##*@*@*.@",
"#&#####@''@@@@@*@.@@@@@@;.,@@@@;;.@@@@'@@@@@'''&&'##+,@,+;@;*'##",
")))))>>+>++)@@;,@@@+@@@*@''@@@##@'@@.,.@+;,+@@@@,++@@@@@@.@@+)))",
"&@*&*@#@#&&#@.@@@@@#@*#@###&'&**###*#'@@&*'#@@@@'@@@++;@,;,+@&&&",
"&@@@@;,+@@.,@.@,...@;,@,+,+@+;;++;++@+,++,+,++++,,++*@@@@@''@@@@",
"+++.@@@@.@@@@@.'@@@@#'@'#'#*###$####@###&'@@&@&@''&&;@;;,+,,++++",
"&&@*@@@@.@@@*@@@@@..@@@.@+;@@++.,;+@,+++@..+.+@@@@@@@*@''@@&&&&#",
"'#&#@&'@@@'@@@@@@@*@.@@@@**@@#'@@*&@''&@@@@@###&*@@#*'###&&@#@#&",
"@#@*'*'##**'&###&'@@****''*@@#@''@&@*@#@*@#@@@@@'*@@@@@@@@'@#@@&",
".+.;+++)>+)++>+++@++;+;;+@;,@+@@@@.@@@.@@@.@'@@'*'@@**@*@@@@.@@+",
"++++++;+>;>++.,++,++@@@@+,;+@@.@@@@.@@..@@.,@@@;@,.;>>++,+++>+++",
"*@**#*#######@##########-###&***&@&''@#'@@@'*@@#@@@#'#'#'*&@#@#@",
"##'#@@.@@@@@@'&*@'*@@@*@**'@@@'@###*#@**@##@*@.@'*@#@#@#''#*&&##",
"@.@.&*@&**@'&*@''*@@@@@'''*@.@@@.+@;,@;@@++.@@@@*@@,@,@+@,.;@@.@",
"+++)+++++,,+;@@@@..;@@@@@@@'&@@@&@@;+@;+,++>++,++>;,;,;+++@++.++",
"##@#'#@'''@'*'@*@@@*.;,+++.,+@@@@@##-##-=$##&*''@#@'#&#*@#&-##&#",
"+,++)>+++>+++>++++)).+.,;+;@.@@@@@@;++++++++;+,.+@,+;,;@@+;++...",
"&'@*&@@@@@@@@@@@@'##+.,;.@@+@;@++**###&####&###########&*####@#@"};
