/* XPM */
static char * xfclock_icon_xpm[] = {
"50 50 11 1",
" 	c None",
".	c #DFDFDF",
"+	c #B6B6B6",
"@	c #616161",
"#	c #595959",
"$	c #FFFFFF",
"%	c #A2A2A2",
"&	c #797979",
"*	c #FF0000",
"=	c #000000",
"-	c #0000FF",
"..................................................",
".++++++++++++++++++++++++++++++++++++++++++++++++@",
".++++++++++++++++++++++++++++++++++++++++++++++++@",
".++@@@@@@@@@@@@@@@@@@@@@@@@@@@@@@@@@@@@@@@@@@@+++@",
".++@...........................................++@",
".++@.++++++++++++++++++++++++++++++++++++++++@.++@",
".++@.++++++############################$+++++@.++@",
".++@.+++++#$%&%&%&%*%&%&%&%&%&%&%&%&%&%&$++++@.++@",
".++@.++++#$%&#&*********&#&#&#&#&#&#&#&##$+++@.++@",
".++@.++++#$&%&*****$*****&%&%&%&%&%&%&%&#$+++@.++@",
".++@.++++#$&%***$$$$$$$***%&%&%&%&%&%&%&#$+++@.++@",
".++@.++++#$&***$$$$=$$$$***%&%&%&%&%&%&.#$+++@.++@",
".++@.++++#$&**$$$$==$$$$$**.............#$+++@.++@",
".++@.++++#$**$$$$$==$$$$$$**%.##.%.##.%.#$+++@.++@",
".++@.++++#$**$$$$$==$$$$$$**%.##.%.##.%.#$+++@.++@",
".++@.++++#$**$$$$$==$$$$$$**%%%%%%%%%%%.#$+++@.++@",
".++@.++++#$**$$$$$========**%...-%...-%.#$+++@.++@",
".++@.++++#$**$$$$$========**%....%....%.#$+++@.++@",
".++@.++++#$**$$$$$$$$$$$$$**%....%....%.#$+++@.++@",
".++@.++++#$**$$$$$$$$$$$$$**%%%%%%%%%%%.#$+++@.++@",
".++@.++++#$**$$$$$$$$$$$$$**%...-%...-%.#$+++@.++@",
".++@.++++#$&**$$$$$$$$$$$**.%....%....%.#$+++@.++@",
".++@.++++#$&***$$$$$$$$$***.%....%....%.#$+++@.++@",
".++@.++++#$&.***$$$$$$$***%%%%%%%%%%%%%.#$+++@.++@",
".++@.++++#$&.&***********..-%...-%...-%.#$+++@.++@",
".++@.++++#$&.&.*********....%....%....%.#$+++@.++@",
".++@.++++#$&.&....%....%....%....%....%.#$+++@.++@",
".++@.++++#$&.&.%%%%%%%%%%%%%%%%%%%%%%%%.#$+++@.++@",
".++@.++++#$&.&...-%...-%...-%...-%...-%.#$+++@.++@",
".++@.++++#$&.&.##.%....%....%....%....%.#$+++@.++@",
".++@.++++#$&.&....%....%....%....%....%.#$+++@.++@",
".++@.++++#$&.&.%%%%%%%%%%%%%%%%%%%%%%%%.#$+++@.++@",
".++@.++++#$&.&...-%...-%...-%...-%...-%.#$+++@.++@",
".++@.++++#$&.&.##.%....%....%....%....%.#$+++@.++@",
".++@.++++#$&.&....%....%....%....%....%.#$+++@.++@",
".++@.++++#$&.&.%%%%%%%%%%%%%%%%%%%%%%%%.#$+++@.++@",
".++@.++++#$&.&...-%...-%...-%...-%...-%.#$+++@.++@",
".++@.++++#$&.&.##.%....%....%....%....%.#$+++@.++@",
".++@.++++#$&.&....%....%....%....%....%.#$+++@.++@",
".++@.++++#$&.&.%%%%%%%%%%%%%%%%%%%%%%%%.#$+++@.++@",
".++@.++++#$&.&..........................#$+++@.++@",
".++@.+++++#$.&..........................#$+++@.++@",
".++@.++++++#$############################$+++@.++@",
".++@.+++++++#$$$$$$$$$$$$$$$$$$$$$$$$$$$$$+++@.++@",
".++@.++++++++++++++++++++++++++++++++++++++++@.++@",
".++@.@@@@@@@@@@@@@@@@@@@@@@@@@@@@@@@@@@@@@@@@@.++@",
".+++...........................................++@",
".++++++++++++++++++++++++++++++++++++++++++++++++@",
".++++++++++++++++++++++++++++++++++++++++++++++++@",
"@@@@@@@@@@@@@@@@@@@@@@@@@@@@@@@@@@@@@@@@@@@@@@@@@@"};
