/* XPM */
static char * go_down_xpm[] = {
"16 16 6 1",
" 	c none",
".	c #FFFFFFFFFFFF",
"X	c #A2A2A2A2A2A2",
"o	c #000000000000",
"O	c #595959595959",
"+	c #808080808080",
"       +++++    ",
"      OOOOO+    ",
"     .ooooO+    ",
"     .XXXoO+    ",
"     .XXXoO+    ",
"     .XXXoO+    ",
"     .XXXoO+    ",
"     .XXXoO+    ",
"    +.XXXoO++++ ",
"   OO.XXXoOOOO  ",
"  .oooXXXoooo   ",
"   .XXXXXXXo    ",
"    .XXXXXo     ",
"     .XXXo      ",
"      .Xo       ",
"       .        "};
