/* XPM */
static char *xfglob_icon_xpm[] = {
/* columns rows colors chars-per-pixel */
"48 38 31 1",
"  c Gray0",
". c #222222",
"X c #282828",
"o c Gray20",
"O c Gray22",
"+ c #444444",
"@ c #484048",
"# c #4c4c4c",
"$ c #555555",
"% c #525a5a",
"& c #595759",
"* c #5f5f5f",
"= c #616561",
"- c #67636f",
"; c #666671",
": c #767676",
"> c Gray49",
", c #707080",
"< c #ce7352",
"1 c #847b84",
"2 c #868686",
"3 c #8e8e8e",
"4 c Gray60",
"5 c Gray64",
"6 c Gray68",
"7 c #bdbabd",
"8 c #c3c3c3",
"9 c #cecece",
"0 c #d3d3d3",
"q c #ececec",
"w c none",
/* pixels */
"wwwwwwwwwwwwwww66666666wwwwwwwwwwwwwwwwwwwwwwwww",
"wwwwwwwwwwwww666666666666wwwwwwwwwwwwwwwwwwwwwww",
"wwwwwwwwwwww6663:*$$$*6666wwwwwwwwwwwwwwwwwwwwww",
"wwwwwwwwwww663=@Ooooooo#666wwwwwwwwwwwwwwwwwwwww",
"wwwwwwwwww663@Xo+$;:-=+oX$666wwwwwwwwwwwwwwwwwww",
"wwwwwwwww663X.#=>244653:+.O666wwwwwwwwwwwwwwwwww",
"wwwwwwww664X.-:3798767776=.o666wwwwwwwwwwwwwwwww",
"wwwwwwww65+.,*7qqq083333562 O66wwwwwwwwwwwwwwwww",
"wwwwwww66:.+;40qqq832222234$.$66wwwwwwwwwwwwwwww",
"wwwwwww66#.;18qq082:::::::23.o>66wwwwwwwwwwwwwww",
"wwwwww662o+;590q95:;;;;;;;24o.-66wwwwwwwwwwwwwww",
"wwwwww66:X$:500082;:::::::>4$.#66wwwwwwwwwwwwwww",
"wwwwww66=.$,100q72::22222225:.@66wwwwwwwwwwwwwww",
"wwwwww66;.$::8q095>2555555562.O66wwwwwwwwwwwwwww",
"wwwwww66;.#;:800q73666677677:.+66wwwwwwwwwwwwwww",
"wwwwww66:X+=;70qq08678888987+X+66wwwwwwwwwwwwwww",
"wwwwwww6>+.=;30qqqq999998907.X66wwwwwwwwwwwwwwww",
"wwwwwww66=.@:28qqq099999907,.o66wwwwwwwwwwwwwwww",
"wwwwwwww6>X.:16000999999005o.+66wwwwwwwwwwwwwwww",
"wwwwwwww66=.O3699999999096# +$66wwwwwwwwwwwwwwww",
"wwwwwwwww66#.=47999909075$ .$$26wwwwwwwwwwwwwwww",
"wwwwwwwww666+.+26678866:o. o,;>46wwwwwwwwwwwwwww",
"wwwwwwwwww666+  o*:3:#o.X++.53;266wwwwwwwwwwwwww",
"wwwwwwwwwww666-      oo#$%&+ 6;#177wwwwwwwwwwwww",
"wwwwwwwwwwwww666$$$%@#$;;;:; *@54<77wwwwwwwwwwww",
"wwwwwwwwwwwwww66666666666>:;&.o<66:77wwwwwwwwwww",
"wwwwwwwwwwwwwwwww66666wwww2::#.@<65<88wwwwwwwwww",
"wwwwwwwwwwwwwwwwwwwwwwwwwww2::+X@<64>78wwwwwwwww",
"wwwwwwwwwwwwwwwwwwwwwwwwwwww22:+X@<7<477wwwwwwww",
"wwwwwwwwwwwwwwwwwwwwwwwwwwwww2>1#.o<0<478wwwwwww",
"wwwwwwwwwwwwwwwwwwwwwwwwwwwwww2>:#.@<0<278wwwwww",
"wwwwwwwwwwwwwwwwwwwwwwwwwwwwwww311& o<<o=88wwwww",
"wwwwwwwwwwwwwwwwwwwwwwwwwwwwwwww42:* O..=88wwwww",
"wwwwwwwwwwwwwwwwwwwwwwwwwwwwwwwww42>*. O288wwwww",
"wwwwwwwwwwwwwwwwwwwwwwwwwwwwwwwwww42>#*:588wwwww",
"wwwwwwwwwwwwwwwwwwwwwwwwwwwwwwwwwwww3>23679wwwww",
"wwwwwwwwwwwwwwwwwwwwwwwwwwwwwwwwwwwwwwwwwwwwwwww",
"wwwwwwwwwwwwwwwwwwwwwwwwwwwwwwwwwwwwwwwwwwwwwwww"
};
