/* XPM */
static char *dir_close_xpm[] = {
/* width height num_colors chars_per_pixel */
"    16    16        5            1",
/* colors */
". c none",
"# c #ffe79c",
"a c #c6864a",
"b c #ffc78c",
"c c #000000",
/* pixels */
"................",
"................",
"....###a........",
"...b#bbba.......",
"..bbbbbbbbbbbb..",
".bb###########c.",
".b#bbbbbbbbbbac.",
".b#bbbbbbbbbbac.",
".b#bbbbbbbbbbac.",
".b#bbbbbbbbbbac.",
".b#bbbbbbbbbbac.",
".b#bbbbbbbbbbac.",
".b#aaaaaaaaaaac.",
"..ccccccccccccc.",
"................",
"................"
};
