/* XPM */
static char * download_xpm[] = {
/* width height num_colors chars_per_pixel */
"16 16 7 1",
/* colors */
" 	c None",
".	c #800000",
"X	c red",
"o	c black",
"O	c white",
"+	c darkgray",
"@	c grey50",
/* pixels */
"      ....      ",
"      .XX.      ",
"      .XX.      ",
"      .XX.      ",
"    ...XX...    ",
"     .XXXX.     ",
"      .XX.      ",
"       ..       ",
" oooooooooooooo ",
"oOOOOOOOOOOOO@@o",
"oO+++++++++XX@@o",
"oO+++++++++++@@o",
"oOoooooooooo+@@o",
"oOOOOOOOOOOO+@@o",
"o+@@@@@@@@@@@@o@",
" ooooooooooooo@ "};
