/* XPM */
static char * go_back_xpm[] = {
"16 16 7 1",
" 	c None",
".	c #E108F9",
"+	c #808080",
"@	c #595959",
"#	c #FFFFFF",
"$	c #000000",
"%	c #A2A2A2",
"                ",
"                ",
"      #         ",
"     $#         ",
"    $%#         ",
"   $%%######### ",
"  $%%%%%%%%%%%# ",
"@$%%%%%%%%%%%%# ",
"+@$%%%%%%%%%%%# ",
" +@$%%$$$$$$$$# ",
"  +@$%#@@@@@@@  ",
"   +@$#++++++   ",
"    +@#         ",
"     +@         ",
"      +         ",
"                "};
