/* XPM */
static char * ip_xpm[] = {
"16 16 3 1",
" 	c None",
".	c #AAAAAA",
"+	c #000000",
"                ",
"                ",
"                ",
"                ",
"....... ........",
".+++++. .++++++.",
"...+... .+....+.",
"  .+.   .+....+.",
"  .+.   .++++++.",
"  .+.   .+......",
"...+... .+.     ",
".+++++. .+.     ",
"....... ...     ",
"                ",
"                ",
"                "};
