/* XPM */
static char * new_dir_xpm[] = {
"16 16 7 1",
" 	c none",
".	c #FFFFFFFF0000",
"X	c #FFFFFFFFFFFF",
"o	c #A2A2A2A2A2A2",
"O	c #595959595959",
"+	c #000000000000",
"@	c #808080808080",
"   .            ",
"  ...           ",
" ..X..oO        ",
"..XXX..oO       ",
" ..X..ooooooo   ",
" o...XXXXXXXX+  ",
" oX.ooooooooO+O ",
" oXoooooooooO+O@",
" oXoooooooooO+O@",
" oXoooooooooO+O@",
" oXoooooooooO+O@",
" oXoooooooooO+O@",
" oXOOOOOOOOOO+O@",
"  ++++++++++++O@",
"   OOOOOOOOOOOO@",
"    @@@@@@@@@@@@"};
