/* XPM */
static char * print_xpm[] = {
"16 16 6 1",
" 	c None",
".	c black",
"X	c white",
"o	c gray",
"O	c grey50",
"+	c red",
"   .........    ",
"   .XXXXXXX.    ",
"   .XXXXXXX.O   ",
"   .X...XXX.O   ",
"   .XXXXXXX.O   ",
"   .X.....X.O   ",
"   .XXXXXXX.O   ",
"............... ",
".XXXXXXXXXXXXO. ",
".X++oooooooooO.O",
".XoooooooooooO.O",
".XoooooooooooO.O",
"...............O",
" .ooooooooooo.OO",
" .............O ",
"   OOOOOOOOOOOO "};
