/* XPM */
static char * rpage_xpm[] = {
"16 16 5 1",
" 	s None	c None",
".	c black",
"X	c white",
"o	c #808080",
"x	c #ff0000",
"                ",
"  ........      ",
"  .XXXXX.o.     ",
"  .XXXXX.Xo.    ",
"  .XXXXX.XXo.   ",
"  .XXXXX.....o  ",
"  .XXXXXXooo.o  ",
"  .XXXXxxxxx.o  ",
"  .XXXXxxXXx.o  ",
"  .XXXXxxXxx.o  ",
"  .XXXXxxxxX.o  ",
"  .XXXXxxXxx.o  ",
"  .XXXXxxXXx.o  ",
"  ...........o  ",
"   ooooooooooo  ",
"                "};
