/* XPM */
static char * stop_xpm[] = {
"16 16 6 1",
" 	c none",
".	c #FFFF00000000",
"X	c #666600000000",
"o	c #FFFF88888888",
"O	c #FFFFFFFFFFFF",
"+	c #AAAA00000000",
"    o......+    ",
"   o........+   ",
"  o..........+  ",
" o............+ ",
"o..............+",
".OO.OOO.OOO.OOO.",
".O...O..O.O.O.O.",
".OO..O..O.O.OOO.",
"..O..O..O.O.O...",
".OO..O..OOO.O...",
"+..............X",
" +............XX",
"  +..........XX ",
"   +........XX  ",
"    +......XX   ",
"     XXXXXXX    "};
