/* XPM */
static char * tar_xpm[] = {
"16 16 5 1",
" 	s None	c None",
".	c black",
"X	c white",
"o	c #808080",
"+	c #ff0000",
"                ",
"                ",
"+     .....     ",
"++    .XX.o.    ",
"+++   .XX.Xo.   ",
"++++  .XX.XXo.  ",
"+++++ .XX.....o ",
"++++++.XXXooo.o ",
"+++++ .XXXXXX.o ",
"++++  .XXXXXX.o ",
"+++   .XXXXXX.o ",
"++    ........o ",
"+       ooooooo ",
"                ",
"                ",
"                "};
