/* XPM */
static char * view1_xpm[] = {
"16 16 6 1",
" 	s None	c None",
".	c black",
"X	c white",
"o	c #808080",
"+	c #0000ff",
"O	c #aaaaaa",
"                ",
" .............. ",
" .++++++++++++.o",
" .++OOOOOOOOO+.o",
" .++OOOOOOOOO+.o",
" .++OOOOOOOOO+.o",
" .++OOOOOOOOO+.o",
" .++OOOOOOOOO+.o",
" .++OOOOOOOOO+.o",
" .++OOOOOOOOO+.o",
" .++OOOOOOOOO+.o",
" .++OOOOOOOOO+.o",
" .++++++++++++.o",
" ..............o",
"  oooooooooooooo",
"                "};
