/* XPM */
static char * wg2_xpm[] = {
"16 16 9 1",
" 	c None",
".	c #FFFFFF",
"+	c #949494",
"@	c #CCBB00",
"#	c #775500",
"$	c #5A6363",
"%	c #997700",
"&	c #AA9900",
"*	c #000000",
"                ",
"    +++$$$***** ",
"    +&&&&%%%##* ",
"    +&&&&%%%##* ",
"    +&&&%%%%##* ",
" ++++$$$****##* ",
" +@@@@&&&%%*##* ",
" +@@@@&&&%%*##* ",
" +@@@&&&&%%**** ",
" $&&&&&%%%%*$   ",
" $%%%%%%%%%**** ",
" $%%%%%%%%%**** ",
" ***********    ",
"    $$$$$$      ",
" $$$$$******    ",
" ***********    "};
