/* XPM */
static char * xfdiff_xpm[] = {
"60 48 383 2",
"  	c None",
". 	c #EFF2EF",
"+ 	c #E5E7E5",
"@ 	c #E0E3E0",
"# 	c #D4D5D4",
"$ 	c #C3C3C3",
"% 	c #AFAFAF",
"& 	c #BABABA",
"* 	c #A6A6A6",
"= 	c #C5C5C5",
"- 	c #1C1756",
"; 	c #1C1754",
"> 	c #1C1753",
", 	c #1B1652",
"' 	c #1B1651",
") 	c #1A164F",
"! 	c #1A154E",
"~ 	c #1A154D",
"{ 	c #19154C",
"] 	c #19144A",
"^ 	c #181449",
"/ 	c #181448",
"( 	c #181347",
"_ 	c #171345",
": 	c #171344",
"< 	c #161243",
"[ 	c #161242",
"} 	c #151241",
"| 	c #15113F",
"1 	c #15113E",
"2 	c #14113D",
"3 	c #14103C",
"4 	c #13103A",
"5 	c #131039",
"6 	c #130F38",
"7 	c #120F37",
"8 	c #120F35",
"9 	c #110E34",
"0 	c #110E33",
"a 	c #100E32",
"b 	c #100D30",
"c 	c #100D2F",
"d 	c #0F0C2E",
"e 	c #0F0C2D",
"f 	c #0E0C2C",
"g 	c #0E0B2A",
"h 	c #0E0B29",
"i 	c #0D0B28",
"j 	c #0D0A27",
"k 	c #0C0A25",
"l 	c #0C0A24",
"m 	c #0B0923",
"n 	c #0B0922",
"o 	c #0B0920",
"p 	c #0A081F",
"q 	c #0A081E",
"r 	c #1C1755",
"s 	c #1B1752",
"t 	c #1B1650",
"u 	c #1A164E",
"v 	c #19144B",
"w 	c #18144A",
"x 	c #171346",
"y 	c #161241",
"z 	c #151140",
"A 	c #13103B",
"B 	c #120F36",
"C 	c #110E35",
"D 	c #110E32",
"E 	c #100D31",
"F 	c #0F0D2E",
"G 	c #0E0C2B",
"H 	c #0D0B27",
"I 	c #0C0A26",
"J 	c #0C0923",
"K 	c #0B0921",
"L 	c #0A0820",
"M 	c #09081D",
"N 	c #6C6C74",
"O 	c #6F6F75",
"P 	c #6D6D73",
"Q 	c #6B6B72",
"R 	c #6A6A70",
"S 	c #68686E",
"T 	c #66666C",
"U 	c #64646B",
"V 	c #636369",
"W 	c #616167",
"X 	c #5F5F65",
"Y 	c #5D5D64",
"Z 	c #65656A",
"` 	c #55555B",
" .	c #515157",
"..	c #56565C",
"+.	c #55555A",
"@.	c #535358",
"#.	c #515156",
"$.	c #505055",
"%.	c #4F4F53",
"&.	c #4D4D51",
"*.	c #4B4B4F",
"=.	c #49494D",
"-.	c #48484B",
";.	c #464649",
">.	c #3A3A3E",
",.	c #0D0B29",
"'.	c #0D0A26",
").	c #0A0920",
"!.	c #0A081D",
"~.	c #09081C",
"{.	c #19154B",
"].	c #959595",
"^.	c #AAAAAA",
"/.	c #DEDEDE",
"(.	c #64646A",
"_.	c #4D4D50",
":.	c #09071B",
"<.	c #FFFFFF",
"[.	c #F3F3F3",
"}.	c #636368",
"|.	c #4B4B4E",
"1.	c #09071C",
"2.	c #09071A",
"3.	c #A0A0A0",
"4.	c #E6E4E6",
"5.	c #D0D1D0",
"6.	c #C2C2C2",
"7.	c #D7D5D7",
"8.	c #FAFAFA",
"9.	c #E1DFE1",
"0.	c #616166",
"a.	c #0C0A23",
"b.	c #08071A",
"c.	c #A3A2A3",
"d.	c #ECEBEC",
"e.	c #DBDCDB",
"f.	c #D1D1D1",
"g.	c #FBFBFB",
"h.	c #E8E7E8",
"i.	c #5F5F64",
"j.	c #47474B",
"k.	c #080719",
"l.	c #5D5D63",
"m.	c #080618",
"n.	c #E4E3E4",
"o.	c #888888",
"p.	c #C1C2C1",
"q.	c #828582",
"r.	c #717571",
"s.	c #EAEBEA",
"t.	c #606360",
"u.	c #A9ABA9",
"v.	c #DCDADC",
"w.	c #5C5C61",
"x.	c #444447",
"y.	c #070617",
"z.	c #181447",
"A.	c #5B5B5F",
"B.	c #424245",
"C.	c #070616",
"D.	c #A89C9C",
"E.	c #F7C6C5",
"F.	c #F1E5E5",
"G.	c #59595D",
"H.	c #F1D8D8",
"I.	c #EBEAEB",
"J.	c #F4CFCF",
"K.	c #ECE5E6",
"L.	c #F2D4D3",
"M.	c #F5F4F5",
"N.	c #404043",
"O.	c #070615",
"P.	c #A27270",
"Q.	c #DF1C18",
"R.	c #EBBAB9",
"S.	c #57575C",
"T.	c #D04847",
"U.	c #C07576",
"V.	c #D7322F",
"W.	c #C46A6A",
"X.	c #D43D3B",
"Y.	c #E0BABA",
"Z.	c #3F3F41",
"`.	c #060514",
" +	c #A68E8D",
".+	c #EF8D8B",
"++	c #EFD7D6",
"@+	c #555559",
"#+	c #E96360",
"$+	c #EF8E8C",
"%+	c #3D3D40",
"&+	c #070515",
"*+	c #060513",
"=+	c #545457",
"-+	c #FADFDF",
";+	c #F9D4D4",
">+	c #3C3C3E",
",+	c #080617",
"'+	c #060512",
")+	c #171347",
"!+	c #D3D4D3",
"~+	c #7D807D",
"{+	c #5ABC5D",
"]+	c #679069",
"^+	c #717471",
"/+	c #6C826D",
"(+	c #55CA59",
"_+	c #5EAD61",
":+	c #BCF6BE",
"<+	c #525255",
"[+	c #444448",
"}+	c #3A3A3C",
"|+	c #5A5A5F",
"1+	c #76A378",
"2+	c #26DC2D",
"3+	c #18CE1F",
"4+	c #12D81A",
"5+	c #15D11C",
"6+	c #16CC1D",
"7+	c #15CE1C",
"8+	c #12DA19",
"9+	c #13D51B",
"0+	c #23E22A",
"a+	c #BFECC0",
"b+	c #505054",
"c+	c #424246",
"d+	c #39393A",
"e+	c #070514",
"f+	c #050411",
"g+	c #161344",
"h+	c #58585D",
"i+	c #F9F8F9",
"j+	c #F6F6F6",
"k+	c #FCFCFC",
"l+	c #4E4E52",
"m+	c #414144",
"n+	c #373739",
"o+	c #050410",
"p+	c #151240",
"q+	c #D9D7D9",
"r+	c #C2BFC2",
"s+	c #CAC7CA",
"t+	c #F0EFF0",
"u+	c #3F3F42",
"v+	c #353537",
"w+	c #060411",
"x+	c #05040F",
"y+	c #3D3D41",
"z+	c #333335",
"A+	c #04040E",
"B+	c #C4C5C4",
"C+	c #B0B2B0",
"D+	c #EBECEB",
"E+	c #E9E8E9",
"F+	c #3B3B3F",
"G+	c #323233",
"H+	c #05040E",
"I+	c #04030D",
"J+	c #14113E",
"K+	c #F4F3F4",
"L+	c #F0F1F0",
"M+	c #D2D2D2",
"N+	c #EBEBEB",
"O+	c #3A3A3D",
"P+	c #303031",
"Q+	c #04030C",
"R+	c #14103B",
"S+	c #38383B",
"T+	c #2E2E2F",
"U+	c #04030E",
"V+	c #03030B",
"W+	c #939FDC",
"X+	c #8B95C1",
"Y+	c #798EE6",
"Z+	c #969AA8",
"`+	c #6E8AFF",
" @	c #697ED5",
".@	c #727472",
"+@	c #8593CE",
"@@	c #616D97",
"#@	c #C9CAC9",
"$@	c #363639",
"%@	c #868DAA",
"&@	c #C9D3FF",
"*@	c #2C2C2D",
"=@	c #03030A",
"-@	c #CFD6F3",
";@	c #343437",
">@	c #2B2B2B",
",@	c #03020A",
"'@	c #F7F7F7",
")@	c #DDDDDD",
"!@	c #E1E0E1",
"~@	c #D6D7D6",
"{@	c #F9F9F9",
"]@	c #EDECED",
"^@	c #F5F5F5",
"/@	c #DFDFDF",
"(@	c #E1E1E1",
"_@	c #E7E7E7",
":@	c #29292A",
"<@	c #030209",
"[@	c #B3B2B3",
"}@	c #999B99",
"|@	c #F0F0F0",
"1@	c #D3D1D3",
"2@	c #E6E7E6",
"3@	c #AEAFAE",
"4@	c #B4B4B4",
"5@	c #909290",
"6@	c #D5D6D5",
"7@	c #313133",
"8@	c #272728",
"9@	c #020208",
"0@	c #303032",
"a@	c #252526",
"b@	c #020207",
"c@	c #130F39",
"d@	c #DADBDA",
"e@	c #B5B7B5",
"f@	c #C6C4C6",
"g@	c #E6E6E6",
"h@	c #2E2E30",
"i@	c #242424",
"j@	c #020106",
"k@	c #120F38",
"l@	c #A7A7A7",
"m@	c #D5D5D5",
"n@	c #E4E5E4",
"o@	c #DCDCDC",
"p@	c #EEEEEE",
"q@	c #D8D7D8",
"r@	c #2C2C2E",
"s@	c #222223",
"t@	c #010105",
"u@	c #39393D",
"v@	c #222224",
"w@	c #1E1E20",
"x@	c #060607",
"y@	c #010104",
"z@	c #0F0D2F",
"A@	c #0F0C2C",
"B@	c #010103",
"C@	c #120E35",
"D@	c #010003",
"E@	c #04030B",
"F@	c #020107",
"G@	c #000002",
"H@	c #B1B1B1",
"I@	c #CFD0CF",
"J@	c #818181",
"K@	c #828282",
"L@	c #838383",
"M@	c #8B8B8B",
"N@	c #878787",
"O@	c #808080",
"P@	c #727272",
"Q@	c #DFE1DF",
"R@	c #ABABAB",
"S@	c #BBBBBB",
"T@	c #97D594",
"U@	c #ADCCAB",
"V@	c #A2A2A2",
"W@	c #616161",
"X@	c #AEAEAE",
"Y@	c #9E9E9E",
"Z@	c #BCBCBC",
"`@	c #9CD39A",
" #	c #B0CBAE",
".#	c #C2C3C2",
"+#	c #9C9C9C",
"@#	c #AFB1AF",
"##	c #898A89",
"$#	c #7E7E7E",
"%#	c #FBFFFB",
"&#	c #F2F5F2",
"*#	c #E8EBE8",
"=#	c #E9ECE9",
"-#	c #E0E2E0",
";#	c #CED0CE",
">#	c #929292",
",#	c #B4B5B4",
"'#	c #757575",
"      . + + + + + + + + + + + + + + + + + + + + + + + + + + + + + + + + + + + + + + + + + + + + + + + + + + + @         ",
"      # $ $ $ $ $ $ $ $ $ $ $ $ $ $ $ $ $ $ $ $ $ $ $ $ $ $ $ $ $ $ $ $ $ $ $ $ $ $ $ $ $ $ $ $ $ $ $ $ $ $ $ %         ",
"      # $ & * * * * * * * * * * * * * * * * * * * * * * * * * * * * * * * * * * * * * * * * * * * * * * * = $ %         ",
"      # $ * - ; > , ' ) ! ~ { ] ^ / ( _ : < [ } | 1 2 3 4 5 6 7 8 9 0 a b c d e f g h i j k l m n o p q $ # $ %         ",
"      # $ * r > s ' t u ~ { v w / ( x _ < [ y z 1 2 3 A 5 6 7 B C 0 D E b F e f G h i H I l J n K L q M $ # $ %         ",
"      # $ * ; s ' t ) ! { N O P Q R S T U V W X Y Z `  ...+.@.#.$.%.&.*.=.-.;.&.>.,.H '.k l n K ).p !.~.$ # $ %         ",
"      # $ * > , t ) ! ~ {.O ].^.^.^.^.^.^.^.^.^.^./.(...].^.^.^.^.^.^.^.^.^.^./._.i '.k l m K o p q M :.$ # $ %         ",
"      # $ * s ' ) ! ~ { v P ^.<.<.<.<.<.<.<.<.<.<.[.}.+.^.<.<.<.<.<.<.<.<.<.<.[.|.j I l m n K p q M 1.2.$ # $ %         ",
"      # $ * ' t ) ~ { {.] Q 3.4.5.6.7.8.8.9.<.<.<.[.0.@.3.4.5.6.7.8.8.9.<.<.<.[.=.I k a.n K L q !.1.:.b.$ # $ %         ",
"      # $ * t ) ! { {.] ^ R c.d.e.f.9.g.g.h.<.<.<.[.i.#.c.d.e.f.9.g.g.h.<.<.<.[.j.k l m K ).p q ~.:.b.k.$ # $ %         ",
"      # $ * ) ! ~ { ] ^ / S ^.<.<.<.<.<.<.<.<.<.<.[.l.$.^.<.<.<.<.<.<.<.<.<.<.[.;.l m n o p q M :.2.k.m.$ # $ %         ",
"      # $ * u ~ { v ^ / ( T ^.n.o.p.q.r.s.t.u.v.n.[.w.%.^.n.o.p.q.r.s.t.u.v.n.[.x.J n K L q M 1.:.k.m.y.$ # $ %         ",
"      # $ * ! { {.] ^ z.x U ^.<.<.<.<.<.<.<.<.<.<.[.A.&.^.<.<.<.<.<.<.<.<.<.<.[.B.n K ).p !.1.:.b.m.y.C.$ # $ %         ",
"      # $ * ~ {.] ^ / x _ V D.E.E.E.E.E.E.E.E.E.E.F.G.*.D.E.H.I.J.E.K.E.L.M.<.[.N.K o p q M :.b.k.m.C.O.$ # $ %         ",
"      # $ * { v ^ / ( x : W P.Q.Q.Q.Q.Q.Q.Q.Q.Q.Q.R.S.=.P.Q.T.U.V.Q.W.Q.X.Y.<.[.Z.K p q M 1.2.k.m.y.O.`.$ # $ %         ",
"      # $ * {.] / z.x _ < X  +.+.+.+.+.+.+.+.+.+.+++@+-. +.+.+.+.+.+.+.+#+$+<.[.%+L q !.1.:.b.m.y.C.&+*+$ # $ %         ",
"      # $ * ] ^ / x _ : < Y ^.<.<.<.<.<.<.<.<.<.<.[.=+;.^.<.<.<.<.<.<.<.-+;+<.[.>+p q ~.:.b.k.,+C.&+`.'+$ # $ %         ",
"      # $ * ^ / )+_ : < [ w.^.!+~+{+]+^+/+(+^+_+:+[.<+[+^.!+~+{+]+^+/+(+^+_+:+[.}+q M :.2.k.m.C.O.`.*+'+$ # $ %         ",
"      # $ * / ( x _ < [ y |+1+2+3+4+5+6+7+8+6+9+0+a+b+c+1+2+3+4+5+6+7+8+6+9+0+a+d+M 1.:.k.m.y.C.e+*+'+f+$ # $ %         ",
"      # $ * z.x _ g+[ y z h+^.<.<.i+M.M.j+k+M.M.g.[.l+m+^.<.<.i+M.M.j+k+M.M.g.[.n+1.:.b.m.y.C.&+*+'+f+o+$ # $ %         ",
"      # $ * x _ : < [ p+| ..^.<.<.q+r+r+s+t+r+r+h.[._.u+^.<.<.q+r+r+s+t+r+r+h.[.v+:.b.k.m.C.O.`.*+w+o+x+$ # $ %         ",
"      # $ * x : < [ } | 1 +.^.<.<.<.<.<.<.<.<.<.<.[.|.y+^.<.<.<.<.<.<.<.<.<.<.[.z+2.k.m.y.O.`.*+'+o+x+A+$ # $ %         ",
"      # $ * _ < [ y z | 2 @.^.t+7.t+B+C+v.D+C+$ 7.E+=.F+^.t+7.t+B+C+v.D+C+$ 7.E+G+k.m.y.C.&+*+'+f+o+H+I+$ # $ %         ",
"      # $ * : < y p+| J+3 #.^.K+9.K+!+B+n.L+B+M+9.N+j.O+^.K+9.K+!+B+n.L+B+M+9.N+P+k.,+C.&+`.'+f+o+x+I+Q+$ # $ %         ",
"      # $ * < [ p+| 1 2 R+$.^.<.<.<.<.<.<.<.<.<.<.[.;.S+^.<.<.<.<.<.<.<.<.<.<.[.T+m.C.O.`.*+'+o+x+U+I+V+$ # $ %         ",
"      # $ * [ y z 1 2 3 A %.^.n.W+X+Y+Z+`+ @.@+@@@#@x.$@%@`+`+`+`+`+`+`+`+`+&@[.*@y.C.e+*+'+f+x+A+I+Q+=@$ # $ %         ",
"      # $ * y z | 2 3 R+4 &.^.&@`+`+`+`+`+`+`+`+`+-@B.;@%@`+`+`+`+`+`+`+`+`+&@[.>@C.&+*+'+f+o+x+I+Q+V+,@$ # $ %         ",
"      # $ * p+| 1 2 R+4 5 *.^.'@)@!@~@{@]@^@/@(@!+_@N.z+^.'@)@!@~@{@]@^@/@(@!+_@:@O.`.*+w+o+x+U+Q+V+,@<@$ # $ %         ",
"      # $ * | 1 2 3 4 5 6 =.^.d.^.[@}@|@1@2@3@4@5@6@Z.7@^.d.^.[@}@|@1@2@3@4@5@6@8@`.*+'+o+x+A+I+Q+=@<@9@$ # $ %         ",
"      # $ * 1 2 3 A 4 6 7 -.^.<.<.<.<.<.<.<.<.<.<.[.%+0@^.<.<.<.<.<.<.<.<.<.<.[.a@*+'+f+o+H+I+Q+V+<@9@b@$ # $ %         ",
"      # $ * J+3 R+4 c@7 B ;.^.d.4@d@e@f@[.e@d.4@& g@>+h@^.d.4@d@e@f@[.e@d.4@& g@i@'+f+o+x+I+Q+V+,@<@b@j@$ # $ %         ",
"      # $ * 2 R+4 5 k@7 8 [+l@N+m@n@6@o@p@6@N+m@q@N+}+r@l@N+m@n@6@o@p@6@N+m@q@N+s@'+o+x+U+I+V+,@<@9@j@t@$ # $ %         ",
"      # $ * 3 A 5 6 7 B 9 u@x.|.=.j.;.x.B.N.Z.%+>+}+v@w@r@z+G+P+T+*@>@:@8@a@i@s@x@f+x+A+I+Q+=@<@9@b@j@y@$ # $ %         ",
"      # $ * R+4 6 7 B C 9 D E b z@e A@G g i H I k a.n K ).p !.1.:.b.m.y.C.&+*+'+f+o+H+I+Q+V+,@9@b@j@t@B@$ # $ %         ",
"      # $ * 4 c@k@B C@9 0 E b z@d A@G g ,.i '.k l m K o p q ~.:.b.k.,+C.O.`.*+w+o+x+U+Q+V+,@<@b@j@t@y@D@$ # $ %         ",
"      # $ * 5 6 7 8 9 0 a E c d e f g h i j k l m n o p q M 1.2.k.m.y.O.`.*+'+o+x+A+I+E@=@<@9@F@t@y@D@G@$ # $ %         ",
"      # $ H@# # # # # # # # # # # # # # # # # # # # # # # # # # # # # # # # # # # # # # # # # # # # # # # I@$ %         ",
"      # $ $ $ $ $ $ $ $ $ $ $ $ $ $ $ $ $ $ $ $ $ $ $ $ $ $ $ $ $ $ $ $ $ $ $ $ $ $ $ $ $ $ $ $ $ $ $ $ $ $ $ %         ",
"      # $ $ $ $ $ $ $ $ $ $ $ $ $ $ $ $ $ $ $ $ $ $ $ $ $ $ $ $ $ $ $ $ $ $ $ $ $ $ $ $ $ $ $ $ $ $ $ $ $ $ $ %         ",
"      J@K@K@L@M@o.o.o.o.o.o.o.o.o.o.o.o.o.o.o.o.o.o.o.o.o.o.o.o.o.o.o.o.o.o.o.o.o.o.o.o.o.o.o.o.o.o.o.N@O@K@K@P@        ",
"              Q@5.# # # R@# # # p.S@$ $ $ $ $ $ $ $ $ $ $ $ $ $ $ $ $ $ $ $ $ $ $ $ $ $ $ T@U@e.# # # V@W@              ",
"              Q@I@* * * X@#@* * Y@Z@$ $ $ $ $ $ $ $ $ $ $ $ $ $ $ $ $ $ $ $ $ $ $ $ $ $ $ `@ #.#* * * +#W@              ",
"              @#K@K@K@K@K@K@K@K@K@K@K@K@##o.o.o.o.o.o.o.o.o.o.o.o.o.o.o.o.o.o.O@K@K@K@K@K@K@K@K@K@K@K@$#                ",
"                                        %#$ $ $ $ $ $ $ $ $ $ $ $ $ $ $ $ $ $ W@                                        ",
"                                &#*#*#*#=#+ + + + + + + + + + + + + + + + + + -#*#*#*#;#                                ",
"                                Q@$ $ $ $ $ $ $ $ $ $ $ $ $ $ $ $ $ $ $ $ $ $ $ $ $ $ >#                                ",
"                                Q@$ $ $ $ $ $ $ $ $ $ $ $ $ $ $ $ $ $ $ $ $ $ $ $ $ $ >#                                ",
"                                ,#o.o.o.o.o.o.o.o.o.o.o.o.o.o.o.o.o.o.o.o.o.o.o.o.o.o.'#                                "};
