/* XPM */
static char * Aluminium_xpm[] = {
"100 100 22 1",
" 	c None",
".	c #B2A29C",
"+	c #BAB2A4",
"@	c #B6AA9C",
"#	c #C2BAB4",
"$	c #C2B2AC",
"%	c #BEAEAC",
"&	c #B6AEA4",
"*	c #B2A69C",
"=	c #BEB6AC",
"-	c #B6A69C",
";	c #BEB2AC",
">	c #BAAAA4",
",	c #C2B6AC",
"'	c #BAAEA4",
")	c #BAB2AC",
"!	c #B6AAA4",
"~	c #C6BAB4",
"{	c #B2A6A4",
"]	c #B6A6A4",
"^	c #C2B6B4",
"/	c #BAAEAC",
";;;;;;;;;;;;;;;;;;;;;;;;;;;;;;;;;;;;;;;;)'/'/'/'/!!-]******...*********{-]!!!!!!!!!!>''''''''/'/'/;;",
"/+;;;;;;;;;;;;;;;;;;;;;;;;;;;;;;;;''''''%;;;')'/']*!*]-{...***......{-]-{@*--!@!!>>'&!>'/'/'/'';;;''",
"%/+);;============;;;;;+)+''''''';;;)%'/'''/'''!!!*{*{.*{*........*.****{*{!*]!@!!!!>&!!!>/''/''';;;",
";;;;;=;;;;$$$;$;;;==;;;;;;;;;;;;;;/'%+;+'/'''/>'!]!@]*-*..*....***.*..***{@*]@]!@!!>&>''/'>'/+//)'/)",
";;;=;;,,,===,=,$$$;==;;;;;;;;;;;';;+/'//'/%''&!'!]]*]{.**.*.**......{.*.-{{@{@]]!@!!!>''&'/'/''%%+%;",
";;=;;,;;;;;;;;;===;;;=;;;;;;;;;;;;'%;;++)'+/&/'!@!@!***{.*.*.....*.*.{.{**-{*{!@!!!>/&>&>/''%;)++;;;",
";;;=;=^^^^^^,^==;,,;;,;;;;+)++';';+//%%''/'>>!'!]{*]]].{.*.........*.**..**]-*!{]!!!>&>/!>'''%%/+;+;",
"=$=$=$========$$^=;==;$;;;;;;;;;;;%;;+'%%'//&'!'@!!******.*..***.*..*..*{*{@!!*!@!!!!>&'''/&''+;%);;",
";$=^=$$,,,^^,^^=$,,$====;;;;;;';';''%)'+/''/>>!!!]!]{*..{.**........****{-***!@!!!!!!>!/''//'/'+%;;;",
"====^=^^^^,,^==,^=;=;;$;=;;;;;;;;);;+%)/''/'&&>!@!*@-{{{.*.....*.*.....*.*{{]]]!@!>'/&'&!/'');;;;;==",
";$$=^=,,,=^,##^=^^^,,=;;$;;;+;';%''%'''//'/>>&&!]!{{****.*.......*.***.***-**!-]!@!!>>>/''/'')%+;;;=",
"^==^,#,^#^,^,,,^,,===;,==;;;;;;;;;;+)%/''''//>>!@]!@]****.****.*..*...**.-{@!*!!!!!!!&/''';%)');%;$$",
"^^,#,^#,###^^^,^^^^^^=;;=;;;);';;'%%+;%%/''&&!>!!-{*{{..{...........*..{.*{*]*!-!!!'>!!>/>'%%;;;;;=,",
"=,==,#,^,,,####,#,,==$,=$;;;;;;+;;++''+''/'>>&!!!!!!**{*.**..*.*...*.{**{**-@!-!!!>!&''/'/'')'+)==;=",
"=^^^,##~##,,,,,^,^,^==$==;;;;;%')%%;//'/'/'&>>!!]--]{*{**.**...*.*.....**]{{-!!-!!!>!/&''));;;;;;=$^",
"^^,#^,,^,^~~###,^,^,^$=;$==;;;;;%+)'%')+/'/>!&&!!!!@****.*...*..*..*****{**-{*!!!&!!'>'/+%''%;;;;$==",
",#,####~~,^,^,##,,^,^^^=;;;;;;;+;%%+%%%''/'/>>!!!{{]{{{*.***.**.**..{*.**{{@!*!!@''!&''''%;+/;;=;^^,",
"^,^^,,#####~~#^,#^^====;=;=;;+;;/++/+''%/'/&/!>&-!@*@**{*{*.*..*..{*.*{-{@@{]!@!>!!'/>'/'+';;;;;=;$^",
"^##~~^#,####~##,#,#^^$,;,$;;;);;;/'///'''''!'!!!!]!{{{*{*.{***.*{..*.**-{{-@!]]!!!!>/>')')';+;$;,==^",
",,^,,~,~~~~#,~,#,#,,,==,;;==;;%;';;'+''/'>>'!&!!-!{-****{**.{.{.**{{*{{{**!{{@!!!>''&//'/%;);;;$==^,",
"^####~#,,,,##~,#,^#^^^;==;;;;++;''%%//'/'/'/>>!!]@!!!{{*{*{***{.***{***-]*@!!!@>&!&'''/%+'%%==;;^,=^",
",,^,,###~#~~,^#^#,,=,;^;;;;;;;%;;;+'+'''/'!>'!>&!!!-{@@**{**{***{****{-{@!{!@!!&>/>>/''+';;;);==;=,#",
"^,~~^,~#~#,##,#,#^^=^=^,=;;;;;'+////)//'/'&!'&>!@]!@{{{{*!{*{{{*{*{{-{@{*!-]!!!!!&/&''/%++);+;$^$^=,",
"##,,#~#,###~#~,^^,,^,,=;;==;;;;%;;+%'%'''//'!!!!!@!!@!@@{**{*****{--{-{-!-!@!>!!'>&'/%'+%%;;;;;;=,^#",
",#^,,,#,,#,,,##,#,,==$=,;;;;+;;''%''''/'''/'>!!!!!]]{{{@{{@{*!{]-{*-!*!]!!!!!>'!''/''/%');;;;==,;,;^",
"^,####,#^^^~#,,#,^^^^=,;;;;;;;);;')%'/'/''&>'''!!!!!@!@{@@{@!*-*{@!{*!*!*!!@!&!/!>''/++;%');;;$;^$,,",
"^,,^^~,~,#,,#=^^,=,$^;==,;;;+%+';'+)')'/''/&'!>!!@!!!]!{{@{]]!!-]-@]]!*!]!!!!>!'///'%/'+;%+;;;===^=^",
",^^^,,^,^,^#,^,,=^==;^,$;;=;%;;;'%/'/'''/>&>!>!&!!!!]@!@!]!@@{-!!!!!@!!!@!!>>&'/&''/'';%/+;;;;;$==^,",
",,,^=,^~^#=^,^=^,,^=;;;;=+;;+//;+'/'//''//&/''>>&>>@!!!!@]]]!!!-!*!!]!@!!!!!>!!'!''/%'+;;%;;;$=$===^",
"=^,,^#,=,=^,=,^====,,=;=;;;;;;;'/%%/''/>'>'!!&'&>!!>!!!]!@!@!@]!]!]-@]]!!!!'&''>///++)%')+;);;;=$,^=",
"====,=$,^;,^;;,$$;;;;=;$;;;;;+;;+'''/'/'/>''>!>!'!&!>>@!!!!!!!@!@!!!>!!!>>!>!>''''%/%+;%;);;);;;;;,,",
"^^$^;^==;,;,,,^==^==$;;;;+;)+%'/')''%''''/'/&'&'!>!&!!>!!@!!!!!!>!!!!>!>!!!&/&&''/''+%)+%;;;;=;==;;=",
";=;,=^;,==;==;;;;;;;;;;;;+%%+)')'//+%'>''/&>!>!>&>>!!!!!!!>@&!!!!!!!&@!'&'>'/>//+/%/+%;+;+);;;;;==;=",
"=;=;;;^;;;=;;;=;;;;=;;)+%%+;%';%%''/'>&&'&>&/''&>&!'>&>>>'!>>&!!'>!&!&>!>>&!>/&'/'++%+';'%;;%;;;;;$$",
"$;;;;;;;;;;;=;;;;;);;;;);;)+%'''/''/////>'/>!!'&>'!&>&&!!'&!>'&@&>>>>&'&&>''''/'%/%+%;/;;;;;;;;;;;;;",
"=$;;;);;;;;)/;;);;;;)'%;+'%%+;//+//'&'>>'/'&'/>>&!'>&>>'>!!>!!>'>&!!!>!>''/''/''''+%)';)+%;;;);;;;==",
";;;)%);;%)%;/);)/%;;;++%)+)/''+'%''/''/''>'>>&'>'>&>''!''>&'>&!&>'''''&!&'&&'/%+%/+%;';;+)+;;);;=;;;",
";;;;;%/))%)+;%+%;+'%+;%+%/''/)'%''''!&&'/'/'/>&'>&''!!'&>'>!&>'>&&&!!>//>/>//'+/+/%+';'%;;;;;;;;);;=",
";;;;;;%%+%%'+%+'%;+%'/%'%%%'%/''/&///'/&'>&''/&//>&/''>&&''>'>&'>>'/&>'/>/'''/'/;+%;/;);%+));;;;;;;;",
";;+'+''+'+'/''''''/'/+'''''''''/!>''''&>'//&/>>&'/>'/&'/>''/>/'/'/''/'''''///'/'''/';+;');;;%);;);;;",
")%;/))///''/'//''>/'/'/+/'/&//'/'>/>/'/>''>&'/'>&/''>/'/&/'&'>!&'/'''///''';'+));;;'%;;;%%;;;;;;;);;",
";;'%''''>/&&&''/&&'''/'!'/'>>>>'/&>/>/'&''/>&'>/''/'/'''/&'/'/'%/'''/''+)%''/'%%'/';+';+++/+;+)));+;",
"+%+%'>>&&>>>!!!>/!'>!'/'&'/'&&''/&&'>&/>>'//&/&>''/'/''%%''/+/''///'/'/''//;%''%;'/;;/%;;;;+;%%%%%);",
"%)/'>&'>>!!&!'&&!&!&'&!!>>''/''>>>>&'>'&/''>>&'//''''/'''/%+';+/''%;'/'%+;''+);+';;/';;'++/;%;;;)+%)",
"%'/&>!!!>!!>!]!!>!>!!''&!!!>>!&&''>!/'/'>''/''''/'/'%%'''+/%'/'%+'')'/+/';//%'%%'';;+';%;;+)++;%;+%;",
"+/>>&!!!!!]!]@]!!!!!!!!>'>>!&>>>!&&''&''/>/'>//'''%/'+/);/%'+%;+%)'%;;%;)'%%';)+;)')%;+)/'%;%%'+/%+/",
"%'/!!!!@!**!]@-*]]!!!!!!!!'>&!&'>>>!>'!'/''/''/'/'%+/;%'++;%+'/+;;)'''+')++;'';'%;%+/%;;;;'++;/++/+'",
"'!!!!]*{*]{*@*{]@*-]-!!!!!]!!'>!>!&/'>/''>''/''/')+'%'+)%%/+;;;%'+;;;;%;;;%+;;/))+);;+''%';;%';%/%%;",
"/!]--{****..{-*{]{*]**]!!!!]!!!!>>>!/'>''>''/''%'/;+;%%+);;;;;;;;%+;));%%;;%;;%;;;+);;;+;+/+)'+++'''",
"'--{**..*.{*.**.****]]*@!@!!!!>!&!!'!'&>/'//'/%+%%'%++;;;;;++;);;;;;;;;+)+%+;;;/')%%'/'%'%;/')/%////",
"]{-{.*{.*..*..**.{***{{*{*!]]!!!!!!'!'&'/''''+/'+;)%;);;+;;;;;;;;;;;;;;;;;;'++;;%;;;;;);+/;;''''+''!",
"@@{-]*.*........**{**-*{@!]@!!!!!'>!/'/!'''///')%';+;;;;;;;;;==;=;;;;;;;;+;;%;;;;;;;''%'%+''%%////']",
"]@{*.*.***.**.....*{*--{-@!@{!]!!!'>>'/>'/'''%');';/;+;;;;;;$;;;;=;=;;;;;;;;%;++++%;;+)+%)/++'+>'!!!",
"@{-{-{*......**..*.*{*{*{{*{@!@!!&!&&>'&/'/+%+;%/;;;;;;;;,,=;;,;,;=;;==;;;;;;/%;%%+;'%%%'''/'//'!'!]",
"-{-{*.**.*....**.....*-**]-]-!!@>>>>&&/>>'/+/'++;;;;;;==;;;==;=;=$;=;;;=;;;+;;%;;;;;++';);'/''/'!'!!",
"!@{*.{..*........****{.*{*!!!!!!!!!&>>>'/'%/';/;++;;;;$;==,,,=,=$=,;$$=;;;;;;;;;;;';%%)'%'/'/'&>'!@]",
"{-]**{*..**..........*{-{***]-]!!!>/'''''''/';+%%;;===,;^=;;^;,=;=,==;$===;;++++%;;+)%;+/+'+//&!'!!!",
"@!*{**.**..**..*..*******-]!@!!!!'!!!&!'/&%;)/%;;==$;;=^;$^,=^=^,$=,;,=;;;;;;;;;+;';%+'/+%%/'>/'!'@]",
"*{*{*{......**........*]{@*]!@]!!>''>/>'/''%;+;;;;;,=$=,==^,=^,^=$;,;;=;;==;;;;;;;;;%;;/''%'''>>!!!!",
"!@]*.****......**.***{.***]!-!@!!&!!/''/'/'+';);;;=;$=$^^^=^^,==^^^=,,$,=$;;;;;;';%)+''%/+/'//&&>!@]",
"]@{{*{..*.......*...****{@*!]!!!!!'!!!''+/%)%;+;;;==^==,,^,,^^^#=,^====;;;,;;;;;;+%;;;++/'/''>>&!!!!",
"!{**..**.**..*....**.**{**{{@!@!!>!'/'/'/++%+);;=^$^=^^^,#^#,,#,#=,^^^$,==;=;;+;';;%''%%'/'/'//>>!@]",
"-]{{*{.*..**....*..*.{*-{--{-!]!!!!&/'/'%');%;=$;==^,,##,,,##,,,^^,,===,$;;;;;;;;;;;;+'%'%+/'&&&!!!!",
"!****.*.*....**...*.*.*{*@!!!]@!&''>!''%'/%';;;;=^$=,#,,^##,,^#^#,^^^^$;==,=;;;;%++/'%)+/''''>>!'!@]",
"!!{{*{*.*.....*...*.*.*]{***!!!!!!&'>''';+;+;;;;;=^=^^^#,^#~#,~,##,,,^^,,;;=;;;+%;;;+%';'///'&>!!!!!",
"]****.**.***...**{.**{***{]!@!!>!>>/'///';%;;;=$^^,#,##,##,^,#,~,^,^====;=,;=;;;;%)'%+%'/'''/>&>!!@]",
"]!{{*{.**..***...*{.*.*{-@]!]@!!&&'&'';''+;;);==,^,,^,~,^~#~^#^###,##^^^$;;;=;;;;;;+%'/;%'//'/&>!!!!",
"@***{**{.**...{**..{*-{-!{@*!!!'>>!/''';);)';;;^==^#,#,~~#~#~##,,,#^,,,====$;;;++%)%))'''/''/!>&>!@]",
"]!{@*{**.****...{**.{-***{!!]!!!&'>>//'%'%;;==;$^,,^,#^#,,##~#~~#,^^#=^^$;=;==;;)%+'';//'/''/'>!!!!!",
"!*@{{**{{.{*.**{***{**{]!!!@@>!>>/'/'''';;;=;$,=,=^##,#^~~,~,~##,##,,^,==,;;;;;;;;%;;''''''>'!&&!!@]",
"!{**{{**{*.{*{*.{.*{{@**--]!!!&&!&'/'/;';;;;;===^=,,~^~##~,~,,,#,,#^,^^^===;;;;;;+/'/;)%//'/'>>/!!!!",
"{@!{@*{***{*{****{{--{!!!!!!!>!>'/''/+';'+;;;;^$,#^^,~,######~#~~#^,^=,=$$$;;;;;+;;;''''''/'//'!>!@!",
"]]@{{*{!{***{{{****{-*{*!!@!&>&>>&/'/)+;;;=;;;=^,=##,#,,#~#~#~,^,##,^=^=====;;+%;'';////''/'&!>!>!!!",
"!!{@@{@**@{{***{!@!@{]@!*!!!!!>&'/''%%%);;;==^,;,#,,#,#~,,,#^,##~,,#,^,^^;$;=;;;';;/'%+%//'>''&!&!@!",
"@!{{@{{{{@*{*!-*{*{@@]]!]!!!'&>&'/''''%+);;$;;^=$^^,#,^~#~,##,,,^^,^,==;^=;;;;;;;';;+'''''/>/>'!!!!!",
"!@!!{@!@*]{-]*{]-]-{{!@!!@>>!>/'/';));+%;;;;;,=$^=,^^##,^^^^,#####,#^$^,=;,;;;);';''/'/''/'/&''>>>!!",
"!!@!{*{!*!!@]-@!@!@!*!!@!!&!&!>''''%'%;;';)$;$==^=,,,,###~,~,,^,,^,=^,=$,;,=;;;;+;;'%+/)''''/!&&!>@!",
">!]!!!!@!]*]!!{{{{]!!]]!>!!'>/'//'/';+'/;;;;==,^=^^^^^,,,,~,##,^^,=$=;;==;;;;;+;%'/;+/'''//>!/'>!!>>",
">!!@!@{!@!!-!@!@!@{@!@!!!>!&'&!'/%+/%;;;;;;;^;=,,=,,,^,^=,=^,#=,^^,^,^$=;;;;;%));;'/'///'''/!>>''&&!",
"!@>>!]!]!@!!-!!!@!!]!!!!>!/>!/'''+/+)'+'%;;;;=;;=^^,^=^=^=^,=,,==;=====;==;;;;;;+')'%''''''''&&&!>!>",
"'!!>!>@]!!!!!>!!!!>@!!!!'!'/>/'//%%%;%;););;$;=$====^=^,^,=$;^$,,^$;;;$;;;;;;;;%;%%'/'//'/'/'/>'!>&!",
"!!!!@!>!>!!!!->!@>!!!'>'!'!>''/'''++')+;+;;;;=$=$^,^;,,^;;$=^==;,;=,^==$;;;;;'')''++''%'>'/'/>&!'&>'",
"''!>!!>!!@&>&!>!!!>&!&!'>/&&'&'%)/%;;%;;;;;;;=;=;;;$;==^,=^;$==;=;;;$;;;;+++;;%))////''/>''!&>'!>!!>",
"!!>&>&&!!'>!!!!>!&!>>>&!&''>&//''++/'+)+;;;;;;;;;====;;;;;;=;;;=;==);;;;;;;;+;+'%+%''//'&!>''/!/&''&",
"'&>&>>''!!!>!>!!>'!!&>'>!///'+'%%%;;;;%;;;;;;);;;;;;;;;;;;;;;;;;;;;);;;;;'%%/%%'%''''+'//'/'&'>>'!>'",
"!>&>!!!!!>'!'&>'!!>'>&!''>''/'/)++''/';+));;)===;;;;;;;;;;;;;;);%/;;)+)+);)+;+';'')/)/&''/'//''/!/&!",
"&>&''>'''!&!>&!''&>'>'&/''''/+'/%;;;;;%;;;);;;;;;=;;;));)/);)%));;;%;;%;+%/'%)'/)'%''/'''>>>>&>'>>''",
"'&''&'>>!'>'&''&!'&!'/>'&/';%/'/+/'/++;%;);;;;;=;;;;;;;;%;;/%+%;+'';;%+'%+;)+'/''%'>>'!!!/''&>&>'/>>",
"/>>>&'&'!'>'!'>'!>/''/'/'/'''/;%;;;%%;;+;;%;;;%;;;;;;;/)+';+%+'%)'''+//+%'%'%'/'''/'>///&&////'&&&&/",
">/&'>!'''/'>'&/>//'!/'/'/'//'''+''/+;++%;+;;);;;;;;)+%;%//'/+//''///'%;%'''/'/'/'/&//''''/''''&'//''",
"'//'//'/&&//>&&'''/'''''''');+/;);;+%;;';+%%);;;;;;;/'+''/'/''/''''>''&'//'''/'/''''/''''>>'>//>'/!'",
"'''/''/'>/+''%%/'/+'/'%///+%'%%'%'/;)/);%;+;;);)+;;%;)''/''>!&&/''/&&&'/'&'/''>>>'>&>/'/>'/'/>>'>>'/",
"'>'''''%'%'/'''/'%/'/'+'%/'/'+%+;;';;;++;;);;+%;)%+''//'!>&'>'!'&&'/>/'''/&/'/&&>&>&!''&&''''&&&'/''",
"///;//%+%'/+)'/+/''/')/;+%;;;%+%/+;'+';;/);';;;/%+;//'''/!>!&!>!>>!!'>!!!>>>!'''///>'!!/'/>/''/'/''/",
"'%'%'+'+'%%');'%%/'%'+'/+'''+/+;%';%;/);;%;';+;+;';%'>!!!!>!!!!!!!!!!>&>!!&'!>>!>!'/'/''>&>'/>/''/''",
"++''%'//)++%''%++;)+%%)+/';;/;/');)+';%'%++;'/)%';''>&>>>!!]]@!]@!!]!!!!''>!>!&'&'!!!>>/&'/>>'>'/''/",
"/'/+);'%%/+;;+;/+%;+)'%%;/';';;;+%%;++;+;%';;%+)';//>&!!!{@!{*@{-]@]!]!!!!!!'>!>!'>>'&!'/''/''/'//%'",
"';;'%';++;;;/;';%)'%;;+;';;;;''/%;++%%/%'))''+///''>>]!**-{*-{{-{*{@{@!]*!>!]!!!>!'&!>''>&''/'''''+;",
"'';);+%%;;';;;;;;;;';%+;;%';;;;+)%%+);+;%%))/;%;'/'!!-!{**.****--**-{-@!]!!!!!!!!!>!>>>&>/'''//';''/",
");+;);;;;);;));+;;);;;;;)+;+/+);;;+%%'%+++%'''''/''{*{.****...***{.***{*@*!@!!!!>!!'&&/'/!>>/''''//;"};
