/* XPM */
static char * BlueX2_xpm[] = {
"10 300 33 1",
" 	c None",
".	c #5A769C",
"+	c #7E96B4",
"@	c #6A86A4",
"#	c #92A6BC",
"$	c #728EAC",
"%	c #869EB5",
"&	c #627E9D",
"*	c #9AAEC4",
"=	c #7A8EAC",
"-	c #8EA2BC",
";	c #728AAC",
">	c #6A82A4",
",	c #627A9C",
"'	c #869AB4",
")	c #6E8AA7",
"!	c #9AAAC4",
"~	c #8AA2BC",
"{	c #96AAC4",
"]	c #6682A4",
"^	c #7A92AD",
"/	c #5E7A9C",
"(	c #829AB4",
"_	c #96A6C4",
":	c #8A9EBC",
"<	c #667EA4",
"[	c #7E92B4",
"}	c #5E769C",
"|	c #8296B4",
"1	c #6E86A4",
"2	c #768EAC",
"3	c #9EAEC4",
"4	c #92A2BC",
"..........",
"..........",
"..........",
"..........",
"..........",
"//////////",
"//////////",
",,,,,,,,,,",
"&&&&&&&&&&",
"<<<<<<<<<<",
"]]]]]]]]]]",
">>>>>>>>>>",
"1111111111",
"))))))))))",
";;;;;;;;;;",
"2222222222",
"^^^^^^^^^^",
"^^^^^^^^^^",
"[[[[[[[[[[",
"++++++++++",
"++++++++++",
"||||||||||",
"||||||||||",
"((((((((((",
"((((((((((",
"''''''''''",
"''''''''''",
"%%%%%%%%%%",
"::::::::::",
"::::::::::",
"::::::::::",
"::::::::::",
"----------",
"----------",
"----------",
"----------",
"4444444444",
"##########",
"##########",
"##########",
"##########",
"__________",
"{{{{{{{{{{",
"{{{{{{{{{{",
"{{{{{{{{{{",
"{{{{{{{{{{",
"{{{{{{{{{{",
"!!!!!!!!!!",
"!!!!!!!!!!",
"**********",
"**********",
"**********",
"**********",
"**********",
"3333333333",
"3333333333",
"3333333333",
"3333333333",
"3333333333",
"3333333333",
"3333333333",
"3333333333",
"3333333333",
"3333333333",
"3333333333",
"3333333333",
"3333333333",
"3333333333",
"3333333333",
"3333333333",
"3333333333",
"3333333333",
"3333333333",
"3333333333",
"3333333333",
"3333333333",
"3333333333",
"3333333333",
"3333333333",
"3333333333",
"3333333333",
"3333333333",
"3333333333",
"3333333333",
"3333333333",
"3333333333",
"3333333333",
"3333333333",
"3333333333",
"**********",
"**********",
"**********",
"**********",
"**********",
"**********",
"**********",
"**********",
"**********",
"**********",
"**********",
"**********",
"!!!!!!!!!!",
"!!!!!!!!!!",
"!!!!!!!!!!",
"!!!!!!!!!!",
"!!!!!!!!!!",
"{{{{{{{{{{",
"{{{{{{{{{{",
"{{{{{{{{{{",
"{{{{{{{{{{",
"{{{{{{{{{{",
"{{{{{{{{{{",
"{{{{{{{{{{",
"{{{{{{{{{{",
"{{{{{{{{{{",
"{{{{{{{{{{",
"__________",
"__________",
"__________",
"##########",
"##########",
"##########",
"##########",
"##########",
"##########",
"##########",
"##########",
"##########",
"##########",
"----------",
"----------",
"----------",
"----------",
"----------",
"----------",
"----------",
"----------",
"----------",
"~~~~~~~~~~",
"~~~~~~~~~~",
"::::::::::",
"::::::::::",
"::::::::::",
"::::::::::",
"::::::::::",
"::::::::::",
"::::::::::",
"%%%%%%%%%%",
"%%%%%%%%%%",
"%%%%%%%%%%",
"''''''''''",
"''''''''''",
"''''''''''",
"''''''''''",
"''''''''''",
"''''''''''",
"((((((((((",
"((((((((((",
"((((((((((",
"((((((((((",
"||||||||||",
"||||||||||",
"||||||||||",
"||||||||||",
"++++++++++",
"++++++++++",
"++++++++++",
"++++++++++",
"++++++++++",
"[[[[[[[[[[",
"[[[[[[[[[[",
"[[[[[[[[[[",
"^^^^^^^^^^",
"^^^^^^^^^^",
"^^^^^^^^^^",
"^^^^^^^^^^",
"^^^^^^^^^^",
"==========",
"2222222222",
"2222222222",
"2222222222",
"2222222222",
"2222222222",
"$$$$$$$$$$",
";;;;;;;;;;",
";;;;;;;;;;",
";;;;;;;;;;",
";;;;;;;;;;",
";;;;;;;;;;",
"))))))))))",
"))))))))))",
"1111111111",
"1111111111",
"1111111111",
"1111111111",
"1111111111",
"@@@@@@@@@@",
"@@@@@@@@@@",
">>>>>>>>>>",
">>>>>>>>>>",
">>>>>>>>>>",
">>>>>>>>>>",
">>>>>>>>>>",
"]]]]]]]]]]",
"]]]]]]]]]]",
"]]]]]]]]]]",
"]]]]]]]]]]",
"<<<<<<<<<<",
"<<<<<<<<<<",
"<<<<<<<<<<",
"&&&&&&&&&&",
"&&&&&&&&&&",
"&&&&&&&&&&",
"&&&&&&&&&&",
"&&&&&&&&&&",
"&&&&&&&&&&",
",,,,,,,,,,",
",,,,,,,,,,",
",,,,,,,,,,",
"//////////",
"//////////",
"//////////",
"//////////",
"//////////",
"//////////",
"//////////",
"//////////",
"//////////",
"//////////",
"}}}}}}}}}}",
"}}}}}}}}}}",
"..........",
"..........",
"..........",
"..........",
"..........",
"..........",
"..........",
"..........",
"..........",
"..........",
"..........",
"..........",
"..........",
"..........",
"..........",
"..........",
"..........",
"..........",
"..........",
"..........",
"..........",
"..........",
"..........",
"//////////",
"//////////",
"&&&&&&&&&&",
"<<<<<<<<<<",
">>>>>>>>>>",
"1111111111",
";;;;;;;;;;",
"2222222222",
"^^^^^^^^^^",
"++++++++++",
"((((((((((",
"%%%%%%%%%%",
"::::::::::",
"----------",
"##########",
"{{{{{{{{{{",
"!!!!!!!!!!",
"**********",
"3333333333",
"3333333333",
"3333333333",
"3333333333",
"3333333333",
"3333333333",
"**********",
"!!!!!!!!!!",
"{{{{{{{{{{",
"##########",
"----------",
"::::::::::",
"%%%%%%%%%%",
"((((((((((",
"++++++++++",
"^^^^^^^^^^",
"2222222222",
";;;;;;;;;;",
"1111111111",
">>>>>>>>>>",
"]]]]]]]]]]",
"&&&&&&&&&&",
"//////////",
"//////////",
"..........",
"..........",
"..........",
".........."};
