/* XPM */
static char * Bronze_xpm[] = {
"10 200 33 1",
" 	c None",
".	c #777676",
"+	c #B1A394",
"@	c #C6BAB2",
"#	c #9D968D",
"$	c #E2D2C3",
"%	c #918A84",
"&	c #D9C7BA",
"*	c #BAB2AA",
"=	c #82827E",
"-	c #BEAE9F",
";	c #A2968B",
">	c #EEDED2",
",	c #989087",
"'	c #D3C2B5",
")	c #EDDACE",
"!	c #E0CEC1",
"~	c #B9AA9B",
"{	c #A69A8F",
"]	c #7C7B79",
"^	c #C4B4A5",
"/	c #88847F",
"(	c #AE9E92",
"_	c #CCBCAD",
":	c #B7A696",
"<	c #CAB6A6",
"[	c #827E7B",
"}	c #D2BEB1",
"|	c #9E928A",
"1	c #E8D5C8",
"2	c #DECABE",
"3	c #8E8682",
"4	c #A99E92",
"..........",
"..........",
"]]]]]]]]]]",
"==========",
"3333333333",
"%%%%%%%%%%",
",,,,,,,,,,",
"##########",
"{{{{{{{{{{",
"4444444444",
"++++++++++",
"~~~~~~~~~~",
"----------",
"**********",
"**********",
"^^^^^^^^^^",
"@@@@@@@@@@",
"__________",
"''''''''''",
"''''''''''",
"&&&&&&&&&&",
"2222222222",
"!!!!!!!!!!",
"$$$$$$$$$$",
"1111111111",
"1111111111",
"))))))))))",
">>>>>>>>>>",
"))))))))))",
"))))))))))",
"))))))))))",
"))))))))))",
"))))))))))",
"))))))))))",
"))))))))))",
"1111111111",
"1111111111",
"1111111111",
"1111111111",
"1111111111",
"1111111111",
"1111111111",
"$$$$$$$$$$",
"$$$$$$$$$$",
"$$$$$$$$$$",
"$$$$$$$$$$",
"$$$$$$$$$$",
"$$$$$$$$$$",
"!!!!!!!!!!",
"!!!!!!!!!!",
"!!!!!!!!!!",
"!!!!!!!!!!",
"!!!!!!!!!!",
"!!!!!!!!!!",
"!!!!!!!!!!",
"2222222222",
"2222222222",
"2222222222",
"2222222222",
"2222222222",
"2222222222",
"2222222222",
"&&&&&&&&&&",
"&&&&&&&&&&",
"&&&&&&&&&&",
"&&&&&&&&&&",
"&&&&&&&&&&",
"&&&&&&&&&&",
"''''''''''",
"''''''''''",
"''''''''''",
"''''''''''",
"''''''''''",
"''''''''''",
"''''''''''",
"}}}}}}}}}}",
"}}}}}}}}}}",
"}}}}}}}}}}",
"}}}}}}}}}}",
"}}}}}}}}}}",
"}}}}}}}}}}",
"}}}}}}}}}}",
"__________",
"__________",
"__________",
"__________",
"__________",
"__________",
"__________",
"<<<<<<<<<<",
"<<<<<<<<<<",
"<<<<<<<<<<",
"<<<<<<<<<<",
"<<<<<<<<<<",
"<<<<<<<<<<",
"^^^^^^^^^^",
"^^^^^^^^^^",
"^^^^^^^^^^",
"^^^^^^^^^^",
"^^^^^^^^^^",
"^^^^^^^^^^",
"^^^^^^^^^^",
"----------",
"----------",
"----------",
"----------",
"----------",
"----------",
"----------",
"~~~~~~~~~~",
"~~~~~~~~~~",
"~~~~~~~~~~",
"~~~~~~~~~~",
"~~~~~~~~~~",
"~~~~~~~~~~",
"::::::::::",
"::::::::::",
"::::::::::",
"::::::::::",
"::::::::::",
"::::::::::",
"::::::::::",
"++++++++++",
"++++++++++",
"++++++++++",
"++++++++++",
"++++++++++",
"++++++++++",
"++++++++++",
"((((((((((",
"((((((((((",
"((((((((((",
"4444444444",
"4444444444",
"4444444444",
"4444444444",
"{{{{{{{{{{",
"{{{{{{{{{{",
"{{{{{{{{{{",
"{{{{{{{{{{",
"{{{{{{{{{{",
"{{{{{{{{{{",
"{{{{{{{{{{",
";;;;;;;;;;",
";;;;;;;;;;",
";;;;;;;;;;",
";;;;;;;;;;",
";;;;;;;;;;",
"##########",
"##########",
"||||||||||",
"||||||||||",
"||||||||||",
"||||||||||",
"||||||||||",
"||||||||||",
"||||||||||",
",,,,,,,,,,",
",,,,,,,,,,",
",,,,,,,,,,",
",,,,,,,,,,",
",,,,,,,,,,",
",,,,,,,,,,",
",,,,,,,,,,",
"%%%%%%%%%%",
"%%%%%%%%%%",
"%%%%%%%%%%",
"%%%%%%%%%%",
"%%%%%%%%%%",
"%%%%%%%%%%",
"%%%%%%%%%%",
"3333333333",
"3333333333",
"3333333333",
"3333333333",
"3333333333",
"3333333333",
"3333333333",
"//////////",
"==========",
"==========",
"==========",
"==========",
"==========",
"==========",
"[[[[[[[[[[",
"[[[[[[[[[[",
"[[[[[[[[[[",
"[[[[[[[[[[",
"[[[[[[[[[[",
"[[[[[[[[[[",
"[[[[[[[[[[",
"]]]]]]]]]]",
"]]]]]]]]]]",
"]]]]]]]]]]",
"]]]]]]]]]]",
"]]]]]]]]]]",
"]]]]]]]]]]",
"]]]]]]]]]]",
".........."};
