/* XPM */
static char * Chrome_xpm[] = {
"16 256 17 1",
" 	c None",
".	c #7E7E7E",
"+	c #B6B6B6",
"@	c #A4A4A4",
"#	c #8A8A8A",
"$	c #929292",
"%	c #C6C6C6",
"&	c #B0B0B0",
"*	c #969696",
"=	c #BABABA",
"-	c #9C9C9C",
";	c #AAAAAA",
">	c #C0C0C0",
",	c #828282",
"'	c #CBCBCB",
")	c #8E8E8E",
"!	c #868686",
"''''''''''''''''",
"''''''''''''''''",
"''''''''''''''''",
"'%''%'''%''%'%''",
"%%%%%%%%%%%%%%%%",
"%%%%%%%%%%%%%%%%",
"%%%%%%%%%%%%%%%%",
"%%>%%>%%%>%%>%%%",
"%%>>%>>%>>%>>%%>",
">>>>>>>>%>>>>>>>",
">>>>>>>>>>>>>>>>",
">>>>>>>>>>>>>>>>",
">>>>>>>>>>>>>>>>",
">>>>>>>>>>>>>>>>",
">=>>>>>>=>>>=>>>",
">>==>=>=>>=>>=>=",
"================",
"================",
"================",
"=+======+=+===+=",
"++++++++++++++++",
"++++++++++++++++",
"++++++++++++++++",
"&+++++&++++&++++",
"&&+&+&&&+&+&&&+&",
"&&&&&&&&&&&&&&&&",
"&&&&&&&&&&&&&&&&",
"&&&&&&&&&&&&&&&&",
"&&&&&&&&&&&&&&&&",
"&&&&&&&&&&&&&&&&",
"&&&&&&;&&&&&;&&&",
";;;&&&&&;&&&&;&&",
";;;;;;;;;;;;;;;;",
";;;;;;;;;;;;;;;;",
";;;;;;;;;;;;;;;;",
";;@;;;;;;@;;;;;;",
"@;@@;@;@;@@;@;@@",
"@@@@@@@@@@@@@@@@",
"@@@@@@@@@@@@@@@@",
"@@@@@@@@@@@@@@@@",
"@@@@@@@@@@@@@@@@",
"@@@@@@@@@@@@@@@@",
"@@@@@@@@@@@@@@@@",
"@@@@@@@@@@@@@@@@",
"@@@@@@@@@@@@@@@@",
"@@@@@@@@@@@@@@@@",
"@@@@@@@@@@@@@@@@",
"@@@@@@@@@@@@@@@@",
"@-@@-@@@-@@@-@-@",
"@@@@@-@@@@@@@@-@",
"-@--@@-@@@---@@@",
"@@@-@@--@-@@@@--",
"@-@@--@@-@@-@-@@",
"--@----@-@---@-@",
"-@-@-@---@-@----",
"----------------",
"----------------",
"---------------@",
"----------------",
"----------------",
"----------------",
"----------------",
"----------------",
"----------------",
"----------------",
"----------------",
"----------------",
"----------------",
"--*-*----*--*-*-",
"*------*--------",
"-----------*--*-",
"--*--*--**--*--*",
"-*--*-*---**--*-",
"****************",
"-***********-***",
"****-***********",
"****************",
"****************",
"****************",
"****************",
"****************",
"*$***$**$*******",
"*******$**$*$*$*",
"$**$*$**$**$****",
"$$$$$$$$$$$$$$$$",
"$$$$$$$$$$$$$$$$",
"$$$$$$$$$$$$$$$$",
"$$$$$$$$$$$$$$$$",
"$$$$$$$$$$$$$$$$",
"$$$$$$$$$$$$$$$$",
"$$$$$$$$$$$$$$$$",
")$)$$$$))$)$$$$$",
"$$$)$$)$$$$$)$)$",
"$$)$$$$$$)$$$$$)",
"))))))))))))))))",
"))))))))))))))))",
"))))))))))))))))",
"))))))))))))))))",
"))))))))))))))))",
"))))))))))))))))",
"))))))))))))))))",
"))))))))))))))))",
")))))#)))))))))#",
")#))#)))#)#)#)#)",
"################",
"################",
"################",
"################",
"################",
"################",
"################",
"################",
"###!####!#######",
"#!###!###!##!#!#",
"!!!!!!!!!!!!!!!!",
"!!!!!!!!!!!!!!!!",
"!!!!!!!!!!!!!!!!",
"!!!!!!!!!!!!!!!!",
"!!!!!!!!!!!!!!!!",
"!!!!!!!!!!!!!!!!",
"!!!!!!!!!!!!!!!!",
"!!!!!!!!!!!!!!!!",
"!!,!!!,!!!!!!!!,",
",!!!!!!!,!,!,!!!",
"!,!,!,!,!!!!!,!,",
",,,,,,,,,,,,,,,,",
",,,,,,,,,,,,,,,!",
",,,,,,,,,,,,,,,,",
",,,,,,,,,,,,,,,,",
",,,,,,,,,,,,,,,,",
",,,,,,,,,,,,,,,,",
",,,,,,,,,,,,,,,,",
",,,,,,..,.,,.,,,",
",,,.,,,,,,.,,.,,",
",.,,.,,.,,,,,,.,",
"................",
"................",
",,,,,,,,,,,,,,,,",
",,,,,,,,,,,,,,,,",
"!!!!!!!!!!!!!!!!",
"!!!!!!!!!!!!!!!!",
"################",
"############)###",
"))))))))))))))))",
"))))))))))))))))",
"$$$$$$$$$$$$$$$$",
"$$*$$$$$$$$$$$$$",
"****************",
"****************",
"*------*---*-*--",
"----------------",
"----------------",
"--@-@---@-@---@-",
"@@@@@@@@@@@-@-@@",
"@@@@@@@@@@@@@@@@",
"@@@@@@@@@@@@@@@@",
"@@@@@@@@@@@@@@@@",
";@;@;;;;@;@;;;;@",
";;;;;;;;;;;;;;;;",
";;;;;;;;;;;;;;;;",
"&&&&;&;&&&&&&&&&",
"&&&&&&&&&&&&&&&&",
"&&&&&&&&&&&&&&&&",
"&&&&&&&&&&&&&&&&",
"&+&&+&+&+&&+&+&&",
"++++++++++&++++&",
"++++++++++++++++",
"==+=========+==+",
"================",
"==========>=====",
"=>>>>>=>=>>>=>>=",
">>>>>>>>>>>>>>>>",
">>>>>>>>>>>>>>>>",
">>>>>>>>>>>>>>>>",
">%>%>>%>%>%>%>%>",
"%%>%%%%%%%%%%%%%",
"%%%%%%%%%%%%%%%%",
"%%%%%%%%%%%%%%%%",
"''''''''''''''''",
"''''''''''''''''",
"%%%%%%%%%%%%%%%%",
"================",
"&;&&&;&&&;&;&&&&",
"@@@@@@@@@@@@@-@@",
"****************",
"###############)",
"................",
",,.,,,,.,,,.,,.,",
",,,,,,,,,,,,,,,,",
",,,,,,,,,,,,,,,,",
",,,,,,,,,,,,,,,,",
"!,!!!!!!!!!,!!,!",
"!!!!!!!!!!!!!!!!",
"!!!!!!!!!!!!!!!!",
"!!!!!!!!!!!!!!!!",
"!######!##!#####",
"################",
"################",
"##############)#",
"))#))#))##))#)))",
"))))))))))))))))",
"))))))))))))))))",
"$)))))))))))$)))",
"$$)$)$)$)$$$$$)$",
"$$$$$$$$$$$$$$$$",
"$$$$$$$$$$$$$$$$",
"$$$$$$$$$$$$$$$$",
"**$***$*$**$**$*",
"****************",
"****************",
"****************",
"*--*-*--*--*----",
"------------*---",
"----------------",
"----------------",
"----------------",
"----------------",
"----------------",
"-@---@-----@-@-@",
"-@-@-@@--@-@@-@@",
"@@@-@@-@@@@@-@@@",
"@@@@@@@@@@@@@@@@",
"@@@@@@@@@@@@@@@@",
"@@@@@@@@@@@@@@@@",
"@@@@@@@@@@@@@@@@",
"@;@@;@;@;@@@;@;;",
";@;;@;;;;;@;;;;;",
";;;;;;;;;;;;;;;;",
";;;;;;;;;;;;;;;;",
";;&;;;;;;;;;;;;;",
"&&&&&&&&&&&&&&&;",
"&&&&&&&&&&&&&&&&",
"&&&&&&&&&&&&&&&&",
"&&&&&&&&&&&&&&&&",
"&&&&&&&&&&&&&&&&",
"&+&&&&+++&&&&+&+",
"++&++&++++&+&+++",
"++++++++++++++++",
"+++++++++++++=++",
"=+===+=+==+=+==+",
"================",
"================",
"================",
">>=>=>>>>>>>=>>>",
">>>>>>>>>>>>>>>>",
">>>>>>>>>>>>>>>>",
">>>>>>>>>>>>>>>>",
">>>>>>>>>>>>>>>>",
">%>>>%>%>%>>%>%>",
"%%%%>%>%%%>%>%>%",
"%%%%%%%%%%%%%%%%",
"%%%%%%%%%%%%%%%%",
"'%'%'%'%''%''%'%",
"''''''''''''''''",
"''''''''''''''''",
"''''''''''''''''"};
