/* XPM */
static char * craters_xpm[] = {
"115 115 33 1",
" 	c None",
".	c #72769A",
"+	c #757CAD",
"@	c #7E85B2",
"#	c #6B7197",
"$	c #5E5E79",
"%	c #565D84",
"&	c #666F93",
"*	c #636883",
"=	c #5A6286",
"-	c #5D6788",
";	c #737BA1",
">	c #6D76A5",
",	c #636A8F",
"'	c #7983AE",
")	c #7276A5",
"!	c #4C5570",
"~	c #6B72A4",
"{	c #6D769B",
"]	c #59627B",
"^	c #5E6286",
"/	c #515B76",
"(	c #535671",
"_	c #575D79",
":	c #818AB6",
"<	c #858FBC",
"[	c #6E7AA2",
"}	c #5F627B",
"|	c #484E6C",
"1	c #424E64",
"2	c #667698",
"3	c #3C4860",
"4	c #7A8AB4",
".+@+#$%%&*=-#;;>&#######&,&++;;'+;>>)###!%=-&;~=~&&&~>#&+';##;{#&&-]]-#{#&,&#{#&#&&&####-,##&&#{,&&&&&#{{#,,#{;;##{",
"##++.^%%*,&{;)#&,,&&&&&&&,&;+>>+;)>){#&#!/=,)+#=~&&&####;{#,,&#&&&---*&##&&&&&###&&&###&,&#{{##{&&&&&&#{&&##{{;;###",
",,#+.^/%*&{{{&&&-,,,,,,,&,&>;>>;;;;)&-=,//-;'+&-&~~#&&#{#&-%%-,,*&&&&&,,###&,,&{#&&&##&&,&#{;;{#&&####{;,#{;;;;;..{",
",,#;&/(^,&&,--,&,,,-,,,&,,,#>>>;>);{-/!_%=#@:),,~~#&&&#{&,=%%-,,**&&&*--&&&,,&####&&&&&&,,&{++{&&&###{{;&#{+'++;.{#",
".#..,(/,&,-==-,&,,,,,,&&&,,&##&#,#{#=!!_-&'<:#,#)#,,#>{{,-===-,,*****--=,--,###&&&&&&&&&,,&{+;#,&&#{{{{{###{++;{&&,",
";;;#-/^&,*--,&,-,,,,,,&&&,-,,,,--,#&=!/=,#':+,,{;#,,#>>{,-=----,**-----=-==,#{#,&&&&&,&&,,&{;;#,&&#{;;{##&&#{{#&&,,",
"..#*_^*,*--,&&,-,,,&&&&&&,--,&&,-,&&=!%-,&[;#,,{)~&,&#);#,=----&***--------,&#&&,&&&,,&&&&#{{{&,&&{;+;#&-&#&,--=*,*",
"&&^(/**_,*--,,,-,&&#####,,--&{{#&##&=!/-,&&&,,&#>~#&,&{+{&----,&*****-----,,,,&#,,&&,,&#&##{{#&,&&{;+;#,_,#&=//___]",
"(/_***-^]---,-=&&,,&&#{{#&,&&,,#&&#&_!_*&&&##&&#,,,&);;{{&--,,,--*-//_---,&&&,,,-,,&&&##&&####&,#,&;#%!!=&#,]/%__//",
"_/(/},##-*--,--&&&&&#{{{#&&&,-,&&&#&-/%--*&&#&&#&&,&{;;{&-=-,&&,--=%/]--,,,,&&&&-,,&&&&#&##{{#&&#&#;&/!!-,#{-!!_/!(",
"}/(/*#..,,--,,-##&&&#{{{#&,,,,,&#&&&,]__--&&&&&&##&#>;{#,---,&&&]]]__]-,&,--,###,,,&,,&&##{{{#&,##{;,!|!,,{;&!|/!!(",
"}}}*&##&&,==,--###&&#{##&,,,,&&&&&&##,]_-,&&&##&{{{;;{#&,,,,,,*-]]]]]=-,&,=-,###,,&,,,&&&####&&,&#;;,!!%&{;;-!1!!/_",
"_*,&&&&&&,=_---###&&&##&&,,,&##&&,&{{&--&##&&##&{);++{&-&&&&,-------==-,&,-,&##&&&&,,,&&&##{##&&##;;&%/-#;;&/!!!(/}",
"^*,,*,&.&,=_---&&&&&&&&&#&,,&##&&&#{{#&&#{{&&{{&);++;#,-,,&,---*-------,&&&&###&{#&,-,&###{{;{{##{;;#-=-&;{_!/_!_**",
"******&##&=%,,-&&&,&&&&&##,,&{#&&#{;{&#{{{#,&{;#;;;{#,------]_-**-*&*--&,,,&&###;{&,-,&{##{;;;;{;{{{#&,-,,-!!_]_}#.",
",,,*,,,,#&==,,-&&&,&&###&&,,#;;##{+;#,#;#{#,,;;{+;{&,-*-^--]//]-*-*&&-,&=---*,&#+;#,-,#{&#{;;;;{+{##{#,]-_!!/_]*-&.",
",,,,--,&{,---=-##&,,,&&&,,&&#{{&,#)>#&#{&#&,#;;{;#,-_/_*}]}-}_^&&##**,,,^-***,&#{&-=-,&&##{####){&,&[{*_!/!|/*&-*,&",
",,,,-,&#[#&,--,#&&,,,&&&,,,,&##&,&>>#&#~&&&&#[{&#,*}_/_--}}-]_*&&#&**,***,,,,,#{#,---&&#{##&&&#{#&,&#&-/!||!]&&&^-,",
"&&,,-,#>;;{,-,&#&,,,,,,,,,,,,##&&&#####&#####{#,-]__//_]*---^^,#&&*-*,,*&&&,,&#{----,&&#;{&,,&##,,,&&*]//!|]2;{&%^-",
"#&&,,&{;;+;,-&{#&,,,,,,,-,&,&#&&&&&&#~#&>>{{{#&*_/(((/_-****,,&#,*^^,##&&&&&,,&#%=--,&#{+{,--,&#,&##&-]_]//&;[&,=^-",
"##&&,&~;;+>,,#[{&,,,,,,,-&####&,#&,&#~#&;){#&&,-//!!!_-**&&&&###&*^*&{..##&&,,&#==-,&#;++{,--,&#&#{{&-]]_/_&#*--**,",
"&&&&##>>+;#,&{;;#&,-,,,,,&{###&,#&&&#~#&;{#&,=]]//!!/-***&&&##{#{&,,&#{.##&&,,&&-,,&{;+';{&,-,&&&#{{#*--/_-**--,&&#",
"-,&#>>>;@>&&{;;+#&,--,&&&#{#&&#&##&&####{#&&,_/_////]*&*&&&,,#.#{&&&&&#;###&,,&#--,#;++;##&,,,&&&#{{#,--_-----,,###",
"%-&{[;;;:>,#;;;+{#,--,&&&##&,&##############&_//!/_]-&&-&&,^*#).#&,&&&{+###&,&&#==-#;+{#&&&,--,&,&###,-]]--]_-*-##.",
",,&{>{;'@~,>'+{##&,--,#{{#&#{{#,-,,#######&{&!3|_]-&&&&&#&&##{>#{#&##&#;+&&#&,,--&{;#&,&-,,,,,,,,&##&-=]*]_--=-,&#.",
"{#&#>[;+'>#;+{&,&,---,&&{&&&{{#,,,&&####&###,!3!]-*&&&&&{######&{#####;'@{&&--,-##{#&,,,,,,,,,,-,&##&,--]__-,--,,&#",
"'[#{;;#&#&#{#-%=-----,,&#&,&##&,&&&&&&&&&;{,=!|/-*-&&&##{#&&#{#&{{####+::[#&-,#&{#&,,,&#&&,,,,--,&##&,*-]_=&&,-,,&#",
"';;+;#=!==-&,=_=,---,,&&#&,&&#&,##&&&&&&#+#_/__]--&&&###&,,&{[{#>>#&&#+::;##,#;[#&,-,&#{&&&&,,--,&&&,,,***&#&-=-&##",
"[;;[&=!!-==-,---&,---,&###&&&#&&{##&,&&&;'&!!--]--*&&&&&&,,&#{{#&&&,,{':'{##&{;{,,-,&#{{&&&&&,,,,&&--,&,&&&&,==-#{.",
"&##-/!/%,-%=----&,---,&########&##&&&&&&;+,!%*-]--,&&&&&#&&&##&&--,,&;@:{###&{{&,,&&&&&&&&&&&&&&-&,==,&&&&,-==,&;.{",
"-&-/!!%--=%_=---&&,,,&&#{{{{{{###&&&&&&#{;,_=&-]--&####&&###&&&&-,,,>'@'&,&&&{{,,&##&,--&&&#####,&,=],#&&&,-=-&{;#&",
"]--/!!%==--=-&&&########{{{;;{{#&&&&&###&{#-**-]-,&#{###,&##&,&#&&&#;'';,-,&&{;&-&{{&,--&&##{{{{,&,=]&{#&#&--,{;.&*",
"*&*/!!^,%=,&#{{{##&&&&##&{{#&#{##&&,,&&,,#{&----=-&########&--,&#~>+'@;,,&#>.##&&.;#&&##&&##{{###&=/]&{{{#&&##&,,-=",
"*&*]/_-,,,&#{{{{{########{{#&###{{######&###,===-,#{[>{##&&&&&&&~>>+@@+&&&&###&&+'';{{#########{&*=%=&{#{&,,&&&,-==",
"*&**-*,,&##>>>##{{####{{#{{###{#....{####&#{&=%-&&{;;;{###&#{{#&>;;+@:+~>~######:@';{{#&&&&&**&{&-]_-&#&{&,-,,&,===",
"****,&&,&###{##&{{####{{#{{{{{>>{...#&&&#&&;{-=,##{{[{{####{[;{~+++'@@+~##&&&#..'+#,***]-***-}*&*-]]*##,&&,,,,,,=--",
"**^*&##&##~~~##########{###{[;;+{)){&,--#,&;;&,#[{{{{{##,&#{>;+'++++''+#,,,,&#..;#=!!/_/_]--]_]---]]*&&-*,&&&&,---,",
"*}=*&###>>>>>>>>##&&###{#&&{;;;+;;;{&---&,&{;##{;[{{{{##=,#{>+@:;+++++;#,,&&&#{.&*/||!/!_]--]]]]-----&*---&&&&-----",
"=_=&####;;;>>>>>##&&###{#&&#{{>[;;;{&-,,,,,&####{{#{{{#,-,#{;+''~~>>;+;####{##&,__(!!_]_----------*-------*&,*-----",
"//^&)>#&;;;>>>~###&&##{{#&,#{##~>>>~,-,&-,,,&##&&&##{#,=&&#>++>#,&#~)+;{####&*__!!!(_*&*&*******]-&----------------",
"/%-&>;;>>+'+>&&>####&#&&,,,&###&,+@>-&##,&&,,#&,,#[{&,,&##>+'+~,-#>>)+;.##&,*}//|!/*&-*#,*---*&&]-*----*---***--=]]",
"%=,#>)>>>+'+[>>[>>>{####&&&&&&,,~'@>&>)#-*,,,##&{{&,-,,&,,#[;>&,~)+;)).&**}_/(!|((]&&-^,,***,&,*=-**---&***&&**---=",
"%-&#>>>;>[++[[[[~~######&&&&&&&&[''[>+;#^***&...;2&-,&&,=-&{>#&&+++;;.&*^__//(((__]**==,,,,&&&,*-,,*--*&&&&&&*----=",
"/=&##{>+>>>>[>{#~~######&&&###>>+'@+;+;#*,*,&##{&&&&&&,-=,#>>>>>+;;).&*^_}}}}}}}///_%%,#,,,&#&,*&&&,,-&&#&&&------=",
"=,#{{>[+[>>{>2#&>>>>{{##&&###{>;+@:'++;#,*******]---]]=-&#{;[[;+####&,^__}^}*}}_(/_=^*&.&&&&&&&&&&&,,,&&&&&*-=--,,-",
"#{[;[>[[+[[[{22&>>~#########&&~[':<4'+;{-=]}}__/!//!|!]&{{>>>>;+,,&&,^_]^*^}$_/((],##&&&#&&,&#####&&,,,&&&,-]]-*#&&",
"{{[;[[>>[[[{22&#####&&&&##{##&>;4::4@'{&%//}$_((!//!|/,['+>{{>;;*,&#,__}**^$_/(/],#..#&,#&&&&#####&&&&,,,,,-=]-&{{{",
"###{>>>{>>>2&&&#{~~#####&#>>~>;':@''@'#-/(/}}_//!/_]]-{+:'[~~>;;,&##*//}*}_(((__,&##&&&#&&&&#~{###&&&&,--,,-==*#{{{",
"{,*{+;>;~>[{&&2;[[[[[>>>>&&>;;':@'++@@.}!_}]____//%-{;'@<:')>)++;.#,}(_*#$(_}_},##~>>>>>########&&&&&&,,,,-==-&&+;>",
"#*^#;)~~>>>#&&{[{>>[>>{##&&>[+@::@++++,//_-]_]--//%,{>;+::';>+++)#,^_($**(($*}*##~>>>~~~########&&&&&&,,,,,---&{[>{",
"&^%,))#&>##&&#{{#{{>>{#&~>>~>+@@'++;;;,__}*}]-*-%%-&{;;;@:@)>++>##*/(($}_(($**&{#~~>)>>~~~######&&&&&&,,,,&,--&{{{{",
",^%*.;{##&&,&#{###{{{#&&~[[~>+'+'+;).#,}_**---&&]==,#;++:<@>~;;##&^!|_}}(!(}&,&{&&~>));)~##########&&,,,-,&,--&{{{>",
",^%,.;.##&,,&######{##&&#>>~>+';:')#,^_/_}-}-*&&-==-&;'':<@~&~>&#&^!|_}}/(_*&,&#&&~>)))>########{##&,,,--,,,--,###{",
"&,*,#..#&&,&##{#########&~>>[+'+@;&*^%__}}]_]*&&&&&&>'@:@';#&###;#^((_$$__$,&&&#>>>>>~~###########&&,,,,,,,,--,&,&{",
"#&,,&#&&&&&##{{{{{~#~~~~>~>+'++'+#^%^-****_(/*{[[+++'@@+~&&####{;&}_______^,###)+;)>~#####&&#&&&&&&&&&&&#&,,,&,,,#{",
"##&,,,,*####{{[[[>>#~~~>+[;''[[+@{^=^**&&*/!!-['{+@@@@;&-=-{;{{++&]]}/(((_^,#~)++;>~####&&&&&&&&,,,,&&##;#&&&#&,&{;",
".&&&^-&&#&&&#{{{[##>[>>[++++[[++'&%/^*&#,}//*[;;{++;~##&,#,{;[';;&]/__/(_}*&#~~~)>~&,,#{&##&,,&##&,&&&&{{&,&##&,&#;",
"+#,,^,&,&&&##{{{[##>[>[++++'@@+{;,//_**&**]^#'';,&###&,,,#&{;{+{&,-}}__(_}*&&&#~~~&&,,#{&&##&&&##&&##&#;{&&#{#&&~>+",
"+#,,-,&*&&&#{>[>[{#>;+'':'>>+@@'{-//_^*****&;';#==-#>#,&,#&{[#;{&&,-_/_$}*,&&&#~##&&,&#{{&&{{#&#&&&##&&#&&&##&&&;+'",
")&&&,,&,&&&#{;>>[>>>+'@@@;~#['''&-__}-**}^*,#{&=/!={+#,&&{&{{#;[{#*_!!_**&&&&#~~~##&&##{#,,#{&&#,,&#&,-,---,,-,&'++",
"#&))&,#&&##{;;>>>{>>;'@@~>+'@+{&&]__^-}*^^-*&#,%//-;'{&&&>&{{#'+[&](!(}*&&##&##>>#######&--&#&,&&&{{#-%=%%%==-&>'++",
"##++&,####{[;;>~#{>>;''+++''+{&,-]_]-}}}***,#{#&,,{@@+#&&>&{{#+'&-=__]-**&&#&&####&&&&&,,,,&&&&&,&#&-/!/%/%-,&{++++",
"))++&&##{>;;;>~&>[[[+@'+@'+~&,&&-]]-*-}}*,,,#;;#{;''+;{#,>#[{#;;----*****&##&&&##&&&##&&,##,,#{#,*-=/!!!==-&##{+++>",
"'++)&&~&;;;;;>~,;'''':@'+[>#&,,*-]-*&*--,&,&#;{#{;+[#&&,-{#;[&{#,,&**--**&#######&&#{{#&,{;&,{;{&,-_!|!=&&&{{#&&+)>",
";::>,#>&)>>;;)~#+;#>':'>+[&-=,,-]-*&&-^*&&,,&{){{###&&&,->;&&++#&##&*-*-**&##&&,,&##&&,&,#{&,#;'#*_/!!/]&,&#&,&~+++",
"'@'#,,&&>####&,-{#&&;';&#{#-=-&&---*-==--,,,#{>{####&&,,-&#,#;{,#{{###&-^,##&&&&&&&&&&&&&##,^-&&,^/(!!/-&,&&&,&>+++",
"@';&--,&&&,,,,--#&,,#;#,,#{,=-&{&*--]_=--,,,&{{#&&&&&&&&>>;>[>,=&,--*&*__^,&,,,&&&,,&##&,#&*%%=^^_//!!_*&&&&,,&)''+",
"@;&,-=-,,,,--,-=,--,&#&,&{{&--,&&*--=]-,-,,,&#{#&,,,&#&&>;+''>&,&-(!/--__]-,&&&&&,**&##&,,&,^^^--^}_(!_*&##&,,~;@@@",
"+&,,,==,=--====%-==-&#&&&##&,&&&&--**-*&&&&,,#{{&,-,#>#,-&;'+>{;*^%/=&#&]]^,#{#&,*^*,##&*,,,,*,,,**}/!/-&&#&&#;'@@@",
"#,-,,==-%--_/%/!-==,&&&&&&&&#{2&---&&&*,&##&,&###,-,{[>&&~+';{#{(/%^&;.&___-,&&,,***,&&&,,,,,-*,&,*-_(/^,&##{+@@@@@",
"&,,--==-/-,-]-]_&,,##&&#&###{{{&-]-&&&---&#&&##&&&&##>>>++++;;{&((%-{;#^/_]-**,&,,,,&&&&&,,,,--,&,**}_]*&##{;@:@'''",
"&&,-==--!-&&&2#&{##{{##{#{{{{{&*]]]*&--]]*####&,&#{{##>;;;>>;'+#,^%*;'{]/-&&**#.,,&&&&&&#&,&,-*,#,****,&{{{{+::'[[>",
",,,,-%_==**--&2{{{{#&,&#,&#{;;{-_/-&&&-_,#{###{{&&&##>;+;>~~>;;;+)#++#-]]-**&&*-*,,,,,,,&&&&&&##.,^***,&{{#{;'''{##",
",-%_%=,#&&&--*&&&###&,,,&{;##;{&]-&&]]&{,,,,#;;{,,&#~>>;>>~~>;+++~&{#,%_^****&&,,,&&&,&&&&&&&&&&{&,&&,,&&&&{+''+{#&",
",]//_-&[&,---&&&,&##&,--&;;&,{;#]-&-!/#;&,==&{{&,&&#>>>>~~~>;++++#,&,=/_-**-}-*,,&&&&&&&&&##&&&,&,&&&,,&--&{+'++[2&",
"]//=--,&,,--,&&&,&##&,--#++&&++#--*-_-##,-==&{{&&##[;+;>>>>;+++++)&&*%//-&&*]]^^,,&&&,&&&&###&,,*,,,,--,-,&>+++[[2&",
"//_-,---#&,-,,,-&&&&&&&&>++#;@+&,,#&=-#&-,,,&>){##{;;+;);;;;+++++)#&*%((]*#&*--^,,&&&&&&&&###&,,*,,---,&&&#>+++[[2&",
"//_---,&&,,,&,,&##&&&#~~~~~>+'>^=&[,!/#;;+;{&####{>[>>;;++;;;++;){#&,=/!/-&#&&&,,&&#&&&#&####&&&&&,--&~~~~>;++;[[&-",
"!_-&,-&#,,,&##>;#&&&#>>>~#~)+),%=&;,/=;+''+#&&#~{[;[~~;'+;)>>;;;{#,,,,=//]*&&#&*,&&&&&&###########&,,~)~~~>+'';{2&-",
"!_&{#,,&###>~&~;&&,&#>)>;>;'+~,-&#;{&+@+{{&,,>'@[++;~~+@+;>~>>;;{&,,&&,]_]*,,&*%,,&&,,,&########&#&,#))~#~)'@';#&-]",
"*&&&--,&-^,~~&&~~,>>&>#>>~;:@#,&####&&-=#&&&#{+'@+{>'@@+~>;;;;;.,*==*,,,-^/_&#,,,,########);;)>)~~&&)~&~;;+;>&,-=_/",
"*&&&,,,&,-&>;~~~;&;>&>>++[+'[&,&{#&&,,,,#&,,&{+@'[{[+'+>########----*,,&^^/=#.&&&&##>>>>);++++++~>#~+>~>+'';#,--*-]",
"**,&&&&,--,>)~&,>&+>,~>+'''+[#&&&&&&,,&&#&,,&{+@;{{{++#,#&,,&&&,_=,,**,&^-%-{;####&#>;;);;++;)>>~>~>+;>;'@'>-%=-*--",
"&*-,&&,==-&>~,--&&';&>>+'@@+{#,-%-&##&,,&#{;;;{{{{#{{>&,#&,&##,-/=,,,***,&*,{.###&,&#))>>>>#&,,,>;>>+;>+'+{,=%=----",
"&---&&-%-#;;>&,&>>@+~+@:''+#,,,--,{;{#,,#{;;;{&&{#####&&&&&#{#*_]-*,&,-=#{&,##,&#&,&#>{##{{#&,,,++>>;>{++#-=-,----*",
",---,,=%&;+;~#~>+[@[&':<:'{&-,&{#{;{#&&#{{#&&,,,##&&&&&#,&#{{&-/-**&,,-^;;#,&,-&####{>##>);;;;;;++[{[##+{&==,#&-_]-",
"----,,-=&{{##>)>+[@[#'@@'[##&,#+&#{{#&#{&&&,,,,&&##&&&&&,#{;{&-_-*&&**,,;;#,,,-###>;;{#&{>))));+#{{#{&&{&-==,&,=__]",
"-----,,,##&&#++;;;<@+:@+&,,{{,-#/=&####{=-&###&&&&#&&,,,&{;;{&*}]*#&*-,#{.&-,-,)&#;;;#&,&&&&&,&&-&&##,-&====--=_]}-",
"----===-#,&##);>''@+#,#'[{&,,&#&=-&{;;#,-,&#####{##[;{##{{;;{&*****--&#&;.##,--,&&&&&&&,&,,&#{&-,&&&,,&&,,*-**]/]--",
"--,&&#;+;#{;#{;#'#,#''#-&##&--&{;+++;#&&&&&&&##{#&&{[[{{;{&#&-]]}-*,&..#&,&#)&-^,&&&&###&,,&###,,&&&,,**=^=_]*-]***",
",,,&&{+';#{;###&#&&{[>##[#&&#{#&{>{&,-,&>#&&##{{#&#{[++'+#----__]^,#;'+#&**#+;,^,,,&&#{{,,,,,&,,*,&&,*^^_===^,##,,,",
",,,,,#;+;##{##{&&[+{--{@'{,&2{&,)>{#&#{;;{##{;>{###{[+'''#%%--^_^,#;'';##,-&))#,,&&#####--------^,&&&,--/^,**&{.&,,",
",,,,&#;+@{##{;+#+[#&&#[+#{[#-%-[+;>#>>##;)>;++)#&&&&&{;++&%%-,*-,#;+;#&,&&&##,,&&##{#&,-,,---,,,-,&&&,*^_*&&,,&&,,*",
"&&,,,,&#@{&##{{,{{##{[[#&&##,-&+{###>>#,>>;+++>#&##&&#[;>,%=-,,,#{;;#*^*^&..,%^,#{{{#,-=&,,&####,&&&,*^^*&##&,,****",
"&&,--=-,{&&#&&#,,{+[#&##{&&{[{#{##)+++;;#>;++;>##{>##>;+&,-,,,,,#&&&*=^,-&;#^(%&{{#&&,--#&,&##&,&&,*^^^^,#.#,,,*,,,",
"-----,&#,,#{&&#&#++[&&,,&&{+{,,#-&#>#&&&&#);;>>##{{##>;+&,,&&,,,#,^^^^-,&{.&/!^;{#&,,-,,#&,,&&=/,,*^^^*,,&&,***^,&&",
"*--,,-,#--#{#-,{+''+#&#[{###&,-,,&&&,*-,.&&&#&#{##&&#;>&&##,=-&&#,%//=&;'{#&%%{:+#,---,##&--,&,-&,--,&&&&{{,^-*,&&#",
"&*-*--,#&,#;;&&{;;;>####,--,,-==,&##&&&##&&&&&&#####{+;#,&&-=,&#,---,,#{@;;;#{':&,,&&,--&,,,,,,,&&,,&&&,&##,-,,,&&&",
"*----,#;{&#;+{#{;)&&#&,^-^-,,*-*-,####{;{####&#{####{[#&,&,--&##--,&###;#,,&,#{,==-&#&-=,,,,,,&#&&##&,,,&&,-,&&,###",
",--=-&{;{##;+{##;#,-,,^%**,&&,,,-,&####{{##{###{#{{{{#,-,,,,&#&&,-,&&&#;&&&&,##%,--&&&,,,,,,,&&#,&#&,,,&{&,-,&&&{##",
"&&,--&#>>{{;;{###&-^%^**,*,&&,*,&&##&&&&####&,&#{{;;[#,-,,&#{#&,--,&&,&#&&#&,&#=#&,&&&&&#&,,&&&,-,&&,,&{;#--,&##{#&",
"---,&)+;>>;;;{#&*^^%%^,#&,,&&,*,{{{###&&&&&&,-,#&#{;{&,,,&#{{&,,=-,#&,--,-,,=-&-#&&##&,,#&--&&&-,&#&&&#;{&--,&&&#&-",
"%=-&>''+;>#{;{#*^^^^^*,###&##&&#{{{{{{###&&,-=,#,&{[{,,&,&#{{&,&=-,&&---{&&#&&##&,,&&,,,&&,,,,,,,&###&#{,--,&,,&#,=",
"-,&#)++~;#,&{;&_^^^^**,,#&,&&&&####{{{{{{#&&--&{&#[;{,,&,&#{#,,#,,----,#;,,#&,,,&-==---,,,,,-,,&,&###&&&=%=&&,-,{&=",
",-&'+~&;#&&##&=/***^*,,,##&&&#&&&#{{####{#&,,&#{{{[[{{{{####&,&&,,,,-,&#{#,--,&&-====-,&&&,,-,,&,&#&-=-,,---,,,-&,-",
",,#+;~~;>>#&,-=_,,*=^,&&##&&&#&&&&#{#{{[{{######&#{{{#&&####&,&&-,,,,&#{#&,--,&&,----,&&&&,,-,&&,&&&,--,,---,,--&,,",
"&##{>#~>>#&,-==-&&-=-&####&&##&&&##{{{[+[{{{{{#&#{[+;{#&####&,&#,,-,&##{#&,-,&&&&&,,&&&&##&&&##{&&&&&,,,,,--,,-=###",
",#{##;>#&,---,&&#&,-,###########{{{{{{[[[{##{{#&;;;++;{##{{#&&#{#&,,&##&#&,,&##&&&&&&&&&{####{{;#&&&&#&&&,,,,,,-;[{",
"-#{{{+;&^==-&{#&###&#{>###~>{{##[>>{>[[[[{###{{#;{{{{{#&#{;{&&#{#&,,,&###&&&###&&&&&&&&&#&&&##{##&&&###&#&,,&&,,;{#",
"-#{[;+;&==-&{{&,&{[[{>~&#>>>>>>>>>~>[[;;>>~###>>>##&###&#[+[#&#{&,--,&#{&######&&&&&,&&&#&&&#{###&&&#{{#{#&,&&&&;[#",
"#2[;;;{&=,#{#&,,&[;[{##&~>[[[[[[>>>>[;[>[;+[>~>[>#&#~{&&#[+;#,&#&&-==,#;,#{{#&&&#&&&&&##{###{{{##&&&##{{{#,,,&##;[#",
";[{;;[#&=&;;&-,&&[+[#&&&~>;+[[[[[[>[[[>#['@'[>>[&&,&~~&-&>+;&,,&##,=%-&{,#{{&,,&##&&&##{{#&&#{#&&&&&&#{;{#,-,&##{#&",
"{;;;;{##/&#-%,{{>[;>&#>>>[>>>[;[+[+[&>+[';++>{{#&#&&&&&,&>+~~>=,-&&=/=&#&#{#&,&#&&&&&&#{&&,&##&&,&&&&#{;{&&=-{&,###",
"{;+'+{&-=&&--#;>&>>~~>>[>;[>>;;;+[;[&>+;+;++~#{####&&#&,#>+>>>=,,##-%-&#####&,&#&&&&,&##&&,&&#&&,&&&&&{;#&&=-{&&{{{",
"{;'@+{-],&,-&+'>,~>>~>;;>;[>>;;;;[[>~>'++[++##{####&&##&>;'>>>=,&{{,=,#{###&,,&#&&&&&&&#&&&&&#&&,&&&&&{;#,&=-{#&{{{"};
