/* XPM */
static char * DarkMetal_xpm[] = {
"52 62 12 1",
" 	c None",
".	c #727272",
"+	c #777675",
"@	c #777777",
"#	c #7A7A79",
"$	c #6F706F",
"%	c #7A7D79",
"&	c #818181",
"*	c #878787",
"=	c #7E7D7D",
"-	c #8A8A89",
";	c #8E8E8F",
"..+++@@+++@+@+@@@@++@@@@@@@#@@@@@@@@##@@@+++.@+@+..@",
".....++++......$$.$.$............$$$$$$$$$...$.$...$",
"%%%%&&%&&&&&&&&&&*&**%*&&&%&%%%%%#%@@@@@@@++++++@+..",
"%%%%%%%%%%@#@%%%%#%%#%@@#@@@@@+@+@@@+@@@@+%%@@%%@%%%",
"%#%@%%&%%%%&%%%%&%#%&%&%&%&&%&#&#%%&%&%&&%%&&%%%%&%%",
"=%%%%%#%#%##@@##@@@@@#@@@#@@@##@#@@#@#%##%%@###%%#%#",
"&=&#&=&&=&%&&&&&&=&&*&&&&&&&&%&&&&%=%#%%%%%#%######%",
"+.+++@+@#@#@@@@+@#@@@##@@@@%#%@#@@@%@##@#@@##%###%#@",
"@@@@++++++++@@@@@#@@#@@@@@+@@@@@##@@@@@@@@@++@@@+@@@",
"%#%%%%%%#%%%#%&=&%&&%%#%==%%#%%%#######@#@@#@@@@@@##",
"@@+@@@@@@###%#%%%%=%==%#%%#%=##%#%%###%#=%=%%@%#####",
"&&&&&&=&=##%#%=#==%%&&===#=##@@@@@@@@@+@@++..++@@+++",
"@#%=#######=##=%%=##=%&%=%===&==&=&&&&&&&&&&&&%=&&&&",
"#@@@#@@@##@@+@++@##@@+@@@@##@##%###%%#==&====%#%####",
"==&#&&&&=&%&&&&=&&&&&&&&&&&&&&=&&%=&==&#%%###=%#@###",
"@@+@+..+#@+++@#%#@########%#####===%&&%&=&&=&&&%&%%=",
"&&&&&*&&&&&&&&&=&&=&==&=#=====&==&#=%&=&%#&#####@@@+",
"@+@+#@#@#%###@#%##%######@#%%%%==%&&==&%&=&=#&=&&&&&",
"=%&=%=&&#&=&%=&#&====%=&&====#==###%%#####@@+@@@@+#+",
"#=#%&=%=&&&&&&&&%&=%##&==%##==%&=&%==%===%=%&&&=&&&&",
"#%=#=#=%####%@@@@#@@@######%==%%#=&%==%%=%=##=%#@##%",
"&=&&&&&=#&===&&&=&&&&&&&&&&&&&&==&=&====%&=#####=###",
"@@++@+#@####==&==&&&&&&&&&&&&=&&&&&&&&&&=&&&&&&%&%=&",
"@@@@@@##@@@@+@+#@+.++++..$+..+.....+@+@##@@@@++.+@++",
"=&=&&=====&&==%&=&=&&%===#####@@###@###%=====%#=##%#",
"=###%#%@##@@###@#@#+@@@@#%=%%=&===#&=&=&&&&&&=&%=%=#",
"&&&=&&&&&&=&&&&&&&&&&&&&=&&&&=&&&&&&&&&=&%==&&&=====",
"==%%#==#@#=#######%##=##&####%######=%%===&&&=&*&&&&",
"%##@@@##########%##=##@########%%#==&#=&&&==&&=&*&=&",
"*&&&*****&&&&&&&&&&&&&&&&&&&&*&&&&&&&*&&&&&&==%%%==#",
"&&&==%====&=&===##@==&=&%&=&&&&&*&&&&*&&*&*****&*&&&",
"+#=====%&=%=#==#=#=&==&=&===&&&&=&&&&=&&&&&=#&=&&&&&",
"==%==&=&&&&&&&&&&&&&*&*&**&&*&&&&&&&==#@@###@##=##==",
"&&&**&*&&&&&****&**&&&&&&&&&&&&&&==&&=&&&=&=&====#%#",
"====%%&&&&&&&=&*&=&&&&&&&=&&&&&&*&&&&&&&*&&&&****&&&",
"#=##=#####=##&##=%=%=====&#======&=&==%===&=%###==#&",
"&&&&&&&&&*&&&=&&&==&==&=&&&&&&&&#&=&==&&%%==&#==####",
"&=======&=#=#%###&###====%==&&=&&#&&&&&&&&&&&&&&&*&&",
"--*****&******&*&&&*&***&*&&&*&&&&&&&&&&&&&&*&**&**=",
"*&&*&&**&*&**&*****&****************&&**&--*-*-*-&-*",
"*-******-*-&-***-*-****-*-*****-******&*****-*-*-***",
"&&&&*&&*&&&*&*&&&&&*&*&**********&*****-*-*-***-*-*-",
"&&&&&*&&&&&&=&&&&&=&=&&&=&=&=&&&*&&&&&&&&&&&&&&&=&=&",
"*--**---*-&-*&*&*&&&**&&&**&*&&&&&&&&-&&&&&&&&&&&&&=",
"**-;***-&-******&*****-*-****-**-*--*-**-*-*-******-",
"*&&&&&&***********&&&&=&==&===&&&&&&&&*&&*&&&****-*-",
"-*-**-****-*-**-&*-*****&*&&&&&&&&&*&&*&&****&*&&*&*",
"**&**&-*---*--**--**--*----*--*******&*****&&*&***&*",
"**&&*&&&&&*&&**&****&***&***&*****&***&&&&&&&***&***",
"*&***&*&&&&&&==*&&&&*&&&*&&&&***&**&&&**&&*&&&&&*&&-",
"*&***&***&&***&**&&****&-***&*&*&&**&&&**&*&***&**&&",
"*-***-****-****&**&&&&**&*&**&*&&**&**&&&&&*&*&*&**&",
"=&==&=&&&=&&&&&&&*&&&&&&&&&&&&&*&&&&&*&*************",
"*&*&&*&&&*&*&**&*&&**&**&**&&*&*&*&*&&*&*&**&&&&&&&=",
"&&&&&&&&&&=&==&==&=&&&=*&&*&&*&&=&&&&*&&*&&*****&*&&",
"=====&==========&====&&=&=&&&===&=========&=======&=",
"=&=&=&&&&&&=====%==&#===&=&==&=&=&==&=&&&&&&&&&&====",
"####=%==##=======%=&========#==###=###@@+@#+##+#=###",
"=%===#====&&%=&&==%==%=%%#=##@#@@@@@@@@@@@@++@++++@@",
"++@@@@#%%#######%##=&#%===##%=#%#####=############@@",
"@@+@@@@@@@@@@+@++@@+@+.++@@+@@+++++@@@++.+++.+++++..",
"#####@##@#@@+@+++++@+@@@#@@@@@@#@#@+@+@@@@@@@@##@@@@"};
