/* XPM */
static char * Golden_xpm[] = {
"10 200 33 1",
" 	c None",
".	c #95867A",
"+	c #D8C6B8",
"@	c #C3B2A3",
"#	c #B7A696",
"$	c #AA9E8C",
"%	c #EDDACE",
"&	c #A69A89",
"*	c #CEBEAF",
"=	c #DECEBF",
"-	c #9E9282",
";	c #BFAE9E",
">	c #CCBAAB",
",	c #E9D6C9",
"'	c #9A8E7E",
")	c #AE9E8E",
"!	c #A29283",
"~	c #B2A292",
"{	c #BBAA9A",
"]	c #DECABE",
"^	c #A59686",
"/	c #CAB6A7",
"(	c #D2BEB1",
"_	c #E2CEC2",
":	c #C6B6A7",
"<	c #E2D2C4",
"[	c #DACABA",
"}	c #9A8A7B",
"|	c #D4C2B4",
"1	c #968A7B",
"2	c #9E8E7F",
"3	c #AA9A8A",
"4	c #E6D2C6",
"..........",
"1111111'11",
"22222'2222",
"!!!!!!!!!!",
"&&&&&&^^&^",
"$$$3$$$$$$",
"~~~~~~~~~~",
"##########",
"{{{{{{{{{{",
";;;;;;;;;;",
"@@@@@@@@@@",
"::::::::::",
"//://///:/",
">>>>>>>>>>",
"**********",
"|||*|*||||",
"||||||||||",
"++++++++++",
"+[+[[+[+[[",
"][]]]]]]=]",
"==========",
"_<<<<<<_<<",
"4444444444",
",,,,,,,,,,",
"%%,%,%%%,%",
"%%%%%%%%%%",
"%%%%%%%%%%",
"%%%%%%%%%%",
"%%%%%%%%%%",
"%%%%%%%%%%",
"%%%%%%%%%%",
"%%%%%%%%%%",
"%%%%,%,%%%",
",%,%%%%%,%",
",,,,%,,,,,",
",,,,,,,,,,",
",,,,,,,,,,",
",,,,,,,,,,",
",4,,4,4,4,",
",,4,,,,,,,",
"4444444444",
"4444444444",
"4444444444",
"44<4<44<4<",
"<<<<<<<<<<",
"<<<<<_<_<<",
"<<<_<<_<_<",
"__________",
"__________",
"_____=_=__",
"=_=_______",
"==========",
"=]==]]====",
"]]]]]]]]]]",
"]]]]]=]]]]",
"]]]]]]]]]]",
"][][]]][]]",
"[[[[[[[[[[",
"[[[+[+[[[+",
"[[+[[[[+[[",
"++++++++++",
"++++++++++",
"++++++++++",
"++++++++++",
"++++++++++",
"|++++|+||+",
"++|+|+++++",
"||||||||||",
"||||||||||",
"||||||||||",
"||||||||||",
"||||||||||",
"|(||||(|||",
"((((((((((",
"|(((((((((",
"((*(*(*(*(",
"**********",
"**********",
"***>*>****",
"**>***>*>*",
">>>>>>>>>>",
">>>>>>>>>>",
">>>>>>>>>>",
">>>>>>>>>>",
">>>>>>>>>>",
">>>/>>/>>/",
">:>>>>>>>>",
"///:/:/://",
"/://:////:",
"::::::::::",
"::::::::::",
"::::::::::",
":::@::@:::",
"@@@@@@@@@@",
"@@@@@@@@@@",
"@@@@@@@@@@",
"@@@@@@@@@@",
"@@@@@@@@@@",
"@;@@;@@@@@",
"@@@@@@;@;@",
";;;;;;;;;;",
";;@;;;;;;;",
";;;;;;;;;;",
";;;;;;;;;;",
";;;;;;;;;;",
";;{;;;;;{;",
"{;;{;{;;;;",
"{{{{{{{{{{",
"{{{{{{{{{{",
"{{{{{{{{{{",
"{{{{{{{{{{",
"{{{{{{{{{{",
"{{{#{{{{#{",
"##########",
"##########",
"##########",
"##########",
"##########",
"##########",
"##########",
"##########",
"####~#~###",
"##~###~###",
"~#######~#",
"~~~~~~~~~~",
"~~~~~~~~~~",
"~~~~~~~~~~",
"~~~~~~~~~~",
"~~~~~~~~~~",
"~~~~~~~~~~",
"~~~~~~~~~~",
"~~~~~~~~~~",
"~~~~~~))~)",
"~~~)~~~~~~",
"))))))))))",
"))))))))))",
"))))))))))",
"))))))))))",
"))))))))))",
"))))))))))",
"))))))))))",
"))))))))))",
")3))))))3)",
")))3)3))))",
"3$$$$3$3$$",
"3333333333",
"33)3333333",
"33333333$3",
"3333333333",
"3333333333",
"3333333333",
"&33333&333",
"33&3&333&3",
"333333^333",
"&&^&^&&&&^",
"^&&^&&&^&^",
"^^^^^^^^^^",
"^^^^^^^^^^",
"^^^^^^^^^^",
"^^^^^^^^^^",
"^^^^^^^^^^",
"^^^^^^^^^^",
"^^^^^^^^^^",
"^^^^^^^^^^",
"^!^^!^!^!^",
"^^^^^^^^^^",
"!!!!!!!!!!",
"!!!!!!!!!!",
"!!!!!!!!!!",
"!!!!!!!!!!",
"!!!!!!!!!!",
"!!-!-!!-!-",
"-!!-!!!!!!",
"----------",
"---2--2-2-",
"--2-------",
"-2--2---2-",
"2222222222",
"2222222222",
"2222222222",
"2222222222",
"22'2222'22",
"2'222'222'",
"''''''''''",
"''''''''''",
"}'''''''}'",
"'''}'}'''}",
"''}''''}''",
"}}}}}}}}}}",
"}}}}}}}}}}",
"}}1}}}1}1}",
"}1}}}}}}}}",
"}}1}1}}}}}",
"11111}1111",
"1111111111",
"1111111111",
"11.1.1111.",
".11111..11",
"..........",
".........."};
