/* XPM */
static char * ground_xpm[] = {
"100 100 33 1",
" 	c None",
".	c #D7BDA2",
"+	c #E7D0B9",
"@	c #E4CDB5",
"#	c #C1A18B",
"$	c #FFFAF0",
"%	c #FEF6E9",
"&	c #FDF4E7",
"*	c #FAEDDD",
"=	c #F8EBDB",
"-	c #FCF0E2",
";	c #FAF0E0",
">	c #FCF3E4",
",	c #F6E5D4",
"'	c #F7E9D7",
")	c #F4E5D2",
"!	c #F3E2CF",
"~	c #EAD6C0",
"{	c #DEC6AD",
"]	c #EDD8C2",
"^	c #F2DECB",
"/	c #D6B69C",
"(	c #E3C9B0",
"_	c #D1B699",
":	c #EFDDC9",
"<	c #CAA98D",
"[	c #FFF7EB",
"}	c #DCC0A6",
"|	c #CFB095",
"1	c #FFFCF4",
"2	c #FFF7EC",
"3	c #FFFEF7",
"4	c #BC9A8B",
".+@#@$%%&***=*-&&&&;-*>>&,'*))***%%;*;>;'*-=>-=!-&!~,->*===*~~!&%>***==='*---=,*';~{]]-)^^./(@(_:^:+",
"<<.<'$&>[>;*'*>&%&%>&--*))'-*'';,'****-&;'''*''^^&*!^!,'*)!^+^)&-='==')!''->-*-;'>>!+}]^){|]&%&&!:@_",
"-!~{*1$[-;;*'=>&&>&->=',,*--*,)-)';>>;*=*^)'*!](~&&-^:~]~@]]]*,=',)'=''',)*>*-&*%';''^@}|.!%2&;>**='",
"2-~}}2$%)'**'=**&;*''!)!*&%>=),;!*>-**,::@^=*,!(,%->,)(//.{{@'''%-,,=*=':'>-'=-*;!;'*^{~=*2&*&&&->&&",
"'=:+<'$>=*--==*=-*=,')''=*%&',*'!'*'!,,)-'**':~_'-!,:^{|<{{+@!*')~{@^,:@@*>==''>='&!:{/-=,&%-*'*&&&&",
")^:+|}&%>---**---*;*;'**;*&-^!=!''*-='=-='*=)]~}!']~.}._=%--^~:@{{(~]:~(]'!:->'*>*=:!@{*,'&&')*[&>-=",
"=!:](<*3%*=***-&-*-**!,'=*;':!'!**>&-==-,,=!:{{}}@@]~^*-22*-!)**,-%&*',)'':]*&*=>-='!(^*,>-**-&>====",
",*:,:#(22*'***->-=*,!~]:@)','==**--=,,')!:]+@/{:&&&&>-&**'!,!'=--&&>----*--')'-%%>''~.*>:-**>>%&*=''",
"=)=^+_#'$%!!*,&%]]:)='!,''-*=)=====,!,,)!+{.+^!%->*'*=','*''!'=-'*-=->'**;%>!]'%2>-']]>,!-&&>%;*=***",
")'**){|{*'*>2,,]!'='*-*===-=')->',^:^^]@}..]&2&-'*==**===-=')=***=->>*'*->>-*=,~,***+],]=&--;%%[****",
"=>'-*:]{(^,$,)]^*>-*****''*,!^=*^::^]{.(}:)>%->-)''=;-***-**'>>>==;%>*;;>-'=---::!),(~!^&%***>>[****",
"&%'*')-!~]{!!&)'&-***''-!!',!:!:)^~({}~*-&--*''!,'''---**&-*'&&&*>>>*;%=**=>;'>-,]~{(+*-&&***;*>=***",
"[>>>')=,'~(|&%-'>-=*-**-',*=*')]:]@(]'->&**=*-'!*','->-;;&-=)***%[&>*;&,,;>%*!==*:{|@,%%>>=;;>;>==*;",
"%;%%=)!=']~<*2*'->-*->*'-=**&>*]@{~-2%-=',>*'=,**=)'>&--;>;*,*')[%>&>;;'*;*,!'*'=)(.~2[>&>*;;>*>=**;",
"%*>>=,,-*^@_+$=!-&-**-*=-=**&&*]+{)$2**--'**'''==',=>>->->*;=*):;;>>>-''-'']:>-*,!(}:$&>%%**=;*;*;>>",
"%;=*='=-'!=@/-=)>-*=**;%*'==&-=~}~>2*-%'==*>'!;;'''*--;>>-*-**:+);&**-!:=:;*;%'''~{|:=*%>&**=>;>;>>&",
">-**-;==,):~_:!'%**;*;&**>**>*)~.]%1*>-^*'**,)=-==*-****>>==&-!]@*-*!:]':'!~][}@(]*'-:'[-'>-=>>--;>%",
";-;->;=*'')]{]^:&,'>;*---&**-=^@{'[$*>;)-''',,'=*'*;***=*-*'*'!!'==*^!!,)!*==!!'&&&*'::]$%-'*--2;*->",
";>-->;*-*=*!+{:!):'>>--*--**-=^(@>[>*-==*)!,'=*=;=*;*''',>>*'!!'>)!*!'*-='--=.*[2%>*'*)@*1&'%2-=**--",
">>-;-**-*=*^@<,2>;=):,--**'==)]{([[**>';*!:)'*---***'),'=--=*'!)%*'>','*-**,{{>%->>*-*!@@$%=----'=;>",
"--;;>;===''+.|>3&>*!~]'-*=)!^]]{{22*>>,--,!),=**-***)!,=-;,)**,!%>=>-'!->'=+|*$**>-'%':~_~^*&',,',=;",
"*;;>&-',**!}_+&2-;-*!+~)*,^^]]!]{2$&&>!*>='','*-;;;=!)=*=-*,''=>->'*--'>**)_:1%**-=^$*^!!]@]!'->;''*",
"=*->&-''*']{.'&-$%>*:}.~]~~:~]!:(%$%&-!'-===''->;;;')=*='>-=''*%>>=*'*,,'=((2$*>>&*,&=!,'*>=!!*$>''>",
"=*-->;=*':@@(&&2>>-*!@}+..{~((~((>$2>*!,*''=,,=*->;',**,-;''>&*=''**!'=)-@#&2*[>-%&-*='=-=')!~@*;)'[",
"-'&*-&-,!]{(>-=&'-=:]!=':)!]~]]@}*$>&*,)==)!'''>>%>''''',']%2=!~)*'::,*;^<!2--*>-&>>''),'-'=**:]:]&-",
"%'>**-'+:}.)%')-*','===='**==*=!},%>*,'===)!'''*),!!'*;--'*&&!'],-')!,*)}@2&'-'>-&>-'='=*-'==*=>!]!'",
"*'&*',!+}|{'*>&&*)!->=,'->----=){+,-'=*'**)!)!!',!:!*>>%-'-&),*)'-!)))*~|>%-*'>--&>*)'''--=*=='-*^+=",
"!!!:'!@_<(,%>$%'','**',*&-===')!(}]-,**)=*,!)!^'*')=>&>[*'*-^-*=-*!!!)!}]$='>=%*&%-*)=''*-;&-;)!=:{,",
"+^]{~}||:-[1%;!!,**',*->>*''==',~(^&!'-'=*'!,),-',)*>--%&'-!=**=%=,^),(<2&-,*&*-&&**'-**'->&*-'!!](+",
"{:]/|<@*-$[&;):*=-;,'>&;;*'***''!+],:'-*=*,!,))*',,*;',=&='!=*'*&'=)',._2->*'-&>&&**'-***&>=]!)!)]+{",
"]+{..+%$=%%**==*=;-*-&>*;****'))=]++],-===!!',!'*''*;')'*',&'*=&*=='*:.(--=&**$>&-'=,''*--=)~:^:!+(/",
"~}+]+:1%2%&'*';;!'>[2%&>>;*''=''=)^@~]''',^!**'=,))*>>-&*!&$>,&&-&*='@.~%='->>&->;'=,'=>=)!',*=!,+(}",
"~>*!_!$%2>*')';;*'=&$2&>*>==,!*=-''':+~]':-2%*===,,,,;&*&;'=--*-'&*=!~<!%>'*;[&>&*)'==*>)='==,=!^~(<",
"'%:+(-2'>;**=;>;='*&2%>;-**,),'*%=,'='^@(,3$%**=','')*%%%;,,*-*-!*)!!]#'%&*-;&-;*','***>**',!^!^(}+(",
"&&@~)2%'>--;;>>=='*>&>-;>=;''*'-=*-'!,'!{]>21>'=:!-&;;>;&;,,==''*!'*^~|!%%--*>*=)'*****;'!!!!:(}/]%-",
"&=@*&%&%%>>**>>'*****;->>*-***'*===')''!.,2-=^:'''->**>;**==**,!-!-%,~_:&&;-=;'''*;**=='*!:@}{}@)-2=",
"&!~%&->&>-;**--'====**>%>&*;=)''*'*--=!]{:2%={~2-=*>**;=';-*--*=,****~|=%&**'*',=**==='!~}}.~=-%%,]=",
"%!+&->>'*******','***->&&&'*=)='**&%-)!'.:%>--&&*)'>-;*);>-==***,=,,:{(=%%**'*',==='''!]~~:)-2-''~@%",
"*!@>&&-=**;-*'===*---->>>*'**=''-'=-*===:@*2%>&-*!!''=;*-&-'=*==-!!,}.',&&**'*===***=)]@~*%&*=*=^~~>",
":^~%$%-2;*;-='*>&&&>-->>&'**-;::','-*=')'.]-%%2'!]);*'*==;-*>&*)*'^!}}>=->**'*=*;;--*^@}=2&-===:!@~2",
"=@!$&2%-**>==*>>%&>>;=*>***!'='~:==&*'',:+~*&$-!!,))''''*;;2***:*!{]]~-*>>',**;*-'!,,:}(2&=!'*=:^,~2",
",!>2>&***=;*;;&-*-&&*'*%=!,,='-***)***='!]@:&-)=*'!)***;*%&%=*=+='~:^!&-;*)''!'**):!!]}]>*',=*'^^)~%",
"!'$&->=**'*-%&%>%-*->;='*)''*'->*-*>'!,*)::~:!-&-*,';>>%>[>-'*,+{]{@:)-,'>;'''**'):!:+})-=,,=,:~~:]$",
"'=$>-&--;'*>[%%>&&&-=,)'-**'*''*-*'>-*,'')=:{@-%*-*=;>&%&%*=!!]~}^+{]!,~,>-*;>>***=*)+(>-,]]:^::*=]*",
"-'1%---;*,*;%>%>;-*=,,=---'!-'!*%-'*')]:*-'']}{---**-->&>%;*)^(+@':~,%2*',^=>;;-=*=*^({%-!~~^'*-%-:)",
")!%$*,=**,=*>;>;*'!!'*>&%=!)-!,&>*,!~~~!**'*^+}@2>*>%>;%&%**&&~{-%*!'->)!!~:'*;=!,^^]{{%-=,*>&--=):)",
"~])%-'=-*'*';;>=,'',!,-%%!)=,:=;':~:!-'**''':!]_>&&&%>>%>&''>-~:--=''=']]*':!*-!^!]]^~+2&&&%%&*'=!+(",
"@:~*%--&;=*';->';=,,';---~,=~]-!='*;*&*-*'!~,^~{]>$>*>>>*>;':@{&-*->-=!(:&&='==^]:@~!:+&%%&-**--=^(}",
"(]},$-='*>**%-'&-=)'*==-]~~!=*;>%-*';=;-,*-=,!~{.-['*&-*>'=:@@=&;**&=!!{'2>>-*,!^)^:!^)&&2',**>&-)~|",
"@(/+%$*=*=)'&-'=!:~~~~]!*,!';;;>*'**>*>&*--**=^+.])*%&,)',)~{:&&;**;'!:}^&*-**',*'=*!,**>''-==&-*!]}",
"=^]@=2'===->':]^!))!!)'->'!*>>;>='-;>*>%&-;--*)]~::!'!:='':({=%-**==')]/^>--**'=*-*'***--,*;';>-=^:@",
">**]:*=%%**)@@)*=>>;**=*=!!*>>>%>--*;=>%&-**-=!]]'*,^:]:-=]@+>&'*;*=*'].=&--**=**>,^*-*&,--!*%---^]@",
"--*):^)*2)~~:=>='--*=')!-''*-;>[%**'*'-&-**--'!]+,>*,,^@=!~^'%-'*>>*-=]@-&-*=-*->=''';&;!*-)-$-**]~+",
"&*,=,:]{^!,'*&;!;>-**;='>*=**;%$%*='*=*;-->>-*,)~!--)!,:]~]*%%-**--**!@:%&-*'-*--*=*----;=>&>%>)!+:!",
"-')*=):.{=%*='=-%&-***',')),*;%[&**=-=*=;>&&-;*=^:=&'!)!@]'>%-**=**,,~(*%>-*,*=-=-=*[>'&&>>%>>-^:+'>",
"*,==!^].<,&*>>*>==,,==''~]:)*>&>*'''*'**;>&>-;**&::''==!+'%>>=**=*=)!@@$*'**!*'>>*;%>;;-*2;';;*)]+*%",
"!!,'^]+(.@&*-%*!+,'':!!=!*+[-)>;!--&>:;'>-->*'=->')~!*==:=>-=''*-*''@+)%,'*'=*&*>>-->>;-=>-''*=):{,>",
"(~!^++:)+{)=>-),]=*=!)!=''^[**>*->-&)','>-;-*==*&,,~]'-*+)***=,,!*!]+:^';*-==*>-';-->;==);;''=!](.*-",
"~({+:,=)].~'%-';!**=!''*'],%=&;=>*;%!-:'%>*****>*^=,]:!~+)=,)!^::)~~!,:=;*-===----*'**,!,',!'*!~{{-:",
"%>-*='):]{+)2&;-';'):),*!]'&*%;**=-[*;~'$&*''*-%-)=!~+:@:=':~::]!):)=*'>',='='****'^^!::]!,'*=^~(!%*",
"=-&-'!)!!~~!%>;**>=):,!,!*;%%>****;;>^]>[&-*'=-&*''::~^!,=)]:!!^^=--'-;*'!''='**==!+{}}}+,&&-,]+@-**",
"!!)))==,=^+)2***;>*'';'',&*>%*=;*;'!'];1&&&>-;--'):]:]!'*=)!=*,::!*&=**=)!,,**>-=:{.}{{}'=,^:]+@:%^'",
"%22-)!''=!@)$*-**-'''>*==*'**'=;*='!~,$2>>>>>-*=*:@{@+=***''**,!!:]*>-=>)!',***!]{/{^==*-'~(@++~,2;2",
"=*=):!=*))@!2-*!--!^^=,)-),'))'**=*>{>$'-;**;;=,,+(~~]>='**',)'-=,+:>2;>''*'=):}{+:=&>>%=->-*','*>**",
"*'*^~'->)]{!%-)~)'~({]:]^',-,'!=**,@]&%-*'';-',')^~+]&*==**'''';']:}+$2&-',!)~~:=>>>->**->=>>'=**-*'",
"***,~:'!*,:*%*^+:!~:^]@+],^)]!]^*:}}*$-='*;*->*!!^]+,%*='**=;;;--,]+@)>-'*=~}.:%-%>>->**-='*-=,*&&>-",
"-&*'::*'!^]!,](}<]!*>&*=!']@.++])](@',~==*>&>*'=!!^+&&*=';**->-*)'')(}!&-:(.]!-&%2&>;-''-!,'**!=&&&-",
"--*=,'>-::]^!:]]{=21&&-'!**>-&--'=*='~+*%-;&%;',',^@2>*==-;=;>-=*,*)+@~^!++^>*->$$&>*-'''^!=-*,*&-**",
";*>-**''!)'*>>-&]]=$-*-=*-=*'',*&*****')*&2&-*=),!]@2--*)**=;>;=''':@]!:+^>%&!,>22>-*-'=^!!-&**--*=-",
">-%-*-,,'=--&>=*'~]-'=*::!,;>*'=-,=**%>!]'->*===:~@~&-&>)***--=,!&,^{{>=,-%**,**&%;-;-=*)*'->'==,=>%",
">%%-*-**--&-**!!!~@'-%&)->;*;;;;''>>->-*':~!;-'!+{@,--%&=*==;;',-2!!~@-!>%&!,=--*>;>>>**=-***==*'-&>",
"'[%>-*-'>>&*=*)')~{-12*-;&&;>&-*),*->-'***,::!!:({~&*-&>-*,,*-**'*=*:~*-2&*!=**'';;%&&**''*,=&-%2%*,",
";-%>*==,''*-=,'**}($$%=->>>;;>>'','->*',*;*':++]@]->,-%';';&*-'--=*=>]]$%-),=)*-*->%&>-;>^==--&2%-=*",
";;;'!:::;*->*===)(]%[;%-;*;>>>>*''*-*=''=''=,]@@^-&='->*->*%-=*==>*--!{*-*!'*'--;**->-*=-*',>*-&*''*",
"*='):!,*>>>>--*'!.{22!;**'*&&>>;***'''''*''',:]:&>**='=>->*&*'*'=-*-*'~)>'~!!:'*>*'*-;='*&!:*,=**==*",
"!!:!,=;&;->>>&-'+}_,!*>'**;&&>-*''!:)**'''-&-!:^2'*>)!->*=--'-'*;'&-;=*!{._)*=>&&*=;-='''-!]),*--*''",
"!,,'->;>**;>>&*:((}(.'&%>>%>;;*!]:::'->****-*!^!*'--!*%-''->=>*-*;&;>**:~~+!)*>*>;;-*))'''*',-->*'!!",
",;-;%%;;=*;>>;!(#+&&'!~+*&2&='!]]!'=->-*>=))''*-^'*=*-->)*=%*'-;=$;*;*)=)':{.&$;;>>-'!,=-=%&=>**='),",
":->*>&->**>&>'+|}%3-==^.~'%%':]~'*->&&-='''*->;=::!=-==&)**2*,***%**,'=;:=={_$['*>>*,)'=>-*&**,=*=''",
"!&%*-%%$-;&%>){#'3->&2*:_~-%,~~]&-*-&&-*'*-;**='^~!=)*%*''%2**)>*!>%!]&!,'*@_$[-*;*,!)''*-:=-='&*=,!",
";;-;;&%&&-&%^~._1;>$[%;!@_!)~_/|~$--%-:''>*!'---~})'>-%='*-%%*,*=-;'=>>*',!~|!$,>*!~=]:)!=',!''-^)):",
"*&>,,%2->&*'@..@3[$1[>;,]}(</.~^{'--!!)]!==,-&*!@/='')';=';%-==*'**=*;*'*'>']{'*!{@+]~*'==:]~!!,:,*-",
"'**'*%%->=,~+{_$$>;&>>*:,=*:->--)..->'!:,-=:]:::{<:^'*'>>'>%*=-=-******';>>[-]~^.{,-='&)*&-*'*,''*')",
"'==*>%&>->+~{|=3*;&>,)'=,->'%%*)'~|@=-~{}@{|<.(+|(=,,=*2;';&-->*%-*=***;*%**'*:}<-$>-*&*>%--=-=-*']{",
"-2>)'&&>>){}4_1&%%%-,,*&**-*---,]>!..+}{(~]]:!:+.>&*'*>>!)';&>--%-''==*>;-*~:,=_#$2''=*&&-,'*>='--*'",
"&%-''='*,|_|@>&2$>,!'*;;*'-&*';))=*!{@]>&%2%%%-:}$-'*&&=),';%-'*>*=***;>%=''^,,__%>>-***&&*->&---&&&",
"***>&!+]._.:1$22',!)'''*>;;&=)*'=)==!&2$&--='='~/$-''*;%*'*%>''*-;*;;*;&&*)&'*]#]$-%&>>>&%>>*->$%2&-",
"=>&&%){_|{%$&%$*,!!*&-,);>*>=)''=))!!&**&*'=*-)}+2',=-)>-,-2*)*---;***>%;*-''!~4~3>%&>*-*>>%&&;>&&*,",
"&,$2'!]<|12->%&'=**=*--*[;>>;';>*^!**,*2%>**--!~($'&-:**''';>)*-%-''--;>*;=!'!]<'$>>*;>!*&>-'**;&,,-",
"==-->~}|(3$%2&*!=*=,'-%2[>>>&**='!'-*!'&%&-*-*!]_!'=,'&'***;>)*&2-,=;=*%**,'']]4][>>;;**>*)*=;;>-=*-",
";&%>=@}4]1$2[*''=**='*%$$&>*;**,:^*&-'*&-----*')(.*='*&->=>->'*%$&**;==>'='-*!!#)2>***!*>*,='*;%'=*'",
"&2$-!{.#-$--&=*----*'=>%$>>=***)!)*&*=*-'*->&&-=]|*'''--*)-->**&[2>***=');>&-,:<&%-=*>'>>>=',->>''='",
">&-,).|:1$'*%-**&-*''*>%>-&->*=!-*--='')---&&&-=](*!*=-,=:=*-;;-%%;'=*')'-&*']/{1%>;'&;>-*)'*%>;--;-",
"--*!~.:%$2&&2;-->-='=*----%>>**'>***=**=&>--&%&-!^',-''!-!=*>->>&*))=='*='=)^(<-$>%>!*=*>*'>>>*>&>->",
"->*'(.$%>&[&>=>>-*=****'>-%>-=-;''=;-&[[>-**&%%-*'!'=!!,&=*>&;%*=!]!''=>=)!^~}}1**;*)*;>>;;%>;*>;>-=",
",%!=]|2&%--=**>=-*''=***;;%%&*-*!)*>->%2-*=*>%>*&&',!---&*-%&=>)]]]]!,'*='):.|{2*&*=';;&*;*-;&--'%>=",
")>-!(_%[&&;-&;*='=**;>>>-&>-*=*&==**'>2*)'>*>-*-&-':'>--')&&*-,]]++]!=,]'!(}<|.%2-**';%;'*;*->'',-=,",
"*>:{.|1$$[>>>;*='*;>>>>;*>>-*''**)^'',--=*>*;*=*-*'=;*;>*'%%-,+}^@}.{]!!{|{<{{|@--&2&>-*;--===,,!-*'",
"*=(__~1$[%;*;***=;>>&&>;=;>;=,,=*,:)',*&==-';**--']>[=;;;;%>'~/////////<<|/~&,=(]:'%$%****']~~+]:--*",
"']{}|%%[%;*'*;*>->>>>>>>*>-=,),='-''----=';';*;%-).-1;>=>->,:{<{''=*=,:+{}(&2&=!@{{!2[*;',]../|(~-&*"};
