/* XPM */
static char * hifi_xpm[] = {
"8 256 27 1",
" 	c None",
".	c #313131",
"+	c #323232",
"@	c #333333",
"#	c #343434",
"$	c #353535",
"%	c #363636",
"&	c #373737",
"*	c #383838",
"=	c #393939",
"-	c #3A3A3A",
";	c #3B3B3B",
">	c #3C3C3C",
",	c #3D3D3D",
"'	c #3E3E3E",
")	c #3F3F3F",
"!	c #303030",
"~	c #2F2F2F",
"{	c #2E2E2E",
"]	c #2D2D2D",
"^	c #2C2C2C",
"/	c #2B2B2B",
"(	c #2A2A2A",
"_	c #292929",
":	c #282828",
"<	c #272727",
"[	c #262626",
"........",
"........",
"++++++++",
"++++++++",
"++++++++",
"++++++++",
"@@@@@@@@",
"@@@@@@@@",
"@@@@@@@@",
"@@@@@@@@",
"########",
"########",
"########",
"########",
"$$$$$$$$",
"$$$$$$$$",
"$$$$$$$$",
"$$$$$$$$",
"%%%%%%%%",
"%%%%%%%%",
"%%%%%%%%",
"&&&&&&&&",
"********",
"========",
"========",
"--------",
";;;;;;;;",
">>>>>>>>",
",,,,,,,,",
"''''''''",
"''''''''",
"))))))))",
"))))))))",
"))))))))",
"))))))))",
"))))))))",
"))))))))",
"))))))))",
"))))))))",
"))))))))",
"))))))))",
"))))))))",
"))))))))",
"''''''''",
"''''''''",
"''''''''",
"''''''''",
"''''''''",
"''''''''",
"''''''''",
"''''''''",
"''''''''",
"''''''''",
"''''''''",
"''''''''",
"''''''''",
"''''''''",
"''''''''",
",,,,,,,,",
",,,,,,,,",
",,,,,,,,",
",,,,,,,,",
",,,,,,,,",
",,,,,,,,",
",,,,,,,,",
",,,,,,,,",
",,,,,,,,",
",,,,,,,,",
",,,,,,,,",
",,,,,,,,",
",,,,,,,,",
",,,,,,,,",
",,,,,,,,",
">>>>>>>>",
">>>>>>>>",
">>>>>>>>",
">>>>>>>>",
">>>>>>>>",
">>>>>>>>",
">>>>>>>>",
">>>>>>>>",
">>>>>>>>",
">>>>>>>>",
">>>>>>>>",
">>>>>>>>",
";;;;;;;;",
";;;;;;;;",
";;;;;;;;",
";;;;;;;;",
";;;;;;;;",
";;;;;;;;",
";;;;;;;;",
";;;;;;;;",
";;;;;;;;",
";;;;;;;;",
"--------",
"--------",
"--------",
"--------",
"--------",
"--------",
"--------",
"--------",
"--------",
"--------",
"========",
"========",
"========",
"========",
"========",
"========",
"========",
"********",
"********",
"********",
"********",
"&&&&&&&&",
"&&&&&&&&",
"&&&&&&&&",
"&&&&&&&&",
"%%%%%%%%",
"%%%%%%%%",
"%%%%%%%%",
"%%%%%%%%",
"$$$$$$$$",
"$$$$$$$$",
"$$$$$$$$",
"$$$$$$$$",
"########",
"########",
"########",
"########",
"@@@@@@@@",
"@@@@@@@@",
"@@@@@@@@",
"@@@@@@@@",
"++++++++",
"++++++++",
"++++++++",
"++++++++",
"........",
"........",
"........",
"........",
"!!!!!!!!",
"!!!!!!!!",
"!!!!!!!!",
"!!!!!!!!",
"~~~~~~~~",
"~~~~~~~~",
"~~~~~~~~",
"{{{{{{{{",
"{{{{{{{{",
"]]]]]]]]",
"]]]]]]]]",
"]]]]]]]]",
"^^^^^^^^",
"^^^^^^^^",
"////////",
"////////",
"((((((((",
"((((((((",
"((((((((",
"________",
"________",
"::::::::",
"::::::::",
"<<<<<<<<",
"<<<<<<<<",
"<<<<<<<<",
"[[[[[[[[",
"[[[[[[[[",
"[[[[[[[[",
"[[[[[[[[",
"[[[[[[[[",
"<<<<<<<<",
"<<<<<<<<",
"<<<<<<<<",
"<<<<<<<<",
"<<<<<<<<",
"::::::::",
"::::::::",
"::::::::",
"::::::::",
"::::::::",
"::::::::",
"________",
"________",
"________",
"________",
"________",
"((((((((",
"((((((((",
"((((((((",
"((((((((",
"((((((((",
"((((((((",
"((((((((",
"((((((((",
"((((((((",
"((((((((",
"((((((((",
"((((((((",
"////////",
"////////",
"////////",
"////////",
"////////",
"////////",
"////////",
"////////",
"////////",
"////////",
"////////",
"////////",
"////////",
"////////",
"////////",
"////////",
"^^^^^^^^",
"^^^^^^^^",
"^^^^^^^^",
"^^^^^^^^",
"^^^^^^^^",
"^^^^^^^^",
"^^^^^^^^",
"^^^^^^^^",
"^^^^^^^^",
"^^^^^^^^",
"^^^^^^^^",
"^^^^^^^^",
"^^^^^^^^",
"^^^^^^^^",
"^^^^^^^^",
"^^^^^^^^",
"]]]]]]]]",
"]]]]]]]]",
"]]]]]]]]",
"]]]]]]]]",
"]]]]]]]]",
"]]]]]]]]",
"]]]]]]]]",
"]]]]]]]]",
"]]]]]]]]",
"]]]]]]]]",
"]]]]]]]]",
"]]]]]]]]",
"]]]]]]]]",
"]]]]]]]]",
"]]]]]]]]",
"]]]]]]]]",
"{{{{{{{{",
"{{{{{{{{",
"{{{{{{{{",
"{{{{{{{{",
"{{{{{{{{"};
