/* XPM */
static char * Kde_xpm[] = {
"5 100 49 1",
" 	c None",
".	c #E5E5E5",
"+	c #E3E3E3",
"@	c #E0E0E0",
"#	c #DEDEDE",
"$	c #DCDCDC",
"%	c #DADADA",
"&	c #D8D8D8",
"*	c #D6D6D6",
"=	c #D4D4D4",
"-	c #D2D2D2",
";	c #D0D0D0",
">	c #CECECE",
",	c #CBCBCB",
"'	c #C9C9C9",
")	c #C7C7C7",
"!	c #C6C6C6",
"~	c #C5C5C5",
"{	c #C4C4C4",
"]	c #C3C3C3",
"^	c #C2C2C2",
"/	c #C1C1C1",
"(	c #C0C0C0",
"_	c #BFBFBF",
":	c #BEBEBE",
"<	c #BDBDBD",
"[	c #BCBCBC",
"}	c #BBBBBB",
"|	c #BABABA",
"1	c #B9B9B9",
"2	c #B8B8B8",
"3	c #B7B7B7",
"4	c #B6B6B6",
"5	c #B5B5B5",
"6	c #B4B4B4",
"7	c #B3B3B3",
"8	c #B2B2B2",
"9	c #B1B1B1",
"0	c #B0B0B0",
"a	c #AFAFAF",
"b	c #AEAEAE",
"c	c #ADADAD",
"d	c #ACACAC",
"e	c #ABABAB",
"f	c #AAAAAA",
"g	c #C8C8C8",
"h	c #CDCDCD",
"i	c #D1D1D1",
"j	c #DBDBDB",
".....",
"+++++",
"@@@@@",
"#####",
"$$$$$",
"%%%%%",
"&&&&&",
"*****",
"=====",
"-----",
";;;;;",
">>>>>",
",,,,,",
"'''''",
")))))",
")))))",
"!!!!!",
"!!!!!",
"~~~~~",
"{{{{{",
"{{{{{",
"]]]]]",
"]]]]]",
"^^^^^",
"^^^^^",
"/////",
"(((((",
"(((((",
"_____",
"_____",
":::::",
":::::",
"<<<<<",
"[[[[[",
"[[[[[",
"}}}}}",
"}}}}}",
"|||||",
"|||||",
"11111",
"11111",
"22222",
"33333",
"33333",
"44444",
"44444",
"55555",
"55555",
"66666",
"77777",
"77777",
"88888",
"88888",
"99999",
"99999",
"00000",
"aaaaa",
"aaaaa",
"bbbbb",
"bbbbb",
"ccccc",
"ccccc",
"ddddd",
"ddddd",
"eeeee",
"fffff",
"fffff",
"eeeee",
"ddddd",
"ccccc",
"bbbbb",
"aaaaa",
"00000",
"99999",
"77777",
"66666",
"55555",
"44444",
"33333",
"22222",
"11111",
"|||||",
"}}}}}",
"[[[[[",
":::::",
"_____",
"(((((",
"/////",
"^^^^^",
"]]]]]",
"{{{{{",
"~~~~~",
"!!!!!",
"ggggg",
"hhhhh",
"iiiii",
"*****",
"jjjjj",
"@@@@@",
"....."};
