/* XPM */
static char * military_xpm[] = {
"128 128 4 1",
" 	c None",
".	c #082612",
"+	c #4A4A12",
"@	c #402D26",
"...................++++++++..@@@@@@..++++++++++++++++...+++++@@@@@@@@@@+++................++...@@@@@@@@@@@@@..++++++++++++++++++",
"+..................++++++....@@@@@@++++++++++++++++@@.....++@@@@@@@@@@@@@+.....+++........+..@@@@@@@@@@@@@@@...+++++++++++++++++",
"++.................+++++......@@@@+++++++++++++++@@@@@@....@@@@@@@@@@@@@@@+++++++++++......@@@@@@@@@@@@@@@@....+++++++++++++++++",
"++...............................+++++++++++++++@@@@@@@@...@@@@@@@@@@@@@@@+++++++++++++++.@@@@@@@@@@@@@@@@@.......++++++++++++++",
"++...............................++++++++++++++@@@@@@@@@@@@@@@@@@@@@@@@@@@@++++++++++++++@@@@@@@@@@@@@@@@@@@..........++++++++++",
"++...............................++++++++++++++@@@@@@@@@@@@@@@@@@@@@@@@@@@@@+++++++++++++@@@@@@@@@@@@@@@@@@@...........+++++++++",
"++..............................+++++++++++++++@@@@@@@@@@@@@@@@@@@@@@@@@@@@@++++++++++++@@@@@@@@@@@@@@@@@@@@............++++++++",
"++..............................++++++++++++....@@@@@@@@@@..@@@@@@@@@@@@@@@@+++++++++++++@@@@@@@@@@@@@@@@@@@@...........++++++++",
".+.............................++++++++++++.....@@@@@@@@@....@@@@@@@@@@@@@@@+++++++++++++@@@@@@@@@@@@@@@@@@@@............++++...",
"++++.......................+++++++++++++++......@@@@@@@@@....@@@@@@@@@@@@@@@@++++++++++++@@@@@@@@@@@@@@@@@@@@...................",
"+++++.....................++++++++++++++++......@@@@@@@@@....@@@@@@@@@@@@@@@++++++++++++++@@@@@@@@@@@@@@@@@@@@..................",
"++++++...................++++++++++++++++.......@@@@@@@@.....@@@@@@@@@@@@@@@+++++++++++++++@@@@@@@@@@@@@@@@@@@...............+++",
"++++++...................+++++++++++++...........@@@@@@@....@@@@@@@@@@@@@@@+++++++.....++++++@@@@@@@@@@@@@@@@...............++++",
"+++++++.................++++++++++++.............@@@@@@@....@@@@@@@@@@@@@@++++++.........+++++@@@@@@@@@@@@@@@...............++++",
"+++++++.................+++++++++++...............@@@@@@....@@@@@@@@@@@@@+++++............++++@@@@@@@@@@@@@@@................+++",
"++++++++...............+++++++++++++...............@@@@@.....@@@@@@@@@@@++++...............+++@@@@@@@@@@@@@@.................+++",
"++++++++...............+++++++++++++.................@@........@@@@@@++++++.................++@@@@@@@@@@@@@@..................++",
"++++++++++............++++++++++++++...................................++++.................++@@@@@@@@@@@@@@...................+",
".++++++++++....@@...+++++++++++@@@@++................++.................++..................++@@@@@@@@@@@@@@...+++++............",
".+++++@@++++++@@++++++++++++++@@@@@@+...............+++++...................................+@@@@@@@@@@@@@@@@.++++++++++++++....",
"++++++@@@+++++@@+++++++++++++@@@@@@@+..............++++++++................................++@@@@@@@@@@@@@@@@@++++++++++++++++..",
"+++++@@@@@++++@@+++++++++++++@@@@@@@@.............+++++++++++......................+++....+++@@@@@@@@@@@@@@@@@@+++++++++++++++++",
"+++++@@@@@++++@++++++++++++++@@@@@@@@.............++++++++++++.....................+++++++++++@@@@@@@@@@@@@@@@@@@+++++++++++++++",
"++++@@@@@@@++++++++++++++++++@@@@@@@@............++++++++++++++....................++++++++++++@@@@@@@@@@@@@@@@@@@@@@@++++++@@@@",
"@@@@@@@@@@@@@@@+++++++++++++++@@@@@@@............+++++++++++++++...................++++++++++++++@@@@@@@@@@@@@@@@@@@@@@@@@@@@@@@",
"@@@@@@@@@@@@@@@+++++++++++..+++@@@@@@...........++++++++++++++++...................+++++++++++++++@@@@@@@@@@@@@@@@@@@@@@@@@@@@@@",
"@@@@@@@@@@@@@@@++++++++++...++.@@@@@@..........++++++++++++++++++...................+++++++++++++++@@@@@@@@@@@@@@@@@@@@@@@@@@@@@",
"@@@@@@@@@@@@@@@@.++++++.........@@@@@..........++++++++++++++++++...................+++++++++++++++++@@@@@@@@@@@@@@@@@@@@@@@@@@@",
"@@@@@@@@@@@@@@@@...............@@@@@@..........+++++++++++++++++....................+++++++++++++++++++@@@@@@@+@@@@@@@@@@@@@@@@@",
"@@@@@@@@@@@@@@@@...............@@@@@@..........+++++++++++++++++....................++++++++++++++++++++++++++++@@@@@@@@@@@@@@@@",
"@@@@@@@@@@@@@@@@...............@@@@@@..........+++++++++++++++++....................+++++++++++++++++++++++++++++@@@@@@@@@@@@@@@",
"@@@@@@@@@@@@@@@@................@@@@@@..........++++++++++++++++.....................+++++++++++++++++++++++++++++.@@@@@@@@@@@@@",
"@@@@@@@@@@@@@@@@...............+@@@@@@............+++++++++++++++....................+++++++++++++++++++++++++++++.....@@@@@@@@@",
"@@@@@@@@@@@@@@@@..............+++@@@@@..............+++++++++++++++...................+++++++++++++++++++++++++++........@@@@@@@",
"@@+++@@@@@@@@@@@..............++++@@@+................++++++++++++++...................++++++++++++++++++++++++++........@@@@@@@",
"+++++++@@@@@@@@@@..............+++++++................+++++++@@@++++++........+.........++++++++++++++++++++++++..........@@@@@@",
"+++++++@@@@@@@@@@..............++++++..................++++@@@@@@@@++++....++++++++++.....++++++++++++++++++++............@@@@@.",
".++++++@@@@@@@@@@@++++.........++++++....++.............++@@@@@@@@@@++++++++++++++++++........++++++++++++++++.............@@...",
"..+++++@@@@@@@@@@@++++.........+++++++++++++++..........@@@@@@@@@@@@@@+++++++++++++++....@@....++++++++++++++...................",
"...++++@@@@@@@@@@@++++..........++++++++++++++.........@@@@@@@@@@@@@@@+++++++++++++++...@@@@....+++++++++++++...................",
"....++++@@@@@@@@@@@++............+++++++++++++........@@@@@@@@@@@@@@@@++++++++++++++...@@@@@@@...++++++++++++...................",
".....+++@@@@@@@@@@@..............+++++++++++++........@@@@@@@@@@@@@@@@+++++++++++++....@@@@@@@@..++++++++++++......++++.........",
"......+++@@@@@@@@@...............+++++++++++++........@@@@@@@@@@@@@@@+++++++++++++....@@@@@@@@@@..++++++++++++....++++++........",
".......+++@@@@@@@@..............@@++++++++++++........@@@@@@@@@@@@@@@++++++++++++.....@@@@@@@@@@..+++++++++++++++++++++++.......",
".........++@@@@@@@.............@@@@+++++++++++.........@@@@@@@@@@@@@@++++++++++++....@@@@@@@@@@@...++++++++++++++++++++++.......",
"............@@@@@...........+.@@@@@+++++++++++.........@@@@@@@@@@@@@@+++++++++++....@@@@@@@@@@@@...++++++++++++++++++++++++.....",
"............@@@@.......+++++++@@@@@+++++++++++.......@@@@@@@@@@@@@@@@@++++++++++...@@@@@@@@@@@@@....++++++++++++++++++++++++....",
".....................++++++++@@@@@+++++++++++++.....@@@@@@@@@@@@@@@@@@@.....+++++..@@@@@@@@..........+++++++++++++++@+++++++....",
"..................++++++++..+@@@@++++++++++++++.....@@@..@@@@@@@@@@@@@@.......+++.@@@@@@@@.............++++++++++++@@@@+++++....",
"...................++++.....@@@@@+++++++++++++++..............@@@@@@@@........+++@@@@@@@@@..............++++++++++@@@@@@++++....",
"...................++......@@@@@..+++++++++++++++................@@@..............@@@@@@@@..............+++++++++@@@@@@@@+++....",
"...........................@@@@....++++++++++++++........++++.....................@@@@@@@@....++.........++++++++@@@@@@@@@+++...",
"...........................@@@......++++++++++++++......++++++.....................@@@@@@@...+++++........+++++++@@@@@@@@@++++..",
"....................................+++++++++++++++....+++++++++....................@@@@@@@..+++++++........+++++@@@@@@@@@@++++.",
".....................................++++++++..++++....++++++++++.........++++......@@@@@@@.+++++++++........++++@@@@@@@@@@+++++",
"...................+++.@@............++++++......@@@@...++++++++++........+++++......@@@@@..++++++++++........+++@@@@@@@@@@+++++",
"+................+++++@@@.............++++......@@@@@@@.++++++++++@@@@...++++++......@@@@@..+++++++++++........+++@@@@@@@@@+++++",
"+...............+++++++@+.........@@@.........@@@@@@@@@@+++++++++@@@@@@@.+++++++......@@@@..+++++++++++.........++@@@@@@@@@@++++",
"...............++++++++++++.....@@@@@@.......@@@@@@@@@@@@+++++++@@@@@@@@@++++++++++++@@@@...+++++++++++..........++@@@@@@@@@++++",
"...............+++++++++++++..@@@@@@@@......@@@@@@@@@@@@@@++++++@@@@@@@@@++++++++++++@@@@....++++++++++...........++@@@@@@@@@++.",
"..............++++++++++++++@@@@@@@@@@......@@@@@@@@@@@@@@++++++@@@@@@@@@@++++++++++@@@@@.....+++++++++...........++@@@@@@@@@@+.",
"..............+++++++++++++@@@@@@@@@@........@@@@@@@@@@@@@++++++@@@@@@@@@@+++++++++@@@@@@......+++++++.............++@@@@@@@@@..",
"..............++++++++++++.@@@@@@@@@..........@@@@@@@@@@@++++++++@@@@@@@@@+++++++@@@@@@@@@..........................++@@@@@@@@@.",
"..............+++++++++++...@@@@@@@............++++++++++++++++++@@@@@@@@@@++++++@@@@@@@@@...........................+@@@@@@@@@@",
"..................++++++.....@@@@@............++++++++++++++++++++@@@@@@@@@++++++@@@@@@@@@@...........................@@@@@@@@@@",
"...........++......++++.......@@@.............++++++++++++++++++++@@@@@@@@@@+++++@@@@@@@@@@@...........................@@@@@@@@@",
"..........++++......++........................++++++++++++++++++++@@@@@@@@@@@@++@@@@@@@@@@@@@.........................@@@@@@@@@@",
".++++++++++++++.....+........................+++++++++++++++++++++@@@@@@@@@@@@@@@@@@@@@@@@@@@@........................@@@@@@@@@@",
".++++++++++++++..............@@@............++++++++++++++++++++++@@@@@@@@@@@@@@@@@@@@@@@@@@@@................++++....@@@@@@@@@@",
".+++++++++++++++....+.......@@@@......++++++++++++++...+++++++++++@@@@@@@@@@@@@@@@@@@@@@@@@@@@...............+++++++..@@@@@@@@@@",
".+++++++++++++++...++......@@@@@@....+++++++++++++++...++++++++++++@@@@@@@@@@@@@@@@@@@@@@@@@@@...............++++++++@@@@@@@@@@.",
".++++++++++++++++..+++....@@@@@@@@...++++++++++++++....+++++++++++++@@@@@@@@@@@@@@@@@@@@@@@@@@................+++++++@@@@@@@@@@.",
".++++++++++++++++..++++...@@@@@@@@@..+++++++++++++@@...++++++++++++++++@@+++++++@@@@@@++++++..................+++++++@@@@@@@@@@.",
".++++++++++++++++..++++++.@@@@@@@@@..+++++++++++@@@@@@.+++++++++++++.....+++++++++++++++++++..................+++++++@@@@@@@@@@.",
"+++++++++++++++++...++++++@@@@@@@@@@.+++++++++++@@@@@@..++++++++++++........++++++++++++++++.............@@@...++++++@@@@@@@@@@.",
"++++++++++++++++....++++++@@@@@@@@@@@+++++++....@@@@@@@..+++++++++++.........++++++++++++++..............@@@@..+++++++@@@@@@@@@@",
"+++++++++++++++++@..++++@@@@@@@@@@@@@@@++++.....@@@@@@@...+++++++++...........+++++++++++++...............@@...+++++++++@@@@@@@@",
"++++++++++++++++@@@@@@@@@@@@@@@@@@@@@@@@++.......@@@@@@@....+++++++...........+++++++++++++....................+++++++++.@@@@@@@",
"++++++++++++++++@@@@@@@@@@@@@@@@@@@@@@@@@+.........@@@@@.......+++.............++++++++++++....................++++++++++@@@@@@@",
"++++++++++++++++@@@@@@@@@@@@@@@@@@@@@@@@@@.....................................++++++++++++....................+++++++++@@@@@@@@",
"++++++++++++++++@@@@@@@@@@@@@@@@@@@@@@@@@@.....................................+++++++++++++.............+++++++++++++@@@@@@@@@+",
"++++++++++++++++@@@@@@@@@@@@@@@@@@@@@@@@@@.....................................+++++++++++++............+++++++++++@@@@@@@@@@@++",
"++++++++++++++++@@@@@@@@@@@@@@@@@@@@@@@@@@.....................................+++++++++++++............+++++++++@@@@@@@@@@@@+++",
"+++++++++++++++++@@@@@@@@@@@@@@@@@@@@@@@@......................................++++++++++++++...........+++++++++@@@@@@@@@@@@+++",
"+++++++++++++++++@@@@@@@@@@@@@@@@@@@@.........................................+++++++++++++++............+++++++@@@@@@@@@@@@@+++",
"++........+++++++@@@@@@@@@@@@@@@@@@.........................................+++++++++++++++++............+++++++@@@@@@@@@@@@@+++",
"...........++++++@@@@@@@@@@@@@@@@@..........++++++.........................++++++++++++++++++............++++++++@@@@@@@@@@@@+++",
"............+++++@@@@@@@@@@@@@@@@@.........++++++++............@@@........+++++++++++++++++++............++++++++@@@@@@@@@@@@+++",
".............++++@@@@@@@@@@@@@@@@..........++++++++...........@@@@@@......+++++++++++++++++++.............++++++++@@@@@@@@@@@+++",
".............+++++@@@@@@@@@@@@@@@..........++++++++...........@@@@@@@@....+++++++++++++++++++.............++++++++@@@@@@@@@@@@++",
"+.............+++++++@@@@@@@@@@@@++........+++++++++........@@@@@@@@@@@...+++++++++++++++.+++..............+++++++@@@@@@@@@@@@++",
"...............+...+...@@@@@@@@@@@+++......++++++++++......@@@@@@@@@@@....+++++++++++++++....................+++++@@@@@@@@@@@@++",
".......................@@@@@@@@@@@+++.....+++++++++++++++@@@@@@@@@@@@@....++++++++++++++++.....................++@@@@@@@@@@@@@++",
"..................+++++.@@@@@@@@@+++++....++++++++++++++@@@@@@@@@@@@@.....++++++++++++++++++....................+@@@@@@@@@@@@+++",
".................+++++++@@@@@@@@@+++++....+++++++++++++@@@@@@@@@@@@@@.....++++++++++++++++@@@@@@@@..............@@@@@@@@@@@@@++.",
".................+++++++.@@@@@@@++++++...+++++++++++++@@@@@@@@@@@@@@@.....++++++++++++++++@@@@@@@@@.............@@@@@@@@@@@@++..",
"..................++++++..@@@@++++++++...+++++++++++++@@@@@@@@@@@@@@@......+++++++++++++++@@@@@@@@..............+@@@@@@@@@@@+...",
"...................++++.....+++++++++++++++++++++++++@@@@@@@@@@@@@@@.......+++++++++++++++@@@++@@@.............++@@@@@@@@@@.....",
"....................++......+++++++++++++++++++++++++@@@@@@@@@@@@@@@........+++++++++++++++++++++.............++++@@@@@@@@......",
"..@@@@@@....................++++++++++++++++++++++++@@@@@@@@@@@@@@...........++++++++++++++++++++++++.........+++++@@@@@@@......",
".@@@@@@@@...................++++++++++++++++++++++@@@@@@@@@@@@................++++++++++++++++++++++++.......++++++++@@@+.......",
"@@@@@@@@@..........@........++++++++++++++++++++@@@@@@@@@@@@@.................++++++++++++++++++++++++++.....++++++++++++.......",
"@@@@@@@@@.........@@@++.....++++++++++++++++++@@@@@@@@@@@@@@@..................+++++++++++++++++++@@+++++....++++++++++++.......",
"@@@@@@@@@........@@@@+++....++++++++++++++++++@@@@@@@@@@@@@@.............+++++++++++++++++++++++@@@@@++++++...+++++++++++.......",
".@@@@@@@@@.......@@@@++++....+++++++++++++++.@@@@@@@@@@@@@@..............++++++++++++++++++++++@@@@@@+++++++..+++++++++++.......",
"..@@@@@@@@@@......@.+++++......+++++++++++++@@@@@@@@@@@@@@@+.............++++++++++++++++++++++@@@@@@++++++++...+++++++++.......",
"...@@@@@@@@@@@......+++++.........+++++++++@@@@@@@@@@@@@@@++.............+++++++++++++++++++++@@@@@@@++++++++.........++........",
"....@@@@@@@@@@@....+++++++.........+++++++@@@@@@@@@@@@@@++++.............+++++++++++...+++++++@@@@@@@+++++++++..................",
".....@@@@@@@@@@....+++++++..........++++++@@@@@@@@@@@@@++++++............++++++++++........+++@@@@@@@+++++++++..................",
"....@@@@@@@@@@@....+++++++...........++++@@@@@@@@@@@@@.+++++++............++++++++++..........@@@@@@@@++++++++..................",
"+++.@@@@@@@@@@@@...++++++++..........++++@@@@@@@@@@@@...+++++++...........++++++++++.........@@@@@@@@@++++++++..........+++.....",
"+++@@@@@@@@@@@@@...++++++++..........++@@@@@@@@@@@@@+...++++++++..........+++++++++..........@@@@@@@@@++++++++..@@.....+++++++++",
"+++@@@@@@@@@@@@@...+++++++++.....@@@@@@@@@@@@@@@@@@++....++++++++.........+++++++++...........@@@@@@@@@++++++@@@@@....++++++++++",
"++++@@@@@@@@@@@@....++++++++....@@@@@@@@@@@@@@@@@+++++..++++++++++........++++++++............@@@@@@@@@@++++@@@@@@...+++++++++++",
"++++@@@@@@@@@@@@....+++++++.....@@@@@@@@@@@@@@@@++++++++++++++++++......@..++++++..............@@@@@@@@@@++@@@@@@@..++++++++++++",
"+++++@@@@@@@@@@@@....++++......@@@@@@@@@@@@@@@@++++++++++++++++++++....@@..++++................@@@@@@@@@@@@@@@@@@@.+++++++++++++",
"++++.@@@@@@@@@@@@.............@@@@@@@@@@@@@@@@++++++++++++++++++++++..@@@..+++.................@@@@@@@@@@@@@@@@@@@.+++++++++++++",
"++++..@@@@....@@..............@@@@@@@@@@@@@@@+++++++++++++++++++++++..@@@.......................@@@@@@@@@@@@@@@@@@++++++++++++++",
"++++...@............++.......@@@@@@@@@@@@@@@@+++++++++++++++++++++++.@@@@.......................@@@@@@@@@@@@@@@@@@++++++++++++++",
"+++.............@..++++......@@@@@@@@@@@@@@@@+++++++++++++++++++++++.@@@........................@@@@@@@@@@@@@@@@@@@++++++++...++",
"...............@@@+++++++.....@@@@@@@@@@@@@@++++++++++++++++++++++++@@@@........................@@@@@@@@@@@@@@@@@@@+++++++......",
"..............@@@@@+++++++++++@@@@@@@@@@@+++++++++++++++++++++++++++@@@..........................@@@@@@@@@@@@@@@@@@@@++++.......",
".............@@@@@@@++++++++++.@@@@@@@....++++++++++++++++++++++++++..............................@@@@@@@@@@@@@@@@@@@@+++.@@....",
".............@@@@@@@@++++++++++.@@@@........++++++++++++++++++++++++...............................@@@@@@@@@@@@@@@@@@@@+@@@@@@..",
".............@@@@@@@@++++++++++..@...........++++++++++++++++++++++++...............................@@@@@@@@@@@@@@@@@@@++@@@@@@.",
"..............@@@@@@@++++++++++.@@..........++++++++++++++++++++++++++++............................@@@@@@@@@@@@@@@@@@+++++@@@@.",
"...............@@@@@+++++++++++@@@.........++++++++++++++++++++++++++++++..................+.......@@@@@@@@@@@@++@@@++++++++@@+.",
"...................+++++++++++@@@@@......++++++++++++++++++++++@@++++++++..................+.....@@@@@@@@@@@@.+++++++++++++++++."};
