/* XPM */
static char * Modern_xpm[] = {
"128 128 17 1",
" 	c None",
".	c #CED2CC",
"+	c #DAE2DC",
"@	c #E6EAE4",
"#	c #D2DAD4",
"$	c #E2E6E4",
"%	c #EEEEEC",
"&	c #DADEDC",
"*	c #CED6CC",
"=	c #DEE6DC",
"-	c #EAEEEC",
";	c #D6DED4",
">	c #EAEAEC",
",	c #D2D6D4",
"'	c #DEE2DC",
")	c #D6DAD4",
"!	c #E6E6E4",
"%%%%%%-------->@@@@@@!$$$$$'''''+&&&&;;))))###,,,,********...........********,,,,###))));&&&&&+''''=$$$$$!@@@@@>>-------%%%%%%%%",
"%-----%%--->>@->@@!$$@$$$''=''+&&+&;;));###,,,#***,**.....***********....**,,**##,,)#);&);;&+'&+''$''$$$@@!@@@@-->>--%%%-----%%%",
"%%%%---->>--@@@@@@@$$$$'$''''&+&&&&)&)))),##,*,,**..****............****..**,#*,))#);))&)&+&&'''$'$$$$@$$@!@>-@@-->>---%%%%%---%",
"------->--@@@@@@!$$$$$'$''''&'&&&;);))##,#,,*,***.**...............*...**,*,*,,#,#))));&&&&&'''''$'$$$$!@@@@@@>-@--%--%----%%%%-",
"%%-%----@->-@@@@@!@$$$''='''&&+&&;));))#,#,#*,*,**.***.*.........*.***,**,*#,#,#)););&;&&&'+''=='$$$@!@@@@>->->%-%--%-%%%%%%%-%%",
"----%@->->@@@@!$$$$$$$$=''++++&;;&&;#####,*,,**.,.*.....*********.*..*.*,*,,#,)))));&;&++'+'''''$$$$$@@@@@@@-@--@--%-%---%-%-%--",
"-%--%--@@-@@@@@!@=''''''&&&&&&))))#),,,,*#*******.**.*..........*.***,,*,#,,)####))))&&&&&'''$$$$$$$$$!@>@>@---%-%-%-%%%%%-%-%%%",
"---@->@--@@@$$$@$'!$'''&''&&&)&;)#),)####,,,,.*..*.............*.*.*.,**,*####));;&&&&&&''''$''$$$@@@@@@------>---%-%--%-%%-%---",
"--%---@@@@!@@$$$!$'$''''&+&;&;);)#)#,,**********.*.*.*.......*.*.****,,*,,,,));))&;&&&'+''='$$$$@$!@@@@>@@>>>--%%-%-%%%%%-%-%%--",
"---@@>>@@!@!$$$'='$''''&+&&&;)&)))#,#,,,,***,...*.....*******.*.**.,**#####))#));)&+&''''''$'$$!$!@!@>@@@----%%--%-%-%-%-%-%---%",
">---@@@@@!@!@$!$$'''&'+&&&)&&)##,##,#*,*,..****..*.*........*.*****,,*,,,)##;)&&&;&+&&'''$'$$$@$@@@@>@>->-----%%-%-%%%%%-%-%-%--",
"-@@>-@@!@@$$$$=''''''&&&&;&))#))),*#,*,,.**....**..........*.***.*,**,,)##)));;);&&&'''=$'$$$$$@@$@@-@->-@------%-%%-%--%-%-----",
"--@@@@@$$$@='$$'''''+&&&;;;))###)),*,*****,***...*.*.....*.*...****,*#,)))))))&&&&'+''''$$$$$!!$@@@>-@--%>%-%%%-%%%%%%%-%--%-->-",
">>>@@@@@@@'!!''$''+&&+&;&));))#,,*,*,,.**...........*****.*.****,,,##,###;;;&&&&''&''''='$$$@@@@@>@@@--@-%-%---%%%-%---%-%----->",
"@-@@!$$$$!'$$''''&+&&&;)&)###,##,,*,*,*.****...*.*......*.*******#,,##))#))&;&+&&''''$'$$$@$$@@@@>@->>%----%%%---%%%%%-%-%---@-@",
"@@@@@@!$$$$'''''&'&&&;)&)))),),*#,,***.*....***........*.*****,*,*,##)#)))&)&&&&'''=$'$$$!$!@$>@@-->---%-%%---%%%%----%-------@-",
"@@@!$@$$$$$'$++'&&+&&&));##),#,****.**.***.....*.*...*.*....***#,#,,#)));&&&+&+++'''$$$$@$@@@@@->@-----%--%%%%%%%%%%%------@>>@@",
"@@!@!$$$$''''''+++&;;;;;#)###*,,,,**.**...........***.*.*****,,*#,#))))&&);&&''''''=$$$$$@@!@@>@@->-----%%---%%%-----%%%-----@>>",
"!@$@$$''$'$+&&&&&&))))#),,,,,#***,**..**.*...*.*....*.******,#,,#))));))&&&&&&'''$''$$$!$$@@@-@->->@%-%--%%%---%%%%%------@@-@@@",
"@$@$$$$$'$'&''&&&)&&)#),#)###*,*******....***......*.*******,*#####)));&;&++''''$'$!$$@@@@@>@@->---%-%-%%--%%%%----------@->@@@@",
"@$$$$$''''''&+&&&;);)#)),,***,,*.....*.*.....*.*.*.*....**,#,,,,))#;;&;&+&&+''$'$$$$@$$@@@@>>>-----%-%--%%%%%-%%%%-------@@@@@!@",
"$$$$$'=$'&'&+&&;;);)))#,#*,,,**.*****...........*.*.*****,,*###)#;)));&&&&'''''==$$$$!@!>@@-----@%--%-%%%%-%-%-----%---@@>>@@$@$",
"$$$'$''''++&&&);&))#,##,#,******.....*.*...*.*..*.******,,,,,##));;&)&+&'''''=''!$!!@@@@@-@@@>>%-%%-%---%%-%-%%%-%-----@>@>!@$@$",
"$$'$'''+'&&&&;&)))#)),*#,*,,*,*.*****...***...**.*******#####))))))&&&&'+++$$'!!$=@@@!@@>@>--------%-%%%-%%-%--------@@>@@!@@@$!",
"$$''''&+'&&&&;&)#)####*,*,*..**......*.....*...*....**,,,*,##)))&&;&&&&&''''$$$=@$$$@@>-@->-----%%-%-%%%%-%-%%-%-----@-@@@@!$$$$",
"'$$$'''&&+&;;));)##,,,,*,*.**..**...........***.******,*,##));;;)&&++''''''='$$!$!@@@@@@-@-@-%%%--%-%%%%-%-%-------@@-@>@@$@@!$$",
"''''&''&&&&)&)##),##,**,*,****..*..*.*...*....******,,,#,)#)#))&;&&&&+'''$'$$$$!@@@@>@>>--%>---%%-%%--%%-%-%-%-----@@@@@@@$$$$$$",
"'''''&&&&;);)#)),),*#,,***,...*..**...***.**********###,##))))&;&&&&''''$'$$=@$@@!@>@---->-%--%--%--%%--%-%------@@->>@@$$$$$$''",
"''''+&+&&;));###,#,*,**.*.***.*....*............**,,,*##))#)&&;&&&'+''''$$$$$@$$@@>-@@@>----%-%%-%%%%%%-%--%-----@>@@@!@@@$$=$$'",
"'+'&&&&;;;;;)))##*,,*,,*.*...*..........**********,*,##)#));;;&&&''''=$$=$$$$$@>@@@@@------%-%--%%%%---%-%-----@@-@@!@@!$$$$''''",
"&&+&+;))))##,,,,,#******.***..*..*.*.......*****,,,#,,#)#;)))&&+&&''''''$$!!@@@@@->->---%--%-%%%%%-%%%-%-%-----@@@>@$$@$$$$$$'''",
"''&+&)&&))),)####*,,*****......**...************###,#)))))&&&&&&'''''$$!$$@@$@@>@@->-@-%-%%-%--%--%---%-------@->>@@@@$$$$'''''+",
"&&&&&;)&)#)#,,***,*,....**..*....*.......*..**,,,*#))));&&&&&+'+'''$'$$$@$$@!@@>>@--%>----%-%%-%%-%%%-------@@@@@!@!$$!$'$$'''''",
"++&););##)#,#*,,,**.****..**.........****.****,*,####))));;+&&&'''$'$$$!$!@>@>@---->-%-%%%-%-%%%%%---%%%----@->>@@$@@$$'$''''+&&",
"&&&&&))),)#,#,******...*....*..*.*.*...*****,,,#,,))#;&&)&&+''''''$$$$$!@@@@@-@@@>---%---%-%%%%--%%%------@-@@@!@@$$!$$'$'''''+&",
"&;;))))#),*#,,,,*,*.***......**...*.***.****###,#)#&)));&&&&&+'===$$=@@@@@@>@>@-------%%%-%%-%-%%---------@@>>@@$$@$$$$$'''+&&&&",
");;)##)##),****..**....*..*....*..*..*****,,,*#)))#;&&&&&&''''''''$$$$$$$@@>@-@---%%%---%%%%-%--%%------@-@>@!@@@$$$='''''''+&&&",
"&));))#,,**,,,.**..****.**......**.**.****,,,#####)));&++'&+'''$$!$!!$@@>@---@->-----%%%%%-%%-%%---%----@@>@@@$!$$$$'$$''+&&&&;;",
"&)###,##,,,**,****........*..*...*.*****,,,#,,))))&&;&&&&''''$'$$$$$@@@@@>@@--->%-%%-----%%-%--%-%----@-@@@!@@@$$$=$''''''+&&&&;",
")))),#,*#,*,**,...*........**.***.*.****###,#)#;;&);&&&&+'''$'$$$$$@@$@>@>@-->%--%--%%%%%%-%-%%-------@>>>@@$$$$$$''''''&&&&;&))",
";##),#,,***.*.***.*..*..*.......*******,,*##)))))&&&&&''+'='$$$$$@!!@@>@>-@>--%--%%--%%%%%-%---%----@-@@@!@@@$$$'$$$''+'+&&&;;;)",
"#))##*,*,,**.*...*.**.**....*********,,*,##)#)));;;&&'+''''==$$@!$@@>@-@-@--%--%%--%%%%%--%-%%%-----@@>@@@$$$$$$$''''+&&&&&&))))",
",,,,,#******.***........*........***,,,#,,#)))&&&&&+&&''$$''!$$@@@@@@>-@--------%%-%---%%-%-------@-@@>@@@@$!$''$'''''+&&;;&;)))",
"#####*,******............**********,*##,#));;;;;;&&&''''''!!$$$$$@@>@@@-->--%%%%--%%%%%--%--------@>>@@!$!$!$$$$'''+&&&&&&))))##",
",,**,,,,....**..*..*..*......******,,,###))))))&&+'+''$=$$$=$!@@!@@>@-@>->-----%%%-%%-%%-%%-----@-@@@@@@@$$$$''''+&''&&;;&;)))##",
"#,,*,**.,***..**.**.**...********,,,*##)))))&&&&&&&''''''$$!$@!@@@@-->---%%-%%%---%%-%--%--%----@@>@>$@$$$$='$$''&'&&&;&))))##,,",
"#*,*****...*..........**...*..**,,##,,#)#)&&&&&''''''$$$$$$@$@@@>->@---%--%---%%%%-%-%%-------@-@@@@@$@$!$$$'''''&+&&&;&;)))#)##",
",*,,***.***.............***.****,*,,#));;;&;;+&&&+'=$''$=@$!@@@@>@@->------%%%-%%%%-%--%------@>>@>$@@$$=$''$'''''&;;&)))#####,,",
",,*..**....*..*..*..***..*****,,#####)#))))&&'+'''''$$$$$@@@@@@>@-@->>-%%%---%%%--%-%%-%%---@-@@@@@$$$!!=$$'''+&&&&&;&;)))#,,#,,",
",*.**..****.**.**.**...**.****,,*,#)))))&;&&&&&''''='$$$$$$@@@---@---%----%%%%--%%-%--------@@>@>$@@!!$$''''''&++&&&)))#)#,)#,**",
"****,*.............***.*****,,###,#)#)&&&&&&+'+''$'$$$!!@@!@@>@>---%-%%%%--%%%%--%-%------@-@@>@@!$@=$=$$'''+'&&&;;&;))##),,,#,*",
"***...*...............*.****,*,,,));&;&;;++'&'''$'$$$$@@$>@>@>@--->------%%--%%%%-%--%----@@>@@$@@$$$$'''''+&&&&;&)))))#,##*#**,",
"*.***.*..*..*..*.*********,,###)#)##)))&&&&'''='$$$$@$$@@@@>@-@>>---%%%%-%%%%---%--%----@-@>@@@$$@$$=$$'''&'''&&&&;)##)),,#*,***",
".*...*.**.**.**.*...******##,,,#)#))&&&&&&'''''=$$$!$!@>@@@>-@--%--%----%-%%-%%%-%------@@@@>$@@$$$$'''''+'&&;;&)))))#####*,**.*",
".***............***..***,,,###))))&&;&&&'+''$$''$$@$@@@@>@->----%%-%%%%%%%%%---%-%----@-@>@@@!$@$$$$$'''&&'&&&;;;)##),,,****,*.*",
"*.............**...*****,**,,)#;;;&;&++++'''''$!$$$@@@@@->@-->----%---%-%---%%%-------@@@>@$@@!$$''''''+''&;&&)))#)),##*,,,.***.",
"**..*..*..*....*******,,,####)#))))&&&&&''=$$$$$@$$$$@@>--@@->--%-%%%-%%%%%---------@-@>@@@$$@$$$$$''''&&&&&)&;))###,,#*,*,.*.**",
"..**.**.**.****..*****,##,,)))))&&&&&&'''''''$$$$@@>>@@@@>----%%-%--%%%-%--%%%%%----@@@>@!@@$$$'$'''''&'+&&);))#)),##,,,****.*..",
"..............***.**,,,*))#);)&&&&&&''''$$$$$$!!!@@@@>>-----%--%-%%-%%%-%%--------@-@>@@@!$@$$='$'''+'&&;&&);))###,,#***.***.,*.",
"...........*****.***,,,###)))&;;;++'++'''''$=@@@@$@@>@-@>-----%-%--%%-%%--%%------@@@>@$@@$$$'$$''''&&+&&;;&)))#####**,*,...*..*",
"..*..*..**....****,,##,,));#)))&&&&&'''$=$$$$$$@@>@>-@-->>%-%-%-%%%-%--%%-------@-@>@@@$$@$$$'''''+'+&&&&))))#),,,*,**,***,.*...",
"**.**.**..****.****,*,#)###&&&&&&&+''=$''$$!!$@$@@-@@->--%-%-%-%-%%%%%%----%----@@@>@!@@$$$'$$''''&&&&;;);;###,##,,*,*.**..*...*",
".......**..*****,,#####);))&;&&&''''''$$$$$$@@@@>>--@------%-%-%%-%---%%%-----@-@>@@@$$@$$$''$''+''&&&&;)))))#,,#*,*,*..**..*...",
".........*******,,,,#))));&;&++'+''''='$$$@@@$>@@@@@-->--%%-%-%%-%-%%%---%----@@@>@$@@!$$'$$''''&&&&;&)))#)#,##,*,****,*..*..*.*",
"*..*.***.*..**,,###,#);))&)&&&&&+''$'$$$@$!!@@@>>-----%%--%-%%%%%%---%------@-@>@@@$$@$$$''$''+''&&&);;;)###,,#*,*,.*..**.*.....",
".**.*...*.****##*,,));#&&)&&&&+''$$'$$$$$$@@>@@--@>->---%%-%-%-%--%%%-------@@@>@!@@$$$'$$''''&&&;&&;))))#####*,**.*.**......*.*",
"....********,,,###))#))&;&&&''''''$$$$@!@@@@@-@>-->-%-%--%-%-%%%%----%%---@-@>@@@$$@$$$''$''+''&&;));))#),,,**,*,***..*...*.....",
"..**..******,*,,,)##);&)&++'+''''$$$$!$@@@@>@>@->----%-%%-%%%%---%%-------@@@>@!@@!$$'$$'''&&&&;&&;&))##,)#*,,**.,..**..*..*.*.*",
"...**..***,#,####))))&&&&&&&'''=''$$@$$$!@@-@-@--%%--%--%%%%%%%%--%%----@-@>@@@$$@$$$''$'+'''&&&;))))),#,,#*,******...*.*.......",
"***..****,,*#,,));;&&);&&&''+$$'$!$$$@@>@@>@-@-->--%%-%%%--%----%-------@@@>@!@@$$$'$$'''&+&&;&;)&;)#,)##,*,*,**...*.*.....*.*.*",
"..*******#,,###))))&;&+&'+''''$$$$@!$@@@>-@>---%----%---%%-%%%%-%-----@-@>@@@$$@$$$''$'''&'&&&&&))))##,,#*,**.*,**.*....*......*",
"*******,#*###))#));)&&&++''''$$$$$$@@$@@>@---->--%%%-%%%%%%-----------@@@>@$@@$$$'$$'''&''&;&;));####,##*,*,.*....*...*..*.*.**.",
"..*.**,,,,,,#);)&&&&+&&&'''$''$$!$$@@>@>@>@>>--%---%-%%%%-%%%%%-%---@-@>@@@$$@$$$''$'+'&&&&&&;;)))#)#,**,********...*.*.......**",
"**.***,*###))));&;;&&+'''=$'$!=@@@@$@@----------%%%-%-%--%----------@@@>@!@@$$$'$$'''&++&&&;)))#)##,,,*,*,.,.......*.....*.***..",
"****,,,,,##);))))&+&&'''''$$$$$$$@@@>@@@@--%%%%---%%%-%%-%%%--%---@-@>@@@!$@$$$''$'''&&+;&&;;))##,###*,********..*....*......***",
"**,*,####)))#&&&&&&''+'''$=$$$$!@!@>@>@-->-----%%%--%%%-%---%-----@@@>@!@@!$$'$$'''&''&&&;)))))#,),*,,*,**......*...*..*.****..*",
",*,,,*,##);))&&&+&&''''$''$$!!@@@>@>@-@-->--%%---%%%%-%-%%--%---@-@>@@@$$@$$$''$'+'&&'&&&;;)##,),#,*,**.*****.*...*.*.......**.*",
",*,*,##));#&;;;+&''+'=$'$!=@@@@!@@@--@->-%-%--%%%%%--%-%--%-----@@@>@$@@$$$'$$'''&++&;;;)))))#)##*#,*,.,.....*...*.....*****.,*,",
"*,##,)#)#))&)&&&&+''''$$$$$$$$@@>->@-----%-%%--%%%%%-%-%------@-@>@@@$$@$$$''$'''&&+&&&;;))#,#,,,**********....*....*......*****",
"##,,##)))&&)&&&'+''''$$$$!!$@>@@@>@-->-%--%--%%---%-%-%-------@@@>@!@@$$$'$$'''&''&&&)))))#)),##,,**.*........*...*..*******.,*,",
"*###))#))&;&&&&''''$''$$$$@@@@>-@-@>----%-%%-%%%%-%-%--%----@-@>@@@$$@$$$''$'+'&&'&;&;;)))###,*#*,,***,**.*.*...*.*......***,,#,",
",,#)#);&;)&+++''''$'$$=@@@@@@@@@-@---%-%-%--%-%%%%-%-%------@@@>@$@@$$$'$$'''&++&;&);)))##,,,*,*****.......*...*...*******.,***#",
"#,#)#))&&&&&&++'''$$$$$$$$!@@->>---%---%-%%%%%%--%-%-%----@-@>@@@$$@$$$''$'''&&+&;&)&)))#####*,,*.*****.*....*.........*.***,,,#",
",))))););&&&''''$$$$$!$!@>@>@@-------%%-%---%--%%-%-------@@@>@!@@!$$'$$'''&''&&&);&))####,*,,**.,.....*....*...*********,,,###,",
"#))&&&&&+&''''''''$$$!@@@@@-@>@>>>----%-%%%%%%--%-------@-@>@@@!$@$$$''$'''&&';&&)))))#,,#,***.******...*.*...*......*.***,,,,))",
"))))&;;&&'++''=$$!=@@@@@@@>@-----%-%%%-%-%%-%-%%---%----@@@>@$@@$$$'$$'''&++&;&);&)####)#,#,,.*,.........*...*..********,*#,####",
"#;;))&+&&&'''''$$$$$$$$@>@>@@--%-%---%-%%%%-%--%%%----@-@>@@@$$@$$$''$'+'&&+&&&));))#,,,,***,******.*.*....*..*....*.**,#,#*#)))",
"&))&&&&++'''$$$$$!$!@>@@----->----%%%-%%--%%-%%-------@@@>@!@@$$$'$$'''&+'&;&);&)#)##)#*#,***,.......*....*..*.*******,,**,#)##;",
";&&&+&&''''''$$$$!@@@@>@@@@-->-%%---%%%%%--%--------@-@>@@@$$@$$$''$'''&&'&&;));)##,,,#**,**.****.*...*.*....*...*.**,#,##),)));",
");;+&'''''=$$$=@@@@@@@>>@-->-----%%%---%%%%-%-%-----@@@>@$@@!$$'$$'''&''&;&)&&)#)##)##,,,**.*....*.....*...**.*******,*#,#,)#;))",
"&&&&&'+''''$$$$$$$$>@>@->---%%%%---%%%%---%-%-%---@-@>@@@$$@$$$''$'+'&&+&&;));)#),,,*****.*.***...*.*....*..*..*.**,,,,#,)#));&&",
";&&''+'$$$$$$$$!@@@@---@->-%----%%%%%%-%%%--------@@@>@!@@$$$'$$'''&++&;&)&;)#),####,,**.,**.......*....*.**.*****,*####)#;))));",
"&&&+'''''$$$!!@@@@@>@@---%--%%%--%%%%%---%%-----@-@>@@@$$@$$$''$'''&&+&;&));)#),,,***,.**..**.*.*...*.*.*..*.*.***,,,*,#));;;&&&",
"++'''''$$$$$@@@@@>@>@-->---%---%%%----%%%-------@@@>@!@@!$$'$$'''&''&&&)&;)#),####,,,**,.**....*.....*...**.*.**,,#*#)))#)))&;&&",
"&+'''$'$$$$$$$$@>@>-@>-----%%%-%-%%%%-----%---@-@>@@@$$@$$$''$'+'&&';;&));)#)#,,****.***..*.*...*.*...**..*****,,*#,###;);&)&&++",
"''''$'$$$$$!@>@@---@---%-%%---%%%%%--%%-------@@@>@!@@$$$'$$'''&++&&&)&;))),#,##,,,**,..**.*.....*...*..***.***,#,,#,))););&&&&&",
"''''$=$$!@@@@@@>@@-----%--%%%%-%%-%%--%%%---@-@>@@@$$@$$$''$'''&&+;&;));)#)##,******.**.....*.*...*..**...***,,,###)#)))&)&&&'''",
"''$$=$$$$$@@>@@>@-------%%---%%%-%--%-------@@@>@!@@$$$'$$'''&''&&&)&&))#,#,,#,,,*.,*..**....*.....**..******,#*,#,#);;&)&&&+&''",
"''''!$$@@$$@@>@-@>>>%-%--%%%-%-%-%%-%-----@-@>@@@$$@$$$''$'+'&&';&;));)))###*,****..**..*.*...*.*...**.****,,,##,))))))&&;+&''+'",
"$$$!$$!$!@@@---@---%-%-%%--%%%%-%---------@@@>@$@@$$$'$$'''&++&;&)&&))#,#*,,,*,**,**.....*.....*.***..*.**,*#,,##)#&#&;;&+&'++'=",
"'$$$!@@@@@>@@@---%---%--%%%%--%-%%%-%---@-@>@@@$$@$$$''$'''&&+&&;));))##)#,****.*..***....*.*......****.**,,##,)#;);)&&;&++''''$",
"$$$$$$!@@>>@>------%%-%%-%-%%%-%--------@@@>@!@@$$$'$$'''&''&;&)&;)##,),,,*,,**,.**...*....*...****..***,,#**###))));;&+&&'''$''",
"$$$@@@@@@@>-@>>>-%--%--%%%---%-%--%---@-@>@@@!$@$$$''$'+'&&'&&;));))####*#***.**..*...*.*...*.....**.**,,*##,)););&&&&&''&'''$$$",
"=@@$!@@@---@--%---%%-%%%-%%%%-%-------@@@>@$@@!$$'$$'''&++&;&)&&)#),#,,*,*,**,..**.*...*.....**********,,,,))#)#&);;&&&+'''''$$$",
"$$@@@@>>@@----%%%--%-%%%%---%--%----@-@>@@@$$@$$$''$'''&&+&;&));)##)##*#,*,.***....*....*.*.......***,,###,#)#));)&;+'&'''$$'$$$",
"$!!@@@@>@--------%%-%--%-%%%--------@@@>@!@@$$$'$$'''&''&&&)&;))),#,,,,****,...**...*....*.*******.**#,*,##));&;&&&&&+''=''$$$$@",
"@@@@>>@-@>>>--%%--%%%%%%---%%%----@-@>@@@!$@$$$''$'+'&&';&;));)#))##*#*,*.****..*...*.*........****,,###,)##))))&&&+&'+'=$'$$$$@",
"@@@@@-->---%%%--%%-%%%--%%%-------@@@>@$@@$$$'$$'''&++&;&)&;)##,#*,*,*,.**....*..*...*...******.***,*,,###)&)&;&&&'&''''''$$$@!$",
"@@@>>@---%---%%--%-%%%%---------@-@>@@@$$@$$$''$'''&&+&&;));)))#)#,#***.*,***....*....*......**.*,,,##,))#);)&&;&&'''''$$$$$$@@@",
"@@@>@-------%--%%%%----%%%------@@@>@!@@$$$'$$'''&''&;&)&;))),#,,*,*,.*,......*...*....**********,*#,,###;));&;+++''''$'$$$!!$!@",
"@>--@>>>-%%-%%-%%%%%%%---%%---@-@>@@@$$@$$$''$'''&&'&;&));)#####*#**,******...*...*.*......*.**,,#,##))));&&&&&&''''$'!$$!@@@@!@",
">@@@---%---%--%%-%%---%%------@@@>@$@@$$$'$$'''&++&;&)&;))#,)*,,,*,.*.......*..*...*.******.**,*#,#,###&));;;+&''+'='$=$$@$$@@@>",
"-----%-%%%-%%%-%--%%%-------@-@>@@@$$@$$$''$'''&&+&&;));)))#)#*#**,******.*....*.........*****#,#*#))));;)&&&'+&'''$$$$$$@@!@>-@",
"@@--------%---%%%%---%-%----@@@>@!@@!$$'$$'''&+'&;&)&;))#,#,,,,*,.*.*....*..*...*..******.**,#,*,))##&))&&&&&'&''$''$$$@$$@@@-@-",
"->>>--%%%-%%%%%--%%%------@-@>@@@$$@$$$''$'+'&&'&;&));))####*#**,**.***.....*...*......****,,*####)));;)&;&+&''''$$'$$$@@!@@@@@-",
">----%---%-%%%-%%----%----@@@>@$@@$$$'$$'''&+'&;&)&;))#,#,,*,*,.*.**...*..*..*...**********,,#,,#));))&&&&+'''$''$$!$!!!!@@@@-->",
"-%%%-%%%-%%%-%--%%------@-@>@@@$$@$$$''$'''&&+&&&));))#)##,#**,**..**...*....*.......*.**,,,,##,##);&)&&&&&'+'=$'$$!@@@@@>@>@@--",
"----%---%%--%-%%---%----@@@>@!@@!$$'$$'''&''&;&);;))#,),,*,*,.*.***..*.*..*...*******.***,*###)))))#&&;+'''+'''$$=@$$$@@@>@--->-",
"--%-%%%%%%%-%--%-%----@-@>@@@$$@$$$''$'+'&&+&;&));))####,#**,**...*.......*........****,,#,*,#));;&)&&&&'''='$'$$$@@@!@@>-@>>->-",
"-%-%--%--%%%-%%-------@@@>@!@@$$$'$$'''&++&&&)&&))#,),,*,*,.*.,***.*.*..*..*..*****.***,#*#))#;)));&;+&+&'''$'$$!$$$@@@@-@-----%",
"-%-%%-%%%--%---%----@-@>@@@$$@$$$''$'''&&+;&;));))####*#**,**.........*....**....****,,,#,##)#;&&)&&&+''+'''$$$$!@@!@>@>-@@-----",
"%-%--%%%-%%-%-------@@@>@!@@!$$'$$'''&''&&&)&;))#,),,,,*,.*.****.*.*.*..*....********,*,,#,)))))&&;+&'&''$$$$$$$@$!@@@-@@----%-%",
"%-%%%%%%--%-%%----@-@>@@@$$@$$$''$'+'&&';&;));))####*#*****....*........*.**...*.**,,####)##);&)&&&+&'''''$$$$@$@@@>@>-->->----%",
"-%-%%---%%-%------@@@>@$@@$$$'$$'''&++&&&)&&)##,),,*,*,.,.****...*.*..*..*..***.***,*,,,##))&));;+&'''+$'$$$$@$@!@@>@@@@->---%%-",
"-%%-%%%--%------@-@>@@@$$@$$$''$'''&&+;&;));))####*#**,**....*......*....**..****,,####,)););&&&&+&''='$$'$$$@!@@>@-------%---%%",
"%%-%%--%%-------@@@>@!@@$$$'$$'''&''&&&)&&))),#,,,*,,.*.****...*.*.*..***..**.**,*#,,##)#&)&);&+&''+'''$'!$@!$@@@@-@@@>-%%-%%%--",
"%%%-%%----%---@-@>@@@$$@$$$''$'+'&&';&;));)##)##*#**,**....*.*..........**.*****,,##,)););#&&&&'&''='$'$$$$@@@@>@>---->------%%%",
"-%-%--%%-%----@@@>@$@@!$$'$$'''&++&;&)&&)##,#,,*,,,.*.****.....*.*..*.**..****,,,*,,##;)))&&&+&+''''$$$$@!!$$@@@-@@@-----%%%%--%"};
