/* XPM */
static char * Moz9_xpm[] = {
"10 256 33 1",
" 	c None",
".	c #AABEC4",
"+	c #BED2DC",
"@	c #D2D6E4",
"#	c #BACAD4",
"$	c #CAD2DC",
"%	c #D2DEE4",
"&	c #B6C2CC",
"*	c #CADAE4",
"=	c #DADEEC",
"-	c #C6D2DC",
";	c #C2CED4",
">	c #CAD6DC",
",	c #B2C2CC",
"'	c #B6C6CC",
")	c #CED6DC",
"!	c #AEC2C4",
"~	c #C2D6DC",
"{	c #D2DAE4",
"]	c #DAE2EC",
"^	c #C6D6DC",
"/	c #D6DEEA",
"(	c #C6CEDC",
"_	c #BAC6CE",
":	c #AEBEC4",
"<	c #C2D2DC",
"[	c #BECAD4",
"}	c #CEDAE4",
"|	c #D6DAE4",
"1	c #DEE2EC",
"2	c #C2CEDC",
"3	c #CAD6E4",
"4	c #CED6E4",
"1111111111",
"==========",
"1111111111",
"==========",
"]]]]]]]]==",
"========]]",
"==========",
"==========",
"==========",
"=%=%=%||//",
"|||||=====",
"======/||/",
"/%=%||%=|/",
"||||%=||/|",
"|||||/%|||",
"///|{|||//",
"{|//||{{{|",
"|{{{{{|||{",
"{{|{{{{{{{",
"||{||{{{||",
"@@{{{{{{{{",
"{{{{{@@{{{",
"{44{{{}4@{",
"4{{@{{@{{@",
"@@}44{@4}{",
"}}@@@4}{@4",
"44}})4))44",
"@)))@@4}@{",
"444)))))))",
")))4444444",
"44>>))>>)4",
"))444$4$4)",
"$))>444>3)",
"4$$$)$)$$$",
"334$4$44>3",
"$$$3$3$$$$",
"$$$>$$$4$$",
"4>$$$>>$)>",
"$$$$$$--$$",
"$$-$$$$$$$",
"-$---$$--$",
"$-$$$--$$-",
"$---------",
"--(($((-$$",
"(--($-(((-",
"-((-((---(",
"--;<-;(;--",
"(((;(-;(((",
";-;(;--;;(",
"-;-<;(;((<",
"(;;(;;;;;;",
";;(;;(;;((",
"[[(;;;;[;;",
"((;[[2;(;;",
";[;(;;;[[2",
"[;;;[[[;([",
"[[[;;2[[;;",
";2;[[[;;[[",
"[[[[;[[;[[",
"[[;;[[[[;;",
"[[[[;;#[#[",
"[[####[#[[",
"#[[[[[[[[[",
"[[#__#[###",
"_[[[[__[[[",
"#_##_#[#_#",
"#__#[#_#_#",
"_#[___#_#_",
"__###_#_##",
"##_'______",
"'___#_#___",
"_'_'''''''",
"_'________",
"''''''''''",
"_'&'&'''''",
"''''''''''",
"&'''&&'&&'",
"'&&&''&''&",
"'''&&'&&''",
",,,'','',,",
"&,,,,,,&&&",
",',,,,,','",
",&,&&,,,,,",
",,,,,,,,,,",
",,,,,,,,,,",
"!,!!,:!:,,",
",,,!,,,,!,",
":,::!!,::!",
":,,:::,,:,",
",::,,,::,:",
",,:::,,:::",
"::::::::!!",
":!:!.:::::",
".::::.::::",
"...::....:",
":::..::::.",
"...:......",
"..:.....::",
"....::....",
":.::..:..:",
":..::.::.:",
".::..:..:.",
".:::::::::",
":.::.::.::",
"::::::::::",
":::::::::!",
":::::::,::",
":::,,,,::!",
",,::..,!:!",
"::,,,,::,:",
"!::,,!,,,,",
",,,::,!:,!",
"!,!,:,,::,",
",,,,,:,,,,",
",,,,&,,,,,",
",,,,,,,,,,",
",,,,,,&,,,",
",,,',&,,&&",
",',,'','!,",
"',!',,,,''",
"&&,,&'&,,&",
"''&'',''&'",
"&',,',&','",
"'&''&'','&",
"'&&'&&''''",
"'''''''&''",
"''&''_'&&'",
"__'_''_'__",
"'_''''''''",
"'''__'_''_",
"__''_'__'_",
"#____##__'",
"'__#_''##_",
"##'''_#__#",
"_#_##____#",
"#_#__####_",
"[_[#____##",
"_[__[###__",
"##[_#[_[[#",
"_[#[__[##[",
"__#[[#___[",
"[[[[#[[[[#",
"[[[[[[[[[[",
"[[[[[[[[[[",
"[[[[;;;[[[",
"[#;[##[#;;",
";[;[[[;[[[",
"[[[[[[[[[;",
";[;;;[;;[;",
"[;[[[;[[;[",
"[;;;[;;[;;",
";;;;;[[2[[",
"[[[2;2;;2;",
"22;;;;[2;2",
";2[2;(;;[;",
"2;(;2;;;(2",
"(;;;222;(;",
";;((;;(;;(",
"-;;((;-;;(",
";((<;(;(-<",
"<<(-<(-;(-",
"((-((-(--(",
"$(-$--((--",
"-$$-(-$$$$",
"--$$$$---$",
"$$->$-$$$-",
"$$$$>>$$>$",
">)$>$$>>$>",
"$)$))$$4$4",
")34$$44$4$",
"$)444)4)4)",
"@4)4)4)4)4",
"4@)44@4444",
"@}{@@}@{@{",
"@)}}@})}){",
"}{@@}@{@{4",
"@{{@{@{@{{",
"{{{|{{{{|{",
"{|{{|{|{|{",
"|{{|{|{{{|",
"|/|/|/||/|",
"/|/|/|//|/",
"/|/|/||/|/",
"|/|/|=/|/|",
"====/=====",
"/=/===/==/",
"==========",
"]=]==1=]=]",
"1=]]=]=1=]",
"=1==]=1=1=",
"=11=1=1=11",
"1==111]1==",
"11=====111",
"==11111===",
"1=====1]]]",
"=]=]=]====",
"=]=]======",
"=====]]==]",
"======]]==",
"%]=]%====]",
"//==%=%=/=",
"==%==/=/=/",
"/=%==%=///",
"=%=/%=//==",
"=/==%=%///",
"|=%%=/|%//",
"/=||/==///",
"{{//|%|||/",
"//%//%//|/",
"/||/|/%/%|",
"%/{%||{|%/",
"|{/|%%/%|{",
"%{%{|{|%%%",
"|%{%/%/{||",
"{{{{}{/}{{",
"{/{{{}}/%%",
"{{{{/{{}{{",
"}/%/}{}{{%",
"}}}{/{{{{{",
"{{}}}}}}}}",
"}{{{{{{{{{",
"{}}}}}}}}}",
"}}}}{}}{}}",
"{{{{}{{}{{",
"}4}}}}}}}}",
"}}}}}4}}}}",
"**}**}334}",
"}434}3}}}}",
"}}}4}}}*>}",
"343*)>>4}3",
"*})*}}*>}*",
">>*>3>>3>>",
"3>3>33*>33",
"^^3^^>3^>>",
"3^33^^33^3",
"^^^^33^^3^",
"^^^^-^^^^^",
"^^^^^^^^^^",
"--<~--<--^",
"~~^-~~^~~<",
"-<~-<<<-^~",
"<<<<<~<<<<",
"~<~~<~~<<<",
"<<+<<<++<<",
"+<<+<<<<+<",
"<++<++++<+",
";2+;;+++++",
"+~#+++++++",
"#+++#;#+;+",
"++++++~#+;",
"++++++~++<",
"^<<~^<<^~~",
"^^^^^^-^-^",
">>>^>^^>^3",
">3>>3*3*>3",
"}}}}}4}4*}"};
