/* XPM */
static char * paper_xpm[] = {
"128 128 33 1",
" 	c None",
".	c #D5AE8D",
"+	c #DCB495",
"@	c #D5B395",
"#	c #DFBDA1",
"$	c #D4A886",
"%	c #DBAE8C",
"&	c #CEAE90",
"*	c #D9BCA0",
"=	c #D9C2A9",
"-	c #D9C7AE",
";	c #E1C7B1",
">	c #E7C9B1",
",	c #E0C2A9",
"'	c #E6C2A7",
")	c #D2A280",
"!	c #C49676",
"~	c #C29071",
"{	c #C99E7D",
"]	c #CC9573",
"^	c #D19D7A",
"/	c #DBA987",
"(	c #CDA888",
"_	c #E5CFBC",
":	c #E6B696",
"<	c #EBD0BC",
"[	c #E7BDA0",
"}	c #EBD6C5",
"|	c #E6D6C5",
"1	c #DCCFB7",
"2	c #EDDACA",
"3	c #DED6BC",
"4	c #C19F82",
".++++++.++++++@.++++##++.$$$.%%.&@****=-*==;>;;,**;>>;',#@.++.$$.+#++##@@@@+*********=,;,,,,;;;;;>>;***#*###.)!~{]]]^)//////$$$.",
"++++++++++++++++++++#+.(.$$$$%++@@****=-;;;>;;##**@@@+##+.$.%.$$.++++######**###****#,,,,;;;;;,,;;;;,,,,###+.$$$)^^^^))////$$$.+",
"++++++++++++++++@@++#+@$$$$$$.++******=;_>;;'##+##+@.@++%$)$%%$$%$$.@+#>;',,,,,,**,,,,,,;;;>;;,,;;,,;;;;>>#+..@+$$)))))^///$$$%+",
"++++++++++@@@+++*@@...@@((.@@++#******,;;;#**+++++::++%%$))$%+/$%$($$(.#';;;;;;;,,,,,;;>>>;;;,,,;;,,;>>;;>>'#*++++++%/))//$$$$%+",
"+++++++++@@@@+*#,#*@(((((.+##+##***==,;;;#@.$$$$)$/%%/$)$)$/+:%$$))$$)(@##,;>;;,;;,,';><;'####,,>;,,;;;,#,;>;','#[[[[+%/$$/$$/++",
"++++++@@@@@++*###,;,#*@@@@######**=,,,,,,#@$(())))^^^))$$$%+::+$$$$..$$@@+#,;;,,;;',''>>#*@@@+##;;,,,,,,,,;;;;;;##[[:%/$$////%++",
"++++@@@@++**#,,,*;><<>;;###,,,,#**,,;,,###+..$$)//)^^)$$$%++++++%++%.++@@@**##*#,'',###+@@@@@*##,,,,###,>>>;;,;;*#+@$($$$/%%%%++",
"++...@@++*#,,;;;;>>>>;><;,##,,,,#=,;;,#*+++::+/$//$))$$$.++@@@*++##%.+++@@@@@*####[[#+.(.@@*######,####,#,;>>>>>;,*.(($.$/%+++%+",
"++++@@@@###,;;>>;>>;;;>>>>;;,,,,*,;,####++++::+%%+%$((.+##,,,,=,+++++++++*#+@@@#+++...@@+*###,,>>'##,,,,;;;>>>><*@&@@$($%++++%%+",
"[[##++**##,;>>>>>>>;;;>>>>;;,;;;;,######++.%++++.@+###;<>_<<____;#+++##+++++++@@.....@@+@*';;;,,###,',#***=,;>>_;*@@+$$%%%%%%%++",
"#+++##';,;;>_>>>>>>;;;>_<>>;,,;;;,#####++.$$.@+++#,;;>_<<<}}}||_<>#####++@@+++@($$(..@+**#;>>;,,#######****,;>>>>#...$$%$%%/%++#",
"+++##,>>>>____;;>>>;;;>_<<>>;,,,###''#+.$$$(.+##,;>>>>>>______11<>,#,##++@@+++.$..@@@+**;;;,,;;;,#***,;>;;>>>_>;#@$($$$%$$%%+++#",
"####,,,,;>____>;>>>;;;>>>>>>>>;;####+.$$$..@*#;;;>_<<<}}<_______>><>,*@@@@.$$$$%.@@@+###;;,,,;;;;,,*#;><_<<>><>,.$($$$$$$$%++++@",
"++#####*,;>_____>>>;;;;>,;;>>>>>;,#.()(..+##;;>_<<<<<<}}<<<_____><<<;*@....$))$+.@@+##,,;;;>>;=*,,;>>>>>><_>><>#$$$$/%/$$$$+++.(",
"$.@+##,,,;;>____>>>;,,,,######,,,#+.$$@+##;>>__<<<<<<<<_<_________<<>;##@@%//%%+++*##,;;;;;>>;=**,>>>>>>;>>;><>*$$$$/%%//$.@++@.",
"++++*##,;>>;;;-;_>>;,,,,#*@@&.@@+@@+####'>><___<<<<<<}<<<<<________<<<<>+@@+:[:+###,,;;;<>,=-;;;;;;;,;><>_>;;<;+%/$$/%%/%%%++#+@",
"@+####,;;;,==;>>>>;;;,,,#****+.((.+###,;;><___1__<}}<<<<>_______<<}<<<<}<<<<<>'##,';;;;;,;;;;,**,,,,;>___>,;>>#+/%//%++$$.+++@@+",
"###,##,;;;;;;;;;;;;,,,,,#**###+@+###,,;>>__<____<<<<>;>>>>>>>___<<<<____}____>;,,,,,,;;;;;;;,,,,##,,;>>_>>>>;#+%%%%$%+%$$$$$.@##",
",'';,,,,;;;;;;,,;;,,,,,,****####';;;;;><__<}}|}}}<_;****,;,;;;>>>><__>__}__>>>>>;;,,,,;;;;;,,,,;##,,;>>>;><>#+.%$%%$%%.$.$((@*#,",
",;;;;,,,,,,,,,,,;;;,,###****#,,,;;>>>>>_<<}}}}}}<_>=*@@******==#,;;;>;>___;;;>>>>;;;,,,;;;,,,,,,##,,;;;;,>>;*.$$$$$.%..$(.@*####",
",,,;;;,,,#***,,;>;;,#********=;;;>>_<<__}}}}<<__>>;,***@@@@***+@*#,,;;>_;;;;;>>>;;;>;;,,,,,;,,**###,,;;;;;;#@.$.$$.......+,;;,,,",
",==,;;,,#****#,;;;,,********==;>>__}}}<_}}<___>>;;;;;,**@@@@++@.@+###,;>;;>__>>>;;;>>;,,=,,;,=**####,,,;;;#*@..%+@@+@..@#,>>,,,>",
";--;;;;=*****#,,,##******=,;;;_____|}}}_<__>>>>;;;;;>>;,*+@@@@+.@@+****=,;>>;;;>;;;;;;;;;;;,,***#####,,,;;,#+.....@@@@*,;;;;,,;>",
";;-;;;,=**######*********=;>__}22____}}___>;>;;,;;,;>>>;'#@..+++@@@+@@@*,;;;--;;>>;;;;>>>>;,****######,,,;;#+$$.$(&@+*,<;;,;;;;=",
";1___>;>;;,=**#,******,,;>_____}|______>;;;;;;;;,=,;><<>>;##++%......@@@#,;;==-;>>>;;;;;;;;;,#**#######,#,'#+.$$.&.@#,,,#*,;>>;=",
"-;>_____>>_>;,,,***,,;;>______}2}|___;-=;;,;;;;;,,,;;>;,''###:+++++#####*#,;;;>>_>>;;;,,;,,*****###########+.$$$..@+#,,,;,**,;>>",
";;>______<<<<>;,*=;>>____<}}<__<<___;-=*=,,,,,,;,,,;;,#*##########'''''###,;;;>>>>>>;;,,;,#**#######+####[#+$)$.@+##,;;;;;==,;__",
";;_____<__<<__;-=;>______<22}_>;>>>;;;,,,,,,,,,;,,;;,#**@*##**##''''''[###,;;;>>>>>>;;;;,#######++++++++###+$$%+##>>>;;>,,;_<_>;",
"________________________}}}<_>;=;;;;;;;;;;,,,,,,,,;;,,******++#,;,####++++##,;;>>>>>;;;,####+++++++++++++:[:+%+###>;,#,;#;<<}<>;",
"_____________|}|2}}}||<}2}_;--;;;;;;,;;;;;;;,,,,#,,,,,#,,,****,;;,*@++@...@+#,;;>>>;,########+++##++++++%+::+++#@+##@@@*;><<<<_<",
"<__>________||}|}222}|__}_;=,;;;;;,,,,,,;;;,,####,,#**,,,,***,;;;#*+*+@...$.@*#*,*#*****##+++++%+@+...%%%%%%%%%..@@@@@@*;>>>>_<<",
"<<>>>>______|||__|}2}}__;;;>>>;;,,,#,,,;;;,,##**#,##**#,#***,,,,,***##+.+.$$.@@@@@@@+++#+@$$$$$$(($$$$%%%$$$$$$$.@+@++#,,;<<<>><",
">>'#'>;>>>>_______>>>;;;;;;;>>;,,,,;;;;;#,,,',###,,#***#,###,,#+#####*##++++.$$$((.@++++$$$$))^^{{]{^)))^))))$/%%+++++###,>>;,'>",
"+++#';#*##,;;>>>>>>>>>;;;,##,,,,,,,;;;;;,,,,,,####*@@@@****####*########++++%%/......+%+%%///$)^^^^]]^^)^^))))///%%.@+######,,##",
"...+##*@@@*=;;;;;;;>>;,,,*@@**,,**,,,,,,,,,########+@@@*####*@@@+##'#####*++%%%%......%%+%/%%%/$$$)^]{^^^^)$$$//$$$.+#,',*@@##+.",
"++@@.@@@@***=;>>;;;;;,#***@@**,,****,,,,,,##########+@@@*#,#*@@@+#########++%%%%...+++%%%$$/%+%%%/$$$$))^))$$%%+$$.+#>><>#@.@@.(",
"##+@((@*#****=;>>;;,#*******#,,,########',######++@@@@..@+*#****@++########++%%%..+++++%%$$$%%%$%$$%:[:%$$$$$/%+$$.#'>>>;#@&$.++",
"+#'#+@*,,#****=;>>,#*******,,;,,,##***##,,#######+.$$@+#*##,**@@($.@##,,####++%%%.++++%%%$$$$$$$$($+[>'[#+%$$$$$$.+#,;,##*+@.+#[",
"##;>;;,,,,****==;;,#******#,,;,,,,#***#########+#+%.+###;;;;,*@&...@+########::+++%%$$$$%$$$$$$$$$.+#''>>'#++.$((@#;>;,,**####[[",
"'##,;;,#,,,,;,=*,,,,##**#**#,,,,;,,***########*+$$%+:##+,,,>>>,*++@@@***###'[[[:[:%$$$$$$$$$$$%+.@@@@@#'>>'##*@&&*;<<<<>**#,'[#+",
"@*#,;;;,,;;>>>>>;,******,,,,,;;;,,,#########+@.@$/%++##+**#,>>>;#+@.@+**#*+++:::[%{!)$$$%%%$$$..@@@@@@*##>>>;;,***;><<>>;,##>>[#",
"**#,,;;;;;;>>>>>,,****##,,,,,,,,,,,,,,,,###+.(($$%+++##++@+*,,,##++@@+@@@.($$$$$$$)$%%$$$$$$$$$@@@***####,;;;>>;,;;>>>;,>;;,,,##",
",=*=,;;>;;>>>>;;,#***#,,;;,,,,##,,,,,,,####+@...+++++++...@@+***##++++@@.(())))){)$%+%$$$$$$$$.@@@*,,,,,#,,#,>>>>>>>>;;;><>;#*#'",
",,==,;;>>>;;>;;,#****,,,;;;,,,,,;;'',###+*###+++++++%..(....@@@+###+++@@.&((($$$$$$$$$$$$$$$$$.@@**###,,,,#**,,,;>><>>;;;>>;#*#,",
"===,,;;;>>;;;;,,#***#,;;;;;;,,,;;;;',###++++#####++++..$@@@@@@++###++*##@@.$$$$$///$$$$%$$....++******#,,###****,,>>;,==;;>;;,,,",
"=====,;;>;,;;;,*#*#,,;;;,,,,,,,,'',#############[#++++@@+++@+@++###++*#,##+++%$$$$/$$$$$.%...++####***,,#*#,,**##,;;****==;>_>;=",
";==***,;;,,,;;,*#,,;;>;,,,,,,#####*++++##########+++++++++++++++++##++*######:+%$$))$$$$%%++.++#**,,##,,#**##**##,,#***=;;;>__>;",
";=****,;;,*,,;***=;>>>;,,,,,#***#+@.$$$$%%%++#++#@.++@++++++++++++##+@@@+*###[#:+$){^$$.%+++.@++@*#,,,,,,****@@*#,,***;_>___>>_>",
";,**@*,;,***;;,**-___;,=#****@@+$$$){]]^^)$%++#+++++++++@@+++++%+:##+.@+@+####++#+$)))$$$++@.@+###,,###,#******,;;>>;;;111>_>>>>",
"#,;>>;;;,***,;,=;;==***,***+++@@$)^^^^]]^^^^)$..+%++##++@@@@++++++++...++*###*@+++%$$($$$.@.@+#########,##***#,,*,;>_1__11__>>;,",
"#;><<>;;;;;;;;>>;,@@@@+++++%.$$$){!{^^^]]]^^)$$..%++##+@@@..$$%%+++@@.@+++#*++++++++%.$$($..+###############,,,,;;>>>;;_;>_>>,##",
",,,;,;;;>>>>;;;>##+++++%+%%/$)^^){!]^^{!~]^$%%++%+++#*+@+@@.$$$$++#+@@..@@+*++++++++++....@@#''############,,,,,;>>>;;;;;;;;,##+",
"',#***###;>;#*++#:::[:+////^^^^)^^{{{{)({)$$$/+:+++++++++++++++++*###@.(.@+##++++++++++++++*#',######,,####,,,,,#,,,,;>_;,,#####",
",####**+*#,,*@..%$$$$)))^^]]]]^^^^$$(.+##+.)^)/::###+@**+*##'''',;;>;,#@@+###++++#+##########',######,######,,,;,;;,,,;>;,######",
"######*+#####+@.$))^{]^^]]]]]]]]^$%+*#,><>#${^)/:####****##,'>>>>>><<>;'###+++++++#######,;,#,#*#############,;;>>>;,,,;;;,,,,#,",
"'#+@+########++@$/%/)^^^^))))^^{)%:';>>>>;#.{!]^+##,#***,,####';>;;;;>>>>'#@..++@+#####*#,;,#####++*###*#####,;>;>;;;;>_;>>;;;,,",
"'#*+##,,#''#*#*@.%%%%%%%%%%%$$/%[[[';;>_;,,##%)^(&@#,,,=,,=*####,==,;>;,**+++@+@*##,###,,;,,,,,####++*#####,,;>>_;-->___<<<_>;;;",
";#####'','#+@++@++++++++++++%++:[['',;;>>;,,[:+%(((&@***=*********,;;,*@@@@@@+###,,,,,;;;;;;,,,,####****##,,,,,=;;1________<<_;=",
"',###,,,;,#@@@@@**********++@+####,##=,;>;,,,'[[@@&@*,=====*******,;,#@@@@@@@#,',;;;;;;>;;;;,,,,,,,#******;>;;==;11_____<<_<}_;*",
"',,,,,,,;,*@@@@++**+++++*+@@@*#####***,;;,##,''',,,;__>;;;;,=*****######****##';,;;,,,;>;>;;;;;;;;,,,***@*=;>;;-_11___<<<<<__>;=",
",,,,,,#,;,******++++++++*+@@@*#,*****#,;###,,;,,,;>________>;,,#######,;#,,,;;;;;;;;,;;>>>>>>>>>;;;;;;,,***=;;;;___<<<<>><<<<;;,",
",,,,,##,,***#***********#*+*###,****##';',,;>;-=;;>;-;_2}}<<_>;,##''#####,;>>>>>>>_>>>__________>>>>>>>>>>>;>____<<<<;##+[><>,,,",
";;;;,=,;,***=***#############,##=-;,##['>;;;;--->>;,=;_}|}}}}<<>>>>'###,;;>><<<<<<<<<_<<________________}}}__|}}<<>'#.$$$$+:###'",
";>>;,,,;,*@*#**,*###+*+*#*#####*=;;;,###>;,;;;--_>;;--==__}}}}<<<<>,##;<<<<__<<<__<<<_______<_<<}<____<<}}<<_||}}<#.{!{){{!{(+#>",
"=--;,,;;*****##,##*####+@@+*#,,,,,,,,,,,;,**;;;=__>>>;;;;_<}}}}}}}}<<<<}___||___||||____}}||||}}}<<<<<__>>____<<<[${{{$%$$$$($+#",
"=---,=,,########',#,,,##****##,,,,,;;;;;;,**,;;;>>>>>>;;;>_<<<<<<<}}2222||||||||||||||___|||||__}<<>>;;;;;>>_<<<#%((%+#[[[##++##",
"=-;;;,##+####,#,''#,,,,#,,##,,,,;;;>>>>;;,**,;;;;>>>>>;;;;>>_<<<__<}2222||||||||||||||||__|}|_____>;;;;;;;;>>>_<*.(@#''#''''####",
"-;>_>;,########[+++++*****#,;>>>;>><<<>>;,*,,;;;;;>>_>;;;;;>_<<<<<<<<<<_<}|}}||_<<___<<}______1>>>>>>>_<>>>>>;;;#@@#;,#**###**#,",
";;__<>'#[[+.$$$$$&&(&.@@@*,;>>>>>><<<<>>;;,,,,;;,;;>>;;,,,,;><<<<<<<>>>>__<<_____>>>__________1_>>_<<<<<__>>>>;;**,;>;,;******,;",
";>>>>;##++$$))))((((&.@@*,;>>>;;>>><>>;;;;,,,,;;,;;;;;,,,**,;>;;,,##*#,,;;;;>;;;;,,,;;>>_>>;;>>_>_<<<<>>>>>>>>>>>>>_>;;>;;,=**,;",
">;;;'#+%$))))$$$$...@@#,;;>>>>>>>>>>;;;,,,,,,;;>>>>>>;;;;,,;;;,*@@@@@@@@##############,;;;>>>______<__>>>>>>>>>><>>>;,=,;;;,,*,,",
">;,,#+.$)$$//$$$.@@@+#,;<_>>>>___>>;;,,,**,,,;><<<<<____>>;;>;**++##*+@@+***#**++++++###,;>___>>>>>>__<<>>>>>>;>;**,;;,,,;>;;;',",
",,#+@$$$))$$$/%+++##';;>>_>__>>>;;,,,,,,>;,;><<<<>;,,,,,;><<>;,,##++##++++++++++#++@+*#',,;>>>>>>>>>>>_<<_>>>>>>*#,,##,;,'>>>>>>",
"'#@($$$$))$$$%+++*##,,;;;;>>>>>>;;;;;;;;;;;>><>;;;,,,,,*,,,,,,;>',####++@@@+++##+++++###,,;;>>>>>>>>>>>_<_>>>>>>,''#+.(($$.+:['>",
"@())$$$$)$$$.+++###,,,,,,;;>>>>;>>>>;;;;**;><<>;###,,,,*#####,;>;;',###*+@+++++#+++###++,,,;;;;;>>__>>>><____>;;####+$){{!!{$%::",
"!!{$$/$)$$$%%++#,,;;;;;;,;>>>>;,>>>>>>;;*,;<<>;,***,,;,,,,,,,,,,;;;,,,,####*++++++###*+@###,,;;;>>_<_>>>_____>;,*##[#+%.${!!{)))",
"~!^$))))$.+++###,;;>>>>>>>>>>;,,;;;>;;;;><<>;,**,##,;;>>>;,,,,,;;;;;;,,,,,###***####*++++**##,;;;>>____<<<<<<>;=,''[##+++$))))^!",
"{))^{{)$%++###,,;;;>>___>>>;;;,,,;;;;;,,;;;;,,,,,,,,;>>>>,*@*,><>>>>;,,,,,#########*****@@+*##,,,;>>>>_<<<<<<>;,,#######+%.$%/$)",
"%//$))$%++###,,;;;;>>>>>>>;;,,',,,;;;,,,*****,;>,,,,;>;;,#**#;><>___>;;;=,*###,,####****++++*###,,;;;;>>>>>>>;,***@@####++++++++",
"++%%+::++##,,,,;;-;;>>>;;;,,#''>,,';;,,####****#,,,;>;,#**#;>>;,;;___>>_;,==******#####***+++***,,,,=,;;;,,,,,**##**##*+*##+++++",
"['''',,,*#,;;;;;;;____>;,,,'[[[[[:++++####++++@@@******#*#,>>>;,;;_____>_>,=*====***######******###**##,##,#*+**####*#*@,@@#''';",
">>>,,#,,;;,,,;>_____>>;;;;'##+++$$)$/+::+++++++@@*,****#,,,;;;,,>>________>;;-=****####+###******##########+@@++###++##*,**#,''>",
"#####,;;;;;,;>>_<<_>;,,,'##+%$$$^^)$%+::+++++@+@**,,**#,;;,,,,,;>>>>>__<_____>-=***####+###******#####++++.$($.++##*******##,''#",
"*##,,;;>;>_____>>>;,###++%$$))))))$%%+::++++++***,,;,,,,;;,,,,,;>>>>>__<>>__<__;==*****+###******####+@.@.$()$$%.+###*@&&*''['[:",
",;>>>>>><<<<___>####+@..$$)^^^^))$$%%++++++*####,;;;;,,,,,,,,,,;;;>>______>_<<<__>=*****##*******++@@..$$$$$$$/$.+#+@@@&+,'#+:[:",
"@+#,';;;<>;==***@@+@.$$$$$)^^^^))$$%%++#+######,;;;;;;,,#,,,;,,,,;;>>>>><<_>______;==***##*******@@((((($$$////$+++@&@@*''+$))$/",
"{{($.@+#+@@@&@@@@+.$$)))))))))^))$.+++##+####,,;;;;;;;,,,,,,,,,,,;,;;>>_<_>>>>>>__>>;;,*##****##*+@.((()$$$$///$.@*@@+##,+.${{^)",
"$$){!{{){)(.@@@@++.$))))^^^^))))$$....+#****#,,;;;;;;;,,;;,,##,,;;==,;><>>>>>_>>>>___>;*######,,##++.$$$$)))///${.######+..+%)^^",
"^^^^^^^^^^$+##@@.${{)$$)^)/////$$...+#+@@*####,;>>;;;;>>;,######*=,,,,;;<>;;,;;;;;--;>>_;,##,,##+###+$$$$$)$////(&@*###,#++%////",
"^^^^^^^^^^/['#*+$$$$$$$)%%/////$$@+@@@+@+*#,,,;;;;;;;;;;,,,,,,,#,,=**=;_>>;;;;;;=-;;;;;;;,,###++++++%$$$///////${.*,#*@@*+++%//)",
"^^^^^^^^^)%[''##++++%%++[:%/$$/%.++@.@##',;;><>>;;>>>;,,#,,;;,,,,,,**,;>>;;;;;;;*=,;;,==,,,##++++++%$$%+%%%%///$.#;>#@@@+###:%$)",
"))^^^^^^^/:'',,,,#####'>##++++#[.@@.@#'>>>>><<_>>>>>>;,#,,,,,,,,*,;>>;;;;;;;;;;;,,,,,=***###+%%+++%%$$%%%%%%$$%%'''#*@*#####:+$$",
"$$$))))$$+[',,;;,#*#,;;'######''++..+'>;;;;><_>><<>;;,,#,,,#*##,#;><<>;;,,;;;;;;;,,****#*##+$$)$%%%%%$$$%%.$$%+[>#+@@**#,,##++%.",
"..$$$$/$%#';=---,,;><<;*#,,,,,,,'#@@*;;#,,;>_<__<_;,**#,,,,#**,;>>>>;;;>,,;;;;;;;;,#**####+.)^^^/$$//%$$%++..+#'#++*#,,*;,#*++++",
"@@@.$$$.#,;;--1-_>_<<>,**==,,==*'##+#',#,;;>>>>>>;,***#,*#,###,><_>;;,;;,,;;;;;,,,###**##+.$)^^^)))$/%/$.++@..+#+++#,,,,,,***+++",
"*@@.....#,;--111_<_;********===*#####';,#,;,**********##**,,,,;<;>>_>,=*,;;;;;,,##,,,###+.$$)))^^^^)//%%$%++$((.$%++###,,###**++",
"##+@@@@@,,;---13_<_;*******##,,,##';;,,#,,,**@******###***#,;;;;>>>>;=;;;;;;,###*==,##+++/))//)^^^^^^^^)))))^{{{{)$$$$+##[##+++#",
"#++@@@+##,;11111<>,***,,########,,,,,,,,,,#****###++***@@@*,;>>>__>>;--;;;;,,###*==*##:+/)))//$$))^^^^]]]^^^^)$$$$$$)))$$%++:#['",
"###+@@*#,;;______,*@*#,,,,######;,,##,,;#****#####+@@+@@@@*,;>>><>;;;;;;;;,,####==**+++%^^)///$$))))^^]]]]^^)$/%++%%$$$)$.++++++",
"+###+@#;<>>>____=***##**,,####,,;,,###,;**@**##*##*+++@@###,,,,,>;,;;>>;;,,#####,,##+%//))///$$$))$$)^^^^))//$%%+++:::+++++++...",
"$+####;_<_>>>>,#**#,#***###*##,;,,,,,###**@@****########;,#****#;,#,;>>;,,,#####,,##+/)^)////$$$$$$%%/$)////$$$...++#[[#+++++++*",
"+####*=;;>_<>#@(+####*#,****##,,##,,,#**********#####,,;,,#***,,###,,;;;,,#**######+/)^^^)//$$.%%++++%/$$$/$$$$.$.++##[#'#######",
"'[##**==;>>;#+$)@@##############*#,,,#*@********##';'';;,,,,,,,,#####,,;;,#**####:%$)^^^^^)$$$@++++++%%$$$$$$$$..+######>',#,,##",
"[#+@*=>_>>,+$$//(.+'>>#@#######**####**@@*##**#,##;>;;;;,,;;;,,##['##*#,,,#####[:%$^^^^^^^))$$..@+++++%...%..$...++++@+#####'',#",
"+++*#;>_>#@$$/)^$($+[>#*########**####**@**########,'',,;;;;,,,##########,,##[#++$^^^^^)))$$$.++++++++++.@.@@@...@++@@++####,#*@",
"++##;;;;,*.$$//)$($.+[[#########*******#****#########,,,,,;,,,,,########*#**#'#+$^]^^^^)$$$..@@++++++++@+++++++.+++@..@@+@+*##*@",
"++##;;',+@$$$///$$$$$+['######**#*@@@*#,,,#**##,#######,,,,,,,,,########,####[%^^]]^^^)$/%%+++@++++++@+@@+++++++++..$....@@@@@@@",
"####['[#$$)))$/%/$$))$+##########**@@**#,,####,,##*+*###,,;;,,,#####,,,,''##:%){{]^^))$$%+++++@+++++++##@@@+++::++$$$.$$.@++@@++",
";;''[[+/^^^^)$.%$$$$)(.++#########*******##,,,,,##*++*##,,;;,,**##########:+%$^^]^^)$/%%%+++++@@%%%++###*+@.$%%+%.$$$%%..+++++#[",
">>>>[%^]^^^)$$..$$/$$$$%+++#####**##**@@**#,,,,,###**###,,;;,,***####*###++$^]]^]^$$/+++++++++@+.$$..+##,#+.$$$$/$$$%%+%$.+++#'>",
",;,#$^]~]^)/%.@@$$/$$$$$$.@@++++@**********#####',########,;;,,*,=*****#+.)^]~]^$%+%%::+++++++++%%/$.@++##++%$$$$%%%%%%+%%%%+#['",
"**@)~~~]^)/%+@@@%%%/$$()($..@@@@@@+***#####***##',,####,**,,;;,,,=*****+(!~~{^/::[[#+##++++++++#:+%...@+###:++%/$%+++%+++%$.++++",
"+$))$)^)$$%+++..+...%.$($()$+++..@++++++#@@@*##*#,,****,***#,,,;,**,#@(4!{($+[[[',,###**#*+@@@+*##++@@..+#[[:+%%%.%++..++@((.@++",
"$){$$$$%++++++++@.....$()($%++$)))$$$.%+++@@++#*##,##***@****###',##@(44@###'>>',;,,,####**@@@@***+++@...+[[:+.$+++###+###++**+@",
"$))$%+++:+++++++@@.@+...$.%++$${{{{{)($$..+%@++++*####+++@@+++*##:+$){(+>>>;;>>;;;,,,,,,,,##****+*##*@@..+['#+..++.+######'''#@(",
"$$$%+:++++++++++@@@@+++@+++%$$$$$)){{{)$$$%%$$%+.++##++++++@@++++/){!)+>';>>>>>;;,;;;;;;;;;;,,#######*+@@+#['##+#+.@+######[#+$)",
"$$$%+:++++++++..@@@@+++++++%$$$%$$)^{^))$$///$/%$/%%++%%++%%%/$//)^^^$+##,;___1;>;;>>>>>>_<_>>;;;,,##**#*@@+'>'#'#+@+###+++++.({",
"$$%%+::++++++++@@++@..++.%++%$$$$))^^^))))//))//$$$$////%%%//$))^]^$%%..#,;__1-;_>>_<<<<<<<<<_>>;;,,*##,#@&@*,,#,,*@@++@+++%$$$$",
"$%%%%::+++++++++@++@..++.%%%$$$$$$))^^^^^^^^^^^^^^^^)//)////)^^]~~{/:[++#**,;;;>>>>_<<<<___<<___>>>>>;;;,*@@@*###,*@@@@.+++%$$$$",
"%++%%+:++++%@++++++@...+:+%$$$$$///$)^^^^^]^^^^]^^^^))^^^)))^]~~{{)$+##[#*+#,,;<>>>>>>>>>_______<<<<<<>>,,,*@@**,;,*@*+++++%$))$",
"$%%+%%++++%...@+++@..++#++%$$$%%%//$$)^^]]^^^^]~^^^]^)/)^^^^]~]^(@#;>>>>+++++##,,,;>>>>>>>___________<<_,;;;;>>>;,*@&@+#+++%$$//",
"$%++++++++++@@+++++@++++:+%$$$$$$////$)^^]]]]^^^]]]]^)///^]]]^/+,><<<;##++++++::+*##,,,,>>>>____>>____<<>>>>>>>;<<>,*@..#+%$)$//",
"%%++++++++++++++++++++++++$$$$$$$$$/%/$^^^^]]^^^^^^]^)///^~~^/%:,-;>;,*@+++%%%%%.@@+****,,,;>>_<_>>>>___>;;><<<<<<<>;#+.+.$$)$$/",
"%%+++%%%++++++++++@@++++%.$$$$$$$$$$/$$)^)$)^{^^))^^^)$$^^^)/%%.@&@****@@@%%%//$...@@++*@****;>>____>>__>>;><<<>>><<>;#+$$$$$$/$",
"%%%%%%%.%++++++++@..++##%.$$$$$%$$$$$$$$$$$$$($$)))$$)))^$+:::+.@@@@**@@..@+++%%...@@@++@@***=;>_______<<<>>><>><<<<<>'#++$$$///",
"+%%%++%%..+++++++...+###++%$$$$$%$$$$$$$.....++#++++$){!.:'[[#[[###*++@@@@@@@+++%%%@+@++@*#,,,;>>>>_____>>>>>>><>;;><<<<>[%$$$%+",
"++%++:+%++++++@....+#[#++%%$$$$$%$$$.%%.++++#,;>>'[#+.((#''#+##':::++++*@@@@@***++++++++*#;;;,;;;;>>>;,,*******,@&&+'><<>#.($$..",
"++++::+++++++@....@+[[+..$$$$$%%$$.%++++++#'>>;,>;'>>,#'#''*@@++:[[:+++#**@@@***[[#:++##*#>;;,,,;>>;;**@***&4444(44(.+##+.$($$$)"};
