/* XPM */
static char * Smooth_xpm[] = {
"10 200 33 1",
" 	c None",
".	c #969AAA",
"+	c #CACED2",
"@	c #BABEC6",
"#	c #AEB6BE",
"$	c #A6AEBA",
"%	c #9EA6B2",
"&	c #C6CACE",
"*	c #9AA2AE",
"=	c #CED2D2",
"-	c #C2C6CA",
";	c #A2A6B5",
">	c #D2D2D6",
",	c #AAB2BA",
"'	c #B2BAC2",
")	c #969EAE",
"!	c #A2AAB6",
"~	c #D2D6D6",
"{	c #BFC2C9",
"]	c #9A9EAE",
"^	c #9EA2B2",
"/	c #A6AAB6",
"(	c #AAAEBA",
"_	c #D6D6D6",
":	c #AEB2BE",
"<	c #B2B6BE",
"[	c #CECED2",
"}	c #CACACE",
"|	c #C6C6CE",
"1	c #9AA2B2",
"2	c #D6D6DA",
"3	c #B6BAC2",
"4	c #B2B6C2",
"||||||||||",
"----------",
"{{{{{{{{{{",
"@@@@@@@@@@",
"3333333333",
"3333333333",
"''''''''''",
"4444444444",
"<<<<<<<<<<",
"<<<<<<<<<<",
"::::::::::",
"::::::::::",
"::::::::::",
",,,,,,,,,,",
"((((((((((",
"((((((((((",
"((((((((((",
"$$$$$$$$$$",
"//////////",
"//////////",
"//////////",
"!!!!!!!!!!",
"!!!!!!!!!!",
";;;;;;;;;;",
";;;;;;;;;;",
"%%%%%%%%%%",
"%%%%%%%%%%",
"%%%%%%%%%%",
"^^^^^^^^^^",
"1111111111",
"1111111111",
"1111111111",
"**********",
"**********",
"]]]]]]]]]]",
"]]]]]]]]]]",
"))))))))))",
"))))))))))",
"))))))))))",
"))))))))))",
"))))))))))",
"))))))))))",
"))))))))))",
"))))))))))",
"))))))))))",
"))))))))))",
"))))))))))",
"..........",
"..........",
"..........",
"..........",
"..........",
"))))))))))",
"))))))))))",
"))))))))))",
"))))))))))",
"))))))))))",
"))))))))))",
"))))))))))",
"))))))))))",
"))))))))))",
"))))))))))",
"))))))))))",
"))))))))))",
"))))))))))",
"))))))))))",
"))))))))))",
"))))))))))",
"))))))))))",
"))))))))))",
"))))))))))",
"))))))))))",
"))))))))))",
"))))))))))",
"))))))))))",
"))))))))))",
"))))))))))",
"))))))))))",
"]]]]]]]]]]",
"]]]]]]]]]]",
"]]]]]]]]]]",
"**********",
"**********",
"**********",
"**********",
"**********",
"1111111111",
"1111111111",
"1111111111",
"1111111111",
"1111111111",
"^^^^^^^^^^",
"^^^^^^^^^^",
"^^^^^^^^^^",
"^^^^^^^^^^",
"%%%%%%%%%%",
"%%%%%%%%%%",
"%%%%%%%%%%",
"%%%%%%%%%%",
"%%%%%%%%%%",
"%%%%%%%%%%",
"%%%%%%%%%%",
";;;;;;;;;;",
";;;;;;;;;;",
";;;;;;;;;;",
";;;;;;;;;;",
"!!!!!!!!!!",
"!!!!!!!!!!",
"!!!!!!!!!!",
"!!!!!!!!!!",
"!!!!!!!!!!",
"//////////",
"//////////",
"//////////",
"//////////",
"//////////",
"$$$$$$$$$$",
"$$$$$$$$$$",
"$$$$$$$$$$",
"((((((((((",
"((((((((((",
"((((((((((",
"((((((((((",
"((((((((((",
"((((((((((",
",,,,,,,,,,",
",,,,,,,,,,",
"::::::::::",
"::::::::::",
"::::::::::",
"::::::::::",
"::::::::::",
"::::::::::",
"##########",
"##########",
"<<<<<<<<<<",
"<<<<<<<<<<",
"<<<<<<<<<<",
"<<<<<<<<<<",
"4444444444",
"4444444444",
"4444444444",
"3333333333",
"3333333333",
"3333333333",
"3333333333",
"3333333333",
"3333333333",
"@@@@@@@@@@",
"@@@@@@@@@@",
"@@@@@@@@@@",
"@@@@@@@@@@",
"{{{{{{{{{{",
"{{{{{{{{{{",
"{{{{{{{{{{",
"{{{{{{{{{{",
"{{{{{{{{{{",
"----------",
"----------",
"----------",
"----------",
"||||||||||",
"&&&&&&&&&&",
"&&&&&&&&&&",
"&&&&&&&&&&",
"}}}}}}}}}}",
"}}}}}}}}}}",
"}}}}}}}}}}",
"++++++++++",
"++++++++++",
"++++++++++",
"[[[[[[[[[[",
"[[[[[[[[[[",
"[[[[[[[[[[",
"==========",
"==========",
"==========",
">>>>>>>>>>",
">>>>>>>>>>",
">>>>>>>>>>",
">>>>>>>>>>",
">>>>>>>>>>",
"~~~~~~~~~~",
"~~~~~~~~~~",
"~~~~~~~~~~",
"__________",
"__________",
"__________",
"__________",
"__________",
"__________",
"__________",
"2222222222",
"2222222222",
"2222222222",
"2222222222",
"2222222222",
"2222222222",
"2222222222",
"2222222222"};
