/* XPM */
static char * SmoothBW_xpm[] = {
"10 200 31 1",
" 	c None",
".	c #959595",
"+	c #B6B6B6",
"@	c #A5A5A5",
"#	c #C7C7C7",
"$	c #ADADAD",
"%	c #9D9D9D",
"&	c #CECECE",
"*	c #BEBEBE",
"=	c #B1B1B1",
"-	c #999999",
";	c #A9A9A9",
">	c #CBCBCB",
",	c #A1A1A1",
"'	c #D2D2D2",
")	c #BBBBBB",
"!	c #C3C3C3",
"~	c #B4B4B4",
"{	c #9C9C9C",
"]	c #A7A7A7",
"^	c #AFAFAF",
"/	c #D0D0D0",
"(	c #ABABAB",
"_	c #A3A3A3",
":	c #B7B7B7",
"<	c #C8C8C8",
"[	c #9E9E9E",
"}	c #B2B2B2",
"|	c #9A9A9A",
"1	c #CCCCCC",
"2	c #D3D3D3",
"!!!!!!!!!!",
"!!!!!!!!!!",
"**********",
"))))))))))",
"::::::::::",
"::::::::::",
"++++++++++",
"~~~~~~~~~~",
"}}}}}}}}}}",
"}}}}}}}}}}",
"^^^^^^^^^^",
"^^^^^^^^^^",
"^^^^^^^^^^",
"$$$$$$$$$$",
"((((((((((",
"((((((((((",
"((((((((((",
";;;;;;;;;;",
"]]]]]]]]]]",
"]]]]]]]]]]",
"]]]]]]]]]]",
"@@@@@@@@@@",
"@@@@@@@@@@",
"__________",
"__________",
",,,,,,,,,,",
",,,,,,,,,,",
",,,,,,,,,,",
"[[[[[[[[[[",
"%%%%%%%%%%",
"%%%%%%%%%%",
"%%%%%%%%%%",
"{{{{{{{{{{",
"{{{{{{{{{{",
"||||||||||",
"||||||||||",
"----------",
"----------",
"----------",
"----------",
"----------",
"----------",
"----------",
"----------",
"----------",
"----------",
"----------",
"..........",
"..........",
"..........",
"..........",
"..........",
"----------",
"----------",
"----------",
"----------",
"----------",
"----------",
"----------",
"----------",
"----------",
"----------",
"----------",
"----------",
"----------",
"----------",
"----------",
"----------",
"----------",
"----------",
"----------",
"----------",
"----------",
"----------",
"----------",
"----------",
"----------",
"----------",
"||||||||||",
"||||||||||",
"||||||||||",
"{{{{{{{{{{",
"{{{{{{{{{{",
"{{{{{{{{{{",
"{{{{{{{{{{",
"{{{{{{{{{{",
"%%%%%%%%%%",
"%%%%%%%%%%",
"%%%%%%%%%%",
"%%%%%%%%%%",
"%%%%%%%%%%",
"[[[[[[[[[[",
"[[[[[[[[[[",
"[[[[[[[[[[",
"[[[[[[[[[[",
",,,,,,,,,,",
",,,,,,,,,,",
",,,,,,,,,,",
",,,,,,,,,,",
",,,,,,,,,,",
",,,,,,,,,,",
",,,,,,,,,,",
"__________",
"__________",
"__________",
"__________",
"@@@@@@@@@@",
"@@@@@@@@@@",
"@@@@@@@@@@",
"@@@@@@@@@@",
"@@@@@@@@@@",
"]]]]]]]]]]",
"]]]]]]]]]]",
"]]]]]]]]]]",
"]]]]]]]]]]",
"]]]]]]]]]]",
";;;;;;;;;;",
";;;;;;;;;;",
";;;;;;;;;;",
"((((((((((",
"((((((((((",
"((((((((((",
"((((((((((",
"((((((((((",
"((((((((((",
"$$$$$$$$$$",
"$$$$$$$$$$",
"^^^^^^^^^^",
"^^^^^^^^^^",
"^^^^^^^^^^",
"^^^^^^^^^^",
"^^^^^^^^^^",
"^^^^^^^^^^",
"==========",
"==========",
"}}}}}}}}}}",
"}}}}}}}}}}",
"}}}}}}}}}}",
"}}}}}}}}}}",
"~~~~~~~~~~",
"~~~~~~~~~~",
"~~~~~~~~~~",
"::::::::::",
"::::::::::",
"::::::::::",
"::::::::::",
"::::::::::",
"::::::::::",
"))))))))))",
"))))))))))",
"))))))))))",
"))))))))))",
"**********",
"**********",
"**********",
"**********",
"**********",
"!!!!!!!!!!",
"!!!!!!!!!!",
"!!!!!!!!!!",
"!!!!!!!!!!",
"!!!!!!!!!!",
"##########",
"##########",
"##########",
"<<<<<<<<<<",
"<<<<<<<<<<",
"<<<<<<<<<<",
">>>>>>>>>>",
">>>>>>>>>>",
">>>>>>>>>>",
"1111111111",
"1111111111",
"1111111111",
"&&&&&&&&&&",
"&&&&&&&&&&",
"&&&&&&&&&&",
"//////////",
"//////////",
"//////////",
"//////////",
"//////////",
"''''''''''",
"''''''''''",
"''''''''''",
"2222222222",
"2222222222",
"2222222222",
"2222222222",
"2222222222",
"2222222222",
"2222222222",
"2222222222",
"2222222222",
"2222222222",
"2222222222",
"2222222222",
"2222222222",
"2222222222",
"2222222222"};
