/* XPM */
static char * stripe_xpm[] = {
"1 10 6 1",
" 	c #FAFAFA",
".	c #F5F5F5",
"+	c #F0F0F0",
"@	c #EBEBEB",
"#	c #E6E6E6",
"$	c #E1E1E1",
" ",
".",
"+",
"@",
"#",
"$",
"#",
"@",
"+",
"."};
