/* XPM */
static char *magick[] = {
/* columns rows colors chars-per-pixel */
"32 256 55 1",
"  c #a3a3b0",
". c #a4a4b0",
"X c #a4a4b1",
"o c #a4a5b1",
"O c #a5a5b1",
"+ c #a5a5b2",
"@ c #a5a6b2",
"# c #a6a6b2",
"$ c #a6a6b3",
"% c #a6a7b3",
"& c #a7a7b3",
"* c #a7a7b4",
"= c #a7a8b4",
"- c #a8a8b5",
"; c #a8a9b5",
": c #a9a9b6",
"> c #a9aab6",
", c #aaaab6",
"< c #aaaab7",
"1 c #aaabb7",
"2 c #ababb8",
"3 c #abacb8",
"4 c #acacb9",
"5 c #acadb9",
"6 c #adadb9",
"7 c #adadba",
"8 c #adaeba",
"9 c #aeaebb",
"0 c #aeafbb",
"q c #afafbb",
"w c #afafbc",
"e c #afb0bc",
"r c #b0b0bd",
"t c #b0b1bd",
"y c #b1b1be",
"u c #b1b2be",
"i c #b2b2be",
"p c #b2b2bf",
"a c #b2b3bf",
"s c #b3b3c0",
"d c #b3b4c0",
"f c #b4b4c0",
"g c #b4b4c1",
"h c #b4b5c1",
"j c #b5b5c1",
"k c #b5b5c2",
"l c #b5b6c2",
"z c #b6b6c3",
"x c #b6b7c3",
"c c #b7b7c3",
"v c #b7b8c4",
"b c #b8b9c5",
"n c #b9bac6",
"m c #babbc6",
"M c #babbc7",
/* pixels */
"MMMMMMMMMMMMMMMMMMMMMMMMMMMMMMMM",
"MccMMccccMvvvMvvvvvvvMvvvMvvvvvM",
"xxxxxxxxccclvlccllxxvcclzzvvllll",
"xsxxsxxxlllllllllllslllllllzllll",
"ssxssssssssslsssssddsssslssddddd",
"eeesaesedesessseseesesssss0sss0s",
"eeeeeeee0ews0s0ews0seeww0wws00s0",
"eewweeww000000000000000000000000",
"0w0w000000000000w00w00w000000000",
"0707070000w77ww77007707w7w7w7070",
"7w7w7000000w7w7w0700w7w7w7w70700",
"w7w7w7000007w7w770007w7w7w7w7w00",
"70700200022070700200022007070200",
"07020202000007020202000070200202",
"20020020200220020020200220000020",
"07702000207707702000207707022000",
"77020077002207020002007700220702",
"77000277200077000200027720007700",
"22222022202022222222202220202222",
"20022220202220022002222020222002",
"72720022022722202727002202272220",
"27272220227200227272222022720022",
"72722220202022022727222020202202",
"27220022202220257272702220222025",
"22222222533322222222222333332222",
"22222225333322252222222533332225",
"22222222>333222222222222>3332222",
"22222222233322222222222223332222",
"22>3>22222222222223>222222222222",
"223322222222222222>3222222222222",
"33333>3>3>3>3>3>33=33>3>3>3>3>3>",
"33=3>3>3>3>3>3>33333>3>3>3>3>3>3",
"7*7*7*7*7*7*7*7*7*7*7*7*7*7*7*7*",
"*7*7*7*7*7*7*7*7*7*7*7*7*7*7*7*2",
"7*7*7*2*7*7*7*2*7*7*7*2*7*7*7*2>",
"*7*7*7>2*7*7*7>2*7*7*7>2*7*7*7>2",
"2>>>>>>>2>>>>>>>2>>>>>>>2>>>>>>>",
">>>>>>>>>>>>>>>>>>>>>>>>>>>>>2>>",
"*2*2*2*2*2*2*2*2*2*2*2*2*2*22*2*",
"2*2*2*2*2*2*2*2*2*2*2*2*2*2**2*2",
"*2*2*2*2*2*2*2*2*2*2*2*22*2*2*2*",
"2*2*2*2*2*2*2*2*2*2*2*2**2*2*2*2",
"*>*>*>*>2>>>*>*>*>*>*>*>>*>*>>>>",
"*>*>*>*******>*>*>*>*>**>**2****",
"2*2*>>**2***2*2*2*2*>>****2****>",
"*******2***2***********2*2**>>**",
"**2*2***2*2***2***2*2******>**>*",
"*2*****2*****2***2*****2*2***>*>",
"**>*>$=$==>$=$==>$=$==>$=$==>$=$",
"******$>>$**$>>$**$>>$**$>>$**$>",
"******$$$*****$$**$>$*****$$**&&",
"*******>$*********$&$*******$$>&",
"**>$$*&&&&$=*>$$&&>&&&&&**$&&>$&",
"$$&$&$&$&&&$$&&$&&$$&&&&&$=$$$=$",
"$&&=&=$==$$==$&=&&&&&&&&&=$=$=$=",
"$$$$$$$$$$$$$$$$$$$$$$$$$$$$$$$$",
"$$$&$$$$$$$$$$$$$$$$$$$$$$$$$$$$",
"$$$+$$$$$$$$$$$$$$$$$$$&$$$$$$$$",
"$$+%$$$$$$$$$&$$$$$$$+&+$$$$$$$$",
"%+%+%+%&$$$$XX=X%++++%+%++$X$$$$",
"++++$X$X$X$X$X$X++++++++++++X$X$",
"++++X$X$X$X$X$X$++++++++++++$X$X",
"++++$X$X$X$X$X$X++++++++++++X$$$",
"++++X$X$X$X$X$X$++++++++++++$X$$",
"++++++++++++++++++++++++++++++++",
"+++..++.+..++.+..++.+..++.+..++.",
"++ + +.+ + +.+.+ +.+ + +.+.+ +.+",
"+ + +.+.+ + +.+ +.+.+ + +.+ +.+.",
" + + + + + + + + + + + + + + + +",
"+ + + + + + + + + + + + + + + + ",
" +.++. +.++. +.+ + + + + +.++. +",
". .. .. .. .. ........... .. .. ",
"                                ",
"                                ",
"                                ",
"                                ",
"                                ",
"                                ",
"                                ",
"                                ",
". . . . . . . . . ..............",
".+.+.+.+.+.+.+.+.++. ++  + ++  +",
"+ + + + + + + +  + ++ + + + + + ",
" + + + + + + + ++ +  + + + + + +",
"+ + + + + + + +  + + ++ + + + + ",
" + +   + + +   ++ + +  + +   + +",
"% +  %% % +  %+  + +  + +  %% + ",
" o %oo o o % %  + + % oo %oo o %",
"%+++++++++++++++++++++++%+++++++",
"++++++++++++++++++++++++++++++++",
"++++++++++++++++++++++++++++++++",
"++++++++++++++++++++++++++++++++",
"++++++++++++++++++++++++++++++++",
"++++++++++++++++++++++++++++++++",
"+%+%+%%o+%+%+%+%+%+%+%+%+%+%+%%o",
"%+%+%+%%%+%+%+%+%+%+%+%+%+%+%+%%",
"+%+%$$$$$$$$$$$$$$$$$$$$$$$$$$$$",
"%+%+$$$$$$$$$$$$$$$$$$$$$$$$$$$$",
"$$+%$$$$$$$$$$$$$$$$$$$$$$$$$$$$",
"$$&+$$$$$$$$$$$$$$$$$$$$$$$$$$$$",
"$$$$$$$$$$$$$$$$$$$$$$$$$$$$$$$$",
"&&&&&&=&=$=$$==$$==$$=$=$=$=$=$=",
"&&&&&&&$$=$$&&$=$&&&=$$&=$&&=$&&",
"&&&&&&>$&$>&&&&$$$>&&&**$=&&$=&&",
"********&&**********************",
"********>&**********************",
"********$*********************$*",
"*******$$**********$**********$>",
">===*>$==$>*>===*>$==$>*>>==>$&&",
"$===*>>$=>$*$===*>>$=>$*$&==$$>&",
"*>>***>*>**>*>>***>*>**>*>>$*2**",
"***>>***>**>***>>***>**>***>**2*",
">*>***2**2*2***2***2*2***2*2***2",
">***>****>**2**>2**>**2**>**2**>",
"******2*$**$**>***>*>***$**$**>*",
">>>>>>*>>>>>>*>*>*>*>*>>>>>>>*>*",
">>>*>>>*>>*>>$&>>$>>*>>$>>*>>$&>",
"**>2>**2*22*>>2*>2**2*>2*22*>>2*",
"2*2*2*2*2*2*>**2>**2*2*22*2*>**2",
"*2*2*2*2*2*2*22**22*2*2**2*2*22*",
"2*2*>>*2*2*2>>>>2*2*>>>>*2*2>>>>",
"*2*2>>2*2*2*2&>>*2*2>2>>2*2*2&>>",
">>2>>>2&>>>>&22&>>2>2&&2>>>>&22&",
">>>>>2&2>>>>22&2>>>>&22&>>>>22&2",
">2*222$22&&22&&22>22&2$22&&22&&2",
"2>7*2*2222222222>2*2222222222222",
">7*722222*2*222$2222&2222*2*222$",
"2*7*2*2*>2222&22*2*222$2>2222&22",
"=222222=22&111112&112&112&112&&1",
"55==2=52=22111112111211121112281",
"2=55=5=5221111112211221122112211",
"55=5=522=21111122=11111111111111",
"33332222522222222222222222222222",
"33>32222222222222222222222222222",
"22222222222222252222222222222222",
"222222222222222=2222222222222222",
"2252533322252525525=55=528,88&22",
"222533332222525225255555288&8828",
"22522533222225255252255=2282222&",
"25255252822w52522525555582228288",
"2w2e252522w228282828252822998222",
"22225252822222828282528282222288",
"2w25222e2828w2282828282822222922",
"5252e552828282828282828288882882",
"555582888288,8,82022208282852888",
"55558282882888882020522228558828",
"88888888228989,82222588888889282",
"88882w22888222887007e2888888928w",
"822w2w2w29999992002777778282w2w2",
"88w2w2w2992292992007777088822w28",
"8888888898888888200002028888w888",
"88888888888888880022007088888888",
"88888888888888880707020707070707",
"88888888888888887070007070707070",
"9999999999999999w7w70707070707w7",
"99999999999999997w7w707070707070",
"99999999998e9999w7w7w7w707w70007",
"9999999999989999707w7w70707w0000",
"e8e8e8e8e88q8q990000w00000w00000",
"8e8e8e8e8eq8qq990000000000000000",
"e8e9e9qq99e9e999qqqq99e9e999qqqq",
"qe9e9eqq9i9e9e9iqqqq9i9e9e9iqqqq",
"e9e9e9e99999e9i9e9e99999e9i9e9e9",
"9e9e9e9e9p9p9e999e9e9p9p9e999e9e",
"9e99i9e999e99e99e9e9i9999e99e9e9",
"ieee9eeieeeepeeeeeeeeeeepeeeeeei",
"eeeeeeeeeeeeeeeeeeeeeeeeeeeeeeee",
"eeeeeeeeeeeeeeeeeeeeeeeeeeeeeeee",
"eeeeeeeeeeeeeeeeeeeeeeeeeeeeeeee",
"eeeee9eeeeeee9eeeeeeeeeeeee9eeee",
"9pep9ppe9pep9ppep9p9p9eeep9p9pep",
"p9p9peeep9p9peee9p9p9ppep9p9p9p9",
"9peepeep9peepeeppp9pepeeeeep9ep9",
"eepepeepeepepeepeeeeeeepppeepeep",
"ppeeeeeeppeeeeeepepeeeepeepeeeep",
"eeepeppeeeepeppeeepeexeeepeeppee",
"eppeeppepeeepeeeeepepeeepeeeppee",
"eeeeeeeeeepeeepepexeeepepepeeeep",
"ppepppepppppppppepeeepppppeepepp",
"epppeppepeeppeepppepppeeeppppppe",
"pppeeppeppepppeepeeepeeeepeeeepp",
"peppeeexepepeexeppxeppxeppexpppe",
"xeexexeeexxexeepeexpeepepeeeexpe",
"epeeexexeepeeexeppeexeexexxeeeex",
"exeexexeeeeexexeeeipexexexeexexe",
"eexeeexexexeeeeixxeeeeeeeexeeexe",
"iiiiiieiiiiixiiieiiixeiiiiiiiiei",
"pppppppippppeppppipppipppppppppi",
"pppepeeppppppppepeeppppppppepeep",
"xexepxexexxexexepxexexxexexepxex",
"epexeepxeeexepexeepxeeexepexeepx",
"exxexxpexexeexxexxpexexeexxexxpe",
"exexpxeexexeexexepxxexpxeexeepxx",
"xeeeexexexpexeeexpeexeexexexxpee",
"xpxeepxpepxxxpxexepeeepppeexxepe",
"eppxxpepxpepeppxpexxpxxexxpppexx",
"pxppxexpppxpppxeepppppexepeppxpp",
"xpxepxexxxeexppxxxxpxpxepxxxxpxe",
"expxxexeexxxxpxexexxpxixxpxeexpx",
"xexeexpxxpexexexexeexexeexexxexe",
"xexixexiexixexxexixexxexxexixexi",
"ixexpxexxexexeexexexxexixxexxxex",
"xexexexexixxxixeippiexexexxeexxe",
"ixixixixexiiiixxxixxxixixiiixipi",
"xpxpxpxppxpxxpxppxpexpxeixpppxpx",
"xixxexxpxpxxpxpxxexxxpxxxpxxxxxp",
"xepxexexpxxexixxxxxepxexexpxxexi",
"xxxpxxxxexxexxxexexxxpxxxxexxexx",
"exxexxxeixxxixexxixexxxeixxxixex",
"xxxixixxxiexexxxxxxixixxxiexexxx",
"eixxixexxxxxxxxieixxixexxxxxxxxi",
"xxxixixxpxipxiixxxxixixxpxipxiix",
"xppxxxpxpxxxxpxexppxxxpxpxxxxpxe",
"xxxxxpxxxxxpxxxxxxxxxpxxxxxpxxxx",
"xxxipxxpxppxxpxxxxxipxxpxppxxpxx",
"xpxxxxxxxxxxxxxpxpxxxxxxxxxxxxxp",
"xpxxxpxxexxxxpxxxpxxxpxxexxxxpxx",
"xxxxxxxxxxexxxxxxxxxxxxxxxexxxxx",
"xeixpxxpexxxpxxpxeixpxxpexxxpxxp",
"xxxxxxxxxxxxxxxxxxxxxxxxxxxxxxxx",
"xxxxpzxxxxxxxpxxxxxxpzxxxxxxxpxx",
"xxxxzzxxxxxxzzxxxxxxzzxxxxxxzzxx",
"xxxxzxxxxxxxzxxxxxxxzxxxxxxxzxxx",
"xxxxMxxxxxxxMxxxxxxxMxxxxxxxMxxx",
"MaMaMaMaMaMaMaMabbbabaabbaababbb",
"aMaMaMaMaMaMaMaMaabbbbbbbbbbbbaa",
"MaMaMaMaMaMaMaMabbababbaabbababb",
"aMaMaMaMaMaMaMaMbabbabbbabbabbab",
"mzbaaMazmabcamaabbbabbacccccabbb",
"ammmMzmzzMabMamMbaccabccccmcxbba",
"mazzaMMzMzmmMMaMcambbbbbbabbbxbx",
"zMzmMmamamzzabMMmbbbbbabbbbbxbxb",
"MaMaMMaMaMbMaMbabbbaMaMbbxbxbxbx",
"MmzMMaaMMMaMabMaabbMbbabxbxbxbxb",
"aMaaMMMMbaMaMMbMMaMabbMbbxbxbxbx",
"MzMMaaMaMaMbMaaMbbbbaMabxbxbxbxb",
"xxMaMxaMaMbMMaMaababMbbabxbxxbbb",
"MMMMMMaMbbMaMbMbmMmbbbMmbbbbbbbb",
"aMaMaMmMbbbbbbbbMMbbbbbbbbbbbbbb",
"MMMMMMzMbbbbbbbbbbbbbbbbbbbbbbbb",
"aMaMaMMMMMaMMMMMbbbbbbbbbbbbbbbb",
"MMMMMMMaMaMMMaMabbbbbbbbbbbbbbbb",
"MMaMaMaMMMMMaMMMbbbbbbbbbbbbbbbb",
"MaMMMMMMMaMaMMMabbbbbbbbbbbbbbbb",
"aMaMMMaMMMMMMaMMbbbbbbbbbbbbbbbb",
"MMMMzMMMMaMMMMMMMbbMMbMbMbMbMbMb",
"MamMMMaMMMaMMMMMbMbMbMbMbMbMbMbM",
"MMMMMMMMMaMMMMMaMbMbMbMbMbMbMbMb",
"MbMbMbMbMMaMMMMMbMbMbMbMMbMbMbMb",
"bMbMbMbMMMMMMMMaMbMbMbMbbMbMbMbM",
"MbMbMbMbMMMMaMMMbMbMbMbMMbMbMbMb",
"bMbMbMbMMaMMMMMMMbMbMbMbbMbMbMbM",
"MbMbMMMMbMbMMMMMbMbMMMMMMbMbMMMb",
"bMbMmmMMmmmbMMMbMbMbMMMmbMmmMMbM",
"MmmmMMMmmmMMMMMMMMMMMMMMMmmmMMMM",
"MmmmMMMmmmMMMMMMMMMMMMMMMmmmMMMM"
};
