/* XPM */
static char * Xfcemetal_xpm[] = {
"10 128 15 1",
" 	c None",
".	c #BEBEBE",
"+	c #E2E2E2",
"@	c #D6D6D6",
"#	c #C6C6C6",
"$	c #EEEEEE",
"%	c #CECECE",
"&	c #EAEAEA",
"*	c #DEDEDE",
"=	c #CACACA",
"-	c #D2D2D2",
";	c #DADADA",
">	c #E6E6E6",
",	c #F2F2F2",
"'	c #C2C2C2",
",,,,,,,,,,",
",,,,,,,,,,",
"$$$$$$$$$,",
",,,,,,,,,$",
"$$$$$$$$$$",
"$$$$$$$$$$",
"&&&&&&&$$$",
"$$$$$$$&&&",
"&&&&&&&$$&",
"&&&&&&&&&&",
"&&&&&&>>&&",
">>>>>&&&&>",
"&&&&>>>>&&",
">>>>>&&>>>",
">>>>>>>>>>",
">>>>++>>>>",
"++>>>>+++>",
">>++++>+>+",
"++++++>+++",
"++++++++++",
"+++++*++++",
"*++**+**+*",
"**+***+*+*",
"**********",
"*;***;*;**",
";*****;***",
"*;;;***;;*",
";*;*;;;*;;",
";;;;;;;;;;",
"@;@;;;@;;;",
";;@@@;;@@;",
"@@;;;@@;;@",
";@@@;@@@@@",
"@@@@@;@@;;",
"@@@@@@@@@@",
"@@@@@@@@@@",
"@@@-@@--@@",
"@@-@@@@@@@",
"-@@--@@--@",
"----@-----",
"--@---@@--",
"----------",
"----------",
"-%---%%---",
"-%--------",
"--%%--%%%%",
"%--%%-----",
"-%%%%%%%%%",
"%%--%%%%%%",
"%%%%%%%%%%",
"%==%%%%%%%",
"%%%%%%%%%%",
"%%=======%",
"==%%%%%%%=",
"==========",
"%=======%%",
"==========",
"==========",
"======##==",
"==========",
"#####==##=",
"=====##==#",
"##########",
"##########",
"##########",
"##########",
"#'##''####",
"'#''##''''",
"'##''#####",
"#''##'''''",
"''''''''''",
"''''''''''",
"''''''''''",
"''''''''''",
"..''.'.'.'",
"''..'.'.'.",
"..........",
".''.'.'.''",
"..'.'.'..'",
"'''''''''.",
"''''''''''",
"''''''''##",
"########'#",
"##########",
"#######=##",
"======##==",
"==========",
"=====%====",
"%=%%=%=%%%",
"=%==%%%=%=",
"%%%%%%%%%%",
"---%%--%--",
"----%---%-",
"----------",
"---@---@--",
"@@@-@@@-@@",
"@@@@@@@@@@",
"@@;@@@;@@@",
";@@;@@;;;;",
"@;;@;;@;;@",
";;;;;;;;;;",
";;*;;*;;*;",
"*;**;;;;**",
";*;;****;;",
";**;**;***",
"**********",
"**+**+****",
"++****++++",
"*+++++**++",
"++++++++++",
"++++++++++",
"+++++>>+++",
">>>++++>>>",
">>+>>>>+>+",
">>>>>>>>>>",
">&>>>>&>&>",
">&&&&>>>&&",
"&>>>>&&&>>",
"&&&&>&>&&&",
"&&&&&&&&&&",
"&&&$&$&&&&",
"$$$&&&$$$$",
"&$$$$$&&$$",
"$&$$$&$$&$",
"$$$$$$$$$$",
",$$$,$$,$$",
"$,$$,,$$,,",
",$,,,,,,,$"};
