#define iconify_width 16
#define iconify_height 16
static unsigned char iconify_bits[] = {
  0xff, 0xff, 0xff, 0xff, 0xff, 0xff, 0xff, 0xff, 0xff, 0xff, 0xff, 0xff,
  0x3f, 0xfc, 0xbf, 0xfd, 0xbf, 0xfd, 0x3f, 0xfc, 0xff, 0xff, 0xff, 0xff,
  0xff, 0xff, 0xff, 0xff, 0xff, 0xff, 0xff, 0xff, };
