#define maximize_pressed_width 16
#define maximize_pressed_height 16
static unsigned char maximize_pressed_bits[] = {
  0xff, 0xff, 0xff, 0xff, 0xff, 0xff, 0xff, 0xff, 0x0f, 0xfc, 0x0f, 0xfc,
  0xef, 0xfd, 0x2f, 0xf0, 0x0f, 0xf0, 0xbf, 0xf7, 0xbf, 0xf7, 0x3f, 0xf0,
  0xff, 0xff, 0xff, 0xff, 0xff, 0xff, 0xff, 0xff, };
