#define maximize_width 16
#define maximize_height 16
static unsigned char maximize_bits[] = {
  0xff, 0xff, 0xff, 0xff, 0xff, 0xff, 0xff, 0xff, 0x0f, 0xf0, 0x0f, 0xf0,
  0xef, 0xf7, 0xef, 0xf7, 0xef, 0xf7, 0xef, 0xf7, 0xef, 0xf7, 0x0f, 0xf0,
  0xff, 0xff, 0xff, 0xff, 0xff, 0xff, 0xff, 0xff, };
