#define stick_pressed_width 16
#define stick_pressed_height 16
static unsigned char stick_pressed_bits[] = {
  0xff, 0xff, 0xff, 0xff, 0xff, 0xff, 0xff, 0xff, 0x3f, 0xfc, 0xdf, 0xfb,
  0x2f, 0xf4, 0x2f, 0xf4, 0x2f, 0xf4, 0x2f, 0xf4, 0xdf, 0xfb, 0x3f, 0xfc,
  0xff, 0xff, 0xff, 0xff, 0xff, 0xff, 0xff, 0xff, };
