#define stick_width 16
#define stick_height 16
static unsigned char stick_bits[] = {
  0xff, 0xff, 0xff, 0xff, 0xff, 0xff, 0xff, 0xff, 0x3f, 0xfc, 0xdf, 0xfb,
  0xef, 0xf7, 0xef, 0xf7, 0xef, 0xf7, 0xef, 0xf7, 0xdf, 0xfb, 0x3f, 0xfc,
  0xff, 0xff, 0xff, 0xff, 0xff, 0xff, 0xff, 0xff, };
